M48
; DRILL file {KiCad 6.0.0-unknown-69339f3~86~ubuntu18.04.1} date Fri 17 May 2019 03:55:20 PM EDT
; FORMAT={2:4/ absolute / inch / keep zeros}
; #@! TF.CreationDate,2019-05-17T15:55:20-04:00
; #@! TF.GenerationSoftware,Kicad,Pcbnew,6.0.0-unknown-69339f3~86~ubuntu18.04.1
FMAT,2
INCH
T1C0.0250
T2C0.0280
T3C0.0430
T4C0.0433
T5C0.0440
T6C0.0591
T7C0.0709
T8C0.1181
T9C0.1300
%
G90
G05
T1
X036449Y-047555
X036550Y-050915
X037464Y-046968
X037911Y-044412
X038585Y-038887
X039011Y-045448
X039085Y-039630
X039138Y-048719
X039527Y-044955
X040090Y-048711
X040953Y-043958
X041357Y-048715
X041646Y-039198
X042548Y-048293
X043887Y-042167
X045347Y-040422
X045535Y-042472
X045879Y-040208
X045918Y-051776
X045961Y-030750
X047534Y-036859
X047625Y-048551
X047743Y-035933
X048124Y-049165
X048866Y-041906
X049172Y-045140
X050576Y-038696
X052203Y-032517
X053519Y-030773
X053910Y-051701
X053922Y-051258
X055154Y-048504
X055473Y-043316
X056075Y-034023
X058654Y-039688
X059037Y-043776
X060969Y-052250
X062003Y-031628
X062653Y-042591
X062666Y-048386
X063677Y-034059
X063953Y-041201
X064165Y-041894
X069088Y-031353
X069761Y-051653
X070255Y-048399
X070575Y-034181
T2
X051993Y-042316
X061955Y-041830
X062018Y-042695
T3
X028500Y-029500
X029500Y-029500
X030500Y-029500
X031500Y-029500
X032500Y-029500
X033500Y-029500
X034500Y-029500
X035500Y-029500
X036500Y-029500
X037500Y-029500
X038500Y-029500
X039500Y-029500
X040500Y-029500
X041500Y-029500
X042500Y-029500
X043500Y-029500
X044500Y-029500
X045500Y-029500
X046500Y-029500
X047500Y-029500
X048500Y-029500
X049500Y-029500
X050500Y-029500
X051500Y-029500
X052500Y-029500
X028500Y-053500
X029500Y-053500
X030500Y-053500
X031500Y-053500
X032500Y-053500
X033500Y-053500
X034500Y-053500
X035500Y-053500
X036500Y-053500
X037500Y-053500
X038500Y-053500
X039500Y-053500
X040500Y-053500
X041500Y-053500
X042500Y-053500
X043500Y-053500
X044500Y-053500
X045500Y-053500
X046500Y-053500
X047500Y-053500
X048500Y-053500
X049500Y-053500
X050500Y-053500
X051500Y-053500
X052500Y-053500
T4
X049522Y-047750
X072022Y-047750
X064522Y-047750
X064522Y-035250
X049522Y-035250
X072022Y-035250
X057022Y-035250
X057022Y-047750
T5
X030008Y-037378
X030930Y-040421
X030930Y-042579
X034070Y-041938
X034890Y-041071
T6
X068478Y-047750
X060978Y-047750
X060978Y-035250
X045978Y-035250
X068478Y-035250
X053478Y-035250
X053478Y-047750
X045978Y-047750
T7
X031280Y-036579
X031280Y-046421
X068961Y-039846
X068961Y-041500
X068961Y-043154
X071126Y-039846
X071126Y-041500
X071126Y-043154
X039280Y-036579
X039280Y-046421
T8
X074000Y-039846
X074000Y-043154
T9
X029000Y-051500
X065000Y-053500
X065000Y-029500
X029000Y-031500
T0
M30
