G04 #@! TF.GenerationSoftware,KiCad,Pcbnew,6.0.0-rc1-unknown-d9d0051~66~ubuntu18.04.1*
G04 #@! TF.CreationDate,2018-08-28T13:07:50-04:00*
G04 #@! TF.ProjectId,backlight_controller_5x3,736D6172745F766973696F6E5F636F6E,1.0*
G04 #@! TF.SameCoordinates,Original*
G04 #@! TF.FileFunction,Soldermask,Top*
G04 #@! TF.FilePolarity,Negative*
%FSLAX46Y46*%
G04 Gerber Fmt 4.6, Leading zero omitted, Abs format (unit mm)*
G04 Created by KiCad (PCBNEW 6.0.0-rc1-unknown-d9d0051~66~ubuntu18.04.1) date Tue Aug 28 13:07:50 2018*
%MOMM*%
%LPD*%
G01*
G04 APERTURE LIST*
%ADD10C,0.228600*%
%ADD11O,5.080000X3.556000*%
%ADD12O,4.064000X5.080000*%
%ADD13O,4.572000X3.556000*%
%ADD14C,1.930400*%
%ADD15O,4.000000X3.000000*%
%ADD16R,4.000000X3.000000*%
%ADD17C,4.000000*%
%ADD18O,1.854200X2.540000*%
%ADD19C,3.556000*%
%ADD20R,1.854200X2.540000*%
%ADD21O,5.000000X6.000000*%
%ADD22O,1.600000X2.200000*%
%ADD23R,1.600000X2.200000*%
%ADD24C,3.000000*%
%ADD25O,1.500000X2.500000*%
%ADD26O,1.524000X2.032000*%
G04 APERTURE END LIST*
D10*
X191135000Y-71755000D02*
X69850000Y-71755000D01*
X191135000Y-139065000D02*
X191135000Y-71755000D01*
X69850000Y-139065000D02*
X191135000Y-139065000D01*
X69850000Y-71755000D02*
X69850000Y-139065000D01*
D11*
G04 #@! TO.C,P2*
X185496200Y-122605800D03*
X185496200Y-113614200D03*
D12*
X178511200Y-118110000D03*
D13*
X183997600Y-118110000D03*
D14*
X187502800Y-118110000D03*
G04 #@! TD*
D15*
G04 #@! TO.C,P1*
X175160000Y-96910000D03*
X175160000Y-92710000D03*
X175160000Y-88510000D03*
X180660000Y-96910000D03*
X180660000Y-92710000D03*
D16*
X180660000Y-88510000D03*
D17*
X187960000Y-96910000D03*
X187960000Y-88510000D03*
G04 #@! TD*
D18*
G04 #@! TO.C,MDB1*
X133350000Y-74930000D03*
X130810000Y-74930000D03*
X128270000Y-74930000D03*
X125730000Y-74930000D03*
X123190000Y-74930000D03*
X120650000Y-74930000D03*
X118110000Y-74930000D03*
X115570000Y-74930000D03*
X113030000Y-74930000D03*
X133350000Y-135890000D03*
X130810000Y-135890000D03*
X128270000Y-135890000D03*
X125730000Y-135890000D03*
X123190000Y-135890000D03*
X120650000Y-135890000D03*
X118110000Y-135890000D03*
X115570000Y-135890000D03*
X113030000Y-135890000D03*
D19*
X165100000Y-74930000D03*
X165100000Y-135890000D03*
X73660000Y-130810000D03*
X73660000Y-80010000D03*
D18*
X72390000Y-135890000D03*
X74930000Y-135890000D03*
X77470000Y-135890000D03*
X80010000Y-135890000D03*
X82550000Y-135890000D03*
X85090000Y-135890000D03*
X87630000Y-135890000D03*
X90170000Y-135890000D03*
X92710000Y-135890000D03*
X95250000Y-135890000D03*
X97790000Y-135890000D03*
X100330000Y-135890000D03*
X102870000Y-135890000D03*
X105410000Y-135890000D03*
X107950000Y-135890000D03*
X110490000Y-135890000D03*
X110490000Y-74930000D03*
X107950000Y-74930000D03*
X105410000Y-74930000D03*
X102870000Y-74930000D03*
X100330000Y-74930000D03*
X97790000Y-74930000D03*
X95250000Y-74930000D03*
X92710000Y-74930000D03*
X90170000Y-74930000D03*
X87630000Y-74930000D03*
X85090000Y-74930000D03*
X82550000Y-74930000D03*
X80010000Y-74930000D03*
D20*
X72390000Y-74930000D03*
D18*
X77470000Y-74930000D03*
X74930000Y-74930000D03*
G04 #@! TD*
D21*
G04 #@! TO.C,J3*
X108155000Y-92710000D03*
X133142000Y-92710000D03*
D22*
X115110000Y-91290000D03*
X117880000Y-91290000D03*
X120650000Y-91290000D03*
X123420000Y-91290000D03*
D23*
X126190000Y-91290000D03*
D22*
X116495000Y-94130000D03*
X119265000Y-94130000D03*
X122035000Y-94130000D03*
X124805000Y-94130000D03*
G04 #@! TD*
D21*
G04 #@! TO.C,J4*
X108155000Y-118110000D03*
X133142000Y-118110000D03*
D23*
X115110000Y-116690000D03*
D22*
X117880000Y-116690000D03*
X120650000Y-116690000D03*
X123420000Y-116690000D03*
X126190000Y-116690000D03*
X116495000Y-119530000D03*
X119265000Y-119530000D03*
X122035000Y-119530000D03*
X124805000Y-119530000D03*
G04 #@! TD*
D24*
G04 #@! TO.C,J1*
X152400000Y-85710000D03*
D25*
X150632200Y-94477800D03*
X154167800Y-94477800D03*
X154167800Y-90942200D03*
X150632200Y-90942200D03*
X152400000Y-92710000D03*
G04 #@! TD*
D24*
G04 #@! TO.C,J2*
X152400000Y-111110000D03*
D25*
X150632200Y-119877800D03*
X154167800Y-119877800D03*
X154167800Y-116342200D03*
X150632200Y-116342200D03*
X152400000Y-118110000D03*
G04 #@! TD*
D26*
G04 #@! TO.C,L1*
X166370000Y-102870000D03*
X166370000Y-107950000D03*
G04 #@! TD*
G04 #@! TO.C,L2*
X93345000Y-89535000D03*
X93345000Y-84455000D03*
G04 #@! TD*
G04 #@! TO.C,L3*
X95885000Y-84455000D03*
X95885000Y-89535000D03*
G04 #@! TD*
G04 #@! TO.C,L4*
X98425000Y-89535000D03*
X98425000Y-84455000D03*
G04 #@! TD*
G04 #@! TO.C,L5*
X100965000Y-84455000D03*
X100965000Y-89535000D03*
G04 #@! TD*
G04 #@! TO.C,L6*
X93345000Y-126365000D03*
X93345000Y-121285000D03*
G04 #@! TD*
G04 #@! TO.C,L7*
X95885000Y-126365000D03*
X95885000Y-121285000D03*
G04 #@! TD*
G04 #@! TO.C,L8*
X98425000Y-121285000D03*
X98425000Y-126365000D03*
G04 #@! TD*
G04 #@! TO.C,L9*
X100965000Y-121285000D03*
X100965000Y-126365000D03*
G04 #@! TD*
G04 #@! TO.C,L10*
X141605000Y-84455000D03*
X141605000Y-89535000D03*
G04 #@! TD*
G04 #@! TO.C,L11*
X141605000Y-126365000D03*
X141605000Y-121285000D03*
G04 #@! TD*
M02*
