G04 #@! TF.GenerationSoftware,KiCad,Pcbnew,6.0.0-unknown-f21face~86~ubuntu18.04.1*
G04 #@! TF.CreationDate,2019-05-20T10:49:21-04:00*
G04 #@! TF.ProjectId,backlight_controller_5x3,6261636b-6c69-4676-9874-5f636f6e7472,1.3*
G04 #@! TF.SameCoordinates,Original*
G04 #@! TF.FileFunction,Legend,Bot*
G04 #@! TF.FilePolarity,Positive*
%FSLAX46Y46*%
G04 Gerber Fmt 4.6, Leading zero omitted, Abs format (unit mm)*
G04 Created by KiCad (PCBNEW 6.0.0-unknown-f21face~86~ubuntu18.04.1) date 2019-05-20 10:49:21*
%MOMM*%
%LPD*%
G04 APERTURE LIST*
%ADD10C,1.000000*%
%ADD11C,0.177800*%
%ADD12C,0.381000*%
%ADD13C,0.228600*%
%ADD14C,0.158750*%
%ADD15C,0.254000*%
%ADD16R,1.003200X1.103200*%
%ADD17C,1.803200*%
%ADD18C,2.203200*%
%ADD19R,0.990600X1.803400*%
%ADD20R,1.803400X0.990600*%
%ADD21O,2.057400X2.743200*%
%ADD22R,2.057400X2.743200*%
%ADD23C,2.403200*%
%ADD24C,3.759200*%
%ADD25O,4.203200X3.203200*%
%ADD26R,4.203200X3.203200*%
%ADD27C,4.203200*%
%ADD28R,1.800000X1.640000*%
%ADD29R,4.000000X5.160000*%
%ADD30R,6.603200X6.003200*%
%ADD31R,2.403200X1.003200*%
%ADD32R,2.140000X0.740000*%
G04 APERTURE END LIST*
D10*
X120285000Y-81280000D02*
X122285000Y-81280000D01*
X120285000Y-129540000D02*
X122285000Y-129540000D01*
X139335000Y-81280000D02*
X141335000Y-81280000D01*
X139335000Y-129540000D02*
X141335000Y-129540000D01*
X158385000Y-81280000D02*
X160385000Y-81280000D01*
X158385000Y-129540000D02*
X160385000Y-129540000D01*
X177435000Y-81280000D02*
X179435000Y-81280000D01*
X177435000Y-129540000D02*
X179435000Y-129540000D01*
D11*
X117221000Y-102489000D02*
X118110000Y-102489000D01*
X117221000Y-100711000D02*
X117221000Y-102489000D01*
X118110000Y-100711000D02*
X117221000Y-100711000D01*
X120269000Y-102489000D02*
X119380000Y-102489000D01*
X120269000Y-100711000D02*
X120269000Y-102489000D01*
X119380000Y-100711000D02*
X120269000Y-100711000D01*
X94996000Y-121539000D02*
X95885000Y-121539000D01*
X94996000Y-119761000D02*
X94996000Y-121539000D01*
X95885000Y-119761000D02*
X94996000Y-119761000D01*
X98044000Y-121539000D02*
X97155000Y-121539000D01*
X98044000Y-119761000D02*
X98044000Y-121539000D01*
X97155000Y-119761000D02*
X98044000Y-119761000D01*
X91821000Y-114046000D02*
X91821000Y-114935000D01*
X93599000Y-114046000D02*
X91821000Y-114046000D01*
X93599000Y-114935000D02*
X93599000Y-114046000D01*
X91821000Y-117094000D02*
X91821000Y-116205000D01*
X93599000Y-117094000D02*
X91821000Y-117094000D01*
X93599000Y-116205000D02*
X93599000Y-117094000D01*
X117221000Y-105029000D02*
X118110000Y-105029000D01*
X117221000Y-103251000D02*
X117221000Y-105029000D01*
X118110000Y-103251000D02*
X117221000Y-103251000D01*
X120269000Y-105029000D02*
X119380000Y-105029000D01*
X120269000Y-103251000D02*
X120269000Y-105029000D01*
X119380000Y-103251000D02*
X120269000Y-103251000D01*
X94996000Y-111379000D02*
X95885000Y-111379000D01*
X94996000Y-109601000D02*
X94996000Y-111379000D01*
X95885000Y-109601000D02*
X94996000Y-109601000D01*
X98044000Y-111379000D02*
X97155000Y-111379000D01*
X98044000Y-109601000D02*
X98044000Y-111379000D01*
X97155000Y-109601000D02*
X98044000Y-109601000D01*
X91821000Y-103886000D02*
X91821000Y-104775000D01*
X93599000Y-103886000D02*
X91821000Y-103886000D01*
X93599000Y-104775000D02*
X93599000Y-103886000D01*
X91821000Y-106934000D02*
X91821000Y-106045000D01*
X93599000Y-106934000D02*
X91821000Y-106934000D01*
X93599000Y-106045000D02*
X93599000Y-106934000D01*
X94996000Y-101219000D02*
X95885000Y-101219000D01*
X94996000Y-99441000D02*
X94996000Y-101219000D01*
X95885000Y-99441000D02*
X94996000Y-99441000D01*
X98044000Y-101219000D02*
X97155000Y-101219000D01*
X98044000Y-99441000D02*
X98044000Y-101219000D01*
X97155000Y-99441000D02*
X98044000Y-99441000D01*
X91821000Y-93726000D02*
X91821000Y-94615000D01*
X93599000Y-93726000D02*
X91821000Y-93726000D01*
X93599000Y-94615000D02*
X93599000Y-93726000D01*
X91821000Y-96774000D02*
X91821000Y-95885000D01*
X93599000Y-96774000D02*
X91821000Y-96774000D01*
X93599000Y-95885000D02*
X93599000Y-96774000D01*
X94996000Y-91059000D02*
X95885000Y-91059000D01*
X94996000Y-89281000D02*
X94996000Y-91059000D01*
X95885000Y-89281000D02*
X94996000Y-89281000D01*
X98044000Y-91059000D02*
X97155000Y-91059000D01*
X98044000Y-89281000D02*
X98044000Y-91059000D01*
X97155000Y-89281000D02*
X98044000Y-89281000D01*
X91821000Y-83566000D02*
X91821000Y-84455000D01*
X93599000Y-83566000D02*
X91821000Y-83566000D01*
X93599000Y-84455000D02*
X93599000Y-83566000D01*
X91821000Y-86614000D02*
X91821000Y-85725000D01*
X93599000Y-86614000D02*
X91821000Y-86614000D01*
X93599000Y-85725000D02*
X93599000Y-86614000D01*
X132334000Y-112776000D02*
X131445000Y-112776000D01*
X132334000Y-114554000D02*
X132334000Y-112776000D01*
X131445000Y-114554000D02*
X132334000Y-114554000D01*
X129286000Y-112776000D02*
X130175000Y-112776000D01*
X129286000Y-114554000D02*
X129286000Y-112776000D01*
X130175000Y-114554000D02*
X129286000Y-114554000D01*
X117221000Y-107569000D02*
X118110000Y-107569000D01*
X117221000Y-105791000D02*
X117221000Y-107569000D01*
X118110000Y-105791000D02*
X117221000Y-105791000D01*
X120269000Y-107569000D02*
X119380000Y-107569000D01*
X120269000Y-105791000D02*
X120269000Y-107569000D01*
X119380000Y-105791000D02*
X120269000Y-105791000D01*
X117221000Y-110109000D02*
X118110000Y-110109000D01*
X117221000Y-108331000D02*
X117221000Y-110109000D01*
X118110000Y-108331000D02*
X117221000Y-108331000D01*
X120269000Y-110109000D02*
X119380000Y-110109000D01*
X120269000Y-108331000D02*
X120269000Y-110109000D01*
X119380000Y-108331000D02*
X120269000Y-108331000D01*
X154686000Y-98044000D02*
X155575000Y-98044000D01*
X154686000Y-96266000D02*
X154686000Y-98044000D01*
X155575000Y-96266000D02*
X154686000Y-96266000D01*
X157734000Y-98044000D02*
X156845000Y-98044000D01*
X157734000Y-96266000D02*
X157734000Y-98044000D01*
X156845000Y-96266000D02*
X157734000Y-96266000D01*
D12*
X71120000Y-134620000D02*
X71120000Y-137160000D01*
X134620000Y-134620000D02*
X71120000Y-134620000D01*
X134620000Y-137160000D02*
X134620000Y-134620000D01*
X71120000Y-137160000D02*
X134620000Y-137160000D01*
X71120000Y-73660000D02*
X71120000Y-76200000D01*
X134620000Y-73660000D02*
X71120000Y-73660000D01*
X134620000Y-76200000D02*
X134620000Y-73660000D01*
X71120000Y-76200000D02*
X134620000Y-76200000D01*
D13*
X71360000Y-84900000D02*
X71360000Y-92400000D01*
X75960000Y-84900000D02*
X71360000Y-84900000D01*
X75960000Y-92400000D02*
X75960000Y-84900000D01*
X71360000Y-92400000D02*
X75960000Y-92400000D01*
D12*
X90333607Y-90170000D02*
G75*
G03X90333607Y-90170000I-223607J0D01*
G01*
X84520000Y-86920000D02*
X84520000Y-93420000D01*
X84520000Y-93420000D02*
X90740000Y-93420000D01*
X90740000Y-93420000D02*
X90740000Y-86920000D01*
X90740000Y-86920000D02*
X84520000Y-86920000D01*
X90333607Y-100330000D02*
G75*
G03X90333607Y-100330000I-223607J0D01*
G01*
X84520000Y-97080000D02*
X84520000Y-103580000D01*
X84520000Y-103580000D02*
X90740000Y-103580000D01*
X90740000Y-103580000D02*
X90740000Y-97080000D01*
X90740000Y-97080000D02*
X84520000Y-97080000D01*
X90333607Y-110490000D02*
G75*
G03X90333607Y-110490000I-223607J0D01*
G01*
X84520000Y-107240000D02*
X84520000Y-113740000D01*
X84520000Y-113740000D02*
X90740000Y-113740000D01*
X90740000Y-113740000D02*
X90740000Y-107240000D01*
X90740000Y-107240000D02*
X84520000Y-107240000D01*
X90333607Y-120650000D02*
G75*
G03X90333607Y-120650000I-223607J0D01*
G01*
X84520000Y-117400000D02*
X84520000Y-123900000D01*
X84520000Y-123900000D02*
X90740000Y-123900000D01*
X90740000Y-123900000D02*
X90740000Y-117400000D01*
X90740000Y-117400000D02*
X84520000Y-117400000D01*
X126806000Y-99164000D02*
X134306000Y-99164000D01*
X126806000Y-112164000D02*
X126806000Y-99164000D01*
X134306000Y-112164000D02*
X126806000Y-112164000D01*
X134306000Y-99164000D02*
X134306000Y-112164000D01*
X133731000Y-100584000D02*
G75*
G03X133731000Y-100584000I-635000J0D01*
G01*
X159960000Y-111910000D02*
X152460000Y-111910000D01*
X159960000Y-98910000D02*
X159960000Y-111910000D01*
X152460000Y-98910000D02*
X159960000Y-98910000D01*
X152460000Y-111910000D02*
X152460000Y-98910000D01*
X154305000Y-110490000D02*
G75*
G03X154305000Y-110490000I-635000J0D01*
G01*
D14*
X121768809Y-79027261D02*
X121768809Y-79541309D01*
X121738571Y-79601785D01*
X121708333Y-79632023D01*
X121647857Y-79662261D01*
X121526904Y-79662261D01*
X121466428Y-79632023D01*
X121436190Y-79601785D01*
X121405952Y-79541309D01*
X121405952Y-79027261D01*
X121164047Y-79027261D02*
X120770952Y-79027261D01*
X120982619Y-79269166D01*
X120891904Y-79269166D01*
X120831428Y-79299404D01*
X120801190Y-79329642D01*
X120770952Y-79390119D01*
X120770952Y-79541309D01*
X120801190Y-79601785D01*
X120831428Y-79632023D01*
X120891904Y-79662261D01*
X121073333Y-79662261D01*
X121133809Y-79632023D01*
X121164047Y-79601785D01*
X121768809Y-127287261D02*
X121768809Y-127801309D01*
X121738571Y-127861785D01*
X121708333Y-127892023D01*
X121647857Y-127922261D01*
X121526904Y-127922261D01*
X121466428Y-127892023D01*
X121436190Y-127861785D01*
X121405952Y-127801309D01*
X121405952Y-127287261D01*
X120831428Y-127498928D02*
X120831428Y-127922261D01*
X120982619Y-127257023D02*
X121133809Y-127710595D01*
X120740714Y-127710595D01*
X140818809Y-79027261D02*
X140818809Y-79541309D01*
X140788571Y-79601785D01*
X140758333Y-79632023D01*
X140697857Y-79662261D01*
X140576904Y-79662261D01*
X140516428Y-79632023D01*
X140486190Y-79601785D01*
X140455952Y-79541309D01*
X140455952Y-79027261D01*
X139851190Y-79027261D02*
X140153571Y-79027261D01*
X140183809Y-79329642D01*
X140153571Y-79299404D01*
X140093095Y-79269166D01*
X139941904Y-79269166D01*
X139881428Y-79299404D01*
X139851190Y-79329642D01*
X139820952Y-79390119D01*
X139820952Y-79541309D01*
X139851190Y-79601785D01*
X139881428Y-79632023D01*
X139941904Y-79662261D01*
X140093095Y-79662261D01*
X140153571Y-79632023D01*
X140183809Y-79601785D01*
X140818809Y-127287261D02*
X140818809Y-127801309D01*
X140788571Y-127861785D01*
X140758333Y-127892023D01*
X140697857Y-127922261D01*
X140576904Y-127922261D01*
X140516428Y-127892023D01*
X140486190Y-127861785D01*
X140455952Y-127801309D01*
X140455952Y-127287261D01*
X139881428Y-127287261D02*
X140002380Y-127287261D01*
X140062857Y-127317500D01*
X140093095Y-127347738D01*
X140153571Y-127438452D01*
X140183809Y-127559404D01*
X140183809Y-127801309D01*
X140153571Y-127861785D01*
X140123333Y-127892023D01*
X140062857Y-127922261D01*
X139941904Y-127922261D01*
X139881428Y-127892023D01*
X139851190Y-127861785D01*
X139820952Y-127801309D01*
X139820952Y-127650119D01*
X139851190Y-127589642D01*
X139881428Y-127559404D01*
X139941904Y-127529166D01*
X140062857Y-127529166D01*
X140123333Y-127559404D01*
X140153571Y-127589642D01*
X140183809Y-127650119D01*
X159868809Y-79027261D02*
X159868809Y-79541309D01*
X159838571Y-79601785D01*
X159808333Y-79632023D01*
X159747857Y-79662261D01*
X159626904Y-79662261D01*
X159566428Y-79632023D01*
X159536190Y-79601785D01*
X159505952Y-79541309D01*
X159505952Y-79027261D01*
X159264047Y-79027261D02*
X158840714Y-79027261D01*
X159112857Y-79662261D01*
X159868809Y-127287261D02*
X159868809Y-127801309D01*
X159838571Y-127861785D01*
X159808333Y-127892023D01*
X159747857Y-127922261D01*
X159626904Y-127922261D01*
X159566428Y-127892023D01*
X159536190Y-127861785D01*
X159505952Y-127801309D01*
X159505952Y-127287261D01*
X159112857Y-127559404D02*
X159173333Y-127529166D01*
X159203571Y-127498928D01*
X159233809Y-127438452D01*
X159233809Y-127408214D01*
X159203571Y-127347738D01*
X159173333Y-127317500D01*
X159112857Y-127287261D01*
X158991904Y-127287261D01*
X158931428Y-127317500D01*
X158901190Y-127347738D01*
X158870952Y-127408214D01*
X158870952Y-127438452D01*
X158901190Y-127498928D01*
X158931428Y-127529166D01*
X158991904Y-127559404D01*
X159112857Y-127559404D01*
X159173333Y-127589642D01*
X159203571Y-127619880D01*
X159233809Y-127680357D01*
X159233809Y-127801309D01*
X159203571Y-127861785D01*
X159173333Y-127892023D01*
X159112857Y-127922261D01*
X158991904Y-127922261D01*
X158931428Y-127892023D01*
X158901190Y-127861785D01*
X158870952Y-127801309D01*
X158870952Y-127680357D01*
X158901190Y-127619880D01*
X158931428Y-127589642D01*
X158991904Y-127559404D01*
X178918809Y-79027261D02*
X178918809Y-79541309D01*
X178888571Y-79601785D01*
X178858333Y-79632023D01*
X178797857Y-79662261D01*
X178676904Y-79662261D01*
X178616428Y-79632023D01*
X178586190Y-79601785D01*
X178555952Y-79541309D01*
X178555952Y-79027261D01*
X178223333Y-79662261D02*
X178102380Y-79662261D01*
X178041904Y-79632023D01*
X178011666Y-79601785D01*
X177951190Y-79511071D01*
X177920952Y-79390119D01*
X177920952Y-79148214D01*
X177951190Y-79087738D01*
X177981428Y-79057500D01*
X178041904Y-79027261D01*
X178162857Y-79027261D01*
X178223333Y-79057500D01*
X178253571Y-79087738D01*
X178283809Y-79148214D01*
X178283809Y-79299404D01*
X178253571Y-79359880D01*
X178223333Y-79390119D01*
X178162857Y-79420357D01*
X178041904Y-79420357D01*
X177981428Y-79390119D01*
X177951190Y-79359880D01*
X177920952Y-79299404D01*
X179221190Y-127287261D02*
X179221190Y-127801309D01*
X179190952Y-127861785D01*
X179160714Y-127892023D01*
X179100238Y-127922261D01*
X178979285Y-127922261D01*
X178918809Y-127892023D01*
X178888571Y-127861785D01*
X178858333Y-127801309D01*
X178858333Y-127287261D01*
X178223333Y-127922261D02*
X178586190Y-127922261D01*
X178404761Y-127922261D02*
X178404761Y-127287261D01*
X178465238Y-127377976D01*
X178525714Y-127438452D01*
X178586190Y-127468690D01*
X177830238Y-127287261D02*
X177769761Y-127287261D01*
X177709285Y-127317500D01*
X177679047Y-127347738D01*
X177648809Y-127408214D01*
X177618571Y-127529166D01*
X177618571Y-127680357D01*
X177648809Y-127801309D01*
X177679047Y-127861785D01*
X177709285Y-127892023D01*
X177769761Y-127922261D01*
X177830238Y-127922261D01*
X177890714Y-127892023D01*
X177920952Y-127861785D01*
X177951190Y-127801309D01*
X177981428Y-127680357D01*
X177981428Y-127529166D01*
X177951190Y-127408214D01*
X177920952Y-127347738D01*
X177890714Y-127317500D01*
X177830238Y-127287261D01*
X117000261Y-101191785D02*
X116697880Y-100980119D01*
X117000261Y-100828928D02*
X116365261Y-100828928D01*
X116365261Y-101070833D01*
X116395500Y-101131309D01*
X116425738Y-101161547D01*
X116486214Y-101191785D01*
X116576928Y-101191785D01*
X116637404Y-101161547D01*
X116667642Y-101131309D01*
X116697880Y-101070833D01*
X116697880Y-100828928D01*
X117000261Y-101796547D02*
X117000261Y-101433690D01*
X117000261Y-101615119D02*
X116365261Y-101615119D01*
X116455976Y-101554642D01*
X116516452Y-101494166D01*
X116546690Y-101433690D01*
X117000261Y-102401309D02*
X117000261Y-102038452D01*
X117000261Y-102219880D02*
X116365261Y-102219880D01*
X116455976Y-102159404D01*
X116516452Y-102098928D01*
X116546690Y-102038452D01*
X120429261Y-101085952D02*
X120429261Y-101509285D01*
X121064261Y-101237142D01*
X120429261Y-102053571D02*
X120429261Y-101751190D01*
X120731642Y-101720952D01*
X120701404Y-101751190D01*
X120671166Y-101811666D01*
X120671166Y-101962857D01*
X120701404Y-102023333D01*
X120731642Y-102053571D01*
X120792119Y-102083809D01*
X120943309Y-102083809D01*
X121003785Y-102053571D01*
X121034023Y-102023333D01*
X121064261Y-101962857D01*
X121064261Y-101811666D01*
X121034023Y-101751190D01*
X121003785Y-101720952D01*
X94200738Y-120755833D02*
X94503119Y-120967500D01*
X94200738Y-121118690D02*
X94835738Y-121118690D01*
X94835738Y-120876785D01*
X94805500Y-120816309D01*
X94775261Y-120786071D01*
X94714785Y-120755833D01*
X94624071Y-120755833D01*
X94563595Y-120786071D01*
X94533357Y-120816309D01*
X94503119Y-120876785D01*
X94503119Y-121118690D01*
X94200738Y-120453452D02*
X94200738Y-120332500D01*
X94230976Y-120272023D01*
X94261214Y-120241785D01*
X94351928Y-120181309D01*
X94472880Y-120151071D01*
X94714785Y-120151071D01*
X94775261Y-120181309D01*
X94805500Y-120211547D01*
X94835738Y-120272023D01*
X94835738Y-120392976D01*
X94805500Y-120453452D01*
X94775261Y-120483690D01*
X94714785Y-120513928D01*
X94563595Y-120513928D01*
X94503119Y-120483690D01*
X94472880Y-120453452D01*
X94442642Y-120392976D01*
X94442642Y-120272023D01*
X94472880Y-120211547D01*
X94503119Y-120181309D01*
X94563595Y-120151071D01*
X98204261Y-120090595D02*
X98204261Y-119788214D01*
X98506642Y-119757976D01*
X98476404Y-119788214D01*
X98446166Y-119848690D01*
X98446166Y-119999880D01*
X98476404Y-120060357D01*
X98506642Y-120090595D01*
X98567119Y-120120833D01*
X98718309Y-120120833D01*
X98778785Y-120090595D01*
X98809023Y-120060357D01*
X98839261Y-119999880D01*
X98839261Y-119848690D01*
X98809023Y-119788214D01*
X98778785Y-119757976D01*
X98778785Y-120392976D02*
X98809023Y-120423214D01*
X98839261Y-120392976D01*
X98809023Y-120362738D01*
X98778785Y-120392976D01*
X98839261Y-120392976D01*
X98839261Y-120725595D02*
X98839261Y-120846547D01*
X98809023Y-120907023D01*
X98778785Y-120937261D01*
X98688071Y-120997738D01*
X98567119Y-121027976D01*
X98325214Y-121027976D01*
X98264738Y-120997738D01*
X98234500Y-120967500D01*
X98204261Y-120907023D01*
X98204261Y-120786071D01*
X98234500Y-120725595D01*
X98264738Y-120695357D01*
X98325214Y-120665119D01*
X98476404Y-120665119D01*
X98536880Y-120695357D01*
X98567119Y-120725595D01*
X98597357Y-120786071D01*
X98597357Y-120907023D01*
X98567119Y-120967500D01*
X98536880Y-120997738D01*
X98476404Y-121027976D01*
X98839261Y-121300119D02*
X98204261Y-121300119D01*
X98597357Y-121360595D02*
X98839261Y-121542023D01*
X98415928Y-121542023D02*
X98657833Y-121300119D01*
X91412785Y-115464166D02*
X91443023Y-115433928D01*
X91473261Y-115343214D01*
X91473261Y-115282738D01*
X91443023Y-115192023D01*
X91382547Y-115131547D01*
X91322071Y-115101309D01*
X91201119Y-115071071D01*
X91110404Y-115071071D01*
X90989452Y-115101309D01*
X90928976Y-115131547D01*
X90868500Y-115192023D01*
X90838261Y-115282738D01*
X90838261Y-115343214D01*
X90868500Y-115433928D01*
X90898738Y-115464166D01*
X90838261Y-116008452D02*
X90838261Y-115887500D01*
X90868500Y-115827023D01*
X90898738Y-115796785D01*
X90989452Y-115736309D01*
X91110404Y-115706071D01*
X91352309Y-115706071D01*
X91412785Y-115736309D01*
X91443023Y-115766547D01*
X91473261Y-115827023D01*
X91473261Y-115947976D01*
X91443023Y-116008452D01*
X91412785Y-116038690D01*
X91352309Y-116068928D01*
X91201119Y-116068928D01*
X91140642Y-116038690D01*
X91110404Y-116008452D01*
X91080166Y-115947976D01*
X91080166Y-115827023D01*
X91110404Y-115766547D01*
X91140642Y-115736309D01*
X91201119Y-115706071D01*
X93886261Y-114526785D02*
X93886261Y-114587261D01*
X93916500Y-114647738D01*
X93946738Y-114677976D01*
X94007214Y-114708214D01*
X94128166Y-114738452D01*
X94279357Y-114738452D01*
X94400309Y-114708214D01*
X94460785Y-114677976D01*
X94491023Y-114647738D01*
X94521261Y-114587261D01*
X94521261Y-114526785D01*
X94491023Y-114466309D01*
X94460785Y-114436071D01*
X94400309Y-114405833D01*
X94279357Y-114375595D01*
X94128166Y-114375595D01*
X94007214Y-114405833D01*
X93946738Y-114436071D01*
X93916500Y-114466309D01*
X93886261Y-114526785D01*
X94460785Y-115010595D02*
X94491023Y-115040833D01*
X94521261Y-115010595D01*
X94491023Y-114980357D01*
X94460785Y-115010595D01*
X94521261Y-115010595D01*
X94521261Y-115645595D02*
X94521261Y-115282738D01*
X94521261Y-115464166D02*
X93886261Y-115464166D01*
X93976976Y-115403690D01*
X94037452Y-115343214D01*
X94067690Y-115282738D01*
X94097928Y-116189880D02*
X94521261Y-116189880D01*
X94097928Y-115917738D02*
X94430547Y-115917738D01*
X94491023Y-115947976D01*
X94521261Y-116008452D01*
X94521261Y-116099166D01*
X94491023Y-116159642D01*
X94460785Y-116189880D01*
X94188642Y-116703928D02*
X94188642Y-116492261D01*
X94521261Y-116492261D02*
X93886261Y-116492261D01*
X93886261Y-116794642D01*
X116425738Y-104548214D02*
X116728119Y-104759880D01*
X116425738Y-104911071D02*
X117060738Y-104911071D01*
X117060738Y-104669166D01*
X117030500Y-104608690D01*
X117000261Y-104578452D01*
X116939785Y-104548214D01*
X116849071Y-104548214D01*
X116788595Y-104578452D01*
X116758357Y-104608690D01*
X116728119Y-104669166D01*
X116728119Y-104911071D01*
X116425738Y-103943452D02*
X116425738Y-104306309D01*
X116425738Y-104124880D02*
X117060738Y-104124880D01*
X116970023Y-104185357D01*
X116909547Y-104245833D01*
X116879309Y-104306309D01*
X117060738Y-103731785D02*
X117060738Y-103338690D01*
X116818833Y-103550357D01*
X116818833Y-103459642D01*
X116788595Y-103399166D01*
X116758357Y-103368928D01*
X116697880Y-103338690D01*
X116546690Y-103338690D01*
X116486214Y-103368928D01*
X116455976Y-103399166D01*
X116425738Y-103459642D01*
X116425738Y-103641071D01*
X116455976Y-103701547D01*
X116486214Y-103731785D01*
X120429261Y-103625952D02*
X120429261Y-104049285D01*
X121064261Y-103777142D01*
X120429261Y-104593571D02*
X120429261Y-104291190D01*
X120731642Y-104260952D01*
X120701404Y-104291190D01*
X120671166Y-104351666D01*
X120671166Y-104502857D01*
X120701404Y-104563333D01*
X120731642Y-104593571D01*
X120792119Y-104623809D01*
X120943309Y-104623809D01*
X121003785Y-104593571D01*
X121034023Y-104563333D01*
X121064261Y-104502857D01*
X121064261Y-104351666D01*
X121034023Y-104291190D01*
X121003785Y-104260952D01*
X94200738Y-110595833D02*
X94503119Y-110807500D01*
X94200738Y-110958690D02*
X94835738Y-110958690D01*
X94835738Y-110716785D01*
X94805500Y-110656309D01*
X94775261Y-110626071D01*
X94714785Y-110595833D01*
X94624071Y-110595833D01*
X94563595Y-110626071D01*
X94533357Y-110656309D01*
X94503119Y-110716785D01*
X94503119Y-110958690D01*
X94835738Y-110384166D02*
X94835738Y-109960833D01*
X94200738Y-110232976D01*
X98204261Y-109930595D02*
X98204261Y-109628214D01*
X98506642Y-109597976D01*
X98476404Y-109628214D01*
X98446166Y-109688690D01*
X98446166Y-109839880D01*
X98476404Y-109900357D01*
X98506642Y-109930595D01*
X98567119Y-109960833D01*
X98718309Y-109960833D01*
X98778785Y-109930595D01*
X98809023Y-109900357D01*
X98839261Y-109839880D01*
X98839261Y-109688690D01*
X98809023Y-109628214D01*
X98778785Y-109597976D01*
X98778785Y-110232976D02*
X98809023Y-110263214D01*
X98839261Y-110232976D01*
X98809023Y-110202738D01*
X98778785Y-110232976D01*
X98839261Y-110232976D01*
X98839261Y-110565595D02*
X98839261Y-110686547D01*
X98809023Y-110747023D01*
X98778785Y-110777261D01*
X98688071Y-110837738D01*
X98567119Y-110867976D01*
X98325214Y-110867976D01*
X98264738Y-110837738D01*
X98234500Y-110807500D01*
X98204261Y-110747023D01*
X98204261Y-110626071D01*
X98234500Y-110565595D01*
X98264738Y-110535357D01*
X98325214Y-110505119D01*
X98476404Y-110505119D01*
X98536880Y-110535357D01*
X98567119Y-110565595D01*
X98597357Y-110626071D01*
X98597357Y-110747023D01*
X98567119Y-110807500D01*
X98536880Y-110837738D01*
X98476404Y-110867976D01*
X98839261Y-111140119D02*
X98204261Y-111140119D01*
X98597357Y-111200595D02*
X98839261Y-111382023D01*
X98415928Y-111382023D02*
X98657833Y-111140119D01*
X91412785Y-105304166D02*
X91443023Y-105273928D01*
X91473261Y-105183214D01*
X91473261Y-105122738D01*
X91443023Y-105032023D01*
X91382547Y-104971547D01*
X91322071Y-104941309D01*
X91201119Y-104911071D01*
X91110404Y-104911071D01*
X90989452Y-104941309D01*
X90928976Y-104971547D01*
X90868500Y-105032023D01*
X90838261Y-105122738D01*
X90838261Y-105183214D01*
X90868500Y-105273928D01*
X90898738Y-105304166D01*
X90838261Y-105878690D02*
X90838261Y-105576309D01*
X91140642Y-105546071D01*
X91110404Y-105576309D01*
X91080166Y-105636785D01*
X91080166Y-105787976D01*
X91110404Y-105848452D01*
X91140642Y-105878690D01*
X91201119Y-105908928D01*
X91352309Y-105908928D01*
X91412785Y-105878690D01*
X91443023Y-105848452D01*
X91473261Y-105787976D01*
X91473261Y-105636785D01*
X91443023Y-105576309D01*
X91412785Y-105546071D01*
X93886261Y-104366785D02*
X93886261Y-104427261D01*
X93916500Y-104487738D01*
X93946738Y-104517976D01*
X94007214Y-104548214D01*
X94128166Y-104578452D01*
X94279357Y-104578452D01*
X94400309Y-104548214D01*
X94460785Y-104517976D01*
X94491023Y-104487738D01*
X94521261Y-104427261D01*
X94521261Y-104366785D01*
X94491023Y-104306309D01*
X94460785Y-104276071D01*
X94400309Y-104245833D01*
X94279357Y-104215595D01*
X94128166Y-104215595D01*
X94007214Y-104245833D01*
X93946738Y-104276071D01*
X93916500Y-104306309D01*
X93886261Y-104366785D01*
X94460785Y-104850595D02*
X94491023Y-104880833D01*
X94521261Y-104850595D01*
X94491023Y-104820357D01*
X94460785Y-104850595D01*
X94521261Y-104850595D01*
X94521261Y-105485595D02*
X94521261Y-105122738D01*
X94521261Y-105304166D02*
X93886261Y-105304166D01*
X93976976Y-105243690D01*
X94037452Y-105183214D01*
X94067690Y-105122738D01*
X94097928Y-106029880D02*
X94521261Y-106029880D01*
X94097928Y-105757738D02*
X94430547Y-105757738D01*
X94491023Y-105787976D01*
X94521261Y-105848452D01*
X94521261Y-105939166D01*
X94491023Y-105999642D01*
X94460785Y-106029880D01*
X94188642Y-106543928D02*
X94188642Y-106332261D01*
X94521261Y-106332261D02*
X93886261Y-106332261D01*
X93886261Y-106634642D01*
X94200738Y-100435833D02*
X94503119Y-100647500D01*
X94200738Y-100798690D02*
X94835738Y-100798690D01*
X94835738Y-100556785D01*
X94805500Y-100496309D01*
X94775261Y-100466071D01*
X94714785Y-100435833D01*
X94624071Y-100435833D01*
X94563595Y-100466071D01*
X94533357Y-100496309D01*
X94503119Y-100556785D01*
X94503119Y-100798690D01*
X94835738Y-99861309D02*
X94835738Y-100163690D01*
X94533357Y-100193928D01*
X94563595Y-100163690D01*
X94593833Y-100103214D01*
X94593833Y-99952023D01*
X94563595Y-99891547D01*
X94533357Y-99861309D01*
X94472880Y-99831071D01*
X94321690Y-99831071D01*
X94261214Y-99861309D01*
X94230976Y-99891547D01*
X94200738Y-99952023D01*
X94200738Y-100103214D01*
X94230976Y-100163690D01*
X94261214Y-100193928D01*
X98204261Y-99770595D02*
X98204261Y-99468214D01*
X98506642Y-99437976D01*
X98476404Y-99468214D01*
X98446166Y-99528690D01*
X98446166Y-99679880D01*
X98476404Y-99740357D01*
X98506642Y-99770595D01*
X98567119Y-99800833D01*
X98718309Y-99800833D01*
X98778785Y-99770595D01*
X98809023Y-99740357D01*
X98839261Y-99679880D01*
X98839261Y-99528690D01*
X98809023Y-99468214D01*
X98778785Y-99437976D01*
X98778785Y-100072976D02*
X98809023Y-100103214D01*
X98839261Y-100072976D01*
X98809023Y-100042738D01*
X98778785Y-100072976D01*
X98839261Y-100072976D01*
X98839261Y-100405595D02*
X98839261Y-100526547D01*
X98809023Y-100587023D01*
X98778785Y-100617261D01*
X98688071Y-100677738D01*
X98567119Y-100707976D01*
X98325214Y-100707976D01*
X98264738Y-100677738D01*
X98234500Y-100647500D01*
X98204261Y-100587023D01*
X98204261Y-100466071D01*
X98234500Y-100405595D01*
X98264738Y-100375357D01*
X98325214Y-100345119D01*
X98476404Y-100345119D01*
X98536880Y-100375357D01*
X98567119Y-100405595D01*
X98597357Y-100466071D01*
X98597357Y-100587023D01*
X98567119Y-100647500D01*
X98536880Y-100677738D01*
X98476404Y-100707976D01*
X98839261Y-100980119D02*
X98204261Y-100980119D01*
X98597357Y-101040595D02*
X98839261Y-101222023D01*
X98415928Y-101222023D02*
X98657833Y-100980119D01*
X91412785Y-95144166D02*
X91443023Y-95113928D01*
X91473261Y-95023214D01*
X91473261Y-94962738D01*
X91443023Y-94872023D01*
X91382547Y-94811547D01*
X91322071Y-94781309D01*
X91201119Y-94751071D01*
X91110404Y-94751071D01*
X90989452Y-94781309D01*
X90928976Y-94811547D01*
X90868500Y-94872023D01*
X90838261Y-94962738D01*
X90838261Y-95023214D01*
X90868500Y-95113928D01*
X90898738Y-95144166D01*
X91049928Y-95688452D02*
X91473261Y-95688452D01*
X90808023Y-95537261D02*
X91261595Y-95386071D01*
X91261595Y-95779166D01*
X93886261Y-94206785D02*
X93886261Y-94267261D01*
X93916500Y-94327738D01*
X93946738Y-94357976D01*
X94007214Y-94388214D01*
X94128166Y-94418452D01*
X94279357Y-94418452D01*
X94400309Y-94388214D01*
X94460785Y-94357976D01*
X94491023Y-94327738D01*
X94521261Y-94267261D01*
X94521261Y-94206785D01*
X94491023Y-94146309D01*
X94460785Y-94116071D01*
X94400309Y-94085833D01*
X94279357Y-94055595D01*
X94128166Y-94055595D01*
X94007214Y-94085833D01*
X93946738Y-94116071D01*
X93916500Y-94146309D01*
X93886261Y-94206785D01*
X94460785Y-94690595D02*
X94491023Y-94720833D01*
X94521261Y-94690595D01*
X94491023Y-94660357D01*
X94460785Y-94690595D01*
X94521261Y-94690595D01*
X94521261Y-95325595D02*
X94521261Y-94962738D01*
X94521261Y-95144166D02*
X93886261Y-95144166D01*
X93976976Y-95083690D01*
X94037452Y-95023214D01*
X94067690Y-94962738D01*
X94097928Y-95869880D02*
X94521261Y-95869880D01*
X94097928Y-95597738D02*
X94430547Y-95597738D01*
X94491023Y-95627976D01*
X94521261Y-95688452D01*
X94521261Y-95779166D01*
X94491023Y-95839642D01*
X94460785Y-95869880D01*
X94188642Y-96383928D02*
X94188642Y-96172261D01*
X94521261Y-96172261D02*
X93886261Y-96172261D01*
X93886261Y-96474642D01*
X94200738Y-90275833D02*
X94503119Y-90487500D01*
X94200738Y-90638690D02*
X94835738Y-90638690D01*
X94835738Y-90396785D01*
X94805500Y-90336309D01*
X94775261Y-90306071D01*
X94714785Y-90275833D01*
X94624071Y-90275833D01*
X94563595Y-90306071D01*
X94533357Y-90336309D01*
X94503119Y-90396785D01*
X94503119Y-90638690D01*
X94835738Y-90064166D02*
X94835738Y-89671071D01*
X94593833Y-89882738D01*
X94593833Y-89792023D01*
X94563595Y-89731547D01*
X94533357Y-89701309D01*
X94472880Y-89671071D01*
X94321690Y-89671071D01*
X94261214Y-89701309D01*
X94230976Y-89731547D01*
X94200738Y-89792023D01*
X94200738Y-89973452D01*
X94230976Y-90033928D01*
X94261214Y-90064166D01*
X98204261Y-89610595D02*
X98204261Y-89308214D01*
X98506642Y-89277976D01*
X98476404Y-89308214D01*
X98446166Y-89368690D01*
X98446166Y-89519880D01*
X98476404Y-89580357D01*
X98506642Y-89610595D01*
X98567119Y-89640833D01*
X98718309Y-89640833D01*
X98778785Y-89610595D01*
X98809023Y-89580357D01*
X98839261Y-89519880D01*
X98839261Y-89368690D01*
X98809023Y-89308214D01*
X98778785Y-89277976D01*
X98778785Y-89912976D02*
X98809023Y-89943214D01*
X98839261Y-89912976D01*
X98809023Y-89882738D01*
X98778785Y-89912976D01*
X98839261Y-89912976D01*
X98839261Y-90245595D02*
X98839261Y-90366547D01*
X98809023Y-90427023D01*
X98778785Y-90457261D01*
X98688071Y-90517738D01*
X98567119Y-90547976D01*
X98325214Y-90547976D01*
X98264738Y-90517738D01*
X98234500Y-90487500D01*
X98204261Y-90427023D01*
X98204261Y-90306071D01*
X98234500Y-90245595D01*
X98264738Y-90215357D01*
X98325214Y-90185119D01*
X98476404Y-90185119D01*
X98536880Y-90215357D01*
X98567119Y-90245595D01*
X98597357Y-90306071D01*
X98597357Y-90427023D01*
X98567119Y-90487500D01*
X98536880Y-90517738D01*
X98476404Y-90547976D01*
X98839261Y-90820119D02*
X98204261Y-90820119D01*
X98597357Y-90880595D02*
X98839261Y-91062023D01*
X98415928Y-91062023D02*
X98657833Y-90820119D01*
X91412785Y-84984166D02*
X91443023Y-84953928D01*
X91473261Y-84863214D01*
X91473261Y-84802738D01*
X91443023Y-84712023D01*
X91382547Y-84651547D01*
X91322071Y-84621309D01*
X91201119Y-84591071D01*
X91110404Y-84591071D01*
X90989452Y-84621309D01*
X90928976Y-84651547D01*
X90868500Y-84712023D01*
X90838261Y-84802738D01*
X90838261Y-84863214D01*
X90868500Y-84953928D01*
X90898738Y-84984166D01*
X90838261Y-85195833D02*
X90838261Y-85588928D01*
X91080166Y-85377261D01*
X91080166Y-85467976D01*
X91110404Y-85528452D01*
X91140642Y-85558690D01*
X91201119Y-85588928D01*
X91352309Y-85588928D01*
X91412785Y-85558690D01*
X91443023Y-85528452D01*
X91473261Y-85467976D01*
X91473261Y-85286547D01*
X91443023Y-85226071D01*
X91412785Y-85195833D01*
X93886261Y-84046785D02*
X93886261Y-84107261D01*
X93916500Y-84167738D01*
X93946738Y-84197976D01*
X94007214Y-84228214D01*
X94128166Y-84258452D01*
X94279357Y-84258452D01*
X94400309Y-84228214D01*
X94460785Y-84197976D01*
X94491023Y-84167738D01*
X94521261Y-84107261D01*
X94521261Y-84046785D01*
X94491023Y-83986309D01*
X94460785Y-83956071D01*
X94400309Y-83925833D01*
X94279357Y-83895595D01*
X94128166Y-83895595D01*
X94007214Y-83925833D01*
X93946738Y-83956071D01*
X93916500Y-83986309D01*
X93886261Y-84046785D01*
X94460785Y-84530595D02*
X94491023Y-84560833D01*
X94521261Y-84530595D01*
X94491023Y-84500357D01*
X94460785Y-84530595D01*
X94521261Y-84530595D01*
X94521261Y-85165595D02*
X94521261Y-84802738D01*
X94521261Y-84984166D02*
X93886261Y-84984166D01*
X93976976Y-84923690D01*
X94037452Y-84863214D01*
X94067690Y-84802738D01*
X94097928Y-85709880D02*
X94521261Y-85709880D01*
X94097928Y-85437738D02*
X94430547Y-85437738D01*
X94491023Y-85467976D01*
X94521261Y-85528452D01*
X94521261Y-85619166D01*
X94491023Y-85679642D01*
X94460785Y-85709880D01*
X94188642Y-86223928D02*
X94188642Y-86012261D01*
X94521261Y-86012261D02*
X93886261Y-86012261D01*
X93886261Y-86314642D01*
X133068785Y-113559166D02*
X133099023Y-113528928D01*
X133129261Y-113438214D01*
X133129261Y-113377738D01*
X133099023Y-113287023D01*
X133038547Y-113226547D01*
X132978071Y-113196309D01*
X132857119Y-113166071D01*
X132766404Y-113166071D01*
X132645452Y-113196309D01*
X132584976Y-113226547D01*
X132524500Y-113287023D01*
X132494261Y-113377738D01*
X132494261Y-113438214D01*
X132524500Y-113528928D01*
X132554738Y-113559166D01*
X133129261Y-114163928D02*
X133129261Y-113801071D01*
X133129261Y-113982500D02*
X132494261Y-113982500D01*
X132584976Y-113922023D01*
X132645452Y-113861547D01*
X132675690Y-113801071D01*
X128430261Y-112621785D02*
X128430261Y-112682261D01*
X128460500Y-112742738D01*
X128490738Y-112772976D01*
X128551214Y-112803214D01*
X128672166Y-112833452D01*
X128823357Y-112833452D01*
X128944309Y-112803214D01*
X129004785Y-112772976D01*
X129035023Y-112742738D01*
X129065261Y-112682261D01*
X129065261Y-112621785D01*
X129035023Y-112561309D01*
X129004785Y-112531071D01*
X128944309Y-112500833D01*
X128823357Y-112470595D01*
X128672166Y-112470595D01*
X128551214Y-112500833D01*
X128490738Y-112531071D01*
X128460500Y-112561309D01*
X128430261Y-112621785D01*
X129004785Y-113105595D02*
X129035023Y-113135833D01*
X129065261Y-113105595D01*
X129035023Y-113075357D01*
X129004785Y-113105595D01*
X129065261Y-113105595D01*
X129065261Y-113740595D02*
X129065261Y-113377738D01*
X129065261Y-113559166D02*
X128430261Y-113559166D01*
X128520976Y-113498690D01*
X128581452Y-113438214D01*
X128611690Y-113377738D01*
X128641928Y-114284880D02*
X129065261Y-114284880D01*
X128641928Y-114012738D02*
X128974547Y-114012738D01*
X129035023Y-114042976D01*
X129065261Y-114103452D01*
X129065261Y-114194166D01*
X129035023Y-114254642D01*
X129004785Y-114284880D01*
X128732642Y-114798928D02*
X128732642Y-114587261D01*
X129065261Y-114587261D02*
X128430261Y-114587261D01*
X128430261Y-114889642D01*
X116425738Y-107088214D02*
X116728119Y-107299880D01*
X116425738Y-107451071D02*
X117060738Y-107451071D01*
X117060738Y-107209166D01*
X117030500Y-107148690D01*
X117000261Y-107118452D01*
X116939785Y-107088214D01*
X116849071Y-107088214D01*
X116788595Y-107118452D01*
X116758357Y-107148690D01*
X116728119Y-107209166D01*
X116728119Y-107451071D01*
X116425738Y-106483452D02*
X116425738Y-106846309D01*
X116425738Y-106664880D02*
X117060738Y-106664880D01*
X116970023Y-106725357D01*
X116909547Y-106785833D01*
X116879309Y-106846309D01*
X117060738Y-105908928D02*
X117060738Y-106211309D01*
X116758357Y-106241547D01*
X116788595Y-106211309D01*
X116818833Y-106150833D01*
X116818833Y-105999642D01*
X116788595Y-105939166D01*
X116758357Y-105908928D01*
X116697880Y-105878690D01*
X116546690Y-105878690D01*
X116486214Y-105908928D01*
X116455976Y-105939166D01*
X116425738Y-105999642D01*
X116425738Y-106150833D01*
X116455976Y-106211309D01*
X116486214Y-106241547D01*
X120429261Y-106165952D02*
X120429261Y-106589285D01*
X121064261Y-106317142D01*
X120429261Y-107133571D02*
X120429261Y-106831190D01*
X120731642Y-106800952D01*
X120701404Y-106831190D01*
X120671166Y-106891666D01*
X120671166Y-107042857D01*
X120701404Y-107103333D01*
X120731642Y-107133571D01*
X120792119Y-107163809D01*
X120943309Y-107163809D01*
X121003785Y-107133571D01*
X121034023Y-107103333D01*
X121064261Y-107042857D01*
X121064261Y-106891666D01*
X121034023Y-106831190D01*
X121003785Y-106800952D01*
X116425738Y-109628214D02*
X116728119Y-109839880D01*
X116425738Y-109991071D02*
X117060738Y-109991071D01*
X117060738Y-109749166D01*
X117030500Y-109688690D01*
X117000261Y-109658452D01*
X116939785Y-109628214D01*
X116849071Y-109628214D01*
X116788595Y-109658452D01*
X116758357Y-109688690D01*
X116728119Y-109749166D01*
X116728119Y-109991071D01*
X116425738Y-109023452D02*
X116425738Y-109386309D01*
X116425738Y-109204880D02*
X117060738Y-109204880D01*
X116970023Y-109265357D01*
X116909547Y-109325833D01*
X116879309Y-109386309D01*
X117060738Y-108811785D02*
X117060738Y-108388452D01*
X116425738Y-108660595D01*
X120429261Y-108705952D02*
X120429261Y-109129285D01*
X121064261Y-108857142D01*
X120429261Y-109673571D02*
X120429261Y-109371190D01*
X120731642Y-109340952D01*
X120701404Y-109371190D01*
X120671166Y-109431666D01*
X120671166Y-109582857D01*
X120701404Y-109643333D01*
X120731642Y-109673571D01*
X120792119Y-109703809D01*
X120943309Y-109703809D01*
X121003785Y-109673571D01*
X121034023Y-109643333D01*
X121064261Y-109582857D01*
X121064261Y-109431666D01*
X121034023Y-109371190D01*
X121003785Y-109340952D01*
X153951214Y-97260833D02*
X153920976Y-97291071D01*
X153890738Y-97381785D01*
X153890738Y-97442261D01*
X153920976Y-97532976D01*
X153981452Y-97593452D01*
X154041928Y-97623690D01*
X154162880Y-97653928D01*
X154253595Y-97653928D01*
X154374547Y-97623690D01*
X154435023Y-97593452D01*
X154495500Y-97532976D01*
X154525738Y-97442261D01*
X154525738Y-97381785D01*
X154495500Y-97291071D01*
X154465261Y-97260833D01*
X154465261Y-97018928D02*
X154495500Y-96988690D01*
X154525738Y-96928214D01*
X154525738Y-96777023D01*
X154495500Y-96716547D01*
X154465261Y-96686309D01*
X154404785Y-96656071D01*
X154344309Y-96656071D01*
X154253595Y-96686309D01*
X153890738Y-97049166D01*
X153890738Y-96656071D01*
X157894261Y-96111785D02*
X157894261Y-96172261D01*
X157924500Y-96232738D01*
X157954738Y-96262976D01*
X158015214Y-96293214D01*
X158136166Y-96323452D01*
X158287357Y-96323452D01*
X158408309Y-96293214D01*
X158468785Y-96262976D01*
X158499023Y-96232738D01*
X158529261Y-96172261D01*
X158529261Y-96111785D01*
X158499023Y-96051309D01*
X158468785Y-96021071D01*
X158408309Y-95990833D01*
X158287357Y-95960595D01*
X158136166Y-95960595D01*
X158015214Y-95990833D01*
X157954738Y-96021071D01*
X157924500Y-96051309D01*
X157894261Y-96111785D01*
X158468785Y-96595595D02*
X158499023Y-96625833D01*
X158529261Y-96595595D01*
X158499023Y-96565357D01*
X158468785Y-96595595D01*
X158529261Y-96595595D01*
X158529261Y-97230595D02*
X158529261Y-96867738D01*
X158529261Y-97049166D02*
X157894261Y-97049166D01*
X157984976Y-96988690D01*
X158045452Y-96928214D01*
X158075690Y-96867738D01*
X158105928Y-97774880D02*
X158529261Y-97774880D01*
X158105928Y-97502738D02*
X158438547Y-97502738D01*
X158499023Y-97532976D01*
X158529261Y-97593452D01*
X158529261Y-97684166D01*
X158499023Y-97744642D01*
X158468785Y-97774880D01*
X158196642Y-98288928D02*
X158196642Y-98077261D01*
X158529261Y-98077261D02*
X157894261Y-98077261D01*
X157894261Y-98379642D01*
D15*
X136176380Y-136228666D02*
X135450666Y-136228666D01*
X135305523Y-136277047D01*
X135208761Y-136373809D01*
X135160380Y-136518952D01*
X135160380Y-136615714D01*
X136079619Y-135793238D02*
X136128000Y-135744857D01*
X136176380Y-135648095D01*
X136176380Y-135406190D01*
X136128000Y-135309428D01*
X136079619Y-135261047D01*
X135982857Y-135212666D01*
X135886095Y-135212666D01*
X135740952Y-135261047D01*
X135160380Y-135841619D01*
X135160380Y-135212666D01*
X136176380Y-75268666D02*
X135450666Y-75268666D01*
X135305523Y-75317047D01*
X135208761Y-75413809D01*
X135160380Y-75558952D01*
X135160380Y-75655714D01*
X135160380Y-74252666D02*
X135160380Y-74833238D01*
X135160380Y-74542952D02*
X136176380Y-74542952D01*
X136031238Y-74639714D01*
X135934476Y-74736476D01*
X135886095Y-74833238D01*
X74409904Y-84509619D02*
X74409904Y-83493619D01*
X74168000Y-83493619D01*
X74022857Y-83542000D01*
X73926095Y-83638761D01*
X73877714Y-83735523D01*
X73829333Y-83929047D01*
X73829333Y-84074190D01*
X73877714Y-84267714D01*
X73926095Y-84364476D01*
X74022857Y-84461238D01*
X74168000Y-84509619D01*
X74409904Y-84509619D01*
X72861714Y-84509619D02*
X73442285Y-84509619D01*
X73152000Y-84509619D02*
X73152000Y-83493619D01*
X73248761Y-83638761D01*
X73345523Y-83735523D01*
X73442285Y-83783904D01*
X89375904Y-86184619D02*
X89375904Y-85168619D01*
X89375904Y-85652428D02*
X88795333Y-85652428D01*
X88795333Y-86184619D02*
X88795333Y-85168619D01*
X88311523Y-86184619D02*
X88311523Y-85168619D01*
X87924476Y-85168619D01*
X87827714Y-85217000D01*
X87779333Y-85265380D01*
X87730952Y-85362142D01*
X87730952Y-85507285D01*
X87779333Y-85604047D01*
X87827714Y-85652428D01*
X87924476Y-85700809D01*
X88311523Y-85700809D01*
X87343904Y-86136238D02*
X87198761Y-86184619D01*
X86956857Y-86184619D01*
X86860095Y-86136238D01*
X86811714Y-86087857D01*
X86763333Y-85991095D01*
X86763333Y-85894333D01*
X86811714Y-85797571D01*
X86860095Y-85749190D01*
X86956857Y-85700809D01*
X87150380Y-85652428D01*
X87247142Y-85604047D01*
X87295523Y-85555666D01*
X87343904Y-85458904D01*
X87343904Y-85362142D01*
X87295523Y-85265380D01*
X87247142Y-85217000D01*
X87150380Y-85168619D01*
X86908476Y-85168619D01*
X86763333Y-85217000D01*
X85795714Y-86184619D02*
X86376285Y-86184619D01*
X86086000Y-86184619D02*
X86086000Y-85168619D01*
X86182761Y-85313761D01*
X86279523Y-85410523D01*
X86376285Y-85458904D01*
X89375904Y-96344619D02*
X89375904Y-95328619D01*
X89375904Y-95812428D02*
X88795333Y-95812428D01*
X88795333Y-96344619D02*
X88795333Y-95328619D01*
X88311523Y-96344619D02*
X88311523Y-95328619D01*
X87924476Y-95328619D01*
X87827714Y-95377000D01*
X87779333Y-95425380D01*
X87730952Y-95522142D01*
X87730952Y-95667285D01*
X87779333Y-95764047D01*
X87827714Y-95812428D01*
X87924476Y-95860809D01*
X88311523Y-95860809D01*
X87343904Y-96296238D02*
X87198761Y-96344619D01*
X86956857Y-96344619D01*
X86860095Y-96296238D01*
X86811714Y-96247857D01*
X86763333Y-96151095D01*
X86763333Y-96054333D01*
X86811714Y-95957571D01*
X86860095Y-95909190D01*
X86956857Y-95860809D01*
X87150380Y-95812428D01*
X87247142Y-95764047D01*
X87295523Y-95715666D01*
X87343904Y-95618904D01*
X87343904Y-95522142D01*
X87295523Y-95425380D01*
X87247142Y-95377000D01*
X87150380Y-95328619D01*
X86908476Y-95328619D01*
X86763333Y-95377000D01*
X86376285Y-95425380D02*
X86327904Y-95377000D01*
X86231142Y-95328619D01*
X85989238Y-95328619D01*
X85892476Y-95377000D01*
X85844095Y-95425380D01*
X85795714Y-95522142D01*
X85795714Y-95618904D01*
X85844095Y-95764047D01*
X86424666Y-96344619D01*
X85795714Y-96344619D01*
X89375904Y-106504619D02*
X89375904Y-105488619D01*
X89375904Y-105972428D02*
X88795333Y-105972428D01*
X88795333Y-106504619D02*
X88795333Y-105488619D01*
X88311523Y-106504619D02*
X88311523Y-105488619D01*
X87924476Y-105488619D01*
X87827714Y-105537000D01*
X87779333Y-105585380D01*
X87730952Y-105682142D01*
X87730952Y-105827285D01*
X87779333Y-105924047D01*
X87827714Y-105972428D01*
X87924476Y-106020809D01*
X88311523Y-106020809D01*
X87343904Y-106456238D02*
X87198761Y-106504619D01*
X86956857Y-106504619D01*
X86860095Y-106456238D01*
X86811714Y-106407857D01*
X86763333Y-106311095D01*
X86763333Y-106214333D01*
X86811714Y-106117571D01*
X86860095Y-106069190D01*
X86956857Y-106020809D01*
X87150380Y-105972428D01*
X87247142Y-105924047D01*
X87295523Y-105875666D01*
X87343904Y-105778904D01*
X87343904Y-105682142D01*
X87295523Y-105585380D01*
X87247142Y-105537000D01*
X87150380Y-105488619D01*
X86908476Y-105488619D01*
X86763333Y-105537000D01*
X86424666Y-105488619D02*
X85795714Y-105488619D01*
X86134380Y-105875666D01*
X85989238Y-105875666D01*
X85892476Y-105924047D01*
X85844095Y-105972428D01*
X85795714Y-106069190D01*
X85795714Y-106311095D01*
X85844095Y-106407857D01*
X85892476Y-106456238D01*
X85989238Y-106504619D01*
X86279523Y-106504619D01*
X86376285Y-106456238D01*
X86424666Y-106407857D01*
X89395904Y-116664619D02*
X89395904Y-115648619D01*
X89395904Y-116132428D02*
X88815333Y-116132428D01*
X88815333Y-116664619D02*
X88815333Y-115648619D01*
X88331523Y-116664619D02*
X88331523Y-115648619D01*
X87944476Y-115648619D01*
X87847714Y-115697000D01*
X87799333Y-115745380D01*
X87750952Y-115842142D01*
X87750952Y-115987285D01*
X87799333Y-116084047D01*
X87847714Y-116132428D01*
X87944476Y-116180809D01*
X88331523Y-116180809D01*
X87363904Y-116616238D02*
X87218761Y-116664619D01*
X86976857Y-116664619D01*
X86880095Y-116616238D01*
X86831714Y-116567857D01*
X86783333Y-116471095D01*
X86783333Y-116374333D01*
X86831714Y-116277571D01*
X86880095Y-116229190D01*
X86976857Y-116180809D01*
X87170380Y-116132428D01*
X87267142Y-116084047D01*
X87315523Y-116035666D01*
X87363904Y-115938904D01*
X87363904Y-115842142D01*
X87315523Y-115745380D01*
X87267142Y-115697000D01*
X87170380Y-115648619D01*
X86928476Y-115648619D01*
X86783333Y-115697000D01*
X85912476Y-115987285D02*
X85912476Y-116664619D01*
X86154380Y-115600238D02*
X86396285Y-116325952D01*
X85767333Y-116325952D01*
X131330095Y-97487619D02*
X131330095Y-98310095D01*
X131281714Y-98406857D01*
X131233333Y-98455238D01*
X131136571Y-98503619D01*
X130943047Y-98503619D01*
X130846285Y-98455238D01*
X130797904Y-98406857D01*
X130749523Y-98310095D01*
X130749523Y-97487619D01*
X129733523Y-98503619D02*
X130314095Y-98503619D01*
X130023809Y-98503619D02*
X130023809Y-97487619D01*
X130120571Y-97632761D01*
X130217333Y-97729523D01*
X130314095Y-97777904D01*
X156984095Y-112473619D02*
X156984095Y-113296095D01*
X156935714Y-113392857D01*
X156887333Y-113441238D01*
X156790571Y-113489619D01*
X156597047Y-113489619D01*
X156500285Y-113441238D01*
X156451904Y-113392857D01*
X156403523Y-113296095D01*
X156403523Y-112473619D01*
X155968095Y-112570380D02*
X155919714Y-112522000D01*
X155822952Y-112473619D01*
X155581047Y-112473619D01*
X155484285Y-112522000D01*
X155435904Y-112570380D01*
X155387523Y-112667142D01*
X155387523Y-112763904D01*
X155435904Y-112909047D01*
X156016476Y-113489619D01*
X155387523Y-113489619D01*
%LPC*%
D16*
X121285000Y-82280000D03*
X122235000Y-80280000D03*
X120335000Y-80280000D03*
X121285000Y-130540000D03*
X122235000Y-128540000D03*
X120335000Y-128540000D03*
X140335000Y-82280000D03*
X141285000Y-80280000D03*
X139385000Y-80280000D03*
X140335000Y-130540000D03*
X141285000Y-128540000D03*
X139385000Y-128540000D03*
X159385000Y-82280000D03*
X160335000Y-80280000D03*
X158435000Y-80280000D03*
X159385000Y-130540000D03*
X160335000Y-128540000D03*
X158435000Y-128540000D03*
X178435000Y-82280000D03*
X179385000Y-80280000D03*
X177485000Y-80280000D03*
X178435000Y-130540000D03*
X179385000Y-128540000D03*
X177485000Y-128540000D03*
D17*
X125785000Y-89535000D03*
D18*
X116785000Y-89535000D03*
D17*
X125785000Y-121285000D03*
D18*
X116785000Y-121285000D03*
D17*
X144835000Y-89535000D03*
D18*
X135835000Y-89535000D03*
D17*
X144835000Y-121285000D03*
D18*
X135835000Y-121285000D03*
D17*
X163885000Y-121285000D03*
D18*
X154885000Y-121285000D03*
D17*
X182935000Y-89535000D03*
D18*
X173935000Y-89535000D03*
D17*
X163885000Y-89535000D03*
D18*
X154885000Y-89535000D03*
D17*
X182935000Y-121285000D03*
D18*
X173935000Y-121285000D03*
D19*
X117703600Y-101600000D03*
X119786400Y-101600000D03*
X95478600Y-120650000D03*
X97561400Y-120650000D03*
D20*
X92710000Y-114528600D03*
X92710000Y-116611400D03*
D19*
X117703600Y-104140000D03*
X119786400Y-104140000D03*
X95478600Y-110490000D03*
X97561400Y-110490000D03*
D20*
X92710000Y-104368600D03*
X92710000Y-106451400D03*
D19*
X95478600Y-100330000D03*
X97561400Y-100330000D03*
D20*
X92710000Y-94208600D03*
X92710000Y-96291400D03*
D19*
X95478600Y-90170000D03*
X97561400Y-90170000D03*
D20*
X92710000Y-84048600D03*
X92710000Y-86131400D03*
D19*
X131851400Y-113665000D03*
X129768600Y-113665000D03*
X117703600Y-106680000D03*
X119786400Y-106680000D03*
X117703600Y-109220000D03*
X119786400Y-109220000D03*
X155168600Y-97155000D03*
X157251400Y-97155000D03*
D21*
X133350000Y-135890000D03*
X130810000Y-135890000D03*
X128270000Y-135890000D03*
X125730000Y-135890000D03*
X123190000Y-135890000D03*
X120650000Y-135890000D03*
X118110000Y-135890000D03*
X115570000Y-135890000D03*
X113030000Y-135890000D03*
X110490000Y-135890000D03*
X107950000Y-135890000D03*
X105410000Y-135890000D03*
X102870000Y-135890000D03*
D22*
X72390000Y-135890000D03*
D21*
X74930000Y-135890000D03*
X77470000Y-135890000D03*
X80010000Y-135890000D03*
X82550000Y-135890000D03*
X85090000Y-135890000D03*
X87630000Y-135890000D03*
X90170000Y-135890000D03*
X92710000Y-135890000D03*
X95250000Y-135890000D03*
X97790000Y-135890000D03*
X100330000Y-135890000D03*
X133350000Y-74930000D03*
X130810000Y-74930000D03*
X128270000Y-74930000D03*
X125730000Y-74930000D03*
X123190000Y-74930000D03*
X120650000Y-74930000D03*
X118110000Y-74930000D03*
X115570000Y-74930000D03*
X113030000Y-74930000D03*
X110490000Y-74930000D03*
X107950000Y-74930000D03*
X105410000Y-74930000D03*
X102870000Y-74930000D03*
D22*
X72390000Y-74930000D03*
D21*
X74930000Y-74930000D03*
X77470000Y-74930000D03*
X80010000Y-74930000D03*
X82550000Y-74930000D03*
X85090000Y-74930000D03*
X87630000Y-74930000D03*
X90170000Y-74930000D03*
X92710000Y-74930000D03*
X95250000Y-74930000D03*
X97790000Y-74930000D03*
X100330000Y-74930000D03*
D23*
X79450000Y-92910000D03*
X79450000Y-117910000D03*
X99770000Y-92910000D03*
X99770000Y-117910000D03*
D24*
X73660000Y-80010000D03*
X165100000Y-74930000D03*
X165100000Y-135890000D03*
X73660000Y-130810000D03*
D25*
X175160000Y-109610000D03*
X175160000Y-105410000D03*
X175160000Y-101210000D03*
X180660000Y-109610000D03*
X180660000Y-105410000D03*
D26*
X180660000Y-101210000D03*
D27*
X187960000Y-109610000D03*
X187960000Y-101210000D03*
D28*
X74725000Y-91430000D03*
X72595000Y-91430000D03*
D29*
X73660000Y-87630000D03*
D30*
X86410000Y-90170000D03*
D31*
X92710000Y-87890000D03*
X92710000Y-89030000D03*
X92710000Y-91310000D03*
X92710000Y-92450000D03*
D30*
X86410000Y-100330000D03*
D31*
X92710000Y-98050000D03*
X92710000Y-99190000D03*
X92710000Y-101470000D03*
X92710000Y-102610000D03*
D30*
X86410000Y-110490000D03*
D31*
X92710000Y-108210000D03*
X92710000Y-109350000D03*
X92710000Y-111630000D03*
X92710000Y-112770000D03*
D30*
X86410000Y-120650000D03*
D31*
X92710000Y-118370000D03*
X92710000Y-119510000D03*
X92710000Y-121790000D03*
X92710000Y-122930000D03*
D32*
X135206000Y-99949000D03*
X135206000Y-101219000D03*
X135206000Y-102489000D03*
X135206000Y-103759000D03*
X135206000Y-105029000D03*
X135206000Y-106299000D03*
X135206000Y-107569000D03*
X135206000Y-108839000D03*
X135206000Y-110109000D03*
X135206000Y-111379000D03*
X125906000Y-111379000D03*
X125906000Y-110109000D03*
X125906000Y-108839000D03*
X125906000Y-107569000D03*
X125906000Y-106299000D03*
X125906000Y-105029000D03*
X125906000Y-103759000D03*
X125906000Y-102489000D03*
X125906000Y-101219000D03*
X125906000Y-99949000D03*
X151560000Y-111125000D03*
X151560000Y-109855000D03*
X151560000Y-108585000D03*
X151560000Y-107315000D03*
X151560000Y-106045000D03*
X151560000Y-104775000D03*
X151560000Y-103505000D03*
X151560000Y-102235000D03*
X151560000Y-100965000D03*
X151560000Y-99695000D03*
X160860000Y-99695000D03*
X160860000Y-100965000D03*
X160860000Y-102235000D03*
X160860000Y-103505000D03*
X160860000Y-104775000D03*
X160860000Y-106045000D03*
X160860000Y-107315000D03*
X160860000Y-108585000D03*
X160860000Y-109855000D03*
X160860000Y-111125000D03*
M02*
