G04 #@! TF.GenerationSoftware,KiCad,Pcbnew,6.0.0-rc1-unknown-d9d0051~66~ubuntu18.04.1*
G04 #@! TF.CreationDate,2018-08-28T13:07:50-04:00*
G04 #@! TF.ProjectId,backlight_controller_5x3,736D6172745F766973696F6E5F636F6E,1.0*
G04 #@! TF.SameCoordinates,Original*
G04 #@! TF.FileFunction,Copper,L1,Top,Signal*
G04 #@! TF.FilePolarity,Positive*
%FSLAX46Y46*%
G04 Gerber Fmt 4.6, Leading zero omitted, Abs format (unit mm)*
G04 Created by KiCad (PCBNEW 6.0.0-rc1-unknown-d9d0051~66~ubuntu18.04.1) date Tue Aug 28 13:07:50 2018*
%MOMM*%
%LPD*%
G01*
G04 APERTURE LIST*
G04 #@! TA.AperFunction,NonConductor*
%ADD10C,0.228600*%
G04 #@! TD*
G04 #@! TA.AperFunction,ComponentPad*
%ADD11O,5.080000X3.556000*%
G04 #@! TD*
G04 #@! TA.AperFunction,ComponentPad*
%ADD12O,4.064000X5.080000*%
G04 #@! TD*
G04 #@! TA.AperFunction,ComponentPad*
%ADD13O,4.572000X3.556000*%
G04 #@! TD*
G04 #@! TA.AperFunction,ComponentPad*
%ADD14C,1.930400*%
G04 #@! TD*
G04 #@! TA.AperFunction,ComponentPad*
%ADD15O,4.000000X3.000000*%
G04 #@! TD*
G04 #@! TA.AperFunction,ComponentPad*
%ADD16R,4.000000X3.000000*%
G04 #@! TD*
G04 #@! TA.AperFunction,ComponentPad*
%ADD17C,4.000000*%
G04 #@! TD*
G04 #@! TA.AperFunction,ComponentPad*
%ADD18O,1.854200X2.540000*%
G04 #@! TD*
G04 #@! TA.AperFunction,ComponentPad*
%ADD19C,3.556000*%
G04 #@! TD*
G04 #@! TA.AperFunction,ComponentPad*
%ADD20R,1.854200X2.540000*%
G04 #@! TD*
G04 #@! TA.AperFunction,ComponentPad*
%ADD21O,5.000000X6.000000*%
G04 #@! TD*
G04 #@! TA.AperFunction,ComponentPad*
%ADD22O,1.600000X2.200000*%
G04 #@! TD*
G04 #@! TA.AperFunction,ComponentPad*
%ADD23R,1.600000X2.200000*%
G04 #@! TD*
G04 #@! TA.AperFunction,ComponentPad*
%ADD24C,3.000000*%
G04 #@! TD*
G04 #@! TA.AperFunction,ComponentPad*
%ADD25O,1.500000X2.500000*%
G04 #@! TD*
G04 #@! TA.AperFunction,ComponentPad*
%ADD26O,1.524000X2.032000*%
G04 #@! TD*
G04 #@! TA.AperFunction,ViaPad*
%ADD27C,1.219200*%
G04 #@! TD*
G04 #@! TA.AperFunction,ViaPad*
%ADD28C,0.889000*%
G04 #@! TD*
G04 #@! TA.AperFunction,ViaPad*
%ADD29C,1.625600*%
G04 #@! TD*
G04 #@! TA.AperFunction,Conductor*
%ADD30C,1.219200*%
G04 #@! TD*
G04 #@! TA.AperFunction,Conductor*
%ADD31C,0.812800*%
G04 #@! TD*
G04 #@! TA.AperFunction,Conductor*
%ADD32C,1.625600*%
G04 #@! TD*
G04 #@! TA.AperFunction,Conductor*
%ADD33C,0.406400*%
G04 #@! TD*
G04 #@! TA.AperFunction,Conductor*
%ADD34C,0.254000*%
G04 #@! TD*
G04 APERTURE END LIST*
D10*
X191135000Y-71755000D02*
X69850000Y-71755000D01*
X191135000Y-139065000D02*
X191135000Y-71755000D01*
X69850000Y-139065000D02*
X191135000Y-139065000D01*
X69850000Y-71755000D02*
X69850000Y-139065000D01*
D11*
G04 #@! TO.P,P2,*
G04 #@! TO.N,*
X185496200Y-122605800D03*
X185496200Y-113614200D03*
D12*
G04 #@! TO.P,P2,1*
G04 #@! TO.N,VAA*
X178511200Y-118110000D03*
D13*
G04 #@! TO.P,P2,2*
G04 #@! TO.N,GND*
X183997600Y-118110000D03*
D14*
G04 #@! TO.P,P2,*
G04 #@! TO.N,*
X187502800Y-118110000D03*
G04 #@! TD*
D15*
G04 #@! TO.P,P1,6*
G04 #@! TO.N,GND*
X175160000Y-96910000D03*
G04 #@! TO.P,P1,5*
X175160000Y-92710000D03*
G04 #@! TO.P,P1,4*
X175160000Y-88510000D03*
G04 #@! TO.P,P1,3*
G04 #@! TO.N,VAA*
X180660000Y-96910000D03*
G04 #@! TO.P,P1,2*
X180660000Y-92710000D03*
D16*
G04 #@! TO.P,P1,1*
X180660000Y-88510000D03*
D17*
G04 #@! TO.P,P1,*
G04 #@! TO.N,*
X187960000Y-96910000D03*
X187960000Y-88510000D03*
G04 #@! TD*
D18*
G04 #@! TO.P,MDB1,46*
G04 #@! TO.N,N/C*
X133350000Y-74930000D03*
G04 #@! TO.P,MDB1,45*
X130810000Y-74930000D03*
G04 #@! TO.P,MDB1,30*
G04 #@! TO.N,/CHANNEL_3*
X128270000Y-74930000D03*
G04 #@! TO.P,MDB1,29*
G04 #@! TO.N,/CHANNEL_2*
X125730000Y-74930000D03*
G04 #@! TO.P,MDB1,44*
G04 #@! TO.N,N/C*
X123190000Y-74930000D03*
G04 #@! TO.P,MDB1,43*
X120650000Y-74930000D03*
G04 #@! TO.P,MDB1,47*
X118110000Y-74930000D03*
G04 #@! TO.P,MDB1,48*
X115570000Y-74930000D03*
G04 #@! TO.P,MDB1,49*
X113030000Y-74930000D03*
G04 #@! TO.P,MDB1,33*
X133350000Y-135890000D03*
G04 #@! TO.P,MDB1,34*
X130810000Y-135890000D03*
G04 #@! TO.P,MDB1,35*
G04 #@! TO.N,/CHANNEL_4*
X128270000Y-135890000D03*
G04 #@! TO.P,MDB1,36*
G04 #@! TO.N,/CHANNEL_5*
X125730000Y-135890000D03*
G04 #@! TO.P,MDB1,37*
G04 #@! TO.N,N/C*
X123190000Y-135890000D03*
G04 #@! TO.P,MDB1,38*
X120650000Y-135890000D03*
G04 #@! TO.P,MDB1,51*
X118110000Y-135890000D03*
G04 #@! TO.P,MDB1,DAC0*
X115570000Y-135890000D03*
G04 #@! TO.P,MDB1,DAC1*
X113030000Y-135890000D03*
D19*
G04 #@! TO.P,MDB1,*
G04 #@! TO.N,*
X165100000Y-74930000D03*
X165100000Y-135890000D03*
X73660000Y-130810000D03*
X73660000Y-80010000D03*
D18*
G04 #@! TO.P,MDB1,AREF*
G04 #@! TO.N,N/C*
X72390000Y-135890000D03*
G04 #@! TO.P,MDB1,VEE*
G04 #@! TO.N,VEE*
X74930000Y-135890000D03*
G04 #@! TO.P,MDB1,AGND*
G04 #@! TO.N,N/C*
X77470000Y-135890000D03*
G04 #@! TO.P,MDB1,3V3*
X80010000Y-135890000D03*
G04 #@! TO.P,MDB1,23*
G04 #@! TO.N,/CHANNEL_7*
X82550000Y-135890000D03*
G04 #@! TO.P,MDB1,22*
G04 #@! TO.N,/CHANNEL_6*
X85090000Y-135890000D03*
G04 #@! TO.P,MDB1,21*
G04 #@! TO.N,/CHANNEL_15*
X87630000Y-135890000D03*
G04 #@! TO.P,MDB1,20*
G04 #@! TO.N,/CHANNEL_14*
X90170000Y-135890000D03*
G04 #@! TO.P,MDB1,19*
G04 #@! TO.N,/CHANNEL_13*
X92710000Y-135890000D03*
G04 #@! TO.P,MDB1,18*
G04 #@! TO.N,/CHANNEL_12*
X95250000Y-135890000D03*
G04 #@! TO.P,MDB1,17*
G04 #@! TO.N,/CHANNEL_11*
X97790000Y-135890000D03*
G04 #@! TO.P,MDB1,16*
G04 #@! TO.N,/CHANNEL_10*
X100330000Y-135890000D03*
G04 #@! TO.P,MDB1,15*
G04 #@! TO.N,/CHANNEL_9*
X102870000Y-135890000D03*
G04 #@! TO.P,MDB1,14*
G04 #@! TO.N,/CHANNEL_8*
X105410000Y-135890000D03*
G04 #@! TO.P,MDB1,13*
G04 #@! TO.N,N/C*
X107950000Y-135890000D03*
G04 #@! TO.P,MDB1,53*
X110490000Y-135890000D03*
G04 #@! TO.P,MDB1,50*
X110490000Y-74930000D03*
G04 #@! TO.P,MDB1,12*
X107950000Y-74930000D03*
G04 #@! TO.P,MDB1,11*
X105410000Y-74930000D03*
G04 #@! TO.P,MDB1,42*
X102870000Y-74930000D03*
G04 #@! TO.P,MDB1,41*
X100330000Y-74930000D03*
G04 #@! TO.P,MDB1,40*
X97790000Y-74930000D03*
G04 #@! TO.P,MDB1,52*
G04 #@! TO.N,/~ENABLE*
X95250000Y-74930000D03*
G04 #@! TO.P,MDB1,6*
G04 #@! TO.N,/CHANNEL_1*
X92710000Y-74930000D03*
G04 #@! TO.P,MDB1,5*
G04 #@! TO.N,N/C*
X90170000Y-74930000D03*
G04 #@! TO.P,MDB1,54*
X87630000Y-74930000D03*
G04 #@! TO.P,MDB1,55*
X85090000Y-74930000D03*
G04 #@! TO.P,MDB1,2*
G04 #@! TO.N,/CHANNEL_0*
X82550000Y-74930000D03*
G04 #@! TO.P,MDB1,A11*
G04 #@! TO.N,N/C*
X80010000Y-74930000D03*
D20*
G04 #@! TO.P,MDB1,VDD*
G04 #@! TO.N,VDD*
X72390000Y-74930000D03*
D18*
G04 #@! TO.P,MDB1,A10*
G04 #@! TO.N,N/C*
X77470000Y-74930000D03*
G04 #@! TO.P,MDB1,GND*
G04 #@! TO.N,GND*
X74930000Y-74930000D03*
G04 #@! TD*
D21*
G04 #@! TO.P,J3,*
G04 #@! TO.N,*
X108155000Y-92710000D03*
X133142000Y-92710000D03*
D22*
G04 #@! TO.P,J3,5*
G04 #@! TO.N,VAA*
X115110000Y-91290000D03*
G04 #@! TO.P,J3,4*
G04 #@! TO.N,/WHITE_LIGHT*
X117880000Y-91290000D03*
G04 #@! TO.P,J3,3*
G04 #@! TO.N,VAA*
X120650000Y-91290000D03*
G04 #@! TO.P,J3,2*
G04 #@! TO.N,/FANS*
X123420000Y-91290000D03*
D23*
G04 #@! TO.P,J3,1*
G04 #@! TO.N,VAA*
X126190000Y-91290000D03*
D22*
G04 #@! TO.P,J3,9*
X116495000Y-94130000D03*
G04 #@! TO.P,J3,8*
G04 #@! TO.N,/OUTPUT_3*
X119265000Y-94130000D03*
G04 #@! TO.P,J3,7*
G04 #@! TO.N,VAA*
X122035000Y-94130000D03*
G04 #@! TO.P,J3,6*
G04 #@! TO.N,/BUZZER*
X124805000Y-94130000D03*
G04 #@! TD*
D21*
G04 #@! TO.P,J4,*
G04 #@! TO.N,*
X108155000Y-118110000D03*
X133142000Y-118110000D03*
D23*
G04 #@! TO.P,J4,1*
G04 #@! TO.N,GND*
X115110000Y-116690000D03*
D22*
G04 #@! TO.P,J4,2*
G04 #@! TO.N,/VISIBLE_LIGHT_INDICATOR*
X117880000Y-116690000D03*
G04 #@! TO.P,J4,3*
G04 #@! TO.N,GND*
X120650000Y-116690000D03*
G04 #@! TO.P,J4,4*
G04 #@! TO.N,/WHITE_LIGHT_INDICATOR*
X123420000Y-116690000D03*
G04 #@! TO.P,J4,5*
G04 #@! TO.N,GND*
X126190000Y-116690000D03*
G04 #@! TO.P,J4,6*
G04 #@! TO.N,/BUZZER_INDICATOR*
X116495000Y-119530000D03*
G04 #@! TO.P,J4,7*
G04 #@! TO.N,GND*
X119265000Y-119530000D03*
G04 #@! TO.P,J4,8*
G04 #@! TO.N,/CAMERA_TRIGGER*
X122035000Y-119530000D03*
G04 #@! TO.P,J4,9*
G04 #@! TO.N,GND*
X124805000Y-119530000D03*
G04 #@! TD*
D24*
G04 #@! TO.P,J1,*
G04 #@! TO.N,*
X152400000Y-85710000D03*
D25*
G04 #@! TO.P,J1,4*
G04 #@! TO.N,/C_12*
X150632200Y-94477800D03*
G04 #@! TO.P,J1,3*
G04 #@! TO.N,GND*
X154167800Y-94477800D03*
G04 #@! TO.P,J1,2*
G04 #@! TO.N,N/C*
X154167800Y-90942200D03*
G04 #@! TO.P,J1,1*
G04 #@! TO.N,VAA*
X150632200Y-90942200D03*
G04 #@! TO.P,J1,5*
X152400000Y-92710000D03*
G04 #@! TD*
D24*
G04 #@! TO.P,J2,*
G04 #@! TO.N,*
X152400000Y-111110000D03*
D25*
G04 #@! TO.P,J2,4*
G04 #@! TO.N,/C_13*
X150632200Y-119877800D03*
G04 #@! TO.P,J2,3*
G04 #@! TO.N,GND*
X154167800Y-119877800D03*
G04 #@! TO.P,J2,2*
G04 #@! TO.N,N/C*
X154167800Y-116342200D03*
G04 #@! TO.P,J2,1*
G04 #@! TO.N,VAA*
X150632200Y-116342200D03*
G04 #@! TO.P,J2,5*
X152400000Y-118110000D03*
G04 #@! TD*
D26*
G04 #@! TO.P,L1,1*
G04 #@! TO.N,VAA*
X166370000Y-102870000D03*
G04 #@! TO.P,L1,2*
G04 #@! TO.N,GND*
X166370000Y-107950000D03*
G04 #@! TD*
G04 #@! TO.P,L2,2*
G04 #@! TO.N,GND*
X93345000Y-89535000D03*
G04 #@! TO.P,L2,1*
G04 #@! TO.N,/C_0*
X93345000Y-84455000D03*
G04 #@! TD*
G04 #@! TO.P,L3,1*
G04 #@! TO.N,/C_1*
X95885000Y-84455000D03*
G04 #@! TO.P,L3,2*
G04 #@! TO.N,GND*
X95885000Y-89535000D03*
G04 #@! TD*
G04 #@! TO.P,L4,2*
G04 #@! TO.N,GND*
X98425000Y-89535000D03*
G04 #@! TO.P,L4,1*
G04 #@! TO.N,/C_2*
X98425000Y-84455000D03*
G04 #@! TD*
G04 #@! TO.P,L5,1*
G04 #@! TO.N,/C_3*
X100965000Y-84455000D03*
G04 #@! TO.P,L5,2*
G04 #@! TO.N,GND*
X100965000Y-89535000D03*
G04 #@! TD*
G04 #@! TO.P,L6,2*
G04 #@! TO.N,GND*
X93345000Y-126365000D03*
G04 #@! TO.P,L6,1*
G04 #@! TO.N,/C_8*
X93345000Y-121285000D03*
G04 #@! TD*
G04 #@! TO.P,L7,2*
G04 #@! TO.N,GND*
X95885000Y-126365000D03*
G04 #@! TO.P,L7,1*
G04 #@! TO.N,/C_9*
X95885000Y-121285000D03*
G04 #@! TD*
G04 #@! TO.P,L8,1*
G04 #@! TO.N,/C_10*
X98425000Y-121285000D03*
G04 #@! TO.P,L8,2*
G04 #@! TO.N,GND*
X98425000Y-126365000D03*
G04 #@! TD*
G04 #@! TO.P,L9,1*
G04 #@! TO.N,/C_11*
X100965000Y-121285000D03*
G04 #@! TO.P,L9,2*
G04 #@! TO.N,GND*
X100965000Y-126365000D03*
G04 #@! TD*
G04 #@! TO.P,L10,1*
G04 #@! TO.N,/C_12*
X141605000Y-84455000D03*
G04 #@! TO.P,L10,2*
G04 #@! TO.N,GND*
X141605000Y-89535000D03*
G04 #@! TD*
G04 #@! TO.P,L11,2*
G04 #@! TO.N,GND*
X141605000Y-126365000D03*
G04 #@! TO.P,L11,1*
G04 #@! TO.N,/C_13*
X141605000Y-121285000D03*
G04 #@! TD*
D27*
G04 #@! TO.N,VEE*
X103186400Y-124242300D03*
X130088800Y-121742300D03*
D28*
G04 #@! TO.N,GND*
X140852000Y-101577300D03*
X105016700Y-89535000D03*
D27*
G04 #@! TO.N,VDD*
X76825300Y-127508700D03*
X76043500Y-107134800D03*
X76050700Y-90641900D03*
D29*
G04 #@! TO.N,VAA*
X87818800Y-81776700D03*
D28*
G04 #@! TO.N,/CHANNEL_10*
X144418900Y-104334900D03*
G04 #@! TO.N,/CHANNEL_9*
X145737300Y-103575100D03*
D29*
G04 #@! TO.N,/FANS*
X91986900Y-86534800D03*
G04 #@! TO.N,/WHITE_LIGHT*
X91749300Y-98522800D03*
G04 #@! TO.N,/BUZZER*
X95357300Y-105933900D03*
G04 #@! TO.N,/OUTPUT_3*
X86945000Y-128427100D03*
D28*
G04 #@! TO.N,/C_12*
X140618200Y-102909300D03*
G04 #@! TO.N,/BUZZER_INDICATOR*
X124990400Y-112316100D03*
G04 #@! TO.N,/C_0*
X72963200Y-85891500D03*
X103083500Y-94572800D03*
G04 #@! TO.N,/C_1*
X102701400Y-96297500D03*
X90585300Y-90690400D03*
G04 #@! TO.N,/C_2*
X105378600Y-104704300D03*
X97272800Y-106175800D03*
G04 #@! TO.N,/C_8*
X137070600Y-102144500D03*
G04 #@! TO.N,/C_9*
X133395300Y-103661400D03*
G04 #@! TO.N,/C_10*
X133350000Y-107519500D03*
G04 #@! TO.N,/C_11*
X133395300Y-111530700D03*
G04 #@! TO.N,/CHANNEL_4*
X116708400Y-122895300D03*
X111633800Y-111111500D03*
G04 #@! TO.N,/CHANNEL_5*
X112506800Y-110583100D03*
X114416500Y-121111900D03*
G04 #@! TO.N,/CHANNEL_15*
X144910300Y-111834700D03*
G04 #@! TO.N,/CHANNEL_13*
X144619400Y-110203000D03*
G04 #@! TO.N,/CHANNEL_12*
X144800800Y-108819400D03*
G04 #@! TD*
D30*
G04 #@! TO.N,VEE*
X103186400Y-124242300D02*
X92867100Y-124242300D01*
X92867100Y-124242300D02*
X90430800Y-126678600D01*
X90430800Y-126678600D02*
X90430800Y-127321000D01*
X90430800Y-127321000D02*
X83995700Y-133756100D01*
X83995700Y-133756100D02*
X74930000Y-133756100D01*
X130088800Y-121742300D02*
X127588800Y-124242300D01*
X127588800Y-124242300D02*
X103186400Y-124242300D01*
X74930000Y-135890000D02*
X74930000Y-133756100D01*
D31*
G04 #@! TO.N,GND*
X126190000Y-119530000D02*
X126138400Y-119530000D01*
X132068400Y-124777800D02*
X132068400Y-121925400D01*
X132068400Y-121925400D02*
X129673000Y-119530000D01*
X129673000Y-119530000D02*
X126190000Y-119530000D01*
X126190000Y-119530000D02*
X126190000Y-118323400D01*
X126190000Y-116690000D02*
X126190000Y-118323400D01*
X126190000Y-116690000D02*
X124384100Y-114884100D01*
X124384100Y-114884100D02*
X122455900Y-114884100D01*
X122455900Y-114884100D02*
X120650000Y-116690000D01*
X120650000Y-116690000D02*
X118886900Y-114926900D01*
X118886900Y-114926900D02*
X116873100Y-114926900D01*
X116873100Y-114926900D02*
X115110000Y-116690000D01*
X102260400Y-126365000D02*
X130481200Y-126365000D01*
X130481200Y-126365000D02*
X132068400Y-124777800D01*
X140309600Y-126365000D02*
X133655600Y-126365000D01*
X133655600Y-126365000D02*
X132068400Y-124777800D01*
X154167800Y-96261200D02*
X148916200Y-101512800D01*
X148916200Y-101512800D02*
X140916500Y-101512800D01*
X140916500Y-101512800D02*
X140852000Y-101577300D01*
X100965000Y-126365000D02*
X102260400Y-126365000D01*
X124805000Y-119530000D02*
X126138400Y-119530000D01*
X141605000Y-126365000D02*
X140309600Y-126365000D01*
X98425000Y-126365000D02*
X100965000Y-126365000D01*
X95885000Y-126365000D02*
X98425000Y-126365000D01*
X100965000Y-89535000D02*
X98425000Y-89535000D01*
X105016700Y-89535000D02*
X100965000Y-89535000D01*
X95885000Y-126365000D02*
X93345000Y-126365000D01*
X154167800Y-94477800D02*
X154167800Y-96261200D01*
X98425000Y-89535000D02*
X95885000Y-89535000D01*
X93345000Y-89535000D02*
X95885000Y-89535000D01*
D30*
G04 #@! TO.N,VDD*
X76050700Y-107134800D02*
X76825300Y-107909400D01*
X76825300Y-107909400D02*
X76825300Y-127508700D01*
X76050700Y-107134800D02*
X76043500Y-107134800D01*
X76050700Y-90641900D02*
X76050700Y-107134800D01*
X72390000Y-77063900D02*
X70984300Y-78469600D01*
X70984300Y-78469600D02*
X70984300Y-85783000D01*
X70984300Y-85783000D02*
X75843200Y-90641900D01*
X75843200Y-90641900D02*
X76050700Y-90641900D01*
X72390000Y-74930000D02*
X72390000Y-77063900D01*
D32*
G04 #@! TO.N,VAA*
X126190000Y-89122900D02*
X118843800Y-81776700D01*
X118843800Y-81776700D02*
X87818800Y-81776700D01*
X150632200Y-88625100D02*
X149428800Y-87421700D01*
X149428800Y-87421700D02*
X127891200Y-87421700D01*
X127891200Y-87421700D02*
X126190000Y-89122900D01*
X167772600Y-101467400D02*
X154930300Y-88625100D01*
X154930300Y-88625100D02*
X150632200Y-88625100D01*
X180660000Y-99477100D02*
X178669700Y-101467400D01*
X178669700Y-101467400D02*
X167772600Y-101467400D01*
X166370000Y-102870000D02*
X167772600Y-101467400D01*
X150632200Y-90942200D02*
X150632200Y-88625100D01*
X152400000Y-92710000D02*
X150632200Y-90942200D01*
X180660000Y-96910000D02*
X180660000Y-99477100D01*
X126190000Y-91290000D02*
X126190000Y-89122900D01*
X155817199Y-113676801D02*
X153023199Y-113676801D01*
X166370000Y-102870000D02*
X166370000Y-103124000D01*
X166370000Y-103124000D02*
X155817199Y-113676801D01*
X153023199Y-113676801D02*
X150495000Y-116205000D01*
X150632200Y-116342200D02*
X152400000Y-118110000D01*
X180660000Y-100035600D02*
X178435000Y-102260600D01*
X180660000Y-96910000D02*
X180660000Y-100035600D01*
X178435000Y-102260600D02*
X178435000Y-118110000D01*
D33*
G04 #@! TO.N,/CHANNEL_10*
X101587300Y-135890000D02*
X101587300Y-135025600D01*
X101587300Y-135025600D02*
X108726500Y-127886400D01*
X108726500Y-127886400D02*
X141885500Y-127886400D01*
X141885500Y-127886400D02*
X142732300Y-127039600D01*
X142732300Y-127039600D02*
X142732300Y-125676300D01*
X142732300Y-125676300D02*
X142024000Y-124968000D01*
X142024000Y-124968000D02*
X140284500Y-124968000D01*
X140284500Y-124968000D02*
X138287300Y-122970800D01*
X138287300Y-122970800D02*
X138287300Y-110466500D01*
X138287300Y-110466500D02*
X144418900Y-104334900D01*
X100330000Y-135890000D02*
X101587300Y-135890000D01*
G04 #@! TO.N,/CHANNEL_9*
X104127300Y-135890000D02*
X104127300Y-135026100D01*
X104127300Y-135026100D02*
X110579100Y-128574300D01*
X110579100Y-128574300D02*
X141916500Y-128574300D01*
X141916500Y-128574300D02*
X143240600Y-127250200D01*
X143240600Y-127250200D02*
X143240600Y-125465700D01*
X143240600Y-125465700D02*
X142234600Y-124459700D01*
X142234600Y-124459700D02*
X140579400Y-124459700D01*
X140579400Y-124459700D02*
X138837000Y-122717300D01*
X138837000Y-122717300D02*
X138837000Y-110977000D01*
X138837000Y-110977000D02*
X145737300Y-104076700D01*
X145737300Y-104076700D02*
X145737300Y-103575100D01*
X102870000Y-135890000D02*
X104127300Y-135890000D01*
D32*
G04 #@! TO.N,/FANS*
X123420000Y-89122900D02*
X120835300Y-86538200D01*
X120835300Y-86538200D02*
X91990300Y-86538200D01*
X91990300Y-86538200D02*
X91986900Y-86534800D01*
X123420000Y-91290000D02*
X123420000Y-89122900D01*
G04 #@! TO.N,/WHITE_LIGHT*
X91749300Y-98522800D02*
X107901900Y-98522800D01*
X107901900Y-98522800D02*
X113232200Y-93192500D01*
X113232200Y-93192500D02*
X113232200Y-90203000D01*
X113232200Y-90203000D02*
X114312300Y-89122900D01*
X114312300Y-89122900D02*
X117880000Y-89122900D01*
X117880000Y-91290000D02*
X117880000Y-89122900D01*
G04 #@! TO.N,/BUZZER*
X124805000Y-96297100D02*
X118433100Y-102669000D01*
X118433100Y-102669000D02*
X98622200Y-102669000D01*
X98622200Y-102669000D02*
X95357300Y-105933900D01*
X124805000Y-94130000D02*
X124805000Y-96297100D01*
G04 #@! TO.N,/OUTPUT_3*
X119265000Y-96297100D02*
X114871900Y-100690200D01*
X114871900Y-100690200D02*
X97942300Y-100690200D01*
X97942300Y-100690200D02*
X86945000Y-111687500D01*
X86945000Y-111687500D02*
X86945000Y-128427100D01*
X119265000Y-94130000D02*
X119265000Y-96297100D01*
D31*
G04 #@! TO.N,/C_12*
X150632200Y-94477800D02*
X150632200Y-96388500D01*
X150632200Y-96388500D02*
X144394500Y-96388500D01*
X144394500Y-96388500D02*
X139746700Y-101036300D01*
X139746700Y-101036300D02*
X139746700Y-102037800D01*
X139746700Y-102037800D02*
X140618200Y-102909300D01*
G04 #@! TO.N,/C_13*
X150632200Y-119877800D02*
X150632200Y-121788500D01*
X141605000Y-121285000D02*
X143027700Y-121285000D01*
X143027700Y-121285000D02*
X143531200Y-121788500D01*
X143531200Y-121788500D02*
X150632200Y-121788500D01*
G04 #@! TO.N,/BUZZER_INDICATOR*
X116495000Y-119530000D02*
X115034300Y-119530000D01*
X115034300Y-119530000D02*
X113649200Y-118144900D01*
X113649200Y-118144900D02*
X113649200Y-115314000D01*
X113649200Y-115314000D02*
X116647100Y-112316100D01*
X116647100Y-112316100D02*
X124990400Y-112316100D01*
G04 #@! TO.N,/C_0*
X90485800Y-85891500D02*
X72963200Y-85891500D01*
X90485800Y-85891500D02*
X91922300Y-84455000D01*
X103083500Y-94572800D02*
X96114000Y-94572800D01*
X96114000Y-94572800D02*
X90485800Y-88944600D01*
X90485800Y-88944600D02*
X90485800Y-85891500D01*
X93345000Y-84455000D02*
X91922300Y-84455000D01*
G04 #@! TO.N,/C_1*
X90585300Y-90690400D02*
X96192400Y-96297500D01*
X96192400Y-96297500D02*
X102701400Y-96297500D01*
G04 #@! TO.N,/C_2*
X97272800Y-106175800D02*
X103907100Y-106175800D01*
X103907100Y-106175800D02*
X105378600Y-104704300D01*
G04 #@! TO.N,/C_8*
X93345000Y-121285000D02*
X109420600Y-105209400D01*
X109420600Y-105209400D02*
X126631000Y-105209400D01*
X126631000Y-105209400D02*
X129695900Y-102144500D01*
X129695900Y-102144500D02*
X137070600Y-102144500D01*
G04 #@! TO.N,/C_9*
X95885000Y-121285000D02*
X110893400Y-106276600D01*
X110893400Y-106276600D02*
X130780100Y-106276600D01*
X130780100Y-106276600D02*
X133395300Y-103661400D01*
G04 #@! TO.N,/C_10*
X98425000Y-121285000D02*
X98425000Y-121172300D01*
X98425000Y-121172300D02*
X112077800Y-107519500D01*
X112077800Y-107519500D02*
X133350000Y-107519500D01*
G04 #@! TO.N,/C_11*
X133395300Y-111530700D02*
X131291300Y-109426700D01*
X131291300Y-109426700D02*
X111728400Y-109426700D01*
X111728400Y-109426700D02*
X100965000Y-120190100D01*
X100965000Y-120190100D02*
X100965000Y-121285000D01*
D33*
G04 #@! TO.N,/CHANNEL_4*
X116708400Y-122895300D02*
X115044900Y-122895300D01*
X115044900Y-122895300D02*
X111633800Y-119484200D01*
X111633800Y-119484200D02*
X111633800Y-111111500D01*
G04 #@! TO.N,/CHANNEL_5*
X114416500Y-121111900D02*
X112506800Y-119202200D01*
X112506800Y-119202200D02*
X112506800Y-110583100D01*
G04 #@! TO.N,/CHANNEL_15*
X88887300Y-135890000D02*
X88887300Y-136753800D01*
X88887300Y-136753800D02*
X90721000Y-138587500D01*
X90721000Y-138587500D02*
X134060000Y-138587500D01*
X134060000Y-138587500D02*
X144765500Y-127882000D01*
X144765500Y-127882000D02*
X144765500Y-124833900D01*
X144765500Y-124833900D02*
X142724400Y-122792800D01*
X142724400Y-122792800D02*
X141113300Y-122792800D01*
X141113300Y-122792800D02*
X140367500Y-122047000D01*
X140367500Y-122047000D02*
X140367500Y-116377500D01*
X140367500Y-116377500D02*
X144910300Y-111834700D01*
X87630000Y-135890000D02*
X88887300Y-135890000D01*
G04 #@! TO.N,/CHANNEL_13*
X93967300Y-135890000D02*
X93967300Y-136753900D01*
X93967300Y-136753900D02*
X95292600Y-138079200D01*
X95292600Y-138079200D02*
X133849400Y-138079200D01*
X133849400Y-138079200D02*
X144257200Y-127671400D01*
X144257200Y-127671400D02*
X144257200Y-125044500D01*
X144257200Y-125044500D02*
X142655800Y-123443100D01*
X142655800Y-123443100D02*
X141044700Y-123443100D01*
X141044700Y-123443100D02*
X139859200Y-122257600D01*
X139859200Y-122257600D02*
X139859200Y-114963200D01*
X139859200Y-114963200D02*
X144619400Y-110203000D01*
X92710000Y-135890000D02*
X93967300Y-135890000D01*
G04 #@! TO.N,/CHANNEL_12*
X96507300Y-135890000D02*
X96507300Y-136753900D01*
X96507300Y-136753900D02*
X97294000Y-137540600D01*
X97294000Y-137540600D02*
X131258900Y-137540600D01*
X131258900Y-137540600D02*
X132117700Y-136681800D01*
X132117700Y-136681800D02*
X132117700Y-134972600D01*
X132117700Y-134972600D02*
X138007700Y-129082600D01*
X138007700Y-129082600D02*
X142127100Y-129082600D01*
X142127100Y-129082600D02*
X143748900Y-127460800D01*
X143748900Y-127460800D02*
X143748900Y-125255100D01*
X143748900Y-125255100D02*
X142445200Y-123951400D01*
X142445200Y-123951400D02*
X140834100Y-123951400D01*
X140834100Y-123951400D02*
X139350900Y-122468200D01*
X139350900Y-122468200D02*
X139350900Y-114269300D01*
X139350900Y-114269300D02*
X144800800Y-108819400D01*
X95250000Y-135890000D02*
X96507300Y-135890000D01*
G04 #@! TD*
D34*
G04 #@! TO.N,VAA*
G36*
X190690500Y-138620500D02*
X134853182Y-138620500D01*
X138013134Y-135460548D01*
X162941000Y-135460548D01*
X162941000Y-136319452D01*
X163269688Y-137112975D01*
X163877025Y-137720312D01*
X164670548Y-138049000D01*
X165529452Y-138049000D01*
X166322975Y-137720312D01*
X166930312Y-137112975D01*
X167259000Y-136319452D01*
X167259000Y-135460548D01*
X166930312Y-134667025D01*
X166322975Y-134059688D01*
X165529452Y-133731000D01*
X164670548Y-133731000D01*
X163877025Y-134059688D01*
X163269688Y-134667025D01*
X162941000Y-135460548D01*
X138013134Y-135460548D01*
X145137907Y-128335777D01*
X145186685Y-128303185D01*
X145315804Y-128109943D01*
X145349700Y-127939537D01*
X145349700Y-127939536D01*
X145361145Y-127882001D01*
X145349700Y-127824465D01*
X145349700Y-124891435D01*
X145361145Y-124833899D01*
X145326445Y-124659455D01*
X145315804Y-124605957D01*
X145186685Y-124412715D01*
X145137906Y-124380122D01*
X143363583Y-122605800D01*
X182532903Y-122605800D01*
X182700467Y-123448200D01*
X183177648Y-124162352D01*
X183891800Y-124639533D01*
X184521559Y-124764800D01*
X186470841Y-124764800D01*
X187100600Y-124639533D01*
X187814752Y-124162352D01*
X188291933Y-123448200D01*
X188459497Y-122605800D01*
X188291933Y-121763400D01*
X187814752Y-121049248D01*
X187100600Y-120572067D01*
X186470841Y-120446800D01*
X184521559Y-120446800D01*
X183891800Y-120572067D01*
X183177648Y-121049248D01*
X182700467Y-121763400D01*
X182532903Y-122605800D01*
X143363583Y-122605800D01*
X143303895Y-122546113D01*
X143531200Y-122591326D01*
X143608753Y-122575900D01*
X150554648Y-122575900D01*
X150632200Y-122591326D01*
X150709752Y-122575900D01*
X150765270Y-122564857D01*
X150939428Y-122530215D01*
X151199884Y-122356184D01*
X151373915Y-122095728D01*
X151407795Y-121925399D01*
X151435026Y-121788500D01*
X151419600Y-121710948D01*
X151419600Y-121211917D01*
X151447605Y-121193205D01*
X151697578Y-120819094D01*
X151763200Y-120489191D01*
X151763200Y-119816433D01*
X151987316Y-119938173D01*
X152058815Y-119952318D01*
X152273000Y-119829656D01*
X152273000Y-118237000D01*
X152527000Y-118237000D01*
X152527000Y-119829656D01*
X152741185Y-119952318D01*
X152812684Y-119938173D01*
X153036800Y-119816433D01*
X153036800Y-120489191D01*
X153102422Y-120819094D01*
X153352396Y-121193205D01*
X153726507Y-121443178D01*
X154167800Y-121530957D01*
X154609094Y-121443178D01*
X154983205Y-121193205D01*
X155233178Y-120819094D01*
X155298800Y-120489191D01*
X155298800Y-119266409D01*
X155233178Y-118936506D01*
X154983205Y-118562395D01*
X154609093Y-118312422D01*
X154229923Y-118237000D01*
X175844200Y-118237000D01*
X175844200Y-118745000D01*
X176095814Y-119755949D01*
X176715149Y-120593656D01*
X177607916Y-121130587D01*
X177969026Y-121229309D01*
X178384200Y-121123033D01*
X178384200Y-118237000D01*
X178638200Y-118237000D01*
X178638200Y-121123033D01*
X179053374Y-121229309D01*
X179414484Y-121130587D01*
X180307251Y-120593656D01*
X180926586Y-119755949D01*
X181178200Y-118745000D01*
X181178200Y-118237000D01*
X178638200Y-118237000D01*
X178384200Y-118237000D01*
X175844200Y-118237000D01*
X154229923Y-118237000D01*
X154167800Y-118224643D01*
X153785000Y-118300787D01*
X153785000Y-118237000D01*
X152527000Y-118237000D01*
X152273000Y-118237000D01*
X152253000Y-118237000D01*
X152253000Y-118110000D01*
X181288303Y-118110000D01*
X181455867Y-118952400D01*
X181933048Y-119666552D01*
X182647200Y-120143733D01*
X183276959Y-120269000D01*
X184718241Y-120269000D01*
X185348000Y-120143733D01*
X186062152Y-119666552D01*
X186500101Y-119011116D01*
X186740239Y-119251254D01*
X187235024Y-119456200D01*
X187770576Y-119456200D01*
X188265361Y-119251254D01*
X188644054Y-118872561D01*
X188849000Y-118377776D01*
X188849000Y-117842224D01*
X188644054Y-117347439D01*
X188265361Y-116968746D01*
X187770576Y-116763800D01*
X187235024Y-116763800D01*
X186740239Y-116968746D01*
X186500101Y-117208884D01*
X186062152Y-116553448D01*
X185348000Y-116076267D01*
X184718241Y-115951000D01*
X183276959Y-115951000D01*
X182647200Y-116076267D01*
X181933048Y-116553448D01*
X181455867Y-117267600D01*
X181288303Y-118110000D01*
X152253000Y-118110000D01*
X152253000Y-117983000D01*
X152273000Y-117983000D01*
X152273000Y-116390344D01*
X152527000Y-116390344D01*
X152527000Y-117983000D01*
X153785000Y-117983000D01*
X153785000Y-117919213D01*
X154167800Y-117995357D01*
X154609094Y-117907578D01*
X154983205Y-117657605D01*
X155105217Y-117475000D01*
X175844200Y-117475000D01*
X175844200Y-117983000D01*
X178384200Y-117983000D01*
X178384200Y-115096967D01*
X178638200Y-115096967D01*
X178638200Y-117983000D01*
X181178200Y-117983000D01*
X181178200Y-117475000D01*
X180926586Y-116464051D01*
X180307251Y-115626344D01*
X179414484Y-115089413D01*
X179053374Y-114990691D01*
X178638200Y-115096967D01*
X178384200Y-115096967D01*
X177969026Y-114990691D01*
X177607916Y-115089413D01*
X176715149Y-115626344D01*
X176095814Y-116464051D01*
X175844200Y-117475000D01*
X155105217Y-117475000D01*
X155233178Y-117283494D01*
X155298800Y-116953591D01*
X155298800Y-115730809D01*
X155233178Y-115400906D01*
X154983205Y-115026795D01*
X154609093Y-114776822D01*
X154167800Y-114689043D01*
X153726506Y-114776822D01*
X153352395Y-115026795D01*
X153102422Y-115400907D01*
X153036800Y-115730810D01*
X153036800Y-116403567D01*
X152812684Y-116281827D01*
X152741185Y-116267682D01*
X152527000Y-116390344D01*
X152273000Y-116390344D01*
X152058815Y-116267682D01*
X152017200Y-116275915D01*
X152017200Y-115715200D01*
X151863172Y-115194851D01*
X151521740Y-114773055D01*
X151044884Y-114514027D01*
X150973385Y-114499882D01*
X150759200Y-114622544D01*
X150759200Y-116215200D01*
X150779200Y-116215200D01*
X150779200Y-116469200D01*
X150759200Y-116469200D01*
X150759200Y-116489200D01*
X150505200Y-116489200D01*
X150505200Y-116469200D01*
X149247200Y-116469200D01*
X149247200Y-116969200D01*
X149401228Y-117489549D01*
X149742660Y-117911345D01*
X150219516Y-118170373D01*
X150291015Y-118184518D01*
X150505198Y-118061857D01*
X150505198Y-118227200D01*
X150619345Y-118227200D01*
X150190906Y-118312422D01*
X149816795Y-118562395D01*
X149566822Y-118936507D01*
X149501200Y-119266410D01*
X149501200Y-120489191D01*
X149566822Y-120819094D01*
X149688435Y-121001100D01*
X143857352Y-121001100D01*
X143639316Y-120783065D01*
X143595384Y-120717316D01*
X143334928Y-120543285D01*
X143105252Y-120497600D01*
X143105251Y-120497600D01*
X143027700Y-120482174D01*
X142950149Y-120497600D01*
X142623267Y-120497600D01*
X142429057Y-120206943D01*
X142050975Y-119954318D01*
X141605000Y-119865608D01*
X141159024Y-119954318D01*
X140951700Y-120092847D01*
X140951700Y-116619482D01*
X141855982Y-115715200D01*
X149247200Y-115715200D01*
X149247200Y-116215200D01*
X150505200Y-116215200D01*
X150505200Y-114622544D01*
X150291015Y-114499882D01*
X150219516Y-114514027D01*
X149742660Y-114773055D01*
X149401228Y-115194851D01*
X149247200Y-115715200D01*
X141855982Y-115715200D01*
X143956983Y-113614200D01*
X182532903Y-113614200D01*
X182700467Y-114456600D01*
X183177648Y-115170752D01*
X183891800Y-115647933D01*
X184521559Y-115773200D01*
X186470841Y-115773200D01*
X187100600Y-115647933D01*
X187814752Y-115170752D01*
X188291933Y-114456600D01*
X188459497Y-113614200D01*
X188291933Y-112771800D01*
X187814752Y-112057648D01*
X187100600Y-111580467D01*
X186470841Y-111455200D01*
X184521559Y-111455200D01*
X183891800Y-111580467D01*
X183177648Y-112057648D01*
X182700467Y-112771800D01*
X182532903Y-113614200D01*
X143956983Y-113614200D01*
X144910984Y-112660200D01*
X145074502Y-112660200D01*
X145377908Y-112534526D01*
X145610126Y-112302308D01*
X145735800Y-111998902D01*
X145735800Y-111670498D01*
X145610126Y-111367092D01*
X145377908Y-111134874D01*
X145074502Y-111009200D01*
X144830197Y-111009200D01*
X145087008Y-110902826D01*
X145253988Y-110735846D01*
X150519000Y-110735846D01*
X150519000Y-111484154D01*
X150805365Y-112175501D01*
X151334499Y-112704635D01*
X152025846Y-112991000D01*
X152774154Y-112991000D01*
X153465501Y-112704635D01*
X153994635Y-112175501D01*
X154281000Y-111484154D01*
X154281000Y-110735846D01*
X153994635Y-110044499D01*
X153465501Y-109515365D01*
X152774154Y-109229000D01*
X152025846Y-109229000D01*
X151334499Y-109515365D01*
X150805365Y-110044499D01*
X150519000Y-110735846D01*
X145253988Y-110735846D01*
X145319226Y-110670608D01*
X145444900Y-110367202D01*
X145444900Y-110038798D01*
X145319226Y-109735392D01*
X145151489Y-109567655D01*
X145268408Y-109519226D01*
X145500626Y-109287008D01*
X145626300Y-108983602D01*
X145626300Y-108655198D01*
X145500626Y-108351792D01*
X145268408Y-108119574D01*
X144965002Y-107993900D01*
X144636598Y-107993900D01*
X144333192Y-108119574D01*
X144100974Y-108351792D01*
X143975300Y-108655198D01*
X143975300Y-108818716D01*
X139421200Y-113372818D01*
X139421200Y-111218982D01*
X143056753Y-107583429D01*
X165227000Y-107583429D01*
X165227000Y-108316572D01*
X165293318Y-108649976D01*
X165545944Y-109028057D01*
X165924025Y-109280682D01*
X166370000Y-109369392D01*
X166815976Y-109280682D01*
X167194057Y-109028057D01*
X167446682Y-108649975D01*
X167513000Y-108316571D01*
X167513000Y-107583428D01*
X167446682Y-107250024D01*
X167194057Y-106871943D01*
X166815975Y-106619318D01*
X166370000Y-106530608D01*
X165924024Y-106619318D01*
X165545943Y-106871943D01*
X165293318Y-107250025D01*
X165227000Y-107583429D01*
X143056753Y-107583429D01*
X146109704Y-104530479D01*
X146158485Y-104497885D01*
X146287604Y-104304643D01*
X146315517Y-104164317D01*
X146437126Y-104042708D01*
X146562800Y-103739302D01*
X146562800Y-103410898D01*
X146437126Y-103107492D01*
X146326634Y-102997000D01*
X164973000Y-102997000D01*
X164973000Y-103251000D01*
X165127941Y-103775941D01*
X165471974Y-104201630D01*
X165952723Y-104463260D01*
X166026930Y-104478220D01*
X166243000Y-104355720D01*
X166243000Y-102997000D01*
X166497000Y-102997000D01*
X166497000Y-104355720D01*
X166713070Y-104478220D01*
X166787277Y-104463260D01*
X167268026Y-104201630D01*
X167612059Y-103775941D01*
X167767000Y-103251000D01*
X167767000Y-102997000D01*
X166497000Y-102997000D01*
X166243000Y-102997000D01*
X164973000Y-102997000D01*
X146326634Y-102997000D01*
X146204908Y-102875274D01*
X145901502Y-102749600D01*
X145573098Y-102749600D01*
X145269692Y-102875274D01*
X145037474Y-103107492D01*
X144911800Y-103410898D01*
X144911800Y-103660366D01*
X144886508Y-103635074D01*
X144583102Y-103509400D01*
X144254698Y-103509400D01*
X143951292Y-103635074D01*
X143719074Y-103867292D01*
X143593400Y-104170698D01*
X143593400Y-104334217D01*
X137914897Y-110012721D01*
X137866116Y-110045315D01*
X137736997Y-110238557D01*
X137691655Y-110466500D01*
X137703101Y-110524041D01*
X137703100Y-122913264D01*
X137691655Y-122970800D01*
X137703100Y-123028336D01*
X137736996Y-123198742D01*
X137866115Y-123391985D01*
X137914899Y-123424581D01*
X139830722Y-125340406D01*
X139863315Y-125389185D01*
X140056557Y-125518304D01*
X140226963Y-125552200D01*
X140284499Y-125563645D01*
X140342035Y-125552200D01*
X140603705Y-125552200D01*
X140586733Y-125577600D01*
X133981752Y-125577600D01*
X132855800Y-124451649D01*
X132855800Y-122002950D01*
X132871226Y-121925399D01*
X132843684Y-121786938D01*
X132810115Y-121618172D01*
X132704739Y-121460465D01*
X133142000Y-121547442D01*
X134266110Y-121323843D01*
X135219085Y-120687085D01*
X135855843Y-119734110D01*
X136023000Y-118893753D01*
X136023000Y-117326246D01*
X135855843Y-116485890D01*
X135219084Y-115532915D01*
X134266109Y-114896157D01*
X133142000Y-114672558D01*
X132017890Y-114896157D01*
X131064915Y-115532916D01*
X130428157Y-116485891D01*
X130261000Y-117326247D01*
X130261000Y-118893754D01*
X130288486Y-119031935D01*
X130284616Y-119028065D01*
X130240684Y-118962316D01*
X129980228Y-118788285D01*
X129750552Y-118742600D01*
X129750551Y-118742600D01*
X129673000Y-118727174D01*
X129595449Y-118742600D01*
X126977400Y-118742600D01*
X126977400Y-117884252D01*
X127041453Y-117841453D01*
X127302478Y-117450803D01*
X127371000Y-117106317D01*
X127371000Y-116273682D01*
X127302478Y-115929197D01*
X127041453Y-115538547D01*
X126650802Y-115277522D01*
X126190000Y-115185863D01*
X125864217Y-115250665D01*
X124995716Y-114382165D01*
X124951784Y-114316416D01*
X124691328Y-114142385D01*
X124461652Y-114096700D01*
X124461651Y-114096700D01*
X124384100Y-114081274D01*
X124306549Y-114096700D01*
X122533450Y-114096700D01*
X122455899Y-114081274D01*
X122378348Y-114096700D01*
X122148672Y-114142385D01*
X121888216Y-114316416D01*
X121844286Y-114382162D01*
X120975783Y-115250665D01*
X120650000Y-115185863D01*
X120324217Y-115250665D01*
X119498516Y-114424965D01*
X119454584Y-114359216D01*
X119194128Y-114185185D01*
X118964452Y-114139500D01*
X118964451Y-114139500D01*
X118886900Y-114124074D01*
X118809349Y-114139500D01*
X116950651Y-114139500D01*
X116873100Y-114124074D01*
X116795549Y-114139500D01*
X116795548Y-114139500D01*
X116565872Y-114185185D01*
X116305416Y-114359216D01*
X116261486Y-114424962D01*
X115484912Y-115201536D01*
X114875215Y-115201536D01*
X116973252Y-113103500D01*
X124734216Y-113103500D01*
X124826198Y-113141600D01*
X125154602Y-113141600D01*
X125458008Y-113015926D01*
X125690226Y-112783708D01*
X125815900Y-112480302D01*
X125815900Y-112151898D01*
X125690226Y-111848492D01*
X125458008Y-111616274D01*
X125154602Y-111490600D01*
X124826198Y-111490600D01*
X124734216Y-111528700D01*
X116724651Y-111528700D01*
X116647100Y-111513274D01*
X116569549Y-111528700D01*
X116569548Y-111528700D01*
X116339872Y-111574385D01*
X116079416Y-111748416D01*
X116035486Y-111814162D01*
X113147263Y-114702386D01*
X113091000Y-114739980D01*
X113091000Y-111166334D01*
X113206626Y-111050708D01*
X113332300Y-110747302D01*
X113332300Y-110418898D01*
X113247470Y-110214100D01*
X130965149Y-110214100D01*
X132657374Y-111906326D01*
X132695474Y-111998308D01*
X132927692Y-112230526D01*
X133231098Y-112356200D01*
X133559502Y-112356200D01*
X133862908Y-112230526D01*
X134095126Y-111998308D01*
X134220800Y-111694902D01*
X134220800Y-111366498D01*
X134095126Y-111063092D01*
X133862908Y-110830874D01*
X133770926Y-110792774D01*
X131902916Y-108924765D01*
X131858984Y-108859016D01*
X131598528Y-108684985D01*
X131368852Y-108639300D01*
X131368851Y-108639300D01*
X131291300Y-108623874D01*
X131213749Y-108639300D01*
X112071552Y-108639300D01*
X112403952Y-108306900D01*
X133093816Y-108306900D01*
X133185798Y-108345000D01*
X133514202Y-108345000D01*
X133817608Y-108219326D01*
X134049826Y-107987108D01*
X134175500Y-107683702D01*
X134175500Y-107355298D01*
X134049826Y-107051892D01*
X133817608Y-106819674D01*
X133514202Y-106694000D01*
X133185798Y-106694000D01*
X133093816Y-106732100D01*
X131438151Y-106732100D01*
X133770926Y-104399326D01*
X133862908Y-104361226D01*
X134095126Y-104129008D01*
X134220800Y-103825602D01*
X134220800Y-103497198D01*
X134095126Y-103193792D01*
X133862908Y-102961574D01*
X133791268Y-102931900D01*
X136814416Y-102931900D01*
X136906398Y-102970000D01*
X137234802Y-102970000D01*
X137538208Y-102844326D01*
X137770426Y-102612108D01*
X137896100Y-102308702D01*
X137896100Y-101980298D01*
X137770426Y-101676892D01*
X137538208Y-101444674D01*
X137234802Y-101319000D01*
X136906398Y-101319000D01*
X136814416Y-101357100D01*
X129773450Y-101357100D01*
X129695899Y-101341674D01*
X129618348Y-101357100D01*
X129388672Y-101402785D01*
X129128216Y-101576816D01*
X129084286Y-101642562D01*
X126304849Y-104422000D01*
X109498153Y-104422000D01*
X109420600Y-104406574D01*
X109113371Y-104467685D01*
X109004998Y-104540098D01*
X108852916Y-104641716D01*
X108808986Y-104707462D01*
X93600099Y-119916350D01*
X93345000Y-119865608D01*
X92899024Y-119954318D01*
X92520943Y-120206943D01*
X92268318Y-120585025D01*
X92202000Y-120918429D01*
X92202000Y-121651572D01*
X92268318Y-121984976D01*
X92520944Y-122363057D01*
X92899025Y-122615682D01*
X93345000Y-122704392D01*
X93790976Y-122615682D01*
X94169057Y-122363057D01*
X94421682Y-121984975D01*
X94488000Y-121651571D01*
X94488000Y-121255551D01*
X94742000Y-121001551D01*
X94742000Y-121651572D01*
X94808318Y-121984976D01*
X95060944Y-122363057D01*
X95439025Y-122615682D01*
X95885000Y-122704392D01*
X96330976Y-122615682D01*
X96709057Y-122363057D01*
X96961682Y-121984975D01*
X97028000Y-121651571D01*
X97028000Y-121255551D01*
X97282000Y-121001551D01*
X97282000Y-121651572D01*
X97348318Y-121984976D01*
X97600944Y-122363057D01*
X97979025Y-122615682D01*
X98425000Y-122704392D01*
X98870976Y-122615682D01*
X99249057Y-122363057D01*
X99501682Y-121984975D01*
X99568000Y-121651571D01*
X99568000Y-121142851D01*
X99829344Y-120881507D01*
X99822000Y-120918429D01*
X99822000Y-121651572D01*
X99888318Y-121984976D01*
X100140944Y-122363057D01*
X100519025Y-122615682D01*
X100965000Y-122704392D01*
X101410976Y-122615682D01*
X101789057Y-122363057D01*
X102041682Y-121984975D01*
X102108000Y-121651571D01*
X102108000Y-120918428D01*
X102041682Y-120585024D01*
X101898266Y-120370386D01*
X105356336Y-116912315D01*
X105274000Y-117326247D01*
X105274000Y-118893754D01*
X105441157Y-119734110D01*
X106077916Y-120687085D01*
X107030891Y-121323843D01*
X108155000Y-121547442D01*
X109279110Y-121323843D01*
X110232085Y-120687085D01*
X110868843Y-119734110D01*
X111036000Y-118893753D01*
X111036000Y-117326246D01*
X110868843Y-116485890D01*
X110232084Y-115532915D01*
X109279109Y-114896157D01*
X108155000Y-114672558D01*
X107457316Y-114811336D01*
X110862382Y-111406269D01*
X110933974Y-111579108D01*
X111049601Y-111694735D01*
X111049600Y-119426664D01*
X111038155Y-119484200D01*
X111049600Y-119541736D01*
X111083496Y-119712142D01*
X111212615Y-119905385D01*
X111261399Y-119937981D01*
X114575117Y-123251700D01*
X92964666Y-123251700D01*
X92867100Y-123232293D01*
X92769534Y-123251700D01*
X92480587Y-123309175D01*
X92152917Y-123528117D01*
X92097650Y-123610830D01*
X89799333Y-125909148D01*
X89716617Y-125964417D01*
X89497675Y-126292088D01*
X89478622Y-126387875D01*
X89420793Y-126678600D01*
X89440200Y-126776165D01*
X89440200Y-126910680D01*
X88138800Y-128212080D01*
X88138800Y-112181987D01*
X94163500Y-106157288D01*
X94163500Y-106171362D01*
X94209381Y-106282129D01*
X94232767Y-106399697D01*
X94299364Y-106499367D01*
X94345245Y-106610133D01*
X94430020Y-106694908D01*
X94496619Y-106794581D01*
X94596292Y-106861180D01*
X94681067Y-106945955D01*
X94791833Y-106991836D01*
X94891503Y-107058433D01*
X95009071Y-107081819D01*
X95119838Y-107127700D01*
X95239731Y-107127700D01*
X95357300Y-107151086D01*
X95474869Y-107127700D01*
X95594762Y-107127700D01*
X95705529Y-107081819D01*
X95823097Y-107058433D01*
X95922767Y-106991836D01*
X96033533Y-106945955D01*
X96369355Y-106610133D01*
X96369356Y-106610131D01*
X96503589Y-106475898D01*
X96572974Y-106643408D01*
X96805192Y-106875626D01*
X97108598Y-107001300D01*
X97437002Y-107001300D01*
X97528984Y-106963200D01*
X103829549Y-106963200D01*
X103907100Y-106978626D01*
X103984651Y-106963200D01*
X103984652Y-106963200D01*
X104214328Y-106917515D01*
X104474784Y-106743484D01*
X104518716Y-106677735D01*
X105754226Y-105442226D01*
X105846208Y-105404126D01*
X106078426Y-105171908D01*
X106204100Y-104868502D01*
X106204100Y-104540098D01*
X106078426Y-104236692D01*
X105846208Y-104004474D01*
X105542802Y-103878800D01*
X105214398Y-103878800D01*
X104910992Y-104004474D01*
X104678774Y-104236692D01*
X104640674Y-104328674D01*
X103580949Y-105388400D01*
X97591087Y-105388400D01*
X99116688Y-103862800D01*
X118315531Y-103862800D01*
X118433100Y-103886186D01*
X118550669Y-103862800D01*
X118550674Y-103862800D01*
X118898897Y-103793534D01*
X119293781Y-103529681D01*
X119360383Y-103430004D01*
X121754087Y-101036300D01*
X138943874Y-101036300D01*
X138959300Y-101113852D01*
X138959301Y-101960245D01*
X138943874Y-102037800D01*
X139004986Y-102345028D01*
X139179017Y-102605484D01*
X139244763Y-102649414D01*
X139880274Y-103284926D01*
X139918374Y-103376908D01*
X140150592Y-103609126D01*
X140453998Y-103734800D01*
X140782402Y-103734800D01*
X141085808Y-103609126D01*
X141318026Y-103376908D01*
X141443700Y-103073502D01*
X141443700Y-102745098D01*
X141337622Y-102489000D01*
X164973000Y-102489000D01*
X164973000Y-102743000D01*
X166243000Y-102743000D01*
X166243000Y-101384280D01*
X166497000Y-101384280D01*
X166497000Y-102743000D01*
X167767000Y-102743000D01*
X167767000Y-102489000D01*
X167612059Y-101964059D01*
X167268026Y-101538370D01*
X166787277Y-101276740D01*
X166713070Y-101261780D01*
X166497000Y-101384280D01*
X166243000Y-101384280D01*
X166026930Y-101261780D01*
X165952723Y-101276740D01*
X165471974Y-101538370D01*
X165127941Y-101964059D01*
X164973000Y-102489000D01*
X141337622Y-102489000D01*
X141318026Y-102441692D01*
X141202123Y-102325789D01*
X141263902Y-102300200D01*
X148838649Y-102300200D01*
X148916200Y-102315626D01*
X148993751Y-102300200D01*
X148993752Y-102300200D01*
X149223428Y-102254515D01*
X149483884Y-102080484D01*
X149527816Y-102014735D01*
X154632551Y-96910000D01*
X172742150Y-96910000D01*
X172888138Y-97643929D01*
X173303875Y-98266125D01*
X173926071Y-98681862D01*
X174474743Y-98791000D01*
X175845257Y-98791000D01*
X176393929Y-98681862D01*
X177016125Y-98266125D01*
X177431862Y-97643929D01*
X177486582Y-97368833D01*
X178074887Y-97368833D01*
X178138916Y-97609696D01*
X178560524Y-98329870D01*
X179225638Y-98833882D01*
X180033000Y-99045000D01*
X180533000Y-99045000D01*
X180533000Y-97037000D01*
X180787000Y-97037000D01*
X180787000Y-99045000D01*
X181287000Y-99045000D01*
X182094362Y-98833882D01*
X182759476Y-98329870D01*
X183181084Y-97609696D01*
X183245113Y-97368833D01*
X183132165Y-97037000D01*
X180787000Y-97037000D01*
X180533000Y-97037000D01*
X178187835Y-97037000D01*
X178074887Y-97368833D01*
X177486582Y-97368833D01*
X177577850Y-96910000D01*
X177431862Y-96176071D01*
X177016125Y-95553875D01*
X176393929Y-95138138D01*
X175845257Y-95029000D01*
X174474743Y-95029000D01*
X173926071Y-95138138D01*
X173303875Y-95553875D01*
X172888138Y-96176071D01*
X172742150Y-96910000D01*
X154632551Y-96910000D01*
X154669738Y-96872814D01*
X154735484Y-96828884D01*
X154909515Y-96568428D01*
X154955200Y-96338752D01*
X154955200Y-96338751D01*
X154970626Y-96261200D01*
X154955200Y-96183649D01*
X154955200Y-95811917D01*
X154983205Y-95793205D01*
X155233178Y-95419094D01*
X155298800Y-95089191D01*
X155298800Y-93866409D01*
X155233178Y-93536506D01*
X154983205Y-93162395D01*
X154609093Y-92912422D01*
X154167800Y-92824643D01*
X153785000Y-92900787D01*
X153785000Y-92837000D01*
X152527000Y-92837000D01*
X152527000Y-94429656D01*
X152741185Y-94552318D01*
X152812684Y-94538173D01*
X153036800Y-94416433D01*
X153036800Y-95089191D01*
X153102422Y-95419094D01*
X153352396Y-95793205D01*
X153380401Y-95811917D01*
X153380401Y-95935047D01*
X148590049Y-100725400D01*
X141171151Y-100725400D01*
X144720652Y-97175900D01*
X150554648Y-97175900D01*
X150632200Y-97191326D01*
X150709752Y-97175900D01*
X150939428Y-97130215D01*
X151199884Y-96956184D01*
X151373915Y-96695728D01*
X151435026Y-96388500D01*
X151419600Y-96310948D01*
X151419600Y-95811917D01*
X151447605Y-95793205D01*
X151697578Y-95419094D01*
X151763200Y-95089191D01*
X151763200Y-94416433D01*
X151987316Y-94538173D01*
X152058815Y-94552318D01*
X152273000Y-94429656D01*
X152273000Y-92837000D01*
X152253000Y-92837000D01*
X152253000Y-92710000D01*
X172742150Y-92710000D01*
X172888138Y-93443929D01*
X173303875Y-94066125D01*
X173926071Y-94481862D01*
X174474743Y-94591000D01*
X175845257Y-94591000D01*
X176393929Y-94481862D01*
X177016125Y-94066125D01*
X177431862Y-93443929D01*
X177486582Y-93168833D01*
X178074887Y-93168833D01*
X178138916Y-93409696D01*
X178560524Y-94129870D01*
X179225638Y-94633882D01*
X179899152Y-94810000D01*
X179225638Y-94986118D01*
X178560524Y-95490130D01*
X178138916Y-96210304D01*
X178074887Y-96451167D01*
X178187835Y-96783000D01*
X180533000Y-96783000D01*
X180533000Y-92837000D01*
X180787000Y-92837000D01*
X180787000Y-96783000D01*
X183132165Y-96783000D01*
X183245113Y-96451167D01*
X183241185Y-96436390D01*
X185579000Y-96436390D01*
X185579000Y-97383610D01*
X185941485Y-98258728D01*
X186611272Y-98928515D01*
X187486390Y-99291000D01*
X188433610Y-99291000D01*
X189308728Y-98928515D01*
X189978515Y-98258728D01*
X190341000Y-97383610D01*
X190341000Y-96436390D01*
X189978515Y-95561272D01*
X189308728Y-94891485D01*
X188433610Y-94529000D01*
X187486390Y-94529000D01*
X186611272Y-94891485D01*
X185941485Y-95561272D01*
X185579000Y-96436390D01*
X183241185Y-96436390D01*
X183181084Y-96210304D01*
X182759476Y-95490130D01*
X182094362Y-94986118D01*
X181420848Y-94810000D01*
X182094362Y-94633882D01*
X182759476Y-94129870D01*
X183181084Y-93409696D01*
X183245113Y-93168833D01*
X183132165Y-92837000D01*
X180787000Y-92837000D01*
X180533000Y-92837000D01*
X178187835Y-92837000D01*
X178074887Y-93168833D01*
X177486582Y-93168833D01*
X177577850Y-92710000D01*
X177431862Y-91976071D01*
X177016125Y-91353875D01*
X176393929Y-90938138D01*
X175845257Y-90829000D01*
X174474743Y-90829000D01*
X173926071Y-90938138D01*
X173303875Y-91353875D01*
X172888138Y-91976071D01*
X172742150Y-92710000D01*
X152253000Y-92710000D01*
X152253000Y-92583000D01*
X152273000Y-92583000D01*
X152273000Y-90990344D01*
X152527000Y-90990344D01*
X152527000Y-92583000D01*
X153785000Y-92583000D01*
X153785000Y-92519213D01*
X154167800Y-92595357D01*
X154609094Y-92507578D01*
X154983205Y-92257605D01*
X155233178Y-91883494D01*
X155298800Y-91553591D01*
X155298800Y-90330809D01*
X155233178Y-90000906D01*
X154983205Y-89626795D01*
X154609093Y-89376822D01*
X154167800Y-89289043D01*
X153726506Y-89376822D01*
X153352395Y-89626795D01*
X153102422Y-90000907D01*
X153036800Y-90330810D01*
X153036800Y-91003567D01*
X152812684Y-90881827D01*
X152741185Y-90867682D01*
X152527000Y-90990344D01*
X152273000Y-90990344D01*
X152058815Y-90867682D01*
X152017200Y-90875915D01*
X152017200Y-90315200D01*
X151863172Y-89794851D01*
X151521740Y-89373055D01*
X151044884Y-89114027D01*
X150973385Y-89099882D01*
X150759200Y-89222544D01*
X150759200Y-90815200D01*
X150779200Y-90815200D01*
X150779200Y-91069200D01*
X150759200Y-91069200D01*
X150759200Y-91089200D01*
X150505200Y-91089200D01*
X150505200Y-91069200D01*
X149247200Y-91069200D01*
X149247200Y-91569200D01*
X149401228Y-92089549D01*
X149742660Y-92511345D01*
X150219516Y-92770373D01*
X150291015Y-92784518D01*
X150505198Y-92661857D01*
X150505198Y-92827200D01*
X150619345Y-92827200D01*
X150190906Y-92912422D01*
X149816795Y-93162395D01*
X149566822Y-93536507D01*
X149501200Y-93866410D01*
X149501200Y-95089191D01*
X149566822Y-95419094D01*
X149688435Y-95601100D01*
X144472051Y-95601100D01*
X144394500Y-95585674D01*
X144316949Y-95601100D01*
X144316948Y-95601100D01*
X144087272Y-95646785D01*
X143826816Y-95820816D01*
X143782886Y-95886562D01*
X139244765Y-100424684D01*
X139179016Y-100468616D01*
X139004985Y-100729073D01*
X138970750Y-100901187D01*
X138943874Y-101036300D01*
X121754087Y-101036300D01*
X125566007Y-97224381D01*
X125665681Y-97157781D01*
X125929534Y-96762897D01*
X125998800Y-96414674D01*
X125998800Y-96414670D01*
X126022186Y-96297101D01*
X125998800Y-96179532D01*
X125998800Y-94012426D01*
X125986000Y-93948076D01*
X125986000Y-93713682D01*
X125917478Y-93369197D01*
X125687492Y-93025000D01*
X125904250Y-93025000D01*
X126063000Y-92866250D01*
X126063000Y-91417000D01*
X126317000Y-91417000D01*
X126317000Y-92866250D01*
X126475750Y-93025000D01*
X127116309Y-93025000D01*
X127349698Y-92928327D01*
X127528327Y-92749699D01*
X127625000Y-92516310D01*
X127625000Y-91926247D01*
X130261000Y-91926247D01*
X130261000Y-93493754D01*
X130428157Y-94334110D01*
X131064916Y-95287085D01*
X132017891Y-95923843D01*
X133142000Y-96147442D01*
X134266110Y-95923843D01*
X135219085Y-95287085D01*
X135855843Y-94334110D01*
X136023000Y-93493753D01*
X136023000Y-91926246D01*
X135855843Y-91085890D01*
X135219084Y-90132915D01*
X134266109Y-89496157D01*
X133142000Y-89272558D01*
X132017890Y-89496157D01*
X131064915Y-90132916D01*
X130428157Y-91085891D01*
X130261000Y-91926247D01*
X127625000Y-91926247D01*
X127625000Y-91575750D01*
X127466250Y-91417000D01*
X126317000Y-91417000D01*
X126063000Y-91417000D01*
X124913750Y-91417000D01*
X124755000Y-91575750D01*
X124755000Y-92516310D01*
X124800730Y-92626712D01*
X124344197Y-92717522D01*
X123953547Y-92978547D01*
X123692522Y-93369198D01*
X123624000Y-93713683D01*
X123624000Y-93948077D01*
X123611200Y-94012427D01*
X123611201Y-95802611D01*
X117938613Y-101475200D01*
X115783149Y-101475200D01*
X115799183Y-101451204D01*
X120026007Y-97224381D01*
X120125681Y-97157781D01*
X120291836Y-96909113D01*
X120389534Y-96762898D01*
X120482187Y-96297100D01*
X120458800Y-96179526D01*
X120458800Y-94257000D01*
X120600000Y-94257000D01*
X120600000Y-94557000D01*
X120757834Y-95096483D01*
X121110104Y-95534500D01*
X121603181Y-95804367D01*
X121685961Y-95821904D01*
X121908000Y-95699915D01*
X121908000Y-94257000D01*
X122162000Y-94257000D01*
X122162000Y-95699915D01*
X122384039Y-95821904D01*
X122466819Y-95804367D01*
X122959896Y-95534500D01*
X123312166Y-95096483D01*
X123470000Y-94557000D01*
X123470000Y-94257000D01*
X122162000Y-94257000D01*
X121908000Y-94257000D01*
X120600000Y-94257000D01*
X120458800Y-94257000D01*
X120458800Y-94012426D01*
X120446000Y-93948076D01*
X120446000Y-93713682D01*
X120443876Y-93703000D01*
X120600000Y-93703000D01*
X120600000Y-94003000D01*
X121908000Y-94003000D01*
X121908000Y-92560085D01*
X122162000Y-92560085D01*
X122162000Y-94003000D01*
X123470000Y-94003000D01*
X123470000Y-93703000D01*
X123312166Y-93163517D01*
X122959896Y-92725500D01*
X122466819Y-92455633D01*
X122384039Y-92438096D01*
X122162000Y-92560085D01*
X121908000Y-92560085D01*
X121751949Y-92474350D01*
X121927166Y-92256483D01*
X122085000Y-91717000D01*
X122085000Y-91417000D01*
X120777000Y-91417000D01*
X120777000Y-92859915D01*
X120933051Y-92945650D01*
X120757834Y-93163517D01*
X120600000Y-93703000D01*
X120443876Y-93703000D01*
X120377478Y-93369197D01*
X120116453Y-92978547D01*
X119725802Y-92717522D01*
X119265000Y-92625863D01*
X118804197Y-92717522D01*
X118413547Y-92978547D01*
X118152522Y-93369198D01*
X118084000Y-93713683D01*
X118084000Y-93948077D01*
X118071200Y-94012427D01*
X118071201Y-95802611D01*
X114377413Y-99496400D01*
X108593586Y-99496400D01*
X108762581Y-99383481D01*
X108829183Y-99283804D01*
X113855987Y-94257000D01*
X115060000Y-94257000D01*
X115060000Y-94557000D01*
X115217834Y-95096483D01*
X115570104Y-95534500D01*
X116063181Y-95804367D01*
X116145961Y-95821904D01*
X116368000Y-95699915D01*
X116368000Y-94257000D01*
X116622000Y-94257000D01*
X116622000Y-95699915D01*
X116844039Y-95821904D01*
X116926819Y-95804367D01*
X117419896Y-95534500D01*
X117772166Y-95096483D01*
X117930000Y-94557000D01*
X117930000Y-94257000D01*
X116622000Y-94257000D01*
X116368000Y-94257000D01*
X115060000Y-94257000D01*
X113855987Y-94257000D01*
X113993207Y-94119781D01*
X114092881Y-94053181D01*
X114188474Y-93910116D01*
X114326864Y-93703000D01*
X115060000Y-93703000D01*
X115060000Y-94003000D01*
X116368000Y-94003000D01*
X116368000Y-92560085D01*
X116622000Y-92560085D01*
X116622000Y-94003000D01*
X117930000Y-94003000D01*
X117930000Y-93703000D01*
X117772166Y-93163517D01*
X117419896Y-92725500D01*
X116926819Y-92455633D01*
X116844039Y-92438096D01*
X116622000Y-92560085D01*
X116368000Y-92560085D01*
X116211949Y-92474350D01*
X116387166Y-92256483D01*
X116545000Y-91717000D01*
X116545000Y-91417000D01*
X115237000Y-91417000D01*
X115237000Y-92859915D01*
X115393051Y-92945650D01*
X115217834Y-93163517D01*
X115060000Y-93703000D01*
X114326864Y-93703000D01*
X114356734Y-93658298D01*
X114449387Y-93192500D01*
X114426000Y-93074926D01*
X114426000Y-92826345D01*
X114678181Y-92964367D01*
X114760961Y-92981904D01*
X114983000Y-92859915D01*
X114983000Y-91417000D01*
X114963000Y-91417000D01*
X114963000Y-91163000D01*
X114983000Y-91163000D01*
X114983000Y-91143000D01*
X115237000Y-91143000D01*
X115237000Y-91163000D01*
X116545000Y-91163000D01*
X116545000Y-90863000D01*
X116387166Y-90323517D01*
X116381684Y-90316700D01*
X116686200Y-90316700D01*
X116686200Y-91407573D01*
X116699000Y-91471923D01*
X116699000Y-91706318D01*
X116767522Y-92050803D01*
X117028548Y-92441453D01*
X117419198Y-92702478D01*
X117880000Y-92794137D01*
X118340803Y-92702478D01*
X118731453Y-92441453D01*
X118992478Y-92050803D01*
X119061000Y-91706317D01*
X119061000Y-91471924D01*
X119071925Y-91417000D01*
X119215000Y-91417000D01*
X119215000Y-91717000D01*
X119372834Y-92256483D01*
X119725104Y-92694500D01*
X120218181Y-92964367D01*
X120300961Y-92981904D01*
X120523000Y-92859915D01*
X120523000Y-91417000D01*
X119215000Y-91417000D01*
X119071925Y-91417000D01*
X119073800Y-91407574D01*
X119073800Y-90863000D01*
X119215000Y-90863000D01*
X119215000Y-91163000D01*
X120523000Y-91163000D01*
X120523000Y-89720085D01*
X120777000Y-89720085D01*
X120777000Y-91163000D01*
X122085000Y-91163000D01*
X122085000Y-90863000D01*
X121927166Y-90323517D01*
X121574896Y-89885500D01*
X121081819Y-89615633D01*
X120999039Y-89598096D01*
X120777000Y-89720085D01*
X120523000Y-89720085D01*
X120300961Y-89598096D01*
X120218181Y-89615633D01*
X119725104Y-89885500D01*
X119372834Y-90323517D01*
X119215000Y-90863000D01*
X119073800Y-90863000D01*
X119073800Y-89240474D01*
X119097187Y-89122900D01*
X119004534Y-88657103D01*
X118740681Y-88262219D01*
X118345797Y-87998366D01*
X117997574Y-87929100D01*
X117880000Y-87905713D01*
X117762426Y-87929100D01*
X114429868Y-87929100D01*
X114312299Y-87905714D01*
X114194730Y-87929100D01*
X114194726Y-87929100D01*
X113846503Y-87998366D01*
X113451619Y-88262219D01*
X113385019Y-88361893D01*
X112471194Y-89275719D01*
X112371520Y-89342319D01*
X112304920Y-89441993D01*
X112304919Y-89441994D01*
X112107667Y-89737203D01*
X112015014Y-90203000D01*
X112038401Y-90320574D01*
X112038400Y-92698012D01*
X110984686Y-93751726D01*
X111036000Y-93493753D01*
X111036000Y-91926246D01*
X110868843Y-91085890D01*
X110232084Y-90132915D01*
X109279109Y-89496157D01*
X108155000Y-89272558D01*
X107030890Y-89496157D01*
X106077915Y-90132916D01*
X105441157Y-91085891D01*
X105274000Y-91926247D01*
X105274000Y-93493754D01*
X105441157Y-94334110D01*
X106077916Y-95287085D01*
X107030891Y-95923843D01*
X108155000Y-96147442D01*
X108696727Y-96039686D01*
X107407413Y-97329000D01*
X91511838Y-97329000D01*
X91401076Y-97374879D01*
X91283503Y-97398266D01*
X91183830Y-97464866D01*
X91073067Y-97510745D01*
X90988293Y-97595519D01*
X90888619Y-97662119D01*
X90822019Y-97761793D01*
X90737245Y-97846567D01*
X90691366Y-97957330D01*
X90624766Y-98057003D01*
X90601379Y-98174576D01*
X90555500Y-98285338D01*
X90555500Y-98405226D01*
X90532113Y-98522800D01*
X90555500Y-98640374D01*
X90555500Y-98760262D01*
X90601379Y-98871024D01*
X90624766Y-98988597D01*
X90691366Y-99088270D01*
X90737245Y-99199033D01*
X90822019Y-99283807D01*
X90888619Y-99383481D01*
X90988293Y-99450081D01*
X91073067Y-99534855D01*
X91183830Y-99580734D01*
X91283503Y-99647334D01*
X91401076Y-99670721D01*
X91511838Y-99716600D01*
X97250614Y-99716600D01*
X97081619Y-99829519D01*
X97015019Y-99929193D01*
X86183996Y-110760217D01*
X86084319Y-110826819D01*
X85820466Y-111221704D01*
X85751200Y-111569927D01*
X85751200Y-111569931D01*
X85727814Y-111687500D01*
X85751200Y-111805069D01*
X85751201Y-128189636D01*
X85751200Y-128189638D01*
X85751200Y-128664562D01*
X85797081Y-128775329D01*
X85820467Y-128892897D01*
X85887064Y-128992566D01*
X85932945Y-129103333D01*
X86017722Y-129188110D01*
X86084320Y-129287781D01*
X86183991Y-129354379D01*
X86268767Y-129439155D01*
X86379532Y-129485036D01*
X86479204Y-129551634D01*
X86596775Y-129575020D01*
X86707538Y-129620900D01*
X86729980Y-129620900D01*
X83585381Y-132765500D01*
X75027566Y-132765500D01*
X74930000Y-132746093D01*
X74832434Y-132765500D01*
X74543487Y-132822975D01*
X74215817Y-133041917D01*
X73996875Y-133369587D01*
X73919993Y-133756100D01*
X73939401Y-133853670D01*
X73939401Y-134675120D01*
X73697797Y-135036706D01*
X73660000Y-135226724D01*
X73622203Y-135036705D01*
X73333087Y-134604013D01*
X72900394Y-134314897D01*
X72390000Y-134213373D01*
X71879605Y-134314897D01*
X71446913Y-134604013D01*
X71157797Y-135036706D01*
X71081900Y-135418266D01*
X71081900Y-136361735D01*
X71157797Y-136743295D01*
X71446914Y-137175987D01*
X71879606Y-137465103D01*
X72390000Y-137566627D01*
X72900395Y-137465103D01*
X73333087Y-137175987D01*
X73622203Y-136743295D01*
X73660000Y-136553276D01*
X73697797Y-136743295D01*
X73986914Y-137175987D01*
X74419606Y-137465103D01*
X74930000Y-137566627D01*
X75440395Y-137465103D01*
X75873087Y-137175987D01*
X76162203Y-136743295D01*
X76200000Y-136553276D01*
X76237797Y-136743295D01*
X76526914Y-137175987D01*
X76959606Y-137465103D01*
X77470000Y-137566627D01*
X77980395Y-137465103D01*
X78413087Y-137175987D01*
X78702203Y-136743295D01*
X78740000Y-136553276D01*
X78777797Y-136743295D01*
X79066914Y-137175987D01*
X79499606Y-137465103D01*
X80010000Y-137566627D01*
X80520395Y-137465103D01*
X80953087Y-137175987D01*
X81242203Y-136743295D01*
X81280000Y-136553276D01*
X81317797Y-136743295D01*
X81606914Y-137175987D01*
X82039606Y-137465103D01*
X82550000Y-137566627D01*
X83060395Y-137465103D01*
X83493087Y-137175987D01*
X83782203Y-136743295D01*
X83820000Y-136553276D01*
X83857797Y-136743295D01*
X84146914Y-137175987D01*
X84579606Y-137465103D01*
X85090000Y-137566627D01*
X85600395Y-137465103D01*
X86033087Y-137175987D01*
X86322203Y-136743295D01*
X86360000Y-136553276D01*
X86397797Y-136743295D01*
X86686914Y-137175987D01*
X87119606Y-137465103D01*
X87630000Y-137566627D01*
X88140395Y-137465103D01*
X88519267Y-137211949D01*
X89927816Y-138620500D01*
X70294500Y-138620500D01*
X70294500Y-130380548D01*
X71501000Y-130380548D01*
X71501000Y-131239452D01*
X71829688Y-132032975D01*
X72437025Y-132640312D01*
X73230548Y-132969000D01*
X74089452Y-132969000D01*
X74882975Y-132640312D01*
X75490312Y-132032975D01*
X75819000Y-131239452D01*
X75819000Y-130380548D01*
X75490312Y-129587025D01*
X74882975Y-128979688D01*
X74089452Y-128651000D01*
X73230548Y-128651000D01*
X72437025Y-128979688D01*
X71829688Y-129587025D01*
X71501000Y-130380548D01*
X70294500Y-130380548D01*
X70294500Y-86513475D01*
X70352831Y-86552450D01*
X75060100Y-91259720D01*
X75060101Y-106920372D01*
X75052900Y-106937757D01*
X75052900Y-107037234D01*
X75033493Y-107134800D01*
X75052900Y-107232366D01*
X75052900Y-107331843D01*
X75090968Y-107423747D01*
X75110375Y-107521313D01*
X75165642Y-107604026D01*
X75203710Y-107695930D01*
X75274050Y-107766270D01*
X75329317Y-107848983D01*
X75412030Y-107904250D01*
X75482370Y-107974590D01*
X75494662Y-107979682D01*
X75834700Y-108319720D01*
X75834701Y-127311655D01*
X75834700Y-127311657D01*
X75834700Y-127705743D01*
X75872770Y-127797652D01*
X75892176Y-127895213D01*
X75947440Y-127977922D01*
X75985510Y-128069830D01*
X76055853Y-128140173D01*
X76111118Y-128222883D01*
X76193828Y-128278148D01*
X76264170Y-128348490D01*
X76356077Y-128386559D01*
X76438788Y-128441825D01*
X76536352Y-128461232D01*
X76628257Y-128499300D01*
X76727734Y-128499300D01*
X76825300Y-128518707D01*
X76922866Y-128499300D01*
X77022343Y-128499300D01*
X77114247Y-128461232D01*
X77211813Y-128441825D01*
X77294526Y-128386558D01*
X77386430Y-128348490D01*
X77456770Y-128278150D01*
X77539483Y-128222883D01*
X77594750Y-128140170D01*
X77665090Y-128069830D01*
X77703158Y-127977926D01*
X77758425Y-127895213D01*
X77777832Y-127797647D01*
X77815900Y-127705743D01*
X77815900Y-108006966D01*
X77835307Y-107909400D01*
X77758425Y-107522887D01*
X77756162Y-107519500D01*
X77539483Y-107195217D01*
X77456770Y-107139950D01*
X77041300Y-106724481D01*
X77041300Y-90739466D01*
X77060707Y-90641900D01*
X77041300Y-90544334D01*
X77041300Y-90444857D01*
X77003232Y-90352953D01*
X76983825Y-90255387D01*
X76928558Y-90172674D01*
X76890490Y-90080770D01*
X76820149Y-90010429D01*
X76764883Y-89927717D01*
X76682170Y-89872450D01*
X76611830Y-89802110D01*
X76519926Y-89764042D01*
X76437213Y-89708775D01*
X76339647Y-89689368D01*
X76257605Y-89655385D01*
X73281119Y-86678900D01*
X89698401Y-86678900D01*
X89698400Y-88867049D01*
X89682974Y-88944600D01*
X89698400Y-89022151D01*
X89744085Y-89251827D01*
X89918116Y-89512284D01*
X89983865Y-89556216D01*
X90330200Y-89902551D01*
X90117692Y-89990574D01*
X89885474Y-90222792D01*
X89759800Y-90526198D01*
X89759800Y-90854602D01*
X89885474Y-91158008D01*
X90117692Y-91390226D01*
X90209676Y-91428327D01*
X95580786Y-96799438D01*
X95624716Y-96865184D01*
X95885172Y-97039215D01*
X96114848Y-97084900D01*
X96114849Y-97084900D01*
X96192400Y-97100326D01*
X96269951Y-97084900D01*
X102445216Y-97084900D01*
X102537198Y-97123000D01*
X102865602Y-97123000D01*
X103169008Y-96997326D01*
X103401226Y-96765108D01*
X103526900Y-96461702D01*
X103526900Y-96133298D01*
X103401226Y-95829892D01*
X103169008Y-95597674D01*
X102865602Y-95472000D01*
X102537198Y-95472000D01*
X102445216Y-95510100D01*
X96518552Y-95510100D01*
X96368652Y-95360200D01*
X102827316Y-95360200D01*
X102919298Y-95398300D01*
X103247702Y-95398300D01*
X103551108Y-95272626D01*
X103783326Y-95040408D01*
X103909000Y-94737002D01*
X103909000Y-94408598D01*
X103783326Y-94105192D01*
X103551108Y-93872974D01*
X103247702Y-93747300D01*
X102919298Y-93747300D01*
X102827316Y-93785400D01*
X96440152Y-93785400D01*
X93565319Y-90910568D01*
X93790976Y-90865682D01*
X94169057Y-90613057D01*
X94363267Y-90322400D01*
X94866733Y-90322400D01*
X95060944Y-90613057D01*
X95439025Y-90865682D01*
X95885000Y-90954392D01*
X96330976Y-90865682D01*
X96709057Y-90613057D01*
X96903267Y-90322400D01*
X97406733Y-90322400D01*
X97600944Y-90613057D01*
X97979025Y-90865682D01*
X98425000Y-90954392D01*
X98870976Y-90865682D01*
X99249057Y-90613057D01*
X99443267Y-90322400D01*
X99946733Y-90322400D01*
X100140944Y-90613057D01*
X100519025Y-90865682D01*
X100965000Y-90954392D01*
X101410976Y-90865682D01*
X101789057Y-90613057D01*
X101983267Y-90322400D01*
X104760516Y-90322400D01*
X104852498Y-90360500D01*
X105180902Y-90360500D01*
X105484308Y-90234826D01*
X105716526Y-90002608D01*
X105842200Y-89699202D01*
X105842200Y-89370798D01*
X105716526Y-89067392D01*
X105484308Y-88835174D01*
X105180902Y-88709500D01*
X104852498Y-88709500D01*
X104760516Y-88747600D01*
X101983267Y-88747600D01*
X101789057Y-88456943D01*
X101410975Y-88204318D01*
X100965000Y-88115608D01*
X100519024Y-88204318D01*
X100140943Y-88456943D01*
X99946733Y-88747600D01*
X99443267Y-88747600D01*
X99249057Y-88456943D01*
X98870975Y-88204318D01*
X98425000Y-88115608D01*
X97979024Y-88204318D01*
X97600943Y-88456943D01*
X97406733Y-88747600D01*
X96903267Y-88747600D01*
X96709057Y-88456943D01*
X96330975Y-88204318D01*
X95885000Y-88115608D01*
X95439024Y-88204318D01*
X95060943Y-88456943D01*
X94866733Y-88747600D01*
X94363267Y-88747600D01*
X94169057Y-88456943D01*
X93790975Y-88204318D01*
X93345000Y-88115608D01*
X92899024Y-88204318D01*
X92520943Y-88456943D01*
X92268318Y-88835025D01*
X92202000Y-89168429D01*
X92202000Y-89547249D01*
X91273200Y-88618449D01*
X91273200Y-87509388D01*
X91310667Y-87546855D01*
X91416987Y-87590894D01*
X91524503Y-87662734D01*
X91651326Y-87687961D01*
X91749438Y-87728600D01*
X91855633Y-87728600D01*
X91872726Y-87732000D01*
X91872730Y-87732000D01*
X91990299Y-87755386D01*
X92107868Y-87732000D01*
X120340813Y-87732000D01*
X122226201Y-89617389D01*
X122226200Y-91407573D01*
X122239000Y-91471923D01*
X122239000Y-91706318D01*
X122307522Y-92050803D01*
X122568548Y-92441453D01*
X122959198Y-92702478D01*
X123420000Y-92794137D01*
X123880803Y-92702478D01*
X124271453Y-92441453D01*
X124532478Y-92050803D01*
X124601000Y-91706317D01*
X124601000Y-91471924D01*
X124613800Y-91407574D01*
X124613800Y-90063690D01*
X124755000Y-90063690D01*
X124755000Y-91004250D01*
X124913750Y-91163000D01*
X126063000Y-91163000D01*
X126063000Y-89713750D01*
X126317000Y-89713750D01*
X126317000Y-91163000D01*
X127466250Y-91163000D01*
X127625000Y-91004250D01*
X127625000Y-90063690D01*
X127528327Y-89830301D01*
X127349698Y-89651673D01*
X127116309Y-89555000D01*
X126475750Y-89555000D01*
X126317000Y-89713750D01*
X126063000Y-89713750D01*
X125904250Y-89555000D01*
X125263691Y-89555000D01*
X125030302Y-89651673D01*
X124851673Y-89830301D01*
X124755000Y-90063690D01*
X124613800Y-90063690D01*
X124613800Y-89240469D01*
X124628129Y-89168429D01*
X140462000Y-89168429D01*
X140462000Y-89901572D01*
X140528318Y-90234976D01*
X140780944Y-90613057D01*
X141159025Y-90865682D01*
X141605000Y-90954392D01*
X142050976Y-90865682D01*
X142429057Y-90613057D01*
X142628077Y-90315200D01*
X149247200Y-90315200D01*
X149247200Y-90815200D01*
X150505200Y-90815200D01*
X150505200Y-89222544D01*
X150291015Y-89099882D01*
X150219516Y-89114027D01*
X149742660Y-89373055D01*
X149401228Y-89794851D01*
X149247200Y-90315200D01*
X142628077Y-90315200D01*
X142681682Y-90234975D01*
X142748000Y-89901571D01*
X142748000Y-89168428D01*
X142681682Y-88835024D01*
X142464509Y-88510000D01*
X172742150Y-88510000D01*
X172888138Y-89243929D01*
X173303875Y-89866125D01*
X173926071Y-90281862D01*
X174474743Y-90391000D01*
X175845257Y-90391000D01*
X176393929Y-90281862D01*
X177016125Y-89866125D01*
X177431862Y-89243929D01*
X177521010Y-88795750D01*
X178025000Y-88795750D01*
X178025000Y-90136309D01*
X178121673Y-90369698D01*
X178300301Y-90548327D01*
X178533690Y-90645000D01*
X179765304Y-90645000D01*
X179225638Y-90786118D01*
X178560524Y-91290130D01*
X178138916Y-92010304D01*
X178074887Y-92251167D01*
X178187835Y-92583000D01*
X180533000Y-92583000D01*
X180533000Y-90575000D01*
X180444250Y-90575000D01*
X180533000Y-90486250D01*
X180533000Y-88637000D01*
X180787000Y-88637000D01*
X180787000Y-90486250D01*
X180875750Y-90575000D01*
X180787000Y-90575000D01*
X180787000Y-92583000D01*
X183132165Y-92583000D01*
X183245113Y-92251167D01*
X183181084Y-92010304D01*
X182759476Y-91290130D01*
X182094362Y-90786118D01*
X181554696Y-90645000D01*
X182786310Y-90645000D01*
X183019699Y-90548327D01*
X183198327Y-90369698D01*
X183295000Y-90136309D01*
X183295000Y-88795750D01*
X183136250Y-88637000D01*
X180787000Y-88637000D01*
X180533000Y-88637000D01*
X178183750Y-88637000D01*
X178025000Y-88795750D01*
X177521010Y-88795750D01*
X177577850Y-88510000D01*
X177431862Y-87776071D01*
X177016125Y-87153875D01*
X176611766Y-86883691D01*
X178025000Y-86883691D01*
X178025000Y-88224250D01*
X178183750Y-88383000D01*
X180533000Y-88383000D01*
X180533000Y-86533750D01*
X180787000Y-86533750D01*
X180787000Y-88383000D01*
X183136250Y-88383000D01*
X183295000Y-88224250D01*
X183295000Y-88036390D01*
X185579000Y-88036390D01*
X185579000Y-88983610D01*
X185941485Y-89858728D01*
X186611272Y-90528515D01*
X187486390Y-90891000D01*
X188433610Y-90891000D01*
X189308728Y-90528515D01*
X189978515Y-89858728D01*
X190341000Y-88983610D01*
X190341000Y-88036390D01*
X189978515Y-87161272D01*
X189308728Y-86491485D01*
X188433610Y-86129000D01*
X187486390Y-86129000D01*
X186611272Y-86491485D01*
X185941485Y-87161272D01*
X185579000Y-88036390D01*
X183295000Y-88036390D01*
X183295000Y-86883691D01*
X183198327Y-86650302D01*
X183019699Y-86471673D01*
X182786310Y-86375000D01*
X180945750Y-86375000D01*
X180787000Y-86533750D01*
X180533000Y-86533750D01*
X180374250Y-86375000D01*
X178533690Y-86375000D01*
X178300301Y-86471673D01*
X178121673Y-86650302D01*
X178025000Y-86883691D01*
X176611766Y-86883691D01*
X176393929Y-86738138D01*
X175845257Y-86629000D01*
X174474743Y-86629000D01*
X173926071Y-86738138D01*
X173303875Y-87153875D01*
X172888138Y-87776071D01*
X172742150Y-88510000D01*
X142464509Y-88510000D01*
X142429057Y-88456943D01*
X142050975Y-88204318D01*
X141605000Y-88115608D01*
X141159024Y-88204318D01*
X140780943Y-88456943D01*
X140528318Y-88835025D01*
X140462000Y-89168429D01*
X124628129Y-89168429D01*
X124637186Y-89122900D01*
X124613800Y-89005331D01*
X124613800Y-89005326D01*
X124544534Y-88657103D01*
X124280681Y-88262219D01*
X124181007Y-88195619D01*
X121762583Y-85777196D01*
X121695981Y-85677519D01*
X121301097Y-85413666D01*
X120952874Y-85344400D01*
X120952869Y-85344400D01*
X120835300Y-85321014D01*
X120717731Y-85344400D01*
X101915113Y-85344400D01*
X102041682Y-85154975D01*
X102108000Y-84821571D01*
X102108000Y-84088429D01*
X140462000Y-84088429D01*
X140462000Y-84821572D01*
X140528318Y-85154976D01*
X140780944Y-85533057D01*
X141159025Y-85785682D01*
X141605000Y-85874392D01*
X142050976Y-85785682D01*
X142429057Y-85533057D01*
X142560828Y-85335846D01*
X150519000Y-85335846D01*
X150519000Y-86084154D01*
X150805365Y-86775501D01*
X151334499Y-87304635D01*
X152025846Y-87591000D01*
X152774154Y-87591000D01*
X153465501Y-87304635D01*
X153994635Y-86775501D01*
X154281000Y-86084154D01*
X154281000Y-85335846D01*
X153994635Y-84644499D01*
X153465501Y-84115365D01*
X152774154Y-83829000D01*
X152025846Y-83829000D01*
X151334499Y-84115365D01*
X150805365Y-84644499D01*
X150519000Y-85335846D01*
X142560828Y-85335846D01*
X142681682Y-85154975D01*
X142748000Y-84821571D01*
X142748000Y-84088428D01*
X142681682Y-83755024D01*
X142429057Y-83376943D01*
X142050975Y-83124318D01*
X141605000Y-83035608D01*
X141159024Y-83124318D01*
X140780943Y-83376943D01*
X140528318Y-83755025D01*
X140462000Y-84088429D01*
X102108000Y-84088429D01*
X102108000Y-84088428D01*
X102041682Y-83755024D01*
X101789057Y-83376943D01*
X101410975Y-83124318D01*
X100965000Y-83035608D01*
X100519024Y-83124318D01*
X100140943Y-83376943D01*
X99888318Y-83755025D01*
X99822000Y-84088429D01*
X99822000Y-84821572D01*
X99888318Y-85154976D01*
X100014887Y-85344400D01*
X99375113Y-85344400D01*
X99501682Y-85154975D01*
X99568000Y-84821571D01*
X99568000Y-84088428D01*
X99501682Y-83755024D01*
X99249057Y-83376943D01*
X98870975Y-83124318D01*
X98425000Y-83035608D01*
X97979024Y-83124318D01*
X97600943Y-83376943D01*
X97348318Y-83755025D01*
X97282000Y-84088429D01*
X97282000Y-84821572D01*
X97348318Y-85154976D01*
X97474887Y-85344400D01*
X96835113Y-85344400D01*
X96961682Y-85154975D01*
X97028000Y-84821571D01*
X97028000Y-84088428D01*
X96961682Y-83755024D01*
X96709057Y-83376943D01*
X96330975Y-83124318D01*
X95885000Y-83035608D01*
X95439024Y-83124318D01*
X95060943Y-83376943D01*
X94808318Y-83755025D01*
X94742000Y-84088429D01*
X94742000Y-84821572D01*
X94808318Y-85154976D01*
X94934887Y-85344400D01*
X94295113Y-85344400D01*
X94421682Y-85154975D01*
X94488000Y-84821571D01*
X94488000Y-84088428D01*
X94421682Y-83755024D01*
X94169057Y-83376943D01*
X93790975Y-83124318D01*
X93345000Y-83035608D01*
X92899024Y-83124318D01*
X92520943Y-83376943D01*
X92326733Y-83667600D01*
X91999851Y-83667600D01*
X91922300Y-83652174D01*
X91844749Y-83667600D01*
X91844748Y-83667600D01*
X91615072Y-83713285D01*
X91354616Y-83887316D01*
X91310686Y-83953062D01*
X90159649Y-85104100D01*
X73219384Y-85104100D01*
X73127402Y-85066000D01*
X72798998Y-85066000D01*
X72495592Y-85191674D01*
X72263374Y-85423892D01*
X72193882Y-85591663D01*
X71974900Y-85372681D01*
X71974900Y-81378187D01*
X72437025Y-81840312D01*
X73230548Y-82169000D01*
X74089452Y-82169000D01*
X74882975Y-81840312D01*
X75490312Y-81232975D01*
X75819000Y-80439452D01*
X75819000Y-79580548D01*
X75490312Y-78787025D01*
X74882975Y-78179688D01*
X74089452Y-77851000D01*
X73230548Y-77851000D01*
X72843499Y-78011321D01*
X73021470Y-77833350D01*
X73104183Y-77778083D01*
X73323125Y-77450413D01*
X73380600Y-77161466D01*
X73400007Y-77063901D01*
X73380600Y-76966336D01*
X73380600Y-76575833D01*
X73465759Y-76558894D01*
X73591786Y-76474686D01*
X73675994Y-76348659D01*
X73705564Y-76200000D01*
X73705564Y-75794919D01*
X73986914Y-76215987D01*
X74419606Y-76505103D01*
X74930000Y-76606627D01*
X75440395Y-76505103D01*
X75873087Y-76215987D01*
X76162203Y-75783295D01*
X76200000Y-75593276D01*
X76237797Y-75783295D01*
X76526914Y-76215987D01*
X76959606Y-76505103D01*
X77470000Y-76606627D01*
X77980395Y-76505103D01*
X78413087Y-76215987D01*
X78702203Y-75783295D01*
X78740000Y-75593276D01*
X78777797Y-75783295D01*
X79066914Y-76215987D01*
X79499606Y-76505103D01*
X80010000Y-76606627D01*
X80520395Y-76505103D01*
X80953087Y-76215987D01*
X81242203Y-75783295D01*
X81280000Y-75593276D01*
X81317797Y-75783295D01*
X81606914Y-76215987D01*
X82039606Y-76505103D01*
X82550000Y-76606627D01*
X83060395Y-76505103D01*
X83493087Y-76215987D01*
X83782203Y-75783295D01*
X83820000Y-75593276D01*
X83857797Y-75783295D01*
X84146914Y-76215987D01*
X84579606Y-76505103D01*
X85090000Y-76606627D01*
X85600395Y-76505103D01*
X86033087Y-76215987D01*
X86322203Y-75783295D01*
X86360000Y-75593276D01*
X86397797Y-75783295D01*
X86686914Y-76215987D01*
X87119606Y-76505103D01*
X87630000Y-76606627D01*
X88140395Y-76505103D01*
X88573087Y-76215987D01*
X88862203Y-75783295D01*
X88900000Y-75593276D01*
X88937797Y-75783295D01*
X89226914Y-76215987D01*
X89659606Y-76505103D01*
X90170000Y-76606627D01*
X90680395Y-76505103D01*
X91113087Y-76215987D01*
X91402203Y-75783295D01*
X91440000Y-75593276D01*
X91477797Y-75783295D01*
X91766914Y-76215987D01*
X92199606Y-76505103D01*
X92710000Y-76606627D01*
X93220395Y-76505103D01*
X93653087Y-76215987D01*
X93942203Y-75783295D01*
X93980000Y-75593276D01*
X94017797Y-75783295D01*
X94306914Y-76215987D01*
X94739606Y-76505103D01*
X95250000Y-76606627D01*
X95760395Y-76505103D01*
X96193087Y-76215987D01*
X96482203Y-75783295D01*
X96520000Y-75593276D01*
X96557797Y-75783295D01*
X96846914Y-76215987D01*
X97279606Y-76505103D01*
X97790000Y-76606627D01*
X98300395Y-76505103D01*
X98733087Y-76215987D01*
X99022203Y-75783295D01*
X99060000Y-75593276D01*
X99097797Y-75783295D01*
X99386914Y-76215987D01*
X99819606Y-76505103D01*
X100330000Y-76606627D01*
X100840395Y-76505103D01*
X101273087Y-76215987D01*
X101562203Y-75783295D01*
X101600000Y-75593276D01*
X101637797Y-75783295D01*
X101926914Y-76215987D01*
X102359606Y-76505103D01*
X102870000Y-76606627D01*
X103380395Y-76505103D01*
X103813087Y-76215987D01*
X104102203Y-75783295D01*
X104140000Y-75593276D01*
X104177797Y-75783295D01*
X104466914Y-76215987D01*
X104899606Y-76505103D01*
X105410000Y-76606627D01*
X105920395Y-76505103D01*
X106353087Y-76215987D01*
X106642203Y-75783295D01*
X106680000Y-75593276D01*
X106717797Y-75783295D01*
X107006914Y-76215987D01*
X107439606Y-76505103D01*
X107950000Y-76606627D01*
X108460395Y-76505103D01*
X108893087Y-76215987D01*
X109182203Y-75783295D01*
X109220000Y-75593276D01*
X109257797Y-75783295D01*
X109546914Y-76215987D01*
X109979606Y-76505103D01*
X110490000Y-76606627D01*
X111000395Y-76505103D01*
X111433087Y-76215987D01*
X111722203Y-75783295D01*
X111760000Y-75593276D01*
X111797797Y-75783295D01*
X112086914Y-76215987D01*
X112519606Y-76505103D01*
X113030000Y-76606627D01*
X113540395Y-76505103D01*
X113973087Y-76215987D01*
X114262203Y-75783295D01*
X114300000Y-75593276D01*
X114337797Y-75783295D01*
X114626914Y-76215987D01*
X115059606Y-76505103D01*
X115570000Y-76606627D01*
X116080395Y-76505103D01*
X116513087Y-76215987D01*
X116802203Y-75783295D01*
X116840000Y-75593276D01*
X116877797Y-75783295D01*
X117166914Y-76215987D01*
X117599606Y-76505103D01*
X118110000Y-76606627D01*
X118620395Y-76505103D01*
X119053087Y-76215987D01*
X119342203Y-75783295D01*
X119380000Y-75593276D01*
X119417797Y-75783295D01*
X119706914Y-76215987D01*
X120139606Y-76505103D01*
X120650000Y-76606627D01*
X121160395Y-76505103D01*
X121593087Y-76215987D01*
X121882203Y-75783295D01*
X121920000Y-75593276D01*
X121957797Y-75783295D01*
X122246914Y-76215987D01*
X122679606Y-76505103D01*
X123190000Y-76606627D01*
X123700395Y-76505103D01*
X124133087Y-76215987D01*
X124422203Y-75783295D01*
X124460000Y-75593276D01*
X124497797Y-75783295D01*
X124786914Y-76215987D01*
X125219606Y-76505103D01*
X125730000Y-76606627D01*
X126240395Y-76505103D01*
X126673087Y-76215987D01*
X126962203Y-75783295D01*
X127000000Y-75593276D01*
X127037797Y-75783295D01*
X127326914Y-76215987D01*
X127759606Y-76505103D01*
X128270000Y-76606627D01*
X128780395Y-76505103D01*
X129213087Y-76215987D01*
X129502203Y-75783295D01*
X129540000Y-75593276D01*
X129577797Y-75783295D01*
X129866914Y-76215987D01*
X130299606Y-76505103D01*
X130810000Y-76606627D01*
X131320395Y-76505103D01*
X131753087Y-76215987D01*
X132042203Y-75783295D01*
X132080000Y-75593276D01*
X132117797Y-75783295D01*
X132406914Y-76215987D01*
X132839606Y-76505103D01*
X133350000Y-76606627D01*
X133860395Y-76505103D01*
X134293087Y-76215987D01*
X134582203Y-75783295D01*
X134658100Y-75401734D01*
X134658100Y-74500548D01*
X162941000Y-74500548D01*
X162941000Y-75359452D01*
X163269688Y-76152975D01*
X163877025Y-76760312D01*
X164670548Y-77089000D01*
X165529452Y-77089000D01*
X166322975Y-76760312D01*
X166930312Y-76152975D01*
X167259000Y-75359452D01*
X167259000Y-74500548D01*
X166930312Y-73707025D01*
X166322975Y-73099688D01*
X165529452Y-72771000D01*
X164670548Y-72771000D01*
X163877025Y-73099688D01*
X163269688Y-73707025D01*
X162941000Y-74500548D01*
X134658100Y-74500548D01*
X134658100Y-74458265D01*
X134582203Y-74076705D01*
X134293087Y-73644013D01*
X133860394Y-73354897D01*
X133350000Y-73253373D01*
X132839605Y-73354897D01*
X132406913Y-73644013D01*
X132117797Y-74076706D01*
X132080000Y-74266724D01*
X132042203Y-74076705D01*
X131753087Y-73644013D01*
X131320394Y-73354897D01*
X130810000Y-73253373D01*
X130299605Y-73354897D01*
X129866913Y-73644013D01*
X129577797Y-74076706D01*
X129540000Y-74266724D01*
X129502203Y-74076705D01*
X129213087Y-73644013D01*
X128780394Y-73354897D01*
X128270000Y-73253373D01*
X127759605Y-73354897D01*
X127326913Y-73644013D01*
X127037797Y-74076706D01*
X127000000Y-74266724D01*
X126962203Y-74076705D01*
X126673087Y-73644013D01*
X126240394Y-73354897D01*
X125730000Y-73253373D01*
X125219605Y-73354897D01*
X124786913Y-73644013D01*
X124497797Y-74076706D01*
X124460000Y-74266724D01*
X124422203Y-74076705D01*
X124133087Y-73644013D01*
X123700394Y-73354897D01*
X123190000Y-73253373D01*
X122679605Y-73354897D01*
X122246913Y-73644013D01*
X121957797Y-74076706D01*
X121920000Y-74266724D01*
X121882203Y-74076705D01*
X121593087Y-73644013D01*
X121160394Y-73354897D01*
X120650000Y-73253373D01*
X120139605Y-73354897D01*
X119706913Y-73644013D01*
X119417797Y-74076706D01*
X119380000Y-74266724D01*
X119342203Y-74076705D01*
X119053087Y-73644013D01*
X118620394Y-73354897D01*
X118110000Y-73253373D01*
X117599605Y-73354897D01*
X117166913Y-73644013D01*
X116877797Y-74076706D01*
X116840000Y-74266724D01*
X116802203Y-74076705D01*
X116513087Y-73644013D01*
X116080394Y-73354897D01*
X115570000Y-73253373D01*
X115059605Y-73354897D01*
X114626913Y-73644013D01*
X114337797Y-74076706D01*
X114300000Y-74266724D01*
X114262203Y-74076705D01*
X113973087Y-73644013D01*
X113540394Y-73354897D01*
X113030000Y-73253373D01*
X112519605Y-73354897D01*
X112086913Y-73644013D01*
X111797797Y-74076706D01*
X111760000Y-74266724D01*
X111722203Y-74076705D01*
X111433087Y-73644013D01*
X111000394Y-73354897D01*
X110490000Y-73253373D01*
X109979605Y-73354897D01*
X109546913Y-73644013D01*
X109257797Y-74076706D01*
X109220000Y-74266724D01*
X109182203Y-74076705D01*
X108893087Y-73644013D01*
X108460394Y-73354897D01*
X107950000Y-73253373D01*
X107439605Y-73354897D01*
X107006913Y-73644013D01*
X106717797Y-74076706D01*
X106680000Y-74266724D01*
X106642203Y-74076705D01*
X106353087Y-73644013D01*
X105920394Y-73354897D01*
X105410000Y-73253373D01*
X104899605Y-73354897D01*
X104466913Y-73644013D01*
X104177797Y-74076706D01*
X104140000Y-74266724D01*
X104102203Y-74076705D01*
X103813087Y-73644013D01*
X103380394Y-73354897D01*
X102870000Y-73253373D01*
X102359605Y-73354897D01*
X101926913Y-73644013D01*
X101637797Y-74076706D01*
X101600000Y-74266724D01*
X101562203Y-74076705D01*
X101273087Y-73644013D01*
X100840394Y-73354897D01*
X100330000Y-73253373D01*
X99819605Y-73354897D01*
X99386913Y-73644013D01*
X99097797Y-74076706D01*
X99060000Y-74266724D01*
X99022203Y-74076705D01*
X98733087Y-73644013D01*
X98300394Y-73354897D01*
X97790000Y-73253373D01*
X97279605Y-73354897D01*
X96846913Y-73644013D01*
X96557797Y-74076706D01*
X96520000Y-74266724D01*
X96482203Y-74076705D01*
X96193087Y-73644013D01*
X95760394Y-73354897D01*
X95250000Y-73253373D01*
X94739605Y-73354897D01*
X94306913Y-73644013D01*
X94017797Y-74076706D01*
X93980000Y-74266724D01*
X93942203Y-74076705D01*
X93653087Y-73644013D01*
X93220394Y-73354897D01*
X92710000Y-73253373D01*
X92199605Y-73354897D01*
X91766913Y-73644013D01*
X91477797Y-74076706D01*
X91440000Y-74266724D01*
X91402203Y-74076705D01*
X91113087Y-73644013D01*
X90680394Y-73354897D01*
X90170000Y-73253373D01*
X89659605Y-73354897D01*
X89226913Y-73644013D01*
X88937797Y-74076706D01*
X88900000Y-74266724D01*
X88862203Y-74076705D01*
X88573087Y-73644013D01*
X88140394Y-73354897D01*
X87630000Y-73253373D01*
X87119605Y-73354897D01*
X86686913Y-73644013D01*
X86397797Y-74076706D01*
X86360000Y-74266724D01*
X86322203Y-74076705D01*
X86033087Y-73644013D01*
X85600394Y-73354897D01*
X85090000Y-73253373D01*
X84579605Y-73354897D01*
X84146913Y-73644013D01*
X83857797Y-74076706D01*
X83820000Y-74266724D01*
X83782203Y-74076705D01*
X83493087Y-73644013D01*
X83060394Y-73354897D01*
X82550000Y-73253373D01*
X82039605Y-73354897D01*
X81606913Y-73644013D01*
X81317797Y-74076706D01*
X81280000Y-74266724D01*
X81242203Y-74076705D01*
X80953087Y-73644013D01*
X80520394Y-73354897D01*
X80010000Y-73253373D01*
X79499605Y-73354897D01*
X79066913Y-73644013D01*
X78777797Y-74076706D01*
X78740000Y-74266724D01*
X78702203Y-74076705D01*
X78413087Y-73644013D01*
X77980394Y-73354897D01*
X77470000Y-73253373D01*
X76959605Y-73354897D01*
X76526913Y-73644013D01*
X76237797Y-74076706D01*
X76200000Y-74266724D01*
X76162203Y-74076705D01*
X75873087Y-73644013D01*
X75440394Y-73354897D01*
X74930000Y-73253373D01*
X74419605Y-73354897D01*
X73986913Y-73644013D01*
X73705564Y-74065082D01*
X73705564Y-73660000D01*
X73675994Y-73511341D01*
X73591786Y-73385314D01*
X73465759Y-73301106D01*
X73317100Y-73271536D01*
X71462900Y-73271536D01*
X71314241Y-73301106D01*
X71188214Y-73385314D01*
X71104006Y-73511341D01*
X71074436Y-73660000D01*
X71074436Y-76200000D01*
X71104006Y-76348659D01*
X71188214Y-76474686D01*
X71314241Y-76558894D01*
X71399401Y-76575833D01*
X71399401Y-76653579D01*
X70352833Y-77700148D01*
X70294500Y-77739125D01*
X70294500Y-72199500D01*
X190690501Y-72199500D01*
X190690500Y-138620500D01*
X190690500Y-138620500D01*
G37*
X190690500Y-138620500D02*
X134853182Y-138620500D01*
X138013134Y-135460548D01*
X162941000Y-135460548D01*
X162941000Y-136319452D01*
X163269688Y-137112975D01*
X163877025Y-137720312D01*
X164670548Y-138049000D01*
X165529452Y-138049000D01*
X166322975Y-137720312D01*
X166930312Y-137112975D01*
X167259000Y-136319452D01*
X167259000Y-135460548D01*
X166930312Y-134667025D01*
X166322975Y-134059688D01*
X165529452Y-133731000D01*
X164670548Y-133731000D01*
X163877025Y-134059688D01*
X163269688Y-134667025D01*
X162941000Y-135460548D01*
X138013134Y-135460548D01*
X145137907Y-128335777D01*
X145186685Y-128303185D01*
X145315804Y-128109943D01*
X145349700Y-127939537D01*
X145349700Y-127939536D01*
X145361145Y-127882001D01*
X145349700Y-127824465D01*
X145349700Y-124891435D01*
X145361145Y-124833899D01*
X145326445Y-124659455D01*
X145315804Y-124605957D01*
X145186685Y-124412715D01*
X145137906Y-124380122D01*
X143363583Y-122605800D01*
X182532903Y-122605800D01*
X182700467Y-123448200D01*
X183177648Y-124162352D01*
X183891800Y-124639533D01*
X184521559Y-124764800D01*
X186470841Y-124764800D01*
X187100600Y-124639533D01*
X187814752Y-124162352D01*
X188291933Y-123448200D01*
X188459497Y-122605800D01*
X188291933Y-121763400D01*
X187814752Y-121049248D01*
X187100600Y-120572067D01*
X186470841Y-120446800D01*
X184521559Y-120446800D01*
X183891800Y-120572067D01*
X183177648Y-121049248D01*
X182700467Y-121763400D01*
X182532903Y-122605800D01*
X143363583Y-122605800D01*
X143303895Y-122546113D01*
X143531200Y-122591326D01*
X143608753Y-122575900D01*
X150554648Y-122575900D01*
X150632200Y-122591326D01*
X150709752Y-122575900D01*
X150765270Y-122564857D01*
X150939428Y-122530215D01*
X151199884Y-122356184D01*
X151373915Y-122095728D01*
X151407795Y-121925399D01*
X151435026Y-121788500D01*
X151419600Y-121710948D01*
X151419600Y-121211917D01*
X151447605Y-121193205D01*
X151697578Y-120819094D01*
X151763200Y-120489191D01*
X151763200Y-119816433D01*
X151987316Y-119938173D01*
X152058815Y-119952318D01*
X152273000Y-119829656D01*
X152273000Y-118237000D01*
X152527000Y-118237000D01*
X152527000Y-119829656D01*
X152741185Y-119952318D01*
X152812684Y-119938173D01*
X153036800Y-119816433D01*
X153036800Y-120489191D01*
X153102422Y-120819094D01*
X153352396Y-121193205D01*
X153726507Y-121443178D01*
X154167800Y-121530957D01*
X154609094Y-121443178D01*
X154983205Y-121193205D01*
X155233178Y-120819094D01*
X155298800Y-120489191D01*
X155298800Y-119266409D01*
X155233178Y-118936506D01*
X154983205Y-118562395D01*
X154609093Y-118312422D01*
X154229923Y-118237000D01*
X175844200Y-118237000D01*
X175844200Y-118745000D01*
X176095814Y-119755949D01*
X176715149Y-120593656D01*
X177607916Y-121130587D01*
X177969026Y-121229309D01*
X178384200Y-121123033D01*
X178384200Y-118237000D01*
X178638200Y-118237000D01*
X178638200Y-121123033D01*
X179053374Y-121229309D01*
X179414484Y-121130587D01*
X180307251Y-120593656D01*
X180926586Y-119755949D01*
X181178200Y-118745000D01*
X181178200Y-118237000D01*
X178638200Y-118237000D01*
X178384200Y-118237000D01*
X175844200Y-118237000D01*
X154229923Y-118237000D01*
X154167800Y-118224643D01*
X153785000Y-118300787D01*
X153785000Y-118237000D01*
X152527000Y-118237000D01*
X152273000Y-118237000D01*
X152253000Y-118237000D01*
X152253000Y-118110000D01*
X181288303Y-118110000D01*
X181455867Y-118952400D01*
X181933048Y-119666552D01*
X182647200Y-120143733D01*
X183276959Y-120269000D01*
X184718241Y-120269000D01*
X185348000Y-120143733D01*
X186062152Y-119666552D01*
X186500101Y-119011116D01*
X186740239Y-119251254D01*
X187235024Y-119456200D01*
X187770576Y-119456200D01*
X188265361Y-119251254D01*
X188644054Y-118872561D01*
X188849000Y-118377776D01*
X188849000Y-117842224D01*
X188644054Y-117347439D01*
X188265361Y-116968746D01*
X187770576Y-116763800D01*
X187235024Y-116763800D01*
X186740239Y-116968746D01*
X186500101Y-117208884D01*
X186062152Y-116553448D01*
X185348000Y-116076267D01*
X184718241Y-115951000D01*
X183276959Y-115951000D01*
X182647200Y-116076267D01*
X181933048Y-116553448D01*
X181455867Y-117267600D01*
X181288303Y-118110000D01*
X152253000Y-118110000D01*
X152253000Y-117983000D01*
X152273000Y-117983000D01*
X152273000Y-116390344D01*
X152527000Y-116390344D01*
X152527000Y-117983000D01*
X153785000Y-117983000D01*
X153785000Y-117919213D01*
X154167800Y-117995357D01*
X154609094Y-117907578D01*
X154983205Y-117657605D01*
X155105217Y-117475000D01*
X175844200Y-117475000D01*
X175844200Y-117983000D01*
X178384200Y-117983000D01*
X178384200Y-115096967D01*
X178638200Y-115096967D01*
X178638200Y-117983000D01*
X181178200Y-117983000D01*
X181178200Y-117475000D01*
X180926586Y-116464051D01*
X180307251Y-115626344D01*
X179414484Y-115089413D01*
X179053374Y-114990691D01*
X178638200Y-115096967D01*
X178384200Y-115096967D01*
X177969026Y-114990691D01*
X177607916Y-115089413D01*
X176715149Y-115626344D01*
X176095814Y-116464051D01*
X175844200Y-117475000D01*
X155105217Y-117475000D01*
X155233178Y-117283494D01*
X155298800Y-116953591D01*
X155298800Y-115730809D01*
X155233178Y-115400906D01*
X154983205Y-115026795D01*
X154609093Y-114776822D01*
X154167800Y-114689043D01*
X153726506Y-114776822D01*
X153352395Y-115026795D01*
X153102422Y-115400907D01*
X153036800Y-115730810D01*
X153036800Y-116403567D01*
X152812684Y-116281827D01*
X152741185Y-116267682D01*
X152527000Y-116390344D01*
X152273000Y-116390344D01*
X152058815Y-116267682D01*
X152017200Y-116275915D01*
X152017200Y-115715200D01*
X151863172Y-115194851D01*
X151521740Y-114773055D01*
X151044884Y-114514027D01*
X150973385Y-114499882D01*
X150759200Y-114622544D01*
X150759200Y-116215200D01*
X150779200Y-116215200D01*
X150779200Y-116469200D01*
X150759200Y-116469200D01*
X150759200Y-116489200D01*
X150505200Y-116489200D01*
X150505200Y-116469200D01*
X149247200Y-116469200D01*
X149247200Y-116969200D01*
X149401228Y-117489549D01*
X149742660Y-117911345D01*
X150219516Y-118170373D01*
X150291015Y-118184518D01*
X150505198Y-118061857D01*
X150505198Y-118227200D01*
X150619345Y-118227200D01*
X150190906Y-118312422D01*
X149816795Y-118562395D01*
X149566822Y-118936507D01*
X149501200Y-119266410D01*
X149501200Y-120489191D01*
X149566822Y-120819094D01*
X149688435Y-121001100D01*
X143857352Y-121001100D01*
X143639316Y-120783065D01*
X143595384Y-120717316D01*
X143334928Y-120543285D01*
X143105252Y-120497600D01*
X143105251Y-120497600D01*
X143027700Y-120482174D01*
X142950149Y-120497600D01*
X142623267Y-120497600D01*
X142429057Y-120206943D01*
X142050975Y-119954318D01*
X141605000Y-119865608D01*
X141159024Y-119954318D01*
X140951700Y-120092847D01*
X140951700Y-116619482D01*
X141855982Y-115715200D01*
X149247200Y-115715200D01*
X149247200Y-116215200D01*
X150505200Y-116215200D01*
X150505200Y-114622544D01*
X150291015Y-114499882D01*
X150219516Y-114514027D01*
X149742660Y-114773055D01*
X149401228Y-115194851D01*
X149247200Y-115715200D01*
X141855982Y-115715200D01*
X143956983Y-113614200D01*
X182532903Y-113614200D01*
X182700467Y-114456600D01*
X183177648Y-115170752D01*
X183891800Y-115647933D01*
X184521559Y-115773200D01*
X186470841Y-115773200D01*
X187100600Y-115647933D01*
X187814752Y-115170752D01*
X188291933Y-114456600D01*
X188459497Y-113614200D01*
X188291933Y-112771800D01*
X187814752Y-112057648D01*
X187100600Y-111580467D01*
X186470841Y-111455200D01*
X184521559Y-111455200D01*
X183891800Y-111580467D01*
X183177648Y-112057648D01*
X182700467Y-112771800D01*
X182532903Y-113614200D01*
X143956983Y-113614200D01*
X144910984Y-112660200D01*
X145074502Y-112660200D01*
X145377908Y-112534526D01*
X145610126Y-112302308D01*
X145735800Y-111998902D01*
X145735800Y-111670498D01*
X145610126Y-111367092D01*
X145377908Y-111134874D01*
X145074502Y-111009200D01*
X144830197Y-111009200D01*
X145087008Y-110902826D01*
X145253988Y-110735846D01*
X150519000Y-110735846D01*
X150519000Y-111484154D01*
X150805365Y-112175501D01*
X151334499Y-112704635D01*
X152025846Y-112991000D01*
X152774154Y-112991000D01*
X153465501Y-112704635D01*
X153994635Y-112175501D01*
X154281000Y-111484154D01*
X154281000Y-110735846D01*
X153994635Y-110044499D01*
X153465501Y-109515365D01*
X152774154Y-109229000D01*
X152025846Y-109229000D01*
X151334499Y-109515365D01*
X150805365Y-110044499D01*
X150519000Y-110735846D01*
X145253988Y-110735846D01*
X145319226Y-110670608D01*
X145444900Y-110367202D01*
X145444900Y-110038798D01*
X145319226Y-109735392D01*
X145151489Y-109567655D01*
X145268408Y-109519226D01*
X145500626Y-109287008D01*
X145626300Y-108983602D01*
X145626300Y-108655198D01*
X145500626Y-108351792D01*
X145268408Y-108119574D01*
X144965002Y-107993900D01*
X144636598Y-107993900D01*
X144333192Y-108119574D01*
X144100974Y-108351792D01*
X143975300Y-108655198D01*
X143975300Y-108818716D01*
X139421200Y-113372818D01*
X139421200Y-111218982D01*
X143056753Y-107583429D01*
X165227000Y-107583429D01*
X165227000Y-108316572D01*
X165293318Y-108649976D01*
X165545944Y-109028057D01*
X165924025Y-109280682D01*
X166370000Y-109369392D01*
X166815976Y-109280682D01*
X167194057Y-109028057D01*
X167446682Y-108649975D01*
X167513000Y-108316571D01*
X167513000Y-107583428D01*
X167446682Y-107250024D01*
X167194057Y-106871943D01*
X166815975Y-106619318D01*
X166370000Y-106530608D01*
X165924024Y-106619318D01*
X165545943Y-106871943D01*
X165293318Y-107250025D01*
X165227000Y-107583429D01*
X143056753Y-107583429D01*
X146109704Y-104530479D01*
X146158485Y-104497885D01*
X146287604Y-104304643D01*
X146315517Y-104164317D01*
X146437126Y-104042708D01*
X146562800Y-103739302D01*
X146562800Y-103410898D01*
X146437126Y-103107492D01*
X146326634Y-102997000D01*
X164973000Y-102997000D01*
X164973000Y-103251000D01*
X165127941Y-103775941D01*
X165471974Y-104201630D01*
X165952723Y-104463260D01*
X166026930Y-104478220D01*
X166243000Y-104355720D01*
X166243000Y-102997000D01*
X166497000Y-102997000D01*
X166497000Y-104355720D01*
X166713070Y-104478220D01*
X166787277Y-104463260D01*
X167268026Y-104201630D01*
X167612059Y-103775941D01*
X167767000Y-103251000D01*
X167767000Y-102997000D01*
X166497000Y-102997000D01*
X166243000Y-102997000D01*
X164973000Y-102997000D01*
X146326634Y-102997000D01*
X146204908Y-102875274D01*
X145901502Y-102749600D01*
X145573098Y-102749600D01*
X145269692Y-102875274D01*
X145037474Y-103107492D01*
X144911800Y-103410898D01*
X144911800Y-103660366D01*
X144886508Y-103635074D01*
X144583102Y-103509400D01*
X144254698Y-103509400D01*
X143951292Y-103635074D01*
X143719074Y-103867292D01*
X143593400Y-104170698D01*
X143593400Y-104334217D01*
X137914897Y-110012721D01*
X137866116Y-110045315D01*
X137736997Y-110238557D01*
X137691655Y-110466500D01*
X137703101Y-110524041D01*
X137703100Y-122913264D01*
X137691655Y-122970800D01*
X137703100Y-123028336D01*
X137736996Y-123198742D01*
X137866115Y-123391985D01*
X137914899Y-123424581D01*
X139830722Y-125340406D01*
X139863315Y-125389185D01*
X140056557Y-125518304D01*
X140226963Y-125552200D01*
X140284499Y-125563645D01*
X140342035Y-125552200D01*
X140603705Y-125552200D01*
X140586733Y-125577600D01*
X133981752Y-125577600D01*
X132855800Y-124451649D01*
X132855800Y-122002950D01*
X132871226Y-121925399D01*
X132843684Y-121786938D01*
X132810115Y-121618172D01*
X132704739Y-121460465D01*
X133142000Y-121547442D01*
X134266110Y-121323843D01*
X135219085Y-120687085D01*
X135855843Y-119734110D01*
X136023000Y-118893753D01*
X136023000Y-117326246D01*
X135855843Y-116485890D01*
X135219084Y-115532915D01*
X134266109Y-114896157D01*
X133142000Y-114672558D01*
X132017890Y-114896157D01*
X131064915Y-115532916D01*
X130428157Y-116485891D01*
X130261000Y-117326247D01*
X130261000Y-118893754D01*
X130288486Y-119031935D01*
X130284616Y-119028065D01*
X130240684Y-118962316D01*
X129980228Y-118788285D01*
X129750552Y-118742600D01*
X129750551Y-118742600D01*
X129673000Y-118727174D01*
X129595449Y-118742600D01*
X126977400Y-118742600D01*
X126977400Y-117884252D01*
X127041453Y-117841453D01*
X127302478Y-117450803D01*
X127371000Y-117106317D01*
X127371000Y-116273682D01*
X127302478Y-115929197D01*
X127041453Y-115538547D01*
X126650802Y-115277522D01*
X126190000Y-115185863D01*
X125864217Y-115250665D01*
X124995716Y-114382165D01*
X124951784Y-114316416D01*
X124691328Y-114142385D01*
X124461652Y-114096700D01*
X124461651Y-114096700D01*
X124384100Y-114081274D01*
X124306549Y-114096700D01*
X122533450Y-114096700D01*
X122455899Y-114081274D01*
X122378348Y-114096700D01*
X122148672Y-114142385D01*
X121888216Y-114316416D01*
X121844286Y-114382162D01*
X120975783Y-115250665D01*
X120650000Y-115185863D01*
X120324217Y-115250665D01*
X119498516Y-114424965D01*
X119454584Y-114359216D01*
X119194128Y-114185185D01*
X118964452Y-114139500D01*
X118964451Y-114139500D01*
X118886900Y-114124074D01*
X118809349Y-114139500D01*
X116950651Y-114139500D01*
X116873100Y-114124074D01*
X116795549Y-114139500D01*
X116795548Y-114139500D01*
X116565872Y-114185185D01*
X116305416Y-114359216D01*
X116261486Y-114424962D01*
X115484912Y-115201536D01*
X114875215Y-115201536D01*
X116973252Y-113103500D01*
X124734216Y-113103500D01*
X124826198Y-113141600D01*
X125154602Y-113141600D01*
X125458008Y-113015926D01*
X125690226Y-112783708D01*
X125815900Y-112480302D01*
X125815900Y-112151898D01*
X125690226Y-111848492D01*
X125458008Y-111616274D01*
X125154602Y-111490600D01*
X124826198Y-111490600D01*
X124734216Y-111528700D01*
X116724651Y-111528700D01*
X116647100Y-111513274D01*
X116569549Y-111528700D01*
X116569548Y-111528700D01*
X116339872Y-111574385D01*
X116079416Y-111748416D01*
X116035486Y-111814162D01*
X113147263Y-114702386D01*
X113091000Y-114739980D01*
X113091000Y-111166334D01*
X113206626Y-111050708D01*
X113332300Y-110747302D01*
X113332300Y-110418898D01*
X113247470Y-110214100D01*
X130965149Y-110214100D01*
X132657374Y-111906326D01*
X132695474Y-111998308D01*
X132927692Y-112230526D01*
X133231098Y-112356200D01*
X133559502Y-112356200D01*
X133862908Y-112230526D01*
X134095126Y-111998308D01*
X134220800Y-111694902D01*
X134220800Y-111366498D01*
X134095126Y-111063092D01*
X133862908Y-110830874D01*
X133770926Y-110792774D01*
X131902916Y-108924765D01*
X131858984Y-108859016D01*
X131598528Y-108684985D01*
X131368852Y-108639300D01*
X131368851Y-108639300D01*
X131291300Y-108623874D01*
X131213749Y-108639300D01*
X112071552Y-108639300D01*
X112403952Y-108306900D01*
X133093816Y-108306900D01*
X133185798Y-108345000D01*
X133514202Y-108345000D01*
X133817608Y-108219326D01*
X134049826Y-107987108D01*
X134175500Y-107683702D01*
X134175500Y-107355298D01*
X134049826Y-107051892D01*
X133817608Y-106819674D01*
X133514202Y-106694000D01*
X133185798Y-106694000D01*
X133093816Y-106732100D01*
X131438151Y-106732100D01*
X133770926Y-104399326D01*
X133862908Y-104361226D01*
X134095126Y-104129008D01*
X134220800Y-103825602D01*
X134220800Y-103497198D01*
X134095126Y-103193792D01*
X133862908Y-102961574D01*
X133791268Y-102931900D01*
X136814416Y-102931900D01*
X136906398Y-102970000D01*
X137234802Y-102970000D01*
X137538208Y-102844326D01*
X137770426Y-102612108D01*
X137896100Y-102308702D01*
X137896100Y-101980298D01*
X137770426Y-101676892D01*
X137538208Y-101444674D01*
X137234802Y-101319000D01*
X136906398Y-101319000D01*
X136814416Y-101357100D01*
X129773450Y-101357100D01*
X129695899Y-101341674D01*
X129618348Y-101357100D01*
X129388672Y-101402785D01*
X129128216Y-101576816D01*
X129084286Y-101642562D01*
X126304849Y-104422000D01*
X109498153Y-104422000D01*
X109420600Y-104406574D01*
X109113371Y-104467685D01*
X109004998Y-104540098D01*
X108852916Y-104641716D01*
X108808986Y-104707462D01*
X93600099Y-119916350D01*
X93345000Y-119865608D01*
X92899024Y-119954318D01*
X92520943Y-120206943D01*
X92268318Y-120585025D01*
X92202000Y-120918429D01*
X92202000Y-121651572D01*
X92268318Y-121984976D01*
X92520944Y-122363057D01*
X92899025Y-122615682D01*
X93345000Y-122704392D01*
X93790976Y-122615682D01*
X94169057Y-122363057D01*
X94421682Y-121984975D01*
X94488000Y-121651571D01*
X94488000Y-121255551D01*
X94742000Y-121001551D01*
X94742000Y-121651572D01*
X94808318Y-121984976D01*
X95060944Y-122363057D01*
X95439025Y-122615682D01*
X95885000Y-122704392D01*
X96330976Y-122615682D01*
X96709057Y-122363057D01*
X96961682Y-121984975D01*
X97028000Y-121651571D01*
X97028000Y-121255551D01*
X97282000Y-121001551D01*
X97282000Y-121651572D01*
X97348318Y-121984976D01*
X97600944Y-122363057D01*
X97979025Y-122615682D01*
X98425000Y-122704392D01*
X98870976Y-122615682D01*
X99249057Y-122363057D01*
X99501682Y-121984975D01*
X99568000Y-121651571D01*
X99568000Y-121142851D01*
X99829344Y-120881507D01*
X99822000Y-120918429D01*
X99822000Y-121651572D01*
X99888318Y-121984976D01*
X100140944Y-122363057D01*
X100519025Y-122615682D01*
X100965000Y-122704392D01*
X101410976Y-122615682D01*
X101789057Y-122363057D01*
X102041682Y-121984975D01*
X102108000Y-121651571D01*
X102108000Y-120918428D01*
X102041682Y-120585024D01*
X101898266Y-120370386D01*
X105356336Y-116912315D01*
X105274000Y-117326247D01*
X105274000Y-118893754D01*
X105441157Y-119734110D01*
X106077916Y-120687085D01*
X107030891Y-121323843D01*
X108155000Y-121547442D01*
X109279110Y-121323843D01*
X110232085Y-120687085D01*
X110868843Y-119734110D01*
X111036000Y-118893753D01*
X111036000Y-117326246D01*
X110868843Y-116485890D01*
X110232084Y-115532915D01*
X109279109Y-114896157D01*
X108155000Y-114672558D01*
X107457316Y-114811336D01*
X110862382Y-111406269D01*
X110933974Y-111579108D01*
X111049601Y-111694735D01*
X111049600Y-119426664D01*
X111038155Y-119484200D01*
X111049600Y-119541736D01*
X111083496Y-119712142D01*
X111212615Y-119905385D01*
X111261399Y-119937981D01*
X114575117Y-123251700D01*
X92964666Y-123251700D01*
X92867100Y-123232293D01*
X92769534Y-123251700D01*
X92480587Y-123309175D01*
X92152917Y-123528117D01*
X92097650Y-123610830D01*
X89799333Y-125909148D01*
X89716617Y-125964417D01*
X89497675Y-126292088D01*
X89478622Y-126387875D01*
X89420793Y-126678600D01*
X89440200Y-126776165D01*
X89440200Y-126910680D01*
X88138800Y-128212080D01*
X88138800Y-112181987D01*
X94163500Y-106157288D01*
X94163500Y-106171362D01*
X94209381Y-106282129D01*
X94232767Y-106399697D01*
X94299364Y-106499367D01*
X94345245Y-106610133D01*
X94430020Y-106694908D01*
X94496619Y-106794581D01*
X94596292Y-106861180D01*
X94681067Y-106945955D01*
X94791833Y-106991836D01*
X94891503Y-107058433D01*
X95009071Y-107081819D01*
X95119838Y-107127700D01*
X95239731Y-107127700D01*
X95357300Y-107151086D01*
X95474869Y-107127700D01*
X95594762Y-107127700D01*
X95705529Y-107081819D01*
X95823097Y-107058433D01*
X95922767Y-106991836D01*
X96033533Y-106945955D01*
X96369355Y-106610133D01*
X96369356Y-106610131D01*
X96503589Y-106475898D01*
X96572974Y-106643408D01*
X96805192Y-106875626D01*
X97108598Y-107001300D01*
X97437002Y-107001300D01*
X97528984Y-106963200D01*
X103829549Y-106963200D01*
X103907100Y-106978626D01*
X103984651Y-106963200D01*
X103984652Y-106963200D01*
X104214328Y-106917515D01*
X104474784Y-106743484D01*
X104518716Y-106677735D01*
X105754226Y-105442226D01*
X105846208Y-105404126D01*
X106078426Y-105171908D01*
X106204100Y-104868502D01*
X106204100Y-104540098D01*
X106078426Y-104236692D01*
X105846208Y-104004474D01*
X105542802Y-103878800D01*
X105214398Y-103878800D01*
X104910992Y-104004474D01*
X104678774Y-104236692D01*
X104640674Y-104328674D01*
X103580949Y-105388400D01*
X97591087Y-105388400D01*
X99116688Y-103862800D01*
X118315531Y-103862800D01*
X118433100Y-103886186D01*
X118550669Y-103862800D01*
X118550674Y-103862800D01*
X118898897Y-103793534D01*
X119293781Y-103529681D01*
X119360383Y-103430004D01*
X121754087Y-101036300D01*
X138943874Y-101036300D01*
X138959300Y-101113852D01*
X138959301Y-101960245D01*
X138943874Y-102037800D01*
X139004986Y-102345028D01*
X139179017Y-102605484D01*
X139244763Y-102649414D01*
X139880274Y-103284926D01*
X139918374Y-103376908D01*
X140150592Y-103609126D01*
X140453998Y-103734800D01*
X140782402Y-103734800D01*
X141085808Y-103609126D01*
X141318026Y-103376908D01*
X141443700Y-103073502D01*
X141443700Y-102745098D01*
X141337622Y-102489000D01*
X164973000Y-102489000D01*
X164973000Y-102743000D01*
X166243000Y-102743000D01*
X166243000Y-101384280D01*
X166497000Y-101384280D01*
X166497000Y-102743000D01*
X167767000Y-102743000D01*
X167767000Y-102489000D01*
X167612059Y-101964059D01*
X167268026Y-101538370D01*
X166787277Y-101276740D01*
X166713070Y-101261780D01*
X166497000Y-101384280D01*
X166243000Y-101384280D01*
X166026930Y-101261780D01*
X165952723Y-101276740D01*
X165471974Y-101538370D01*
X165127941Y-101964059D01*
X164973000Y-102489000D01*
X141337622Y-102489000D01*
X141318026Y-102441692D01*
X141202123Y-102325789D01*
X141263902Y-102300200D01*
X148838649Y-102300200D01*
X148916200Y-102315626D01*
X148993751Y-102300200D01*
X148993752Y-102300200D01*
X149223428Y-102254515D01*
X149483884Y-102080484D01*
X149527816Y-102014735D01*
X154632551Y-96910000D01*
X172742150Y-96910000D01*
X172888138Y-97643929D01*
X173303875Y-98266125D01*
X173926071Y-98681862D01*
X174474743Y-98791000D01*
X175845257Y-98791000D01*
X176393929Y-98681862D01*
X177016125Y-98266125D01*
X177431862Y-97643929D01*
X177486582Y-97368833D01*
X178074887Y-97368833D01*
X178138916Y-97609696D01*
X178560524Y-98329870D01*
X179225638Y-98833882D01*
X180033000Y-99045000D01*
X180533000Y-99045000D01*
X180533000Y-97037000D01*
X180787000Y-97037000D01*
X180787000Y-99045000D01*
X181287000Y-99045000D01*
X182094362Y-98833882D01*
X182759476Y-98329870D01*
X183181084Y-97609696D01*
X183245113Y-97368833D01*
X183132165Y-97037000D01*
X180787000Y-97037000D01*
X180533000Y-97037000D01*
X178187835Y-97037000D01*
X178074887Y-97368833D01*
X177486582Y-97368833D01*
X177577850Y-96910000D01*
X177431862Y-96176071D01*
X177016125Y-95553875D01*
X176393929Y-95138138D01*
X175845257Y-95029000D01*
X174474743Y-95029000D01*
X173926071Y-95138138D01*
X173303875Y-95553875D01*
X172888138Y-96176071D01*
X172742150Y-96910000D01*
X154632551Y-96910000D01*
X154669738Y-96872814D01*
X154735484Y-96828884D01*
X154909515Y-96568428D01*
X154955200Y-96338752D01*
X154955200Y-96338751D01*
X154970626Y-96261200D01*
X154955200Y-96183649D01*
X154955200Y-95811917D01*
X154983205Y-95793205D01*
X155233178Y-95419094D01*
X155298800Y-95089191D01*
X155298800Y-93866409D01*
X155233178Y-93536506D01*
X154983205Y-93162395D01*
X154609093Y-92912422D01*
X154167800Y-92824643D01*
X153785000Y-92900787D01*
X153785000Y-92837000D01*
X152527000Y-92837000D01*
X152527000Y-94429656D01*
X152741185Y-94552318D01*
X152812684Y-94538173D01*
X153036800Y-94416433D01*
X153036800Y-95089191D01*
X153102422Y-95419094D01*
X153352396Y-95793205D01*
X153380401Y-95811917D01*
X153380401Y-95935047D01*
X148590049Y-100725400D01*
X141171151Y-100725400D01*
X144720652Y-97175900D01*
X150554648Y-97175900D01*
X150632200Y-97191326D01*
X150709752Y-97175900D01*
X150939428Y-97130215D01*
X151199884Y-96956184D01*
X151373915Y-96695728D01*
X151435026Y-96388500D01*
X151419600Y-96310948D01*
X151419600Y-95811917D01*
X151447605Y-95793205D01*
X151697578Y-95419094D01*
X151763200Y-95089191D01*
X151763200Y-94416433D01*
X151987316Y-94538173D01*
X152058815Y-94552318D01*
X152273000Y-94429656D01*
X152273000Y-92837000D01*
X152253000Y-92837000D01*
X152253000Y-92710000D01*
X172742150Y-92710000D01*
X172888138Y-93443929D01*
X173303875Y-94066125D01*
X173926071Y-94481862D01*
X174474743Y-94591000D01*
X175845257Y-94591000D01*
X176393929Y-94481862D01*
X177016125Y-94066125D01*
X177431862Y-93443929D01*
X177486582Y-93168833D01*
X178074887Y-93168833D01*
X178138916Y-93409696D01*
X178560524Y-94129870D01*
X179225638Y-94633882D01*
X179899152Y-94810000D01*
X179225638Y-94986118D01*
X178560524Y-95490130D01*
X178138916Y-96210304D01*
X178074887Y-96451167D01*
X178187835Y-96783000D01*
X180533000Y-96783000D01*
X180533000Y-92837000D01*
X180787000Y-92837000D01*
X180787000Y-96783000D01*
X183132165Y-96783000D01*
X183245113Y-96451167D01*
X183241185Y-96436390D01*
X185579000Y-96436390D01*
X185579000Y-97383610D01*
X185941485Y-98258728D01*
X186611272Y-98928515D01*
X187486390Y-99291000D01*
X188433610Y-99291000D01*
X189308728Y-98928515D01*
X189978515Y-98258728D01*
X190341000Y-97383610D01*
X190341000Y-96436390D01*
X189978515Y-95561272D01*
X189308728Y-94891485D01*
X188433610Y-94529000D01*
X187486390Y-94529000D01*
X186611272Y-94891485D01*
X185941485Y-95561272D01*
X185579000Y-96436390D01*
X183241185Y-96436390D01*
X183181084Y-96210304D01*
X182759476Y-95490130D01*
X182094362Y-94986118D01*
X181420848Y-94810000D01*
X182094362Y-94633882D01*
X182759476Y-94129870D01*
X183181084Y-93409696D01*
X183245113Y-93168833D01*
X183132165Y-92837000D01*
X180787000Y-92837000D01*
X180533000Y-92837000D01*
X178187835Y-92837000D01*
X178074887Y-93168833D01*
X177486582Y-93168833D01*
X177577850Y-92710000D01*
X177431862Y-91976071D01*
X177016125Y-91353875D01*
X176393929Y-90938138D01*
X175845257Y-90829000D01*
X174474743Y-90829000D01*
X173926071Y-90938138D01*
X173303875Y-91353875D01*
X172888138Y-91976071D01*
X172742150Y-92710000D01*
X152253000Y-92710000D01*
X152253000Y-92583000D01*
X152273000Y-92583000D01*
X152273000Y-90990344D01*
X152527000Y-90990344D01*
X152527000Y-92583000D01*
X153785000Y-92583000D01*
X153785000Y-92519213D01*
X154167800Y-92595357D01*
X154609094Y-92507578D01*
X154983205Y-92257605D01*
X155233178Y-91883494D01*
X155298800Y-91553591D01*
X155298800Y-90330809D01*
X155233178Y-90000906D01*
X154983205Y-89626795D01*
X154609093Y-89376822D01*
X154167800Y-89289043D01*
X153726506Y-89376822D01*
X153352395Y-89626795D01*
X153102422Y-90000907D01*
X153036800Y-90330810D01*
X153036800Y-91003567D01*
X152812684Y-90881827D01*
X152741185Y-90867682D01*
X152527000Y-90990344D01*
X152273000Y-90990344D01*
X152058815Y-90867682D01*
X152017200Y-90875915D01*
X152017200Y-90315200D01*
X151863172Y-89794851D01*
X151521740Y-89373055D01*
X151044884Y-89114027D01*
X150973385Y-89099882D01*
X150759200Y-89222544D01*
X150759200Y-90815200D01*
X150779200Y-90815200D01*
X150779200Y-91069200D01*
X150759200Y-91069200D01*
X150759200Y-91089200D01*
X150505200Y-91089200D01*
X150505200Y-91069200D01*
X149247200Y-91069200D01*
X149247200Y-91569200D01*
X149401228Y-92089549D01*
X149742660Y-92511345D01*
X150219516Y-92770373D01*
X150291015Y-92784518D01*
X150505198Y-92661857D01*
X150505198Y-92827200D01*
X150619345Y-92827200D01*
X150190906Y-92912422D01*
X149816795Y-93162395D01*
X149566822Y-93536507D01*
X149501200Y-93866410D01*
X149501200Y-95089191D01*
X149566822Y-95419094D01*
X149688435Y-95601100D01*
X144472051Y-95601100D01*
X144394500Y-95585674D01*
X144316949Y-95601100D01*
X144316948Y-95601100D01*
X144087272Y-95646785D01*
X143826816Y-95820816D01*
X143782886Y-95886562D01*
X139244765Y-100424684D01*
X139179016Y-100468616D01*
X139004985Y-100729073D01*
X138970750Y-100901187D01*
X138943874Y-101036300D01*
X121754087Y-101036300D01*
X125566007Y-97224381D01*
X125665681Y-97157781D01*
X125929534Y-96762897D01*
X125998800Y-96414674D01*
X125998800Y-96414670D01*
X126022186Y-96297101D01*
X125998800Y-96179532D01*
X125998800Y-94012426D01*
X125986000Y-93948076D01*
X125986000Y-93713682D01*
X125917478Y-93369197D01*
X125687492Y-93025000D01*
X125904250Y-93025000D01*
X126063000Y-92866250D01*
X126063000Y-91417000D01*
X126317000Y-91417000D01*
X126317000Y-92866250D01*
X126475750Y-93025000D01*
X127116309Y-93025000D01*
X127349698Y-92928327D01*
X127528327Y-92749699D01*
X127625000Y-92516310D01*
X127625000Y-91926247D01*
X130261000Y-91926247D01*
X130261000Y-93493754D01*
X130428157Y-94334110D01*
X131064916Y-95287085D01*
X132017891Y-95923843D01*
X133142000Y-96147442D01*
X134266110Y-95923843D01*
X135219085Y-95287085D01*
X135855843Y-94334110D01*
X136023000Y-93493753D01*
X136023000Y-91926246D01*
X135855843Y-91085890D01*
X135219084Y-90132915D01*
X134266109Y-89496157D01*
X133142000Y-89272558D01*
X132017890Y-89496157D01*
X131064915Y-90132916D01*
X130428157Y-91085891D01*
X130261000Y-91926247D01*
X127625000Y-91926247D01*
X127625000Y-91575750D01*
X127466250Y-91417000D01*
X126317000Y-91417000D01*
X126063000Y-91417000D01*
X124913750Y-91417000D01*
X124755000Y-91575750D01*
X124755000Y-92516310D01*
X124800730Y-92626712D01*
X124344197Y-92717522D01*
X123953547Y-92978547D01*
X123692522Y-93369198D01*
X123624000Y-93713683D01*
X123624000Y-93948077D01*
X123611200Y-94012427D01*
X123611201Y-95802611D01*
X117938613Y-101475200D01*
X115783149Y-101475200D01*
X115799183Y-101451204D01*
X120026007Y-97224381D01*
X120125681Y-97157781D01*
X120291836Y-96909113D01*
X120389534Y-96762898D01*
X120482187Y-96297100D01*
X120458800Y-96179526D01*
X120458800Y-94257000D01*
X120600000Y-94257000D01*
X120600000Y-94557000D01*
X120757834Y-95096483D01*
X121110104Y-95534500D01*
X121603181Y-95804367D01*
X121685961Y-95821904D01*
X121908000Y-95699915D01*
X121908000Y-94257000D01*
X122162000Y-94257000D01*
X122162000Y-95699915D01*
X122384039Y-95821904D01*
X122466819Y-95804367D01*
X122959896Y-95534500D01*
X123312166Y-95096483D01*
X123470000Y-94557000D01*
X123470000Y-94257000D01*
X122162000Y-94257000D01*
X121908000Y-94257000D01*
X120600000Y-94257000D01*
X120458800Y-94257000D01*
X120458800Y-94012426D01*
X120446000Y-93948076D01*
X120446000Y-93713682D01*
X120443876Y-93703000D01*
X120600000Y-93703000D01*
X120600000Y-94003000D01*
X121908000Y-94003000D01*
X121908000Y-92560085D01*
X122162000Y-92560085D01*
X122162000Y-94003000D01*
X123470000Y-94003000D01*
X123470000Y-93703000D01*
X123312166Y-93163517D01*
X122959896Y-92725500D01*
X122466819Y-92455633D01*
X122384039Y-92438096D01*
X122162000Y-92560085D01*
X121908000Y-92560085D01*
X121751949Y-92474350D01*
X121927166Y-92256483D01*
X122085000Y-91717000D01*
X122085000Y-91417000D01*
X120777000Y-91417000D01*
X120777000Y-92859915D01*
X120933051Y-92945650D01*
X120757834Y-93163517D01*
X120600000Y-93703000D01*
X120443876Y-93703000D01*
X120377478Y-93369197D01*
X120116453Y-92978547D01*
X119725802Y-92717522D01*
X119265000Y-92625863D01*
X118804197Y-92717522D01*
X118413547Y-92978547D01*
X118152522Y-93369198D01*
X118084000Y-93713683D01*
X118084000Y-93948077D01*
X118071200Y-94012427D01*
X118071201Y-95802611D01*
X114377413Y-99496400D01*
X108593586Y-99496400D01*
X108762581Y-99383481D01*
X108829183Y-99283804D01*
X113855987Y-94257000D01*
X115060000Y-94257000D01*
X115060000Y-94557000D01*
X115217834Y-95096483D01*
X115570104Y-95534500D01*
X116063181Y-95804367D01*
X116145961Y-95821904D01*
X116368000Y-95699915D01*
X116368000Y-94257000D01*
X116622000Y-94257000D01*
X116622000Y-95699915D01*
X116844039Y-95821904D01*
X116926819Y-95804367D01*
X117419896Y-95534500D01*
X117772166Y-95096483D01*
X117930000Y-94557000D01*
X117930000Y-94257000D01*
X116622000Y-94257000D01*
X116368000Y-94257000D01*
X115060000Y-94257000D01*
X113855987Y-94257000D01*
X113993207Y-94119781D01*
X114092881Y-94053181D01*
X114188474Y-93910116D01*
X114326864Y-93703000D01*
X115060000Y-93703000D01*
X115060000Y-94003000D01*
X116368000Y-94003000D01*
X116368000Y-92560085D01*
X116622000Y-92560085D01*
X116622000Y-94003000D01*
X117930000Y-94003000D01*
X117930000Y-93703000D01*
X117772166Y-93163517D01*
X117419896Y-92725500D01*
X116926819Y-92455633D01*
X116844039Y-92438096D01*
X116622000Y-92560085D01*
X116368000Y-92560085D01*
X116211949Y-92474350D01*
X116387166Y-92256483D01*
X116545000Y-91717000D01*
X116545000Y-91417000D01*
X115237000Y-91417000D01*
X115237000Y-92859915D01*
X115393051Y-92945650D01*
X115217834Y-93163517D01*
X115060000Y-93703000D01*
X114326864Y-93703000D01*
X114356734Y-93658298D01*
X114449387Y-93192500D01*
X114426000Y-93074926D01*
X114426000Y-92826345D01*
X114678181Y-92964367D01*
X114760961Y-92981904D01*
X114983000Y-92859915D01*
X114983000Y-91417000D01*
X114963000Y-91417000D01*
X114963000Y-91163000D01*
X114983000Y-91163000D01*
X114983000Y-91143000D01*
X115237000Y-91143000D01*
X115237000Y-91163000D01*
X116545000Y-91163000D01*
X116545000Y-90863000D01*
X116387166Y-90323517D01*
X116381684Y-90316700D01*
X116686200Y-90316700D01*
X116686200Y-91407573D01*
X116699000Y-91471923D01*
X116699000Y-91706318D01*
X116767522Y-92050803D01*
X117028548Y-92441453D01*
X117419198Y-92702478D01*
X117880000Y-92794137D01*
X118340803Y-92702478D01*
X118731453Y-92441453D01*
X118992478Y-92050803D01*
X119061000Y-91706317D01*
X119061000Y-91471924D01*
X119071925Y-91417000D01*
X119215000Y-91417000D01*
X119215000Y-91717000D01*
X119372834Y-92256483D01*
X119725104Y-92694500D01*
X120218181Y-92964367D01*
X120300961Y-92981904D01*
X120523000Y-92859915D01*
X120523000Y-91417000D01*
X119215000Y-91417000D01*
X119071925Y-91417000D01*
X119073800Y-91407574D01*
X119073800Y-90863000D01*
X119215000Y-90863000D01*
X119215000Y-91163000D01*
X120523000Y-91163000D01*
X120523000Y-89720085D01*
X120777000Y-89720085D01*
X120777000Y-91163000D01*
X122085000Y-91163000D01*
X122085000Y-90863000D01*
X121927166Y-90323517D01*
X121574896Y-89885500D01*
X121081819Y-89615633D01*
X120999039Y-89598096D01*
X120777000Y-89720085D01*
X120523000Y-89720085D01*
X120300961Y-89598096D01*
X120218181Y-89615633D01*
X119725104Y-89885500D01*
X119372834Y-90323517D01*
X119215000Y-90863000D01*
X119073800Y-90863000D01*
X119073800Y-89240474D01*
X119097187Y-89122900D01*
X119004534Y-88657103D01*
X118740681Y-88262219D01*
X118345797Y-87998366D01*
X117997574Y-87929100D01*
X117880000Y-87905713D01*
X117762426Y-87929100D01*
X114429868Y-87929100D01*
X114312299Y-87905714D01*
X114194730Y-87929100D01*
X114194726Y-87929100D01*
X113846503Y-87998366D01*
X113451619Y-88262219D01*
X113385019Y-88361893D01*
X112471194Y-89275719D01*
X112371520Y-89342319D01*
X112304920Y-89441993D01*
X112304919Y-89441994D01*
X112107667Y-89737203D01*
X112015014Y-90203000D01*
X112038401Y-90320574D01*
X112038400Y-92698012D01*
X110984686Y-93751726D01*
X111036000Y-93493753D01*
X111036000Y-91926246D01*
X110868843Y-91085890D01*
X110232084Y-90132915D01*
X109279109Y-89496157D01*
X108155000Y-89272558D01*
X107030890Y-89496157D01*
X106077915Y-90132916D01*
X105441157Y-91085891D01*
X105274000Y-91926247D01*
X105274000Y-93493754D01*
X105441157Y-94334110D01*
X106077916Y-95287085D01*
X107030891Y-95923843D01*
X108155000Y-96147442D01*
X108696727Y-96039686D01*
X107407413Y-97329000D01*
X91511838Y-97329000D01*
X91401076Y-97374879D01*
X91283503Y-97398266D01*
X91183830Y-97464866D01*
X91073067Y-97510745D01*
X90988293Y-97595519D01*
X90888619Y-97662119D01*
X90822019Y-97761793D01*
X90737245Y-97846567D01*
X90691366Y-97957330D01*
X90624766Y-98057003D01*
X90601379Y-98174576D01*
X90555500Y-98285338D01*
X90555500Y-98405226D01*
X90532113Y-98522800D01*
X90555500Y-98640374D01*
X90555500Y-98760262D01*
X90601379Y-98871024D01*
X90624766Y-98988597D01*
X90691366Y-99088270D01*
X90737245Y-99199033D01*
X90822019Y-99283807D01*
X90888619Y-99383481D01*
X90988293Y-99450081D01*
X91073067Y-99534855D01*
X91183830Y-99580734D01*
X91283503Y-99647334D01*
X91401076Y-99670721D01*
X91511838Y-99716600D01*
X97250614Y-99716600D01*
X97081619Y-99829519D01*
X97015019Y-99929193D01*
X86183996Y-110760217D01*
X86084319Y-110826819D01*
X85820466Y-111221704D01*
X85751200Y-111569927D01*
X85751200Y-111569931D01*
X85727814Y-111687500D01*
X85751200Y-111805069D01*
X85751201Y-128189636D01*
X85751200Y-128189638D01*
X85751200Y-128664562D01*
X85797081Y-128775329D01*
X85820467Y-128892897D01*
X85887064Y-128992566D01*
X85932945Y-129103333D01*
X86017722Y-129188110D01*
X86084320Y-129287781D01*
X86183991Y-129354379D01*
X86268767Y-129439155D01*
X86379532Y-129485036D01*
X86479204Y-129551634D01*
X86596775Y-129575020D01*
X86707538Y-129620900D01*
X86729980Y-129620900D01*
X83585381Y-132765500D01*
X75027566Y-132765500D01*
X74930000Y-132746093D01*
X74832434Y-132765500D01*
X74543487Y-132822975D01*
X74215817Y-133041917D01*
X73996875Y-133369587D01*
X73919993Y-133756100D01*
X73939401Y-133853670D01*
X73939401Y-134675120D01*
X73697797Y-135036706D01*
X73660000Y-135226724D01*
X73622203Y-135036705D01*
X73333087Y-134604013D01*
X72900394Y-134314897D01*
X72390000Y-134213373D01*
X71879605Y-134314897D01*
X71446913Y-134604013D01*
X71157797Y-135036706D01*
X71081900Y-135418266D01*
X71081900Y-136361735D01*
X71157797Y-136743295D01*
X71446914Y-137175987D01*
X71879606Y-137465103D01*
X72390000Y-137566627D01*
X72900395Y-137465103D01*
X73333087Y-137175987D01*
X73622203Y-136743295D01*
X73660000Y-136553276D01*
X73697797Y-136743295D01*
X73986914Y-137175987D01*
X74419606Y-137465103D01*
X74930000Y-137566627D01*
X75440395Y-137465103D01*
X75873087Y-137175987D01*
X76162203Y-136743295D01*
X76200000Y-136553276D01*
X76237797Y-136743295D01*
X76526914Y-137175987D01*
X76959606Y-137465103D01*
X77470000Y-137566627D01*
X77980395Y-137465103D01*
X78413087Y-137175987D01*
X78702203Y-136743295D01*
X78740000Y-136553276D01*
X78777797Y-136743295D01*
X79066914Y-137175987D01*
X79499606Y-137465103D01*
X80010000Y-137566627D01*
X80520395Y-137465103D01*
X80953087Y-137175987D01*
X81242203Y-136743295D01*
X81280000Y-136553276D01*
X81317797Y-136743295D01*
X81606914Y-137175987D01*
X82039606Y-137465103D01*
X82550000Y-137566627D01*
X83060395Y-137465103D01*
X83493087Y-137175987D01*
X83782203Y-136743295D01*
X83820000Y-136553276D01*
X83857797Y-136743295D01*
X84146914Y-137175987D01*
X84579606Y-137465103D01*
X85090000Y-137566627D01*
X85600395Y-137465103D01*
X86033087Y-137175987D01*
X86322203Y-136743295D01*
X86360000Y-136553276D01*
X86397797Y-136743295D01*
X86686914Y-137175987D01*
X87119606Y-137465103D01*
X87630000Y-137566627D01*
X88140395Y-137465103D01*
X88519267Y-137211949D01*
X89927816Y-138620500D01*
X70294500Y-138620500D01*
X70294500Y-130380548D01*
X71501000Y-130380548D01*
X71501000Y-131239452D01*
X71829688Y-132032975D01*
X72437025Y-132640312D01*
X73230548Y-132969000D01*
X74089452Y-132969000D01*
X74882975Y-132640312D01*
X75490312Y-132032975D01*
X75819000Y-131239452D01*
X75819000Y-130380548D01*
X75490312Y-129587025D01*
X74882975Y-128979688D01*
X74089452Y-128651000D01*
X73230548Y-128651000D01*
X72437025Y-128979688D01*
X71829688Y-129587025D01*
X71501000Y-130380548D01*
X70294500Y-130380548D01*
X70294500Y-86513475D01*
X70352831Y-86552450D01*
X75060100Y-91259720D01*
X75060101Y-106920372D01*
X75052900Y-106937757D01*
X75052900Y-107037234D01*
X75033493Y-107134800D01*
X75052900Y-107232366D01*
X75052900Y-107331843D01*
X75090968Y-107423747D01*
X75110375Y-107521313D01*
X75165642Y-107604026D01*
X75203710Y-107695930D01*
X75274050Y-107766270D01*
X75329317Y-107848983D01*
X75412030Y-107904250D01*
X75482370Y-107974590D01*
X75494662Y-107979682D01*
X75834700Y-108319720D01*
X75834701Y-127311655D01*
X75834700Y-127311657D01*
X75834700Y-127705743D01*
X75872770Y-127797652D01*
X75892176Y-127895213D01*
X75947440Y-127977922D01*
X75985510Y-128069830D01*
X76055853Y-128140173D01*
X76111118Y-128222883D01*
X76193828Y-128278148D01*
X76264170Y-128348490D01*
X76356077Y-128386559D01*
X76438788Y-128441825D01*
X76536352Y-128461232D01*
X76628257Y-128499300D01*
X76727734Y-128499300D01*
X76825300Y-128518707D01*
X76922866Y-128499300D01*
X77022343Y-128499300D01*
X77114247Y-128461232D01*
X77211813Y-128441825D01*
X77294526Y-128386558D01*
X77386430Y-128348490D01*
X77456770Y-128278150D01*
X77539483Y-128222883D01*
X77594750Y-128140170D01*
X77665090Y-128069830D01*
X77703158Y-127977926D01*
X77758425Y-127895213D01*
X77777832Y-127797647D01*
X77815900Y-127705743D01*
X77815900Y-108006966D01*
X77835307Y-107909400D01*
X77758425Y-107522887D01*
X77756162Y-107519500D01*
X77539483Y-107195217D01*
X77456770Y-107139950D01*
X77041300Y-106724481D01*
X77041300Y-90739466D01*
X77060707Y-90641900D01*
X77041300Y-90544334D01*
X77041300Y-90444857D01*
X77003232Y-90352953D01*
X76983825Y-90255387D01*
X76928558Y-90172674D01*
X76890490Y-90080770D01*
X76820149Y-90010429D01*
X76764883Y-89927717D01*
X76682170Y-89872450D01*
X76611830Y-89802110D01*
X76519926Y-89764042D01*
X76437213Y-89708775D01*
X76339647Y-89689368D01*
X76257605Y-89655385D01*
X73281119Y-86678900D01*
X89698401Y-86678900D01*
X89698400Y-88867049D01*
X89682974Y-88944600D01*
X89698400Y-89022151D01*
X89744085Y-89251827D01*
X89918116Y-89512284D01*
X89983865Y-89556216D01*
X90330200Y-89902551D01*
X90117692Y-89990574D01*
X89885474Y-90222792D01*
X89759800Y-90526198D01*
X89759800Y-90854602D01*
X89885474Y-91158008D01*
X90117692Y-91390226D01*
X90209676Y-91428327D01*
X95580786Y-96799438D01*
X95624716Y-96865184D01*
X95885172Y-97039215D01*
X96114848Y-97084900D01*
X96114849Y-97084900D01*
X96192400Y-97100326D01*
X96269951Y-97084900D01*
X102445216Y-97084900D01*
X102537198Y-97123000D01*
X102865602Y-97123000D01*
X103169008Y-96997326D01*
X103401226Y-96765108D01*
X103526900Y-96461702D01*
X103526900Y-96133298D01*
X103401226Y-95829892D01*
X103169008Y-95597674D01*
X102865602Y-95472000D01*
X102537198Y-95472000D01*
X102445216Y-95510100D01*
X96518552Y-95510100D01*
X96368652Y-95360200D01*
X102827316Y-95360200D01*
X102919298Y-95398300D01*
X103247702Y-95398300D01*
X103551108Y-95272626D01*
X103783326Y-95040408D01*
X103909000Y-94737002D01*
X103909000Y-94408598D01*
X103783326Y-94105192D01*
X103551108Y-93872974D01*
X103247702Y-93747300D01*
X102919298Y-93747300D01*
X102827316Y-93785400D01*
X96440152Y-93785400D01*
X93565319Y-90910568D01*
X93790976Y-90865682D01*
X94169057Y-90613057D01*
X94363267Y-90322400D01*
X94866733Y-90322400D01*
X95060944Y-90613057D01*
X95439025Y-90865682D01*
X95885000Y-90954392D01*
X96330976Y-90865682D01*
X96709057Y-90613057D01*
X96903267Y-90322400D01*
X97406733Y-90322400D01*
X97600944Y-90613057D01*
X97979025Y-90865682D01*
X98425000Y-90954392D01*
X98870976Y-90865682D01*
X99249057Y-90613057D01*
X99443267Y-90322400D01*
X99946733Y-90322400D01*
X100140944Y-90613057D01*
X100519025Y-90865682D01*
X100965000Y-90954392D01*
X101410976Y-90865682D01*
X101789057Y-90613057D01*
X101983267Y-90322400D01*
X104760516Y-90322400D01*
X104852498Y-90360500D01*
X105180902Y-90360500D01*
X105484308Y-90234826D01*
X105716526Y-90002608D01*
X105842200Y-89699202D01*
X105842200Y-89370798D01*
X105716526Y-89067392D01*
X105484308Y-88835174D01*
X105180902Y-88709500D01*
X104852498Y-88709500D01*
X104760516Y-88747600D01*
X101983267Y-88747600D01*
X101789057Y-88456943D01*
X101410975Y-88204318D01*
X100965000Y-88115608D01*
X100519024Y-88204318D01*
X100140943Y-88456943D01*
X99946733Y-88747600D01*
X99443267Y-88747600D01*
X99249057Y-88456943D01*
X98870975Y-88204318D01*
X98425000Y-88115608D01*
X97979024Y-88204318D01*
X97600943Y-88456943D01*
X97406733Y-88747600D01*
X96903267Y-88747600D01*
X96709057Y-88456943D01*
X96330975Y-88204318D01*
X95885000Y-88115608D01*
X95439024Y-88204318D01*
X95060943Y-88456943D01*
X94866733Y-88747600D01*
X94363267Y-88747600D01*
X94169057Y-88456943D01*
X93790975Y-88204318D01*
X93345000Y-88115608D01*
X92899024Y-88204318D01*
X92520943Y-88456943D01*
X92268318Y-88835025D01*
X92202000Y-89168429D01*
X92202000Y-89547249D01*
X91273200Y-88618449D01*
X91273200Y-87509388D01*
X91310667Y-87546855D01*
X91416987Y-87590894D01*
X91524503Y-87662734D01*
X91651326Y-87687961D01*
X91749438Y-87728600D01*
X91855633Y-87728600D01*
X91872726Y-87732000D01*
X91872730Y-87732000D01*
X91990299Y-87755386D01*
X92107868Y-87732000D01*
X120340813Y-87732000D01*
X122226201Y-89617389D01*
X122226200Y-91407573D01*
X122239000Y-91471923D01*
X122239000Y-91706318D01*
X122307522Y-92050803D01*
X122568548Y-92441453D01*
X122959198Y-92702478D01*
X123420000Y-92794137D01*
X123880803Y-92702478D01*
X124271453Y-92441453D01*
X124532478Y-92050803D01*
X124601000Y-91706317D01*
X124601000Y-91471924D01*
X124613800Y-91407574D01*
X124613800Y-90063690D01*
X124755000Y-90063690D01*
X124755000Y-91004250D01*
X124913750Y-91163000D01*
X126063000Y-91163000D01*
X126063000Y-89713750D01*
X126317000Y-89713750D01*
X126317000Y-91163000D01*
X127466250Y-91163000D01*
X127625000Y-91004250D01*
X127625000Y-90063690D01*
X127528327Y-89830301D01*
X127349698Y-89651673D01*
X127116309Y-89555000D01*
X126475750Y-89555000D01*
X126317000Y-89713750D01*
X126063000Y-89713750D01*
X125904250Y-89555000D01*
X125263691Y-89555000D01*
X125030302Y-89651673D01*
X124851673Y-89830301D01*
X124755000Y-90063690D01*
X124613800Y-90063690D01*
X124613800Y-89240469D01*
X124628129Y-89168429D01*
X140462000Y-89168429D01*
X140462000Y-89901572D01*
X140528318Y-90234976D01*
X140780944Y-90613057D01*
X141159025Y-90865682D01*
X141605000Y-90954392D01*
X142050976Y-90865682D01*
X142429057Y-90613057D01*
X142628077Y-90315200D01*
X149247200Y-90315200D01*
X149247200Y-90815200D01*
X150505200Y-90815200D01*
X150505200Y-89222544D01*
X150291015Y-89099882D01*
X150219516Y-89114027D01*
X149742660Y-89373055D01*
X149401228Y-89794851D01*
X149247200Y-90315200D01*
X142628077Y-90315200D01*
X142681682Y-90234975D01*
X142748000Y-89901571D01*
X142748000Y-89168428D01*
X142681682Y-88835024D01*
X142464509Y-88510000D01*
X172742150Y-88510000D01*
X172888138Y-89243929D01*
X173303875Y-89866125D01*
X173926071Y-90281862D01*
X174474743Y-90391000D01*
X175845257Y-90391000D01*
X176393929Y-90281862D01*
X177016125Y-89866125D01*
X177431862Y-89243929D01*
X177521010Y-88795750D01*
X178025000Y-88795750D01*
X178025000Y-90136309D01*
X178121673Y-90369698D01*
X178300301Y-90548327D01*
X178533690Y-90645000D01*
X179765304Y-90645000D01*
X179225638Y-90786118D01*
X178560524Y-91290130D01*
X178138916Y-92010304D01*
X178074887Y-92251167D01*
X178187835Y-92583000D01*
X180533000Y-92583000D01*
X180533000Y-90575000D01*
X180444250Y-90575000D01*
X180533000Y-90486250D01*
X180533000Y-88637000D01*
X180787000Y-88637000D01*
X180787000Y-90486250D01*
X180875750Y-90575000D01*
X180787000Y-90575000D01*
X180787000Y-92583000D01*
X183132165Y-92583000D01*
X183245113Y-92251167D01*
X183181084Y-92010304D01*
X182759476Y-91290130D01*
X182094362Y-90786118D01*
X181554696Y-90645000D01*
X182786310Y-90645000D01*
X183019699Y-90548327D01*
X183198327Y-90369698D01*
X183295000Y-90136309D01*
X183295000Y-88795750D01*
X183136250Y-88637000D01*
X180787000Y-88637000D01*
X180533000Y-88637000D01*
X178183750Y-88637000D01*
X178025000Y-88795750D01*
X177521010Y-88795750D01*
X177577850Y-88510000D01*
X177431862Y-87776071D01*
X177016125Y-87153875D01*
X176611766Y-86883691D01*
X178025000Y-86883691D01*
X178025000Y-88224250D01*
X178183750Y-88383000D01*
X180533000Y-88383000D01*
X180533000Y-86533750D01*
X180787000Y-86533750D01*
X180787000Y-88383000D01*
X183136250Y-88383000D01*
X183295000Y-88224250D01*
X183295000Y-88036390D01*
X185579000Y-88036390D01*
X185579000Y-88983610D01*
X185941485Y-89858728D01*
X186611272Y-90528515D01*
X187486390Y-90891000D01*
X188433610Y-90891000D01*
X189308728Y-90528515D01*
X189978515Y-89858728D01*
X190341000Y-88983610D01*
X190341000Y-88036390D01*
X189978515Y-87161272D01*
X189308728Y-86491485D01*
X188433610Y-86129000D01*
X187486390Y-86129000D01*
X186611272Y-86491485D01*
X185941485Y-87161272D01*
X185579000Y-88036390D01*
X183295000Y-88036390D01*
X183295000Y-86883691D01*
X183198327Y-86650302D01*
X183019699Y-86471673D01*
X182786310Y-86375000D01*
X180945750Y-86375000D01*
X180787000Y-86533750D01*
X180533000Y-86533750D01*
X180374250Y-86375000D01*
X178533690Y-86375000D01*
X178300301Y-86471673D01*
X178121673Y-86650302D01*
X178025000Y-86883691D01*
X176611766Y-86883691D01*
X176393929Y-86738138D01*
X175845257Y-86629000D01*
X174474743Y-86629000D01*
X173926071Y-86738138D01*
X173303875Y-87153875D01*
X172888138Y-87776071D01*
X172742150Y-88510000D01*
X142464509Y-88510000D01*
X142429057Y-88456943D01*
X142050975Y-88204318D01*
X141605000Y-88115608D01*
X141159024Y-88204318D01*
X140780943Y-88456943D01*
X140528318Y-88835025D01*
X140462000Y-89168429D01*
X124628129Y-89168429D01*
X124637186Y-89122900D01*
X124613800Y-89005331D01*
X124613800Y-89005326D01*
X124544534Y-88657103D01*
X124280681Y-88262219D01*
X124181007Y-88195619D01*
X121762583Y-85777196D01*
X121695981Y-85677519D01*
X121301097Y-85413666D01*
X120952874Y-85344400D01*
X120952869Y-85344400D01*
X120835300Y-85321014D01*
X120717731Y-85344400D01*
X101915113Y-85344400D01*
X102041682Y-85154975D01*
X102108000Y-84821571D01*
X102108000Y-84088429D01*
X140462000Y-84088429D01*
X140462000Y-84821572D01*
X140528318Y-85154976D01*
X140780944Y-85533057D01*
X141159025Y-85785682D01*
X141605000Y-85874392D01*
X142050976Y-85785682D01*
X142429057Y-85533057D01*
X142560828Y-85335846D01*
X150519000Y-85335846D01*
X150519000Y-86084154D01*
X150805365Y-86775501D01*
X151334499Y-87304635D01*
X152025846Y-87591000D01*
X152774154Y-87591000D01*
X153465501Y-87304635D01*
X153994635Y-86775501D01*
X154281000Y-86084154D01*
X154281000Y-85335846D01*
X153994635Y-84644499D01*
X153465501Y-84115365D01*
X152774154Y-83829000D01*
X152025846Y-83829000D01*
X151334499Y-84115365D01*
X150805365Y-84644499D01*
X150519000Y-85335846D01*
X142560828Y-85335846D01*
X142681682Y-85154975D01*
X142748000Y-84821571D01*
X142748000Y-84088428D01*
X142681682Y-83755024D01*
X142429057Y-83376943D01*
X142050975Y-83124318D01*
X141605000Y-83035608D01*
X141159024Y-83124318D01*
X140780943Y-83376943D01*
X140528318Y-83755025D01*
X140462000Y-84088429D01*
X102108000Y-84088429D01*
X102108000Y-84088428D01*
X102041682Y-83755024D01*
X101789057Y-83376943D01*
X101410975Y-83124318D01*
X100965000Y-83035608D01*
X100519024Y-83124318D01*
X100140943Y-83376943D01*
X99888318Y-83755025D01*
X99822000Y-84088429D01*
X99822000Y-84821572D01*
X99888318Y-85154976D01*
X100014887Y-85344400D01*
X99375113Y-85344400D01*
X99501682Y-85154975D01*
X99568000Y-84821571D01*
X99568000Y-84088428D01*
X99501682Y-83755024D01*
X99249057Y-83376943D01*
X98870975Y-83124318D01*
X98425000Y-83035608D01*
X97979024Y-83124318D01*
X97600943Y-83376943D01*
X97348318Y-83755025D01*
X97282000Y-84088429D01*
X97282000Y-84821572D01*
X97348318Y-85154976D01*
X97474887Y-85344400D01*
X96835113Y-85344400D01*
X96961682Y-85154975D01*
X97028000Y-84821571D01*
X97028000Y-84088428D01*
X96961682Y-83755024D01*
X96709057Y-83376943D01*
X96330975Y-83124318D01*
X95885000Y-83035608D01*
X95439024Y-83124318D01*
X95060943Y-83376943D01*
X94808318Y-83755025D01*
X94742000Y-84088429D01*
X94742000Y-84821572D01*
X94808318Y-85154976D01*
X94934887Y-85344400D01*
X94295113Y-85344400D01*
X94421682Y-85154975D01*
X94488000Y-84821571D01*
X94488000Y-84088428D01*
X94421682Y-83755024D01*
X94169057Y-83376943D01*
X93790975Y-83124318D01*
X93345000Y-83035608D01*
X92899024Y-83124318D01*
X92520943Y-83376943D01*
X92326733Y-83667600D01*
X91999851Y-83667600D01*
X91922300Y-83652174D01*
X91844749Y-83667600D01*
X91844748Y-83667600D01*
X91615072Y-83713285D01*
X91354616Y-83887316D01*
X91310686Y-83953062D01*
X90159649Y-85104100D01*
X73219384Y-85104100D01*
X73127402Y-85066000D01*
X72798998Y-85066000D01*
X72495592Y-85191674D01*
X72263374Y-85423892D01*
X72193882Y-85591663D01*
X71974900Y-85372681D01*
X71974900Y-81378187D01*
X72437025Y-81840312D01*
X73230548Y-82169000D01*
X74089452Y-82169000D01*
X74882975Y-81840312D01*
X75490312Y-81232975D01*
X75819000Y-80439452D01*
X75819000Y-79580548D01*
X75490312Y-78787025D01*
X74882975Y-78179688D01*
X74089452Y-77851000D01*
X73230548Y-77851000D01*
X72843499Y-78011321D01*
X73021470Y-77833350D01*
X73104183Y-77778083D01*
X73323125Y-77450413D01*
X73380600Y-77161466D01*
X73400007Y-77063901D01*
X73380600Y-76966336D01*
X73380600Y-76575833D01*
X73465759Y-76558894D01*
X73591786Y-76474686D01*
X73675994Y-76348659D01*
X73705564Y-76200000D01*
X73705564Y-75794919D01*
X73986914Y-76215987D01*
X74419606Y-76505103D01*
X74930000Y-76606627D01*
X75440395Y-76505103D01*
X75873087Y-76215987D01*
X76162203Y-75783295D01*
X76200000Y-75593276D01*
X76237797Y-75783295D01*
X76526914Y-76215987D01*
X76959606Y-76505103D01*
X77470000Y-76606627D01*
X77980395Y-76505103D01*
X78413087Y-76215987D01*
X78702203Y-75783295D01*
X78740000Y-75593276D01*
X78777797Y-75783295D01*
X79066914Y-76215987D01*
X79499606Y-76505103D01*
X80010000Y-76606627D01*
X80520395Y-76505103D01*
X80953087Y-76215987D01*
X81242203Y-75783295D01*
X81280000Y-75593276D01*
X81317797Y-75783295D01*
X81606914Y-76215987D01*
X82039606Y-76505103D01*
X82550000Y-76606627D01*
X83060395Y-76505103D01*
X83493087Y-76215987D01*
X83782203Y-75783295D01*
X83820000Y-75593276D01*
X83857797Y-75783295D01*
X84146914Y-76215987D01*
X84579606Y-76505103D01*
X85090000Y-76606627D01*
X85600395Y-76505103D01*
X86033087Y-76215987D01*
X86322203Y-75783295D01*
X86360000Y-75593276D01*
X86397797Y-75783295D01*
X86686914Y-76215987D01*
X87119606Y-76505103D01*
X87630000Y-76606627D01*
X88140395Y-76505103D01*
X88573087Y-76215987D01*
X88862203Y-75783295D01*
X88900000Y-75593276D01*
X88937797Y-75783295D01*
X89226914Y-76215987D01*
X89659606Y-76505103D01*
X90170000Y-76606627D01*
X90680395Y-76505103D01*
X91113087Y-76215987D01*
X91402203Y-75783295D01*
X91440000Y-75593276D01*
X91477797Y-75783295D01*
X91766914Y-76215987D01*
X92199606Y-76505103D01*
X92710000Y-76606627D01*
X93220395Y-76505103D01*
X93653087Y-76215987D01*
X93942203Y-75783295D01*
X93980000Y-75593276D01*
X94017797Y-75783295D01*
X94306914Y-76215987D01*
X94739606Y-76505103D01*
X95250000Y-76606627D01*
X95760395Y-76505103D01*
X96193087Y-76215987D01*
X96482203Y-75783295D01*
X96520000Y-75593276D01*
X96557797Y-75783295D01*
X96846914Y-76215987D01*
X97279606Y-76505103D01*
X97790000Y-76606627D01*
X98300395Y-76505103D01*
X98733087Y-76215987D01*
X99022203Y-75783295D01*
X99060000Y-75593276D01*
X99097797Y-75783295D01*
X99386914Y-76215987D01*
X99819606Y-76505103D01*
X100330000Y-76606627D01*
X100840395Y-76505103D01*
X101273087Y-76215987D01*
X101562203Y-75783295D01*
X101600000Y-75593276D01*
X101637797Y-75783295D01*
X101926914Y-76215987D01*
X102359606Y-76505103D01*
X102870000Y-76606627D01*
X103380395Y-76505103D01*
X103813087Y-76215987D01*
X104102203Y-75783295D01*
X104140000Y-75593276D01*
X104177797Y-75783295D01*
X104466914Y-76215987D01*
X104899606Y-76505103D01*
X105410000Y-76606627D01*
X105920395Y-76505103D01*
X106353087Y-76215987D01*
X106642203Y-75783295D01*
X106680000Y-75593276D01*
X106717797Y-75783295D01*
X107006914Y-76215987D01*
X107439606Y-76505103D01*
X107950000Y-76606627D01*
X108460395Y-76505103D01*
X108893087Y-76215987D01*
X109182203Y-75783295D01*
X109220000Y-75593276D01*
X109257797Y-75783295D01*
X109546914Y-76215987D01*
X109979606Y-76505103D01*
X110490000Y-76606627D01*
X111000395Y-76505103D01*
X111433087Y-76215987D01*
X111722203Y-75783295D01*
X111760000Y-75593276D01*
X111797797Y-75783295D01*
X112086914Y-76215987D01*
X112519606Y-76505103D01*
X113030000Y-76606627D01*
X113540395Y-76505103D01*
X113973087Y-76215987D01*
X114262203Y-75783295D01*
X114300000Y-75593276D01*
X114337797Y-75783295D01*
X114626914Y-76215987D01*
X115059606Y-76505103D01*
X115570000Y-76606627D01*
X116080395Y-76505103D01*
X116513087Y-76215987D01*
X116802203Y-75783295D01*
X116840000Y-75593276D01*
X116877797Y-75783295D01*
X117166914Y-76215987D01*
X117599606Y-76505103D01*
X118110000Y-76606627D01*
X118620395Y-76505103D01*
X119053087Y-76215987D01*
X119342203Y-75783295D01*
X119380000Y-75593276D01*
X119417797Y-75783295D01*
X119706914Y-76215987D01*
X120139606Y-76505103D01*
X120650000Y-76606627D01*
X121160395Y-76505103D01*
X121593087Y-76215987D01*
X121882203Y-75783295D01*
X121920000Y-75593276D01*
X121957797Y-75783295D01*
X122246914Y-76215987D01*
X122679606Y-76505103D01*
X123190000Y-76606627D01*
X123700395Y-76505103D01*
X124133087Y-76215987D01*
X124422203Y-75783295D01*
X124460000Y-75593276D01*
X124497797Y-75783295D01*
X124786914Y-76215987D01*
X125219606Y-76505103D01*
X125730000Y-76606627D01*
X126240395Y-76505103D01*
X126673087Y-76215987D01*
X126962203Y-75783295D01*
X127000000Y-75593276D01*
X127037797Y-75783295D01*
X127326914Y-76215987D01*
X127759606Y-76505103D01*
X128270000Y-76606627D01*
X128780395Y-76505103D01*
X129213087Y-76215987D01*
X129502203Y-75783295D01*
X129540000Y-75593276D01*
X129577797Y-75783295D01*
X129866914Y-76215987D01*
X130299606Y-76505103D01*
X130810000Y-76606627D01*
X131320395Y-76505103D01*
X131753087Y-76215987D01*
X132042203Y-75783295D01*
X132080000Y-75593276D01*
X132117797Y-75783295D01*
X132406914Y-76215987D01*
X132839606Y-76505103D01*
X133350000Y-76606627D01*
X133860395Y-76505103D01*
X134293087Y-76215987D01*
X134582203Y-75783295D01*
X134658100Y-75401734D01*
X134658100Y-74500548D01*
X162941000Y-74500548D01*
X162941000Y-75359452D01*
X163269688Y-76152975D01*
X163877025Y-76760312D01*
X164670548Y-77089000D01*
X165529452Y-77089000D01*
X166322975Y-76760312D01*
X166930312Y-76152975D01*
X167259000Y-75359452D01*
X167259000Y-74500548D01*
X166930312Y-73707025D01*
X166322975Y-73099688D01*
X165529452Y-72771000D01*
X164670548Y-72771000D01*
X163877025Y-73099688D01*
X163269688Y-73707025D01*
X162941000Y-74500548D01*
X134658100Y-74500548D01*
X134658100Y-74458265D01*
X134582203Y-74076705D01*
X134293087Y-73644013D01*
X133860394Y-73354897D01*
X133350000Y-73253373D01*
X132839605Y-73354897D01*
X132406913Y-73644013D01*
X132117797Y-74076706D01*
X132080000Y-74266724D01*
X132042203Y-74076705D01*
X131753087Y-73644013D01*
X131320394Y-73354897D01*
X130810000Y-73253373D01*
X130299605Y-73354897D01*
X129866913Y-73644013D01*
X129577797Y-74076706D01*
X129540000Y-74266724D01*
X129502203Y-74076705D01*
X129213087Y-73644013D01*
X128780394Y-73354897D01*
X128270000Y-73253373D01*
X127759605Y-73354897D01*
X127326913Y-73644013D01*
X127037797Y-74076706D01*
X127000000Y-74266724D01*
X126962203Y-74076705D01*
X126673087Y-73644013D01*
X126240394Y-73354897D01*
X125730000Y-73253373D01*
X125219605Y-73354897D01*
X124786913Y-73644013D01*
X124497797Y-74076706D01*
X124460000Y-74266724D01*
X124422203Y-74076705D01*
X124133087Y-73644013D01*
X123700394Y-73354897D01*
X123190000Y-73253373D01*
X122679605Y-73354897D01*
X122246913Y-73644013D01*
X121957797Y-74076706D01*
X121920000Y-74266724D01*
X121882203Y-74076705D01*
X121593087Y-73644013D01*
X121160394Y-73354897D01*
X120650000Y-73253373D01*
X120139605Y-73354897D01*
X119706913Y-73644013D01*
X119417797Y-74076706D01*
X119380000Y-74266724D01*
X119342203Y-74076705D01*
X119053087Y-73644013D01*
X118620394Y-73354897D01*
X118110000Y-73253373D01*
X117599605Y-73354897D01*
X117166913Y-73644013D01*
X116877797Y-74076706D01*
X116840000Y-74266724D01*
X116802203Y-74076705D01*
X116513087Y-73644013D01*
X116080394Y-73354897D01*
X115570000Y-73253373D01*
X115059605Y-73354897D01*
X114626913Y-73644013D01*
X114337797Y-74076706D01*
X114300000Y-74266724D01*
X114262203Y-74076705D01*
X113973087Y-73644013D01*
X113540394Y-73354897D01*
X113030000Y-73253373D01*
X112519605Y-73354897D01*
X112086913Y-73644013D01*
X111797797Y-74076706D01*
X111760000Y-74266724D01*
X111722203Y-74076705D01*
X111433087Y-73644013D01*
X111000394Y-73354897D01*
X110490000Y-73253373D01*
X109979605Y-73354897D01*
X109546913Y-73644013D01*
X109257797Y-74076706D01*
X109220000Y-74266724D01*
X109182203Y-74076705D01*
X108893087Y-73644013D01*
X108460394Y-73354897D01*
X107950000Y-73253373D01*
X107439605Y-73354897D01*
X107006913Y-73644013D01*
X106717797Y-74076706D01*
X106680000Y-74266724D01*
X106642203Y-74076705D01*
X106353087Y-73644013D01*
X105920394Y-73354897D01*
X105410000Y-73253373D01*
X104899605Y-73354897D01*
X104466913Y-73644013D01*
X104177797Y-74076706D01*
X104140000Y-74266724D01*
X104102203Y-74076705D01*
X103813087Y-73644013D01*
X103380394Y-73354897D01*
X102870000Y-73253373D01*
X102359605Y-73354897D01*
X101926913Y-73644013D01*
X101637797Y-74076706D01*
X101600000Y-74266724D01*
X101562203Y-74076705D01*
X101273087Y-73644013D01*
X100840394Y-73354897D01*
X100330000Y-73253373D01*
X99819605Y-73354897D01*
X99386913Y-73644013D01*
X99097797Y-74076706D01*
X99060000Y-74266724D01*
X99022203Y-74076705D01*
X98733087Y-73644013D01*
X98300394Y-73354897D01*
X97790000Y-73253373D01*
X97279605Y-73354897D01*
X96846913Y-73644013D01*
X96557797Y-74076706D01*
X96520000Y-74266724D01*
X96482203Y-74076705D01*
X96193087Y-73644013D01*
X95760394Y-73354897D01*
X95250000Y-73253373D01*
X94739605Y-73354897D01*
X94306913Y-73644013D01*
X94017797Y-74076706D01*
X93980000Y-74266724D01*
X93942203Y-74076705D01*
X93653087Y-73644013D01*
X93220394Y-73354897D01*
X92710000Y-73253373D01*
X92199605Y-73354897D01*
X91766913Y-73644013D01*
X91477797Y-74076706D01*
X91440000Y-74266724D01*
X91402203Y-74076705D01*
X91113087Y-73644013D01*
X90680394Y-73354897D01*
X90170000Y-73253373D01*
X89659605Y-73354897D01*
X89226913Y-73644013D01*
X88937797Y-74076706D01*
X88900000Y-74266724D01*
X88862203Y-74076705D01*
X88573087Y-73644013D01*
X88140394Y-73354897D01*
X87630000Y-73253373D01*
X87119605Y-73354897D01*
X86686913Y-73644013D01*
X86397797Y-74076706D01*
X86360000Y-74266724D01*
X86322203Y-74076705D01*
X86033087Y-73644013D01*
X85600394Y-73354897D01*
X85090000Y-73253373D01*
X84579605Y-73354897D01*
X84146913Y-73644013D01*
X83857797Y-74076706D01*
X83820000Y-74266724D01*
X83782203Y-74076705D01*
X83493087Y-73644013D01*
X83060394Y-73354897D01*
X82550000Y-73253373D01*
X82039605Y-73354897D01*
X81606913Y-73644013D01*
X81317797Y-74076706D01*
X81280000Y-74266724D01*
X81242203Y-74076705D01*
X80953087Y-73644013D01*
X80520394Y-73354897D01*
X80010000Y-73253373D01*
X79499605Y-73354897D01*
X79066913Y-73644013D01*
X78777797Y-74076706D01*
X78740000Y-74266724D01*
X78702203Y-74076705D01*
X78413087Y-73644013D01*
X77980394Y-73354897D01*
X77470000Y-73253373D01*
X76959605Y-73354897D01*
X76526913Y-73644013D01*
X76237797Y-74076706D01*
X76200000Y-74266724D01*
X76162203Y-74076705D01*
X75873087Y-73644013D01*
X75440394Y-73354897D01*
X74930000Y-73253373D01*
X74419605Y-73354897D01*
X73986913Y-73644013D01*
X73705564Y-74065082D01*
X73705564Y-73660000D01*
X73675994Y-73511341D01*
X73591786Y-73385314D01*
X73465759Y-73301106D01*
X73317100Y-73271536D01*
X71462900Y-73271536D01*
X71314241Y-73301106D01*
X71188214Y-73385314D01*
X71104006Y-73511341D01*
X71074436Y-73660000D01*
X71074436Y-76200000D01*
X71104006Y-76348659D01*
X71188214Y-76474686D01*
X71314241Y-76558894D01*
X71399401Y-76575833D01*
X71399401Y-76653579D01*
X70352833Y-77700148D01*
X70294500Y-77739125D01*
X70294500Y-72199500D01*
X190690501Y-72199500D01*
X190690500Y-138620500D01*
G04 #@! TD*
M02*
