G04 #@! TF.GenerationSoftware,KiCad,Pcbnew,6.0.0-unknown-f21face~86~ubuntu18.04.1*
G04 #@! TF.CreationDate,2019-05-20T10:49:21-04:00*
G04 #@! TF.ProjectId,backlight_controller_5x3,6261636b-6c69-4676-9874-5f636f6e7472,1.3*
G04 #@! TF.SameCoordinates,Original*
G04 #@! TF.FileFunction,Legend,Top*
G04 #@! TF.FilePolarity,Positive*
%FSLAX46Y46*%
G04 Gerber Fmt 4.6, Leading zero omitted, Abs format (unit mm)*
G04 Created by KiCad (PCBNEW 6.0.0-unknown-f21face~86~ubuntu18.04.1) date 2019-05-20 10:49:21*
%MOMM*%
%LPD*%
G04 APERTURE LIST*
%ADD10C,0.150000*%
%ADD11C,0.158750*%
%ADD12C,0.381000*%
%ADD13C,0.317500*%
%ADD14C,0.190500*%
%ADD15C,0.254000*%
%ADD16C,0.400000*%
%ADD17C,0.127000*%
%ADD18C,0.177800*%
%ADD19C,0.228600*%
%ADD20C,0.285750*%
%ADD21C,1.803200*%
%ADD22C,2.203200*%
%ADD23R,2.351600X7.951600*%
%ADD24C,1.601600*%
%ADD25R,1.295400X1.295400*%
%ADD26R,1.803400X0.990600*%
%ADD27R,0.990600X1.803400*%
%ADD28O,2.057400X2.743200*%
%ADD29R,2.057400X2.743200*%
%ADD30C,2.403200*%
%ADD31R,13.203200X3.603200*%
%ADD32R,13.203200X3.603201*%
%ADD33R,2.603200X1.203200*%
%ADD34C,1.000000*%
%ADD35C,3.759200*%
%ADD36O,4.203200X3.203200*%
%ADD37R,4.203200X3.203200*%
%ADD38C,4.203200*%
G04 APERTURE END LIST*
D10*
X127861785Y-138021785D02*
X127831547Y-138052023D01*
X127740833Y-138082261D01*
X127680357Y-138082261D01*
X127589642Y-138052023D01*
X127529166Y-137991547D01*
X127498928Y-137931071D01*
X127468690Y-137810119D01*
X127468690Y-137719404D01*
X127498928Y-137598452D01*
X127529166Y-137537976D01*
X127589642Y-137477500D01*
X127680357Y-137447261D01*
X127740833Y-137447261D01*
X127831547Y-137477500D01*
X127861785Y-137507738D01*
X128466547Y-138082261D02*
X128103690Y-138082261D01*
X128285119Y-138082261D02*
X128285119Y-137447261D01*
X128224642Y-137537976D01*
X128164166Y-137598452D01*
X128103690Y-137628690D01*
X128708452Y-137507738D02*
X128738690Y-137477500D01*
X128799166Y-137447261D01*
X128950357Y-137447261D01*
X129010833Y-137477500D01*
X129041071Y-137507738D01*
X129071309Y-137568214D01*
X129071309Y-137628690D01*
X129041071Y-137719404D01*
X128678214Y-138082261D01*
X129071309Y-138082261D01*
X125321785Y-138021785D02*
X125291547Y-138052023D01*
X125200833Y-138082261D01*
X125140357Y-138082261D01*
X125049642Y-138052023D01*
X124989166Y-137991547D01*
X124958928Y-137931071D01*
X124928690Y-137810119D01*
X124928690Y-137719404D01*
X124958928Y-137598452D01*
X124989166Y-137537976D01*
X125049642Y-137477500D01*
X125140357Y-137447261D01*
X125200833Y-137447261D01*
X125291547Y-137477500D01*
X125321785Y-137507738D01*
X125926547Y-138082261D02*
X125563690Y-138082261D01*
X125745119Y-138082261D02*
X125745119Y-137447261D01*
X125684642Y-137537976D01*
X125624166Y-137598452D01*
X125563690Y-137628690D01*
X126138214Y-137447261D02*
X126531309Y-137447261D01*
X126319642Y-137689166D01*
X126410357Y-137689166D01*
X126470833Y-137719404D01*
X126501071Y-137749642D01*
X126531309Y-137810119D01*
X126531309Y-137961309D01*
X126501071Y-138021785D01*
X126470833Y-138052023D01*
X126410357Y-138082261D01*
X126228928Y-138082261D01*
X126168452Y-138052023D01*
X126138214Y-138021785D01*
X122781785Y-138021785D02*
X122751547Y-138052023D01*
X122660833Y-138082261D01*
X122600357Y-138082261D01*
X122509642Y-138052023D01*
X122449166Y-137991547D01*
X122418928Y-137931071D01*
X122388690Y-137810119D01*
X122388690Y-137719404D01*
X122418928Y-137598452D01*
X122449166Y-137537976D01*
X122509642Y-137477500D01*
X122600357Y-137447261D01*
X122660833Y-137447261D01*
X122751547Y-137477500D01*
X122781785Y-137507738D01*
X123386547Y-138082261D02*
X123023690Y-138082261D01*
X123205119Y-138082261D02*
X123205119Y-137447261D01*
X123144642Y-137537976D01*
X123084166Y-137598452D01*
X123023690Y-137628690D01*
X123930833Y-137658928D02*
X123930833Y-138082261D01*
X123779642Y-137417023D02*
X123628452Y-137870595D01*
X124021547Y-137870595D01*
X120241785Y-138021785D02*
X120211547Y-138052023D01*
X120120833Y-138082261D01*
X120060357Y-138082261D01*
X119969642Y-138052023D01*
X119909166Y-137991547D01*
X119878928Y-137931071D01*
X119848690Y-137810119D01*
X119848690Y-137719404D01*
X119878928Y-137598452D01*
X119909166Y-137537976D01*
X119969642Y-137477500D01*
X120060357Y-137447261D01*
X120120833Y-137447261D01*
X120211547Y-137477500D01*
X120241785Y-137507738D01*
X120846547Y-138082261D02*
X120483690Y-138082261D01*
X120665119Y-138082261D02*
X120665119Y-137447261D01*
X120604642Y-137537976D01*
X120544166Y-137598452D01*
X120483690Y-137628690D01*
X121421071Y-137447261D02*
X121118690Y-137447261D01*
X121088452Y-137749642D01*
X121118690Y-137719404D01*
X121179166Y-137689166D01*
X121330357Y-137689166D01*
X121390833Y-137719404D01*
X121421071Y-137749642D01*
X121451309Y-137810119D01*
X121451309Y-137961309D01*
X121421071Y-138021785D01*
X121390833Y-138052023D01*
X121330357Y-138082261D01*
X121179166Y-138082261D01*
X121118690Y-138052023D01*
X121088452Y-138021785D01*
X105304166Y-138021785D02*
X105273928Y-138052023D01*
X105183214Y-138082261D01*
X105122738Y-138082261D01*
X105032023Y-138052023D01*
X104971547Y-137991547D01*
X104941309Y-137931071D01*
X104911071Y-137810119D01*
X104911071Y-137719404D01*
X104941309Y-137598452D01*
X104971547Y-137537976D01*
X105032023Y-137477500D01*
X105122738Y-137447261D01*
X105183214Y-137447261D01*
X105273928Y-137477500D01*
X105304166Y-137507738D01*
X105878690Y-137447261D02*
X105576309Y-137447261D01*
X105546071Y-137749642D01*
X105576309Y-137719404D01*
X105636785Y-137689166D01*
X105787976Y-137689166D01*
X105848452Y-137719404D01*
X105878690Y-137749642D01*
X105908928Y-137810119D01*
X105908928Y-137961309D01*
X105878690Y-138021785D01*
X105848452Y-138052023D01*
X105787976Y-138082261D01*
X105636785Y-138082261D01*
X105576309Y-138052023D01*
X105546071Y-138021785D01*
X95144166Y-138021785D02*
X95113928Y-138052023D01*
X95023214Y-138082261D01*
X94962738Y-138082261D01*
X94872023Y-138052023D01*
X94811547Y-137991547D01*
X94781309Y-137931071D01*
X94751071Y-137810119D01*
X94751071Y-137719404D01*
X94781309Y-137598452D01*
X94811547Y-137537976D01*
X94872023Y-137477500D01*
X94962738Y-137447261D01*
X95023214Y-137447261D01*
X95113928Y-137477500D01*
X95144166Y-137507738D01*
X95688452Y-137447261D02*
X95567500Y-137447261D01*
X95507023Y-137477500D01*
X95476785Y-137507738D01*
X95416309Y-137598452D01*
X95386071Y-137719404D01*
X95386071Y-137961309D01*
X95416309Y-138021785D01*
X95446547Y-138052023D01*
X95507023Y-138082261D01*
X95627976Y-138082261D01*
X95688452Y-138052023D01*
X95718690Y-138021785D01*
X95748928Y-137961309D01*
X95748928Y-137810119D01*
X95718690Y-137749642D01*
X95688452Y-137719404D01*
X95627976Y-137689166D01*
X95507023Y-137689166D01*
X95446547Y-137719404D01*
X95416309Y-137749642D01*
X95386071Y-137810119D01*
X92604166Y-138021785D02*
X92573928Y-138052023D01*
X92483214Y-138082261D01*
X92422738Y-138082261D01*
X92332023Y-138052023D01*
X92271547Y-137991547D01*
X92241309Y-137931071D01*
X92211071Y-137810119D01*
X92211071Y-137719404D01*
X92241309Y-137598452D01*
X92271547Y-137537976D01*
X92332023Y-137477500D01*
X92422738Y-137447261D01*
X92483214Y-137447261D01*
X92573928Y-137477500D01*
X92604166Y-137507738D01*
X92815833Y-137447261D02*
X93239166Y-137447261D01*
X92967023Y-138082261D01*
X90064166Y-138021785D02*
X90033928Y-138052023D01*
X89943214Y-138082261D01*
X89882738Y-138082261D01*
X89792023Y-138052023D01*
X89731547Y-137991547D01*
X89701309Y-137931071D01*
X89671071Y-137810119D01*
X89671071Y-137719404D01*
X89701309Y-137598452D01*
X89731547Y-137537976D01*
X89792023Y-137477500D01*
X89882738Y-137447261D01*
X89943214Y-137447261D01*
X90033928Y-137477500D01*
X90064166Y-137507738D01*
X90427023Y-137719404D02*
X90366547Y-137689166D01*
X90336309Y-137658928D01*
X90306071Y-137598452D01*
X90306071Y-137568214D01*
X90336309Y-137507738D01*
X90366547Y-137477500D01*
X90427023Y-137447261D01*
X90547976Y-137447261D01*
X90608452Y-137477500D01*
X90638690Y-137507738D01*
X90668928Y-137568214D01*
X90668928Y-137598452D01*
X90638690Y-137658928D01*
X90608452Y-137689166D01*
X90547976Y-137719404D01*
X90427023Y-137719404D01*
X90366547Y-137749642D01*
X90336309Y-137779880D01*
X90306071Y-137840357D01*
X90306071Y-137961309D01*
X90336309Y-138021785D01*
X90366547Y-138052023D01*
X90427023Y-138082261D01*
X90547976Y-138082261D01*
X90608452Y-138052023D01*
X90638690Y-138021785D01*
X90668928Y-137961309D01*
X90668928Y-137840357D01*
X90638690Y-137779880D01*
X90608452Y-137749642D01*
X90547976Y-137719404D01*
X87524166Y-138021785D02*
X87493928Y-138052023D01*
X87403214Y-138082261D01*
X87342738Y-138082261D01*
X87252023Y-138052023D01*
X87191547Y-137991547D01*
X87161309Y-137931071D01*
X87131071Y-137810119D01*
X87131071Y-137719404D01*
X87161309Y-137598452D01*
X87191547Y-137537976D01*
X87252023Y-137477500D01*
X87342738Y-137447261D01*
X87403214Y-137447261D01*
X87493928Y-137477500D01*
X87524166Y-137507738D01*
X87826547Y-138082261D02*
X87947500Y-138082261D01*
X88007976Y-138052023D01*
X88038214Y-138021785D01*
X88098690Y-137931071D01*
X88128928Y-137810119D01*
X88128928Y-137568214D01*
X88098690Y-137507738D01*
X88068452Y-137477500D01*
X88007976Y-137447261D01*
X87887023Y-137447261D01*
X87826547Y-137477500D01*
X87796309Y-137507738D01*
X87766071Y-137568214D01*
X87766071Y-137719404D01*
X87796309Y-137779880D01*
X87826547Y-137810119D01*
X87887023Y-137840357D01*
X88007976Y-137840357D01*
X88068452Y-137810119D01*
X88098690Y-137779880D01*
X88128928Y-137719404D01*
X84681785Y-138021785D02*
X84651547Y-138052023D01*
X84560833Y-138082261D01*
X84500357Y-138082261D01*
X84409642Y-138052023D01*
X84349166Y-137991547D01*
X84318928Y-137931071D01*
X84288690Y-137810119D01*
X84288690Y-137719404D01*
X84318928Y-137598452D01*
X84349166Y-137537976D01*
X84409642Y-137477500D01*
X84500357Y-137447261D01*
X84560833Y-137447261D01*
X84651547Y-137477500D01*
X84681785Y-137507738D01*
X85286547Y-138082261D02*
X84923690Y-138082261D01*
X85105119Y-138082261D02*
X85105119Y-137447261D01*
X85044642Y-137537976D01*
X84984166Y-137598452D01*
X84923690Y-137628690D01*
X85679642Y-137447261D02*
X85740119Y-137447261D01*
X85800595Y-137477500D01*
X85830833Y-137507738D01*
X85861071Y-137568214D01*
X85891309Y-137689166D01*
X85891309Y-137840357D01*
X85861071Y-137961309D01*
X85830833Y-138021785D01*
X85800595Y-138052023D01*
X85740119Y-138082261D01*
X85679642Y-138082261D01*
X85619166Y-138052023D01*
X85588928Y-138021785D01*
X85558690Y-137961309D01*
X85528452Y-137840357D01*
X85528452Y-137689166D01*
X85558690Y-137568214D01*
X85588928Y-137507738D01*
X85619166Y-137477500D01*
X85679642Y-137447261D01*
X82141785Y-138021785D02*
X82111547Y-138052023D01*
X82020833Y-138082261D01*
X81960357Y-138082261D01*
X81869642Y-138052023D01*
X81809166Y-137991547D01*
X81778928Y-137931071D01*
X81748690Y-137810119D01*
X81748690Y-137719404D01*
X81778928Y-137598452D01*
X81809166Y-137537976D01*
X81869642Y-137477500D01*
X81960357Y-137447261D01*
X82020833Y-137447261D01*
X82111547Y-137477500D01*
X82141785Y-137507738D01*
X82746547Y-138082261D02*
X82383690Y-138082261D01*
X82565119Y-138082261D02*
X82565119Y-137447261D01*
X82504642Y-137537976D01*
X82444166Y-137598452D01*
X82383690Y-137628690D01*
X83351309Y-138082261D02*
X82988452Y-138082261D01*
X83169880Y-138082261D02*
X83169880Y-137447261D01*
X83109404Y-137537976D01*
X83048928Y-137598452D01*
X82988452Y-137628690D01*
X74143809Y-137447261D02*
X74355476Y-138082261D01*
X74567142Y-137447261D01*
X74778809Y-137749642D02*
X74990476Y-137749642D01*
X75081190Y-138082261D02*
X74778809Y-138082261D01*
X74778809Y-137447261D01*
X75081190Y-137447261D01*
X75353333Y-137749642D02*
X75565000Y-137749642D01*
X75655714Y-138082261D02*
X75353333Y-138082261D01*
X75353333Y-137447261D01*
X75655714Y-137447261D01*
X128164166Y-73251785D02*
X128133928Y-73282023D01*
X128043214Y-73312261D01*
X127982738Y-73312261D01*
X127892023Y-73282023D01*
X127831547Y-73221547D01*
X127801309Y-73161071D01*
X127771071Y-73040119D01*
X127771071Y-72949404D01*
X127801309Y-72828452D01*
X127831547Y-72767976D01*
X127892023Y-72707500D01*
X127982738Y-72677261D01*
X128043214Y-72677261D01*
X128133928Y-72707500D01*
X128164166Y-72737738D01*
X128708452Y-72888928D02*
X128708452Y-73312261D01*
X128557261Y-72647023D02*
X128406071Y-73100595D01*
X128799166Y-73100595D01*
X125624166Y-73251785D02*
X125593928Y-73282023D01*
X125503214Y-73312261D01*
X125442738Y-73312261D01*
X125352023Y-73282023D01*
X125291547Y-73221547D01*
X125261309Y-73161071D01*
X125231071Y-73040119D01*
X125231071Y-72949404D01*
X125261309Y-72828452D01*
X125291547Y-72767976D01*
X125352023Y-72707500D01*
X125442738Y-72677261D01*
X125503214Y-72677261D01*
X125593928Y-72707500D01*
X125624166Y-72737738D01*
X125835833Y-72677261D02*
X126228928Y-72677261D01*
X126017261Y-72919166D01*
X126107976Y-72919166D01*
X126168452Y-72949404D01*
X126198690Y-72979642D01*
X126228928Y-73040119D01*
X126228928Y-73191309D01*
X126198690Y-73251785D01*
X126168452Y-73282023D01*
X126107976Y-73312261D01*
X125926547Y-73312261D01*
X125866071Y-73282023D01*
X125835833Y-73251785D01*
X94781309Y-72979642D02*
X94992976Y-72979642D01*
X95083690Y-73312261D02*
X94781309Y-73312261D01*
X94781309Y-72677261D01*
X95083690Y-72677261D01*
X95355833Y-73312261D02*
X95355833Y-72677261D01*
X95718690Y-73312261D01*
X95718690Y-72677261D01*
X92604166Y-73251785D02*
X92573928Y-73282023D01*
X92483214Y-73312261D01*
X92422738Y-73312261D01*
X92332023Y-73282023D01*
X92271547Y-73221547D01*
X92241309Y-73161071D01*
X92211071Y-73040119D01*
X92211071Y-72949404D01*
X92241309Y-72828452D01*
X92271547Y-72767976D01*
X92332023Y-72707500D01*
X92422738Y-72677261D01*
X92483214Y-72677261D01*
X92573928Y-72707500D01*
X92604166Y-72737738D01*
X92846071Y-72737738D02*
X92876309Y-72707500D01*
X92936785Y-72677261D01*
X93087976Y-72677261D01*
X93148452Y-72707500D01*
X93178690Y-72737738D01*
X93208928Y-72798214D01*
X93208928Y-72858690D01*
X93178690Y-72949404D01*
X92815833Y-73312261D01*
X93208928Y-73312261D01*
X90064166Y-73251785D02*
X90033928Y-73282023D01*
X89943214Y-73312261D01*
X89882738Y-73312261D01*
X89792023Y-73282023D01*
X89731547Y-73221547D01*
X89701309Y-73161071D01*
X89671071Y-73040119D01*
X89671071Y-72949404D01*
X89701309Y-72828452D01*
X89731547Y-72767976D01*
X89792023Y-72707500D01*
X89882738Y-72677261D01*
X89943214Y-72677261D01*
X90033928Y-72707500D01*
X90064166Y-72737738D01*
X90668928Y-73312261D02*
X90306071Y-73312261D01*
X90487500Y-73312261D02*
X90487500Y-72677261D01*
X90427023Y-72767976D01*
X90366547Y-72828452D01*
X90306071Y-72858690D01*
X82444166Y-73251785D02*
X82413928Y-73282023D01*
X82323214Y-73312261D01*
X82262738Y-73312261D01*
X82172023Y-73282023D01*
X82111547Y-73221547D01*
X82081309Y-73161071D01*
X82051071Y-73040119D01*
X82051071Y-72949404D01*
X82081309Y-72828452D01*
X82111547Y-72767976D01*
X82172023Y-72707500D01*
X82262738Y-72677261D01*
X82323214Y-72677261D01*
X82413928Y-72707500D01*
X82444166Y-72737738D01*
X82837261Y-72677261D02*
X82897738Y-72677261D01*
X82958214Y-72707500D01*
X82988452Y-72737738D01*
X83018690Y-72798214D01*
X83048928Y-72919166D01*
X83048928Y-73070357D01*
X83018690Y-73191309D01*
X82988452Y-73251785D01*
X82958214Y-73282023D01*
X82897738Y-73312261D01*
X82837261Y-73312261D01*
X82776785Y-73282023D01*
X82746547Y-73251785D01*
X82716309Y-73191309D01*
X82686071Y-73070357D01*
X82686071Y-72919166D01*
X82716309Y-72798214D01*
X82746547Y-72737738D01*
X82776785Y-72707500D01*
X82837261Y-72677261D01*
X74446190Y-72707500D02*
X74385714Y-72677261D01*
X74295000Y-72677261D01*
X74204285Y-72707500D01*
X74143809Y-72767976D01*
X74113571Y-72828452D01*
X74083333Y-72949404D01*
X74083333Y-73040119D01*
X74113571Y-73161071D01*
X74143809Y-73221547D01*
X74204285Y-73282023D01*
X74295000Y-73312261D01*
X74355476Y-73312261D01*
X74446190Y-73282023D01*
X74476428Y-73251785D01*
X74476428Y-73040119D01*
X74355476Y-73040119D01*
X74748571Y-73312261D02*
X74748571Y-72677261D01*
X75111428Y-73312261D01*
X75111428Y-72677261D01*
X75413809Y-73312261D02*
X75413809Y-72677261D01*
X75565000Y-72677261D01*
X75655714Y-72707500D01*
X75716190Y-72767976D01*
X75746428Y-72828452D01*
X75776666Y-72949404D01*
X75776666Y-73040119D01*
X75746428Y-73161071D01*
X75716190Y-73221547D01*
X75655714Y-73282023D01*
X75565000Y-73312261D01*
X75413809Y-73312261D01*
D11*
X71543333Y-72677261D02*
X71755000Y-73312261D01*
X71966666Y-72677261D01*
X72178333Y-73312261D02*
X72178333Y-72677261D01*
X72329523Y-72677261D01*
X72420238Y-72707500D01*
X72480714Y-72767976D01*
X72510952Y-72828452D01*
X72541190Y-72949404D01*
X72541190Y-73040119D01*
X72510952Y-73161071D01*
X72480714Y-73221547D01*
X72420238Y-73282023D01*
X72329523Y-73312261D01*
X72178333Y-73312261D01*
X72813333Y-73312261D02*
X72813333Y-72677261D01*
X72964523Y-72677261D01*
X73055238Y-72707500D01*
X73115714Y-72767976D01*
X73145952Y-72828452D01*
X73176190Y-72949404D01*
X73176190Y-73040119D01*
X73145952Y-73161071D01*
X73115714Y-73221547D01*
X73055238Y-73282023D01*
X72964523Y-73312261D01*
X72813333Y-73312261D01*
D12*
X107950000Y-130810000D02*
X111760000Y-130810000D01*
X87630000Y-130810000D02*
X97790000Y-130810000D01*
X76200000Y-130810000D02*
X77470000Y-130810000D01*
X92710000Y-84455000D02*
X92710000Y-130810000D01*
X73660000Y-84455000D02*
X73660000Y-128270000D01*
X111760000Y-84455000D02*
X73660000Y-84455000D01*
D13*
X181513994Y-78679523D02*
X180788279Y-78679523D01*
X181151136Y-78679523D02*
X181151136Y-77409523D01*
X181030184Y-77590952D01*
X180909232Y-77711904D01*
X180788279Y-77772380D01*
X182602565Y-77832857D02*
X182602565Y-78679523D01*
X182300184Y-77349047D02*
X181997803Y-78256190D01*
X182783994Y-78256190D01*
X162463994Y-78679523D02*
X161738279Y-78679523D01*
X162101136Y-78679523D02*
X162101136Y-77409523D01*
X161980184Y-77590952D01*
X161859232Y-77711904D01*
X161738279Y-77772380D01*
X162947803Y-77530476D02*
X163008279Y-77470000D01*
X163129232Y-77409523D01*
X163431613Y-77409523D01*
X163552565Y-77470000D01*
X163613041Y-77530476D01*
X163673517Y-77651428D01*
X163673517Y-77772380D01*
X163613041Y-77953809D01*
X162887327Y-78679523D01*
X163673517Y-78679523D01*
X143413994Y-78679523D02*
X142688279Y-78679523D01*
X143051136Y-78679523D02*
X143051136Y-77409523D01*
X142930184Y-77590952D01*
X142809232Y-77711904D01*
X142688279Y-77772380D01*
X144200184Y-77409523D02*
X144321136Y-77409523D01*
X144442089Y-77470000D01*
X144502565Y-77530476D01*
X144563041Y-77651428D01*
X144623517Y-77893333D01*
X144623517Y-78195714D01*
X144563041Y-78437619D01*
X144502565Y-78558571D01*
X144442089Y-78619047D01*
X144321136Y-78679523D01*
X144200184Y-78679523D01*
X144079232Y-78619047D01*
X144018755Y-78558571D01*
X143958279Y-78437619D01*
X143897803Y-78195714D01*
X143897803Y-77893333D01*
X143958279Y-77651428D01*
X144018755Y-77530476D01*
X144079232Y-77470000D01*
X144200184Y-77409523D01*
X181513994Y-133289523D02*
X180788279Y-133289523D01*
X181151136Y-133289523D02*
X181151136Y-132019523D01*
X181030184Y-132200952D01*
X180909232Y-132321904D01*
X180788279Y-132382380D01*
X182663041Y-132019523D02*
X182058279Y-132019523D01*
X181997803Y-132624285D01*
X182058279Y-132563809D01*
X182179232Y-132503333D01*
X182481613Y-132503333D01*
X182602565Y-132563809D01*
X182663041Y-132624285D01*
X182723517Y-132745238D01*
X182723517Y-133047619D01*
X182663041Y-133168571D01*
X182602565Y-133229047D01*
X182481613Y-133289523D01*
X182179232Y-133289523D01*
X182058279Y-133229047D01*
X181997803Y-133168571D01*
X162463994Y-133289523D02*
X161738279Y-133289523D01*
X162101136Y-133289523D02*
X162101136Y-132019523D01*
X161980184Y-132200952D01*
X161859232Y-132321904D01*
X161738279Y-132382380D01*
X162887327Y-132019523D02*
X163673517Y-132019523D01*
X163250184Y-132503333D01*
X163431613Y-132503333D01*
X163552565Y-132563809D01*
X163613041Y-132624285D01*
X163673517Y-132745238D01*
X163673517Y-133047619D01*
X163613041Y-133168571D01*
X163552565Y-133229047D01*
X163431613Y-133289523D01*
X163068755Y-133289523D01*
X162947803Y-133229047D01*
X162887327Y-133168571D01*
X143413994Y-133289523D02*
X142688279Y-133289523D01*
X143051136Y-133289523D02*
X143051136Y-132019523D01*
X142930184Y-132200952D01*
X142809232Y-132321904D01*
X142688279Y-132382380D01*
X144623517Y-133289523D02*
X143897803Y-133289523D01*
X144260660Y-133289523D02*
X144260660Y-132019523D01*
X144139708Y-132200952D01*
X144018755Y-132321904D01*
X143897803Y-132382380D01*
X123759232Y-133289523D02*
X124001136Y-133289523D01*
X124122089Y-133229047D01*
X124182565Y-133168571D01*
X124303517Y-132987142D01*
X124363994Y-132745238D01*
X124363994Y-132261428D01*
X124303517Y-132140476D01*
X124243041Y-132080000D01*
X124122089Y-132019523D01*
X123880184Y-132019523D01*
X123759232Y-132080000D01*
X123698755Y-132140476D01*
X123638279Y-132261428D01*
X123638279Y-132563809D01*
X123698755Y-132684761D01*
X123759232Y-132745238D01*
X123880184Y-132805714D01*
X124122089Y-132805714D01*
X124243041Y-132745238D01*
X124303517Y-132684761D01*
X124363994Y-132563809D01*
X123880184Y-77953809D02*
X123759232Y-77893333D01*
X123698755Y-77832857D01*
X123638279Y-77711904D01*
X123638279Y-77651428D01*
X123698755Y-77530476D01*
X123759232Y-77470000D01*
X123880184Y-77409523D01*
X124122089Y-77409523D01*
X124243041Y-77470000D01*
X124303517Y-77530476D01*
X124363994Y-77651428D01*
X124363994Y-77711904D01*
X124303517Y-77832857D01*
X124243041Y-77893333D01*
X124122089Y-77953809D01*
X123880184Y-77953809D01*
X123759232Y-78014285D01*
X123698755Y-78074761D01*
X123638279Y-78195714D01*
X123638279Y-78437619D01*
X123698755Y-78558571D01*
X123759232Y-78619047D01*
X123880184Y-78679523D01*
X124122089Y-78679523D01*
X124243041Y-78619047D01*
X124303517Y-78558571D01*
X124363994Y-78437619D01*
X124363994Y-78195714D01*
X124303517Y-78074761D01*
X124243041Y-78014285D01*
X124122089Y-77953809D01*
X169786904Y-105984523D02*
X170210238Y-107254523D01*
X170633571Y-105984523D01*
X171480238Y-106589285D02*
X171661666Y-106649761D01*
X171722142Y-106710238D01*
X171782619Y-106831190D01*
X171782619Y-107012619D01*
X171722142Y-107133571D01*
X171661666Y-107194047D01*
X171540714Y-107254523D01*
X171056904Y-107254523D01*
X171056904Y-105984523D01*
X171480238Y-105984523D01*
X171601190Y-106045000D01*
X171661666Y-106105476D01*
X171722142Y-106226428D01*
X171722142Y-106347380D01*
X171661666Y-106468333D01*
X171601190Y-106528809D01*
X171480238Y-106589285D01*
X171056904Y-106589285D01*
X172205952Y-105984523D02*
X172992142Y-105984523D01*
X172568809Y-106468333D01*
X172750238Y-106468333D01*
X172871190Y-106528809D01*
X172931666Y-106589285D01*
X172992142Y-106710238D01*
X172992142Y-107012619D01*
X172931666Y-107133571D01*
X172871190Y-107194047D01*
X172750238Y-107254523D01*
X172387380Y-107254523D01*
X172266428Y-107194047D01*
X172205952Y-107133571D01*
X170210238Y-104714523D02*
X170210238Y-103444523D01*
X171238333Y-104049285D02*
X171419761Y-104109761D01*
X171480238Y-104170238D01*
X171540714Y-104291190D01*
X171540714Y-104472619D01*
X171480238Y-104593571D01*
X171419761Y-104654047D01*
X171298809Y-104714523D01*
X170815000Y-104714523D01*
X170815000Y-103444523D01*
X171238333Y-103444523D01*
X171359285Y-103505000D01*
X171419761Y-103565476D01*
X171480238Y-103686428D01*
X171480238Y-103807380D01*
X171419761Y-103928333D01*
X171359285Y-103988809D01*
X171238333Y-104049285D01*
X170815000Y-104049285D01*
X171964047Y-103444523D02*
X172750238Y-103444523D01*
X172326904Y-103928333D01*
X172508333Y-103928333D01*
X172629285Y-103988809D01*
X172689761Y-104049285D01*
X172750238Y-104170238D01*
X172750238Y-104472619D01*
X172689761Y-104593571D01*
X172629285Y-104654047D01*
X172508333Y-104714523D01*
X172145476Y-104714523D01*
X172024523Y-104654047D01*
X171964047Y-104593571D01*
X150404285Y-105984523D02*
X150827619Y-107254523D01*
X151250952Y-105984523D01*
X151674285Y-107254523D02*
X151674285Y-106407857D01*
X151674285Y-105984523D02*
X151613809Y-106045000D01*
X151674285Y-106105476D01*
X151734761Y-106045000D01*
X151674285Y-105984523D01*
X151674285Y-106105476D01*
X152218571Y-107194047D02*
X152339523Y-107254523D01*
X152581428Y-107254523D01*
X152702380Y-107194047D01*
X152762857Y-107073095D01*
X152762857Y-107012619D01*
X152702380Y-106891666D01*
X152581428Y-106831190D01*
X152400000Y-106831190D01*
X152279047Y-106770714D01*
X152218571Y-106649761D01*
X152218571Y-106589285D01*
X152279047Y-106468333D01*
X152400000Y-106407857D01*
X152581428Y-106407857D01*
X152702380Y-106468333D01*
X153307142Y-107254523D02*
X153307142Y-106407857D01*
X153307142Y-105984523D02*
X153246666Y-106045000D01*
X153307142Y-106105476D01*
X153367619Y-106045000D01*
X153307142Y-105984523D01*
X153307142Y-106105476D01*
X153911904Y-107254523D02*
X153911904Y-105984523D01*
X153911904Y-106468333D02*
X154032857Y-106407857D01*
X154274761Y-106407857D01*
X154395714Y-106468333D01*
X154456190Y-106528809D01*
X154516666Y-106649761D01*
X154516666Y-107012619D01*
X154456190Y-107133571D01*
X154395714Y-107194047D01*
X154274761Y-107254523D01*
X154032857Y-107254523D01*
X153911904Y-107194047D01*
X155242380Y-107254523D02*
X155121428Y-107194047D01*
X155060952Y-107073095D01*
X155060952Y-105984523D01*
X156210000Y-107194047D02*
X156089047Y-107254523D01*
X155847142Y-107254523D01*
X155726190Y-107194047D01*
X155665714Y-107073095D01*
X155665714Y-106589285D01*
X155726190Y-106468333D01*
X155847142Y-106407857D01*
X156089047Y-106407857D01*
X156210000Y-106468333D01*
X156270476Y-106589285D01*
X156270476Y-106710238D01*
X155665714Y-106831190D01*
X158205714Y-106589285D02*
X158387142Y-106649761D01*
X158447619Y-106710238D01*
X158508095Y-106831190D01*
X158508095Y-107012619D01*
X158447619Y-107133571D01*
X158387142Y-107194047D01*
X158266190Y-107254523D01*
X157782380Y-107254523D01*
X157782380Y-105984523D01*
X158205714Y-105984523D01*
X158326666Y-106045000D01*
X158387142Y-106105476D01*
X158447619Y-106226428D01*
X158447619Y-106347380D01*
X158387142Y-106468333D01*
X158326666Y-106528809D01*
X158205714Y-106589285D01*
X157782380Y-106589285D01*
X159596666Y-107254523D02*
X159596666Y-106589285D01*
X159536190Y-106468333D01*
X159415238Y-106407857D01*
X159173333Y-106407857D01*
X159052380Y-106468333D01*
X159596666Y-107194047D02*
X159475714Y-107254523D01*
X159173333Y-107254523D01*
X159052380Y-107194047D01*
X158991904Y-107073095D01*
X158991904Y-106952142D01*
X159052380Y-106831190D01*
X159173333Y-106770714D01*
X159475714Y-106770714D01*
X159596666Y-106710238D01*
X160745714Y-107194047D02*
X160624761Y-107254523D01*
X160382857Y-107254523D01*
X160261904Y-107194047D01*
X160201428Y-107133571D01*
X160140952Y-107012619D01*
X160140952Y-106649761D01*
X160201428Y-106528809D01*
X160261904Y-106468333D01*
X160382857Y-106407857D01*
X160624761Y-106407857D01*
X160745714Y-106468333D01*
X161290000Y-107254523D02*
X161290000Y-105984523D01*
X161410952Y-106770714D02*
X161773809Y-107254523D01*
X161773809Y-106407857D02*
X161290000Y-106891666D01*
X162499523Y-107254523D02*
X162378571Y-107194047D01*
X162318095Y-107073095D01*
X162318095Y-105984523D01*
X162983333Y-107254523D02*
X162983333Y-106407857D01*
X162983333Y-105984523D02*
X162922857Y-106045000D01*
X162983333Y-106105476D01*
X163043809Y-106045000D01*
X162983333Y-105984523D01*
X162983333Y-106105476D01*
X164132380Y-106407857D02*
X164132380Y-107435952D01*
X164071904Y-107556904D01*
X164011428Y-107617380D01*
X163890476Y-107677857D01*
X163709047Y-107677857D01*
X163588095Y-107617380D01*
X164132380Y-107194047D02*
X164011428Y-107254523D01*
X163769523Y-107254523D01*
X163648571Y-107194047D01*
X163588095Y-107133571D01*
X163527619Y-107012619D01*
X163527619Y-106649761D01*
X163588095Y-106528809D01*
X163648571Y-106468333D01*
X163769523Y-106407857D01*
X164011428Y-106407857D01*
X164132380Y-106468333D01*
X164737142Y-107254523D02*
X164737142Y-105984523D01*
X165281428Y-107254523D02*
X165281428Y-106589285D01*
X165220952Y-106468333D01*
X165100000Y-106407857D01*
X164918571Y-106407857D01*
X164797619Y-106468333D01*
X164737142Y-106528809D01*
X165704761Y-106407857D02*
X166188571Y-106407857D01*
X165886190Y-105984523D02*
X165886190Y-107073095D01*
X165946666Y-107194047D01*
X166067619Y-107254523D01*
X166188571Y-107254523D01*
X167519047Y-106105476D02*
X167579523Y-106045000D01*
X167700476Y-105984523D01*
X168002857Y-105984523D01*
X168123809Y-106045000D01*
X168184285Y-106105476D01*
X168244761Y-106226428D01*
X168244761Y-106347380D01*
X168184285Y-106528809D01*
X167458571Y-107254523D01*
X168244761Y-107254523D01*
X131354285Y-105984523D02*
X131777619Y-107254523D01*
X132200952Y-105984523D01*
X132624285Y-107254523D02*
X132624285Y-106407857D01*
X132624285Y-105984523D02*
X132563809Y-106045000D01*
X132624285Y-106105476D01*
X132684761Y-106045000D01*
X132624285Y-105984523D01*
X132624285Y-106105476D01*
X133168571Y-107194047D02*
X133289523Y-107254523D01*
X133531428Y-107254523D01*
X133652380Y-107194047D01*
X133712857Y-107073095D01*
X133712857Y-107012619D01*
X133652380Y-106891666D01*
X133531428Y-106831190D01*
X133350000Y-106831190D01*
X133229047Y-106770714D01*
X133168571Y-106649761D01*
X133168571Y-106589285D01*
X133229047Y-106468333D01*
X133350000Y-106407857D01*
X133531428Y-106407857D01*
X133652380Y-106468333D01*
X134257142Y-107254523D02*
X134257142Y-106407857D01*
X134257142Y-105984523D02*
X134196666Y-106045000D01*
X134257142Y-106105476D01*
X134317619Y-106045000D01*
X134257142Y-105984523D01*
X134257142Y-106105476D01*
X134861904Y-107254523D02*
X134861904Y-105984523D01*
X134861904Y-106468333D02*
X134982857Y-106407857D01*
X135224761Y-106407857D01*
X135345714Y-106468333D01*
X135406190Y-106528809D01*
X135466666Y-106649761D01*
X135466666Y-107012619D01*
X135406190Y-107133571D01*
X135345714Y-107194047D01*
X135224761Y-107254523D01*
X134982857Y-107254523D01*
X134861904Y-107194047D01*
X136192380Y-107254523D02*
X136071428Y-107194047D01*
X136010952Y-107073095D01*
X136010952Y-105984523D01*
X137160000Y-107194047D02*
X137039047Y-107254523D01*
X136797142Y-107254523D01*
X136676190Y-107194047D01*
X136615714Y-107073095D01*
X136615714Y-106589285D01*
X136676190Y-106468333D01*
X136797142Y-106407857D01*
X137039047Y-106407857D01*
X137160000Y-106468333D01*
X137220476Y-106589285D01*
X137220476Y-106710238D01*
X136615714Y-106831190D01*
X139155714Y-106589285D02*
X139337142Y-106649761D01*
X139397619Y-106710238D01*
X139458095Y-106831190D01*
X139458095Y-107012619D01*
X139397619Y-107133571D01*
X139337142Y-107194047D01*
X139216190Y-107254523D01*
X138732380Y-107254523D01*
X138732380Y-105984523D01*
X139155714Y-105984523D01*
X139276666Y-106045000D01*
X139337142Y-106105476D01*
X139397619Y-106226428D01*
X139397619Y-106347380D01*
X139337142Y-106468333D01*
X139276666Y-106528809D01*
X139155714Y-106589285D01*
X138732380Y-106589285D01*
X140546666Y-107254523D02*
X140546666Y-106589285D01*
X140486190Y-106468333D01*
X140365238Y-106407857D01*
X140123333Y-106407857D01*
X140002380Y-106468333D01*
X140546666Y-107194047D02*
X140425714Y-107254523D01*
X140123333Y-107254523D01*
X140002380Y-107194047D01*
X139941904Y-107073095D01*
X139941904Y-106952142D01*
X140002380Y-106831190D01*
X140123333Y-106770714D01*
X140425714Y-106770714D01*
X140546666Y-106710238D01*
X141695714Y-107194047D02*
X141574761Y-107254523D01*
X141332857Y-107254523D01*
X141211904Y-107194047D01*
X141151428Y-107133571D01*
X141090952Y-107012619D01*
X141090952Y-106649761D01*
X141151428Y-106528809D01*
X141211904Y-106468333D01*
X141332857Y-106407857D01*
X141574761Y-106407857D01*
X141695714Y-106468333D01*
X142240000Y-107254523D02*
X142240000Y-105984523D01*
X142360952Y-106770714D02*
X142723809Y-107254523D01*
X142723809Y-106407857D02*
X142240000Y-106891666D01*
X143449523Y-107254523D02*
X143328571Y-107194047D01*
X143268095Y-107073095D01*
X143268095Y-105984523D01*
X143933333Y-107254523D02*
X143933333Y-106407857D01*
X143933333Y-105984523D02*
X143872857Y-106045000D01*
X143933333Y-106105476D01*
X143993809Y-106045000D01*
X143933333Y-105984523D01*
X143933333Y-106105476D01*
X145082380Y-106407857D02*
X145082380Y-107435952D01*
X145021904Y-107556904D01*
X144961428Y-107617380D01*
X144840476Y-107677857D01*
X144659047Y-107677857D01*
X144538095Y-107617380D01*
X145082380Y-107194047D02*
X144961428Y-107254523D01*
X144719523Y-107254523D01*
X144598571Y-107194047D01*
X144538095Y-107133571D01*
X144477619Y-107012619D01*
X144477619Y-106649761D01*
X144538095Y-106528809D01*
X144598571Y-106468333D01*
X144719523Y-106407857D01*
X144961428Y-106407857D01*
X145082380Y-106468333D01*
X145687142Y-107254523D02*
X145687142Y-105984523D01*
X146231428Y-107254523D02*
X146231428Y-106589285D01*
X146170952Y-106468333D01*
X146050000Y-106407857D01*
X145868571Y-106407857D01*
X145747619Y-106468333D01*
X145687142Y-106528809D01*
X146654761Y-106407857D02*
X147138571Y-106407857D01*
X146836190Y-105984523D02*
X146836190Y-107073095D01*
X146896666Y-107194047D01*
X147017619Y-107254523D01*
X147138571Y-107254523D01*
X149194761Y-107254523D02*
X148469047Y-107254523D01*
X148831904Y-107254523D02*
X148831904Y-105984523D01*
X148710952Y-106165952D01*
X148590000Y-106286904D01*
X148469047Y-106347380D01*
X152762857Y-104714523D02*
X152762857Y-103444523D01*
X154093333Y-104714523D02*
X153670000Y-104109761D01*
X153367619Y-104714523D02*
X153367619Y-103444523D01*
X153851428Y-103444523D01*
X153972380Y-103505000D01*
X154032857Y-103565476D01*
X154093333Y-103686428D01*
X154093333Y-103867857D01*
X154032857Y-103988809D01*
X153972380Y-104049285D01*
X153851428Y-104109761D01*
X153367619Y-104109761D01*
X156028571Y-104049285D02*
X156210000Y-104109761D01*
X156270476Y-104170238D01*
X156330952Y-104291190D01*
X156330952Y-104472619D01*
X156270476Y-104593571D01*
X156210000Y-104654047D01*
X156089047Y-104714523D01*
X155605238Y-104714523D01*
X155605238Y-103444523D01*
X156028571Y-103444523D01*
X156149523Y-103505000D01*
X156210000Y-103565476D01*
X156270476Y-103686428D01*
X156270476Y-103807380D01*
X156210000Y-103928333D01*
X156149523Y-103988809D01*
X156028571Y-104049285D01*
X155605238Y-104049285D01*
X157419523Y-104714523D02*
X157419523Y-104049285D01*
X157359047Y-103928333D01*
X157238095Y-103867857D01*
X156996190Y-103867857D01*
X156875238Y-103928333D01*
X157419523Y-104654047D02*
X157298571Y-104714523D01*
X156996190Y-104714523D01*
X156875238Y-104654047D01*
X156814761Y-104533095D01*
X156814761Y-104412142D01*
X156875238Y-104291190D01*
X156996190Y-104230714D01*
X157298571Y-104230714D01*
X157419523Y-104170238D01*
X158568571Y-104654047D02*
X158447619Y-104714523D01*
X158205714Y-104714523D01*
X158084761Y-104654047D01*
X158024285Y-104593571D01*
X157963809Y-104472619D01*
X157963809Y-104109761D01*
X158024285Y-103988809D01*
X158084761Y-103928333D01*
X158205714Y-103867857D01*
X158447619Y-103867857D01*
X158568571Y-103928333D01*
X159112857Y-104714523D02*
X159112857Y-103444523D01*
X159233809Y-104230714D02*
X159596666Y-104714523D01*
X159596666Y-103867857D02*
X159112857Y-104351666D01*
X160322380Y-104714523D02*
X160201428Y-104654047D01*
X160140952Y-104533095D01*
X160140952Y-103444523D01*
X160806190Y-104714523D02*
X160806190Y-103867857D01*
X160806190Y-103444523D02*
X160745714Y-103505000D01*
X160806190Y-103565476D01*
X160866666Y-103505000D01*
X160806190Y-103444523D01*
X160806190Y-103565476D01*
X161955238Y-103867857D02*
X161955238Y-104895952D01*
X161894761Y-105016904D01*
X161834285Y-105077380D01*
X161713333Y-105137857D01*
X161531904Y-105137857D01*
X161410952Y-105077380D01*
X161955238Y-104654047D02*
X161834285Y-104714523D01*
X161592380Y-104714523D01*
X161471428Y-104654047D01*
X161410952Y-104593571D01*
X161350476Y-104472619D01*
X161350476Y-104109761D01*
X161410952Y-103988809D01*
X161471428Y-103928333D01*
X161592380Y-103867857D01*
X161834285Y-103867857D01*
X161955238Y-103928333D01*
X162560000Y-104714523D02*
X162560000Y-103444523D01*
X163104285Y-104714523D02*
X163104285Y-104049285D01*
X163043809Y-103928333D01*
X162922857Y-103867857D01*
X162741428Y-103867857D01*
X162620476Y-103928333D01*
X162560000Y-103988809D01*
X163527619Y-103867857D02*
X164011428Y-103867857D01*
X163709047Y-103444523D02*
X163709047Y-104533095D01*
X163769523Y-104654047D01*
X163890476Y-104714523D01*
X164011428Y-104714523D01*
X165341904Y-103565476D02*
X165402380Y-103505000D01*
X165523333Y-103444523D01*
X165825714Y-103444523D01*
X165946666Y-103505000D01*
X166007142Y-103565476D01*
X166067619Y-103686428D01*
X166067619Y-103807380D01*
X166007142Y-103988809D01*
X165281428Y-104714523D01*
X166067619Y-104714523D01*
X133712857Y-104714523D02*
X133712857Y-103444523D01*
X135043333Y-104714523D02*
X134620000Y-104109761D01*
X134317619Y-104714523D02*
X134317619Y-103444523D01*
X134801428Y-103444523D01*
X134922380Y-103505000D01*
X134982857Y-103565476D01*
X135043333Y-103686428D01*
X135043333Y-103867857D01*
X134982857Y-103988809D01*
X134922380Y-104049285D01*
X134801428Y-104109761D01*
X134317619Y-104109761D01*
X136978571Y-104049285D02*
X137160000Y-104109761D01*
X137220476Y-104170238D01*
X137280952Y-104291190D01*
X137280952Y-104472619D01*
X137220476Y-104593571D01*
X137160000Y-104654047D01*
X137039047Y-104714523D01*
X136555238Y-104714523D01*
X136555238Y-103444523D01*
X136978571Y-103444523D01*
X137099523Y-103505000D01*
X137160000Y-103565476D01*
X137220476Y-103686428D01*
X137220476Y-103807380D01*
X137160000Y-103928333D01*
X137099523Y-103988809D01*
X136978571Y-104049285D01*
X136555238Y-104049285D01*
X138369523Y-104714523D02*
X138369523Y-104049285D01*
X138309047Y-103928333D01*
X138188095Y-103867857D01*
X137946190Y-103867857D01*
X137825238Y-103928333D01*
X138369523Y-104654047D02*
X138248571Y-104714523D01*
X137946190Y-104714523D01*
X137825238Y-104654047D01*
X137764761Y-104533095D01*
X137764761Y-104412142D01*
X137825238Y-104291190D01*
X137946190Y-104230714D01*
X138248571Y-104230714D01*
X138369523Y-104170238D01*
X139518571Y-104654047D02*
X139397619Y-104714523D01*
X139155714Y-104714523D01*
X139034761Y-104654047D01*
X138974285Y-104593571D01*
X138913809Y-104472619D01*
X138913809Y-104109761D01*
X138974285Y-103988809D01*
X139034761Y-103928333D01*
X139155714Y-103867857D01*
X139397619Y-103867857D01*
X139518571Y-103928333D01*
X140062857Y-104714523D02*
X140062857Y-103444523D01*
X140183809Y-104230714D02*
X140546666Y-104714523D01*
X140546666Y-103867857D02*
X140062857Y-104351666D01*
X141272380Y-104714523D02*
X141151428Y-104654047D01*
X141090952Y-104533095D01*
X141090952Y-103444523D01*
X141756190Y-104714523D02*
X141756190Y-103867857D01*
X141756190Y-103444523D02*
X141695714Y-103505000D01*
X141756190Y-103565476D01*
X141816666Y-103505000D01*
X141756190Y-103444523D01*
X141756190Y-103565476D01*
X142905238Y-103867857D02*
X142905238Y-104895952D01*
X142844761Y-105016904D01*
X142784285Y-105077380D01*
X142663333Y-105137857D01*
X142481904Y-105137857D01*
X142360952Y-105077380D01*
X142905238Y-104654047D02*
X142784285Y-104714523D01*
X142542380Y-104714523D01*
X142421428Y-104654047D01*
X142360952Y-104593571D01*
X142300476Y-104472619D01*
X142300476Y-104109761D01*
X142360952Y-103988809D01*
X142421428Y-103928333D01*
X142542380Y-103867857D01*
X142784285Y-103867857D01*
X142905238Y-103928333D01*
X143510000Y-104714523D02*
X143510000Y-103444523D01*
X144054285Y-104714523D02*
X144054285Y-104049285D01*
X143993809Y-103928333D01*
X143872857Y-103867857D01*
X143691428Y-103867857D01*
X143570476Y-103928333D01*
X143510000Y-103988809D01*
X144477619Y-103867857D02*
X144961428Y-103867857D01*
X144659047Y-103444523D02*
X144659047Y-104533095D01*
X144719523Y-104654047D01*
X144840476Y-104714523D01*
X144961428Y-104714523D01*
X147017619Y-104714523D02*
X146291904Y-104714523D01*
X146654761Y-104714523D02*
X146654761Y-103444523D01*
X146533809Y-103625952D01*
X146412857Y-103746904D01*
X146291904Y-103807380D01*
D12*
X187960000Y-80010000D02*
X187960000Y-130810000D01*
X149860000Y-80010000D02*
X149860000Y-130810000D01*
X111760000Y-105410000D02*
X172720000Y-105410000D01*
D13*
X98031904Y-86458273D02*
X97427142Y-86458273D01*
X97427142Y-85188273D01*
X98636666Y-86458273D02*
X98515714Y-86397797D01*
X98455238Y-86337321D01*
X98394761Y-86216369D01*
X98394761Y-85853511D01*
X98455238Y-85732559D01*
X98515714Y-85672083D01*
X98636666Y-85611607D01*
X98818095Y-85611607D01*
X98939047Y-85672083D01*
X98999523Y-85732559D01*
X99060000Y-85853511D01*
X99060000Y-86216369D01*
X98999523Y-86337321D01*
X98939047Y-86397797D01*
X98818095Y-86458273D01*
X98636666Y-86458273D01*
X99483333Y-85611607D02*
X99725238Y-86458273D01*
X99967142Y-85853511D01*
X100209047Y-86458273D01*
X100450952Y-85611607D01*
X101720952Y-85188273D02*
X102144285Y-86458273D01*
X102567619Y-85188273D01*
X103172380Y-86458273D02*
X103051428Y-86397797D01*
X102990952Y-86337321D01*
X102930476Y-86216369D01*
X102930476Y-85853511D01*
X102990952Y-85732559D01*
X103051428Y-85672083D01*
X103172380Y-85611607D01*
X103353809Y-85611607D01*
X103474761Y-85672083D01*
X103535238Y-85732559D01*
X103595714Y-85853511D01*
X103595714Y-86216369D01*
X103535238Y-86337321D01*
X103474761Y-86397797D01*
X103353809Y-86458273D01*
X103172380Y-86458273D01*
X104321428Y-86458273D02*
X104200476Y-86397797D01*
X104140000Y-86276845D01*
X104140000Y-85188273D01*
X104623809Y-85611607D02*
X105107619Y-85611607D01*
X104805238Y-85188273D02*
X104805238Y-86276845D01*
X104865714Y-86397797D01*
X104986666Y-86458273D01*
X105107619Y-86458273D01*
X106075238Y-86458273D02*
X106075238Y-85793035D01*
X106014761Y-85672083D01*
X105893809Y-85611607D01*
X105651904Y-85611607D01*
X105530952Y-85672083D01*
X106075238Y-86397797D02*
X105954285Y-86458273D01*
X105651904Y-86458273D01*
X105530952Y-86397797D01*
X105470476Y-86276845D01*
X105470476Y-86155892D01*
X105530952Y-86034940D01*
X105651904Y-85974464D01*
X105954285Y-85974464D01*
X106075238Y-85913988D01*
X107224285Y-85611607D02*
X107224285Y-86639702D01*
X107163809Y-86760654D01*
X107103333Y-86821130D01*
X106982380Y-86881607D01*
X106800952Y-86881607D01*
X106680000Y-86821130D01*
X107224285Y-86397797D02*
X107103333Y-86458273D01*
X106861428Y-86458273D01*
X106740476Y-86397797D01*
X106680000Y-86337321D01*
X106619523Y-86216369D01*
X106619523Y-85853511D01*
X106680000Y-85732559D01*
X106740476Y-85672083D01*
X106861428Y-85611607D01*
X107103333Y-85611607D01*
X107224285Y-85672083D01*
X108312857Y-86397797D02*
X108191904Y-86458273D01*
X107950000Y-86458273D01*
X107829047Y-86397797D01*
X107768571Y-86276845D01*
X107768571Y-85793035D01*
X107829047Y-85672083D01*
X107950000Y-85611607D01*
X108191904Y-85611607D01*
X108312857Y-85672083D01*
X108373333Y-85793035D01*
X108373333Y-85913988D01*
X107768571Y-86034940D01*
X99574047Y-88559821D02*
X99513571Y-88620297D01*
X99332142Y-88680773D01*
X99211190Y-88680773D01*
X99029761Y-88620297D01*
X98908809Y-88499345D01*
X98848333Y-88378392D01*
X98787857Y-88136488D01*
X98787857Y-87955059D01*
X98848333Y-87713154D01*
X98908809Y-87592202D01*
X99029761Y-87471250D01*
X99211190Y-87410773D01*
X99332142Y-87410773D01*
X99513571Y-87471250D01*
X99574047Y-87531726D01*
X100118333Y-88680773D02*
X100118333Y-87410773D01*
X100662619Y-88680773D02*
X100662619Y-88015535D01*
X100602142Y-87894583D01*
X100481190Y-87834107D01*
X100299761Y-87834107D01*
X100178809Y-87894583D01*
X100118333Y-87955059D01*
X101811666Y-88680773D02*
X101811666Y-88015535D01*
X101751190Y-87894583D01*
X101630238Y-87834107D01*
X101388333Y-87834107D01*
X101267380Y-87894583D01*
X101811666Y-88620297D02*
X101690714Y-88680773D01*
X101388333Y-88680773D01*
X101267380Y-88620297D01*
X101206904Y-88499345D01*
X101206904Y-88378392D01*
X101267380Y-88257440D01*
X101388333Y-88196964D01*
X101690714Y-88196964D01*
X101811666Y-88136488D01*
X102416428Y-87834107D02*
X102416428Y-88680773D01*
X102416428Y-87955059D02*
X102476904Y-87894583D01*
X102597857Y-87834107D01*
X102779285Y-87834107D01*
X102900238Y-87894583D01*
X102960714Y-88015535D01*
X102960714Y-88680773D01*
X103565476Y-87834107D02*
X103565476Y-88680773D01*
X103565476Y-87955059D02*
X103625952Y-87894583D01*
X103746904Y-87834107D01*
X103928333Y-87834107D01*
X104049285Y-87894583D01*
X104109761Y-88015535D01*
X104109761Y-88680773D01*
X105198333Y-88620297D02*
X105077380Y-88680773D01*
X104835476Y-88680773D01*
X104714523Y-88620297D01*
X104654047Y-88499345D01*
X104654047Y-88015535D01*
X104714523Y-87894583D01*
X104835476Y-87834107D01*
X105077380Y-87834107D01*
X105198333Y-87894583D01*
X105258809Y-88015535D01*
X105258809Y-88136488D01*
X104654047Y-88257440D01*
X105984523Y-88680773D02*
X105863571Y-88620297D01*
X105803095Y-88499345D01*
X105803095Y-87410773D01*
X106407857Y-88620297D02*
X106528809Y-88680773D01*
X106770714Y-88680773D01*
X106891666Y-88620297D01*
X106952142Y-88499345D01*
X106952142Y-88438869D01*
X106891666Y-88317916D01*
X106770714Y-88257440D01*
X106589285Y-88257440D01*
X106468333Y-88196964D01*
X106407857Y-88076011D01*
X106407857Y-88015535D01*
X106468333Y-87894583D01*
X106589285Y-87834107D01*
X106770714Y-87834107D01*
X106891666Y-87894583D01*
X76744285Y-86458273D02*
X76744285Y-85188273D01*
X76744285Y-85793035D02*
X77470000Y-85793035D01*
X77470000Y-86458273D02*
X77470000Y-85188273D01*
X78074761Y-86458273D02*
X78074761Y-85611607D01*
X78074761Y-85188273D02*
X78014285Y-85248750D01*
X78074761Y-85309226D01*
X78135238Y-85248750D01*
X78074761Y-85188273D01*
X78074761Y-85309226D01*
X79223809Y-85611607D02*
X79223809Y-86639702D01*
X79163333Y-86760654D01*
X79102857Y-86821130D01*
X78981904Y-86881607D01*
X78800476Y-86881607D01*
X78679523Y-86821130D01*
X79223809Y-86397797D02*
X79102857Y-86458273D01*
X78860952Y-86458273D01*
X78740000Y-86397797D01*
X78679523Y-86337321D01*
X78619047Y-86216369D01*
X78619047Y-85853511D01*
X78679523Y-85732559D01*
X78740000Y-85672083D01*
X78860952Y-85611607D01*
X79102857Y-85611607D01*
X79223809Y-85672083D01*
X79828571Y-86458273D02*
X79828571Y-85188273D01*
X80372857Y-86458273D02*
X80372857Y-85793035D01*
X80312380Y-85672083D01*
X80191428Y-85611607D01*
X80010000Y-85611607D01*
X79889047Y-85672083D01*
X79828571Y-85732559D01*
X81763809Y-85188273D02*
X82187142Y-86458273D01*
X82610476Y-85188273D01*
X83215238Y-86458273D02*
X83094285Y-86397797D01*
X83033809Y-86337321D01*
X82973333Y-86216369D01*
X82973333Y-85853511D01*
X83033809Y-85732559D01*
X83094285Y-85672083D01*
X83215238Y-85611607D01*
X83396666Y-85611607D01*
X83517619Y-85672083D01*
X83578095Y-85732559D01*
X83638571Y-85853511D01*
X83638571Y-86216369D01*
X83578095Y-86337321D01*
X83517619Y-86397797D01*
X83396666Y-86458273D01*
X83215238Y-86458273D01*
X84364285Y-86458273D02*
X84243333Y-86397797D01*
X84182857Y-86276845D01*
X84182857Y-85188273D01*
X84666666Y-85611607D02*
X85150476Y-85611607D01*
X84848095Y-85188273D02*
X84848095Y-86276845D01*
X84908571Y-86397797D01*
X85029523Y-86458273D01*
X85150476Y-86458273D01*
X86118095Y-86458273D02*
X86118095Y-85793035D01*
X86057619Y-85672083D01*
X85936666Y-85611607D01*
X85694761Y-85611607D01*
X85573809Y-85672083D01*
X86118095Y-86397797D02*
X85997142Y-86458273D01*
X85694761Y-86458273D01*
X85573809Y-86397797D01*
X85513333Y-86276845D01*
X85513333Y-86155892D01*
X85573809Y-86034940D01*
X85694761Y-85974464D01*
X85997142Y-85974464D01*
X86118095Y-85913988D01*
X87267142Y-85611607D02*
X87267142Y-86639702D01*
X87206666Y-86760654D01*
X87146190Y-86821130D01*
X87025238Y-86881607D01*
X86843809Y-86881607D01*
X86722857Y-86821130D01*
X87267142Y-86397797D02*
X87146190Y-86458273D01*
X86904285Y-86458273D01*
X86783333Y-86397797D01*
X86722857Y-86337321D01*
X86662380Y-86216369D01*
X86662380Y-85853511D01*
X86722857Y-85732559D01*
X86783333Y-85672083D01*
X86904285Y-85611607D01*
X87146190Y-85611607D01*
X87267142Y-85672083D01*
X88355714Y-86397797D02*
X88234761Y-86458273D01*
X87992857Y-86458273D01*
X87871904Y-86397797D01*
X87811428Y-86276845D01*
X87811428Y-85793035D01*
X87871904Y-85672083D01*
X87992857Y-85611607D01*
X88234761Y-85611607D01*
X88355714Y-85672083D01*
X88416190Y-85793035D01*
X88416190Y-85913988D01*
X87811428Y-86034940D01*
X79254047Y-88559821D02*
X79193571Y-88620297D01*
X79012142Y-88680773D01*
X78891190Y-88680773D01*
X78709761Y-88620297D01*
X78588809Y-88499345D01*
X78528333Y-88378392D01*
X78467857Y-88136488D01*
X78467857Y-87955059D01*
X78528333Y-87713154D01*
X78588809Y-87592202D01*
X78709761Y-87471250D01*
X78891190Y-87410773D01*
X79012142Y-87410773D01*
X79193571Y-87471250D01*
X79254047Y-87531726D01*
X79798333Y-88680773D02*
X79798333Y-87410773D01*
X80342619Y-88680773D02*
X80342619Y-88015535D01*
X80282142Y-87894583D01*
X80161190Y-87834107D01*
X79979761Y-87834107D01*
X79858809Y-87894583D01*
X79798333Y-87955059D01*
X81491666Y-88680773D02*
X81491666Y-88015535D01*
X81431190Y-87894583D01*
X81310238Y-87834107D01*
X81068333Y-87834107D01*
X80947380Y-87894583D01*
X81491666Y-88620297D02*
X81370714Y-88680773D01*
X81068333Y-88680773D01*
X80947380Y-88620297D01*
X80886904Y-88499345D01*
X80886904Y-88378392D01*
X80947380Y-88257440D01*
X81068333Y-88196964D01*
X81370714Y-88196964D01*
X81491666Y-88136488D01*
X82096428Y-87834107D02*
X82096428Y-88680773D01*
X82096428Y-87955059D02*
X82156904Y-87894583D01*
X82277857Y-87834107D01*
X82459285Y-87834107D01*
X82580238Y-87894583D01*
X82640714Y-88015535D01*
X82640714Y-88680773D01*
X83245476Y-87834107D02*
X83245476Y-88680773D01*
X83245476Y-87955059D02*
X83305952Y-87894583D01*
X83426904Y-87834107D01*
X83608333Y-87834107D01*
X83729285Y-87894583D01*
X83789761Y-88015535D01*
X83789761Y-88680773D01*
X84878333Y-88620297D02*
X84757380Y-88680773D01*
X84515476Y-88680773D01*
X84394523Y-88620297D01*
X84334047Y-88499345D01*
X84334047Y-88015535D01*
X84394523Y-87894583D01*
X84515476Y-87834107D01*
X84757380Y-87834107D01*
X84878333Y-87894583D01*
X84938809Y-88015535D01*
X84938809Y-88136488D01*
X84334047Y-88257440D01*
X85664523Y-88680773D02*
X85543571Y-88620297D01*
X85483095Y-88499345D01*
X85483095Y-87410773D01*
X86087857Y-88620297D02*
X86208809Y-88680773D01*
X86450714Y-88680773D01*
X86571666Y-88620297D01*
X86632142Y-88499345D01*
X86632142Y-88438869D01*
X86571666Y-88317916D01*
X86450714Y-88257440D01*
X86269285Y-88257440D01*
X86148333Y-88196964D01*
X86087857Y-88076011D01*
X86087857Y-88015535D01*
X86148333Y-87894583D01*
X86269285Y-87834107D01*
X86450714Y-87834107D01*
X86571666Y-87894583D01*
X105984523Y-131409470D02*
X105984523Y-130562803D01*
X107254523Y-131107089D01*
X103444523Y-130744232D02*
X103444523Y-130986136D01*
X103505000Y-131107089D01*
X103565476Y-131167565D01*
X103746904Y-131288517D01*
X103988809Y-131348994D01*
X104472619Y-131348994D01*
X104593571Y-131288517D01*
X104654047Y-131228041D01*
X104714523Y-131107089D01*
X104714523Y-130865184D01*
X104654047Y-130744232D01*
X104593571Y-130683755D01*
X104472619Y-130623279D01*
X104170238Y-130623279D01*
X104049285Y-130683755D01*
X103988809Y-130744232D01*
X103928333Y-130865184D01*
X103928333Y-131107089D01*
X103988809Y-131228041D01*
X104049285Y-131288517D01*
X104170238Y-131348994D01*
X100904523Y-130683755D02*
X100904523Y-131288517D01*
X101509285Y-131348994D01*
X101448809Y-131288517D01*
X101388333Y-131167565D01*
X101388333Y-130865184D01*
X101448809Y-130744232D01*
X101509285Y-130683755D01*
X101630238Y-130623279D01*
X101932619Y-130623279D01*
X102053571Y-130683755D01*
X102114047Y-130744232D01*
X102174523Y-130865184D01*
X102174523Y-131167565D01*
X102114047Y-131288517D01*
X102053571Y-131348994D01*
X98787857Y-130744232D02*
X99634523Y-130744232D01*
X98304047Y-131046613D02*
X99211190Y-131348994D01*
X99211190Y-130562803D01*
X85664523Y-131409470D02*
X85664523Y-130623279D01*
X86148333Y-131046613D01*
X86148333Y-130865184D01*
X86208809Y-130744232D01*
X86269285Y-130683755D01*
X86390238Y-130623279D01*
X86692619Y-130623279D01*
X86813571Y-130683755D01*
X86874047Y-130744232D01*
X86934523Y-130865184D01*
X86934523Y-131228041D01*
X86874047Y-131348994D01*
X86813571Y-131409470D01*
X83245476Y-131348994D02*
X83185000Y-131288517D01*
X83124523Y-131167565D01*
X83124523Y-130865184D01*
X83185000Y-130744232D01*
X83245476Y-130683755D01*
X83366428Y-130623279D01*
X83487380Y-130623279D01*
X83668809Y-130683755D01*
X84394523Y-131409470D01*
X84394523Y-130623279D01*
X81854523Y-130623279D02*
X81854523Y-131348994D01*
X81854523Y-130986136D02*
X80584523Y-130986136D01*
X80765952Y-131107089D01*
X80886904Y-131228041D01*
X80947380Y-131348994D01*
X78044523Y-131046613D02*
X78044523Y-130925660D01*
X78105000Y-130804708D01*
X78165476Y-130744232D01*
X78286428Y-130683755D01*
X78528333Y-130623279D01*
X78830714Y-130623279D01*
X79072619Y-130683755D01*
X79193571Y-130744232D01*
X79254047Y-130804708D01*
X79314523Y-130925660D01*
X79314523Y-131046613D01*
X79254047Y-131167565D01*
X79193571Y-131228041D01*
X79072619Y-131288517D01*
X78830714Y-131348994D01*
X78528333Y-131348994D01*
X78286428Y-131288517D01*
X78165476Y-131228041D01*
X78105000Y-131167565D01*
X78044523Y-131046613D01*
X112304285Y-105984523D02*
X112727619Y-107254523D01*
X113150952Y-105984523D01*
X113574285Y-107254523D02*
X113574285Y-106407857D01*
X113574285Y-105984523D02*
X113513809Y-106045000D01*
X113574285Y-106105476D01*
X113634761Y-106045000D01*
X113574285Y-105984523D01*
X113574285Y-106105476D01*
X114118571Y-107194047D02*
X114239523Y-107254523D01*
X114481428Y-107254523D01*
X114602380Y-107194047D01*
X114662857Y-107073095D01*
X114662857Y-107012619D01*
X114602380Y-106891666D01*
X114481428Y-106831190D01*
X114300000Y-106831190D01*
X114179047Y-106770714D01*
X114118571Y-106649761D01*
X114118571Y-106589285D01*
X114179047Y-106468333D01*
X114300000Y-106407857D01*
X114481428Y-106407857D01*
X114602380Y-106468333D01*
X115207142Y-107254523D02*
X115207142Y-106407857D01*
X115207142Y-105984523D02*
X115146666Y-106045000D01*
X115207142Y-106105476D01*
X115267619Y-106045000D01*
X115207142Y-105984523D01*
X115207142Y-106105476D01*
X115811904Y-107254523D02*
X115811904Y-105984523D01*
X115811904Y-106468333D02*
X115932857Y-106407857D01*
X116174761Y-106407857D01*
X116295714Y-106468333D01*
X116356190Y-106528809D01*
X116416666Y-106649761D01*
X116416666Y-107012619D01*
X116356190Y-107133571D01*
X116295714Y-107194047D01*
X116174761Y-107254523D01*
X115932857Y-107254523D01*
X115811904Y-107194047D01*
X117142380Y-107254523D02*
X117021428Y-107194047D01*
X116960952Y-107073095D01*
X116960952Y-105984523D01*
X118110000Y-107194047D02*
X117989047Y-107254523D01*
X117747142Y-107254523D01*
X117626190Y-107194047D01*
X117565714Y-107073095D01*
X117565714Y-106589285D01*
X117626190Y-106468333D01*
X117747142Y-106407857D01*
X117989047Y-106407857D01*
X118110000Y-106468333D01*
X118170476Y-106589285D01*
X118170476Y-106710238D01*
X117565714Y-106831190D01*
X120105714Y-106589285D02*
X120287142Y-106649761D01*
X120347619Y-106710238D01*
X120408095Y-106831190D01*
X120408095Y-107012619D01*
X120347619Y-107133571D01*
X120287142Y-107194047D01*
X120166190Y-107254523D01*
X119682380Y-107254523D01*
X119682380Y-105984523D01*
X120105714Y-105984523D01*
X120226666Y-106045000D01*
X120287142Y-106105476D01*
X120347619Y-106226428D01*
X120347619Y-106347380D01*
X120287142Y-106468333D01*
X120226666Y-106528809D01*
X120105714Y-106589285D01*
X119682380Y-106589285D01*
X121496666Y-107254523D02*
X121496666Y-106589285D01*
X121436190Y-106468333D01*
X121315238Y-106407857D01*
X121073333Y-106407857D01*
X120952380Y-106468333D01*
X121496666Y-107194047D02*
X121375714Y-107254523D01*
X121073333Y-107254523D01*
X120952380Y-107194047D01*
X120891904Y-107073095D01*
X120891904Y-106952142D01*
X120952380Y-106831190D01*
X121073333Y-106770714D01*
X121375714Y-106770714D01*
X121496666Y-106710238D01*
X122645714Y-107194047D02*
X122524761Y-107254523D01*
X122282857Y-107254523D01*
X122161904Y-107194047D01*
X122101428Y-107133571D01*
X122040952Y-107012619D01*
X122040952Y-106649761D01*
X122101428Y-106528809D01*
X122161904Y-106468333D01*
X122282857Y-106407857D01*
X122524761Y-106407857D01*
X122645714Y-106468333D01*
X123190000Y-107254523D02*
X123190000Y-105984523D01*
X123310952Y-106770714D02*
X123673809Y-107254523D01*
X123673809Y-106407857D02*
X123190000Y-106891666D01*
X124399523Y-107254523D02*
X124278571Y-107194047D01*
X124218095Y-107073095D01*
X124218095Y-105984523D01*
X124883333Y-107254523D02*
X124883333Y-106407857D01*
X124883333Y-105984523D02*
X124822857Y-106045000D01*
X124883333Y-106105476D01*
X124943809Y-106045000D01*
X124883333Y-105984523D01*
X124883333Y-106105476D01*
X126032380Y-106407857D02*
X126032380Y-107435952D01*
X125971904Y-107556904D01*
X125911428Y-107617380D01*
X125790476Y-107677857D01*
X125609047Y-107677857D01*
X125488095Y-107617380D01*
X126032380Y-107194047D02*
X125911428Y-107254523D01*
X125669523Y-107254523D01*
X125548571Y-107194047D01*
X125488095Y-107133571D01*
X125427619Y-107012619D01*
X125427619Y-106649761D01*
X125488095Y-106528809D01*
X125548571Y-106468333D01*
X125669523Y-106407857D01*
X125911428Y-106407857D01*
X126032380Y-106468333D01*
X126637142Y-107254523D02*
X126637142Y-105984523D01*
X127181428Y-107254523D02*
X127181428Y-106589285D01*
X127120952Y-106468333D01*
X127000000Y-106407857D01*
X126818571Y-106407857D01*
X126697619Y-106468333D01*
X126637142Y-106528809D01*
X127604761Y-106407857D02*
X128088571Y-106407857D01*
X127786190Y-105984523D02*
X127786190Y-107073095D01*
X127846666Y-107194047D01*
X127967619Y-107254523D01*
X128088571Y-107254523D01*
X129721428Y-105984523D02*
X129842380Y-105984523D01*
X129963333Y-106045000D01*
X130023809Y-106105476D01*
X130084285Y-106226428D01*
X130144761Y-106468333D01*
X130144761Y-106770714D01*
X130084285Y-107012619D01*
X130023809Y-107133571D01*
X129963333Y-107194047D01*
X129842380Y-107254523D01*
X129721428Y-107254523D01*
X129600476Y-107194047D01*
X129540000Y-107133571D01*
X129479523Y-107012619D01*
X129419047Y-106770714D01*
X129419047Y-106468333D01*
X129479523Y-106226428D01*
X129540000Y-106105476D01*
X129600476Y-106045000D01*
X129721428Y-105984523D01*
X114662857Y-104714523D02*
X114662857Y-103444523D01*
X115993333Y-104714523D02*
X115570000Y-104109761D01*
X115267619Y-104714523D02*
X115267619Y-103444523D01*
X115751428Y-103444523D01*
X115872380Y-103505000D01*
X115932857Y-103565476D01*
X115993333Y-103686428D01*
X115993333Y-103867857D01*
X115932857Y-103988809D01*
X115872380Y-104049285D01*
X115751428Y-104109761D01*
X115267619Y-104109761D01*
X117928571Y-104049285D02*
X118110000Y-104109761D01*
X118170476Y-104170238D01*
X118230952Y-104291190D01*
X118230952Y-104472619D01*
X118170476Y-104593571D01*
X118110000Y-104654047D01*
X117989047Y-104714523D01*
X117505238Y-104714523D01*
X117505238Y-103444523D01*
X117928571Y-103444523D01*
X118049523Y-103505000D01*
X118110000Y-103565476D01*
X118170476Y-103686428D01*
X118170476Y-103807380D01*
X118110000Y-103928333D01*
X118049523Y-103988809D01*
X117928571Y-104049285D01*
X117505238Y-104049285D01*
X119319523Y-104714523D02*
X119319523Y-104049285D01*
X119259047Y-103928333D01*
X119138095Y-103867857D01*
X118896190Y-103867857D01*
X118775238Y-103928333D01*
X119319523Y-104654047D02*
X119198571Y-104714523D01*
X118896190Y-104714523D01*
X118775238Y-104654047D01*
X118714761Y-104533095D01*
X118714761Y-104412142D01*
X118775238Y-104291190D01*
X118896190Y-104230714D01*
X119198571Y-104230714D01*
X119319523Y-104170238D01*
X120468571Y-104654047D02*
X120347619Y-104714523D01*
X120105714Y-104714523D01*
X119984761Y-104654047D01*
X119924285Y-104593571D01*
X119863809Y-104472619D01*
X119863809Y-104109761D01*
X119924285Y-103988809D01*
X119984761Y-103928333D01*
X120105714Y-103867857D01*
X120347619Y-103867857D01*
X120468571Y-103928333D01*
X121012857Y-104714523D02*
X121012857Y-103444523D01*
X121133809Y-104230714D02*
X121496666Y-104714523D01*
X121496666Y-103867857D02*
X121012857Y-104351666D01*
X122222380Y-104714523D02*
X122101428Y-104654047D01*
X122040952Y-104533095D01*
X122040952Y-103444523D01*
X122706190Y-104714523D02*
X122706190Y-103867857D01*
X122706190Y-103444523D02*
X122645714Y-103505000D01*
X122706190Y-103565476D01*
X122766666Y-103505000D01*
X122706190Y-103444523D01*
X122706190Y-103565476D01*
X123855238Y-103867857D02*
X123855238Y-104895952D01*
X123794761Y-105016904D01*
X123734285Y-105077380D01*
X123613333Y-105137857D01*
X123431904Y-105137857D01*
X123310952Y-105077380D01*
X123855238Y-104654047D02*
X123734285Y-104714523D01*
X123492380Y-104714523D01*
X123371428Y-104654047D01*
X123310952Y-104593571D01*
X123250476Y-104472619D01*
X123250476Y-104109761D01*
X123310952Y-103988809D01*
X123371428Y-103928333D01*
X123492380Y-103867857D01*
X123734285Y-103867857D01*
X123855238Y-103928333D01*
X124460000Y-104714523D02*
X124460000Y-103444523D01*
X125004285Y-104714523D02*
X125004285Y-104049285D01*
X124943809Y-103928333D01*
X124822857Y-103867857D01*
X124641428Y-103867857D01*
X124520476Y-103928333D01*
X124460000Y-103988809D01*
X125427619Y-103867857D02*
X125911428Y-103867857D01*
X125609047Y-103444523D02*
X125609047Y-104533095D01*
X125669523Y-104654047D01*
X125790476Y-104714523D01*
X125911428Y-104714523D01*
X127544285Y-103444523D02*
X127665238Y-103444523D01*
X127786190Y-103505000D01*
X127846666Y-103565476D01*
X127907142Y-103686428D01*
X127967619Y-103928333D01*
X127967619Y-104230714D01*
X127907142Y-104472619D01*
X127846666Y-104593571D01*
X127786190Y-104654047D01*
X127665238Y-104714523D01*
X127544285Y-104714523D01*
X127423333Y-104654047D01*
X127362857Y-104593571D01*
X127302380Y-104472619D01*
X127241904Y-104230714D01*
X127241904Y-103928333D01*
X127302380Y-103686428D01*
X127362857Y-103565476D01*
X127423333Y-103505000D01*
X127544285Y-103444523D01*
X188655476Y-115811904D02*
X188595000Y-115751428D01*
X188534523Y-115630476D01*
X188534523Y-115328095D01*
X188595000Y-115207142D01*
X188655476Y-115146666D01*
X188776428Y-115086190D01*
X188897380Y-115086190D01*
X189078809Y-115146666D01*
X189804523Y-115872380D01*
X189804523Y-115086190D01*
X188957857Y-113997619D02*
X189804523Y-113997619D01*
X188474047Y-114300000D02*
X189381190Y-114602380D01*
X189381190Y-113816190D01*
X188534523Y-113513809D02*
X189804523Y-113090476D01*
X188534523Y-112667142D01*
D12*
X130810000Y-80010000D02*
X130810000Y-130810000D01*
X168910000Y-80010000D02*
X168910000Y-130810000D01*
X111760000Y-80010000D02*
X187960000Y-80010000D01*
X111760000Y-130810000D02*
X111760000Y-80010000D01*
X187960000Y-130810000D02*
X111760000Y-130810000D01*
D14*
X76562857Y-133809619D02*
X76562857Y-132793619D01*
X76998285Y-133809619D02*
X76998285Y-133277428D01*
X76949904Y-133180666D01*
X76853142Y-133132285D01*
X76708000Y-133132285D01*
X76611238Y-133180666D01*
X76562857Y-133229047D01*
X77336952Y-133132285D02*
X77724000Y-133132285D01*
X77482095Y-132793619D02*
X77482095Y-133664476D01*
X77530476Y-133761238D01*
X77627238Y-133809619D01*
X77724000Y-133809619D01*
X77917523Y-133132285D02*
X78304571Y-133132285D01*
X78062666Y-132793619D02*
X78062666Y-133664476D01*
X78111047Y-133761238D01*
X78207809Y-133809619D01*
X78304571Y-133809619D01*
X78643238Y-133132285D02*
X78643238Y-134148285D01*
X78643238Y-133180666D02*
X78740000Y-133132285D01*
X78933523Y-133132285D01*
X79030285Y-133180666D01*
X79078666Y-133229047D01*
X79127047Y-133325809D01*
X79127047Y-133616095D01*
X79078666Y-133712857D01*
X79030285Y-133761238D01*
X78933523Y-133809619D01*
X78740000Y-133809619D01*
X78643238Y-133761238D01*
X79514095Y-133761238D02*
X79610857Y-133809619D01*
X79804380Y-133809619D01*
X79901142Y-133761238D01*
X79949523Y-133664476D01*
X79949523Y-133616095D01*
X79901142Y-133519333D01*
X79804380Y-133470952D01*
X79659238Y-133470952D01*
X79562476Y-133422571D01*
X79514095Y-133325809D01*
X79514095Y-133277428D01*
X79562476Y-133180666D01*
X79659238Y-133132285D01*
X79804380Y-133132285D01*
X79901142Y-133180666D01*
X80384952Y-133712857D02*
X80433333Y-133761238D01*
X80384952Y-133809619D01*
X80336571Y-133761238D01*
X80384952Y-133712857D01*
X80384952Y-133809619D01*
X80384952Y-133180666D02*
X80433333Y-133229047D01*
X80384952Y-133277428D01*
X80336571Y-133229047D01*
X80384952Y-133180666D01*
X80384952Y-133277428D01*
X81594476Y-132745238D02*
X80723619Y-134051523D01*
X82658857Y-132745238D02*
X81788000Y-134051523D01*
X83432952Y-133132285D02*
X83432952Y-133954761D01*
X83384571Y-134051523D01*
X83336190Y-134099904D01*
X83239428Y-134148285D01*
X83094285Y-134148285D01*
X82997523Y-134099904D01*
X83432952Y-133761238D02*
X83336190Y-133809619D01*
X83142666Y-133809619D01*
X83045904Y-133761238D01*
X82997523Y-133712857D01*
X82949142Y-133616095D01*
X82949142Y-133325809D01*
X82997523Y-133229047D01*
X83045904Y-133180666D01*
X83142666Y-133132285D01*
X83336190Y-133132285D01*
X83432952Y-133180666D01*
X83916761Y-133809619D02*
X83916761Y-133132285D01*
X83916761Y-132793619D02*
X83868380Y-132842000D01*
X83916761Y-132890380D01*
X83965142Y-132842000D01*
X83916761Y-132793619D01*
X83916761Y-132890380D01*
X84255428Y-133132285D02*
X84642476Y-133132285D01*
X84400571Y-132793619D02*
X84400571Y-133664476D01*
X84448952Y-133761238D01*
X84545714Y-133809619D01*
X84642476Y-133809619D01*
X84981142Y-133809619D02*
X84981142Y-132793619D01*
X85416571Y-133809619D02*
X85416571Y-133277428D01*
X85368190Y-133180666D01*
X85271428Y-133132285D01*
X85126285Y-133132285D01*
X85029523Y-133180666D01*
X84981142Y-133229047D01*
X86335809Y-133132285D02*
X86335809Y-133809619D01*
X85900380Y-133132285D02*
X85900380Y-133664476D01*
X85948761Y-133761238D01*
X86045523Y-133809619D01*
X86190666Y-133809619D01*
X86287428Y-133761238D01*
X86335809Y-133712857D01*
X86819619Y-133809619D02*
X86819619Y-132793619D01*
X86819619Y-133180666D02*
X86916380Y-133132285D01*
X87109904Y-133132285D01*
X87206666Y-133180666D01*
X87255047Y-133229047D01*
X87303428Y-133325809D01*
X87303428Y-133616095D01*
X87255047Y-133712857D01*
X87206666Y-133761238D01*
X87109904Y-133809619D01*
X86916380Y-133809619D01*
X86819619Y-133761238D01*
X87738857Y-133712857D02*
X87787238Y-133761238D01*
X87738857Y-133809619D01*
X87690476Y-133761238D01*
X87738857Y-133712857D01*
X87738857Y-133809619D01*
X88658095Y-133761238D02*
X88561333Y-133809619D01*
X88367809Y-133809619D01*
X88271047Y-133761238D01*
X88222666Y-133712857D01*
X88174285Y-133616095D01*
X88174285Y-133325809D01*
X88222666Y-133229047D01*
X88271047Y-133180666D01*
X88367809Y-133132285D01*
X88561333Y-133132285D01*
X88658095Y-133180666D01*
X89238666Y-133809619D02*
X89141904Y-133761238D01*
X89093523Y-133712857D01*
X89045142Y-133616095D01*
X89045142Y-133325809D01*
X89093523Y-133229047D01*
X89141904Y-133180666D01*
X89238666Y-133132285D01*
X89383809Y-133132285D01*
X89480571Y-133180666D01*
X89528952Y-133229047D01*
X89577333Y-133325809D01*
X89577333Y-133616095D01*
X89528952Y-133712857D01*
X89480571Y-133761238D01*
X89383809Y-133809619D01*
X89238666Y-133809619D01*
X90012761Y-133809619D02*
X90012761Y-133132285D01*
X90012761Y-133229047D02*
X90061142Y-133180666D01*
X90157904Y-133132285D01*
X90303047Y-133132285D01*
X90399809Y-133180666D01*
X90448190Y-133277428D01*
X90448190Y-133809619D01*
X90448190Y-133277428D02*
X90496571Y-133180666D01*
X90593333Y-133132285D01*
X90738476Y-133132285D01*
X90835238Y-133180666D01*
X90883619Y-133277428D01*
X90883619Y-133809619D01*
X92093142Y-132745238D02*
X91222285Y-134051523D01*
X92431809Y-133132285D02*
X92431809Y-134003142D01*
X92383428Y-134099904D01*
X92286666Y-134148285D01*
X92238285Y-134148285D01*
X92431809Y-132793619D02*
X92383428Y-132842000D01*
X92431809Y-132890380D01*
X92480190Y-132842000D01*
X92431809Y-132793619D01*
X92431809Y-132890380D01*
X93351047Y-133809619D02*
X93351047Y-133277428D01*
X93302666Y-133180666D01*
X93205904Y-133132285D01*
X93012380Y-133132285D01*
X92915619Y-133180666D01*
X93351047Y-133761238D02*
X93254285Y-133809619D01*
X93012380Y-133809619D01*
X92915619Y-133761238D01*
X92867238Y-133664476D01*
X92867238Y-133567714D01*
X92915619Y-133470952D01*
X93012380Y-133422571D01*
X93254285Y-133422571D01*
X93351047Y-133374190D01*
X93834857Y-133132285D02*
X93834857Y-133809619D01*
X93834857Y-133229047D02*
X93883238Y-133180666D01*
X93980000Y-133132285D01*
X94125142Y-133132285D01*
X94221904Y-133180666D01*
X94270285Y-133277428D01*
X94270285Y-133809619D01*
X95141142Y-133761238D02*
X95044380Y-133809619D01*
X94850857Y-133809619D01*
X94754095Y-133761238D01*
X94705714Y-133664476D01*
X94705714Y-133277428D01*
X94754095Y-133180666D01*
X94850857Y-133132285D01*
X95044380Y-133132285D01*
X95141142Y-133180666D01*
X95189523Y-133277428D01*
X95189523Y-133374190D01*
X94705714Y-133470952D01*
X95770095Y-133809619D02*
X95673333Y-133761238D01*
X95624952Y-133664476D01*
X95624952Y-132793619D01*
X96157142Y-133809619D02*
X96157142Y-133132285D01*
X96157142Y-132793619D02*
X96108761Y-132842000D01*
X96157142Y-132890380D01*
X96205523Y-132842000D01*
X96157142Y-132793619D01*
X96157142Y-132890380D01*
X97076380Y-133809619D02*
X97076380Y-133277428D01*
X97028000Y-133180666D01*
X96931238Y-133132285D01*
X96737714Y-133132285D01*
X96640952Y-133180666D01*
X97076380Y-133761238D02*
X96979619Y-133809619D01*
X96737714Y-133809619D01*
X96640952Y-133761238D01*
X96592571Y-133664476D01*
X96592571Y-133567714D01*
X96640952Y-133470952D01*
X96737714Y-133422571D01*
X96979619Y-133422571D01*
X97076380Y-133374190D01*
X97560190Y-133422571D02*
X98334285Y-133422571D01*
X98818095Y-133809619D02*
X98818095Y-133132285D01*
X98818095Y-133229047D02*
X98866476Y-133180666D01*
X98963238Y-133132285D01*
X99108380Y-133132285D01*
X99205142Y-133180666D01*
X99253523Y-133277428D01*
X99253523Y-133809619D01*
X99253523Y-133277428D02*
X99301904Y-133180666D01*
X99398666Y-133132285D01*
X99543809Y-133132285D01*
X99640571Y-133180666D01*
X99688952Y-133277428D01*
X99688952Y-133809619D01*
X100317904Y-133809619D02*
X100221142Y-133761238D01*
X100172761Y-133712857D01*
X100124380Y-133616095D01*
X100124380Y-133325809D01*
X100172761Y-133229047D01*
X100221142Y-133180666D01*
X100317904Y-133132285D01*
X100463047Y-133132285D01*
X100559809Y-133180666D01*
X100608190Y-133229047D01*
X100656571Y-133325809D01*
X100656571Y-133616095D01*
X100608190Y-133712857D01*
X100559809Y-133761238D01*
X100463047Y-133809619D01*
X100317904Y-133809619D01*
X101527428Y-133809619D02*
X101527428Y-132793619D01*
X101527428Y-133761238D02*
X101430666Y-133809619D01*
X101237142Y-133809619D01*
X101140380Y-133761238D01*
X101092000Y-133712857D01*
X101043619Y-133616095D01*
X101043619Y-133325809D01*
X101092000Y-133229047D01*
X101140380Y-133180666D01*
X101237142Y-133132285D01*
X101430666Y-133132285D01*
X101527428Y-133180666D01*
X102446666Y-133132285D02*
X102446666Y-133809619D01*
X102011238Y-133132285D02*
X102011238Y-133664476D01*
X102059619Y-133761238D01*
X102156380Y-133809619D01*
X102301523Y-133809619D01*
X102398285Y-133761238D01*
X102446666Y-133712857D01*
X103075619Y-133809619D02*
X102978857Y-133761238D01*
X102930476Y-133664476D01*
X102930476Y-132793619D01*
X103898095Y-133809619D02*
X103898095Y-133277428D01*
X103849714Y-133180666D01*
X103752952Y-133132285D01*
X103559428Y-133132285D01*
X103462666Y-133180666D01*
X103898095Y-133761238D02*
X103801333Y-133809619D01*
X103559428Y-133809619D01*
X103462666Y-133761238D01*
X103414285Y-133664476D01*
X103414285Y-133567714D01*
X103462666Y-133470952D01*
X103559428Y-133422571D01*
X103801333Y-133422571D01*
X103898095Y-133374190D01*
X104381904Y-133809619D02*
X104381904Y-133132285D01*
X104381904Y-133325809D02*
X104430285Y-133229047D01*
X104478666Y-133180666D01*
X104575428Y-133132285D01*
X104672190Y-133132285D01*
X105010857Y-133422571D02*
X105784952Y-133422571D01*
X106704190Y-133809619D02*
X106704190Y-132793619D01*
X106704190Y-133761238D02*
X106607428Y-133809619D01*
X106413904Y-133809619D01*
X106317142Y-133761238D01*
X106268761Y-133712857D01*
X106220380Y-133616095D01*
X106220380Y-133325809D01*
X106268761Y-133229047D01*
X106317142Y-133180666D01*
X106413904Y-133132285D01*
X106607428Y-133132285D01*
X106704190Y-133180666D01*
X107575047Y-133761238D02*
X107478285Y-133809619D01*
X107284761Y-133809619D01*
X107188000Y-133761238D01*
X107139619Y-133664476D01*
X107139619Y-133277428D01*
X107188000Y-133180666D01*
X107284761Y-133132285D01*
X107478285Y-133132285D01*
X107575047Y-133180666D01*
X107623428Y-133277428D01*
X107623428Y-133374190D01*
X107139619Y-133470952D01*
X107962095Y-133132285D02*
X108204000Y-133809619D01*
X108445904Y-133132285D01*
X108832952Y-133809619D02*
X108832952Y-133132285D01*
X108832952Y-132793619D02*
X108784571Y-132842000D01*
X108832952Y-132890380D01*
X108881333Y-132842000D01*
X108832952Y-132793619D01*
X108832952Y-132890380D01*
X109752190Y-133761238D02*
X109655428Y-133809619D01*
X109461904Y-133809619D01*
X109365142Y-133761238D01*
X109316761Y-133712857D01*
X109268380Y-133616095D01*
X109268380Y-133325809D01*
X109316761Y-133229047D01*
X109365142Y-133180666D01*
X109461904Y-133132285D01*
X109655428Y-133132285D01*
X109752190Y-133180666D01*
X110574666Y-133761238D02*
X110477904Y-133809619D01*
X110284380Y-133809619D01*
X110187619Y-133761238D01*
X110139238Y-133664476D01*
X110139238Y-133277428D01*
X110187619Y-133180666D01*
X110284380Y-133132285D01*
X110477904Y-133132285D01*
X110574666Y-133180666D01*
X110623047Y-133277428D01*
X110623047Y-133374190D01*
X110139238Y-133470952D01*
X111010095Y-133761238D02*
X111106857Y-133809619D01*
X111300380Y-133809619D01*
X111397142Y-133761238D01*
X111445523Y-133664476D01*
X111445523Y-133616095D01*
X111397142Y-133519333D01*
X111300380Y-133470952D01*
X111155238Y-133470952D01*
X111058476Y-133422571D01*
X111010095Y-133325809D01*
X111010095Y-133277428D01*
X111058476Y-133180666D01*
X111155238Y-133132285D01*
X111300380Y-133132285D01*
X111397142Y-133180666D01*
D15*
X83680904Y-77421619D02*
X83680904Y-78147333D01*
X83632523Y-78292476D01*
X83535761Y-78389238D01*
X83390619Y-78437619D01*
X83293857Y-78437619D01*
X84600142Y-78437619D02*
X84600142Y-77905428D01*
X84551761Y-77808666D01*
X84455000Y-77760285D01*
X84261476Y-77760285D01*
X84164714Y-77808666D01*
X84600142Y-78389238D02*
X84503380Y-78437619D01*
X84261476Y-78437619D01*
X84164714Y-78389238D01*
X84116333Y-78292476D01*
X84116333Y-78195714D01*
X84164714Y-78098952D01*
X84261476Y-78050571D01*
X84503380Y-78050571D01*
X84600142Y-78002190D01*
X85083952Y-77760285D02*
X85083952Y-78437619D01*
X85083952Y-77857047D02*
X85132333Y-77808666D01*
X85229095Y-77760285D01*
X85374238Y-77760285D01*
X85471000Y-77808666D01*
X85519380Y-77905428D01*
X85519380Y-78437619D01*
X86390238Y-78389238D02*
X86293476Y-78437619D01*
X86099952Y-78437619D01*
X86003190Y-78389238D01*
X85954809Y-78292476D01*
X85954809Y-77905428D01*
X86003190Y-77808666D01*
X86099952Y-77760285D01*
X86293476Y-77760285D01*
X86390238Y-77808666D01*
X86438619Y-77905428D01*
X86438619Y-78002190D01*
X85954809Y-78098952D01*
X87019190Y-78437619D02*
X86922428Y-78389238D01*
X86874047Y-78292476D01*
X86874047Y-77421619D01*
X87406238Y-78437619D02*
X87406238Y-77760285D01*
X87406238Y-77421619D02*
X87357857Y-77470000D01*
X87406238Y-77518380D01*
X87454619Y-77470000D01*
X87406238Y-77421619D01*
X87406238Y-77518380D01*
X88325476Y-78437619D02*
X88325476Y-77905428D01*
X88277095Y-77808666D01*
X88180333Y-77760285D01*
X87986809Y-77760285D01*
X87890047Y-77808666D01*
X88325476Y-78389238D02*
X88228714Y-78437619D01*
X87986809Y-78437619D01*
X87890047Y-78389238D01*
X87841666Y-78292476D01*
X87841666Y-78195714D01*
X87890047Y-78098952D01*
X87986809Y-78050571D01*
X88228714Y-78050571D01*
X88325476Y-78002190D01*
X89583380Y-78437619D02*
X89583380Y-77421619D01*
X89922047Y-78147333D01*
X90260714Y-77421619D01*
X90260714Y-78437619D01*
X90889666Y-78437619D02*
X90792904Y-78389238D01*
X90744523Y-78340857D01*
X90696142Y-78244095D01*
X90696142Y-77953809D01*
X90744523Y-77857047D01*
X90792904Y-77808666D01*
X90889666Y-77760285D01*
X91034809Y-77760285D01*
X91131571Y-77808666D01*
X91179952Y-77857047D01*
X91228333Y-77953809D01*
X91228333Y-78244095D01*
X91179952Y-78340857D01*
X91131571Y-78389238D01*
X91034809Y-78437619D01*
X90889666Y-78437619D01*
X92099190Y-78437619D02*
X92099190Y-77421619D01*
X92099190Y-78389238D02*
X92002428Y-78437619D01*
X91808904Y-78437619D01*
X91712142Y-78389238D01*
X91663761Y-78340857D01*
X91615380Y-78244095D01*
X91615380Y-77953809D01*
X91663761Y-77857047D01*
X91712142Y-77808666D01*
X91808904Y-77760285D01*
X92002428Y-77760285D01*
X92099190Y-77808666D01*
X93018428Y-77760285D02*
X93018428Y-78437619D01*
X92583000Y-77760285D02*
X92583000Y-78292476D01*
X92631380Y-78389238D01*
X92728142Y-78437619D01*
X92873285Y-78437619D01*
X92970047Y-78389238D01*
X93018428Y-78340857D01*
X93647380Y-78437619D02*
X93550619Y-78389238D01*
X93502238Y-78292476D01*
X93502238Y-77421619D01*
X94469857Y-78437619D02*
X94469857Y-77905428D01*
X94421476Y-77808666D01*
X94324714Y-77760285D01*
X94131190Y-77760285D01*
X94034428Y-77808666D01*
X94469857Y-78389238D02*
X94373095Y-78437619D01*
X94131190Y-78437619D01*
X94034428Y-78389238D01*
X93986047Y-78292476D01*
X93986047Y-78195714D01*
X94034428Y-78098952D01*
X94131190Y-78050571D01*
X94373095Y-78050571D01*
X94469857Y-78002190D01*
X94953666Y-78437619D02*
X94953666Y-77760285D01*
X94953666Y-77953809D02*
X95002047Y-77857047D01*
X95050428Y-77808666D01*
X95147190Y-77760285D01*
X95243952Y-77760285D01*
X96356714Y-78437619D02*
X96356714Y-77421619D01*
X96598619Y-77421619D01*
X96743761Y-77470000D01*
X96840523Y-77566761D01*
X96888904Y-77663523D01*
X96937285Y-77857047D01*
X96937285Y-78002190D01*
X96888904Y-78195714D01*
X96840523Y-78292476D01*
X96743761Y-78389238D01*
X96598619Y-78437619D01*
X96356714Y-78437619D01*
X97759761Y-78389238D02*
X97663000Y-78437619D01*
X97469476Y-78437619D01*
X97372714Y-78389238D01*
X97324333Y-78292476D01*
X97324333Y-77905428D01*
X97372714Y-77808666D01*
X97469476Y-77760285D01*
X97663000Y-77760285D01*
X97759761Y-77808666D01*
X97808142Y-77905428D01*
X97808142Y-78002190D01*
X97324333Y-78098952D01*
X98146809Y-77760285D02*
X98388714Y-78437619D01*
X98630619Y-77760285D01*
X99017666Y-78437619D02*
X99017666Y-77760285D01*
X99017666Y-77421619D02*
X98969285Y-77470000D01*
X99017666Y-77518380D01*
X99066047Y-77470000D01*
X99017666Y-77421619D01*
X99017666Y-77518380D01*
X99936904Y-78389238D02*
X99840142Y-78437619D01*
X99646619Y-78437619D01*
X99549857Y-78389238D01*
X99501476Y-78340857D01*
X99453095Y-78244095D01*
X99453095Y-77953809D01*
X99501476Y-77857047D01*
X99549857Y-77808666D01*
X99646619Y-77760285D01*
X99840142Y-77760285D01*
X99936904Y-77808666D01*
X100759380Y-78389238D02*
X100662619Y-78437619D01*
X100469095Y-78437619D01*
X100372333Y-78389238D01*
X100323952Y-78292476D01*
X100323952Y-77905428D01*
X100372333Y-77808666D01*
X100469095Y-77760285D01*
X100662619Y-77760285D01*
X100759380Y-77808666D01*
X100807761Y-77905428D01*
X100807761Y-78002190D01*
X100323952Y-78098952D01*
X84745285Y-80215619D02*
X84745285Y-79199619D01*
X84745285Y-79586666D02*
X84842047Y-79538285D01*
X85035571Y-79538285D01*
X85132333Y-79586666D01*
X85180714Y-79635047D01*
X85229095Y-79731809D01*
X85229095Y-80022095D01*
X85180714Y-80118857D01*
X85132333Y-80167238D01*
X85035571Y-80215619D01*
X84842047Y-80215619D01*
X84745285Y-80167238D01*
X86099952Y-80215619D02*
X86099952Y-79683428D01*
X86051571Y-79586666D01*
X85954809Y-79538285D01*
X85761285Y-79538285D01*
X85664523Y-79586666D01*
X86099952Y-80167238D02*
X86003190Y-80215619D01*
X85761285Y-80215619D01*
X85664523Y-80167238D01*
X85616142Y-80070476D01*
X85616142Y-79973714D01*
X85664523Y-79876952D01*
X85761285Y-79828571D01*
X86003190Y-79828571D01*
X86099952Y-79780190D01*
X87019190Y-80167238D02*
X86922428Y-80215619D01*
X86728904Y-80215619D01*
X86632142Y-80167238D01*
X86583761Y-80118857D01*
X86535380Y-80022095D01*
X86535380Y-79731809D01*
X86583761Y-79635047D01*
X86632142Y-79586666D01*
X86728904Y-79538285D01*
X86922428Y-79538285D01*
X87019190Y-79586666D01*
X87454619Y-80215619D02*
X87454619Y-79199619D01*
X87551380Y-79828571D02*
X87841666Y-80215619D01*
X87841666Y-79538285D02*
X87454619Y-79925333D01*
X88422238Y-80215619D02*
X88325476Y-80167238D01*
X88277095Y-80070476D01*
X88277095Y-79199619D01*
X88809285Y-80215619D02*
X88809285Y-79538285D01*
X88809285Y-79199619D02*
X88760904Y-79248000D01*
X88809285Y-79296380D01*
X88857666Y-79248000D01*
X88809285Y-79199619D01*
X88809285Y-79296380D01*
X89728523Y-79538285D02*
X89728523Y-80360761D01*
X89680142Y-80457523D01*
X89631761Y-80505904D01*
X89535000Y-80554285D01*
X89389857Y-80554285D01*
X89293095Y-80505904D01*
X89728523Y-80167238D02*
X89631761Y-80215619D01*
X89438238Y-80215619D01*
X89341476Y-80167238D01*
X89293095Y-80118857D01*
X89244714Y-80022095D01*
X89244714Y-79731809D01*
X89293095Y-79635047D01*
X89341476Y-79586666D01*
X89438238Y-79538285D01*
X89631761Y-79538285D01*
X89728523Y-79586666D01*
X90212333Y-80215619D02*
X90212333Y-79199619D01*
X90647761Y-80215619D02*
X90647761Y-79683428D01*
X90599380Y-79586666D01*
X90502619Y-79538285D01*
X90357476Y-79538285D01*
X90260714Y-79586666D01*
X90212333Y-79635047D01*
X90986428Y-79538285D02*
X91373476Y-79538285D01*
X91131571Y-79199619D02*
X91131571Y-80070476D01*
X91179952Y-80167238D01*
X91276714Y-80215619D01*
X91373476Y-80215619D01*
X91470238Y-80312380D02*
X92244333Y-80312380D01*
X92921666Y-80167238D02*
X92824904Y-80215619D01*
X92631380Y-80215619D01*
X92534619Y-80167238D01*
X92486238Y-80118857D01*
X92437857Y-80022095D01*
X92437857Y-79731809D01*
X92486238Y-79635047D01*
X92534619Y-79586666D01*
X92631380Y-79538285D01*
X92824904Y-79538285D01*
X92921666Y-79586666D01*
X93502238Y-80215619D02*
X93405476Y-80167238D01*
X93357095Y-80118857D01*
X93308714Y-80022095D01*
X93308714Y-79731809D01*
X93357095Y-79635047D01*
X93405476Y-79586666D01*
X93502238Y-79538285D01*
X93647380Y-79538285D01*
X93744142Y-79586666D01*
X93792523Y-79635047D01*
X93840904Y-79731809D01*
X93840904Y-80022095D01*
X93792523Y-80118857D01*
X93744142Y-80167238D01*
X93647380Y-80215619D01*
X93502238Y-80215619D01*
X94276333Y-79538285D02*
X94276333Y-80215619D01*
X94276333Y-79635047D02*
X94324714Y-79586666D01*
X94421476Y-79538285D01*
X94566619Y-79538285D01*
X94663380Y-79586666D01*
X94711761Y-79683428D01*
X94711761Y-80215619D01*
X95050428Y-79538285D02*
X95437476Y-79538285D01*
X95195571Y-79199619D02*
X95195571Y-80070476D01*
X95243952Y-80167238D01*
X95340714Y-80215619D01*
X95437476Y-80215619D01*
X95776142Y-80215619D02*
X95776142Y-79538285D01*
X95776142Y-79731809D02*
X95824523Y-79635047D01*
X95872904Y-79586666D01*
X95969666Y-79538285D01*
X96066428Y-79538285D01*
X96550238Y-80215619D02*
X96453476Y-80167238D01*
X96405095Y-80118857D01*
X96356714Y-80022095D01*
X96356714Y-79731809D01*
X96405095Y-79635047D01*
X96453476Y-79586666D01*
X96550238Y-79538285D01*
X96695380Y-79538285D01*
X96792142Y-79586666D01*
X96840523Y-79635047D01*
X96888904Y-79731809D01*
X96888904Y-80022095D01*
X96840523Y-80118857D01*
X96792142Y-80167238D01*
X96695380Y-80215619D01*
X96550238Y-80215619D01*
X97469476Y-80215619D02*
X97372714Y-80167238D01*
X97324333Y-80070476D01*
X97324333Y-79199619D01*
X98001666Y-80215619D02*
X97904904Y-80167238D01*
X97856523Y-80070476D01*
X97856523Y-79199619D01*
X98775761Y-80167238D02*
X98679000Y-80215619D01*
X98485476Y-80215619D01*
X98388714Y-80167238D01*
X98340333Y-80070476D01*
X98340333Y-79683428D01*
X98388714Y-79586666D01*
X98485476Y-79538285D01*
X98679000Y-79538285D01*
X98775761Y-79586666D01*
X98824142Y-79683428D01*
X98824142Y-79780190D01*
X98340333Y-79876952D01*
X99259571Y-80215619D02*
X99259571Y-79538285D01*
X99259571Y-79731809D02*
X99307952Y-79635047D01*
X99356333Y-79586666D01*
X99453095Y-79538285D01*
X99549857Y-79538285D01*
X85035571Y-81316285D02*
X85035571Y-82332285D01*
X85035571Y-81364666D02*
X85132333Y-81316285D01*
X85325857Y-81316285D01*
X85422619Y-81364666D01*
X85471000Y-81413047D01*
X85519380Y-81509809D01*
X85519380Y-81800095D01*
X85471000Y-81896857D01*
X85422619Y-81945238D01*
X85325857Y-81993619D01*
X85132333Y-81993619D01*
X85035571Y-81945238D01*
X86390238Y-81993619D02*
X86390238Y-81461428D01*
X86341857Y-81364666D01*
X86245095Y-81316285D01*
X86051571Y-81316285D01*
X85954809Y-81364666D01*
X86390238Y-81945238D02*
X86293476Y-81993619D01*
X86051571Y-81993619D01*
X85954809Y-81945238D01*
X85906428Y-81848476D01*
X85906428Y-81751714D01*
X85954809Y-81654952D01*
X86051571Y-81606571D01*
X86293476Y-81606571D01*
X86390238Y-81558190D01*
X86874047Y-81993619D02*
X86874047Y-81316285D01*
X86874047Y-81509809D02*
X86922428Y-81413047D01*
X86970809Y-81364666D01*
X87067571Y-81316285D01*
X87164333Y-81316285D01*
X87357857Y-81316285D02*
X87744904Y-81316285D01*
X87503000Y-80977619D02*
X87503000Y-81848476D01*
X87551380Y-81945238D01*
X87648142Y-81993619D01*
X87744904Y-81993619D01*
X87841666Y-82090380D02*
X88615761Y-82090380D01*
X88857666Y-81316285D02*
X88857666Y-81993619D01*
X88857666Y-81413047D02*
X88906047Y-81364666D01*
X89002809Y-81316285D01*
X89147952Y-81316285D01*
X89244714Y-81364666D01*
X89293095Y-81461428D01*
X89293095Y-81993619D01*
X90212333Y-81316285D02*
X90212333Y-81993619D01*
X89776904Y-81316285D02*
X89776904Y-81848476D01*
X89825285Y-81945238D01*
X89922047Y-81993619D01*
X90067190Y-81993619D01*
X90163952Y-81945238D01*
X90212333Y-81896857D01*
X90696142Y-81993619D02*
X90696142Y-81316285D01*
X90696142Y-81413047D02*
X90744523Y-81364666D01*
X90841285Y-81316285D01*
X90986428Y-81316285D01*
X91083190Y-81364666D01*
X91131571Y-81461428D01*
X91131571Y-81993619D01*
X91131571Y-81461428D02*
X91179952Y-81364666D01*
X91276714Y-81316285D01*
X91421857Y-81316285D01*
X91518619Y-81364666D01*
X91567000Y-81461428D01*
X91567000Y-81993619D01*
X92050809Y-81993619D02*
X92050809Y-80977619D01*
X92050809Y-81364666D02*
X92147571Y-81316285D01*
X92341095Y-81316285D01*
X92437857Y-81364666D01*
X92486238Y-81413047D01*
X92534619Y-81509809D01*
X92534619Y-81800095D01*
X92486238Y-81896857D01*
X92437857Y-81945238D01*
X92341095Y-81993619D01*
X92147571Y-81993619D01*
X92050809Y-81945238D01*
X93357095Y-81945238D02*
X93260333Y-81993619D01*
X93066809Y-81993619D01*
X92970047Y-81945238D01*
X92921666Y-81848476D01*
X92921666Y-81461428D01*
X92970047Y-81364666D01*
X93066809Y-81316285D01*
X93260333Y-81316285D01*
X93357095Y-81364666D01*
X93405476Y-81461428D01*
X93405476Y-81558190D01*
X92921666Y-81654952D01*
X93840904Y-81993619D02*
X93840904Y-81316285D01*
X93840904Y-81509809D02*
X93889285Y-81413047D01*
X93937666Y-81364666D01*
X94034428Y-81316285D01*
X94131190Y-81316285D01*
X94469857Y-81896857D02*
X94518238Y-81945238D01*
X94469857Y-81993619D01*
X94421476Y-81945238D01*
X94469857Y-81896857D01*
X94469857Y-81993619D01*
X94469857Y-81364666D02*
X94518238Y-81413047D01*
X94469857Y-81461428D01*
X94421476Y-81413047D01*
X94469857Y-81364666D01*
X94469857Y-81461428D01*
X96259952Y-81993619D02*
X95679380Y-81993619D01*
X95969666Y-81993619D02*
X95969666Y-80977619D01*
X95872904Y-81122761D01*
X95776142Y-81219523D01*
X95679380Y-81267904D01*
X96647000Y-81074380D02*
X96695380Y-81026000D01*
X96792142Y-80977619D01*
X97034047Y-80977619D01*
X97130809Y-81026000D01*
X97179190Y-81074380D01*
X97227571Y-81171142D01*
X97227571Y-81267904D01*
X97179190Y-81413047D01*
X96598619Y-81993619D01*
X97227571Y-81993619D01*
X97566238Y-80977619D02*
X98243571Y-80977619D01*
X97808142Y-81993619D01*
X98824142Y-80977619D02*
X98920904Y-80977619D01*
X99017666Y-81026000D01*
X99066047Y-81074380D01*
X99114428Y-81171142D01*
X99162809Y-81364666D01*
X99162809Y-81606571D01*
X99114428Y-81800095D01*
X99066047Y-81896857D01*
X99017666Y-81945238D01*
X98920904Y-81993619D01*
X98824142Y-81993619D01*
X98727380Y-81945238D01*
X98679000Y-81896857D01*
X98630619Y-81800095D01*
X98582238Y-81606571D01*
X98582238Y-81364666D01*
X98630619Y-81171142D01*
X98679000Y-81074380D01*
X98727380Y-81026000D01*
X98824142Y-80977619D01*
X84188904Y-82755619D02*
X84285666Y-82755619D01*
X84382428Y-82804000D01*
X84430809Y-82852380D01*
X84479190Y-82949142D01*
X84527571Y-83142666D01*
X84527571Y-83384571D01*
X84479190Y-83578095D01*
X84430809Y-83674857D01*
X84382428Y-83723238D01*
X84285666Y-83771619D01*
X84188904Y-83771619D01*
X84092142Y-83723238D01*
X84043761Y-83674857D01*
X83995380Y-83578095D01*
X83947000Y-83384571D01*
X83947000Y-83142666D01*
X83995380Y-82949142D01*
X84043761Y-82852380D01*
X84092142Y-82804000D01*
X84188904Y-82755619D01*
X85446809Y-82755619D02*
X84963000Y-82755619D01*
X84914619Y-83239428D01*
X84963000Y-83191047D01*
X85059761Y-83142666D01*
X85301666Y-83142666D01*
X85398428Y-83191047D01*
X85446809Y-83239428D01*
X85495190Y-83336190D01*
X85495190Y-83578095D01*
X85446809Y-83674857D01*
X85398428Y-83723238D01*
X85301666Y-83771619D01*
X85059761Y-83771619D01*
X84963000Y-83723238D01*
X84914619Y-83674857D01*
X86656333Y-82707238D02*
X85785476Y-84013523D01*
X86946619Y-82852380D02*
X86995000Y-82804000D01*
X87091761Y-82755619D01*
X87333666Y-82755619D01*
X87430428Y-82804000D01*
X87478809Y-82852380D01*
X87527190Y-82949142D01*
X87527190Y-83045904D01*
X87478809Y-83191047D01*
X86898238Y-83771619D01*
X87527190Y-83771619D01*
X88156142Y-82755619D02*
X88252904Y-82755619D01*
X88349666Y-82804000D01*
X88398047Y-82852380D01*
X88446428Y-82949142D01*
X88494809Y-83142666D01*
X88494809Y-83384571D01*
X88446428Y-83578095D01*
X88398047Y-83674857D01*
X88349666Y-83723238D01*
X88252904Y-83771619D01*
X88156142Y-83771619D01*
X88059380Y-83723238D01*
X88011000Y-83674857D01*
X87962619Y-83578095D01*
X87914238Y-83384571D01*
X87914238Y-83142666D01*
X87962619Y-82949142D01*
X88011000Y-82852380D01*
X88059380Y-82804000D01*
X88156142Y-82755619D01*
X89462428Y-83771619D02*
X88881857Y-83771619D01*
X89172142Y-83771619D02*
X89172142Y-82755619D01*
X89075380Y-82900761D01*
X88978619Y-82997523D01*
X88881857Y-83045904D01*
X89946238Y-83771619D02*
X90139761Y-83771619D01*
X90236523Y-83723238D01*
X90284904Y-83674857D01*
X90381666Y-83529714D01*
X90430047Y-83336190D01*
X90430047Y-82949142D01*
X90381666Y-82852380D01*
X90333285Y-82804000D01*
X90236523Y-82755619D01*
X90043000Y-82755619D01*
X89946238Y-82804000D01*
X89897857Y-82852380D01*
X89849476Y-82949142D01*
X89849476Y-83191047D01*
X89897857Y-83287809D01*
X89946238Y-83336190D01*
X90043000Y-83384571D01*
X90236523Y-83384571D01*
X90333285Y-83336190D01*
X90381666Y-83287809D01*
X90430047Y-83191047D01*
X91542809Y-83094285D02*
X91784714Y-83771619D01*
X92026619Y-83094285D01*
X92800714Y-83723238D02*
X92703952Y-83771619D01*
X92510428Y-83771619D01*
X92413666Y-83723238D01*
X92365285Y-83626476D01*
X92365285Y-83239428D01*
X92413666Y-83142666D01*
X92510428Y-83094285D01*
X92703952Y-83094285D01*
X92800714Y-83142666D01*
X92849095Y-83239428D01*
X92849095Y-83336190D01*
X92365285Y-83432952D01*
X93284523Y-83771619D02*
X93284523Y-83094285D01*
X93284523Y-83287809D02*
X93332904Y-83191047D01*
X93381285Y-83142666D01*
X93478047Y-83094285D01*
X93574809Y-83094285D01*
X95219761Y-83771619D02*
X94639190Y-83771619D01*
X94929476Y-83771619D02*
X94929476Y-82755619D01*
X94832714Y-82900761D01*
X94735952Y-82997523D01*
X94639190Y-83045904D01*
X95655190Y-83674857D02*
X95703571Y-83723238D01*
X95655190Y-83771619D01*
X95606809Y-83723238D01*
X95655190Y-83674857D01*
X95655190Y-83771619D01*
X96042238Y-82755619D02*
X96671190Y-82755619D01*
X96332523Y-83142666D01*
X96477666Y-83142666D01*
X96574428Y-83191047D01*
X96622809Y-83239428D01*
X96671190Y-83336190D01*
X96671190Y-83578095D01*
X96622809Y-83674857D01*
X96574428Y-83723238D01*
X96477666Y-83771619D01*
X96187380Y-83771619D01*
X96090619Y-83723238D01*
X96042238Y-83674857D01*
X98364523Y-82755619D02*
X97880714Y-82755619D01*
X97832333Y-83239428D01*
X97880714Y-83191047D01*
X97977476Y-83142666D01*
X98219380Y-83142666D01*
X98316142Y-83191047D01*
X98364523Y-83239428D01*
X98412904Y-83336190D01*
X98412904Y-83578095D01*
X98364523Y-83674857D01*
X98316142Y-83723238D01*
X98219380Y-83771619D01*
X97977476Y-83771619D01*
X97880714Y-83723238D01*
X97832333Y-83674857D01*
X98751571Y-83771619D02*
X99283761Y-83094285D01*
X98751571Y-83094285D02*
X99283761Y-83771619D01*
X99574047Y-82755619D02*
X100203000Y-82755619D01*
X99864333Y-83142666D01*
X100009476Y-83142666D01*
X100106238Y-83191047D01*
X100154619Y-83239428D01*
X100203000Y-83336190D01*
X100203000Y-83578095D01*
X100154619Y-83674857D01*
X100106238Y-83723238D01*
X100009476Y-83771619D01*
X99719190Y-83771619D01*
X99622428Y-83723238D01*
X99574047Y-83674857D01*
D16*
X126385000Y-89535000D02*
G75*
G03X126385000Y-89535000I-5100000J0D01*
G01*
X129285000Y-89535000D02*
G75*
G03X129285000Y-89535000I-8000000J0D01*
G01*
X122285000Y-85635000D02*
G75*
G02X120285000Y-85635000I-1000000J0D01*
G01*
X122287533Y-85635652D02*
G75*
G02X120285001Y-85635001I-1002533J-3899348D01*
G01*
X126385000Y-121285000D02*
G75*
G03X126385000Y-121285000I-5100000J0D01*
G01*
X129285000Y-121285000D02*
G75*
G03X129285000Y-121285000I-8000000J0D01*
G01*
X122285000Y-117385000D02*
G75*
G02X120285000Y-117385000I-1000000J0D01*
G01*
X122287533Y-117385652D02*
G75*
G02X120285001Y-117385001I-1002533J-3899348D01*
G01*
X145435000Y-89535000D02*
G75*
G03X145435000Y-89535000I-5100000J0D01*
G01*
X148335000Y-89535000D02*
G75*
G03X148335000Y-89535000I-8000000J0D01*
G01*
X141335000Y-85635000D02*
G75*
G02X139335000Y-85635000I-1000000J0D01*
G01*
X141337533Y-85635652D02*
G75*
G02X139335001Y-85635001I-1002533J-3899348D01*
G01*
X145435000Y-121285000D02*
G75*
G03X145435000Y-121285000I-5100000J0D01*
G01*
X148335000Y-121285000D02*
G75*
G03X148335000Y-121285000I-8000000J0D01*
G01*
X141335000Y-117385000D02*
G75*
G02X139335000Y-117385000I-1000000J0D01*
G01*
X141337533Y-117385652D02*
G75*
G02X139335001Y-117385001I-1002533J-3899348D01*
G01*
X164485000Y-121285000D02*
G75*
G03X164485000Y-121285000I-5100000J0D01*
G01*
X167385000Y-121285000D02*
G75*
G03X167385000Y-121285000I-8000000J0D01*
G01*
X160385000Y-117385000D02*
G75*
G02X158385000Y-117385000I-1000000J0D01*
G01*
X160387533Y-117385652D02*
G75*
G02X158385001Y-117385001I-1002533J-3899348D01*
G01*
X183535000Y-89535000D02*
G75*
G03X183535000Y-89535000I-5100000J0D01*
G01*
X186435000Y-89535000D02*
G75*
G03X186435000Y-89535000I-8000000J0D01*
G01*
X179435000Y-85635000D02*
G75*
G02X177435000Y-85635000I-1000000J0D01*
G01*
X179437533Y-85635652D02*
G75*
G02X177435001Y-85635001I-1002533J-3899348D01*
G01*
X164485000Y-89535000D02*
G75*
G03X164485000Y-89535000I-5100000J0D01*
G01*
X167385000Y-89535000D02*
G75*
G03X167385000Y-89535000I-8000000J0D01*
G01*
X160385000Y-85635000D02*
G75*
G02X158385000Y-85635000I-1000000J0D01*
G01*
X160387533Y-85635652D02*
G75*
G02X158385001Y-85635001I-1002533J-3899348D01*
G01*
X183535000Y-121285000D02*
G75*
G03X183535000Y-121285000I-5100000J0D01*
G01*
X186435000Y-121285000D02*
G75*
G03X186435000Y-121285000I-8000000J0D01*
G01*
X179435000Y-117385000D02*
G75*
G02X177435000Y-117385000I-1000000J0D01*
G01*
X179437533Y-117385652D02*
G75*
G02X177435001Y-117385001I-1002533J-3899348D01*
G01*
D17*
X78867000Y-128651000D02*
X78867000Y-128397000D01*
X78613000Y-128651000D02*
X78867000Y-128651000D01*
X78613000Y-128397000D02*
X78613000Y-128651000D01*
X78867000Y-128397000D02*
X78613000Y-128397000D01*
X79375000Y-127889000D02*
X78105000Y-127889000D01*
X78740000Y-128270000D02*
X78105000Y-127889000D01*
X79375000Y-127889000D02*
X78740000Y-128270000D01*
X189357000Y-123787000D02*
X189357000Y-123533000D01*
X189103000Y-123787000D02*
X189357000Y-123787000D01*
X189103000Y-123533000D02*
X189103000Y-123787000D01*
X189357000Y-123533000D02*
X189103000Y-123533000D01*
X189865000Y-123025000D02*
X188595000Y-123025000D01*
X189230000Y-123406000D02*
X188595000Y-123025000D01*
X189865000Y-123025000D02*
X189230000Y-123406000D01*
X178816000Y-77978000D02*
X178562000Y-77978000D01*
X178816000Y-78232000D02*
X178816000Y-77978000D01*
X178562000Y-78232000D02*
X178816000Y-78232000D01*
X178562000Y-77978000D02*
X178562000Y-78232000D01*
X178054000Y-77470000D02*
X178054000Y-78740000D01*
X178435000Y-78105000D02*
X178054000Y-78740000D01*
X178054000Y-77470000D02*
X178435000Y-78105000D01*
X178816000Y-132588000D02*
X178562000Y-132588000D01*
X178816000Y-132842000D02*
X178816000Y-132588000D01*
X178562000Y-132842000D02*
X178816000Y-132842000D01*
X178562000Y-132588000D02*
X178562000Y-132842000D01*
X178054000Y-132080000D02*
X178054000Y-133350000D01*
X178435000Y-132715000D02*
X178054000Y-133350000D01*
X178054000Y-132080000D02*
X178435000Y-132715000D01*
X159766000Y-132588000D02*
X159512000Y-132588000D01*
X159766000Y-132842000D02*
X159766000Y-132588000D01*
X159512000Y-132842000D02*
X159766000Y-132842000D01*
X159512000Y-132588000D02*
X159512000Y-132842000D01*
X159004000Y-132080000D02*
X159004000Y-133350000D01*
X159385000Y-132715000D02*
X159004000Y-133350000D01*
X159004000Y-132080000D02*
X159385000Y-132715000D01*
X81407000Y-128651000D02*
X81407000Y-128397000D01*
X81153000Y-128651000D02*
X81407000Y-128651000D01*
X81153000Y-128397000D02*
X81153000Y-128651000D01*
X81407000Y-128397000D02*
X81153000Y-128397000D01*
X81915000Y-127889000D02*
X80645000Y-127889000D01*
X81280000Y-128270000D02*
X80645000Y-127889000D01*
X81915000Y-127889000D02*
X81280000Y-128270000D01*
X159766000Y-77978000D02*
X159512000Y-77978000D01*
X159766000Y-78232000D02*
X159766000Y-77978000D01*
X159512000Y-78232000D02*
X159766000Y-78232000D01*
X159512000Y-77978000D02*
X159512000Y-78232000D01*
X159004000Y-77470000D02*
X159004000Y-78740000D01*
X159385000Y-78105000D02*
X159004000Y-78740000D01*
X159004000Y-77470000D02*
X159385000Y-78105000D01*
X140716000Y-132588000D02*
X140462000Y-132588000D01*
X140716000Y-132842000D02*
X140716000Y-132588000D01*
X140462000Y-132842000D02*
X140716000Y-132842000D01*
X140462000Y-132588000D02*
X140462000Y-132842000D01*
X139954000Y-132080000D02*
X139954000Y-133350000D01*
X140335000Y-132715000D02*
X139954000Y-133350000D01*
X139954000Y-132080000D02*
X140335000Y-132715000D01*
X86487000Y-128651000D02*
X86487000Y-128397000D01*
X86233000Y-128651000D02*
X86487000Y-128651000D01*
X86233000Y-128397000D02*
X86233000Y-128651000D01*
X86487000Y-128397000D02*
X86233000Y-128397000D01*
X86995000Y-127889000D02*
X85725000Y-127889000D01*
X86360000Y-128270000D02*
X85725000Y-127889000D01*
X86995000Y-127889000D02*
X86360000Y-128270000D01*
X140716000Y-77978000D02*
X140462000Y-77978000D01*
X140716000Y-78232000D02*
X140716000Y-77978000D01*
X140462000Y-78232000D02*
X140716000Y-78232000D01*
X140462000Y-77978000D02*
X140462000Y-78232000D01*
X139954000Y-77470000D02*
X139954000Y-78740000D01*
X140335000Y-78105000D02*
X139954000Y-78740000D01*
X139954000Y-77470000D02*
X140335000Y-78105000D01*
X121666000Y-132588000D02*
X121412000Y-132588000D01*
X121666000Y-132842000D02*
X121666000Y-132588000D01*
X121412000Y-132842000D02*
X121666000Y-132842000D01*
X121412000Y-132588000D02*
X121412000Y-132842000D01*
X120904000Y-132080000D02*
X120904000Y-133350000D01*
X121285000Y-132715000D02*
X120904000Y-133350000D01*
X120904000Y-132080000D02*
X121285000Y-132715000D01*
X99187000Y-128651000D02*
X99187000Y-128397000D01*
X98933000Y-128651000D02*
X99187000Y-128651000D01*
X98933000Y-128397000D02*
X98933000Y-128651000D01*
X99187000Y-128397000D02*
X98933000Y-128397000D01*
X99695000Y-127889000D02*
X98425000Y-127889000D01*
X99060000Y-128270000D02*
X98425000Y-127889000D01*
X99695000Y-127889000D02*
X99060000Y-128270000D01*
X121666000Y-77978000D02*
X121412000Y-77978000D01*
X121666000Y-78232000D02*
X121666000Y-77978000D01*
X121412000Y-78232000D02*
X121666000Y-78232000D01*
X121412000Y-77978000D02*
X121412000Y-78232000D01*
X120904000Y-77470000D02*
X120904000Y-78740000D01*
X121285000Y-78105000D02*
X120904000Y-78740000D01*
X120904000Y-77470000D02*
X121285000Y-78105000D01*
X101727000Y-128651000D02*
X101727000Y-128397000D01*
X101473000Y-128651000D02*
X101727000Y-128651000D01*
X101473000Y-128397000D02*
X101473000Y-128651000D01*
X101727000Y-128397000D02*
X101473000Y-128397000D01*
X102235000Y-127889000D02*
X100965000Y-127889000D01*
X101600000Y-128270000D02*
X100965000Y-127889000D01*
X102235000Y-127889000D02*
X101600000Y-128270000D01*
X106807000Y-128651000D02*
X106807000Y-128397000D01*
X106553000Y-128651000D02*
X106807000Y-128651000D01*
X106553000Y-128397000D02*
X106553000Y-128651000D01*
X106807000Y-128397000D02*
X106553000Y-128397000D01*
X107315000Y-127889000D02*
X106045000Y-127889000D01*
X106680000Y-128270000D02*
X106045000Y-127889000D01*
X107315000Y-127889000D02*
X106680000Y-128270000D01*
X104267000Y-128651000D02*
X104267000Y-128397000D01*
X104013000Y-128651000D02*
X104267000Y-128651000D01*
X104013000Y-128397000D02*
X104013000Y-128651000D01*
X104267000Y-128397000D02*
X104013000Y-128397000D01*
X104775000Y-127889000D02*
X103505000Y-127889000D01*
X104140000Y-128270000D02*
X103505000Y-127889000D01*
X104775000Y-127889000D02*
X104140000Y-128270000D01*
X83947000Y-128651000D02*
X83947000Y-128397000D01*
X83693000Y-128651000D02*
X83947000Y-128651000D01*
X83693000Y-128397000D02*
X83693000Y-128651000D01*
X83947000Y-128397000D02*
X83693000Y-128397000D01*
X84455000Y-127889000D02*
X83185000Y-127889000D01*
X83820000Y-128270000D02*
X83185000Y-127889000D01*
X84455000Y-127889000D02*
X83820000Y-128270000D01*
D18*
X98171000Y-125349000D02*
X98171000Y-124460000D01*
X99949000Y-125349000D02*
X98171000Y-125349000D01*
X99949000Y-124460000D02*
X99949000Y-125349000D01*
X98171000Y-122301000D02*
X98171000Y-123190000D01*
X99949000Y-122301000D02*
X98171000Y-122301000D01*
X99949000Y-123190000D02*
X99949000Y-122301000D01*
X100711000Y-125349000D02*
X100711000Y-124460000D01*
X102489000Y-125349000D02*
X100711000Y-125349000D01*
X102489000Y-124460000D02*
X102489000Y-125349000D01*
X100711000Y-122301000D02*
X100711000Y-123190000D01*
X102489000Y-122301000D02*
X100711000Y-122301000D01*
X102489000Y-123190000D02*
X102489000Y-122301000D01*
X85471000Y-125349000D02*
X85471000Y-124460000D01*
X87249000Y-125349000D02*
X85471000Y-125349000D01*
X87249000Y-124460000D02*
X87249000Y-125349000D01*
X85471000Y-122301000D02*
X85471000Y-123190000D01*
X87249000Y-122301000D02*
X85471000Y-122301000D01*
X87249000Y-123190000D02*
X87249000Y-122301000D01*
X82931000Y-125349000D02*
X82931000Y-124460000D01*
X84709000Y-125349000D02*
X82931000Y-125349000D01*
X84709000Y-124460000D02*
X84709000Y-125349000D01*
X82931000Y-122301000D02*
X82931000Y-123190000D01*
X84709000Y-122301000D02*
X82931000Y-122301000D01*
X84709000Y-123190000D02*
X84709000Y-122301000D01*
X80391000Y-125349000D02*
X80391000Y-124460000D01*
X82169000Y-125349000D02*
X80391000Y-125349000D01*
X82169000Y-124460000D02*
X82169000Y-125349000D01*
X80391000Y-122301000D02*
X80391000Y-123190000D01*
X82169000Y-122301000D02*
X80391000Y-122301000D01*
X82169000Y-123190000D02*
X82169000Y-122301000D01*
X103251000Y-125349000D02*
X103251000Y-124460000D01*
X105029000Y-125349000D02*
X103251000Y-125349000D01*
X105029000Y-124460000D02*
X105029000Y-125349000D01*
X103251000Y-122301000D02*
X103251000Y-123190000D01*
X105029000Y-122301000D02*
X103251000Y-122301000D01*
X105029000Y-123190000D02*
X105029000Y-122301000D01*
X77851000Y-125349000D02*
X77851000Y-124460000D01*
X79629000Y-125349000D02*
X77851000Y-125349000D01*
X79629000Y-124460000D02*
X79629000Y-125349000D01*
X77851000Y-122301000D02*
X77851000Y-123190000D01*
X79629000Y-122301000D02*
X77851000Y-122301000D01*
X79629000Y-123190000D02*
X79629000Y-122301000D01*
X188341000Y-120269000D02*
X188341000Y-119380000D01*
X190119000Y-120269000D02*
X188341000Y-120269000D01*
X190119000Y-119380000D02*
X190119000Y-120269000D01*
X188341000Y-117221000D02*
X188341000Y-118110000D01*
X190119000Y-117221000D02*
X188341000Y-117221000D01*
X190119000Y-118110000D02*
X190119000Y-117221000D01*
X105791000Y-125349000D02*
X105791000Y-124460000D01*
X107569000Y-125349000D02*
X105791000Y-125349000D01*
X107569000Y-124460000D02*
X107569000Y-125349000D01*
X105791000Y-122301000D02*
X105791000Y-123190000D01*
X107569000Y-122301000D02*
X105791000Y-122301000D01*
X107569000Y-123190000D02*
X107569000Y-122301000D01*
X175514000Y-133604000D02*
X174625000Y-133604000D01*
X175514000Y-131826000D02*
X175514000Y-133604000D01*
X174625000Y-131826000D02*
X175514000Y-131826000D01*
X172466000Y-133604000D02*
X173355000Y-133604000D01*
X172466000Y-131826000D02*
X172466000Y-133604000D01*
X173355000Y-131826000D02*
X172466000Y-131826000D01*
X118364000Y-78994000D02*
X117475000Y-78994000D01*
X118364000Y-77216000D02*
X118364000Y-78994000D01*
X117475000Y-77216000D02*
X118364000Y-77216000D01*
X115316000Y-78994000D02*
X116205000Y-78994000D01*
X115316000Y-77216000D02*
X115316000Y-78994000D01*
X116205000Y-77216000D02*
X115316000Y-77216000D01*
X156464000Y-78994000D02*
X155575000Y-78994000D01*
X156464000Y-77216000D02*
X156464000Y-78994000D01*
X155575000Y-77216000D02*
X156464000Y-77216000D01*
X153416000Y-78994000D02*
X154305000Y-78994000D01*
X153416000Y-77216000D02*
X153416000Y-78994000D01*
X154305000Y-77216000D02*
X153416000Y-77216000D01*
X118364000Y-133604000D02*
X117475000Y-133604000D01*
X118364000Y-131826000D02*
X118364000Y-133604000D01*
X117475000Y-131826000D02*
X118364000Y-131826000D01*
X115316000Y-133604000D02*
X116205000Y-133604000D01*
X115316000Y-131826000D02*
X115316000Y-133604000D01*
X116205000Y-131826000D02*
X115316000Y-131826000D01*
X156464000Y-133604000D02*
X155575000Y-133604000D01*
X156464000Y-131826000D02*
X156464000Y-133604000D01*
X155575000Y-131826000D02*
X156464000Y-131826000D01*
X153416000Y-133604000D02*
X154305000Y-133604000D01*
X153416000Y-131826000D02*
X153416000Y-133604000D01*
X154305000Y-131826000D02*
X153416000Y-131826000D01*
X175514000Y-78994000D02*
X174625000Y-78994000D01*
X175514000Y-77216000D02*
X175514000Y-78994000D01*
X174625000Y-77216000D02*
X175514000Y-77216000D01*
X172466000Y-78994000D02*
X173355000Y-78994000D01*
X172466000Y-77216000D02*
X172466000Y-78994000D01*
X173355000Y-77216000D02*
X172466000Y-77216000D01*
X137414000Y-78994000D02*
X136525000Y-78994000D01*
X137414000Y-77216000D02*
X137414000Y-78994000D01*
X136525000Y-77216000D02*
X137414000Y-77216000D01*
X134366000Y-78994000D02*
X135255000Y-78994000D01*
X134366000Y-77216000D02*
X134366000Y-78994000D01*
X135255000Y-77216000D02*
X134366000Y-77216000D01*
X137414000Y-133604000D02*
X136525000Y-133604000D01*
X137414000Y-131826000D02*
X137414000Y-133604000D01*
X136525000Y-131826000D02*
X137414000Y-131826000D01*
X134366000Y-133604000D02*
X135255000Y-133604000D01*
X134366000Y-131826000D02*
X134366000Y-133604000D01*
X135255000Y-131826000D02*
X134366000Y-131826000D01*
D12*
X76300000Y-120970000D02*
X88800000Y-120970000D01*
X88800000Y-120970000D02*
X88800000Y-89850000D01*
X88800000Y-89850000D02*
X76300000Y-89850000D01*
X76300000Y-89850000D02*
X76300000Y-120970000D01*
X96620000Y-120970000D02*
X109120000Y-120970000D01*
X109120000Y-120970000D02*
X109120000Y-89850000D01*
X109120000Y-89850000D02*
X96620000Y-89850000D01*
X96620000Y-89850000D02*
X96620000Y-120970000D01*
D19*
X76200000Y-80010000D02*
G75*
G03X76200000Y-80010000I-2540000J0D01*
G01*
X167640000Y-74930000D02*
G75*
G03X167640000Y-74930000I-2540000J0D01*
G01*
X167640000Y-135890000D02*
G75*
G03X167640000Y-135890000I-2540000J0D01*
G01*
X76200000Y-130810000D02*
G75*
G03X76200000Y-130810000I-2540000J0D01*
G01*
D16*
X181760000Y-98510000D02*
X194560000Y-98510000D01*
X181760000Y-112310000D02*
X194560000Y-112310000D01*
X181760000Y-112310000D02*
X181760000Y-98510000D01*
X194560000Y-112310000D02*
X194560000Y-98510000D01*
D15*
X113580333Y-95836619D02*
X113580333Y-96562333D01*
X113531952Y-96707476D01*
X113435190Y-96804238D01*
X113290047Y-96852619D01*
X113193285Y-96852619D01*
X114547952Y-95836619D02*
X114064142Y-95836619D01*
X114015761Y-96320428D01*
X114064142Y-96272047D01*
X114160904Y-96223666D01*
X114402809Y-96223666D01*
X114499571Y-96272047D01*
X114547952Y-96320428D01*
X114596333Y-96417190D01*
X114596333Y-96659095D01*
X114547952Y-96755857D01*
X114499571Y-96804238D01*
X114402809Y-96852619D01*
X114160904Y-96852619D01*
X114064142Y-96804238D01*
X114015761Y-96755857D01*
X113580333Y-127586619D02*
X113580333Y-128312333D01*
X113531952Y-128457476D01*
X113435190Y-128554238D01*
X113290047Y-128602619D01*
X113193285Y-128602619D01*
X114499571Y-127586619D02*
X114306047Y-127586619D01*
X114209285Y-127635000D01*
X114160904Y-127683380D01*
X114064142Y-127828523D01*
X114015761Y-128022047D01*
X114015761Y-128409095D01*
X114064142Y-128505857D01*
X114112523Y-128554238D01*
X114209285Y-128602619D01*
X114402809Y-128602619D01*
X114499571Y-128554238D01*
X114547952Y-128505857D01*
X114596333Y-128409095D01*
X114596333Y-128167190D01*
X114547952Y-128070428D01*
X114499571Y-128022047D01*
X114402809Y-127973666D01*
X114209285Y-127973666D01*
X114112523Y-128022047D01*
X114064142Y-128070428D01*
X114015761Y-128167190D01*
X132630333Y-95836619D02*
X132630333Y-96562333D01*
X132581952Y-96707476D01*
X132485190Y-96804238D01*
X132340047Y-96852619D01*
X132243285Y-96852619D01*
X133017380Y-95836619D02*
X133694714Y-95836619D01*
X133259285Y-96852619D01*
X132630333Y-127586619D02*
X132630333Y-128312333D01*
X132581952Y-128457476D01*
X132485190Y-128554238D01*
X132340047Y-128602619D01*
X132243285Y-128602619D01*
X133259285Y-128022047D02*
X133162523Y-127973666D01*
X133114142Y-127925285D01*
X133065761Y-127828523D01*
X133065761Y-127780142D01*
X133114142Y-127683380D01*
X133162523Y-127635000D01*
X133259285Y-127586619D01*
X133452809Y-127586619D01*
X133549571Y-127635000D01*
X133597952Y-127683380D01*
X133646333Y-127780142D01*
X133646333Y-127828523D01*
X133597952Y-127925285D01*
X133549571Y-127973666D01*
X133452809Y-128022047D01*
X133259285Y-128022047D01*
X133162523Y-128070428D01*
X133114142Y-128118809D01*
X133065761Y-128215571D01*
X133065761Y-128409095D01*
X133114142Y-128505857D01*
X133162523Y-128554238D01*
X133259285Y-128602619D01*
X133452809Y-128602619D01*
X133549571Y-128554238D01*
X133597952Y-128505857D01*
X133646333Y-128409095D01*
X133646333Y-128215571D01*
X133597952Y-128118809D01*
X133549571Y-128070428D01*
X133452809Y-128022047D01*
X151196523Y-127586619D02*
X151196523Y-128312333D01*
X151148142Y-128457476D01*
X151051380Y-128554238D01*
X150906238Y-128602619D01*
X150809476Y-128602619D01*
X152212523Y-128602619D02*
X151631952Y-128602619D01*
X151922238Y-128602619D02*
X151922238Y-127586619D01*
X151825476Y-127731761D01*
X151728714Y-127828523D01*
X151631952Y-127876904D01*
X152841476Y-127586619D02*
X152938238Y-127586619D01*
X153035000Y-127635000D01*
X153083380Y-127683380D01*
X153131761Y-127780142D01*
X153180142Y-127973666D01*
X153180142Y-128215571D01*
X153131761Y-128409095D01*
X153083380Y-128505857D01*
X153035000Y-128554238D01*
X152938238Y-128602619D01*
X152841476Y-128602619D01*
X152744714Y-128554238D01*
X152696333Y-128505857D01*
X152647952Y-128409095D01*
X152599571Y-128215571D01*
X152599571Y-127973666D01*
X152647952Y-127780142D01*
X152696333Y-127683380D01*
X152744714Y-127635000D01*
X152841476Y-127586619D01*
X170246523Y-95836619D02*
X170246523Y-96562333D01*
X170198142Y-96707476D01*
X170101380Y-96804238D01*
X169956238Y-96852619D01*
X169859476Y-96852619D01*
X171262523Y-96852619D02*
X170681952Y-96852619D01*
X170972238Y-96852619D02*
X170972238Y-95836619D01*
X170875476Y-95981761D01*
X170778714Y-96078523D01*
X170681952Y-96126904D01*
X172230142Y-96852619D02*
X171649571Y-96852619D01*
X171939857Y-96852619D02*
X171939857Y-95836619D01*
X171843095Y-95981761D01*
X171746333Y-96078523D01*
X171649571Y-96126904D01*
X151680333Y-95836619D02*
X151680333Y-96562333D01*
X151631952Y-96707476D01*
X151535190Y-96804238D01*
X151390047Y-96852619D01*
X151293285Y-96852619D01*
X152212523Y-96852619D02*
X152406047Y-96852619D01*
X152502809Y-96804238D01*
X152551190Y-96755857D01*
X152647952Y-96610714D01*
X152696333Y-96417190D01*
X152696333Y-96030142D01*
X152647952Y-95933380D01*
X152599571Y-95885000D01*
X152502809Y-95836619D01*
X152309285Y-95836619D01*
X152212523Y-95885000D01*
X152164142Y-95933380D01*
X152115761Y-96030142D01*
X152115761Y-96272047D01*
X152164142Y-96368809D01*
X152212523Y-96417190D01*
X152309285Y-96465571D01*
X152502809Y-96465571D01*
X152599571Y-96417190D01*
X152647952Y-96368809D01*
X152696333Y-96272047D01*
X170246523Y-127586619D02*
X170246523Y-128312333D01*
X170198142Y-128457476D01*
X170101380Y-128554238D01*
X169956238Y-128602619D01*
X169859476Y-128602619D01*
X171262523Y-128602619D02*
X170681952Y-128602619D01*
X170972238Y-128602619D02*
X170972238Y-127586619D01*
X170875476Y-127731761D01*
X170778714Y-127828523D01*
X170681952Y-127876904D01*
X171649571Y-127683380D02*
X171697952Y-127635000D01*
X171794714Y-127586619D01*
X172036619Y-127586619D01*
X172133380Y-127635000D01*
X172181761Y-127683380D01*
X172230142Y-127780142D01*
X172230142Y-127876904D01*
X172181761Y-128022047D01*
X171601190Y-128602619D01*
X172230142Y-128602619D01*
D11*
X80043261Y-128738690D02*
X79408261Y-128738690D01*
X79408261Y-128587500D01*
X79438500Y-128496785D01*
X79498976Y-128436309D01*
X79559452Y-128406071D01*
X79680404Y-128375833D01*
X79771119Y-128375833D01*
X79892071Y-128406071D01*
X79952547Y-128436309D01*
X80013023Y-128496785D01*
X80043261Y-128587500D01*
X80043261Y-128738690D01*
X79408261Y-128164166D02*
X79408261Y-127771071D01*
X79650166Y-127982738D01*
X79650166Y-127892023D01*
X79680404Y-127831547D01*
X79710642Y-127801309D01*
X79771119Y-127771071D01*
X79922309Y-127771071D01*
X79982785Y-127801309D01*
X80013023Y-127831547D01*
X80043261Y-127892023D01*
X80043261Y-128073452D01*
X80013023Y-128133928D01*
X79982785Y-128164166D01*
X190533261Y-123874690D02*
X189898261Y-123874690D01*
X189898261Y-123723500D01*
X189928500Y-123632785D01*
X189988976Y-123572309D01*
X190049452Y-123542071D01*
X190170404Y-123511833D01*
X190261119Y-123511833D01*
X190382071Y-123542071D01*
X190442547Y-123572309D01*
X190503023Y-123632785D01*
X190533261Y-123723500D01*
X190533261Y-123874690D01*
X189958738Y-123269928D02*
X189928500Y-123239690D01*
X189898261Y-123179214D01*
X189898261Y-123028023D01*
X189928500Y-122967547D01*
X189958738Y-122937309D01*
X190019214Y-122907071D01*
X190079690Y-122907071D01*
X190170404Y-122937309D01*
X190533261Y-123300166D01*
X190533261Y-122907071D01*
X177663928Y-77376261D02*
X177663928Y-76741261D01*
X177815119Y-76741261D01*
X177905833Y-76771500D01*
X177966309Y-76831976D01*
X177996547Y-76892452D01*
X178026785Y-77013404D01*
X178026785Y-77104119D01*
X177996547Y-77225071D01*
X177966309Y-77285547D01*
X177905833Y-77346023D01*
X177815119Y-77376261D01*
X177663928Y-77376261D01*
X178631547Y-77376261D02*
X178268690Y-77376261D01*
X178450119Y-77376261D02*
X178450119Y-76741261D01*
X178389642Y-76831976D01*
X178329166Y-76892452D01*
X178268690Y-76922690D01*
X178843214Y-76741261D02*
X179266547Y-76741261D01*
X178994404Y-77376261D01*
X177663928Y-131986261D02*
X177663928Y-131351261D01*
X177815119Y-131351261D01*
X177905833Y-131381500D01*
X177966309Y-131441976D01*
X177996547Y-131502452D01*
X178026785Y-131623404D01*
X178026785Y-131714119D01*
X177996547Y-131835071D01*
X177966309Y-131895547D01*
X177905833Y-131956023D01*
X177815119Y-131986261D01*
X177663928Y-131986261D01*
X178631547Y-131986261D02*
X178268690Y-131986261D01*
X178450119Y-131986261D02*
X178450119Y-131351261D01*
X178389642Y-131441976D01*
X178329166Y-131502452D01*
X178268690Y-131532690D01*
X178994404Y-131623404D02*
X178933928Y-131593166D01*
X178903690Y-131562928D01*
X178873452Y-131502452D01*
X178873452Y-131472214D01*
X178903690Y-131411738D01*
X178933928Y-131381500D01*
X178994404Y-131351261D01*
X179115357Y-131351261D01*
X179175833Y-131381500D01*
X179206071Y-131411738D01*
X179236309Y-131472214D01*
X179236309Y-131502452D01*
X179206071Y-131562928D01*
X179175833Y-131593166D01*
X179115357Y-131623404D01*
X178994404Y-131623404D01*
X178933928Y-131653642D01*
X178903690Y-131683880D01*
X178873452Y-131744357D01*
X178873452Y-131865309D01*
X178903690Y-131925785D01*
X178933928Y-131956023D01*
X178994404Y-131986261D01*
X179115357Y-131986261D01*
X179175833Y-131956023D01*
X179206071Y-131925785D01*
X179236309Y-131865309D01*
X179236309Y-131744357D01*
X179206071Y-131683880D01*
X179175833Y-131653642D01*
X179115357Y-131623404D01*
X158613928Y-131986261D02*
X158613928Y-131351261D01*
X158765119Y-131351261D01*
X158855833Y-131381500D01*
X158916309Y-131441976D01*
X158946547Y-131502452D01*
X158976785Y-131623404D01*
X158976785Y-131714119D01*
X158946547Y-131835071D01*
X158916309Y-131895547D01*
X158855833Y-131956023D01*
X158765119Y-131986261D01*
X158613928Y-131986261D01*
X159581547Y-131986261D02*
X159218690Y-131986261D01*
X159400119Y-131986261D02*
X159400119Y-131351261D01*
X159339642Y-131441976D01*
X159279166Y-131502452D01*
X159218690Y-131532690D01*
X160125833Y-131351261D02*
X160004880Y-131351261D01*
X159944404Y-131381500D01*
X159914166Y-131411738D01*
X159853690Y-131502452D01*
X159823452Y-131623404D01*
X159823452Y-131865309D01*
X159853690Y-131925785D01*
X159883928Y-131956023D01*
X159944404Y-131986261D01*
X160065357Y-131986261D01*
X160125833Y-131956023D01*
X160156071Y-131925785D01*
X160186309Y-131865309D01*
X160186309Y-131714119D01*
X160156071Y-131653642D01*
X160125833Y-131623404D01*
X160065357Y-131593166D01*
X159944404Y-131593166D01*
X159883928Y-131623404D01*
X159853690Y-131653642D01*
X159823452Y-131714119D01*
X82583261Y-128738690D02*
X81948261Y-128738690D01*
X81948261Y-128587500D01*
X81978500Y-128496785D01*
X82038976Y-128436309D01*
X82099452Y-128406071D01*
X82220404Y-128375833D01*
X82311119Y-128375833D01*
X82432071Y-128406071D01*
X82492547Y-128436309D01*
X82553023Y-128496785D01*
X82583261Y-128587500D01*
X82583261Y-128738690D01*
X82159928Y-127831547D02*
X82583261Y-127831547D01*
X81918023Y-127982738D02*
X82371595Y-128133928D01*
X82371595Y-127740833D01*
X158613928Y-77376261D02*
X158613928Y-76741261D01*
X158765119Y-76741261D01*
X158855833Y-76771500D01*
X158916309Y-76831976D01*
X158946547Y-76892452D01*
X158976785Y-77013404D01*
X158976785Y-77104119D01*
X158946547Y-77225071D01*
X158916309Y-77285547D01*
X158855833Y-77346023D01*
X158765119Y-77376261D01*
X158613928Y-77376261D01*
X159581547Y-77376261D02*
X159218690Y-77376261D01*
X159400119Y-77376261D02*
X159400119Y-76741261D01*
X159339642Y-76831976D01*
X159279166Y-76892452D01*
X159218690Y-76922690D01*
X160156071Y-76741261D02*
X159853690Y-76741261D01*
X159823452Y-77043642D01*
X159853690Y-77013404D01*
X159914166Y-76983166D01*
X160065357Y-76983166D01*
X160125833Y-77013404D01*
X160156071Y-77043642D01*
X160186309Y-77104119D01*
X160186309Y-77255309D01*
X160156071Y-77315785D01*
X160125833Y-77346023D01*
X160065357Y-77376261D01*
X159914166Y-77376261D01*
X159853690Y-77346023D01*
X159823452Y-77315785D01*
X139563928Y-131986261D02*
X139563928Y-131351261D01*
X139715119Y-131351261D01*
X139805833Y-131381500D01*
X139866309Y-131441976D01*
X139896547Y-131502452D01*
X139926785Y-131623404D01*
X139926785Y-131714119D01*
X139896547Y-131835071D01*
X139866309Y-131895547D01*
X139805833Y-131956023D01*
X139715119Y-131986261D01*
X139563928Y-131986261D01*
X140531547Y-131986261D02*
X140168690Y-131986261D01*
X140350119Y-131986261D02*
X140350119Y-131351261D01*
X140289642Y-131441976D01*
X140229166Y-131502452D01*
X140168690Y-131532690D01*
X141075833Y-131562928D02*
X141075833Y-131986261D01*
X140924642Y-131321023D02*
X140773452Y-131774595D01*
X141166547Y-131774595D01*
X87663261Y-128738690D02*
X87028261Y-128738690D01*
X87028261Y-128587500D01*
X87058500Y-128496785D01*
X87118976Y-128436309D01*
X87179452Y-128406071D01*
X87300404Y-128375833D01*
X87391119Y-128375833D01*
X87512071Y-128406071D01*
X87572547Y-128436309D01*
X87633023Y-128496785D01*
X87663261Y-128587500D01*
X87663261Y-128738690D01*
X87028261Y-127831547D02*
X87028261Y-127952500D01*
X87058500Y-128012976D01*
X87088738Y-128043214D01*
X87179452Y-128103690D01*
X87300404Y-128133928D01*
X87542309Y-128133928D01*
X87602785Y-128103690D01*
X87633023Y-128073452D01*
X87663261Y-128012976D01*
X87663261Y-127892023D01*
X87633023Y-127831547D01*
X87602785Y-127801309D01*
X87542309Y-127771071D01*
X87391119Y-127771071D01*
X87330642Y-127801309D01*
X87300404Y-127831547D01*
X87270166Y-127892023D01*
X87270166Y-128012976D01*
X87300404Y-128073452D01*
X87330642Y-128103690D01*
X87391119Y-128133928D01*
X139563928Y-77376261D02*
X139563928Y-76741261D01*
X139715119Y-76741261D01*
X139805833Y-76771500D01*
X139866309Y-76831976D01*
X139896547Y-76892452D01*
X139926785Y-77013404D01*
X139926785Y-77104119D01*
X139896547Y-77225071D01*
X139866309Y-77285547D01*
X139805833Y-77346023D01*
X139715119Y-77376261D01*
X139563928Y-77376261D01*
X140531547Y-77376261D02*
X140168690Y-77376261D01*
X140350119Y-77376261D02*
X140350119Y-76741261D01*
X140289642Y-76831976D01*
X140229166Y-76892452D01*
X140168690Y-76922690D01*
X140743214Y-76741261D02*
X141136309Y-76741261D01*
X140924642Y-76983166D01*
X141015357Y-76983166D01*
X141075833Y-77013404D01*
X141106071Y-77043642D01*
X141136309Y-77104119D01*
X141136309Y-77255309D01*
X141106071Y-77315785D01*
X141075833Y-77346023D01*
X141015357Y-77376261D01*
X140833928Y-77376261D01*
X140773452Y-77346023D01*
X140743214Y-77315785D01*
X120513928Y-131986261D02*
X120513928Y-131351261D01*
X120665119Y-131351261D01*
X120755833Y-131381500D01*
X120816309Y-131441976D01*
X120846547Y-131502452D01*
X120876785Y-131623404D01*
X120876785Y-131714119D01*
X120846547Y-131835071D01*
X120816309Y-131895547D01*
X120755833Y-131956023D01*
X120665119Y-131986261D01*
X120513928Y-131986261D01*
X121481547Y-131986261D02*
X121118690Y-131986261D01*
X121300119Y-131986261D02*
X121300119Y-131351261D01*
X121239642Y-131441976D01*
X121179166Y-131502452D01*
X121118690Y-131532690D01*
X121723452Y-131411738D02*
X121753690Y-131381500D01*
X121814166Y-131351261D01*
X121965357Y-131351261D01*
X122025833Y-131381500D01*
X122056071Y-131411738D01*
X122086309Y-131472214D01*
X122086309Y-131532690D01*
X122056071Y-131623404D01*
X121693214Y-131986261D01*
X122086309Y-131986261D01*
X100363261Y-128738690D02*
X99728261Y-128738690D01*
X99728261Y-128587500D01*
X99758500Y-128496785D01*
X99818976Y-128436309D01*
X99879452Y-128406071D01*
X100000404Y-128375833D01*
X100091119Y-128375833D01*
X100212071Y-128406071D01*
X100272547Y-128436309D01*
X100333023Y-128496785D01*
X100363261Y-128587500D01*
X100363261Y-128738690D01*
X99728261Y-128164166D02*
X99728261Y-127740833D01*
X100363261Y-128012976D01*
X120513928Y-77376261D02*
X120513928Y-76741261D01*
X120665119Y-76741261D01*
X120755833Y-76771500D01*
X120816309Y-76831976D01*
X120846547Y-76892452D01*
X120876785Y-77013404D01*
X120876785Y-77104119D01*
X120846547Y-77225071D01*
X120816309Y-77285547D01*
X120755833Y-77346023D01*
X120665119Y-77376261D01*
X120513928Y-77376261D01*
X121481547Y-77376261D02*
X121118690Y-77376261D01*
X121300119Y-77376261D02*
X121300119Y-76741261D01*
X121239642Y-76831976D01*
X121179166Y-76892452D01*
X121118690Y-76922690D01*
X122086309Y-77376261D02*
X121723452Y-77376261D01*
X121904880Y-77376261D02*
X121904880Y-76741261D01*
X121844404Y-76831976D01*
X121783928Y-76892452D01*
X121723452Y-76922690D01*
X102903261Y-128738690D02*
X102268261Y-128738690D01*
X102268261Y-128587500D01*
X102298500Y-128496785D01*
X102358976Y-128436309D01*
X102419452Y-128406071D01*
X102540404Y-128375833D01*
X102631119Y-128375833D01*
X102752071Y-128406071D01*
X102812547Y-128436309D01*
X102873023Y-128496785D01*
X102903261Y-128587500D01*
X102903261Y-128738690D01*
X102540404Y-128012976D02*
X102510166Y-128073452D01*
X102479928Y-128103690D01*
X102419452Y-128133928D01*
X102389214Y-128133928D01*
X102328738Y-128103690D01*
X102298500Y-128073452D01*
X102268261Y-128012976D01*
X102268261Y-127892023D01*
X102298500Y-127831547D01*
X102328738Y-127801309D01*
X102389214Y-127771071D01*
X102419452Y-127771071D01*
X102479928Y-127801309D01*
X102510166Y-127831547D01*
X102540404Y-127892023D01*
X102540404Y-128012976D01*
X102570642Y-128073452D01*
X102600880Y-128103690D01*
X102661357Y-128133928D01*
X102782309Y-128133928D01*
X102842785Y-128103690D01*
X102873023Y-128073452D01*
X102903261Y-128012976D01*
X102903261Y-127892023D01*
X102873023Y-127831547D01*
X102842785Y-127801309D01*
X102782309Y-127771071D01*
X102661357Y-127771071D01*
X102600880Y-127801309D01*
X102570642Y-127831547D01*
X102540404Y-127892023D01*
X107983261Y-129041071D02*
X107348261Y-129041071D01*
X107348261Y-128889880D01*
X107378500Y-128799166D01*
X107438976Y-128738690D01*
X107499452Y-128708452D01*
X107620404Y-128678214D01*
X107711119Y-128678214D01*
X107832071Y-128708452D01*
X107892547Y-128738690D01*
X107953023Y-128799166D01*
X107983261Y-128889880D01*
X107983261Y-129041071D01*
X107983261Y-128073452D02*
X107983261Y-128436309D01*
X107983261Y-128254880D02*
X107348261Y-128254880D01*
X107438976Y-128315357D01*
X107499452Y-128375833D01*
X107529690Y-128436309D01*
X107348261Y-127680357D02*
X107348261Y-127619880D01*
X107378500Y-127559404D01*
X107408738Y-127529166D01*
X107469214Y-127498928D01*
X107590166Y-127468690D01*
X107741357Y-127468690D01*
X107862309Y-127498928D01*
X107922785Y-127529166D01*
X107953023Y-127559404D01*
X107983261Y-127619880D01*
X107983261Y-127680357D01*
X107953023Y-127740833D01*
X107922785Y-127771071D01*
X107862309Y-127801309D01*
X107741357Y-127831547D01*
X107590166Y-127831547D01*
X107469214Y-127801309D01*
X107408738Y-127771071D01*
X107378500Y-127740833D01*
X107348261Y-127680357D01*
X105443261Y-128738690D02*
X104808261Y-128738690D01*
X104808261Y-128587500D01*
X104838500Y-128496785D01*
X104898976Y-128436309D01*
X104959452Y-128406071D01*
X105080404Y-128375833D01*
X105171119Y-128375833D01*
X105292071Y-128406071D01*
X105352547Y-128436309D01*
X105413023Y-128496785D01*
X105443261Y-128587500D01*
X105443261Y-128738690D01*
X105443261Y-128073452D02*
X105443261Y-127952500D01*
X105413023Y-127892023D01*
X105382785Y-127861785D01*
X105292071Y-127801309D01*
X105171119Y-127771071D01*
X104929214Y-127771071D01*
X104868738Y-127801309D01*
X104838500Y-127831547D01*
X104808261Y-127892023D01*
X104808261Y-128012976D01*
X104838500Y-128073452D01*
X104868738Y-128103690D01*
X104929214Y-128133928D01*
X105080404Y-128133928D01*
X105140880Y-128103690D01*
X105171119Y-128073452D01*
X105201357Y-128012976D01*
X105201357Y-127892023D01*
X105171119Y-127831547D01*
X105140880Y-127801309D01*
X105080404Y-127771071D01*
X85123261Y-128738690D02*
X84488261Y-128738690D01*
X84488261Y-128587500D01*
X84518500Y-128496785D01*
X84578976Y-128436309D01*
X84639452Y-128406071D01*
X84760404Y-128375833D01*
X84851119Y-128375833D01*
X84972071Y-128406071D01*
X85032547Y-128436309D01*
X85093023Y-128496785D01*
X85123261Y-128587500D01*
X85123261Y-128738690D01*
X84488261Y-127801309D02*
X84488261Y-128103690D01*
X84790642Y-128133928D01*
X84760404Y-128103690D01*
X84730166Y-128043214D01*
X84730166Y-127892023D01*
X84760404Y-127831547D01*
X84790642Y-127801309D01*
X84851119Y-127771071D01*
X85002309Y-127771071D01*
X85062785Y-127801309D01*
X85093023Y-127831547D01*
X85123261Y-127892023D01*
X85123261Y-128043214D01*
X85093023Y-128103690D01*
X85062785Y-128133928D01*
X98651785Y-126144261D02*
X98440119Y-125841880D01*
X98288928Y-126144261D02*
X98288928Y-125509261D01*
X98530833Y-125509261D01*
X98591309Y-125539500D01*
X98621547Y-125569738D01*
X98651785Y-125630214D01*
X98651785Y-125720928D01*
X98621547Y-125781404D01*
X98591309Y-125811642D01*
X98530833Y-125841880D01*
X98288928Y-125841880D01*
X99256547Y-126144261D02*
X98893690Y-126144261D01*
X99075119Y-126144261D02*
X99075119Y-125509261D01*
X99014642Y-125599976D01*
X98954166Y-125660452D01*
X98893690Y-125690690D01*
X99649642Y-125509261D02*
X99710119Y-125509261D01*
X99770595Y-125539500D01*
X99800833Y-125569738D01*
X99831071Y-125630214D01*
X99861309Y-125751166D01*
X99861309Y-125902357D01*
X99831071Y-126023309D01*
X99800833Y-126083785D01*
X99770595Y-126114023D01*
X99710119Y-126144261D01*
X99649642Y-126144261D01*
X99589166Y-126114023D01*
X99558928Y-126083785D01*
X99528690Y-126023309D01*
X99498452Y-125902357D01*
X99498452Y-125751166D01*
X99528690Y-125630214D01*
X99558928Y-125569738D01*
X99589166Y-125539500D01*
X99649642Y-125509261D01*
X98273809Y-121505738D02*
X98304047Y-121475500D01*
X98364523Y-121445261D01*
X98515714Y-121445261D01*
X98576190Y-121475500D01*
X98606428Y-121505738D01*
X98636666Y-121566214D01*
X98636666Y-121626690D01*
X98606428Y-121717404D01*
X98243571Y-122080261D01*
X98636666Y-122080261D01*
X98999523Y-121717404D02*
X98939047Y-121687166D01*
X98908809Y-121656928D01*
X98878571Y-121596452D01*
X98878571Y-121566214D01*
X98908809Y-121505738D01*
X98939047Y-121475500D01*
X98999523Y-121445261D01*
X99120476Y-121445261D01*
X99180952Y-121475500D01*
X99211190Y-121505738D01*
X99241428Y-121566214D01*
X99241428Y-121596452D01*
X99211190Y-121656928D01*
X99180952Y-121687166D01*
X99120476Y-121717404D01*
X98999523Y-121717404D01*
X98939047Y-121747642D01*
X98908809Y-121777880D01*
X98878571Y-121838357D01*
X98878571Y-121959309D01*
X98908809Y-122019785D01*
X98939047Y-122050023D01*
X98999523Y-122080261D01*
X99120476Y-122080261D01*
X99180952Y-122050023D01*
X99211190Y-122019785D01*
X99241428Y-121959309D01*
X99241428Y-121838357D01*
X99211190Y-121777880D01*
X99180952Y-121747642D01*
X99120476Y-121717404D01*
X99453095Y-121445261D02*
X99876428Y-121445261D01*
X99604285Y-122080261D01*
X101191785Y-126144261D02*
X100980119Y-125841880D01*
X100828928Y-126144261D02*
X100828928Y-125509261D01*
X101070833Y-125509261D01*
X101131309Y-125539500D01*
X101161547Y-125569738D01*
X101191785Y-125630214D01*
X101191785Y-125720928D01*
X101161547Y-125781404D01*
X101131309Y-125811642D01*
X101070833Y-125841880D01*
X100828928Y-125841880D01*
X101796547Y-126144261D02*
X101433690Y-126144261D01*
X101615119Y-126144261D02*
X101615119Y-125509261D01*
X101554642Y-125599976D01*
X101494166Y-125660452D01*
X101433690Y-125690690D01*
X102038452Y-125569738D02*
X102068690Y-125539500D01*
X102129166Y-125509261D01*
X102280357Y-125509261D01*
X102340833Y-125539500D01*
X102371071Y-125569738D01*
X102401309Y-125630214D01*
X102401309Y-125690690D01*
X102371071Y-125781404D01*
X102008214Y-126144261D01*
X102401309Y-126144261D01*
X100813809Y-121505738D02*
X100844047Y-121475500D01*
X100904523Y-121445261D01*
X101055714Y-121445261D01*
X101116190Y-121475500D01*
X101146428Y-121505738D01*
X101176666Y-121566214D01*
X101176666Y-121626690D01*
X101146428Y-121717404D01*
X100783571Y-122080261D01*
X101176666Y-122080261D01*
X101539523Y-121717404D02*
X101479047Y-121687166D01*
X101448809Y-121656928D01*
X101418571Y-121596452D01*
X101418571Y-121566214D01*
X101448809Y-121505738D01*
X101479047Y-121475500D01*
X101539523Y-121445261D01*
X101660476Y-121445261D01*
X101720952Y-121475500D01*
X101751190Y-121505738D01*
X101781428Y-121566214D01*
X101781428Y-121596452D01*
X101751190Y-121656928D01*
X101720952Y-121687166D01*
X101660476Y-121717404D01*
X101539523Y-121717404D01*
X101479047Y-121747642D01*
X101448809Y-121777880D01*
X101418571Y-121838357D01*
X101418571Y-121959309D01*
X101448809Y-122019785D01*
X101479047Y-122050023D01*
X101539523Y-122080261D01*
X101660476Y-122080261D01*
X101720952Y-122050023D01*
X101751190Y-122019785D01*
X101781428Y-121959309D01*
X101781428Y-121838357D01*
X101751190Y-121777880D01*
X101720952Y-121747642D01*
X101660476Y-121717404D01*
X101993095Y-121445261D02*
X102416428Y-121445261D01*
X102144285Y-122080261D01*
X86254166Y-126144261D02*
X86042500Y-125841880D01*
X85891309Y-126144261D02*
X85891309Y-125509261D01*
X86133214Y-125509261D01*
X86193690Y-125539500D01*
X86223928Y-125569738D01*
X86254166Y-125630214D01*
X86254166Y-125720928D01*
X86223928Y-125781404D01*
X86193690Y-125811642D01*
X86133214Y-125841880D01*
X85891309Y-125841880D01*
X86617023Y-125781404D02*
X86556547Y-125751166D01*
X86526309Y-125720928D01*
X86496071Y-125660452D01*
X86496071Y-125630214D01*
X86526309Y-125569738D01*
X86556547Y-125539500D01*
X86617023Y-125509261D01*
X86737976Y-125509261D01*
X86798452Y-125539500D01*
X86828690Y-125569738D01*
X86858928Y-125630214D01*
X86858928Y-125660452D01*
X86828690Y-125720928D01*
X86798452Y-125751166D01*
X86737976Y-125781404D01*
X86617023Y-125781404D01*
X86556547Y-125811642D01*
X86526309Y-125841880D01*
X86496071Y-125902357D01*
X86496071Y-126023309D01*
X86526309Y-126083785D01*
X86556547Y-126114023D01*
X86617023Y-126144261D01*
X86737976Y-126144261D01*
X86798452Y-126114023D01*
X86828690Y-126083785D01*
X86858928Y-126023309D01*
X86858928Y-125902357D01*
X86828690Y-125841880D01*
X86798452Y-125811642D01*
X86737976Y-125781404D01*
X85573809Y-121505738D02*
X85604047Y-121475500D01*
X85664523Y-121445261D01*
X85815714Y-121445261D01*
X85876190Y-121475500D01*
X85906428Y-121505738D01*
X85936666Y-121566214D01*
X85936666Y-121626690D01*
X85906428Y-121717404D01*
X85543571Y-122080261D01*
X85936666Y-122080261D01*
X86299523Y-121717404D02*
X86239047Y-121687166D01*
X86208809Y-121656928D01*
X86178571Y-121596452D01*
X86178571Y-121566214D01*
X86208809Y-121505738D01*
X86239047Y-121475500D01*
X86299523Y-121445261D01*
X86420476Y-121445261D01*
X86480952Y-121475500D01*
X86511190Y-121505738D01*
X86541428Y-121566214D01*
X86541428Y-121596452D01*
X86511190Y-121656928D01*
X86480952Y-121687166D01*
X86420476Y-121717404D01*
X86299523Y-121717404D01*
X86239047Y-121747642D01*
X86208809Y-121777880D01*
X86178571Y-121838357D01*
X86178571Y-121959309D01*
X86208809Y-122019785D01*
X86239047Y-122050023D01*
X86299523Y-122080261D01*
X86420476Y-122080261D01*
X86480952Y-122050023D01*
X86511190Y-122019785D01*
X86541428Y-121959309D01*
X86541428Y-121838357D01*
X86511190Y-121777880D01*
X86480952Y-121747642D01*
X86420476Y-121717404D01*
X86753095Y-121445261D02*
X87176428Y-121445261D01*
X86904285Y-122080261D01*
X83714166Y-126144261D02*
X83502500Y-125841880D01*
X83351309Y-126144261D02*
X83351309Y-125509261D01*
X83593214Y-125509261D01*
X83653690Y-125539500D01*
X83683928Y-125569738D01*
X83714166Y-125630214D01*
X83714166Y-125720928D01*
X83683928Y-125781404D01*
X83653690Y-125811642D01*
X83593214Y-125841880D01*
X83351309Y-125841880D01*
X84258452Y-125509261D02*
X84137500Y-125509261D01*
X84077023Y-125539500D01*
X84046785Y-125569738D01*
X83986309Y-125660452D01*
X83956071Y-125781404D01*
X83956071Y-126023309D01*
X83986309Y-126083785D01*
X84016547Y-126114023D01*
X84077023Y-126144261D01*
X84197976Y-126144261D01*
X84258452Y-126114023D01*
X84288690Y-126083785D01*
X84318928Y-126023309D01*
X84318928Y-125872119D01*
X84288690Y-125811642D01*
X84258452Y-125781404D01*
X84197976Y-125751166D01*
X84077023Y-125751166D01*
X84016547Y-125781404D01*
X83986309Y-125811642D01*
X83956071Y-125872119D01*
X83033809Y-121505738D02*
X83064047Y-121475500D01*
X83124523Y-121445261D01*
X83275714Y-121445261D01*
X83336190Y-121475500D01*
X83366428Y-121505738D01*
X83396666Y-121566214D01*
X83396666Y-121626690D01*
X83366428Y-121717404D01*
X83003571Y-122080261D01*
X83396666Y-122080261D01*
X83759523Y-121717404D02*
X83699047Y-121687166D01*
X83668809Y-121656928D01*
X83638571Y-121596452D01*
X83638571Y-121566214D01*
X83668809Y-121505738D01*
X83699047Y-121475500D01*
X83759523Y-121445261D01*
X83880476Y-121445261D01*
X83940952Y-121475500D01*
X83971190Y-121505738D01*
X84001428Y-121566214D01*
X84001428Y-121596452D01*
X83971190Y-121656928D01*
X83940952Y-121687166D01*
X83880476Y-121717404D01*
X83759523Y-121717404D01*
X83699047Y-121747642D01*
X83668809Y-121777880D01*
X83638571Y-121838357D01*
X83638571Y-121959309D01*
X83668809Y-122019785D01*
X83699047Y-122050023D01*
X83759523Y-122080261D01*
X83880476Y-122080261D01*
X83940952Y-122050023D01*
X83971190Y-122019785D01*
X84001428Y-121959309D01*
X84001428Y-121838357D01*
X83971190Y-121777880D01*
X83940952Y-121747642D01*
X83880476Y-121717404D01*
X84213095Y-121445261D02*
X84636428Y-121445261D01*
X84364285Y-122080261D01*
X81174166Y-126144261D02*
X80962500Y-125841880D01*
X80811309Y-126144261D02*
X80811309Y-125509261D01*
X81053214Y-125509261D01*
X81113690Y-125539500D01*
X81143928Y-125569738D01*
X81174166Y-125630214D01*
X81174166Y-125720928D01*
X81143928Y-125781404D01*
X81113690Y-125811642D01*
X81053214Y-125841880D01*
X80811309Y-125841880D01*
X81718452Y-125720928D02*
X81718452Y-126144261D01*
X81567261Y-125479023D02*
X81416071Y-125932595D01*
X81809166Y-125932595D01*
X80493809Y-121505738D02*
X80524047Y-121475500D01*
X80584523Y-121445261D01*
X80735714Y-121445261D01*
X80796190Y-121475500D01*
X80826428Y-121505738D01*
X80856666Y-121566214D01*
X80856666Y-121626690D01*
X80826428Y-121717404D01*
X80463571Y-122080261D01*
X80856666Y-122080261D01*
X81219523Y-121717404D02*
X81159047Y-121687166D01*
X81128809Y-121656928D01*
X81098571Y-121596452D01*
X81098571Y-121566214D01*
X81128809Y-121505738D01*
X81159047Y-121475500D01*
X81219523Y-121445261D01*
X81340476Y-121445261D01*
X81400952Y-121475500D01*
X81431190Y-121505738D01*
X81461428Y-121566214D01*
X81461428Y-121596452D01*
X81431190Y-121656928D01*
X81400952Y-121687166D01*
X81340476Y-121717404D01*
X81219523Y-121717404D01*
X81159047Y-121747642D01*
X81128809Y-121777880D01*
X81098571Y-121838357D01*
X81098571Y-121959309D01*
X81128809Y-122019785D01*
X81159047Y-122050023D01*
X81219523Y-122080261D01*
X81340476Y-122080261D01*
X81400952Y-122050023D01*
X81431190Y-122019785D01*
X81461428Y-121959309D01*
X81461428Y-121838357D01*
X81431190Y-121777880D01*
X81400952Y-121747642D01*
X81340476Y-121717404D01*
X81673095Y-121445261D02*
X82096428Y-121445261D01*
X81824285Y-122080261D01*
X103731785Y-126144261D02*
X103520119Y-125841880D01*
X103368928Y-126144261D02*
X103368928Y-125509261D01*
X103610833Y-125509261D01*
X103671309Y-125539500D01*
X103701547Y-125569738D01*
X103731785Y-125630214D01*
X103731785Y-125720928D01*
X103701547Y-125781404D01*
X103671309Y-125811642D01*
X103610833Y-125841880D01*
X103368928Y-125841880D01*
X104336547Y-126144261D02*
X103973690Y-126144261D01*
X104155119Y-126144261D02*
X104155119Y-125509261D01*
X104094642Y-125599976D01*
X104034166Y-125660452D01*
X103973690Y-125690690D01*
X104880833Y-125720928D02*
X104880833Y-126144261D01*
X104729642Y-125479023D02*
X104578452Y-125932595D01*
X104971547Y-125932595D01*
X103353809Y-121505738D02*
X103384047Y-121475500D01*
X103444523Y-121445261D01*
X103595714Y-121445261D01*
X103656190Y-121475500D01*
X103686428Y-121505738D01*
X103716666Y-121566214D01*
X103716666Y-121626690D01*
X103686428Y-121717404D01*
X103323571Y-122080261D01*
X103716666Y-122080261D01*
X104079523Y-121717404D02*
X104019047Y-121687166D01*
X103988809Y-121656928D01*
X103958571Y-121596452D01*
X103958571Y-121566214D01*
X103988809Y-121505738D01*
X104019047Y-121475500D01*
X104079523Y-121445261D01*
X104200476Y-121445261D01*
X104260952Y-121475500D01*
X104291190Y-121505738D01*
X104321428Y-121566214D01*
X104321428Y-121596452D01*
X104291190Y-121656928D01*
X104260952Y-121687166D01*
X104200476Y-121717404D01*
X104079523Y-121717404D01*
X104019047Y-121747642D01*
X103988809Y-121777880D01*
X103958571Y-121838357D01*
X103958571Y-121959309D01*
X103988809Y-122019785D01*
X104019047Y-122050023D01*
X104079523Y-122080261D01*
X104200476Y-122080261D01*
X104260952Y-122050023D01*
X104291190Y-122019785D01*
X104321428Y-121959309D01*
X104321428Y-121838357D01*
X104291190Y-121777880D01*
X104260952Y-121747642D01*
X104200476Y-121717404D01*
X104533095Y-121445261D02*
X104956428Y-121445261D01*
X104684285Y-122080261D01*
X78634166Y-126144261D02*
X78422500Y-125841880D01*
X78271309Y-126144261D02*
X78271309Y-125509261D01*
X78513214Y-125509261D01*
X78573690Y-125539500D01*
X78603928Y-125569738D01*
X78634166Y-125630214D01*
X78634166Y-125720928D01*
X78603928Y-125781404D01*
X78573690Y-125811642D01*
X78513214Y-125841880D01*
X78271309Y-125841880D01*
X78876071Y-125569738D02*
X78906309Y-125539500D01*
X78966785Y-125509261D01*
X79117976Y-125509261D01*
X79178452Y-125539500D01*
X79208690Y-125569738D01*
X79238928Y-125630214D01*
X79238928Y-125690690D01*
X79208690Y-125781404D01*
X78845833Y-126144261D01*
X79238928Y-126144261D01*
X77953809Y-121505738D02*
X77984047Y-121475500D01*
X78044523Y-121445261D01*
X78195714Y-121445261D01*
X78256190Y-121475500D01*
X78286428Y-121505738D01*
X78316666Y-121566214D01*
X78316666Y-121626690D01*
X78286428Y-121717404D01*
X77923571Y-122080261D01*
X78316666Y-122080261D01*
X78679523Y-121717404D02*
X78619047Y-121687166D01*
X78588809Y-121656928D01*
X78558571Y-121596452D01*
X78558571Y-121566214D01*
X78588809Y-121505738D01*
X78619047Y-121475500D01*
X78679523Y-121445261D01*
X78800476Y-121445261D01*
X78860952Y-121475500D01*
X78891190Y-121505738D01*
X78921428Y-121566214D01*
X78921428Y-121596452D01*
X78891190Y-121656928D01*
X78860952Y-121687166D01*
X78800476Y-121717404D01*
X78679523Y-121717404D01*
X78619047Y-121747642D01*
X78588809Y-121777880D01*
X78558571Y-121838357D01*
X78558571Y-121959309D01*
X78588809Y-122019785D01*
X78619047Y-122050023D01*
X78679523Y-122080261D01*
X78800476Y-122080261D01*
X78860952Y-122050023D01*
X78891190Y-122019785D01*
X78921428Y-121959309D01*
X78921428Y-121838357D01*
X78891190Y-121777880D01*
X78860952Y-121747642D01*
X78800476Y-121717404D01*
X79133095Y-121445261D02*
X79556428Y-121445261D01*
X79284285Y-122080261D01*
X189124166Y-121064261D02*
X188912500Y-120761880D01*
X188761309Y-121064261D02*
X188761309Y-120429261D01*
X189003214Y-120429261D01*
X189063690Y-120459500D01*
X189093928Y-120489738D01*
X189124166Y-120550214D01*
X189124166Y-120640928D01*
X189093928Y-120701404D01*
X189063690Y-120731642D01*
X189003214Y-120761880D01*
X188761309Y-120761880D01*
X189728928Y-121064261D02*
X189366071Y-121064261D01*
X189547500Y-121064261D02*
X189547500Y-120429261D01*
X189487023Y-120519976D01*
X189426547Y-120580452D01*
X189366071Y-120610690D01*
X188337976Y-116425738D02*
X188368214Y-116395500D01*
X188428690Y-116365261D01*
X188579880Y-116365261D01*
X188640357Y-116395500D01*
X188670595Y-116425738D01*
X188700833Y-116486214D01*
X188700833Y-116546690D01*
X188670595Y-116637404D01*
X188307738Y-117000261D01*
X188700833Y-117000261D01*
X188972976Y-116939785D02*
X189003214Y-116970023D01*
X188972976Y-117000261D01*
X188942738Y-116970023D01*
X188972976Y-116939785D01*
X188972976Y-117000261D01*
X189245119Y-116425738D02*
X189275357Y-116395500D01*
X189335833Y-116365261D01*
X189487023Y-116365261D01*
X189547500Y-116395500D01*
X189577738Y-116425738D01*
X189607976Y-116486214D01*
X189607976Y-116546690D01*
X189577738Y-116637404D01*
X189214880Y-117000261D01*
X189607976Y-117000261D01*
X189880119Y-117000261D02*
X189880119Y-116365261D01*
X189940595Y-116758357D02*
X190122023Y-117000261D01*
X190122023Y-116576928D02*
X189880119Y-116818833D01*
X106271785Y-126144261D02*
X106060119Y-125841880D01*
X105908928Y-126144261D02*
X105908928Y-125509261D01*
X106150833Y-125509261D01*
X106211309Y-125539500D01*
X106241547Y-125569738D01*
X106271785Y-125630214D01*
X106271785Y-125720928D01*
X106241547Y-125781404D01*
X106211309Y-125811642D01*
X106150833Y-125841880D01*
X105908928Y-125841880D01*
X106876547Y-126144261D02*
X106513690Y-126144261D01*
X106695119Y-126144261D02*
X106695119Y-125509261D01*
X106634642Y-125599976D01*
X106574166Y-125660452D01*
X106513690Y-125690690D01*
X107420833Y-125509261D02*
X107299880Y-125509261D01*
X107239404Y-125539500D01*
X107209166Y-125569738D01*
X107148690Y-125660452D01*
X107118452Y-125781404D01*
X107118452Y-126023309D01*
X107148690Y-126083785D01*
X107178928Y-126114023D01*
X107239404Y-126144261D01*
X107360357Y-126144261D01*
X107420833Y-126114023D01*
X107451071Y-126083785D01*
X107481309Y-126023309D01*
X107481309Y-125872119D01*
X107451071Y-125811642D01*
X107420833Y-125781404D01*
X107360357Y-125751166D01*
X107239404Y-125751166D01*
X107178928Y-125781404D01*
X107148690Y-125811642D01*
X107118452Y-125872119D01*
X105893809Y-121505738D02*
X105924047Y-121475500D01*
X105984523Y-121445261D01*
X106135714Y-121445261D01*
X106196190Y-121475500D01*
X106226428Y-121505738D01*
X106256666Y-121566214D01*
X106256666Y-121626690D01*
X106226428Y-121717404D01*
X105863571Y-122080261D01*
X106256666Y-122080261D01*
X106619523Y-121717404D02*
X106559047Y-121687166D01*
X106528809Y-121656928D01*
X106498571Y-121596452D01*
X106498571Y-121566214D01*
X106528809Y-121505738D01*
X106559047Y-121475500D01*
X106619523Y-121445261D01*
X106740476Y-121445261D01*
X106800952Y-121475500D01*
X106831190Y-121505738D01*
X106861428Y-121566214D01*
X106861428Y-121596452D01*
X106831190Y-121656928D01*
X106800952Y-121687166D01*
X106740476Y-121717404D01*
X106619523Y-121717404D01*
X106559047Y-121747642D01*
X106528809Y-121777880D01*
X106498571Y-121838357D01*
X106498571Y-121959309D01*
X106528809Y-122019785D01*
X106559047Y-122050023D01*
X106619523Y-122080261D01*
X106740476Y-122080261D01*
X106800952Y-122050023D01*
X106831190Y-122019785D01*
X106861428Y-121959309D01*
X106861428Y-121838357D01*
X106831190Y-121777880D01*
X106800952Y-121747642D01*
X106740476Y-121717404D01*
X107073095Y-121445261D02*
X107496428Y-121445261D01*
X107224285Y-122080261D01*
X176309261Y-133123214D02*
X176006880Y-133334880D01*
X176309261Y-133486071D02*
X175674261Y-133486071D01*
X175674261Y-133244166D01*
X175704500Y-133183690D01*
X175734738Y-133153452D01*
X175795214Y-133123214D01*
X175885928Y-133123214D01*
X175946404Y-133153452D01*
X175976642Y-133183690D01*
X176006880Y-133244166D01*
X176006880Y-133486071D01*
X175734738Y-132881309D02*
X175704500Y-132851071D01*
X175674261Y-132790595D01*
X175674261Y-132639404D01*
X175704500Y-132578928D01*
X175734738Y-132548690D01*
X175795214Y-132518452D01*
X175855690Y-132518452D01*
X175946404Y-132548690D01*
X176309261Y-132911547D01*
X176309261Y-132518452D01*
X175674261Y-131943928D02*
X175674261Y-132246309D01*
X175976642Y-132276547D01*
X175946404Y-132246309D01*
X175916166Y-132185833D01*
X175916166Y-132034642D01*
X175946404Y-131974166D01*
X175976642Y-131943928D01*
X176037119Y-131913690D01*
X176188309Y-131913690D01*
X176248785Y-131943928D01*
X176279023Y-131974166D01*
X176309261Y-132034642D01*
X176309261Y-132185833D01*
X176279023Y-132246309D01*
X176248785Y-132276547D01*
X171670738Y-133501190D02*
X171640500Y-133470952D01*
X171610261Y-133410476D01*
X171610261Y-133259285D01*
X171640500Y-133198809D01*
X171670738Y-133168571D01*
X171731214Y-133138333D01*
X171791690Y-133138333D01*
X171882404Y-133168571D01*
X172245261Y-133531428D01*
X172245261Y-133138333D01*
X171882404Y-132775476D02*
X171852166Y-132835952D01*
X171821928Y-132866190D01*
X171761452Y-132896428D01*
X171731214Y-132896428D01*
X171670738Y-132866190D01*
X171640500Y-132835952D01*
X171610261Y-132775476D01*
X171610261Y-132654523D01*
X171640500Y-132594047D01*
X171670738Y-132563809D01*
X171731214Y-132533571D01*
X171761452Y-132533571D01*
X171821928Y-132563809D01*
X171852166Y-132594047D01*
X171882404Y-132654523D01*
X171882404Y-132775476D01*
X171912642Y-132835952D01*
X171942880Y-132866190D01*
X172003357Y-132896428D01*
X172124309Y-132896428D01*
X172184785Y-132866190D01*
X172215023Y-132835952D01*
X172245261Y-132775476D01*
X172245261Y-132654523D01*
X172215023Y-132594047D01*
X172184785Y-132563809D01*
X172124309Y-132533571D01*
X172003357Y-132533571D01*
X171942880Y-132563809D01*
X171912642Y-132594047D01*
X171882404Y-132654523D01*
X171610261Y-132321904D02*
X171610261Y-131898571D01*
X172245261Y-132170714D01*
X119159261Y-78513214D02*
X118856880Y-78724880D01*
X119159261Y-78876071D02*
X118524261Y-78876071D01*
X118524261Y-78634166D01*
X118554500Y-78573690D01*
X118584738Y-78543452D01*
X118645214Y-78513214D01*
X118735928Y-78513214D01*
X118796404Y-78543452D01*
X118826642Y-78573690D01*
X118856880Y-78634166D01*
X118856880Y-78876071D01*
X119159261Y-77908452D02*
X119159261Y-78271309D01*
X119159261Y-78089880D02*
X118524261Y-78089880D01*
X118614976Y-78150357D01*
X118675452Y-78210833D01*
X118705690Y-78271309D01*
X118796404Y-77545595D02*
X118766166Y-77606071D01*
X118735928Y-77636309D01*
X118675452Y-77666547D01*
X118645214Y-77666547D01*
X118584738Y-77636309D01*
X118554500Y-77606071D01*
X118524261Y-77545595D01*
X118524261Y-77424642D01*
X118554500Y-77364166D01*
X118584738Y-77333928D01*
X118645214Y-77303690D01*
X118675452Y-77303690D01*
X118735928Y-77333928D01*
X118766166Y-77364166D01*
X118796404Y-77424642D01*
X118796404Y-77545595D01*
X118826642Y-77606071D01*
X118856880Y-77636309D01*
X118917357Y-77666547D01*
X119038309Y-77666547D01*
X119098785Y-77636309D01*
X119129023Y-77606071D01*
X119159261Y-77545595D01*
X119159261Y-77424642D01*
X119129023Y-77364166D01*
X119098785Y-77333928D01*
X119038309Y-77303690D01*
X118917357Y-77303690D01*
X118856880Y-77333928D01*
X118826642Y-77364166D01*
X118796404Y-77424642D01*
X114520738Y-78891190D02*
X114490500Y-78860952D01*
X114460261Y-78800476D01*
X114460261Y-78649285D01*
X114490500Y-78588809D01*
X114520738Y-78558571D01*
X114581214Y-78528333D01*
X114641690Y-78528333D01*
X114732404Y-78558571D01*
X115095261Y-78921428D01*
X115095261Y-78528333D01*
X114732404Y-78165476D02*
X114702166Y-78225952D01*
X114671928Y-78256190D01*
X114611452Y-78286428D01*
X114581214Y-78286428D01*
X114520738Y-78256190D01*
X114490500Y-78225952D01*
X114460261Y-78165476D01*
X114460261Y-78044523D01*
X114490500Y-77984047D01*
X114520738Y-77953809D01*
X114581214Y-77923571D01*
X114611452Y-77923571D01*
X114671928Y-77953809D01*
X114702166Y-77984047D01*
X114732404Y-78044523D01*
X114732404Y-78165476D01*
X114762642Y-78225952D01*
X114792880Y-78256190D01*
X114853357Y-78286428D01*
X114974309Y-78286428D01*
X115034785Y-78256190D01*
X115065023Y-78225952D01*
X115095261Y-78165476D01*
X115095261Y-78044523D01*
X115065023Y-77984047D01*
X115034785Y-77953809D01*
X114974309Y-77923571D01*
X114853357Y-77923571D01*
X114792880Y-77953809D01*
X114762642Y-77984047D01*
X114732404Y-78044523D01*
X114460261Y-77711904D02*
X114460261Y-77288571D01*
X115095261Y-77560714D01*
X157259261Y-78513214D02*
X156956880Y-78724880D01*
X157259261Y-78876071D02*
X156624261Y-78876071D01*
X156624261Y-78634166D01*
X156654500Y-78573690D01*
X156684738Y-78543452D01*
X156745214Y-78513214D01*
X156835928Y-78513214D01*
X156896404Y-78543452D01*
X156926642Y-78573690D01*
X156956880Y-78634166D01*
X156956880Y-78876071D01*
X156684738Y-78271309D02*
X156654500Y-78241071D01*
X156624261Y-78180595D01*
X156624261Y-78029404D01*
X156654500Y-77968928D01*
X156684738Y-77938690D01*
X156745214Y-77908452D01*
X156805690Y-77908452D01*
X156896404Y-77938690D01*
X157259261Y-78301547D01*
X157259261Y-77908452D01*
X156684738Y-77666547D02*
X156654500Y-77636309D01*
X156624261Y-77575833D01*
X156624261Y-77424642D01*
X156654500Y-77364166D01*
X156684738Y-77333928D01*
X156745214Y-77303690D01*
X156805690Y-77303690D01*
X156896404Y-77333928D01*
X157259261Y-77696785D01*
X157259261Y-77303690D01*
X152620738Y-78891190D02*
X152590500Y-78860952D01*
X152560261Y-78800476D01*
X152560261Y-78649285D01*
X152590500Y-78588809D01*
X152620738Y-78558571D01*
X152681214Y-78528333D01*
X152741690Y-78528333D01*
X152832404Y-78558571D01*
X153195261Y-78921428D01*
X153195261Y-78528333D01*
X152832404Y-78165476D02*
X152802166Y-78225952D01*
X152771928Y-78256190D01*
X152711452Y-78286428D01*
X152681214Y-78286428D01*
X152620738Y-78256190D01*
X152590500Y-78225952D01*
X152560261Y-78165476D01*
X152560261Y-78044523D01*
X152590500Y-77984047D01*
X152620738Y-77953809D01*
X152681214Y-77923571D01*
X152711452Y-77923571D01*
X152771928Y-77953809D01*
X152802166Y-77984047D01*
X152832404Y-78044523D01*
X152832404Y-78165476D01*
X152862642Y-78225952D01*
X152892880Y-78256190D01*
X152953357Y-78286428D01*
X153074309Y-78286428D01*
X153134785Y-78256190D01*
X153165023Y-78225952D01*
X153195261Y-78165476D01*
X153195261Y-78044523D01*
X153165023Y-77984047D01*
X153134785Y-77953809D01*
X153074309Y-77923571D01*
X152953357Y-77923571D01*
X152892880Y-77953809D01*
X152862642Y-77984047D01*
X152832404Y-78044523D01*
X152560261Y-77711904D02*
X152560261Y-77288571D01*
X153195261Y-77560714D01*
X119159261Y-133123214D02*
X118856880Y-133334880D01*
X119159261Y-133486071D02*
X118524261Y-133486071D01*
X118524261Y-133244166D01*
X118554500Y-133183690D01*
X118584738Y-133153452D01*
X118645214Y-133123214D01*
X118735928Y-133123214D01*
X118796404Y-133153452D01*
X118826642Y-133183690D01*
X118856880Y-133244166D01*
X118856880Y-133486071D01*
X119159261Y-132518452D02*
X119159261Y-132881309D01*
X119159261Y-132699880D02*
X118524261Y-132699880D01*
X118614976Y-132760357D01*
X118675452Y-132820833D01*
X118705690Y-132881309D01*
X119159261Y-132216071D02*
X119159261Y-132095119D01*
X119129023Y-132034642D01*
X119098785Y-132004404D01*
X119008071Y-131943928D01*
X118887119Y-131913690D01*
X118645214Y-131913690D01*
X118584738Y-131943928D01*
X118554500Y-131974166D01*
X118524261Y-132034642D01*
X118524261Y-132155595D01*
X118554500Y-132216071D01*
X118584738Y-132246309D01*
X118645214Y-132276547D01*
X118796404Y-132276547D01*
X118856880Y-132246309D01*
X118887119Y-132216071D01*
X118917357Y-132155595D01*
X118917357Y-132034642D01*
X118887119Y-131974166D01*
X118856880Y-131943928D01*
X118796404Y-131913690D01*
X114520738Y-133501190D02*
X114490500Y-133470952D01*
X114460261Y-133410476D01*
X114460261Y-133259285D01*
X114490500Y-133198809D01*
X114520738Y-133168571D01*
X114581214Y-133138333D01*
X114641690Y-133138333D01*
X114732404Y-133168571D01*
X115095261Y-133531428D01*
X115095261Y-133138333D01*
X114732404Y-132775476D02*
X114702166Y-132835952D01*
X114671928Y-132866190D01*
X114611452Y-132896428D01*
X114581214Y-132896428D01*
X114520738Y-132866190D01*
X114490500Y-132835952D01*
X114460261Y-132775476D01*
X114460261Y-132654523D01*
X114490500Y-132594047D01*
X114520738Y-132563809D01*
X114581214Y-132533571D01*
X114611452Y-132533571D01*
X114671928Y-132563809D01*
X114702166Y-132594047D01*
X114732404Y-132654523D01*
X114732404Y-132775476D01*
X114762642Y-132835952D01*
X114792880Y-132866190D01*
X114853357Y-132896428D01*
X114974309Y-132896428D01*
X115034785Y-132866190D01*
X115065023Y-132835952D01*
X115095261Y-132775476D01*
X115095261Y-132654523D01*
X115065023Y-132594047D01*
X115034785Y-132563809D01*
X114974309Y-132533571D01*
X114853357Y-132533571D01*
X114792880Y-132563809D01*
X114762642Y-132594047D01*
X114732404Y-132654523D01*
X114460261Y-132321904D02*
X114460261Y-131898571D01*
X115095261Y-132170714D01*
X157259261Y-133123214D02*
X156956880Y-133334880D01*
X157259261Y-133486071D02*
X156624261Y-133486071D01*
X156624261Y-133244166D01*
X156654500Y-133183690D01*
X156684738Y-133153452D01*
X156745214Y-133123214D01*
X156835928Y-133123214D01*
X156896404Y-133153452D01*
X156926642Y-133183690D01*
X156956880Y-133244166D01*
X156956880Y-133486071D01*
X156684738Y-132881309D02*
X156654500Y-132851071D01*
X156624261Y-132790595D01*
X156624261Y-132639404D01*
X156654500Y-132578928D01*
X156684738Y-132548690D01*
X156745214Y-132518452D01*
X156805690Y-132518452D01*
X156896404Y-132548690D01*
X157259261Y-132911547D01*
X157259261Y-132518452D01*
X156624261Y-132306785D02*
X156624261Y-131913690D01*
X156866166Y-132125357D01*
X156866166Y-132034642D01*
X156896404Y-131974166D01*
X156926642Y-131943928D01*
X156987119Y-131913690D01*
X157138309Y-131913690D01*
X157198785Y-131943928D01*
X157229023Y-131974166D01*
X157259261Y-132034642D01*
X157259261Y-132216071D01*
X157229023Y-132276547D01*
X157198785Y-132306785D01*
X152620738Y-133501190D02*
X152590500Y-133470952D01*
X152560261Y-133410476D01*
X152560261Y-133259285D01*
X152590500Y-133198809D01*
X152620738Y-133168571D01*
X152681214Y-133138333D01*
X152741690Y-133138333D01*
X152832404Y-133168571D01*
X153195261Y-133531428D01*
X153195261Y-133138333D01*
X152832404Y-132775476D02*
X152802166Y-132835952D01*
X152771928Y-132866190D01*
X152711452Y-132896428D01*
X152681214Y-132896428D01*
X152620738Y-132866190D01*
X152590500Y-132835952D01*
X152560261Y-132775476D01*
X152560261Y-132654523D01*
X152590500Y-132594047D01*
X152620738Y-132563809D01*
X152681214Y-132533571D01*
X152711452Y-132533571D01*
X152771928Y-132563809D01*
X152802166Y-132594047D01*
X152832404Y-132654523D01*
X152832404Y-132775476D01*
X152862642Y-132835952D01*
X152892880Y-132866190D01*
X152953357Y-132896428D01*
X153074309Y-132896428D01*
X153134785Y-132866190D01*
X153165023Y-132835952D01*
X153195261Y-132775476D01*
X153195261Y-132654523D01*
X153165023Y-132594047D01*
X153134785Y-132563809D01*
X153074309Y-132533571D01*
X152953357Y-132533571D01*
X152892880Y-132563809D01*
X152862642Y-132594047D01*
X152832404Y-132654523D01*
X152560261Y-132321904D02*
X152560261Y-131898571D01*
X153195261Y-132170714D01*
X176309261Y-78513214D02*
X176006880Y-78724880D01*
X176309261Y-78876071D02*
X175674261Y-78876071D01*
X175674261Y-78634166D01*
X175704500Y-78573690D01*
X175734738Y-78543452D01*
X175795214Y-78513214D01*
X175885928Y-78513214D01*
X175946404Y-78543452D01*
X175976642Y-78573690D01*
X176006880Y-78634166D01*
X176006880Y-78876071D01*
X175734738Y-78271309D02*
X175704500Y-78241071D01*
X175674261Y-78180595D01*
X175674261Y-78029404D01*
X175704500Y-77968928D01*
X175734738Y-77938690D01*
X175795214Y-77908452D01*
X175855690Y-77908452D01*
X175946404Y-77938690D01*
X176309261Y-78301547D01*
X176309261Y-77908452D01*
X175885928Y-77364166D02*
X176309261Y-77364166D01*
X175644023Y-77515357D02*
X176097595Y-77666547D01*
X176097595Y-77273452D01*
X171670738Y-78891190D02*
X171640500Y-78860952D01*
X171610261Y-78800476D01*
X171610261Y-78649285D01*
X171640500Y-78588809D01*
X171670738Y-78558571D01*
X171731214Y-78528333D01*
X171791690Y-78528333D01*
X171882404Y-78558571D01*
X172245261Y-78921428D01*
X172245261Y-78528333D01*
X171882404Y-78165476D02*
X171852166Y-78225952D01*
X171821928Y-78256190D01*
X171761452Y-78286428D01*
X171731214Y-78286428D01*
X171670738Y-78256190D01*
X171640500Y-78225952D01*
X171610261Y-78165476D01*
X171610261Y-78044523D01*
X171640500Y-77984047D01*
X171670738Y-77953809D01*
X171731214Y-77923571D01*
X171761452Y-77923571D01*
X171821928Y-77953809D01*
X171852166Y-77984047D01*
X171882404Y-78044523D01*
X171882404Y-78165476D01*
X171912642Y-78225952D01*
X171942880Y-78256190D01*
X172003357Y-78286428D01*
X172124309Y-78286428D01*
X172184785Y-78256190D01*
X172215023Y-78225952D01*
X172245261Y-78165476D01*
X172245261Y-78044523D01*
X172215023Y-77984047D01*
X172184785Y-77953809D01*
X172124309Y-77923571D01*
X172003357Y-77923571D01*
X171942880Y-77953809D01*
X171912642Y-77984047D01*
X171882404Y-78044523D01*
X171610261Y-77711904D02*
X171610261Y-77288571D01*
X172245261Y-77560714D01*
X138209261Y-78513214D02*
X137906880Y-78724880D01*
X138209261Y-78876071D02*
X137574261Y-78876071D01*
X137574261Y-78634166D01*
X137604500Y-78573690D01*
X137634738Y-78543452D01*
X137695214Y-78513214D01*
X137785928Y-78513214D01*
X137846404Y-78543452D01*
X137876642Y-78573690D01*
X137906880Y-78634166D01*
X137906880Y-78876071D01*
X137634738Y-78271309D02*
X137604500Y-78241071D01*
X137574261Y-78180595D01*
X137574261Y-78029404D01*
X137604500Y-77968928D01*
X137634738Y-77938690D01*
X137695214Y-77908452D01*
X137755690Y-77908452D01*
X137846404Y-77938690D01*
X138209261Y-78301547D01*
X138209261Y-77908452D01*
X137574261Y-77515357D02*
X137574261Y-77454880D01*
X137604500Y-77394404D01*
X137634738Y-77364166D01*
X137695214Y-77333928D01*
X137816166Y-77303690D01*
X137967357Y-77303690D01*
X138088309Y-77333928D01*
X138148785Y-77364166D01*
X138179023Y-77394404D01*
X138209261Y-77454880D01*
X138209261Y-77515357D01*
X138179023Y-77575833D01*
X138148785Y-77606071D01*
X138088309Y-77636309D01*
X137967357Y-77666547D01*
X137816166Y-77666547D01*
X137695214Y-77636309D01*
X137634738Y-77606071D01*
X137604500Y-77575833D01*
X137574261Y-77515357D01*
X133570738Y-78891190D02*
X133540500Y-78860952D01*
X133510261Y-78800476D01*
X133510261Y-78649285D01*
X133540500Y-78588809D01*
X133570738Y-78558571D01*
X133631214Y-78528333D01*
X133691690Y-78528333D01*
X133782404Y-78558571D01*
X134145261Y-78921428D01*
X134145261Y-78528333D01*
X133782404Y-78165476D02*
X133752166Y-78225952D01*
X133721928Y-78256190D01*
X133661452Y-78286428D01*
X133631214Y-78286428D01*
X133570738Y-78256190D01*
X133540500Y-78225952D01*
X133510261Y-78165476D01*
X133510261Y-78044523D01*
X133540500Y-77984047D01*
X133570738Y-77953809D01*
X133631214Y-77923571D01*
X133661452Y-77923571D01*
X133721928Y-77953809D01*
X133752166Y-77984047D01*
X133782404Y-78044523D01*
X133782404Y-78165476D01*
X133812642Y-78225952D01*
X133842880Y-78256190D01*
X133903357Y-78286428D01*
X134024309Y-78286428D01*
X134084785Y-78256190D01*
X134115023Y-78225952D01*
X134145261Y-78165476D01*
X134145261Y-78044523D01*
X134115023Y-77984047D01*
X134084785Y-77953809D01*
X134024309Y-77923571D01*
X133903357Y-77923571D01*
X133842880Y-77953809D01*
X133812642Y-77984047D01*
X133782404Y-78044523D01*
X133510261Y-77711904D02*
X133510261Y-77288571D01*
X134145261Y-77560714D01*
X138209261Y-133123214D02*
X137906880Y-133334880D01*
X138209261Y-133486071D02*
X137574261Y-133486071D01*
X137574261Y-133244166D01*
X137604500Y-133183690D01*
X137634738Y-133153452D01*
X137695214Y-133123214D01*
X137785928Y-133123214D01*
X137846404Y-133153452D01*
X137876642Y-133183690D01*
X137906880Y-133244166D01*
X137906880Y-133486071D01*
X137634738Y-132881309D02*
X137604500Y-132851071D01*
X137574261Y-132790595D01*
X137574261Y-132639404D01*
X137604500Y-132578928D01*
X137634738Y-132548690D01*
X137695214Y-132518452D01*
X137755690Y-132518452D01*
X137846404Y-132548690D01*
X138209261Y-132911547D01*
X138209261Y-132518452D01*
X138209261Y-131913690D02*
X138209261Y-132276547D01*
X138209261Y-132095119D02*
X137574261Y-132095119D01*
X137664976Y-132155595D01*
X137725452Y-132216071D01*
X137755690Y-132276547D01*
X133570738Y-133501190D02*
X133540500Y-133470952D01*
X133510261Y-133410476D01*
X133510261Y-133259285D01*
X133540500Y-133198809D01*
X133570738Y-133168571D01*
X133631214Y-133138333D01*
X133691690Y-133138333D01*
X133782404Y-133168571D01*
X134145261Y-133531428D01*
X134145261Y-133138333D01*
X133782404Y-132775476D02*
X133752166Y-132835952D01*
X133721928Y-132866190D01*
X133661452Y-132896428D01*
X133631214Y-132896428D01*
X133570738Y-132866190D01*
X133540500Y-132835952D01*
X133510261Y-132775476D01*
X133510261Y-132654523D01*
X133540500Y-132594047D01*
X133570738Y-132563809D01*
X133631214Y-132533571D01*
X133661452Y-132533571D01*
X133721928Y-132563809D01*
X133752166Y-132594047D01*
X133782404Y-132654523D01*
X133782404Y-132775476D01*
X133812642Y-132835952D01*
X133842880Y-132866190D01*
X133903357Y-132896428D01*
X134024309Y-132896428D01*
X134084785Y-132866190D01*
X134115023Y-132835952D01*
X134145261Y-132775476D01*
X134145261Y-132654523D01*
X134115023Y-132594047D01*
X134084785Y-132563809D01*
X134024309Y-132533571D01*
X133903357Y-132533571D01*
X133842880Y-132563809D01*
X133812642Y-132594047D01*
X133782404Y-132654523D01*
X133510261Y-132321904D02*
X133510261Y-131898571D01*
X134145261Y-132170714D01*
D15*
X74754619Y-115273666D02*
X75480333Y-115273666D01*
X75625476Y-115322047D01*
X75722238Y-115418809D01*
X75770619Y-115563952D01*
X75770619Y-115660714D01*
X74754619Y-114886619D02*
X74754619Y-114257666D01*
X75141666Y-114596333D01*
X75141666Y-114451190D01*
X75190047Y-114354428D01*
X75238428Y-114306047D01*
X75335190Y-114257666D01*
X75577095Y-114257666D01*
X75673857Y-114306047D01*
X75722238Y-114354428D01*
X75770619Y-114451190D01*
X75770619Y-114741476D01*
X75722238Y-114838238D01*
X75673857Y-114886619D01*
D20*
X78984928Y-98252642D02*
X79148214Y-98307071D01*
X79420357Y-98307071D01*
X79529214Y-98252642D01*
X79583642Y-98198214D01*
X79638071Y-98089357D01*
X79638071Y-97980500D01*
X79583642Y-97871642D01*
X79529214Y-97817214D01*
X79420357Y-97762785D01*
X79202642Y-97708357D01*
X79093785Y-97653928D01*
X79039357Y-97599500D01*
X78984928Y-97490642D01*
X78984928Y-97381785D01*
X79039357Y-97272928D01*
X79093785Y-97218500D01*
X79202642Y-97164071D01*
X79474785Y-97164071D01*
X79638071Y-97218500D01*
X80345642Y-97164071D02*
X80563357Y-97164071D01*
X80672214Y-97218500D01*
X80781071Y-97327357D01*
X80835500Y-97545071D01*
X80835500Y-97926071D01*
X80781071Y-98143785D01*
X80672214Y-98252642D01*
X80563357Y-98307071D01*
X80345642Y-98307071D01*
X80236785Y-98252642D01*
X80127928Y-98143785D01*
X80073500Y-97926071D01*
X80073500Y-97545071D01*
X80127928Y-97327357D01*
X80236785Y-97218500D01*
X80345642Y-97164071D01*
X81978500Y-98198214D02*
X81924071Y-98252642D01*
X81760785Y-98307071D01*
X81651928Y-98307071D01*
X81488642Y-98252642D01*
X81379785Y-98143785D01*
X81325357Y-98034928D01*
X81270928Y-97817214D01*
X81270928Y-97653928D01*
X81325357Y-97436214D01*
X81379785Y-97327357D01*
X81488642Y-97218500D01*
X81651928Y-97164071D01*
X81760785Y-97164071D01*
X81924071Y-97218500D01*
X81978500Y-97272928D01*
X82468357Y-98307071D02*
X82468357Y-97164071D01*
X83121500Y-98307071D02*
X82631642Y-97653928D01*
X83121500Y-97164071D02*
X82468357Y-97817214D01*
X83611357Y-97708357D02*
X83992357Y-97708357D01*
X84155642Y-98307071D02*
X83611357Y-98307071D01*
X83611357Y-97164071D01*
X84155642Y-97164071D01*
X84482214Y-97164071D02*
X85135357Y-97164071D01*
X84808785Y-98307071D02*
X84808785Y-97164071D01*
X85461928Y-98252642D02*
X85625214Y-98307071D01*
X85897357Y-98307071D01*
X86006214Y-98252642D01*
X86060642Y-98198214D01*
X86115071Y-98089357D01*
X86115071Y-97980500D01*
X86060642Y-97871642D01*
X86006214Y-97817214D01*
X85897357Y-97762785D01*
X85679642Y-97708357D01*
X85570785Y-97653928D01*
X85516357Y-97599500D01*
X85461928Y-97490642D01*
X85461928Y-97381785D01*
X85516357Y-97272928D01*
X85570785Y-97218500D01*
X85679642Y-97164071D01*
X85951785Y-97164071D01*
X86115071Y-97218500D01*
X80073500Y-95803357D02*
X79692500Y-95803357D01*
X79692500Y-96402071D02*
X79692500Y-95259071D01*
X80236785Y-95259071D01*
X80672214Y-95803357D02*
X81053214Y-95803357D01*
X81216500Y-96402071D02*
X80672214Y-96402071D01*
X80672214Y-95259071D01*
X81216500Y-95259071D01*
X81706357Y-96402071D02*
X81706357Y-95259071D01*
X82087357Y-96075500D01*
X82468357Y-95259071D01*
X82468357Y-96402071D01*
X82958214Y-96075500D02*
X83502500Y-96075500D01*
X82849357Y-96402071D02*
X83230357Y-95259071D01*
X83611357Y-96402071D01*
X84536642Y-96402071D02*
X83992357Y-96402071D01*
X83992357Y-95259071D01*
X84917642Y-95803357D02*
X85298642Y-95803357D01*
X85461928Y-96402071D02*
X84917642Y-96402071D01*
X84917642Y-95259071D01*
X85461928Y-95259071D01*
D15*
X95074619Y-115273666D02*
X95800333Y-115273666D01*
X95945476Y-115322047D01*
X96042238Y-115418809D01*
X96090619Y-115563952D01*
X96090619Y-115660714D01*
X95413285Y-114354428D02*
X96090619Y-114354428D01*
X95026238Y-114596333D02*
X95751952Y-114838238D01*
X95751952Y-114209285D01*
D20*
X101155500Y-98307071D02*
X101155500Y-97164071D01*
X101590928Y-97164071D01*
X101699785Y-97218500D01*
X101754214Y-97272928D01*
X101808642Y-97381785D01*
X101808642Y-97545071D01*
X101754214Y-97653928D01*
X101699785Y-97708357D01*
X101590928Y-97762785D01*
X101155500Y-97762785D01*
X102298500Y-98307071D02*
X102298500Y-97164071D01*
X102842785Y-98307071D02*
X102842785Y-97164071D01*
X103495928Y-98307071D01*
X103495928Y-97164071D01*
X103985785Y-98252642D02*
X104149071Y-98307071D01*
X104421214Y-98307071D01*
X104530071Y-98252642D01*
X104584500Y-98198214D01*
X104638928Y-98089357D01*
X104638928Y-97980500D01*
X104584500Y-97871642D01*
X104530071Y-97817214D01*
X104421214Y-97762785D01*
X104203500Y-97708357D01*
X104094642Y-97653928D01*
X104040214Y-97599500D01*
X103985785Y-97490642D01*
X103985785Y-97381785D01*
X104040214Y-97272928D01*
X104094642Y-97218500D01*
X104203500Y-97164071D01*
X104475642Y-97164071D01*
X104638928Y-97218500D01*
X101019428Y-96402071D02*
X101019428Y-95259071D01*
X101400428Y-96075500D01*
X101781428Y-95259071D01*
X101781428Y-96402071D01*
X102271285Y-96075500D02*
X102815571Y-96075500D01*
X102162428Y-96402071D02*
X102543428Y-95259071D01*
X102924428Y-96402071D01*
X103849714Y-96402071D02*
X103305428Y-96402071D01*
X103305428Y-95259071D01*
X104230714Y-95803357D02*
X104611714Y-95803357D01*
X104775000Y-96402071D02*
X104230714Y-96402071D01*
X104230714Y-95259071D01*
X104775000Y-95259071D01*
D15*
X184670095Y-114124619D02*
X184670095Y-113108619D01*
X185057142Y-113108619D01*
X185153904Y-113157000D01*
X185202285Y-113205380D01*
X185250666Y-113302142D01*
X185250666Y-113447285D01*
X185202285Y-113544047D01*
X185153904Y-113592428D01*
X185057142Y-113640809D01*
X184670095Y-113640809D01*
X186218285Y-114124619D02*
X185637714Y-114124619D01*
X185928000Y-114124619D02*
X185928000Y-113108619D01*
X185831238Y-113253761D01*
X185734476Y-113350523D01*
X185637714Y-113398904D01*
%LPC*%
D21*
X125785000Y-89535000D03*
D22*
X116785000Y-89535000D03*
D23*
X126960000Y-89535000D03*
X115610000Y-89535000D03*
D24*
X119515000Y-91305000D03*
X123055000Y-91305000D03*
X123055000Y-87765000D03*
X119515000Y-87765000D03*
X121285000Y-89535000D03*
D21*
X125785000Y-121285000D03*
D22*
X116785000Y-121285000D03*
D23*
X126960000Y-121285000D03*
X115610000Y-121285000D03*
D24*
X119515000Y-123055000D03*
X123055000Y-123055000D03*
X123055000Y-119515000D03*
X119515000Y-119515000D03*
X121285000Y-121285000D03*
D21*
X144835000Y-89535000D03*
D22*
X135835000Y-89535000D03*
D23*
X146010000Y-89535000D03*
X134660000Y-89535000D03*
D24*
X138565000Y-91305000D03*
X142105000Y-91305000D03*
X142105000Y-87765000D03*
X138565000Y-87765000D03*
X140335000Y-89535000D03*
D21*
X144835000Y-121285000D03*
D22*
X135835000Y-121285000D03*
D23*
X146010000Y-121285000D03*
X134660000Y-121285000D03*
D24*
X138565000Y-123055000D03*
X142105000Y-123055000D03*
X142105000Y-119515000D03*
X138565000Y-119515000D03*
X140335000Y-121285000D03*
D21*
X163885000Y-121285000D03*
D22*
X154885000Y-121285000D03*
D23*
X165060000Y-121285000D03*
X153710000Y-121285000D03*
D24*
X157615000Y-123055000D03*
X161155000Y-123055000D03*
X161155000Y-119515000D03*
X157615000Y-119515000D03*
X159385000Y-121285000D03*
D21*
X182935000Y-89535000D03*
D22*
X173935000Y-89535000D03*
D23*
X184110000Y-89535000D03*
X172760000Y-89535000D03*
D24*
X176665000Y-91305000D03*
X180205000Y-91305000D03*
X180205000Y-87765000D03*
X176665000Y-87765000D03*
X178435000Y-89535000D03*
D21*
X163885000Y-89535000D03*
D22*
X154885000Y-89535000D03*
D23*
X165060000Y-89535000D03*
X153710000Y-89535000D03*
D24*
X157615000Y-91305000D03*
X161155000Y-91305000D03*
X161155000Y-87765000D03*
X157615000Y-87765000D03*
X159385000Y-89535000D03*
D21*
X182935000Y-121285000D03*
D22*
X173935000Y-121285000D03*
D23*
X184110000Y-121285000D03*
X172760000Y-121285000D03*
D24*
X176665000Y-123055000D03*
X180205000Y-123055000D03*
X180205000Y-119515000D03*
X176665000Y-119515000D03*
X178435000Y-121285000D03*
D25*
X78740000Y-129324100D03*
X78740000Y-127215900D03*
X189230000Y-124460100D03*
X189230000Y-122351900D03*
X179489100Y-78105000D03*
X177380900Y-78105000D03*
X179489100Y-132715000D03*
X177380900Y-132715000D03*
X160439100Y-132715000D03*
X158330900Y-132715000D03*
X81280000Y-129324100D03*
X81280000Y-127215900D03*
X160439100Y-78105000D03*
X158330900Y-78105000D03*
X141389100Y-132715000D03*
X139280900Y-132715000D03*
X86360000Y-129324100D03*
X86360000Y-127215900D03*
X141389100Y-78105000D03*
X139280900Y-78105000D03*
X122339100Y-132715000D03*
X120230900Y-132715000D03*
X99060000Y-129324100D03*
X99060000Y-127215900D03*
X122339100Y-78105000D03*
X120230900Y-78105000D03*
X101600000Y-129324100D03*
X101600000Y-127215900D03*
X106680000Y-129324100D03*
X106680000Y-127215900D03*
X104140000Y-129324100D03*
X104140000Y-127215900D03*
X83820000Y-129324100D03*
X83820000Y-127215900D03*
D26*
X99060000Y-124866400D03*
X99060000Y-122783600D03*
X101600000Y-124866400D03*
X101600000Y-122783600D03*
X86360000Y-124866400D03*
X86360000Y-122783600D03*
X83820000Y-124866400D03*
X83820000Y-122783600D03*
X81280000Y-124866400D03*
X81280000Y-122783600D03*
X104140000Y-124866400D03*
X104140000Y-122783600D03*
X78740000Y-124866400D03*
X78740000Y-122783600D03*
X189230000Y-119786400D03*
X189230000Y-117703600D03*
X106680000Y-124866400D03*
X106680000Y-122783600D03*
D27*
X175031400Y-132715000D03*
X172948600Y-132715000D03*
X117881400Y-78105000D03*
X115798600Y-78105000D03*
X155981400Y-78105000D03*
X153898600Y-78105000D03*
X117881400Y-132715000D03*
X115798600Y-132715000D03*
X155981400Y-132715000D03*
X153898600Y-132715000D03*
X175031400Y-78105000D03*
X172948600Y-78105000D03*
X136931400Y-78105000D03*
X134848600Y-78105000D03*
X136931400Y-132715000D03*
X134848600Y-132715000D03*
D28*
X133350000Y-135890000D03*
X130810000Y-135890000D03*
X128270000Y-135890000D03*
X125730000Y-135890000D03*
X123190000Y-135890000D03*
X120650000Y-135890000D03*
X118110000Y-135890000D03*
X115570000Y-135890000D03*
X113030000Y-135890000D03*
X110490000Y-135890000D03*
X107950000Y-135890000D03*
X105410000Y-135890000D03*
X102870000Y-135890000D03*
D29*
X72390000Y-135890000D03*
D28*
X74930000Y-135890000D03*
X77470000Y-135890000D03*
X80010000Y-135890000D03*
X82550000Y-135890000D03*
X85090000Y-135890000D03*
X87630000Y-135890000D03*
X90170000Y-135890000D03*
X92710000Y-135890000D03*
X95250000Y-135890000D03*
X97790000Y-135890000D03*
X100330000Y-135890000D03*
X133350000Y-74930000D03*
X130810000Y-74930000D03*
X128270000Y-74930000D03*
X125730000Y-74930000D03*
X123190000Y-74930000D03*
X120650000Y-74930000D03*
X118110000Y-74930000D03*
X115570000Y-74930000D03*
X113030000Y-74930000D03*
X110490000Y-74930000D03*
X107950000Y-74930000D03*
X105410000Y-74930000D03*
X102870000Y-74930000D03*
D29*
X72390000Y-74930000D03*
D28*
X74930000Y-74930000D03*
X77470000Y-74930000D03*
X80010000Y-74930000D03*
X82550000Y-74930000D03*
X85090000Y-74930000D03*
X87630000Y-74930000D03*
X90170000Y-74930000D03*
X92710000Y-74930000D03*
X95250000Y-74930000D03*
X97790000Y-74930000D03*
X100330000Y-74930000D03*
D30*
X79450000Y-92910000D03*
X79450000Y-117910000D03*
D31*
X82550000Y-119610000D03*
D32*
X82550000Y-91210000D03*
D33*
X80830000Y-110890000D03*
X80830000Y-108150000D03*
X80830000Y-105410000D03*
X80830000Y-102670000D03*
X80830000Y-99930000D03*
X84270000Y-109520000D03*
X84270000Y-106780000D03*
X84270000Y-104040000D03*
X84270000Y-101300000D03*
D30*
X99770000Y-92910000D03*
X99770000Y-117910000D03*
D31*
X102870000Y-119610000D03*
D32*
X102870000Y-91210000D03*
D33*
X101150000Y-110890000D03*
X101150000Y-108150000D03*
X101150000Y-105410000D03*
X101150000Y-102670000D03*
X101150000Y-99930000D03*
X104590000Y-109520000D03*
X104590000Y-106780000D03*
X104590000Y-104040000D03*
X104590000Y-101300000D03*
D34*
X71120000Y-137795000D03*
X189865000Y-137795000D03*
X189865000Y-73025000D03*
X71120000Y-73025000D03*
D35*
X73660000Y-80010000D03*
X165100000Y-74930000D03*
X165100000Y-135890000D03*
X73660000Y-130810000D03*
D36*
X175160000Y-109610000D03*
X175160000Y-105410000D03*
X175160000Y-101210000D03*
X180660000Y-109610000D03*
X180660000Y-105410000D03*
D37*
X180660000Y-101210000D03*
D38*
X187960000Y-109610000D03*
X187960000Y-101210000D03*
M02*
