G04 #@! TF.GenerationSoftware,KiCad,Pcbnew,6.0.0-unknown-f21face~86~ubuntu18.04.1*
G04 #@! TF.CreationDate,2019-05-20T10:49:21-04:00*
G04 #@! TF.ProjectId,backlight_controller_5x3,6261636b-6c69-4676-9874-5f636f6e7472,1.3*
G04 #@! TF.SameCoordinates,Original*
G04 #@! TF.FileFunction,Paste,Top*
G04 #@! TF.FilePolarity,Positive*
%FSLAX46Y46*%
G04 Gerber Fmt 4.6, Leading zero omitted, Abs format (unit mm)*
G04 Created by KiCad (PCBNEW 6.0.0-unknown-f21face~86~ubuntu18.04.1) date 2019-05-20 10:49:21*
%MOMM*%
%LPD*%
G04 APERTURE LIST*
%ADD10R,1.193800X1.193800*%
%ADD11R,1.600200X0.787400*%
%ADD12R,0.787400X1.600200*%
G04 APERTURE END LIST*
D10*
X78740000Y-129324100D03*
X78740000Y-127215900D03*
X189230000Y-124460100D03*
X189230000Y-122351900D03*
X179489100Y-78105000D03*
X177380900Y-78105000D03*
X179489100Y-132715000D03*
X177380900Y-132715000D03*
X160439100Y-132715000D03*
X158330900Y-132715000D03*
X81280000Y-129324100D03*
X81280000Y-127215900D03*
X160439100Y-78105000D03*
X158330900Y-78105000D03*
X141389100Y-132715000D03*
X139280900Y-132715000D03*
X86360000Y-129324100D03*
X86360000Y-127215900D03*
X141389100Y-78105000D03*
X139280900Y-78105000D03*
X122339100Y-132715000D03*
X120230900Y-132715000D03*
X99060000Y-129324100D03*
X99060000Y-127215900D03*
X122339100Y-78105000D03*
X120230900Y-78105000D03*
X101600000Y-129324100D03*
X101600000Y-127215900D03*
X106680000Y-129324100D03*
X106680000Y-127215900D03*
X104140000Y-129324100D03*
X104140000Y-127215900D03*
X83820000Y-129324100D03*
X83820000Y-127215900D03*
D11*
X99060000Y-124866400D03*
X99060000Y-122783600D03*
X101600000Y-124866400D03*
X101600000Y-122783600D03*
X86360000Y-124866400D03*
X86360000Y-122783600D03*
X83820000Y-124866400D03*
X83820000Y-122783600D03*
X81280000Y-124866400D03*
X81280000Y-122783600D03*
X104140000Y-124866400D03*
X104140000Y-122783600D03*
X78740000Y-124866400D03*
X78740000Y-122783600D03*
X189230000Y-119786400D03*
X189230000Y-117703600D03*
X106680000Y-124866400D03*
X106680000Y-122783600D03*
D12*
X175031400Y-132715000D03*
X172948600Y-132715000D03*
X117881400Y-78105000D03*
X115798600Y-78105000D03*
X155981400Y-78105000D03*
X153898600Y-78105000D03*
X117881400Y-132715000D03*
X115798600Y-132715000D03*
X155981400Y-132715000D03*
X153898600Y-132715000D03*
X175031400Y-78105000D03*
X172948600Y-78105000D03*
X136931400Y-78105000D03*
X134848600Y-78105000D03*
X136931400Y-132715000D03*
X134848600Y-132715000D03*
M02*
