M48
;DRILL file {KiCad 6.0.0-rc1-unknown-4a57541~66~ubuntu18.04.1} date Thu Sep 13 10:33:34 2018
;FORMAT={-:-/ absolute / metric / decimal}
FMAT,2
METRIC,TZ
T1C0.635
T2C0.711
T3C0.965
T4C1.000
T5C1.092
T6C1.118
T7C1.800
T8C2.200
T9C3.000
T10C3.302
%
G90
G05
M71
T1
X93.65Y-100.31
X103.425Y-108.17
X110.568Y-102.672
X110.803Y-108.25
X110.806Y-111.119
X113.49Y-122.378
X114.925Y-90.988
X117.531Y-120.951
X118.122Y-91.949
X119.208Y-114.088
X121.882Y-112.185
X126.469Y-86.899
X126.482Y-114.406
X126.704Y-112.231
X126.776Y-113.256
X129.141Y-101.286
X130.93Y-101.945
X131.365Y-92.71
X131.716Y-106.748
X131.89Y-110.061
X131.894Y-95.243
X132.741Y-92.704
X132.819Y-102.635
X132.883Y-110.81
X133.522Y-106.958
X136.794Y-100.015
X137.177Y-114.406
X139.039Y-104.865
X139.652Y-111.141
X145.836Y-111.709
X146.114Y-105.79
X147.127Y-105.566
X148.472Y-104.9
X149.674Y-104.151
X149.727Y-101.611
X157.598Y-104.678
X157.6Y-108.236
X158.779Y-108.119
X159.249Y-102.225
X164.138Y-97.311
X164.557Y-122.425
X164.982Y-121.441
X169.658Y-92.696
T2
X93.519Y-92.912
X101.006Y-112.619
X132.804Y-123.792
T3
X137.795Y-132.08
X142.875Y-132.08
X118.745Y-132.08
X123.825Y-132.08
X83.82Y-123.19
X83.82Y-128.27
X175.895Y-78.74
X180.975Y-78.74
X86.36Y-123.19
X86.36Y-128.27
X156.845Y-78.74
X161.925Y-78.74
X101.6Y-123.19
X101.6Y-128.27
X156.845Y-132.08
X161.925Y-132.08
X78.74Y-123.19
X78.74Y-128.27
X106.68Y-123.19
X106.68Y-128.27
X175.895Y-132.08
X180.975Y-132.08
X104.14Y-123.19
X104.14Y-128.27
X118.745Y-78.74
X123.825Y-78.74
X189.23Y-113.665
X189.23Y-118.745
X99.06Y-123.19
X99.06Y-128.27
X137.795Y-78.74
X142.875Y-78.74
X81.28Y-123.19
X81.28Y-128.27
T4
X176.667Y-119.517
X176.667Y-123.053
X178.435Y-121.285
X180.203Y-119.517
X180.203Y-123.053
X119.517Y-87.767
X119.517Y-91.303
X121.285Y-89.535
X123.053Y-87.767
X123.053Y-91.303
X119.517Y-119.517
X119.517Y-123.053
X121.285Y-121.285
X123.053Y-119.517
X123.053Y-123.053
X157.617Y-87.767
X157.617Y-91.303
X159.385Y-89.535
X161.153Y-87.767
X161.153Y-91.303
X138.567Y-119.517
X138.567Y-123.053
X140.335Y-121.285
X142.103Y-119.517
X142.103Y-123.053
X138.567Y-87.767
X138.567Y-91.303
X140.335Y-89.535
X142.103Y-87.767
X142.103Y-91.303
X176.667Y-87.767
X176.667Y-91.303
X178.435Y-89.535
X180.203Y-87.767
X180.203Y-91.303
X157.617Y-119.517
X157.617Y-123.053
X159.385Y-121.285
X161.153Y-119.517
X161.153Y-123.053
T5
X72.39Y-74.93
X72.39Y-135.89
X74.93Y-74.93
X74.93Y-135.89
X77.47Y-74.93
X77.47Y-135.89
X80.01Y-74.93
X80.01Y-135.89
X82.55Y-74.93
X82.55Y-135.89
X85.09Y-74.93
X85.09Y-135.89
X87.63Y-74.93
X87.63Y-135.89
X90.17Y-74.93
X90.17Y-135.89
X92.71Y-74.93
X92.71Y-135.89
X95.25Y-74.93
X95.25Y-135.89
X97.79Y-74.93
X97.79Y-135.89
X100.33Y-74.93
X100.33Y-135.89
X102.87Y-74.93
X102.87Y-135.89
X105.41Y-74.93
X105.41Y-135.89
X107.95Y-74.93
X107.95Y-135.89
X110.49Y-74.93
X110.49Y-135.89
X113.03Y-74.93
X113.03Y-135.89
X115.57Y-74.93
X115.57Y-135.89
X118.11Y-74.93
X118.11Y-135.89
X120.65Y-74.93
X120.65Y-135.89
X123.19Y-74.93
X123.19Y-135.89
X125.73Y-74.93
X125.73Y-135.89
X128.27Y-74.93
X128.27Y-135.89
X130.81Y-74.93
X130.81Y-135.89
X133.35Y-74.93
X133.35Y-135.89
T6
X71.435Y-93.276
X73.315Y-95.156
X73.423Y-107.359
X77.593Y-98.316
X80.322Y-95.668
X82.778Y-113.86
T7
X99.77Y-92.91
X99.77Y-117.91
X79.45Y-92.91
X79.45Y-117.91
X175.16Y-101.21
X175.16Y-105.41
X175.16Y-109.61
X180.66Y-101.21
X180.66Y-105.41
X180.66Y-109.61
T8
X178.435Y-114.285
X121.285Y-82.535
X121.285Y-114.285
X159.385Y-82.535
X140.335Y-114.285
X140.335Y-82.535
X178.435Y-82.535
X159.385Y-114.285
T9
X187.96Y-101.21
X187.96Y-109.61
T10
X73.66Y-80.01
X73.66Y-130.81
X165.1Y-74.93
X165.1Y-135.89
T0
M30
