G04 #@! TF.GenerationSoftware,KiCad,Pcbnew,6.0.0-rc1-unknown-4a57541~66~ubuntu18.04.1*
G04 #@! TF.CreationDate,2018-09-13T10:33:21-04:00*
G04 #@! TF.ProjectId,backlight_controller_5x3,6261636B6C696768745F636F6E74726F,1.0*
G04 #@! TF.SameCoordinates,Original*
G04 #@! TF.FileFunction,Legend,Bot*
G04 #@! TF.FilePolarity,Positive*
%FSLAX46Y46*%
G04 Gerber Fmt 4.6, Leading zero omitted, Abs format (unit mm)*
G04 Created by KiCad (PCBNEW 6.0.0-rc1-unknown-4a57541~66~ubuntu18.04.1) date Thu Sep 13 10:33:21 2018*
%MOMM*%
%LPD*%
G01*
G04 APERTURE LIST*
%ADD10C,0.228600*%
%ADD11C,0.127000*%
%ADD12C,0.381000*%
%ADD13C,0.254000*%
%ADD14R,1.270000X2.540000*%
%ADD15O,4.000000X3.000000*%
%ADD16R,4.000000X3.000000*%
%ADD17C,4.000000*%
%ADD18O,1.854200X2.540000*%
%ADD19C,3.556000*%
%ADD20R,1.854200X2.540000*%
%ADD21R,1.800000X1.640000*%
%ADD22R,4.000000X5.160000*%
%ADD23R,2.540000X1.270000*%
%ADD24R,6.400000X5.800000*%
%ADD25R,2.200000X0.800000*%
%ADD26R,2.140000X0.740000*%
%ADD27O,1.524000X2.032000*%
%ADD28O,2.032000X1.524000*%
%ADD29C,2.200000*%
%ADD30C,3.000000*%
%ADD31O,1.500000X2.500000*%
G04 APERTURE END LIST*
D10*
X191135000Y-71755000D02*
X69850000Y-71755000D01*
X191135000Y-139065000D02*
X191135000Y-71755000D01*
X69850000Y-139065000D02*
X191135000Y-139065000D01*
X69850000Y-71755000D02*
X69850000Y-139065000D01*
D11*
G04 #@! TO.C,R8*
X115951000Y-112522000D02*
X114427000Y-112522000D01*
X115951000Y-109728000D02*
X115951000Y-112522000D01*
X114427000Y-109728000D02*
X115951000Y-109728000D01*
X111379000Y-109728000D02*
X112903000Y-109728000D01*
X111379000Y-112522000D02*
X111379000Y-109728000D01*
X112903000Y-112522000D02*
X111379000Y-112522000D01*
D12*
G04 #@! TO.C,MDB1*
X71120000Y-76200000D02*
X134620000Y-76200000D01*
X71120000Y-73660000D02*
X134620000Y-73660000D01*
X71120000Y-137160000D02*
X134620000Y-137160000D01*
X71120000Y-134620000D02*
X134620000Y-134620000D01*
X134620000Y-76200000D02*
X134620000Y-73660000D01*
X71120000Y-73660000D02*
X71120000Y-76200000D01*
X134620000Y-137160000D02*
X134620000Y-134620000D01*
X71120000Y-134620000D02*
X71120000Y-137160000D01*
D10*
G04 #@! TO.C,D1*
X71360000Y-84900000D02*
X71360000Y-92400000D01*
X75960000Y-84900000D02*
X71360000Y-84900000D01*
X75960000Y-92400000D02*
X75960000Y-84900000D01*
X71360000Y-92400000D02*
X75960000Y-92400000D01*
D11*
G04 #@! TO.C,C1*
X133096000Y-115697000D02*
X131572000Y-115697000D01*
X133096000Y-112903000D02*
X133096000Y-115697000D01*
X131572000Y-112903000D02*
X133096000Y-112903000D01*
X128524000Y-112903000D02*
X130048000Y-112903000D01*
X128524000Y-115697000D02*
X128524000Y-112903000D01*
X130048000Y-115697000D02*
X128524000Y-115697000D01*
G04 #@! TO.C,C2*
X153924000Y-95758000D02*
X155448000Y-95758000D01*
X153924000Y-98552000D02*
X153924000Y-95758000D01*
X155448000Y-98552000D02*
X153924000Y-98552000D01*
X158496000Y-98552000D02*
X156972000Y-98552000D01*
X158496000Y-95758000D02*
X158496000Y-98552000D01*
X156972000Y-95758000D02*
X158496000Y-95758000D01*
G04 #@! TO.C,C3*
X95123000Y-89916000D02*
X95123000Y-88392000D01*
X97917000Y-89916000D02*
X95123000Y-89916000D01*
X97917000Y-88392000D02*
X97917000Y-89916000D01*
X97917000Y-85344000D02*
X97917000Y-86868000D01*
X95123000Y-85344000D02*
X97917000Y-85344000D01*
X95123000Y-86868000D02*
X95123000Y-85344000D01*
G04 #@! TO.C,C4*
X95123000Y-98806000D02*
X95123000Y-97282000D01*
X97917000Y-98806000D02*
X95123000Y-98806000D01*
X97917000Y-97282000D02*
X97917000Y-98806000D01*
X97917000Y-94234000D02*
X97917000Y-95758000D01*
X95123000Y-94234000D02*
X97917000Y-94234000D01*
X95123000Y-95758000D02*
X95123000Y-94234000D01*
G04 #@! TO.C,C5*
X95123000Y-107696000D02*
X95123000Y-106172000D01*
X97917000Y-107696000D02*
X95123000Y-107696000D01*
X97917000Y-106172000D02*
X97917000Y-107696000D01*
X97917000Y-103124000D02*
X97917000Y-104648000D01*
X95123000Y-103124000D02*
X97917000Y-103124000D01*
X95123000Y-104648000D02*
X95123000Y-103124000D01*
G04 #@! TO.C,C6*
X95123000Y-116586000D02*
X95123000Y-115062000D01*
X97917000Y-116586000D02*
X95123000Y-116586000D01*
X97917000Y-115062000D02*
X97917000Y-116586000D01*
X97917000Y-112014000D02*
X97917000Y-113538000D01*
X95123000Y-112014000D02*
X97917000Y-112014000D01*
X95123000Y-113538000D02*
X95123000Y-112014000D01*
D12*
G04 #@! TO.C,HPS1*
X90968607Y-87630000D02*
G75*
G03X90968607Y-87630000I-223607J0D01*
G01*
X85155000Y-84380000D02*
X85155000Y-90880000D01*
X85155000Y-90880000D02*
X91375000Y-90880000D01*
X91375000Y-90880000D02*
X91375000Y-84380000D01*
X91375000Y-84380000D02*
X85155000Y-84380000D01*
G04 #@! TO.C,HPS2*
X90968607Y-96520000D02*
G75*
G03X90968607Y-96520000I-223607J0D01*
G01*
X85155000Y-93270000D02*
X85155000Y-99770000D01*
X85155000Y-99770000D02*
X91375000Y-99770000D01*
X91375000Y-99770000D02*
X91375000Y-93270000D01*
X91375000Y-93270000D02*
X85155000Y-93270000D01*
G04 #@! TO.C,HPS3*
X90968607Y-105410000D02*
G75*
G03X90968607Y-105410000I-223607J0D01*
G01*
X85155000Y-102160000D02*
X85155000Y-108660000D01*
X85155000Y-108660000D02*
X91375000Y-108660000D01*
X91375000Y-108660000D02*
X91375000Y-102160000D01*
X91375000Y-102160000D02*
X85155000Y-102160000D01*
G04 #@! TO.C,HPS4*
X90968607Y-114300000D02*
G75*
G03X90968607Y-114300000I-223607J0D01*
G01*
X85155000Y-111050000D02*
X85155000Y-117550000D01*
X85155000Y-117550000D02*
X91375000Y-117550000D01*
X91375000Y-117550000D02*
X91375000Y-111050000D01*
X91375000Y-111050000D02*
X85155000Y-111050000D01*
D11*
G04 #@! TO.C,R1*
X103251000Y-89027000D02*
X101727000Y-89027000D01*
X103251000Y-86233000D02*
X103251000Y-89027000D01*
X101727000Y-86233000D02*
X103251000Y-86233000D01*
X98679000Y-86233000D02*
X100203000Y-86233000D01*
X98679000Y-89027000D02*
X98679000Y-86233000D01*
X100203000Y-89027000D02*
X98679000Y-89027000D01*
G04 #@! TO.C,R2*
X103251000Y-97917000D02*
X101727000Y-97917000D01*
X103251000Y-95123000D02*
X103251000Y-97917000D01*
X101727000Y-95123000D02*
X103251000Y-95123000D01*
X98679000Y-95123000D02*
X100203000Y-95123000D01*
X98679000Y-97917000D02*
X98679000Y-95123000D01*
X100203000Y-97917000D02*
X98679000Y-97917000D01*
G04 #@! TO.C,R3*
X103251000Y-106807000D02*
X101727000Y-106807000D01*
X103251000Y-104013000D02*
X103251000Y-106807000D01*
X101727000Y-104013000D02*
X103251000Y-104013000D01*
X98679000Y-104013000D02*
X100203000Y-104013000D01*
X98679000Y-106807000D02*
X98679000Y-104013000D01*
X100203000Y-106807000D02*
X98679000Y-106807000D01*
G04 #@! TO.C,R4*
X103251000Y-115697000D02*
X101727000Y-115697000D01*
X103251000Y-112903000D02*
X103251000Y-115697000D01*
X101727000Y-112903000D02*
X103251000Y-112903000D01*
X98679000Y-112903000D02*
X100203000Y-112903000D01*
X98679000Y-115697000D02*
X98679000Y-112903000D01*
X100203000Y-115697000D02*
X98679000Y-115697000D01*
G04 #@! TO.C,R5*
X115951000Y-101092000D02*
X114427000Y-101092000D01*
X115951000Y-98298000D02*
X115951000Y-101092000D01*
X114427000Y-98298000D02*
X115951000Y-98298000D01*
X111379000Y-98298000D02*
X112903000Y-98298000D01*
X111379000Y-101092000D02*
X111379000Y-98298000D01*
X112903000Y-101092000D02*
X111379000Y-101092000D01*
G04 #@! TO.C,R6*
X115951000Y-104902000D02*
X114427000Y-104902000D01*
X115951000Y-102108000D02*
X115951000Y-104902000D01*
X114427000Y-102108000D02*
X115951000Y-102108000D01*
X111379000Y-102108000D02*
X112903000Y-102108000D01*
X111379000Y-104902000D02*
X111379000Y-102108000D01*
X112903000Y-104902000D02*
X111379000Y-104902000D01*
G04 #@! TO.C,R7*
X115951000Y-108712000D02*
X114427000Y-108712000D01*
X115951000Y-105918000D02*
X115951000Y-108712000D01*
X114427000Y-105918000D02*
X115951000Y-105918000D01*
X111379000Y-105918000D02*
X112903000Y-105918000D01*
X111379000Y-108712000D02*
X111379000Y-105918000D01*
X112903000Y-108712000D02*
X111379000Y-108712000D01*
D12*
G04 #@! TO.C,U1*
X126806000Y-99164000D02*
X134306000Y-99164000D01*
X126806000Y-112164000D02*
X126806000Y-99164000D01*
X134306000Y-112164000D02*
X126806000Y-112164000D01*
X134306000Y-99164000D02*
X134306000Y-112164000D01*
X133731000Y-100584000D02*
G75*
G03X133731000Y-100584000I-635000J0D01*
G01*
G04 #@! TO.C,U2*
X159960000Y-111910000D02*
X152460000Y-111910000D01*
X159960000Y-98910000D02*
X159960000Y-111910000D01*
X152460000Y-98910000D02*
X159960000Y-98910000D01*
X152460000Y-111910000D02*
X152460000Y-98910000D01*
X154305000Y-110490000D02*
G75*
G03X154305000Y-110490000I-635000J0D01*
G01*
G04 #@! TD*
G04 #@! TO.C,R8*
D13*
X117299619Y-110955666D02*
X116815809Y-110617000D01*
X117299619Y-110375095D02*
X116283619Y-110375095D01*
X116283619Y-110762142D01*
X116332000Y-110858904D01*
X116380380Y-110907285D01*
X116477142Y-110955666D01*
X116622285Y-110955666D01*
X116719047Y-110907285D01*
X116767428Y-110858904D01*
X116815809Y-110762142D01*
X116815809Y-110375095D01*
X116719047Y-111536238D02*
X116670666Y-111439476D01*
X116622285Y-111391095D01*
X116525523Y-111342714D01*
X116477142Y-111342714D01*
X116380380Y-111391095D01*
X116332000Y-111439476D01*
X116283619Y-111536238D01*
X116283619Y-111729761D01*
X116332000Y-111826523D01*
X116380380Y-111874904D01*
X116477142Y-111923285D01*
X116525523Y-111923285D01*
X116622285Y-111874904D01*
X116670666Y-111826523D01*
X116719047Y-111729761D01*
X116719047Y-111536238D01*
X116767428Y-111439476D01*
X116815809Y-111391095D01*
X116912571Y-111342714D01*
X117106095Y-111342714D01*
X117202857Y-111391095D01*
X117251238Y-111439476D01*
X117299619Y-111536238D01*
X117299619Y-111729761D01*
X117251238Y-111826523D01*
X117202857Y-111874904D01*
X117106095Y-111923285D01*
X116912571Y-111923285D01*
X116815809Y-111874904D01*
X116767428Y-111826523D01*
X116719047Y-111729761D01*
X110949619Y-110447666D02*
X110949619Y-109867095D01*
X110949619Y-110157380D02*
X109933619Y-110157380D01*
X110078761Y-110060619D01*
X110175523Y-109963857D01*
X110223904Y-109867095D01*
X110272285Y-111318523D02*
X110949619Y-111318523D01*
X109885238Y-111076619D02*
X110610952Y-110834714D01*
X110610952Y-111463666D01*
X109933619Y-112044238D02*
X109933619Y-112141000D01*
X109982000Y-112237761D01*
X110030380Y-112286142D01*
X110127142Y-112334523D01*
X110320666Y-112382904D01*
X110562571Y-112382904D01*
X110756095Y-112334523D01*
X110852857Y-112286142D01*
X110901238Y-112237761D01*
X110949619Y-112141000D01*
X110949619Y-112044238D01*
X110901238Y-111947476D01*
X110852857Y-111899095D01*
X110756095Y-111850714D01*
X110562571Y-111802333D01*
X110320666Y-111802333D01*
X110127142Y-111850714D01*
X110030380Y-111899095D01*
X109982000Y-111947476D01*
X109933619Y-112044238D01*
G04 #@! TO.C,D1*
X74409904Y-84509619D02*
X74409904Y-83493619D01*
X74168000Y-83493619D01*
X74022857Y-83542000D01*
X73926095Y-83638761D01*
X73877714Y-83735523D01*
X73829333Y-83929047D01*
X73829333Y-84074190D01*
X73877714Y-84267714D01*
X73926095Y-84364476D01*
X74022857Y-84461238D01*
X74168000Y-84509619D01*
X74409904Y-84509619D01*
X72861714Y-84509619D02*
X73442285Y-84509619D01*
X73152000Y-84509619D02*
X73152000Y-83493619D01*
X73248761Y-83638761D01*
X73345523Y-83735523D01*
X73442285Y-83783904D01*
G04 #@! TO.C,C1*
X134789333Y-114662857D02*
X134837714Y-114711238D01*
X134982857Y-114759619D01*
X135079619Y-114759619D01*
X135224761Y-114711238D01*
X135321523Y-114614476D01*
X135369904Y-114517714D01*
X135418285Y-114324190D01*
X135418285Y-114179047D01*
X135369904Y-113985523D01*
X135321523Y-113888761D01*
X135224761Y-113792000D01*
X135079619Y-113743619D01*
X134982857Y-113743619D01*
X134837714Y-113792000D01*
X134789333Y-113840380D01*
X133821714Y-114759619D02*
X134402285Y-114759619D01*
X134112000Y-114759619D02*
X134112000Y-113743619D01*
X134208761Y-113888761D01*
X134305523Y-113985523D01*
X134402285Y-114033904D01*
X128034142Y-113743619D02*
X127937380Y-113743619D01*
X127840619Y-113792000D01*
X127792238Y-113840380D01*
X127743857Y-113937142D01*
X127695476Y-114130666D01*
X127695476Y-114372571D01*
X127743857Y-114566095D01*
X127792238Y-114662857D01*
X127840619Y-114711238D01*
X127937380Y-114759619D01*
X128034142Y-114759619D01*
X128130904Y-114711238D01*
X128179285Y-114662857D01*
X128227666Y-114566095D01*
X128276047Y-114372571D01*
X128276047Y-114130666D01*
X128227666Y-113937142D01*
X128179285Y-113840380D01*
X128130904Y-113792000D01*
X128034142Y-113743619D01*
X127260047Y-114662857D02*
X127211666Y-114711238D01*
X127260047Y-114759619D01*
X127308428Y-114711238D01*
X127260047Y-114662857D01*
X127260047Y-114759619D01*
X126244047Y-114759619D02*
X126824619Y-114759619D01*
X126534333Y-114759619D02*
X126534333Y-113743619D01*
X126631095Y-113888761D01*
X126727857Y-113985523D01*
X126824619Y-114033904D01*
X125373190Y-114082285D02*
X125373190Y-114759619D01*
X125808619Y-114082285D02*
X125808619Y-114614476D01*
X125760238Y-114711238D01*
X125663476Y-114759619D01*
X125518333Y-114759619D01*
X125421571Y-114711238D01*
X125373190Y-114662857D01*
X124550714Y-114227428D02*
X124889380Y-114227428D01*
X124889380Y-114759619D02*
X124889380Y-113743619D01*
X124405571Y-113743619D01*
G04 #@! TO.C,C2*
X160189333Y-97517857D02*
X160237714Y-97566238D01*
X160382857Y-97614619D01*
X160479619Y-97614619D01*
X160624761Y-97566238D01*
X160721523Y-97469476D01*
X160769904Y-97372714D01*
X160818285Y-97179190D01*
X160818285Y-97034047D01*
X160769904Y-96840523D01*
X160721523Y-96743761D01*
X160624761Y-96647000D01*
X160479619Y-96598619D01*
X160382857Y-96598619D01*
X160237714Y-96647000D01*
X160189333Y-96695380D01*
X159802285Y-96695380D02*
X159753904Y-96647000D01*
X159657142Y-96598619D01*
X159415238Y-96598619D01*
X159318476Y-96647000D01*
X159270095Y-96695380D01*
X159221714Y-96792142D01*
X159221714Y-96888904D01*
X159270095Y-97034047D01*
X159850666Y-97614619D01*
X159221714Y-97614619D01*
X153434142Y-96598619D02*
X153337380Y-96598619D01*
X153240619Y-96647000D01*
X153192238Y-96695380D01*
X153143857Y-96792142D01*
X153095476Y-96985666D01*
X153095476Y-97227571D01*
X153143857Y-97421095D01*
X153192238Y-97517857D01*
X153240619Y-97566238D01*
X153337380Y-97614619D01*
X153434142Y-97614619D01*
X153530904Y-97566238D01*
X153579285Y-97517857D01*
X153627666Y-97421095D01*
X153676047Y-97227571D01*
X153676047Y-96985666D01*
X153627666Y-96792142D01*
X153579285Y-96695380D01*
X153530904Y-96647000D01*
X153434142Y-96598619D01*
X152660047Y-97517857D02*
X152611666Y-97566238D01*
X152660047Y-97614619D01*
X152708428Y-97566238D01*
X152660047Y-97517857D01*
X152660047Y-97614619D01*
X151644047Y-97614619D02*
X152224619Y-97614619D01*
X151934333Y-97614619D02*
X151934333Y-96598619D01*
X152031095Y-96743761D01*
X152127857Y-96840523D01*
X152224619Y-96888904D01*
X150773190Y-96937285D02*
X150773190Y-97614619D01*
X151208619Y-96937285D02*
X151208619Y-97469476D01*
X151160238Y-97566238D01*
X151063476Y-97614619D01*
X150918333Y-97614619D01*
X150821571Y-97566238D01*
X150773190Y-97517857D01*
X149950714Y-97082428D02*
X150289380Y-97082428D01*
X150289380Y-97614619D02*
X150289380Y-96598619D01*
X149805571Y-96598619D01*
G04 #@! TO.C,C3*
X96689333Y-91167857D02*
X96737714Y-91216238D01*
X96882857Y-91264619D01*
X96979619Y-91264619D01*
X97124761Y-91216238D01*
X97221523Y-91119476D01*
X97269904Y-91022714D01*
X97318285Y-90829190D01*
X97318285Y-90684047D01*
X97269904Y-90490523D01*
X97221523Y-90393761D01*
X97124761Y-90297000D01*
X96979619Y-90248619D01*
X96882857Y-90248619D01*
X96737714Y-90297000D01*
X96689333Y-90345380D01*
X96350666Y-90248619D02*
X95721714Y-90248619D01*
X96060380Y-90635666D01*
X95915238Y-90635666D01*
X95818476Y-90684047D01*
X95770095Y-90732428D01*
X95721714Y-90829190D01*
X95721714Y-91071095D01*
X95770095Y-91167857D01*
X95818476Y-91216238D01*
X95915238Y-91264619D01*
X96205523Y-91264619D01*
X96302285Y-91216238D01*
X96350666Y-91167857D01*
X98189142Y-83898619D02*
X98092380Y-83898619D01*
X97995619Y-83947000D01*
X97947238Y-83995380D01*
X97898857Y-84092142D01*
X97850476Y-84285666D01*
X97850476Y-84527571D01*
X97898857Y-84721095D01*
X97947238Y-84817857D01*
X97995619Y-84866238D01*
X98092380Y-84914619D01*
X98189142Y-84914619D01*
X98285904Y-84866238D01*
X98334285Y-84817857D01*
X98382666Y-84721095D01*
X98431047Y-84527571D01*
X98431047Y-84285666D01*
X98382666Y-84092142D01*
X98334285Y-83995380D01*
X98285904Y-83947000D01*
X98189142Y-83898619D01*
X97415047Y-84817857D02*
X97366666Y-84866238D01*
X97415047Y-84914619D01*
X97463428Y-84866238D01*
X97415047Y-84817857D01*
X97415047Y-84914619D01*
X96399047Y-84914619D02*
X96979619Y-84914619D01*
X96689333Y-84914619D02*
X96689333Y-83898619D01*
X96786095Y-84043761D01*
X96882857Y-84140523D01*
X96979619Y-84188904D01*
X95528190Y-84237285D02*
X95528190Y-84914619D01*
X95963619Y-84237285D02*
X95963619Y-84769476D01*
X95915238Y-84866238D01*
X95818476Y-84914619D01*
X95673333Y-84914619D01*
X95576571Y-84866238D01*
X95528190Y-84817857D01*
X94705714Y-84382428D02*
X95044380Y-84382428D01*
X95044380Y-84914619D02*
X95044380Y-83898619D01*
X94560571Y-83898619D01*
G04 #@! TO.C,C4*
X96689333Y-100057857D02*
X96737714Y-100106238D01*
X96882857Y-100154619D01*
X96979619Y-100154619D01*
X97124761Y-100106238D01*
X97221523Y-100009476D01*
X97269904Y-99912714D01*
X97318285Y-99719190D01*
X97318285Y-99574047D01*
X97269904Y-99380523D01*
X97221523Y-99283761D01*
X97124761Y-99187000D01*
X96979619Y-99138619D01*
X96882857Y-99138619D01*
X96737714Y-99187000D01*
X96689333Y-99235380D01*
X95818476Y-99477285D02*
X95818476Y-100154619D01*
X96060380Y-99090238D02*
X96302285Y-99815952D01*
X95673333Y-99815952D01*
X98189142Y-92788619D02*
X98092380Y-92788619D01*
X97995619Y-92837000D01*
X97947238Y-92885380D01*
X97898857Y-92982142D01*
X97850476Y-93175666D01*
X97850476Y-93417571D01*
X97898857Y-93611095D01*
X97947238Y-93707857D01*
X97995619Y-93756238D01*
X98092380Y-93804619D01*
X98189142Y-93804619D01*
X98285904Y-93756238D01*
X98334285Y-93707857D01*
X98382666Y-93611095D01*
X98431047Y-93417571D01*
X98431047Y-93175666D01*
X98382666Y-92982142D01*
X98334285Y-92885380D01*
X98285904Y-92837000D01*
X98189142Y-92788619D01*
X97415047Y-93707857D02*
X97366666Y-93756238D01*
X97415047Y-93804619D01*
X97463428Y-93756238D01*
X97415047Y-93707857D01*
X97415047Y-93804619D01*
X96399047Y-93804619D02*
X96979619Y-93804619D01*
X96689333Y-93804619D02*
X96689333Y-92788619D01*
X96786095Y-92933761D01*
X96882857Y-93030523D01*
X96979619Y-93078904D01*
X95528190Y-93127285D02*
X95528190Y-93804619D01*
X95963619Y-93127285D02*
X95963619Y-93659476D01*
X95915238Y-93756238D01*
X95818476Y-93804619D01*
X95673333Y-93804619D01*
X95576571Y-93756238D01*
X95528190Y-93707857D01*
X94705714Y-93272428D02*
X95044380Y-93272428D01*
X95044380Y-93804619D02*
X95044380Y-92788619D01*
X94560571Y-92788619D01*
G04 #@! TO.C,C5*
X96689333Y-108947857D02*
X96737714Y-108996238D01*
X96882857Y-109044619D01*
X96979619Y-109044619D01*
X97124761Y-108996238D01*
X97221523Y-108899476D01*
X97269904Y-108802714D01*
X97318285Y-108609190D01*
X97318285Y-108464047D01*
X97269904Y-108270523D01*
X97221523Y-108173761D01*
X97124761Y-108077000D01*
X96979619Y-108028619D01*
X96882857Y-108028619D01*
X96737714Y-108077000D01*
X96689333Y-108125380D01*
X95770095Y-108028619D02*
X96253904Y-108028619D01*
X96302285Y-108512428D01*
X96253904Y-108464047D01*
X96157142Y-108415666D01*
X95915238Y-108415666D01*
X95818476Y-108464047D01*
X95770095Y-108512428D01*
X95721714Y-108609190D01*
X95721714Y-108851095D01*
X95770095Y-108947857D01*
X95818476Y-108996238D01*
X95915238Y-109044619D01*
X96157142Y-109044619D01*
X96253904Y-108996238D01*
X96302285Y-108947857D01*
X98189142Y-101678619D02*
X98092380Y-101678619D01*
X97995619Y-101727000D01*
X97947238Y-101775380D01*
X97898857Y-101872142D01*
X97850476Y-102065666D01*
X97850476Y-102307571D01*
X97898857Y-102501095D01*
X97947238Y-102597857D01*
X97995619Y-102646238D01*
X98092380Y-102694619D01*
X98189142Y-102694619D01*
X98285904Y-102646238D01*
X98334285Y-102597857D01*
X98382666Y-102501095D01*
X98431047Y-102307571D01*
X98431047Y-102065666D01*
X98382666Y-101872142D01*
X98334285Y-101775380D01*
X98285904Y-101727000D01*
X98189142Y-101678619D01*
X97415047Y-102597857D02*
X97366666Y-102646238D01*
X97415047Y-102694619D01*
X97463428Y-102646238D01*
X97415047Y-102597857D01*
X97415047Y-102694619D01*
X96399047Y-102694619D02*
X96979619Y-102694619D01*
X96689333Y-102694619D02*
X96689333Y-101678619D01*
X96786095Y-101823761D01*
X96882857Y-101920523D01*
X96979619Y-101968904D01*
X95528190Y-102017285D02*
X95528190Y-102694619D01*
X95963619Y-102017285D02*
X95963619Y-102549476D01*
X95915238Y-102646238D01*
X95818476Y-102694619D01*
X95673333Y-102694619D01*
X95576571Y-102646238D01*
X95528190Y-102597857D01*
X94705714Y-102162428D02*
X95044380Y-102162428D01*
X95044380Y-102694619D02*
X95044380Y-101678619D01*
X94560571Y-101678619D01*
G04 #@! TO.C,C6*
X96689333Y-117837857D02*
X96737714Y-117886238D01*
X96882857Y-117934619D01*
X96979619Y-117934619D01*
X97124761Y-117886238D01*
X97221523Y-117789476D01*
X97269904Y-117692714D01*
X97318285Y-117499190D01*
X97318285Y-117354047D01*
X97269904Y-117160523D01*
X97221523Y-117063761D01*
X97124761Y-116967000D01*
X96979619Y-116918619D01*
X96882857Y-116918619D01*
X96737714Y-116967000D01*
X96689333Y-117015380D01*
X95818476Y-116918619D02*
X96012000Y-116918619D01*
X96108761Y-116967000D01*
X96157142Y-117015380D01*
X96253904Y-117160523D01*
X96302285Y-117354047D01*
X96302285Y-117741095D01*
X96253904Y-117837857D01*
X96205523Y-117886238D01*
X96108761Y-117934619D01*
X95915238Y-117934619D01*
X95818476Y-117886238D01*
X95770095Y-117837857D01*
X95721714Y-117741095D01*
X95721714Y-117499190D01*
X95770095Y-117402428D01*
X95818476Y-117354047D01*
X95915238Y-117305666D01*
X96108761Y-117305666D01*
X96205523Y-117354047D01*
X96253904Y-117402428D01*
X96302285Y-117499190D01*
X98189142Y-110568619D02*
X98092380Y-110568619D01*
X97995619Y-110617000D01*
X97947238Y-110665380D01*
X97898857Y-110762142D01*
X97850476Y-110955666D01*
X97850476Y-111197571D01*
X97898857Y-111391095D01*
X97947238Y-111487857D01*
X97995619Y-111536238D01*
X98092380Y-111584619D01*
X98189142Y-111584619D01*
X98285904Y-111536238D01*
X98334285Y-111487857D01*
X98382666Y-111391095D01*
X98431047Y-111197571D01*
X98431047Y-110955666D01*
X98382666Y-110762142D01*
X98334285Y-110665380D01*
X98285904Y-110617000D01*
X98189142Y-110568619D01*
X97415047Y-111487857D02*
X97366666Y-111536238D01*
X97415047Y-111584619D01*
X97463428Y-111536238D01*
X97415047Y-111487857D01*
X97415047Y-111584619D01*
X96399047Y-111584619D02*
X96979619Y-111584619D01*
X96689333Y-111584619D02*
X96689333Y-110568619D01*
X96786095Y-110713761D01*
X96882857Y-110810523D01*
X96979619Y-110858904D01*
X95528190Y-110907285D02*
X95528190Y-111584619D01*
X95963619Y-110907285D02*
X95963619Y-111439476D01*
X95915238Y-111536238D01*
X95818476Y-111584619D01*
X95673333Y-111584619D01*
X95576571Y-111536238D01*
X95528190Y-111487857D01*
X94705714Y-111052428D02*
X95044380Y-111052428D01*
X95044380Y-111584619D02*
X95044380Y-110568619D01*
X94560571Y-110568619D01*
G04 #@! TO.C,HPS1*
X90010904Y-83644619D02*
X90010904Y-82628619D01*
X90010904Y-83112428D02*
X89430333Y-83112428D01*
X89430333Y-83644619D02*
X89430333Y-82628619D01*
X88946523Y-83644619D02*
X88946523Y-82628619D01*
X88559476Y-82628619D01*
X88462714Y-82677000D01*
X88414333Y-82725380D01*
X88365952Y-82822142D01*
X88365952Y-82967285D01*
X88414333Y-83064047D01*
X88462714Y-83112428D01*
X88559476Y-83160809D01*
X88946523Y-83160809D01*
X87978904Y-83596238D02*
X87833761Y-83644619D01*
X87591857Y-83644619D01*
X87495095Y-83596238D01*
X87446714Y-83547857D01*
X87398333Y-83451095D01*
X87398333Y-83354333D01*
X87446714Y-83257571D01*
X87495095Y-83209190D01*
X87591857Y-83160809D01*
X87785380Y-83112428D01*
X87882142Y-83064047D01*
X87930523Y-83015666D01*
X87978904Y-82918904D01*
X87978904Y-82822142D01*
X87930523Y-82725380D01*
X87882142Y-82677000D01*
X87785380Y-82628619D01*
X87543476Y-82628619D01*
X87398333Y-82677000D01*
X86430714Y-83644619D02*
X87011285Y-83644619D01*
X86721000Y-83644619D02*
X86721000Y-82628619D01*
X86817761Y-82773761D01*
X86914523Y-82870523D01*
X87011285Y-82918904D01*
G04 #@! TO.C,HPS2*
X90010904Y-92534619D02*
X90010904Y-91518619D01*
X90010904Y-92002428D02*
X89430333Y-92002428D01*
X89430333Y-92534619D02*
X89430333Y-91518619D01*
X88946523Y-92534619D02*
X88946523Y-91518619D01*
X88559476Y-91518619D01*
X88462714Y-91567000D01*
X88414333Y-91615380D01*
X88365952Y-91712142D01*
X88365952Y-91857285D01*
X88414333Y-91954047D01*
X88462714Y-92002428D01*
X88559476Y-92050809D01*
X88946523Y-92050809D01*
X87978904Y-92486238D02*
X87833761Y-92534619D01*
X87591857Y-92534619D01*
X87495095Y-92486238D01*
X87446714Y-92437857D01*
X87398333Y-92341095D01*
X87398333Y-92244333D01*
X87446714Y-92147571D01*
X87495095Y-92099190D01*
X87591857Y-92050809D01*
X87785380Y-92002428D01*
X87882142Y-91954047D01*
X87930523Y-91905666D01*
X87978904Y-91808904D01*
X87978904Y-91712142D01*
X87930523Y-91615380D01*
X87882142Y-91567000D01*
X87785380Y-91518619D01*
X87543476Y-91518619D01*
X87398333Y-91567000D01*
X87011285Y-91615380D02*
X86962904Y-91567000D01*
X86866142Y-91518619D01*
X86624238Y-91518619D01*
X86527476Y-91567000D01*
X86479095Y-91615380D01*
X86430714Y-91712142D01*
X86430714Y-91808904D01*
X86479095Y-91954047D01*
X87059666Y-92534619D01*
X86430714Y-92534619D01*
G04 #@! TO.C,HPS3*
X90010904Y-101424619D02*
X90010904Y-100408619D01*
X90010904Y-100892428D02*
X89430333Y-100892428D01*
X89430333Y-101424619D02*
X89430333Y-100408619D01*
X88946523Y-101424619D02*
X88946523Y-100408619D01*
X88559476Y-100408619D01*
X88462714Y-100457000D01*
X88414333Y-100505380D01*
X88365952Y-100602142D01*
X88365952Y-100747285D01*
X88414333Y-100844047D01*
X88462714Y-100892428D01*
X88559476Y-100940809D01*
X88946523Y-100940809D01*
X87978904Y-101376238D02*
X87833761Y-101424619D01*
X87591857Y-101424619D01*
X87495095Y-101376238D01*
X87446714Y-101327857D01*
X87398333Y-101231095D01*
X87398333Y-101134333D01*
X87446714Y-101037571D01*
X87495095Y-100989190D01*
X87591857Y-100940809D01*
X87785380Y-100892428D01*
X87882142Y-100844047D01*
X87930523Y-100795666D01*
X87978904Y-100698904D01*
X87978904Y-100602142D01*
X87930523Y-100505380D01*
X87882142Y-100457000D01*
X87785380Y-100408619D01*
X87543476Y-100408619D01*
X87398333Y-100457000D01*
X87059666Y-100408619D02*
X86430714Y-100408619D01*
X86769380Y-100795666D01*
X86624238Y-100795666D01*
X86527476Y-100844047D01*
X86479095Y-100892428D01*
X86430714Y-100989190D01*
X86430714Y-101231095D01*
X86479095Y-101327857D01*
X86527476Y-101376238D01*
X86624238Y-101424619D01*
X86914523Y-101424619D01*
X87011285Y-101376238D01*
X87059666Y-101327857D01*
G04 #@! TO.C,HPS4*
X90030904Y-110314619D02*
X90030904Y-109298619D01*
X90030904Y-109782428D02*
X89450333Y-109782428D01*
X89450333Y-110314619D02*
X89450333Y-109298619D01*
X88966523Y-110314619D02*
X88966523Y-109298619D01*
X88579476Y-109298619D01*
X88482714Y-109347000D01*
X88434333Y-109395380D01*
X88385952Y-109492142D01*
X88385952Y-109637285D01*
X88434333Y-109734047D01*
X88482714Y-109782428D01*
X88579476Y-109830809D01*
X88966523Y-109830809D01*
X87998904Y-110266238D02*
X87853761Y-110314619D01*
X87611857Y-110314619D01*
X87515095Y-110266238D01*
X87466714Y-110217857D01*
X87418333Y-110121095D01*
X87418333Y-110024333D01*
X87466714Y-109927571D01*
X87515095Y-109879190D01*
X87611857Y-109830809D01*
X87805380Y-109782428D01*
X87902142Y-109734047D01*
X87950523Y-109685666D01*
X87998904Y-109588904D01*
X87998904Y-109492142D01*
X87950523Y-109395380D01*
X87902142Y-109347000D01*
X87805380Y-109298619D01*
X87563476Y-109298619D01*
X87418333Y-109347000D01*
X86547476Y-109637285D02*
X86547476Y-110314619D01*
X86789380Y-109250238D02*
X87031285Y-109975952D01*
X86402333Y-109975952D01*
G04 #@! TO.C,R1*
X101134333Y-90375619D02*
X101473000Y-89891809D01*
X101714904Y-90375619D02*
X101714904Y-89359619D01*
X101327857Y-89359619D01*
X101231095Y-89408000D01*
X101182714Y-89456380D01*
X101134333Y-89553142D01*
X101134333Y-89698285D01*
X101182714Y-89795047D01*
X101231095Y-89843428D01*
X101327857Y-89891809D01*
X101714904Y-89891809D01*
X100166714Y-90375619D02*
X100747285Y-90375619D01*
X100457000Y-90375619D02*
X100457000Y-89359619D01*
X100553761Y-89504761D01*
X100650523Y-89601523D01*
X100747285Y-89649904D01*
X101860047Y-84787619D02*
X102343857Y-84787619D01*
X102392238Y-85271428D01*
X102343857Y-85223047D01*
X102247095Y-85174666D01*
X102005190Y-85174666D01*
X101908428Y-85223047D01*
X101860047Y-85271428D01*
X101811666Y-85368190D01*
X101811666Y-85610095D01*
X101860047Y-85706857D01*
X101908428Y-85755238D01*
X102005190Y-85803619D01*
X102247095Y-85803619D01*
X102343857Y-85755238D01*
X102392238Y-85706857D01*
X101376238Y-85706857D02*
X101327857Y-85755238D01*
X101376238Y-85803619D01*
X101424619Y-85755238D01*
X101376238Y-85706857D01*
X101376238Y-85803619D01*
X100844047Y-85803619D02*
X100650523Y-85803619D01*
X100553761Y-85755238D01*
X100505380Y-85706857D01*
X100408619Y-85561714D01*
X100360238Y-85368190D01*
X100360238Y-84981142D01*
X100408619Y-84884380D01*
X100457000Y-84836000D01*
X100553761Y-84787619D01*
X100747285Y-84787619D01*
X100844047Y-84836000D01*
X100892428Y-84884380D01*
X100940809Y-84981142D01*
X100940809Y-85223047D01*
X100892428Y-85319809D01*
X100844047Y-85368190D01*
X100747285Y-85416571D01*
X100553761Y-85416571D01*
X100457000Y-85368190D01*
X100408619Y-85319809D01*
X100360238Y-85223047D01*
X99924809Y-85803619D02*
X99924809Y-84787619D01*
X99828047Y-85416571D02*
X99537761Y-85803619D01*
X99537761Y-85126285D02*
X99924809Y-85513333D01*
G04 #@! TO.C,R2*
X101134333Y-99265619D02*
X101473000Y-98781809D01*
X101714904Y-99265619D02*
X101714904Y-98249619D01*
X101327857Y-98249619D01*
X101231095Y-98298000D01*
X101182714Y-98346380D01*
X101134333Y-98443142D01*
X101134333Y-98588285D01*
X101182714Y-98685047D01*
X101231095Y-98733428D01*
X101327857Y-98781809D01*
X101714904Y-98781809D01*
X100747285Y-98346380D02*
X100698904Y-98298000D01*
X100602142Y-98249619D01*
X100360238Y-98249619D01*
X100263476Y-98298000D01*
X100215095Y-98346380D01*
X100166714Y-98443142D01*
X100166714Y-98539904D01*
X100215095Y-98685047D01*
X100795666Y-99265619D01*
X100166714Y-99265619D01*
X101860047Y-93677619D02*
X102343857Y-93677619D01*
X102392238Y-94161428D01*
X102343857Y-94113047D01*
X102247095Y-94064666D01*
X102005190Y-94064666D01*
X101908428Y-94113047D01*
X101860047Y-94161428D01*
X101811666Y-94258190D01*
X101811666Y-94500095D01*
X101860047Y-94596857D01*
X101908428Y-94645238D01*
X102005190Y-94693619D01*
X102247095Y-94693619D01*
X102343857Y-94645238D01*
X102392238Y-94596857D01*
X101376238Y-94596857D02*
X101327857Y-94645238D01*
X101376238Y-94693619D01*
X101424619Y-94645238D01*
X101376238Y-94596857D01*
X101376238Y-94693619D01*
X100844047Y-94693619D02*
X100650523Y-94693619D01*
X100553761Y-94645238D01*
X100505380Y-94596857D01*
X100408619Y-94451714D01*
X100360238Y-94258190D01*
X100360238Y-93871142D01*
X100408619Y-93774380D01*
X100457000Y-93726000D01*
X100553761Y-93677619D01*
X100747285Y-93677619D01*
X100844047Y-93726000D01*
X100892428Y-93774380D01*
X100940809Y-93871142D01*
X100940809Y-94113047D01*
X100892428Y-94209809D01*
X100844047Y-94258190D01*
X100747285Y-94306571D01*
X100553761Y-94306571D01*
X100457000Y-94258190D01*
X100408619Y-94209809D01*
X100360238Y-94113047D01*
X99924809Y-94693619D02*
X99924809Y-93677619D01*
X99828047Y-94306571D02*
X99537761Y-94693619D01*
X99537761Y-94016285D02*
X99924809Y-94403333D01*
G04 #@! TO.C,R3*
X101134333Y-108155619D02*
X101473000Y-107671809D01*
X101714904Y-108155619D02*
X101714904Y-107139619D01*
X101327857Y-107139619D01*
X101231095Y-107188000D01*
X101182714Y-107236380D01*
X101134333Y-107333142D01*
X101134333Y-107478285D01*
X101182714Y-107575047D01*
X101231095Y-107623428D01*
X101327857Y-107671809D01*
X101714904Y-107671809D01*
X100795666Y-107139619D02*
X100166714Y-107139619D01*
X100505380Y-107526666D01*
X100360238Y-107526666D01*
X100263476Y-107575047D01*
X100215095Y-107623428D01*
X100166714Y-107720190D01*
X100166714Y-107962095D01*
X100215095Y-108058857D01*
X100263476Y-108107238D01*
X100360238Y-108155619D01*
X100650523Y-108155619D01*
X100747285Y-108107238D01*
X100795666Y-108058857D01*
X101860047Y-102567619D02*
X102343857Y-102567619D01*
X102392238Y-103051428D01*
X102343857Y-103003047D01*
X102247095Y-102954666D01*
X102005190Y-102954666D01*
X101908428Y-103003047D01*
X101860047Y-103051428D01*
X101811666Y-103148190D01*
X101811666Y-103390095D01*
X101860047Y-103486857D01*
X101908428Y-103535238D01*
X102005190Y-103583619D01*
X102247095Y-103583619D01*
X102343857Y-103535238D01*
X102392238Y-103486857D01*
X101376238Y-103486857D02*
X101327857Y-103535238D01*
X101376238Y-103583619D01*
X101424619Y-103535238D01*
X101376238Y-103486857D01*
X101376238Y-103583619D01*
X100844047Y-103583619D02*
X100650523Y-103583619D01*
X100553761Y-103535238D01*
X100505380Y-103486857D01*
X100408619Y-103341714D01*
X100360238Y-103148190D01*
X100360238Y-102761142D01*
X100408619Y-102664380D01*
X100457000Y-102616000D01*
X100553761Y-102567619D01*
X100747285Y-102567619D01*
X100844047Y-102616000D01*
X100892428Y-102664380D01*
X100940809Y-102761142D01*
X100940809Y-103003047D01*
X100892428Y-103099809D01*
X100844047Y-103148190D01*
X100747285Y-103196571D01*
X100553761Y-103196571D01*
X100457000Y-103148190D01*
X100408619Y-103099809D01*
X100360238Y-103003047D01*
X99924809Y-103583619D02*
X99924809Y-102567619D01*
X99828047Y-103196571D02*
X99537761Y-103583619D01*
X99537761Y-102906285D02*
X99924809Y-103293333D01*
G04 #@! TO.C,R4*
X101134333Y-117045619D02*
X101473000Y-116561809D01*
X101714904Y-117045619D02*
X101714904Y-116029619D01*
X101327857Y-116029619D01*
X101231095Y-116078000D01*
X101182714Y-116126380D01*
X101134333Y-116223142D01*
X101134333Y-116368285D01*
X101182714Y-116465047D01*
X101231095Y-116513428D01*
X101327857Y-116561809D01*
X101714904Y-116561809D01*
X100263476Y-116368285D02*
X100263476Y-117045619D01*
X100505380Y-115981238D02*
X100747285Y-116706952D01*
X100118333Y-116706952D01*
X101860047Y-111457619D02*
X102343857Y-111457619D01*
X102392238Y-111941428D01*
X102343857Y-111893047D01*
X102247095Y-111844666D01*
X102005190Y-111844666D01*
X101908428Y-111893047D01*
X101860047Y-111941428D01*
X101811666Y-112038190D01*
X101811666Y-112280095D01*
X101860047Y-112376857D01*
X101908428Y-112425238D01*
X102005190Y-112473619D01*
X102247095Y-112473619D01*
X102343857Y-112425238D01*
X102392238Y-112376857D01*
X101376238Y-112376857D02*
X101327857Y-112425238D01*
X101376238Y-112473619D01*
X101424619Y-112425238D01*
X101376238Y-112376857D01*
X101376238Y-112473619D01*
X100844047Y-112473619D02*
X100650523Y-112473619D01*
X100553761Y-112425238D01*
X100505380Y-112376857D01*
X100408619Y-112231714D01*
X100360238Y-112038190D01*
X100360238Y-111651142D01*
X100408619Y-111554380D01*
X100457000Y-111506000D01*
X100553761Y-111457619D01*
X100747285Y-111457619D01*
X100844047Y-111506000D01*
X100892428Y-111554380D01*
X100940809Y-111651142D01*
X100940809Y-111893047D01*
X100892428Y-111989809D01*
X100844047Y-112038190D01*
X100747285Y-112086571D01*
X100553761Y-112086571D01*
X100457000Y-112038190D01*
X100408619Y-111989809D01*
X100360238Y-111893047D01*
X99924809Y-112473619D02*
X99924809Y-111457619D01*
X99828047Y-112086571D02*
X99537761Y-112473619D01*
X99537761Y-111796285D02*
X99924809Y-112183333D01*
G04 #@! TO.C,R5*
X117299619Y-99525666D02*
X116815809Y-99187000D01*
X117299619Y-98945095D02*
X116283619Y-98945095D01*
X116283619Y-99332142D01*
X116332000Y-99428904D01*
X116380380Y-99477285D01*
X116477142Y-99525666D01*
X116622285Y-99525666D01*
X116719047Y-99477285D01*
X116767428Y-99428904D01*
X116815809Y-99332142D01*
X116815809Y-98945095D01*
X116283619Y-100444904D02*
X116283619Y-99961095D01*
X116767428Y-99912714D01*
X116719047Y-99961095D01*
X116670666Y-100057857D01*
X116670666Y-100299761D01*
X116719047Y-100396523D01*
X116767428Y-100444904D01*
X116864190Y-100493285D01*
X117106095Y-100493285D01*
X117202857Y-100444904D01*
X117251238Y-100396523D01*
X117299619Y-100299761D01*
X117299619Y-100057857D01*
X117251238Y-99961095D01*
X117202857Y-99912714D01*
X110949619Y-99017666D02*
X110949619Y-98437095D01*
X110949619Y-98727380D02*
X109933619Y-98727380D01*
X110078761Y-98630619D01*
X110175523Y-98533857D01*
X110223904Y-98437095D01*
X110272285Y-99888523D02*
X110949619Y-99888523D01*
X109885238Y-99646619D02*
X110610952Y-99404714D01*
X110610952Y-100033666D01*
X109933619Y-100614238D02*
X109933619Y-100711000D01*
X109982000Y-100807761D01*
X110030380Y-100856142D01*
X110127142Y-100904523D01*
X110320666Y-100952904D01*
X110562571Y-100952904D01*
X110756095Y-100904523D01*
X110852857Y-100856142D01*
X110901238Y-100807761D01*
X110949619Y-100711000D01*
X110949619Y-100614238D01*
X110901238Y-100517476D01*
X110852857Y-100469095D01*
X110756095Y-100420714D01*
X110562571Y-100372333D01*
X110320666Y-100372333D01*
X110127142Y-100420714D01*
X110030380Y-100469095D01*
X109982000Y-100517476D01*
X109933619Y-100614238D01*
G04 #@! TO.C,R6*
X117299619Y-103335666D02*
X116815809Y-102997000D01*
X117299619Y-102755095D02*
X116283619Y-102755095D01*
X116283619Y-103142142D01*
X116332000Y-103238904D01*
X116380380Y-103287285D01*
X116477142Y-103335666D01*
X116622285Y-103335666D01*
X116719047Y-103287285D01*
X116767428Y-103238904D01*
X116815809Y-103142142D01*
X116815809Y-102755095D01*
X116283619Y-104206523D02*
X116283619Y-104013000D01*
X116332000Y-103916238D01*
X116380380Y-103867857D01*
X116525523Y-103771095D01*
X116719047Y-103722714D01*
X117106095Y-103722714D01*
X117202857Y-103771095D01*
X117251238Y-103819476D01*
X117299619Y-103916238D01*
X117299619Y-104109761D01*
X117251238Y-104206523D01*
X117202857Y-104254904D01*
X117106095Y-104303285D01*
X116864190Y-104303285D01*
X116767428Y-104254904D01*
X116719047Y-104206523D01*
X116670666Y-104109761D01*
X116670666Y-103916238D01*
X116719047Y-103819476D01*
X116767428Y-103771095D01*
X116864190Y-103722714D01*
X110949619Y-102827666D02*
X110949619Y-102247095D01*
X110949619Y-102537380D02*
X109933619Y-102537380D01*
X110078761Y-102440619D01*
X110175523Y-102343857D01*
X110223904Y-102247095D01*
X110272285Y-103698523D02*
X110949619Y-103698523D01*
X109885238Y-103456619D02*
X110610952Y-103214714D01*
X110610952Y-103843666D01*
X109933619Y-104424238D02*
X109933619Y-104521000D01*
X109982000Y-104617761D01*
X110030380Y-104666142D01*
X110127142Y-104714523D01*
X110320666Y-104762904D01*
X110562571Y-104762904D01*
X110756095Y-104714523D01*
X110852857Y-104666142D01*
X110901238Y-104617761D01*
X110949619Y-104521000D01*
X110949619Y-104424238D01*
X110901238Y-104327476D01*
X110852857Y-104279095D01*
X110756095Y-104230714D01*
X110562571Y-104182333D01*
X110320666Y-104182333D01*
X110127142Y-104230714D01*
X110030380Y-104279095D01*
X109982000Y-104327476D01*
X109933619Y-104424238D01*
G04 #@! TO.C,R7*
X117299619Y-107145666D02*
X116815809Y-106807000D01*
X117299619Y-106565095D02*
X116283619Y-106565095D01*
X116283619Y-106952142D01*
X116332000Y-107048904D01*
X116380380Y-107097285D01*
X116477142Y-107145666D01*
X116622285Y-107145666D01*
X116719047Y-107097285D01*
X116767428Y-107048904D01*
X116815809Y-106952142D01*
X116815809Y-106565095D01*
X116283619Y-107484333D02*
X116283619Y-108161666D01*
X117299619Y-107726238D01*
X110949619Y-106637666D02*
X110949619Y-106057095D01*
X110949619Y-106347380D02*
X109933619Y-106347380D01*
X110078761Y-106250619D01*
X110175523Y-106153857D01*
X110223904Y-106057095D01*
X110272285Y-107508523D02*
X110949619Y-107508523D01*
X109885238Y-107266619D02*
X110610952Y-107024714D01*
X110610952Y-107653666D01*
X109933619Y-108234238D02*
X109933619Y-108331000D01*
X109982000Y-108427761D01*
X110030380Y-108476142D01*
X110127142Y-108524523D01*
X110320666Y-108572904D01*
X110562571Y-108572904D01*
X110756095Y-108524523D01*
X110852857Y-108476142D01*
X110901238Y-108427761D01*
X110949619Y-108331000D01*
X110949619Y-108234238D01*
X110901238Y-108137476D01*
X110852857Y-108089095D01*
X110756095Y-108040714D01*
X110562571Y-107992333D01*
X110320666Y-107992333D01*
X110127142Y-108040714D01*
X110030380Y-108089095D01*
X109982000Y-108137476D01*
X109933619Y-108234238D01*
G04 #@! TO.C,U1*
X131330095Y-97487619D02*
X131330095Y-98310095D01*
X131281714Y-98406857D01*
X131233333Y-98455238D01*
X131136571Y-98503619D01*
X130943047Y-98503619D01*
X130846285Y-98455238D01*
X130797904Y-98406857D01*
X130749523Y-98310095D01*
X130749523Y-97487619D01*
X129733523Y-98503619D02*
X130314095Y-98503619D01*
X130023809Y-98503619D02*
X130023809Y-97487619D01*
X130120571Y-97632761D01*
X130217333Y-97729523D01*
X130314095Y-97777904D01*
G04 #@! TO.C,U2*
X156984095Y-112473619D02*
X156984095Y-113296095D01*
X156935714Y-113392857D01*
X156887333Y-113441238D01*
X156790571Y-113489619D01*
X156597047Y-113489619D01*
X156500285Y-113441238D01*
X156451904Y-113392857D01*
X156403523Y-113296095D01*
X156403523Y-112473619D01*
X155968095Y-112570380D02*
X155919714Y-112522000D01*
X155822952Y-112473619D01*
X155581047Y-112473619D01*
X155484285Y-112522000D01*
X155435904Y-112570380D01*
X155387523Y-112667142D01*
X155387523Y-112763904D01*
X155435904Y-112909047D01*
X156016476Y-113489619D01*
X155387523Y-113489619D01*
G04 #@! TD*
%LPC*%
D14*
G04 #@! TO.C,R8*
X115189000Y-111125000D03*
X112141000Y-111125000D03*
G04 #@! TD*
D15*
G04 #@! TO.C,P1*
X175160000Y-109610000D03*
X175160000Y-105410000D03*
X175160000Y-101210000D03*
X180660000Y-109610000D03*
X180660000Y-105410000D03*
D16*
X180660000Y-101210000D03*
D17*
X187960000Y-109610000D03*
X187960000Y-101210000D03*
G04 #@! TD*
D18*
G04 #@! TO.C,MDB1*
X133350000Y-74930000D03*
X130810000Y-74930000D03*
X128270000Y-74930000D03*
X125730000Y-74930000D03*
X123190000Y-74930000D03*
X120650000Y-74930000D03*
X118110000Y-74930000D03*
X115570000Y-74930000D03*
X113030000Y-74930000D03*
X133350000Y-135890000D03*
X130810000Y-135890000D03*
X128270000Y-135890000D03*
X125730000Y-135890000D03*
X123190000Y-135890000D03*
X120650000Y-135890000D03*
X118110000Y-135890000D03*
X115570000Y-135890000D03*
X113030000Y-135890000D03*
D19*
X165100000Y-74930000D03*
X165100000Y-135890000D03*
X73660000Y-130810000D03*
X73660000Y-80010000D03*
D18*
X72390000Y-135890000D03*
X74930000Y-135890000D03*
X77470000Y-135890000D03*
X80010000Y-135890000D03*
X82550000Y-135890000D03*
X85090000Y-135890000D03*
X87630000Y-135890000D03*
X90170000Y-135890000D03*
X92710000Y-135890000D03*
X95250000Y-135890000D03*
X97790000Y-135890000D03*
X100330000Y-135890000D03*
X102870000Y-135890000D03*
X105410000Y-135890000D03*
X107950000Y-135890000D03*
X110490000Y-135890000D03*
X110490000Y-74930000D03*
X107950000Y-74930000D03*
X105410000Y-74930000D03*
X102870000Y-74930000D03*
X100330000Y-74930000D03*
X97790000Y-74930000D03*
X95250000Y-74930000D03*
X92710000Y-74930000D03*
X90170000Y-74930000D03*
X87630000Y-74930000D03*
X85090000Y-74930000D03*
X82550000Y-74930000D03*
X80010000Y-74930000D03*
D20*
X72390000Y-74930000D03*
D18*
X77470000Y-74930000D03*
X74930000Y-74930000D03*
G04 #@! TD*
D21*
G04 #@! TO.C,D1*
X74725000Y-91430000D03*
X72595000Y-91430000D03*
D22*
X73660000Y-87630000D03*
G04 #@! TD*
D14*
G04 #@! TO.C,C1*
X132334000Y-114300000D03*
X129286000Y-114300000D03*
G04 #@! TD*
G04 #@! TO.C,C2*
X154686000Y-97155000D03*
X157734000Y-97155000D03*
G04 #@! TD*
D23*
G04 #@! TO.C,C3*
X96520000Y-89154000D03*
X96520000Y-86106000D03*
G04 #@! TD*
G04 #@! TO.C,C4*
X96520000Y-98044000D03*
X96520000Y-94996000D03*
G04 #@! TD*
G04 #@! TO.C,C5*
X96520000Y-106934000D03*
X96520000Y-103886000D03*
G04 #@! TD*
G04 #@! TO.C,C6*
X96520000Y-115824000D03*
X96520000Y-112776000D03*
G04 #@! TD*
D24*
G04 #@! TO.C,HPS1*
X87045000Y-87630000D03*
D25*
X93345000Y-85350000D03*
X93345000Y-86490000D03*
X93345000Y-88770000D03*
X93345000Y-89910000D03*
G04 #@! TD*
D24*
G04 #@! TO.C,HPS2*
X87045000Y-96520000D03*
D25*
X93345000Y-94240000D03*
X93345000Y-95380000D03*
X93345000Y-97660000D03*
X93345000Y-98800000D03*
G04 #@! TD*
D24*
G04 #@! TO.C,HPS3*
X87045000Y-105410000D03*
D25*
X93345000Y-103130000D03*
X93345000Y-104270000D03*
X93345000Y-106550000D03*
X93345000Y-107690000D03*
G04 #@! TD*
D24*
G04 #@! TO.C,HPS4*
X87045000Y-114300000D03*
D25*
X93345000Y-112020000D03*
X93345000Y-113160000D03*
X93345000Y-115440000D03*
X93345000Y-116580000D03*
G04 #@! TD*
D14*
G04 #@! TO.C,R1*
X102489000Y-87630000D03*
X99441000Y-87630000D03*
G04 #@! TD*
G04 #@! TO.C,R2*
X102489000Y-96520000D03*
X99441000Y-96520000D03*
G04 #@! TD*
G04 #@! TO.C,R3*
X102489000Y-105410000D03*
X99441000Y-105410000D03*
G04 #@! TD*
G04 #@! TO.C,R4*
X102489000Y-114300000D03*
X99441000Y-114300000D03*
G04 #@! TD*
G04 #@! TO.C,R5*
X115189000Y-99695000D03*
X112141000Y-99695000D03*
G04 #@! TD*
G04 #@! TO.C,R6*
X115189000Y-103505000D03*
X112141000Y-103505000D03*
G04 #@! TD*
G04 #@! TO.C,R7*
X115189000Y-107315000D03*
X112141000Y-107315000D03*
G04 #@! TD*
D26*
G04 #@! TO.C,U1*
X135206000Y-99949000D03*
X135206000Y-101219000D03*
X135206000Y-102489000D03*
X135206000Y-103759000D03*
X135206000Y-105029000D03*
X135206000Y-106299000D03*
X135206000Y-107569000D03*
X135206000Y-108839000D03*
X135206000Y-110109000D03*
X135206000Y-111379000D03*
X125906000Y-111379000D03*
X125906000Y-110109000D03*
X125906000Y-108839000D03*
X125906000Y-107569000D03*
X125906000Y-106299000D03*
X125906000Y-105029000D03*
X125906000Y-103759000D03*
X125906000Y-102489000D03*
X125906000Y-101219000D03*
X125906000Y-99949000D03*
G04 #@! TD*
G04 #@! TO.C,U2*
X151560000Y-111125000D03*
X151560000Y-109855000D03*
X151560000Y-108585000D03*
X151560000Y-107315000D03*
X151560000Y-106045000D03*
X151560000Y-104775000D03*
X151560000Y-103505000D03*
X151560000Y-102235000D03*
X151560000Y-100965000D03*
X151560000Y-99695000D03*
X160860000Y-99695000D03*
X160860000Y-100965000D03*
X160860000Y-102235000D03*
X160860000Y-103505000D03*
X160860000Y-104775000D03*
X160860000Y-106045000D03*
X160860000Y-107315000D03*
X160860000Y-108585000D03*
X160860000Y-109855000D03*
X160860000Y-111125000D03*
G04 #@! TD*
D27*
G04 #@! TO.C,L1*
X189230000Y-113665000D03*
X189230000Y-118745000D03*
G04 #@! TD*
G04 #@! TO.C,L2*
X78740000Y-128270000D03*
X78740000Y-123190000D03*
G04 #@! TD*
G04 #@! TO.C,L3*
X81280000Y-123190000D03*
X81280000Y-128270000D03*
G04 #@! TD*
G04 #@! TO.C,L4*
X83820000Y-128270000D03*
X83820000Y-123190000D03*
G04 #@! TD*
G04 #@! TO.C,L5*
X86360000Y-123190000D03*
X86360000Y-128270000D03*
G04 #@! TD*
G04 #@! TO.C,L6*
X99060000Y-128270000D03*
X99060000Y-123190000D03*
G04 #@! TD*
G04 #@! TO.C,L7*
X101600000Y-128270000D03*
X101600000Y-123190000D03*
G04 #@! TD*
G04 #@! TO.C,L8*
X104140000Y-123190000D03*
X104140000Y-128270000D03*
G04 #@! TD*
G04 #@! TO.C,L9*
X106680000Y-123190000D03*
X106680000Y-128270000D03*
G04 #@! TD*
D28*
G04 #@! TO.C,L10*
X118745000Y-78740000D03*
X123825000Y-78740000D03*
G04 #@! TD*
G04 #@! TO.C,L11*
X123825000Y-132080000D03*
X118745000Y-132080000D03*
G04 #@! TD*
D29*
G04 #@! TO.C,J1*
X79450000Y-117910000D03*
X79450000Y-92910000D03*
G04 #@! TD*
G04 #@! TO.C,J2*
X99770000Y-117910000D03*
X99770000Y-92910000D03*
G04 #@! TD*
D30*
G04 #@! TO.C,J3*
X121285000Y-82535000D03*
D31*
X119517200Y-91302800D03*
X123052800Y-91302800D03*
X123052800Y-87767200D03*
X119517200Y-87767200D03*
X121285000Y-89535000D03*
G04 #@! TD*
G04 #@! TO.C,J4*
X121285000Y-121285000D03*
X119517200Y-119517200D03*
X123052800Y-119517200D03*
X123052800Y-123052800D03*
X119517200Y-123052800D03*
D30*
X121285000Y-114285000D03*
G04 #@! TD*
D31*
G04 #@! TO.C,J5*
X140335000Y-89535000D03*
X138567200Y-87767200D03*
X142102800Y-87767200D03*
X142102800Y-91302800D03*
X138567200Y-91302800D03*
D30*
X140335000Y-82535000D03*
G04 #@! TD*
G04 #@! TO.C,J6*
X140335000Y-114285000D03*
D31*
X138567200Y-123052800D03*
X142102800Y-123052800D03*
X142102800Y-119517200D03*
X138567200Y-119517200D03*
X140335000Y-121285000D03*
G04 #@! TD*
G04 #@! TO.C,J7*
X159385000Y-89535000D03*
X157617200Y-87767200D03*
X161152800Y-87767200D03*
X161152800Y-91302800D03*
X157617200Y-91302800D03*
D30*
X159385000Y-82535000D03*
G04 #@! TD*
G04 #@! TO.C,J8*
X159385000Y-114285000D03*
D31*
X157617200Y-123052800D03*
X161152800Y-123052800D03*
X161152800Y-119517200D03*
X157617200Y-119517200D03*
X159385000Y-121285000D03*
G04 #@! TD*
G04 #@! TO.C,J9*
X178435000Y-89535000D03*
X176667200Y-87767200D03*
X180202800Y-87767200D03*
X180202800Y-91302800D03*
X176667200Y-91302800D03*
D30*
X178435000Y-82535000D03*
G04 #@! TD*
G04 #@! TO.C,J10*
X178435000Y-114285000D03*
D31*
X176667200Y-123052800D03*
X180202800Y-123052800D03*
X180202800Y-119517200D03*
X176667200Y-119517200D03*
X178435000Y-121285000D03*
G04 #@! TD*
D28*
G04 #@! TO.C,L12*
X142875000Y-78740000D03*
X137795000Y-78740000D03*
G04 #@! TD*
G04 #@! TO.C,L13*
X137795000Y-132080000D03*
X142875000Y-132080000D03*
G04 #@! TD*
G04 #@! TO.C,L14*
X161925000Y-78740000D03*
X156845000Y-78740000D03*
G04 #@! TD*
G04 #@! TO.C,L15*
X156845000Y-132080000D03*
X161925000Y-132080000D03*
G04 #@! TD*
G04 #@! TO.C,L16*
X180975000Y-78740000D03*
X175895000Y-78740000D03*
G04 #@! TD*
G04 #@! TO.C,L17*
X175895000Y-132080000D03*
X180975000Y-132080000D03*
G04 #@! TD*
M02*
