G04 #@! TF.GenerationSoftware,KiCad,Pcbnew,6.0.0-unknown-69339f3~86~ubuntu18.04.1*
G04 #@! TF.CreationDate,2019-05-17T15:55:12-04:00*
G04 #@! TF.ProjectId,backlight_controller_5x3,6261636b-6c69-4676-9874-5f636f6e7472,1.3*
G04 #@! TF.SameCoordinates,Original*
G04 #@! TF.FileFunction,Paste,Bot*
G04 #@! TF.FilePolarity,Positive*
%FSLAX46Y46*%
G04 Gerber Fmt 4.6, Leading zero omitted, Abs format (unit mm)*
G04 Created by KiCad (PCBNEW 6.0.0-unknown-69339f3~86~ubuntu18.04.1) date 2019-05-17 15:55:12*
%MOMM*%
%LPD*%
G04 APERTURE LIST*
%ADD10R,0.787400X1.600200*%
%ADD11R,1.600200X0.787400*%
%ADD12R,1.600000X1.440000*%
%ADD13R,3.800000X4.960000*%
%ADD14R,6.400000X5.800000*%
%ADD15R,2.200000X0.800000*%
%ADD16R,2.000000X0.600000*%
G04 APERTURE END LIST*
D10*
X117703600Y-101600000D03*
X119786400Y-101600000D03*
X95478600Y-120650000D03*
X97561400Y-120650000D03*
D11*
X92710000Y-114528600D03*
X92710000Y-116611400D03*
D10*
X117703600Y-104140000D03*
X119786400Y-104140000D03*
X95478600Y-110490000D03*
X97561400Y-110490000D03*
D11*
X92710000Y-104368600D03*
X92710000Y-106451400D03*
D10*
X95478600Y-100330000D03*
X97561400Y-100330000D03*
D11*
X92710000Y-94208600D03*
X92710000Y-96291400D03*
D10*
X95478600Y-90170000D03*
X97561400Y-90170000D03*
D11*
X92710000Y-84048600D03*
X92710000Y-86131400D03*
D10*
X131851400Y-113665000D03*
X129768600Y-113665000D03*
X117703600Y-106680000D03*
X119786400Y-106680000D03*
X117703600Y-109220000D03*
X119786400Y-109220000D03*
X155168600Y-97155000D03*
X157251400Y-97155000D03*
D12*
X74725000Y-91430000D03*
X72595000Y-91430000D03*
D13*
X73660000Y-87630000D03*
D14*
X86410000Y-90170000D03*
D15*
X92710000Y-87890000D03*
X92710000Y-89030000D03*
X92710000Y-91310000D03*
X92710000Y-92450000D03*
D14*
X86410000Y-100330000D03*
D15*
X92710000Y-98050000D03*
X92710000Y-99190000D03*
X92710000Y-101470000D03*
X92710000Y-102610000D03*
D14*
X86410000Y-110490000D03*
D15*
X92710000Y-108210000D03*
X92710000Y-109350000D03*
X92710000Y-111630000D03*
X92710000Y-112770000D03*
D14*
X86410000Y-120650000D03*
D15*
X92710000Y-118370000D03*
X92710000Y-119510000D03*
X92710000Y-121790000D03*
X92710000Y-122930000D03*
D16*
X135206000Y-99949000D03*
X135206000Y-101219000D03*
X135206000Y-102489000D03*
X135206000Y-103759000D03*
X135206000Y-105029000D03*
X135206000Y-106299000D03*
X135206000Y-107569000D03*
X135206000Y-108839000D03*
X135206000Y-110109000D03*
X135206000Y-111379000D03*
X125906000Y-111379000D03*
X125906000Y-110109000D03*
X125906000Y-108839000D03*
X125906000Y-107569000D03*
X125906000Y-106299000D03*
X125906000Y-105029000D03*
X125906000Y-103759000D03*
X125906000Y-102489000D03*
X125906000Y-101219000D03*
X125906000Y-99949000D03*
X151560000Y-111125000D03*
X151560000Y-109855000D03*
X151560000Y-108585000D03*
X151560000Y-107315000D03*
X151560000Y-106045000D03*
X151560000Y-104775000D03*
X151560000Y-103505000D03*
X151560000Y-102235000D03*
X151560000Y-100965000D03*
X151560000Y-99695000D03*
X160860000Y-99695000D03*
X160860000Y-100965000D03*
X160860000Y-102235000D03*
X160860000Y-103505000D03*
X160860000Y-104775000D03*
X160860000Y-106045000D03*
X160860000Y-107315000D03*
X160860000Y-108585000D03*
X160860000Y-109855000D03*
X160860000Y-111125000D03*
M02*
