M48
;DRILL file {KiCad 6.0.0-rc1-unknown-4b44cbe~66~ubuntu18.04.1} date Mon 29 Oct 2018 04:04:25 PM EDT
;FORMAT={-:-/ absolute / metric / decimal}
FMAT,2
METRIC
T1C0.635
T2C0.711
T3C0.965
T4C1.092
T5C1.100
T6C1.118
T7C1.500
T8C1.800
T9C3.000
T10C3.302
%
G90
G05
M71
T1
X92.69Y-114.161
X97.951Y-117.232
X98.81Y-112.311
X101.245Y-86.496
X102.342Y-98.504
X106.952Y-104.243
X109.419Y-102.783
X110.136Y-107.995
X110.532Y-88.951
X112.118Y-101.907
X121.21Y-86.18
X121.733Y-119.515
X125.183Y-98.79
X129.105Y-132.578
X129.697Y-133.474
X136.044Y-81.019
X138.642Y-110.119
X142.081Y-86.261
X142.105Y-120.86
X149.763Y-110.624
X153.081Y-95.922
X157.991Y-127.412
X159.136Y-85.915
X159.308Y-108.49
X159.311Y-106.384
X159.747Y-119.515
X162.951Y-100.619
X176.495Y-116.902
X178.603Y-119.144
X178.857Y-86.379
T2
X128.221Y-100.313
X157.787Y-99.553
T3
X137.795Y-78.74
X142.875Y-78.74
X78.74Y-123.19
X78.74Y-128.27
X118.745Y-132.08
X123.825Y-132.08
X137.795Y-132.08
X142.875Y-132.08
X81.28Y-123.19
X81.28Y-128.27
X156.845Y-132.08
X161.925Y-132.08
X106.68Y-123.19
X106.68Y-128.27
X104.14Y-123.19
X104.14Y-128.27
X156.845Y-78.74
X161.925Y-78.74
X101.6Y-123.19
X101.6Y-128.27
X86.36Y-123.19
X86.36Y-128.27
X118.745Y-78.74
X123.825Y-78.74
X99.06Y-123.19
X99.06Y-128.27
X175.895Y-132.08
X180.975Y-132.08
X175.895Y-78.74
X180.975Y-78.74
X189.23Y-113.665
X189.23Y-118.745
X83.82Y-123.19
X83.82Y-128.27
T4
X72.39Y-74.93
X72.39Y-135.89
X74.93Y-74.93
X74.93Y-135.89
X77.47Y-74.93
X77.47Y-135.89
X80.01Y-74.93
X80.01Y-135.89
X82.55Y-74.93
X82.55Y-135.89
X85.09Y-74.93
X85.09Y-135.89
X87.63Y-74.93
X87.63Y-135.89
X90.17Y-74.93
X90.17Y-135.89
X92.71Y-74.93
X92.71Y-135.89
X95.25Y-74.93
X95.25Y-135.89
X97.79Y-74.93
X97.79Y-135.89
X100.33Y-74.93
X100.33Y-135.89
X102.87Y-74.93
X102.87Y-135.89
X105.41Y-74.93
X105.41Y-135.89
X107.95Y-74.93
X107.95Y-135.89
X110.49Y-74.93
X110.49Y-135.89
X113.03Y-74.93
X113.03Y-135.89
X115.57Y-74.93
X115.57Y-135.89
X118.11Y-74.93
X118.11Y-135.89
X120.65Y-74.93
X120.65Y-135.89
X123.19Y-74.93
X123.19Y-135.89
X125.73Y-74.93
X125.73Y-135.89
X128.27Y-74.93
X128.27Y-135.89
X130.81Y-74.93
X130.81Y-135.89
X133.35Y-74.93
X133.35Y-135.89
T5
X125.785Y-121.285
X144.835Y-89.535
X163.885Y-121.285
X163.885Y-89.535
X144.835Y-121.285
X125.785Y-89.535
X182.935Y-121.285
X182.935Y-89.535
T6
X76.455Y-99.93
X78.4Y-102.507
X78.563Y-108.15
X87.045Y-101.443
X88.681Y-109.819
T7
X154.885Y-89.535
X135.835Y-121.285
X116.785Y-89.535
X173.935Y-121.285
X173.935Y-89.535
X116.785Y-121.285
X135.835Y-89.535
X154.885Y-121.285
T8
X79.45Y-92.91
X79.45Y-117.91
X175.16Y-101.21
X175.16Y-105.41
X175.16Y-109.61
X180.66Y-101.21
X180.66Y-105.41
X180.66Y-109.61
X99.77Y-92.91
X99.77Y-117.91
T9
X187.96Y-101.21
X187.96Y-109.61
T10
X73.66Y-80.01
X73.66Y-130.81
X165.1Y-74.93
X165.1Y-135.89
T0
M30
