M48
;DRILL file {KiCad 6.0.0-rc1-unknown-576a0af~66~ubuntu18.04.1} date Sat 20 Oct 2018 04:59:17 PM EDT
;FORMAT={-:-/ absolute / metric / decimal}
FMAT,2
METRIC
T1C0.635
T2C0.711
T3C0.965
T4C1.092
T5C1.100
T6C1.118
T7C1.500
T8C1.800
T9C3.000
T10C3.302
%
G90
G05
M71
T1
X103.774Y-108.162
X105.541Y-122.171
X108.972Y-109.52
X110.444Y-103.199
X110.798Y-111.185
X111.67Y-113.881
X121.733Y-119.384
X121.756Y-87.765
X126.693Y-95.987
X127.403Y-114.521
X129.279Y-125.704
X130.369Y-130.032
X130.978Y-117.481
X132.915Y-129.886
X133.494Y-112.739
X140.531Y-86.343
X142.105Y-120.882
X156.784Y-94.927
X158.405Y-107.498
X159.28Y-108.276
X159.31Y-105.531
X159.587Y-119.568
X160.057Y-86.5
X163.803Y-130.658
X179.174Y-86.522
X180.691Y-121.276
T2
X95.321Y-93.497
X95.321Y-102.242
X97.028Y-110.774
X107.527Y-125.73
X124.665Y-98.708
X130.707Y-110.264
X155.775Y-108.365
T3
X83.82Y-123.19
X83.82Y-128.27
X118.745Y-78.74
X123.825Y-78.74
X118.745Y-132.08
X123.825Y-132.08
X106.68Y-123.19
X106.68Y-128.27
X189.23Y-113.665
X189.23Y-118.745
X156.845Y-132.08
X161.925Y-132.08
X175.895Y-78.74
X180.975Y-78.74
X78.74Y-123.19
X78.74Y-128.27
X156.845Y-78.74
X161.925Y-78.74
X81.28Y-123.19
X81.28Y-128.27
X99.06Y-123.19
X99.06Y-128.27
X175.895Y-132.08
X180.975Y-132.08
X86.36Y-123.19
X86.36Y-128.27
X101.6Y-123.19
X101.6Y-128.27
X137.795Y-132.08
X142.875Y-132.08
X137.795Y-78.74
X142.875Y-78.74
X104.14Y-123.19
X104.14Y-128.27
T4
X72.39Y-74.93
X72.39Y-135.89
X74.93Y-74.93
X74.93Y-135.89
X77.47Y-74.93
X77.47Y-135.89
X80.01Y-74.93
X80.01Y-135.89
X82.55Y-74.93
X82.55Y-135.89
X85.09Y-74.93
X85.09Y-135.89
X87.63Y-74.93
X87.63Y-135.89
X90.17Y-74.93
X90.17Y-135.89
X92.71Y-74.93
X92.71Y-135.89
X95.25Y-74.93
X95.25Y-135.89
X97.79Y-74.93
X97.79Y-135.89
X100.33Y-74.93
X100.33Y-135.89
X102.87Y-74.93
X102.87Y-135.89
X105.41Y-74.93
X105.41Y-135.89
X107.95Y-74.93
X107.95Y-135.89
X110.49Y-74.93
X110.49Y-135.89
X113.03Y-74.93
X113.03Y-135.89
X115.57Y-74.93
X115.57Y-135.89
X118.11Y-74.93
X118.11Y-135.89
X120.65Y-74.93
X120.65Y-135.89
X123.19Y-74.93
X123.19Y-135.89
X125.73Y-74.93
X125.73Y-135.89
X128.27Y-74.93
X128.27Y-135.89
X130.81Y-74.93
X130.81Y-135.89
X133.35Y-74.93
X133.35Y-135.89
T5
X163.885Y-121.285
X125.785Y-89.535
X125.785Y-121.285
X182.935Y-121.285
X144.835Y-89.535
X163.885Y-89.535
X144.835Y-121.285
X182.935Y-89.535
T6
X75.664Y-99.081
X78.393Y-102.589
X78.563Y-108.15
X82.778Y-114.3
X86.537Y-101.3
T7
X173.935Y-121.285
X135.835Y-89.535
X154.885Y-89.535
X135.835Y-121.285
X173.935Y-89.535
X154.885Y-121.285
X116.785Y-89.535
X116.785Y-121.285
T8
X99.77Y-92.91
X99.77Y-117.91
X79.45Y-92.91
X79.45Y-117.91
X175.16Y-101.21
X175.16Y-105.41
X175.16Y-109.61
X180.66Y-101.21
X180.66Y-105.41
X180.66Y-109.61
T9
X187.96Y-101.21
X187.96Y-109.61
T10
X73.66Y-80.01
X73.66Y-130.81
X165.1Y-74.93
X165.1Y-135.89
T0
M30
