G04 #@! TF.GenerationSoftware,KiCad,Pcbnew,6.0.0-rc1-unknown-576a0af~66~ubuntu18.04.1*
G04 #@! TF.CreationDate,2018-10-20T16:59:14-04:00*
G04 #@! TF.ProjectId,backlight_controller_5x3,6261636B6C696768745F636F6E74726F,1.1*
G04 #@! TF.SameCoordinates,Original*
G04 #@! TF.FileFunction,Legend,Top*
G04 #@! TF.FilePolarity,Positive*
%FSLAX46Y46*%
G04 Gerber Fmt 4.6, Leading zero omitted, Abs format (unit mm)*
G04 Created by KiCad (PCBNEW 6.0.0-rc1-unknown-576a0af~66~ubuntu18.04.1) date Sat 20 Oct 2018 04:59:14 PM EDT*
%MOMM*%
%LPD*%
G01*
G04 APERTURE LIST*
%ADD10C,0.381000*%
%ADD11C,0.317500*%
%ADD12C,0.228600*%
%ADD13C,0.190500*%
%ADD14C,0.254000*%
%ADD15C,0.400000*%
%ADD16C,0.285750*%
%ADD17C,2.200000*%
%ADD18R,13.000000X3.400000*%
%ADD19R,13.000000X3.400001*%
%ADD20R,2.400000X1.000000*%
%ADD21O,4.000000X3.000000*%
%ADD22R,4.000000X3.000000*%
%ADD23C,4.000000*%
%ADD24O,1.854200X2.540000*%
%ADD25C,3.556000*%
%ADD26R,1.854200X2.540000*%
%ADD27O,1.524000X2.032000*%
%ADD28O,2.032000X1.524000*%
%ADD29C,2.500000*%
%ADD30R,2.351600X7.951600*%
%ADD31C,1.601600*%
G04 APERTURE END LIST*
D10*
X107950000Y-130810000D02*
X111760000Y-130810000D01*
X87630000Y-130810000D02*
X97790000Y-130810000D01*
X76200000Y-130810000D02*
X77470000Y-130810000D01*
X92710000Y-84455000D02*
X92710000Y-130810000D01*
X73660000Y-84455000D02*
X73660000Y-128270000D01*
X111760000Y-84455000D02*
X73660000Y-84455000D01*
D11*
X183418994Y-79314523D02*
X182693279Y-79314523D01*
X183056136Y-79314523D02*
X183056136Y-78044523D01*
X182935184Y-78225952D01*
X182814232Y-78346904D01*
X182693279Y-78407380D01*
X184507565Y-78467857D02*
X184507565Y-79314523D01*
X184205184Y-77984047D02*
X183902803Y-78891190D01*
X184688994Y-78891190D01*
X164368994Y-79314523D02*
X163643279Y-79314523D01*
X164006136Y-79314523D02*
X164006136Y-78044523D01*
X163885184Y-78225952D01*
X163764232Y-78346904D01*
X163643279Y-78407380D01*
X164852803Y-78165476D02*
X164913279Y-78105000D01*
X165034232Y-78044523D01*
X165336613Y-78044523D01*
X165457565Y-78105000D01*
X165518041Y-78165476D01*
X165578517Y-78286428D01*
X165578517Y-78407380D01*
X165518041Y-78588809D01*
X164792327Y-79314523D01*
X165578517Y-79314523D01*
X145318994Y-79314523D02*
X144593279Y-79314523D01*
X144956136Y-79314523D02*
X144956136Y-78044523D01*
X144835184Y-78225952D01*
X144714232Y-78346904D01*
X144593279Y-78407380D01*
X146105184Y-78044523D02*
X146226136Y-78044523D01*
X146347089Y-78105000D01*
X146407565Y-78165476D01*
X146468041Y-78286428D01*
X146528517Y-78528333D01*
X146528517Y-78830714D01*
X146468041Y-79072619D01*
X146407565Y-79193571D01*
X146347089Y-79254047D01*
X146226136Y-79314523D01*
X146105184Y-79314523D01*
X145984232Y-79254047D01*
X145923755Y-79193571D01*
X145863279Y-79072619D01*
X145802803Y-78830714D01*
X145802803Y-78528333D01*
X145863279Y-78286428D01*
X145923755Y-78165476D01*
X145984232Y-78105000D01*
X146105184Y-78044523D01*
X183418994Y-132654523D02*
X182693279Y-132654523D01*
X183056136Y-132654523D02*
X183056136Y-131384523D01*
X182935184Y-131565952D01*
X182814232Y-131686904D01*
X182693279Y-131747380D01*
X184568041Y-131384523D02*
X183963279Y-131384523D01*
X183902803Y-131989285D01*
X183963279Y-131928809D01*
X184084232Y-131868333D01*
X184386613Y-131868333D01*
X184507565Y-131928809D01*
X184568041Y-131989285D01*
X184628517Y-132110238D01*
X184628517Y-132412619D01*
X184568041Y-132533571D01*
X184507565Y-132594047D01*
X184386613Y-132654523D01*
X184084232Y-132654523D01*
X183963279Y-132594047D01*
X183902803Y-132533571D01*
X164368994Y-132654523D02*
X163643279Y-132654523D01*
X164006136Y-132654523D02*
X164006136Y-131384523D01*
X163885184Y-131565952D01*
X163764232Y-131686904D01*
X163643279Y-131747380D01*
X164792327Y-131384523D02*
X165578517Y-131384523D01*
X165155184Y-131868333D01*
X165336613Y-131868333D01*
X165457565Y-131928809D01*
X165518041Y-131989285D01*
X165578517Y-132110238D01*
X165578517Y-132412619D01*
X165518041Y-132533571D01*
X165457565Y-132594047D01*
X165336613Y-132654523D01*
X164973755Y-132654523D01*
X164852803Y-132594047D01*
X164792327Y-132533571D01*
X145318994Y-132654523D02*
X144593279Y-132654523D01*
X144956136Y-132654523D02*
X144956136Y-131384523D01*
X144835184Y-131565952D01*
X144714232Y-131686904D01*
X144593279Y-131747380D01*
X146528517Y-132654523D02*
X145802803Y-132654523D01*
X146165660Y-132654523D02*
X146165660Y-131384523D01*
X146044708Y-131565952D01*
X145923755Y-131686904D01*
X145802803Y-131747380D01*
X125664232Y-132654523D02*
X125906136Y-132654523D01*
X126027089Y-132594047D01*
X126087565Y-132533571D01*
X126208517Y-132352142D01*
X126268994Y-132110238D01*
X126268994Y-131626428D01*
X126208517Y-131505476D01*
X126148041Y-131445000D01*
X126027089Y-131384523D01*
X125785184Y-131384523D01*
X125664232Y-131445000D01*
X125603755Y-131505476D01*
X125543279Y-131626428D01*
X125543279Y-131928809D01*
X125603755Y-132049761D01*
X125664232Y-132110238D01*
X125785184Y-132170714D01*
X126027089Y-132170714D01*
X126148041Y-132110238D01*
X126208517Y-132049761D01*
X126268994Y-131928809D01*
X125785184Y-78588809D02*
X125664232Y-78528333D01*
X125603755Y-78467857D01*
X125543279Y-78346904D01*
X125543279Y-78286428D01*
X125603755Y-78165476D01*
X125664232Y-78105000D01*
X125785184Y-78044523D01*
X126027089Y-78044523D01*
X126148041Y-78105000D01*
X126208517Y-78165476D01*
X126268994Y-78286428D01*
X126268994Y-78346904D01*
X126208517Y-78467857D01*
X126148041Y-78528333D01*
X126027089Y-78588809D01*
X125785184Y-78588809D01*
X125664232Y-78649285D01*
X125603755Y-78709761D01*
X125543279Y-78830714D01*
X125543279Y-79072619D01*
X125603755Y-79193571D01*
X125664232Y-79254047D01*
X125785184Y-79314523D01*
X126027089Y-79314523D01*
X126148041Y-79254047D01*
X126208517Y-79193571D01*
X126268994Y-79072619D01*
X126268994Y-78830714D01*
X126208517Y-78709761D01*
X126148041Y-78649285D01*
X126027089Y-78588809D01*
X169786904Y-105984523D02*
X170210238Y-107254523D01*
X170633571Y-105984523D01*
X171480238Y-106589285D02*
X171661666Y-106649761D01*
X171722142Y-106710238D01*
X171782619Y-106831190D01*
X171782619Y-107012619D01*
X171722142Y-107133571D01*
X171661666Y-107194047D01*
X171540714Y-107254523D01*
X171056904Y-107254523D01*
X171056904Y-105984523D01*
X171480238Y-105984523D01*
X171601190Y-106045000D01*
X171661666Y-106105476D01*
X171722142Y-106226428D01*
X171722142Y-106347380D01*
X171661666Y-106468333D01*
X171601190Y-106528809D01*
X171480238Y-106589285D01*
X171056904Y-106589285D01*
X172205952Y-105984523D02*
X172992142Y-105984523D01*
X172568809Y-106468333D01*
X172750238Y-106468333D01*
X172871190Y-106528809D01*
X172931666Y-106589285D01*
X172992142Y-106710238D01*
X172992142Y-107012619D01*
X172931666Y-107133571D01*
X172871190Y-107194047D01*
X172750238Y-107254523D01*
X172387380Y-107254523D01*
X172266428Y-107194047D01*
X172205952Y-107133571D01*
X170210238Y-104714523D02*
X170210238Y-103444523D01*
X171238333Y-104049285D02*
X171419761Y-104109761D01*
X171480238Y-104170238D01*
X171540714Y-104291190D01*
X171540714Y-104472619D01*
X171480238Y-104593571D01*
X171419761Y-104654047D01*
X171298809Y-104714523D01*
X170815000Y-104714523D01*
X170815000Y-103444523D01*
X171238333Y-103444523D01*
X171359285Y-103505000D01*
X171419761Y-103565476D01*
X171480238Y-103686428D01*
X171480238Y-103807380D01*
X171419761Y-103928333D01*
X171359285Y-103988809D01*
X171238333Y-104049285D01*
X170815000Y-104049285D01*
X171964047Y-103444523D02*
X172750238Y-103444523D01*
X172326904Y-103928333D01*
X172508333Y-103928333D01*
X172629285Y-103988809D01*
X172689761Y-104049285D01*
X172750238Y-104170238D01*
X172750238Y-104472619D01*
X172689761Y-104593571D01*
X172629285Y-104654047D01*
X172508333Y-104714523D01*
X172145476Y-104714523D01*
X172024523Y-104654047D01*
X171964047Y-104593571D01*
X150404285Y-105984523D02*
X150827619Y-107254523D01*
X151250952Y-105984523D01*
X151674285Y-107254523D02*
X151674285Y-106407857D01*
X151674285Y-105984523D02*
X151613809Y-106045000D01*
X151674285Y-106105476D01*
X151734761Y-106045000D01*
X151674285Y-105984523D01*
X151674285Y-106105476D01*
X152218571Y-107194047D02*
X152339523Y-107254523D01*
X152581428Y-107254523D01*
X152702380Y-107194047D01*
X152762857Y-107073095D01*
X152762857Y-107012619D01*
X152702380Y-106891666D01*
X152581428Y-106831190D01*
X152400000Y-106831190D01*
X152279047Y-106770714D01*
X152218571Y-106649761D01*
X152218571Y-106589285D01*
X152279047Y-106468333D01*
X152400000Y-106407857D01*
X152581428Y-106407857D01*
X152702380Y-106468333D01*
X153307142Y-107254523D02*
X153307142Y-106407857D01*
X153307142Y-105984523D02*
X153246666Y-106045000D01*
X153307142Y-106105476D01*
X153367619Y-106045000D01*
X153307142Y-105984523D01*
X153307142Y-106105476D01*
X153911904Y-107254523D02*
X153911904Y-105984523D01*
X153911904Y-106468333D02*
X154032857Y-106407857D01*
X154274761Y-106407857D01*
X154395714Y-106468333D01*
X154456190Y-106528809D01*
X154516666Y-106649761D01*
X154516666Y-107012619D01*
X154456190Y-107133571D01*
X154395714Y-107194047D01*
X154274761Y-107254523D01*
X154032857Y-107254523D01*
X153911904Y-107194047D01*
X155242380Y-107254523D02*
X155121428Y-107194047D01*
X155060952Y-107073095D01*
X155060952Y-105984523D01*
X156210000Y-107194047D02*
X156089047Y-107254523D01*
X155847142Y-107254523D01*
X155726190Y-107194047D01*
X155665714Y-107073095D01*
X155665714Y-106589285D01*
X155726190Y-106468333D01*
X155847142Y-106407857D01*
X156089047Y-106407857D01*
X156210000Y-106468333D01*
X156270476Y-106589285D01*
X156270476Y-106710238D01*
X155665714Y-106831190D01*
X158205714Y-106589285D02*
X158387142Y-106649761D01*
X158447619Y-106710238D01*
X158508095Y-106831190D01*
X158508095Y-107012619D01*
X158447619Y-107133571D01*
X158387142Y-107194047D01*
X158266190Y-107254523D01*
X157782380Y-107254523D01*
X157782380Y-105984523D01*
X158205714Y-105984523D01*
X158326666Y-106045000D01*
X158387142Y-106105476D01*
X158447619Y-106226428D01*
X158447619Y-106347380D01*
X158387142Y-106468333D01*
X158326666Y-106528809D01*
X158205714Y-106589285D01*
X157782380Y-106589285D01*
X159596666Y-107254523D02*
X159596666Y-106589285D01*
X159536190Y-106468333D01*
X159415238Y-106407857D01*
X159173333Y-106407857D01*
X159052380Y-106468333D01*
X159596666Y-107194047D02*
X159475714Y-107254523D01*
X159173333Y-107254523D01*
X159052380Y-107194047D01*
X158991904Y-107073095D01*
X158991904Y-106952142D01*
X159052380Y-106831190D01*
X159173333Y-106770714D01*
X159475714Y-106770714D01*
X159596666Y-106710238D01*
X160745714Y-107194047D02*
X160624761Y-107254523D01*
X160382857Y-107254523D01*
X160261904Y-107194047D01*
X160201428Y-107133571D01*
X160140952Y-107012619D01*
X160140952Y-106649761D01*
X160201428Y-106528809D01*
X160261904Y-106468333D01*
X160382857Y-106407857D01*
X160624761Y-106407857D01*
X160745714Y-106468333D01*
X161290000Y-107254523D02*
X161290000Y-105984523D01*
X161410952Y-106770714D02*
X161773809Y-107254523D01*
X161773809Y-106407857D02*
X161290000Y-106891666D01*
X162499523Y-107254523D02*
X162378571Y-107194047D01*
X162318095Y-107073095D01*
X162318095Y-105984523D01*
X162983333Y-107254523D02*
X162983333Y-106407857D01*
X162983333Y-105984523D02*
X162922857Y-106045000D01*
X162983333Y-106105476D01*
X163043809Y-106045000D01*
X162983333Y-105984523D01*
X162983333Y-106105476D01*
X164132380Y-106407857D02*
X164132380Y-107435952D01*
X164071904Y-107556904D01*
X164011428Y-107617380D01*
X163890476Y-107677857D01*
X163709047Y-107677857D01*
X163588095Y-107617380D01*
X164132380Y-107194047D02*
X164011428Y-107254523D01*
X163769523Y-107254523D01*
X163648571Y-107194047D01*
X163588095Y-107133571D01*
X163527619Y-107012619D01*
X163527619Y-106649761D01*
X163588095Y-106528809D01*
X163648571Y-106468333D01*
X163769523Y-106407857D01*
X164011428Y-106407857D01*
X164132380Y-106468333D01*
X164737142Y-107254523D02*
X164737142Y-105984523D01*
X165281428Y-107254523D02*
X165281428Y-106589285D01*
X165220952Y-106468333D01*
X165100000Y-106407857D01*
X164918571Y-106407857D01*
X164797619Y-106468333D01*
X164737142Y-106528809D01*
X165704761Y-106407857D02*
X166188571Y-106407857D01*
X165886190Y-105984523D02*
X165886190Y-107073095D01*
X165946666Y-107194047D01*
X166067619Y-107254523D01*
X166188571Y-107254523D01*
X167519047Y-106105476D02*
X167579523Y-106045000D01*
X167700476Y-105984523D01*
X168002857Y-105984523D01*
X168123809Y-106045000D01*
X168184285Y-106105476D01*
X168244761Y-106226428D01*
X168244761Y-106347380D01*
X168184285Y-106528809D01*
X167458571Y-107254523D01*
X168244761Y-107254523D01*
X131354285Y-105984523D02*
X131777619Y-107254523D01*
X132200952Y-105984523D01*
X132624285Y-107254523D02*
X132624285Y-106407857D01*
X132624285Y-105984523D02*
X132563809Y-106045000D01*
X132624285Y-106105476D01*
X132684761Y-106045000D01*
X132624285Y-105984523D01*
X132624285Y-106105476D01*
X133168571Y-107194047D02*
X133289523Y-107254523D01*
X133531428Y-107254523D01*
X133652380Y-107194047D01*
X133712857Y-107073095D01*
X133712857Y-107012619D01*
X133652380Y-106891666D01*
X133531428Y-106831190D01*
X133350000Y-106831190D01*
X133229047Y-106770714D01*
X133168571Y-106649761D01*
X133168571Y-106589285D01*
X133229047Y-106468333D01*
X133350000Y-106407857D01*
X133531428Y-106407857D01*
X133652380Y-106468333D01*
X134257142Y-107254523D02*
X134257142Y-106407857D01*
X134257142Y-105984523D02*
X134196666Y-106045000D01*
X134257142Y-106105476D01*
X134317619Y-106045000D01*
X134257142Y-105984523D01*
X134257142Y-106105476D01*
X134861904Y-107254523D02*
X134861904Y-105984523D01*
X134861904Y-106468333D02*
X134982857Y-106407857D01*
X135224761Y-106407857D01*
X135345714Y-106468333D01*
X135406190Y-106528809D01*
X135466666Y-106649761D01*
X135466666Y-107012619D01*
X135406190Y-107133571D01*
X135345714Y-107194047D01*
X135224761Y-107254523D01*
X134982857Y-107254523D01*
X134861904Y-107194047D01*
X136192380Y-107254523D02*
X136071428Y-107194047D01*
X136010952Y-107073095D01*
X136010952Y-105984523D01*
X137160000Y-107194047D02*
X137039047Y-107254523D01*
X136797142Y-107254523D01*
X136676190Y-107194047D01*
X136615714Y-107073095D01*
X136615714Y-106589285D01*
X136676190Y-106468333D01*
X136797142Y-106407857D01*
X137039047Y-106407857D01*
X137160000Y-106468333D01*
X137220476Y-106589285D01*
X137220476Y-106710238D01*
X136615714Y-106831190D01*
X139155714Y-106589285D02*
X139337142Y-106649761D01*
X139397619Y-106710238D01*
X139458095Y-106831190D01*
X139458095Y-107012619D01*
X139397619Y-107133571D01*
X139337142Y-107194047D01*
X139216190Y-107254523D01*
X138732380Y-107254523D01*
X138732380Y-105984523D01*
X139155714Y-105984523D01*
X139276666Y-106045000D01*
X139337142Y-106105476D01*
X139397619Y-106226428D01*
X139397619Y-106347380D01*
X139337142Y-106468333D01*
X139276666Y-106528809D01*
X139155714Y-106589285D01*
X138732380Y-106589285D01*
X140546666Y-107254523D02*
X140546666Y-106589285D01*
X140486190Y-106468333D01*
X140365238Y-106407857D01*
X140123333Y-106407857D01*
X140002380Y-106468333D01*
X140546666Y-107194047D02*
X140425714Y-107254523D01*
X140123333Y-107254523D01*
X140002380Y-107194047D01*
X139941904Y-107073095D01*
X139941904Y-106952142D01*
X140002380Y-106831190D01*
X140123333Y-106770714D01*
X140425714Y-106770714D01*
X140546666Y-106710238D01*
X141695714Y-107194047D02*
X141574761Y-107254523D01*
X141332857Y-107254523D01*
X141211904Y-107194047D01*
X141151428Y-107133571D01*
X141090952Y-107012619D01*
X141090952Y-106649761D01*
X141151428Y-106528809D01*
X141211904Y-106468333D01*
X141332857Y-106407857D01*
X141574761Y-106407857D01*
X141695714Y-106468333D01*
X142240000Y-107254523D02*
X142240000Y-105984523D01*
X142360952Y-106770714D02*
X142723809Y-107254523D01*
X142723809Y-106407857D02*
X142240000Y-106891666D01*
X143449523Y-107254523D02*
X143328571Y-107194047D01*
X143268095Y-107073095D01*
X143268095Y-105984523D01*
X143933333Y-107254523D02*
X143933333Y-106407857D01*
X143933333Y-105984523D02*
X143872857Y-106045000D01*
X143933333Y-106105476D01*
X143993809Y-106045000D01*
X143933333Y-105984523D01*
X143933333Y-106105476D01*
X145082380Y-106407857D02*
X145082380Y-107435952D01*
X145021904Y-107556904D01*
X144961428Y-107617380D01*
X144840476Y-107677857D01*
X144659047Y-107677857D01*
X144538095Y-107617380D01*
X145082380Y-107194047D02*
X144961428Y-107254523D01*
X144719523Y-107254523D01*
X144598571Y-107194047D01*
X144538095Y-107133571D01*
X144477619Y-107012619D01*
X144477619Y-106649761D01*
X144538095Y-106528809D01*
X144598571Y-106468333D01*
X144719523Y-106407857D01*
X144961428Y-106407857D01*
X145082380Y-106468333D01*
X145687142Y-107254523D02*
X145687142Y-105984523D01*
X146231428Y-107254523D02*
X146231428Y-106589285D01*
X146170952Y-106468333D01*
X146050000Y-106407857D01*
X145868571Y-106407857D01*
X145747619Y-106468333D01*
X145687142Y-106528809D01*
X146654761Y-106407857D02*
X147138571Y-106407857D01*
X146836190Y-105984523D02*
X146836190Y-107073095D01*
X146896666Y-107194047D01*
X147017619Y-107254523D01*
X147138571Y-107254523D01*
X149194761Y-107254523D02*
X148469047Y-107254523D01*
X148831904Y-107254523D02*
X148831904Y-105984523D01*
X148710952Y-106165952D01*
X148590000Y-106286904D01*
X148469047Y-106347380D01*
X152762857Y-104714523D02*
X152762857Y-103444523D01*
X154093333Y-104714523D02*
X153670000Y-104109761D01*
X153367619Y-104714523D02*
X153367619Y-103444523D01*
X153851428Y-103444523D01*
X153972380Y-103505000D01*
X154032857Y-103565476D01*
X154093333Y-103686428D01*
X154093333Y-103867857D01*
X154032857Y-103988809D01*
X153972380Y-104049285D01*
X153851428Y-104109761D01*
X153367619Y-104109761D01*
X156028571Y-104049285D02*
X156210000Y-104109761D01*
X156270476Y-104170238D01*
X156330952Y-104291190D01*
X156330952Y-104472619D01*
X156270476Y-104593571D01*
X156210000Y-104654047D01*
X156089047Y-104714523D01*
X155605238Y-104714523D01*
X155605238Y-103444523D01*
X156028571Y-103444523D01*
X156149523Y-103505000D01*
X156210000Y-103565476D01*
X156270476Y-103686428D01*
X156270476Y-103807380D01*
X156210000Y-103928333D01*
X156149523Y-103988809D01*
X156028571Y-104049285D01*
X155605238Y-104049285D01*
X157419523Y-104714523D02*
X157419523Y-104049285D01*
X157359047Y-103928333D01*
X157238095Y-103867857D01*
X156996190Y-103867857D01*
X156875238Y-103928333D01*
X157419523Y-104654047D02*
X157298571Y-104714523D01*
X156996190Y-104714523D01*
X156875238Y-104654047D01*
X156814761Y-104533095D01*
X156814761Y-104412142D01*
X156875238Y-104291190D01*
X156996190Y-104230714D01*
X157298571Y-104230714D01*
X157419523Y-104170238D01*
X158568571Y-104654047D02*
X158447619Y-104714523D01*
X158205714Y-104714523D01*
X158084761Y-104654047D01*
X158024285Y-104593571D01*
X157963809Y-104472619D01*
X157963809Y-104109761D01*
X158024285Y-103988809D01*
X158084761Y-103928333D01*
X158205714Y-103867857D01*
X158447619Y-103867857D01*
X158568571Y-103928333D01*
X159112857Y-104714523D02*
X159112857Y-103444523D01*
X159233809Y-104230714D02*
X159596666Y-104714523D01*
X159596666Y-103867857D02*
X159112857Y-104351666D01*
X160322380Y-104714523D02*
X160201428Y-104654047D01*
X160140952Y-104533095D01*
X160140952Y-103444523D01*
X160806190Y-104714523D02*
X160806190Y-103867857D01*
X160806190Y-103444523D02*
X160745714Y-103505000D01*
X160806190Y-103565476D01*
X160866666Y-103505000D01*
X160806190Y-103444523D01*
X160806190Y-103565476D01*
X161955238Y-103867857D02*
X161955238Y-104895952D01*
X161894761Y-105016904D01*
X161834285Y-105077380D01*
X161713333Y-105137857D01*
X161531904Y-105137857D01*
X161410952Y-105077380D01*
X161955238Y-104654047D02*
X161834285Y-104714523D01*
X161592380Y-104714523D01*
X161471428Y-104654047D01*
X161410952Y-104593571D01*
X161350476Y-104472619D01*
X161350476Y-104109761D01*
X161410952Y-103988809D01*
X161471428Y-103928333D01*
X161592380Y-103867857D01*
X161834285Y-103867857D01*
X161955238Y-103928333D01*
X162560000Y-104714523D02*
X162560000Y-103444523D01*
X163104285Y-104714523D02*
X163104285Y-104049285D01*
X163043809Y-103928333D01*
X162922857Y-103867857D01*
X162741428Y-103867857D01*
X162620476Y-103928333D01*
X162560000Y-103988809D01*
X163527619Y-103867857D02*
X164011428Y-103867857D01*
X163709047Y-103444523D02*
X163709047Y-104533095D01*
X163769523Y-104654047D01*
X163890476Y-104714523D01*
X164011428Y-104714523D01*
X165341904Y-103565476D02*
X165402380Y-103505000D01*
X165523333Y-103444523D01*
X165825714Y-103444523D01*
X165946666Y-103505000D01*
X166007142Y-103565476D01*
X166067619Y-103686428D01*
X166067619Y-103807380D01*
X166007142Y-103988809D01*
X165281428Y-104714523D01*
X166067619Y-104714523D01*
X133712857Y-104714523D02*
X133712857Y-103444523D01*
X135043333Y-104714523D02*
X134620000Y-104109761D01*
X134317619Y-104714523D02*
X134317619Y-103444523D01*
X134801428Y-103444523D01*
X134922380Y-103505000D01*
X134982857Y-103565476D01*
X135043333Y-103686428D01*
X135043333Y-103867857D01*
X134982857Y-103988809D01*
X134922380Y-104049285D01*
X134801428Y-104109761D01*
X134317619Y-104109761D01*
X136978571Y-104049285D02*
X137160000Y-104109761D01*
X137220476Y-104170238D01*
X137280952Y-104291190D01*
X137280952Y-104472619D01*
X137220476Y-104593571D01*
X137160000Y-104654047D01*
X137039047Y-104714523D01*
X136555238Y-104714523D01*
X136555238Y-103444523D01*
X136978571Y-103444523D01*
X137099523Y-103505000D01*
X137160000Y-103565476D01*
X137220476Y-103686428D01*
X137220476Y-103807380D01*
X137160000Y-103928333D01*
X137099523Y-103988809D01*
X136978571Y-104049285D01*
X136555238Y-104049285D01*
X138369523Y-104714523D02*
X138369523Y-104049285D01*
X138309047Y-103928333D01*
X138188095Y-103867857D01*
X137946190Y-103867857D01*
X137825238Y-103928333D01*
X138369523Y-104654047D02*
X138248571Y-104714523D01*
X137946190Y-104714523D01*
X137825238Y-104654047D01*
X137764761Y-104533095D01*
X137764761Y-104412142D01*
X137825238Y-104291190D01*
X137946190Y-104230714D01*
X138248571Y-104230714D01*
X138369523Y-104170238D01*
X139518571Y-104654047D02*
X139397619Y-104714523D01*
X139155714Y-104714523D01*
X139034761Y-104654047D01*
X138974285Y-104593571D01*
X138913809Y-104472619D01*
X138913809Y-104109761D01*
X138974285Y-103988809D01*
X139034761Y-103928333D01*
X139155714Y-103867857D01*
X139397619Y-103867857D01*
X139518571Y-103928333D01*
X140062857Y-104714523D02*
X140062857Y-103444523D01*
X140183809Y-104230714D02*
X140546666Y-104714523D01*
X140546666Y-103867857D02*
X140062857Y-104351666D01*
X141272380Y-104714523D02*
X141151428Y-104654047D01*
X141090952Y-104533095D01*
X141090952Y-103444523D01*
X141756190Y-104714523D02*
X141756190Y-103867857D01*
X141756190Y-103444523D02*
X141695714Y-103505000D01*
X141756190Y-103565476D01*
X141816666Y-103505000D01*
X141756190Y-103444523D01*
X141756190Y-103565476D01*
X142905238Y-103867857D02*
X142905238Y-104895952D01*
X142844761Y-105016904D01*
X142784285Y-105077380D01*
X142663333Y-105137857D01*
X142481904Y-105137857D01*
X142360952Y-105077380D01*
X142905238Y-104654047D02*
X142784285Y-104714523D01*
X142542380Y-104714523D01*
X142421428Y-104654047D01*
X142360952Y-104593571D01*
X142300476Y-104472619D01*
X142300476Y-104109761D01*
X142360952Y-103988809D01*
X142421428Y-103928333D01*
X142542380Y-103867857D01*
X142784285Y-103867857D01*
X142905238Y-103928333D01*
X143510000Y-104714523D02*
X143510000Y-103444523D01*
X144054285Y-104714523D02*
X144054285Y-104049285D01*
X143993809Y-103928333D01*
X143872857Y-103867857D01*
X143691428Y-103867857D01*
X143570476Y-103928333D01*
X143510000Y-103988809D01*
X144477619Y-103867857D02*
X144961428Y-103867857D01*
X144659047Y-103444523D02*
X144659047Y-104533095D01*
X144719523Y-104654047D01*
X144840476Y-104714523D01*
X144961428Y-104714523D01*
X147017619Y-104714523D02*
X146291904Y-104714523D01*
X146654761Y-104714523D02*
X146654761Y-103444523D01*
X146533809Y-103625952D01*
X146412857Y-103746904D01*
X146291904Y-103807380D01*
D10*
X187960000Y-80010000D02*
X187960000Y-130810000D01*
X149860000Y-80010000D02*
X149860000Y-130810000D01*
X111760000Y-105410000D02*
X172720000Y-105410000D01*
D11*
X98727380Y-86458273D02*
X98122619Y-86458273D01*
X98122619Y-85188273D01*
X99332142Y-86458273D02*
X99211190Y-86397797D01*
X99150714Y-86337321D01*
X99090238Y-86216369D01*
X99090238Y-85853511D01*
X99150714Y-85732559D01*
X99211190Y-85672083D01*
X99332142Y-85611607D01*
X99513571Y-85611607D01*
X99634523Y-85672083D01*
X99695000Y-85732559D01*
X99755476Y-85853511D01*
X99755476Y-86216369D01*
X99695000Y-86337321D01*
X99634523Y-86397797D01*
X99513571Y-86458273D01*
X99332142Y-86458273D01*
X100178809Y-85611607D02*
X100420714Y-86458273D01*
X100662619Y-85853511D01*
X100904523Y-86458273D01*
X101146428Y-85611607D01*
X102597857Y-86458273D02*
X102597857Y-85188273D01*
X103081666Y-85188273D01*
X103202619Y-85248750D01*
X103263095Y-85309226D01*
X103323571Y-85430178D01*
X103323571Y-85611607D01*
X103263095Y-85732559D01*
X103202619Y-85793035D01*
X103081666Y-85853511D01*
X102597857Y-85853511D01*
X104049285Y-86458273D02*
X103928333Y-86397797D01*
X103867857Y-86337321D01*
X103807380Y-86216369D01*
X103807380Y-85853511D01*
X103867857Y-85732559D01*
X103928333Y-85672083D01*
X104049285Y-85611607D01*
X104230714Y-85611607D01*
X104351666Y-85672083D01*
X104412142Y-85732559D01*
X104472619Y-85853511D01*
X104472619Y-86216369D01*
X104412142Y-86337321D01*
X104351666Y-86397797D01*
X104230714Y-86458273D01*
X104049285Y-86458273D01*
X104895952Y-85611607D02*
X105137857Y-86458273D01*
X105379761Y-85853511D01*
X105621666Y-86458273D01*
X105863571Y-85611607D01*
X106831190Y-86397797D02*
X106710238Y-86458273D01*
X106468333Y-86458273D01*
X106347380Y-86397797D01*
X106286904Y-86276845D01*
X106286904Y-85793035D01*
X106347380Y-85672083D01*
X106468333Y-85611607D01*
X106710238Y-85611607D01*
X106831190Y-85672083D01*
X106891666Y-85793035D01*
X106891666Y-85913988D01*
X106286904Y-86034940D01*
X107435952Y-86458273D02*
X107435952Y-85611607D01*
X107435952Y-85853511D02*
X107496428Y-85732559D01*
X107556904Y-85672083D01*
X107677857Y-85611607D01*
X107798809Y-85611607D01*
X99574047Y-88559821D02*
X99513571Y-88620297D01*
X99332142Y-88680773D01*
X99211190Y-88680773D01*
X99029761Y-88620297D01*
X98908809Y-88499345D01*
X98848333Y-88378392D01*
X98787857Y-88136488D01*
X98787857Y-87955059D01*
X98848333Y-87713154D01*
X98908809Y-87592202D01*
X99029761Y-87471250D01*
X99211190Y-87410773D01*
X99332142Y-87410773D01*
X99513571Y-87471250D01*
X99574047Y-87531726D01*
X100118333Y-88680773D02*
X100118333Y-87410773D01*
X100662619Y-88680773D02*
X100662619Y-88015535D01*
X100602142Y-87894583D01*
X100481190Y-87834107D01*
X100299761Y-87834107D01*
X100178809Y-87894583D01*
X100118333Y-87955059D01*
X101811666Y-88680773D02*
X101811666Y-88015535D01*
X101751190Y-87894583D01*
X101630238Y-87834107D01*
X101388333Y-87834107D01*
X101267380Y-87894583D01*
X101811666Y-88620297D02*
X101690714Y-88680773D01*
X101388333Y-88680773D01*
X101267380Y-88620297D01*
X101206904Y-88499345D01*
X101206904Y-88378392D01*
X101267380Y-88257440D01*
X101388333Y-88196964D01*
X101690714Y-88196964D01*
X101811666Y-88136488D01*
X102416428Y-87834107D02*
X102416428Y-88680773D01*
X102416428Y-87955059D02*
X102476904Y-87894583D01*
X102597857Y-87834107D01*
X102779285Y-87834107D01*
X102900238Y-87894583D01*
X102960714Y-88015535D01*
X102960714Y-88680773D01*
X103565476Y-87834107D02*
X103565476Y-88680773D01*
X103565476Y-87955059D02*
X103625952Y-87894583D01*
X103746904Y-87834107D01*
X103928333Y-87834107D01*
X104049285Y-87894583D01*
X104109761Y-88015535D01*
X104109761Y-88680773D01*
X105198333Y-88620297D02*
X105077380Y-88680773D01*
X104835476Y-88680773D01*
X104714523Y-88620297D01*
X104654047Y-88499345D01*
X104654047Y-88015535D01*
X104714523Y-87894583D01*
X104835476Y-87834107D01*
X105077380Y-87834107D01*
X105198333Y-87894583D01*
X105258809Y-88015535D01*
X105258809Y-88136488D01*
X104654047Y-88257440D01*
X105984523Y-88680773D02*
X105863571Y-88620297D01*
X105803095Y-88499345D01*
X105803095Y-87410773D01*
X106407857Y-88620297D02*
X106528809Y-88680773D01*
X106770714Y-88680773D01*
X106891666Y-88620297D01*
X106952142Y-88499345D01*
X106952142Y-88438869D01*
X106891666Y-88317916D01*
X106770714Y-88257440D01*
X106589285Y-88257440D01*
X106468333Y-88196964D01*
X106407857Y-88076011D01*
X106407857Y-88015535D01*
X106468333Y-87894583D01*
X106589285Y-87834107D01*
X106770714Y-87834107D01*
X106891666Y-87894583D01*
X77439761Y-86458273D02*
X77439761Y-85188273D01*
X77439761Y-85793035D02*
X78165476Y-85793035D01*
X78165476Y-86458273D02*
X78165476Y-85188273D01*
X78770238Y-86458273D02*
X78770238Y-85611607D01*
X78770238Y-85188273D02*
X78709761Y-85248750D01*
X78770238Y-85309226D01*
X78830714Y-85248750D01*
X78770238Y-85188273D01*
X78770238Y-85309226D01*
X79919285Y-85611607D02*
X79919285Y-86639702D01*
X79858809Y-86760654D01*
X79798333Y-86821130D01*
X79677380Y-86881607D01*
X79495952Y-86881607D01*
X79375000Y-86821130D01*
X79919285Y-86397797D02*
X79798333Y-86458273D01*
X79556428Y-86458273D01*
X79435476Y-86397797D01*
X79375000Y-86337321D01*
X79314523Y-86216369D01*
X79314523Y-85853511D01*
X79375000Y-85732559D01*
X79435476Y-85672083D01*
X79556428Y-85611607D01*
X79798333Y-85611607D01*
X79919285Y-85672083D01*
X80524047Y-86458273D02*
X80524047Y-85188273D01*
X81068333Y-86458273D02*
X81068333Y-85793035D01*
X81007857Y-85672083D01*
X80886904Y-85611607D01*
X80705476Y-85611607D01*
X80584523Y-85672083D01*
X80524047Y-85732559D01*
X82640714Y-86458273D02*
X82640714Y-85188273D01*
X83124523Y-85188273D01*
X83245476Y-85248750D01*
X83305952Y-85309226D01*
X83366428Y-85430178D01*
X83366428Y-85611607D01*
X83305952Y-85732559D01*
X83245476Y-85793035D01*
X83124523Y-85853511D01*
X82640714Y-85853511D01*
X84092142Y-86458273D02*
X83971190Y-86397797D01*
X83910714Y-86337321D01*
X83850238Y-86216369D01*
X83850238Y-85853511D01*
X83910714Y-85732559D01*
X83971190Y-85672083D01*
X84092142Y-85611607D01*
X84273571Y-85611607D01*
X84394523Y-85672083D01*
X84455000Y-85732559D01*
X84515476Y-85853511D01*
X84515476Y-86216369D01*
X84455000Y-86337321D01*
X84394523Y-86397797D01*
X84273571Y-86458273D01*
X84092142Y-86458273D01*
X84938809Y-85611607D02*
X85180714Y-86458273D01*
X85422619Y-85853511D01*
X85664523Y-86458273D01*
X85906428Y-85611607D01*
X86874047Y-86397797D02*
X86753095Y-86458273D01*
X86511190Y-86458273D01*
X86390238Y-86397797D01*
X86329761Y-86276845D01*
X86329761Y-85793035D01*
X86390238Y-85672083D01*
X86511190Y-85611607D01*
X86753095Y-85611607D01*
X86874047Y-85672083D01*
X86934523Y-85793035D01*
X86934523Y-85913988D01*
X86329761Y-86034940D01*
X87478809Y-86458273D02*
X87478809Y-85611607D01*
X87478809Y-85853511D02*
X87539285Y-85732559D01*
X87599761Y-85672083D01*
X87720714Y-85611607D01*
X87841666Y-85611607D01*
X79254047Y-88559821D02*
X79193571Y-88620297D01*
X79012142Y-88680773D01*
X78891190Y-88680773D01*
X78709761Y-88620297D01*
X78588809Y-88499345D01*
X78528333Y-88378392D01*
X78467857Y-88136488D01*
X78467857Y-87955059D01*
X78528333Y-87713154D01*
X78588809Y-87592202D01*
X78709761Y-87471250D01*
X78891190Y-87410773D01*
X79012142Y-87410773D01*
X79193571Y-87471250D01*
X79254047Y-87531726D01*
X79798333Y-88680773D02*
X79798333Y-87410773D01*
X80342619Y-88680773D02*
X80342619Y-88015535D01*
X80282142Y-87894583D01*
X80161190Y-87834107D01*
X79979761Y-87834107D01*
X79858809Y-87894583D01*
X79798333Y-87955059D01*
X81491666Y-88680773D02*
X81491666Y-88015535D01*
X81431190Y-87894583D01*
X81310238Y-87834107D01*
X81068333Y-87834107D01*
X80947380Y-87894583D01*
X81491666Y-88620297D02*
X81370714Y-88680773D01*
X81068333Y-88680773D01*
X80947380Y-88620297D01*
X80886904Y-88499345D01*
X80886904Y-88378392D01*
X80947380Y-88257440D01*
X81068333Y-88196964D01*
X81370714Y-88196964D01*
X81491666Y-88136488D01*
X82096428Y-87834107D02*
X82096428Y-88680773D01*
X82096428Y-87955059D02*
X82156904Y-87894583D01*
X82277857Y-87834107D01*
X82459285Y-87834107D01*
X82580238Y-87894583D01*
X82640714Y-88015535D01*
X82640714Y-88680773D01*
X83245476Y-87834107D02*
X83245476Y-88680773D01*
X83245476Y-87955059D02*
X83305952Y-87894583D01*
X83426904Y-87834107D01*
X83608333Y-87834107D01*
X83729285Y-87894583D01*
X83789761Y-88015535D01*
X83789761Y-88680773D01*
X84878333Y-88620297D02*
X84757380Y-88680773D01*
X84515476Y-88680773D01*
X84394523Y-88620297D01*
X84334047Y-88499345D01*
X84334047Y-88015535D01*
X84394523Y-87894583D01*
X84515476Y-87834107D01*
X84757380Y-87834107D01*
X84878333Y-87894583D01*
X84938809Y-88015535D01*
X84938809Y-88136488D01*
X84334047Y-88257440D01*
X85664523Y-88680773D02*
X85543571Y-88620297D01*
X85483095Y-88499345D01*
X85483095Y-87410773D01*
X86087857Y-88620297D02*
X86208809Y-88680773D01*
X86450714Y-88680773D01*
X86571666Y-88620297D01*
X86632142Y-88499345D01*
X86632142Y-88438869D01*
X86571666Y-88317916D01*
X86450714Y-88257440D01*
X86269285Y-88257440D01*
X86148333Y-88196964D01*
X86087857Y-88076011D01*
X86087857Y-88015535D01*
X86148333Y-87894583D01*
X86269285Y-87834107D01*
X86450714Y-87834107D01*
X86571666Y-87894583D01*
X105984523Y-130774470D02*
X105984523Y-129927803D01*
X107254523Y-130472089D01*
X103444523Y-130109232D02*
X103444523Y-130351136D01*
X103505000Y-130472089D01*
X103565476Y-130532565D01*
X103746904Y-130653517D01*
X103988809Y-130713994D01*
X104472619Y-130713994D01*
X104593571Y-130653517D01*
X104654047Y-130593041D01*
X104714523Y-130472089D01*
X104714523Y-130230184D01*
X104654047Y-130109232D01*
X104593571Y-130048755D01*
X104472619Y-129988279D01*
X104170238Y-129988279D01*
X104049285Y-130048755D01*
X103988809Y-130109232D01*
X103928333Y-130230184D01*
X103928333Y-130472089D01*
X103988809Y-130593041D01*
X104049285Y-130653517D01*
X104170238Y-130713994D01*
X100904523Y-130048755D02*
X100904523Y-130653517D01*
X101509285Y-130713994D01*
X101448809Y-130653517D01*
X101388333Y-130532565D01*
X101388333Y-130230184D01*
X101448809Y-130109232D01*
X101509285Y-130048755D01*
X101630238Y-129988279D01*
X101932619Y-129988279D01*
X102053571Y-130048755D01*
X102114047Y-130109232D01*
X102174523Y-130230184D01*
X102174523Y-130532565D01*
X102114047Y-130653517D01*
X102053571Y-130713994D01*
X98787857Y-130109232D02*
X99634523Y-130109232D01*
X98304047Y-130411613D02*
X99211190Y-130713994D01*
X99211190Y-129927803D01*
X85664523Y-130774470D02*
X85664523Y-129988279D01*
X86148333Y-130411613D01*
X86148333Y-130230184D01*
X86208809Y-130109232D01*
X86269285Y-130048755D01*
X86390238Y-129988279D01*
X86692619Y-129988279D01*
X86813571Y-130048755D01*
X86874047Y-130109232D01*
X86934523Y-130230184D01*
X86934523Y-130593041D01*
X86874047Y-130713994D01*
X86813571Y-130774470D01*
X83245476Y-130713994D02*
X83185000Y-130653517D01*
X83124523Y-130532565D01*
X83124523Y-130230184D01*
X83185000Y-130109232D01*
X83245476Y-130048755D01*
X83366428Y-129988279D01*
X83487380Y-129988279D01*
X83668809Y-130048755D01*
X84394523Y-130774470D01*
X84394523Y-129988279D01*
X81854523Y-129988279D02*
X81854523Y-130713994D01*
X81854523Y-130351136D02*
X80584523Y-130351136D01*
X80765952Y-130472089D01*
X80886904Y-130593041D01*
X80947380Y-130713994D01*
X78044523Y-130411613D02*
X78044523Y-130290660D01*
X78105000Y-130169708D01*
X78165476Y-130109232D01*
X78286428Y-130048755D01*
X78528333Y-129988279D01*
X78830714Y-129988279D01*
X79072619Y-130048755D01*
X79193571Y-130109232D01*
X79254047Y-130169708D01*
X79314523Y-130290660D01*
X79314523Y-130411613D01*
X79254047Y-130532565D01*
X79193571Y-130593041D01*
X79072619Y-130653517D01*
X78830714Y-130713994D01*
X78528333Y-130713994D01*
X78286428Y-130653517D01*
X78165476Y-130593041D01*
X78105000Y-130532565D01*
X78044523Y-130411613D01*
X112304285Y-105984523D02*
X112727619Y-107254523D01*
X113150952Y-105984523D01*
X113574285Y-107254523D02*
X113574285Y-106407857D01*
X113574285Y-105984523D02*
X113513809Y-106045000D01*
X113574285Y-106105476D01*
X113634761Y-106045000D01*
X113574285Y-105984523D01*
X113574285Y-106105476D01*
X114118571Y-107194047D02*
X114239523Y-107254523D01*
X114481428Y-107254523D01*
X114602380Y-107194047D01*
X114662857Y-107073095D01*
X114662857Y-107012619D01*
X114602380Y-106891666D01*
X114481428Y-106831190D01*
X114300000Y-106831190D01*
X114179047Y-106770714D01*
X114118571Y-106649761D01*
X114118571Y-106589285D01*
X114179047Y-106468333D01*
X114300000Y-106407857D01*
X114481428Y-106407857D01*
X114602380Y-106468333D01*
X115207142Y-107254523D02*
X115207142Y-106407857D01*
X115207142Y-105984523D02*
X115146666Y-106045000D01*
X115207142Y-106105476D01*
X115267619Y-106045000D01*
X115207142Y-105984523D01*
X115207142Y-106105476D01*
X115811904Y-107254523D02*
X115811904Y-105984523D01*
X115811904Y-106468333D02*
X115932857Y-106407857D01*
X116174761Y-106407857D01*
X116295714Y-106468333D01*
X116356190Y-106528809D01*
X116416666Y-106649761D01*
X116416666Y-107012619D01*
X116356190Y-107133571D01*
X116295714Y-107194047D01*
X116174761Y-107254523D01*
X115932857Y-107254523D01*
X115811904Y-107194047D01*
X117142380Y-107254523D02*
X117021428Y-107194047D01*
X116960952Y-107073095D01*
X116960952Y-105984523D01*
X118110000Y-107194047D02*
X117989047Y-107254523D01*
X117747142Y-107254523D01*
X117626190Y-107194047D01*
X117565714Y-107073095D01*
X117565714Y-106589285D01*
X117626190Y-106468333D01*
X117747142Y-106407857D01*
X117989047Y-106407857D01*
X118110000Y-106468333D01*
X118170476Y-106589285D01*
X118170476Y-106710238D01*
X117565714Y-106831190D01*
X120105714Y-106589285D02*
X120287142Y-106649761D01*
X120347619Y-106710238D01*
X120408095Y-106831190D01*
X120408095Y-107012619D01*
X120347619Y-107133571D01*
X120287142Y-107194047D01*
X120166190Y-107254523D01*
X119682380Y-107254523D01*
X119682380Y-105984523D01*
X120105714Y-105984523D01*
X120226666Y-106045000D01*
X120287142Y-106105476D01*
X120347619Y-106226428D01*
X120347619Y-106347380D01*
X120287142Y-106468333D01*
X120226666Y-106528809D01*
X120105714Y-106589285D01*
X119682380Y-106589285D01*
X121496666Y-107254523D02*
X121496666Y-106589285D01*
X121436190Y-106468333D01*
X121315238Y-106407857D01*
X121073333Y-106407857D01*
X120952380Y-106468333D01*
X121496666Y-107194047D02*
X121375714Y-107254523D01*
X121073333Y-107254523D01*
X120952380Y-107194047D01*
X120891904Y-107073095D01*
X120891904Y-106952142D01*
X120952380Y-106831190D01*
X121073333Y-106770714D01*
X121375714Y-106770714D01*
X121496666Y-106710238D01*
X122645714Y-107194047D02*
X122524761Y-107254523D01*
X122282857Y-107254523D01*
X122161904Y-107194047D01*
X122101428Y-107133571D01*
X122040952Y-107012619D01*
X122040952Y-106649761D01*
X122101428Y-106528809D01*
X122161904Y-106468333D01*
X122282857Y-106407857D01*
X122524761Y-106407857D01*
X122645714Y-106468333D01*
X123190000Y-107254523D02*
X123190000Y-105984523D01*
X123310952Y-106770714D02*
X123673809Y-107254523D01*
X123673809Y-106407857D02*
X123190000Y-106891666D01*
X124399523Y-107254523D02*
X124278571Y-107194047D01*
X124218095Y-107073095D01*
X124218095Y-105984523D01*
X124883333Y-107254523D02*
X124883333Y-106407857D01*
X124883333Y-105984523D02*
X124822857Y-106045000D01*
X124883333Y-106105476D01*
X124943809Y-106045000D01*
X124883333Y-105984523D01*
X124883333Y-106105476D01*
X126032380Y-106407857D02*
X126032380Y-107435952D01*
X125971904Y-107556904D01*
X125911428Y-107617380D01*
X125790476Y-107677857D01*
X125609047Y-107677857D01*
X125488095Y-107617380D01*
X126032380Y-107194047D02*
X125911428Y-107254523D01*
X125669523Y-107254523D01*
X125548571Y-107194047D01*
X125488095Y-107133571D01*
X125427619Y-107012619D01*
X125427619Y-106649761D01*
X125488095Y-106528809D01*
X125548571Y-106468333D01*
X125669523Y-106407857D01*
X125911428Y-106407857D01*
X126032380Y-106468333D01*
X126637142Y-107254523D02*
X126637142Y-105984523D01*
X127181428Y-107254523D02*
X127181428Y-106589285D01*
X127120952Y-106468333D01*
X127000000Y-106407857D01*
X126818571Y-106407857D01*
X126697619Y-106468333D01*
X126637142Y-106528809D01*
X127604761Y-106407857D02*
X128088571Y-106407857D01*
X127786190Y-105984523D02*
X127786190Y-107073095D01*
X127846666Y-107194047D01*
X127967619Y-107254523D01*
X128088571Y-107254523D01*
X129721428Y-105984523D02*
X129842380Y-105984523D01*
X129963333Y-106045000D01*
X130023809Y-106105476D01*
X130084285Y-106226428D01*
X130144761Y-106468333D01*
X130144761Y-106770714D01*
X130084285Y-107012619D01*
X130023809Y-107133571D01*
X129963333Y-107194047D01*
X129842380Y-107254523D01*
X129721428Y-107254523D01*
X129600476Y-107194047D01*
X129540000Y-107133571D01*
X129479523Y-107012619D01*
X129419047Y-106770714D01*
X129419047Y-106468333D01*
X129479523Y-106226428D01*
X129540000Y-106105476D01*
X129600476Y-106045000D01*
X129721428Y-105984523D01*
X114662857Y-104714523D02*
X114662857Y-103444523D01*
X115993333Y-104714523D02*
X115570000Y-104109761D01*
X115267619Y-104714523D02*
X115267619Y-103444523D01*
X115751428Y-103444523D01*
X115872380Y-103505000D01*
X115932857Y-103565476D01*
X115993333Y-103686428D01*
X115993333Y-103867857D01*
X115932857Y-103988809D01*
X115872380Y-104049285D01*
X115751428Y-104109761D01*
X115267619Y-104109761D01*
X117928571Y-104049285D02*
X118110000Y-104109761D01*
X118170476Y-104170238D01*
X118230952Y-104291190D01*
X118230952Y-104472619D01*
X118170476Y-104593571D01*
X118110000Y-104654047D01*
X117989047Y-104714523D01*
X117505238Y-104714523D01*
X117505238Y-103444523D01*
X117928571Y-103444523D01*
X118049523Y-103505000D01*
X118110000Y-103565476D01*
X118170476Y-103686428D01*
X118170476Y-103807380D01*
X118110000Y-103928333D01*
X118049523Y-103988809D01*
X117928571Y-104049285D01*
X117505238Y-104049285D01*
X119319523Y-104714523D02*
X119319523Y-104049285D01*
X119259047Y-103928333D01*
X119138095Y-103867857D01*
X118896190Y-103867857D01*
X118775238Y-103928333D01*
X119319523Y-104654047D02*
X119198571Y-104714523D01*
X118896190Y-104714523D01*
X118775238Y-104654047D01*
X118714761Y-104533095D01*
X118714761Y-104412142D01*
X118775238Y-104291190D01*
X118896190Y-104230714D01*
X119198571Y-104230714D01*
X119319523Y-104170238D01*
X120468571Y-104654047D02*
X120347619Y-104714523D01*
X120105714Y-104714523D01*
X119984761Y-104654047D01*
X119924285Y-104593571D01*
X119863809Y-104472619D01*
X119863809Y-104109761D01*
X119924285Y-103988809D01*
X119984761Y-103928333D01*
X120105714Y-103867857D01*
X120347619Y-103867857D01*
X120468571Y-103928333D01*
X121012857Y-104714523D02*
X121012857Y-103444523D01*
X121133809Y-104230714D02*
X121496666Y-104714523D01*
X121496666Y-103867857D02*
X121012857Y-104351666D01*
X122222380Y-104714523D02*
X122101428Y-104654047D01*
X122040952Y-104533095D01*
X122040952Y-103444523D01*
X122706190Y-104714523D02*
X122706190Y-103867857D01*
X122706190Y-103444523D02*
X122645714Y-103505000D01*
X122706190Y-103565476D01*
X122766666Y-103505000D01*
X122706190Y-103444523D01*
X122706190Y-103565476D01*
X123855238Y-103867857D02*
X123855238Y-104895952D01*
X123794761Y-105016904D01*
X123734285Y-105077380D01*
X123613333Y-105137857D01*
X123431904Y-105137857D01*
X123310952Y-105077380D01*
X123855238Y-104654047D02*
X123734285Y-104714523D01*
X123492380Y-104714523D01*
X123371428Y-104654047D01*
X123310952Y-104593571D01*
X123250476Y-104472619D01*
X123250476Y-104109761D01*
X123310952Y-103988809D01*
X123371428Y-103928333D01*
X123492380Y-103867857D01*
X123734285Y-103867857D01*
X123855238Y-103928333D01*
X124460000Y-104714523D02*
X124460000Y-103444523D01*
X125004285Y-104714523D02*
X125004285Y-104049285D01*
X124943809Y-103928333D01*
X124822857Y-103867857D01*
X124641428Y-103867857D01*
X124520476Y-103928333D01*
X124460000Y-103988809D01*
X125427619Y-103867857D02*
X125911428Y-103867857D01*
X125609047Y-103444523D02*
X125609047Y-104533095D01*
X125669523Y-104654047D01*
X125790476Y-104714523D01*
X125911428Y-104714523D01*
X127544285Y-103444523D02*
X127665238Y-103444523D01*
X127786190Y-103505000D01*
X127846666Y-103565476D01*
X127907142Y-103686428D01*
X127967619Y-103928333D01*
X127967619Y-104230714D01*
X127907142Y-104472619D01*
X127846666Y-104593571D01*
X127786190Y-104654047D01*
X127665238Y-104714523D01*
X127544285Y-104714523D01*
X127423333Y-104654047D01*
X127362857Y-104593571D01*
X127302380Y-104472619D01*
X127241904Y-104230714D01*
X127241904Y-103928333D01*
X127302380Y-103686428D01*
X127362857Y-103565476D01*
X127423333Y-103505000D01*
X127544285Y-103444523D01*
X188655476Y-98031904D02*
X188595000Y-97971428D01*
X188534523Y-97850476D01*
X188534523Y-97548095D01*
X188595000Y-97427142D01*
X188655476Y-97366666D01*
X188776428Y-97306190D01*
X188897380Y-97306190D01*
X189078809Y-97366666D01*
X189804523Y-98092380D01*
X189804523Y-97306190D01*
X188957857Y-96217619D02*
X189804523Y-96217619D01*
X188474047Y-96520000D02*
X189381190Y-96822380D01*
X189381190Y-96036190D01*
X188534523Y-95733809D02*
X189804523Y-95310476D01*
X188534523Y-94887142D01*
D10*
X130810000Y-80010000D02*
X130810000Y-130810000D01*
X168910000Y-80010000D02*
X168910000Y-130810000D01*
X111760000Y-80010000D02*
X187960000Y-80010000D01*
X111760000Y-130810000D02*
X111760000Y-80010000D01*
X187960000Y-130810000D02*
X111760000Y-130810000D01*
D12*
X191135000Y-71755000D02*
X69850000Y-71755000D01*
X191135000Y-139065000D02*
X191135000Y-71755000D01*
X69850000Y-139065000D02*
X191135000Y-139065000D01*
X69850000Y-71755000D02*
X69850000Y-139065000D01*
D13*
X76562857Y-133809619D02*
X76562857Y-132793619D01*
X76998285Y-133809619D02*
X76998285Y-133277428D01*
X76949904Y-133180666D01*
X76853142Y-133132285D01*
X76708000Y-133132285D01*
X76611238Y-133180666D01*
X76562857Y-133229047D01*
X77336952Y-133132285D02*
X77724000Y-133132285D01*
X77482095Y-132793619D02*
X77482095Y-133664476D01*
X77530476Y-133761238D01*
X77627238Y-133809619D01*
X77724000Y-133809619D01*
X77917523Y-133132285D02*
X78304571Y-133132285D01*
X78062666Y-132793619D02*
X78062666Y-133664476D01*
X78111047Y-133761238D01*
X78207809Y-133809619D01*
X78304571Y-133809619D01*
X78643238Y-133132285D02*
X78643238Y-134148285D01*
X78643238Y-133180666D02*
X78740000Y-133132285D01*
X78933523Y-133132285D01*
X79030285Y-133180666D01*
X79078666Y-133229047D01*
X79127047Y-133325809D01*
X79127047Y-133616095D01*
X79078666Y-133712857D01*
X79030285Y-133761238D01*
X78933523Y-133809619D01*
X78740000Y-133809619D01*
X78643238Y-133761238D01*
X79514095Y-133761238D02*
X79610857Y-133809619D01*
X79804380Y-133809619D01*
X79901142Y-133761238D01*
X79949523Y-133664476D01*
X79949523Y-133616095D01*
X79901142Y-133519333D01*
X79804380Y-133470952D01*
X79659238Y-133470952D01*
X79562476Y-133422571D01*
X79514095Y-133325809D01*
X79514095Y-133277428D01*
X79562476Y-133180666D01*
X79659238Y-133132285D01*
X79804380Y-133132285D01*
X79901142Y-133180666D01*
X80384952Y-133712857D02*
X80433333Y-133761238D01*
X80384952Y-133809619D01*
X80336571Y-133761238D01*
X80384952Y-133712857D01*
X80384952Y-133809619D01*
X80384952Y-133180666D02*
X80433333Y-133229047D01*
X80384952Y-133277428D01*
X80336571Y-133229047D01*
X80384952Y-133180666D01*
X80384952Y-133277428D01*
X81594476Y-132745238D02*
X80723619Y-134051523D01*
X82658857Y-132745238D02*
X81788000Y-134051523D01*
X83432952Y-133132285D02*
X83432952Y-133954761D01*
X83384571Y-134051523D01*
X83336190Y-134099904D01*
X83239428Y-134148285D01*
X83094285Y-134148285D01*
X82997523Y-134099904D01*
X83432952Y-133761238D02*
X83336190Y-133809619D01*
X83142666Y-133809619D01*
X83045904Y-133761238D01*
X82997523Y-133712857D01*
X82949142Y-133616095D01*
X82949142Y-133325809D01*
X82997523Y-133229047D01*
X83045904Y-133180666D01*
X83142666Y-133132285D01*
X83336190Y-133132285D01*
X83432952Y-133180666D01*
X83916761Y-133809619D02*
X83916761Y-133132285D01*
X83916761Y-132793619D02*
X83868380Y-132842000D01*
X83916761Y-132890380D01*
X83965142Y-132842000D01*
X83916761Y-132793619D01*
X83916761Y-132890380D01*
X84255428Y-133132285D02*
X84642476Y-133132285D01*
X84400571Y-132793619D02*
X84400571Y-133664476D01*
X84448952Y-133761238D01*
X84545714Y-133809619D01*
X84642476Y-133809619D01*
X84981142Y-133809619D02*
X84981142Y-132793619D01*
X85416571Y-133809619D02*
X85416571Y-133277428D01*
X85368190Y-133180666D01*
X85271428Y-133132285D01*
X85126285Y-133132285D01*
X85029523Y-133180666D01*
X84981142Y-133229047D01*
X86335809Y-133132285D02*
X86335809Y-133809619D01*
X85900380Y-133132285D02*
X85900380Y-133664476D01*
X85948761Y-133761238D01*
X86045523Y-133809619D01*
X86190666Y-133809619D01*
X86287428Y-133761238D01*
X86335809Y-133712857D01*
X86819619Y-133809619D02*
X86819619Y-132793619D01*
X86819619Y-133180666D02*
X86916380Y-133132285D01*
X87109904Y-133132285D01*
X87206666Y-133180666D01*
X87255047Y-133229047D01*
X87303428Y-133325809D01*
X87303428Y-133616095D01*
X87255047Y-133712857D01*
X87206666Y-133761238D01*
X87109904Y-133809619D01*
X86916380Y-133809619D01*
X86819619Y-133761238D01*
X87738857Y-133712857D02*
X87787238Y-133761238D01*
X87738857Y-133809619D01*
X87690476Y-133761238D01*
X87738857Y-133712857D01*
X87738857Y-133809619D01*
X88658095Y-133761238D02*
X88561333Y-133809619D01*
X88367809Y-133809619D01*
X88271047Y-133761238D01*
X88222666Y-133712857D01*
X88174285Y-133616095D01*
X88174285Y-133325809D01*
X88222666Y-133229047D01*
X88271047Y-133180666D01*
X88367809Y-133132285D01*
X88561333Y-133132285D01*
X88658095Y-133180666D01*
X89238666Y-133809619D02*
X89141904Y-133761238D01*
X89093523Y-133712857D01*
X89045142Y-133616095D01*
X89045142Y-133325809D01*
X89093523Y-133229047D01*
X89141904Y-133180666D01*
X89238666Y-133132285D01*
X89383809Y-133132285D01*
X89480571Y-133180666D01*
X89528952Y-133229047D01*
X89577333Y-133325809D01*
X89577333Y-133616095D01*
X89528952Y-133712857D01*
X89480571Y-133761238D01*
X89383809Y-133809619D01*
X89238666Y-133809619D01*
X90012761Y-133809619D02*
X90012761Y-133132285D01*
X90012761Y-133229047D02*
X90061142Y-133180666D01*
X90157904Y-133132285D01*
X90303047Y-133132285D01*
X90399809Y-133180666D01*
X90448190Y-133277428D01*
X90448190Y-133809619D01*
X90448190Y-133277428D02*
X90496571Y-133180666D01*
X90593333Y-133132285D01*
X90738476Y-133132285D01*
X90835238Y-133180666D01*
X90883619Y-133277428D01*
X90883619Y-133809619D01*
X92093142Y-132745238D02*
X91222285Y-134051523D01*
X92431809Y-133132285D02*
X92431809Y-134003142D01*
X92383428Y-134099904D01*
X92286666Y-134148285D01*
X92238285Y-134148285D01*
X92431809Y-132793619D02*
X92383428Y-132842000D01*
X92431809Y-132890380D01*
X92480190Y-132842000D01*
X92431809Y-132793619D01*
X92431809Y-132890380D01*
X93351047Y-133809619D02*
X93351047Y-133277428D01*
X93302666Y-133180666D01*
X93205904Y-133132285D01*
X93012380Y-133132285D01*
X92915619Y-133180666D01*
X93351047Y-133761238D02*
X93254285Y-133809619D01*
X93012380Y-133809619D01*
X92915619Y-133761238D01*
X92867238Y-133664476D01*
X92867238Y-133567714D01*
X92915619Y-133470952D01*
X93012380Y-133422571D01*
X93254285Y-133422571D01*
X93351047Y-133374190D01*
X93834857Y-133132285D02*
X93834857Y-133809619D01*
X93834857Y-133229047D02*
X93883238Y-133180666D01*
X93980000Y-133132285D01*
X94125142Y-133132285D01*
X94221904Y-133180666D01*
X94270285Y-133277428D01*
X94270285Y-133809619D01*
X95141142Y-133761238D02*
X95044380Y-133809619D01*
X94850857Y-133809619D01*
X94754095Y-133761238D01*
X94705714Y-133664476D01*
X94705714Y-133277428D01*
X94754095Y-133180666D01*
X94850857Y-133132285D01*
X95044380Y-133132285D01*
X95141142Y-133180666D01*
X95189523Y-133277428D01*
X95189523Y-133374190D01*
X94705714Y-133470952D01*
X95770095Y-133809619D02*
X95673333Y-133761238D01*
X95624952Y-133664476D01*
X95624952Y-132793619D01*
X96157142Y-133809619D02*
X96157142Y-133132285D01*
X96157142Y-132793619D02*
X96108761Y-132842000D01*
X96157142Y-132890380D01*
X96205523Y-132842000D01*
X96157142Y-132793619D01*
X96157142Y-132890380D01*
X97076380Y-133809619D02*
X97076380Y-133277428D01*
X97028000Y-133180666D01*
X96931238Y-133132285D01*
X96737714Y-133132285D01*
X96640952Y-133180666D01*
X97076380Y-133761238D02*
X96979619Y-133809619D01*
X96737714Y-133809619D01*
X96640952Y-133761238D01*
X96592571Y-133664476D01*
X96592571Y-133567714D01*
X96640952Y-133470952D01*
X96737714Y-133422571D01*
X96979619Y-133422571D01*
X97076380Y-133374190D01*
X97560190Y-133422571D02*
X98334285Y-133422571D01*
X98818095Y-133809619D02*
X98818095Y-133132285D01*
X98818095Y-133229047D02*
X98866476Y-133180666D01*
X98963238Y-133132285D01*
X99108380Y-133132285D01*
X99205142Y-133180666D01*
X99253523Y-133277428D01*
X99253523Y-133809619D01*
X99253523Y-133277428D02*
X99301904Y-133180666D01*
X99398666Y-133132285D01*
X99543809Y-133132285D01*
X99640571Y-133180666D01*
X99688952Y-133277428D01*
X99688952Y-133809619D01*
X100317904Y-133809619D02*
X100221142Y-133761238D01*
X100172761Y-133712857D01*
X100124380Y-133616095D01*
X100124380Y-133325809D01*
X100172761Y-133229047D01*
X100221142Y-133180666D01*
X100317904Y-133132285D01*
X100463047Y-133132285D01*
X100559809Y-133180666D01*
X100608190Y-133229047D01*
X100656571Y-133325809D01*
X100656571Y-133616095D01*
X100608190Y-133712857D01*
X100559809Y-133761238D01*
X100463047Y-133809619D01*
X100317904Y-133809619D01*
X101527428Y-133809619D02*
X101527428Y-132793619D01*
X101527428Y-133761238D02*
X101430666Y-133809619D01*
X101237142Y-133809619D01*
X101140380Y-133761238D01*
X101092000Y-133712857D01*
X101043619Y-133616095D01*
X101043619Y-133325809D01*
X101092000Y-133229047D01*
X101140380Y-133180666D01*
X101237142Y-133132285D01*
X101430666Y-133132285D01*
X101527428Y-133180666D01*
X102446666Y-133132285D02*
X102446666Y-133809619D01*
X102011238Y-133132285D02*
X102011238Y-133664476D01*
X102059619Y-133761238D01*
X102156380Y-133809619D01*
X102301523Y-133809619D01*
X102398285Y-133761238D01*
X102446666Y-133712857D01*
X103075619Y-133809619D02*
X102978857Y-133761238D01*
X102930476Y-133664476D01*
X102930476Y-132793619D01*
X103898095Y-133809619D02*
X103898095Y-133277428D01*
X103849714Y-133180666D01*
X103752952Y-133132285D01*
X103559428Y-133132285D01*
X103462666Y-133180666D01*
X103898095Y-133761238D02*
X103801333Y-133809619D01*
X103559428Y-133809619D01*
X103462666Y-133761238D01*
X103414285Y-133664476D01*
X103414285Y-133567714D01*
X103462666Y-133470952D01*
X103559428Y-133422571D01*
X103801333Y-133422571D01*
X103898095Y-133374190D01*
X104381904Y-133809619D02*
X104381904Y-133132285D01*
X104381904Y-133325809D02*
X104430285Y-133229047D01*
X104478666Y-133180666D01*
X104575428Y-133132285D01*
X104672190Y-133132285D01*
X105010857Y-133422571D02*
X105784952Y-133422571D01*
X106704190Y-133809619D02*
X106704190Y-132793619D01*
X106704190Y-133761238D02*
X106607428Y-133809619D01*
X106413904Y-133809619D01*
X106317142Y-133761238D01*
X106268761Y-133712857D01*
X106220380Y-133616095D01*
X106220380Y-133325809D01*
X106268761Y-133229047D01*
X106317142Y-133180666D01*
X106413904Y-133132285D01*
X106607428Y-133132285D01*
X106704190Y-133180666D01*
X107575047Y-133761238D02*
X107478285Y-133809619D01*
X107284761Y-133809619D01*
X107188000Y-133761238D01*
X107139619Y-133664476D01*
X107139619Y-133277428D01*
X107188000Y-133180666D01*
X107284761Y-133132285D01*
X107478285Y-133132285D01*
X107575047Y-133180666D01*
X107623428Y-133277428D01*
X107623428Y-133374190D01*
X107139619Y-133470952D01*
X107962095Y-133132285D02*
X108204000Y-133809619D01*
X108445904Y-133132285D01*
X108832952Y-133809619D02*
X108832952Y-133132285D01*
X108832952Y-132793619D02*
X108784571Y-132842000D01*
X108832952Y-132890380D01*
X108881333Y-132842000D01*
X108832952Y-132793619D01*
X108832952Y-132890380D01*
X109752190Y-133761238D02*
X109655428Y-133809619D01*
X109461904Y-133809619D01*
X109365142Y-133761238D01*
X109316761Y-133712857D01*
X109268380Y-133616095D01*
X109268380Y-133325809D01*
X109316761Y-133229047D01*
X109365142Y-133180666D01*
X109461904Y-133132285D01*
X109655428Y-133132285D01*
X109752190Y-133180666D01*
X110574666Y-133761238D02*
X110477904Y-133809619D01*
X110284380Y-133809619D01*
X110187619Y-133761238D01*
X110139238Y-133664476D01*
X110139238Y-133277428D01*
X110187619Y-133180666D01*
X110284380Y-133132285D01*
X110477904Y-133132285D01*
X110574666Y-133180666D01*
X110623047Y-133277428D01*
X110623047Y-133374190D01*
X110139238Y-133470952D01*
X111010095Y-133761238D02*
X111106857Y-133809619D01*
X111300380Y-133809619D01*
X111397142Y-133761238D01*
X111445523Y-133664476D01*
X111445523Y-133616095D01*
X111397142Y-133519333D01*
X111300380Y-133470952D01*
X111155238Y-133470952D01*
X111058476Y-133422571D01*
X111010095Y-133325809D01*
X111010095Y-133277428D01*
X111058476Y-133180666D01*
X111155238Y-133132285D01*
X111300380Y-133132285D01*
X111397142Y-133180666D01*
D14*
X83680904Y-77421619D02*
X83680904Y-78147333D01*
X83632523Y-78292476D01*
X83535761Y-78389238D01*
X83390619Y-78437619D01*
X83293857Y-78437619D01*
X84600142Y-78437619D02*
X84600142Y-77905428D01*
X84551761Y-77808666D01*
X84455000Y-77760285D01*
X84261476Y-77760285D01*
X84164714Y-77808666D01*
X84600142Y-78389238D02*
X84503380Y-78437619D01*
X84261476Y-78437619D01*
X84164714Y-78389238D01*
X84116333Y-78292476D01*
X84116333Y-78195714D01*
X84164714Y-78098952D01*
X84261476Y-78050571D01*
X84503380Y-78050571D01*
X84600142Y-78002190D01*
X85083952Y-77760285D02*
X85083952Y-78437619D01*
X85083952Y-77857047D02*
X85132333Y-77808666D01*
X85229095Y-77760285D01*
X85374238Y-77760285D01*
X85471000Y-77808666D01*
X85519380Y-77905428D01*
X85519380Y-78437619D01*
X86390238Y-78389238D02*
X86293476Y-78437619D01*
X86099952Y-78437619D01*
X86003190Y-78389238D01*
X85954809Y-78292476D01*
X85954809Y-77905428D01*
X86003190Y-77808666D01*
X86099952Y-77760285D01*
X86293476Y-77760285D01*
X86390238Y-77808666D01*
X86438619Y-77905428D01*
X86438619Y-78002190D01*
X85954809Y-78098952D01*
X87019190Y-78437619D02*
X86922428Y-78389238D01*
X86874047Y-78292476D01*
X86874047Y-77421619D01*
X87406238Y-78437619D02*
X87406238Y-77760285D01*
X87406238Y-77421619D02*
X87357857Y-77470000D01*
X87406238Y-77518380D01*
X87454619Y-77470000D01*
X87406238Y-77421619D01*
X87406238Y-77518380D01*
X88325476Y-78437619D02*
X88325476Y-77905428D01*
X88277095Y-77808666D01*
X88180333Y-77760285D01*
X87986809Y-77760285D01*
X87890047Y-77808666D01*
X88325476Y-78389238D02*
X88228714Y-78437619D01*
X87986809Y-78437619D01*
X87890047Y-78389238D01*
X87841666Y-78292476D01*
X87841666Y-78195714D01*
X87890047Y-78098952D01*
X87986809Y-78050571D01*
X88228714Y-78050571D01*
X88325476Y-78002190D01*
X89583380Y-78437619D02*
X89583380Y-77421619D01*
X89922047Y-78147333D01*
X90260714Y-77421619D01*
X90260714Y-78437619D01*
X90889666Y-78437619D02*
X90792904Y-78389238D01*
X90744523Y-78340857D01*
X90696142Y-78244095D01*
X90696142Y-77953809D01*
X90744523Y-77857047D01*
X90792904Y-77808666D01*
X90889666Y-77760285D01*
X91034809Y-77760285D01*
X91131571Y-77808666D01*
X91179952Y-77857047D01*
X91228333Y-77953809D01*
X91228333Y-78244095D01*
X91179952Y-78340857D01*
X91131571Y-78389238D01*
X91034809Y-78437619D01*
X90889666Y-78437619D01*
X92099190Y-78437619D02*
X92099190Y-77421619D01*
X92099190Y-78389238D02*
X92002428Y-78437619D01*
X91808904Y-78437619D01*
X91712142Y-78389238D01*
X91663761Y-78340857D01*
X91615380Y-78244095D01*
X91615380Y-77953809D01*
X91663761Y-77857047D01*
X91712142Y-77808666D01*
X91808904Y-77760285D01*
X92002428Y-77760285D01*
X92099190Y-77808666D01*
X93018428Y-77760285D02*
X93018428Y-78437619D01*
X92583000Y-77760285D02*
X92583000Y-78292476D01*
X92631380Y-78389238D01*
X92728142Y-78437619D01*
X92873285Y-78437619D01*
X92970047Y-78389238D01*
X93018428Y-78340857D01*
X93647380Y-78437619D02*
X93550619Y-78389238D01*
X93502238Y-78292476D01*
X93502238Y-77421619D01*
X94469857Y-78437619D02*
X94469857Y-77905428D01*
X94421476Y-77808666D01*
X94324714Y-77760285D01*
X94131190Y-77760285D01*
X94034428Y-77808666D01*
X94469857Y-78389238D02*
X94373095Y-78437619D01*
X94131190Y-78437619D01*
X94034428Y-78389238D01*
X93986047Y-78292476D01*
X93986047Y-78195714D01*
X94034428Y-78098952D01*
X94131190Y-78050571D01*
X94373095Y-78050571D01*
X94469857Y-78002190D01*
X94953666Y-78437619D02*
X94953666Y-77760285D01*
X94953666Y-77953809D02*
X95002047Y-77857047D01*
X95050428Y-77808666D01*
X95147190Y-77760285D01*
X95243952Y-77760285D01*
X96356714Y-78437619D02*
X96356714Y-77421619D01*
X96598619Y-77421619D01*
X96743761Y-77470000D01*
X96840523Y-77566761D01*
X96888904Y-77663523D01*
X96937285Y-77857047D01*
X96937285Y-78002190D01*
X96888904Y-78195714D01*
X96840523Y-78292476D01*
X96743761Y-78389238D01*
X96598619Y-78437619D01*
X96356714Y-78437619D01*
X97759761Y-78389238D02*
X97663000Y-78437619D01*
X97469476Y-78437619D01*
X97372714Y-78389238D01*
X97324333Y-78292476D01*
X97324333Y-77905428D01*
X97372714Y-77808666D01*
X97469476Y-77760285D01*
X97663000Y-77760285D01*
X97759761Y-77808666D01*
X97808142Y-77905428D01*
X97808142Y-78002190D01*
X97324333Y-78098952D01*
X98146809Y-77760285D02*
X98388714Y-78437619D01*
X98630619Y-77760285D01*
X99017666Y-78437619D02*
X99017666Y-77760285D01*
X99017666Y-77421619D02*
X98969285Y-77470000D01*
X99017666Y-77518380D01*
X99066047Y-77470000D01*
X99017666Y-77421619D01*
X99017666Y-77518380D01*
X99936904Y-78389238D02*
X99840142Y-78437619D01*
X99646619Y-78437619D01*
X99549857Y-78389238D01*
X99501476Y-78340857D01*
X99453095Y-78244095D01*
X99453095Y-77953809D01*
X99501476Y-77857047D01*
X99549857Y-77808666D01*
X99646619Y-77760285D01*
X99840142Y-77760285D01*
X99936904Y-77808666D01*
X100759380Y-78389238D02*
X100662619Y-78437619D01*
X100469095Y-78437619D01*
X100372333Y-78389238D01*
X100323952Y-78292476D01*
X100323952Y-77905428D01*
X100372333Y-77808666D01*
X100469095Y-77760285D01*
X100662619Y-77760285D01*
X100759380Y-77808666D01*
X100807761Y-77905428D01*
X100807761Y-78002190D01*
X100323952Y-78098952D01*
X84745285Y-80215619D02*
X84745285Y-79199619D01*
X84745285Y-79586666D02*
X84842047Y-79538285D01*
X85035571Y-79538285D01*
X85132333Y-79586666D01*
X85180714Y-79635047D01*
X85229095Y-79731809D01*
X85229095Y-80022095D01*
X85180714Y-80118857D01*
X85132333Y-80167238D01*
X85035571Y-80215619D01*
X84842047Y-80215619D01*
X84745285Y-80167238D01*
X86099952Y-80215619D02*
X86099952Y-79683428D01*
X86051571Y-79586666D01*
X85954809Y-79538285D01*
X85761285Y-79538285D01*
X85664523Y-79586666D01*
X86099952Y-80167238D02*
X86003190Y-80215619D01*
X85761285Y-80215619D01*
X85664523Y-80167238D01*
X85616142Y-80070476D01*
X85616142Y-79973714D01*
X85664523Y-79876952D01*
X85761285Y-79828571D01*
X86003190Y-79828571D01*
X86099952Y-79780190D01*
X87019190Y-80167238D02*
X86922428Y-80215619D01*
X86728904Y-80215619D01*
X86632142Y-80167238D01*
X86583761Y-80118857D01*
X86535380Y-80022095D01*
X86535380Y-79731809D01*
X86583761Y-79635047D01*
X86632142Y-79586666D01*
X86728904Y-79538285D01*
X86922428Y-79538285D01*
X87019190Y-79586666D01*
X87454619Y-80215619D02*
X87454619Y-79199619D01*
X87551380Y-79828571D02*
X87841666Y-80215619D01*
X87841666Y-79538285D02*
X87454619Y-79925333D01*
X88422238Y-80215619D02*
X88325476Y-80167238D01*
X88277095Y-80070476D01*
X88277095Y-79199619D01*
X88809285Y-80215619D02*
X88809285Y-79538285D01*
X88809285Y-79199619D02*
X88760904Y-79248000D01*
X88809285Y-79296380D01*
X88857666Y-79248000D01*
X88809285Y-79199619D01*
X88809285Y-79296380D01*
X89728523Y-79538285D02*
X89728523Y-80360761D01*
X89680142Y-80457523D01*
X89631761Y-80505904D01*
X89535000Y-80554285D01*
X89389857Y-80554285D01*
X89293095Y-80505904D01*
X89728523Y-80167238D02*
X89631761Y-80215619D01*
X89438238Y-80215619D01*
X89341476Y-80167238D01*
X89293095Y-80118857D01*
X89244714Y-80022095D01*
X89244714Y-79731809D01*
X89293095Y-79635047D01*
X89341476Y-79586666D01*
X89438238Y-79538285D01*
X89631761Y-79538285D01*
X89728523Y-79586666D01*
X90212333Y-80215619D02*
X90212333Y-79199619D01*
X90647761Y-80215619D02*
X90647761Y-79683428D01*
X90599380Y-79586666D01*
X90502619Y-79538285D01*
X90357476Y-79538285D01*
X90260714Y-79586666D01*
X90212333Y-79635047D01*
X90986428Y-79538285D02*
X91373476Y-79538285D01*
X91131571Y-79199619D02*
X91131571Y-80070476D01*
X91179952Y-80167238D01*
X91276714Y-80215619D01*
X91373476Y-80215619D01*
X91470238Y-80312380D02*
X92244333Y-80312380D01*
X92921666Y-80167238D02*
X92824904Y-80215619D01*
X92631380Y-80215619D01*
X92534619Y-80167238D01*
X92486238Y-80118857D01*
X92437857Y-80022095D01*
X92437857Y-79731809D01*
X92486238Y-79635047D01*
X92534619Y-79586666D01*
X92631380Y-79538285D01*
X92824904Y-79538285D01*
X92921666Y-79586666D01*
X93502238Y-80215619D02*
X93405476Y-80167238D01*
X93357095Y-80118857D01*
X93308714Y-80022095D01*
X93308714Y-79731809D01*
X93357095Y-79635047D01*
X93405476Y-79586666D01*
X93502238Y-79538285D01*
X93647380Y-79538285D01*
X93744142Y-79586666D01*
X93792523Y-79635047D01*
X93840904Y-79731809D01*
X93840904Y-80022095D01*
X93792523Y-80118857D01*
X93744142Y-80167238D01*
X93647380Y-80215619D01*
X93502238Y-80215619D01*
X94276333Y-79538285D02*
X94276333Y-80215619D01*
X94276333Y-79635047D02*
X94324714Y-79586666D01*
X94421476Y-79538285D01*
X94566619Y-79538285D01*
X94663380Y-79586666D01*
X94711761Y-79683428D01*
X94711761Y-80215619D01*
X95050428Y-79538285D02*
X95437476Y-79538285D01*
X95195571Y-79199619D02*
X95195571Y-80070476D01*
X95243952Y-80167238D01*
X95340714Y-80215619D01*
X95437476Y-80215619D01*
X95776142Y-80215619D02*
X95776142Y-79538285D01*
X95776142Y-79731809D02*
X95824523Y-79635047D01*
X95872904Y-79586666D01*
X95969666Y-79538285D01*
X96066428Y-79538285D01*
X96550238Y-80215619D02*
X96453476Y-80167238D01*
X96405095Y-80118857D01*
X96356714Y-80022095D01*
X96356714Y-79731809D01*
X96405095Y-79635047D01*
X96453476Y-79586666D01*
X96550238Y-79538285D01*
X96695380Y-79538285D01*
X96792142Y-79586666D01*
X96840523Y-79635047D01*
X96888904Y-79731809D01*
X96888904Y-80022095D01*
X96840523Y-80118857D01*
X96792142Y-80167238D01*
X96695380Y-80215619D01*
X96550238Y-80215619D01*
X97469476Y-80215619D02*
X97372714Y-80167238D01*
X97324333Y-80070476D01*
X97324333Y-79199619D01*
X98001666Y-80215619D02*
X97904904Y-80167238D01*
X97856523Y-80070476D01*
X97856523Y-79199619D01*
X98775761Y-80167238D02*
X98679000Y-80215619D01*
X98485476Y-80215619D01*
X98388714Y-80167238D01*
X98340333Y-80070476D01*
X98340333Y-79683428D01*
X98388714Y-79586666D01*
X98485476Y-79538285D01*
X98679000Y-79538285D01*
X98775761Y-79586666D01*
X98824142Y-79683428D01*
X98824142Y-79780190D01*
X98340333Y-79876952D01*
X99259571Y-80215619D02*
X99259571Y-79538285D01*
X99259571Y-79731809D02*
X99307952Y-79635047D01*
X99356333Y-79586666D01*
X99453095Y-79538285D01*
X99549857Y-79538285D01*
X85035571Y-81316285D02*
X85035571Y-82332285D01*
X85035571Y-81364666D02*
X85132333Y-81316285D01*
X85325857Y-81316285D01*
X85422619Y-81364666D01*
X85471000Y-81413047D01*
X85519380Y-81509809D01*
X85519380Y-81800095D01*
X85471000Y-81896857D01*
X85422619Y-81945238D01*
X85325857Y-81993619D01*
X85132333Y-81993619D01*
X85035571Y-81945238D01*
X86390238Y-81993619D02*
X86390238Y-81461428D01*
X86341857Y-81364666D01*
X86245095Y-81316285D01*
X86051571Y-81316285D01*
X85954809Y-81364666D01*
X86390238Y-81945238D02*
X86293476Y-81993619D01*
X86051571Y-81993619D01*
X85954809Y-81945238D01*
X85906428Y-81848476D01*
X85906428Y-81751714D01*
X85954809Y-81654952D01*
X86051571Y-81606571D01*
X86293476Y-81606571D01*
X86390238Y-81558190D01*
X86874047Y-81993619D02*
X86874047Y-81316285D01*
X86874047Y-81509809D02*
X86922428Y-81413047D01*
X86970809Y-81364666D01*
X87067571Y-81316285D01*
X87164333Y-81316285D01*
X87357857Y-81316285D02*
X87744904Y-81316285D01*
X87503000Y-80977619D02*
X87503000Y-81848476D01*
X87551380Y-81945238D01*
X87648142Y-81993619D01*
X87744904Y-81993619D01*
X87841666Y-82090380D02*
X88615761Y-82090380D01*
X88857666Y-81316285D02*
X88857666Y-81993619D01*
X88857666Y-81413047D02*
X88906047Y-81364666D01*
X89002809Y-81316285D01*
X89147952Y-81316285D01*
X89244714Y-81364666D01*
X89293095Y-81461428D01*
X89293095Y-81993619D01*
X90212333Y-81316285D02*
X90212333Y-81993619D01*
X89776904Y-81316285D02*
X89776904Y-81848476D01*
X89825285Y-81945238D01*
X89922047Y-81993619D01*
X90067190Y-81993619D01*
X90163952Y-81945238D01*
X90212333Y-81896857D01*
X90696142Y-81993619D02*
X90696142Y-81316285D01*
X90696142Y-81413047D02*
X90744523Y-81364666D01*
X90841285Y-81316285D01*
X90986428Y-81316285D01*
X91083190Y-81364666D01*
X91131571Y-81461428D01*
X91131571Y-81993619D01*
X91131571Y-81461428D02*
X91179952Y-81364666D01*
X91276714Y-81316285D01*
X91421857Y-81316285D01*
X91518619Y-81364666D01*
X91567000Y-81461428D01*
X91567000Y-81993619D01*
X92050809Y-81993619D02*
X92050809Y-80977619D01*
X92050809Y-81364666D02*
X92147571Y-81316285D01*
X92341095Y-81316285D01*
X92437857Y-81364666D01*
X92486238Y-81413047D01*
X92534619Y-81509809D01*
X92534619Y-81800095D01*
X92486238Y-81896857D01*
X92437857Y-81945238D01*
X92341095Y-81993619D01*
X92147571Y-81993619D01*
X92050809Y-81945238D01*
X93357095Y-81945238D02*
X93260333Y-81993619D01*
X93066809Y-81993619D01*
X92970047Y-81945238D01*
X92921666Y-81848476D01*
X92921666Y-81461428D01*
X92970047Y-81364666D01*
X93066809Y-81316285D01*
X93260333Y-81316285D01*
X93357095Y-81364666D01*
X93405476Y-81461428D01*
X93405476Y-81558190D01*
X92921666Y-81654952D01*
X93840904Y-81993619D02*
X93840904Y-81316285D01*
X93840904Y-81509809D02*
X93889285Y-81413047D01*
X93937666Y-81364666D01*
X94034428Y-81316285D01*
X94131190Y-81316285D01*
X94469857Y-81896857D02*
X94518238Y-81945238D01*
X94469857Y-81993619D01*
X94421476Y-81945238D01*
X94469857Y-81896857D01*
X94469857Y-81993619D01*
X94469857Y-81364666D02*
X94518238Y-81413047D01*
X94469857Y-81461428D01*
X94421476Y-81413047D01*
X94469857Y-81364666D01*
X94469857Y-81461428D01*
X96259952Y-81993619D02*
X95679380Y-81993619D01*
X95969666Y-81993619D02*
X95969666Y-80977619D01*
X95872904Y-81122761D01*
X95776142Y-81219523D01*
X95679380Y-81267904D01*
X96647000Y-81074380D02*
X96695380Y-81026000D01*
X96792142Y-80977619D01*
X97034047Y-80977619D01*
X97130809Y-81026000D01*
X97179190Y-81074380D01*
X97227571Y-81171142D01*
X97227571Y-81267904D01*
X97179190Y-81413047D01*
X96598619Y-81993619D01*
X97227571Y-81993619D01*
X97566238Y-80977619D02*
X98243571Y-80977619D01*
X97808142Y-81993619D01*
X98824142Y-80977619D02*
X98920904Y-80977619D01*
X99017666Y-81026000D01*
X99066047Y-81074380D01*
X99114428Y-81171142D01*
X99162809Y-81364666D01*
X99162809Y-81606571D01*
X99114428Y-81800095D01*
X99066047Y-81896857D01*
X99017666Y-81945238D01*
X98920904Y-81993619D01*
X98824142Y-81993619D01*
X98727380Y-81945238D01*
X98679000Y-81896857D01*
X98630619Y-81800095D01*
X98582238Y-81606571D01*
X98582238Y-81364666D01*
X98630619Y-81171142D01*
X98679000Y-81074380D01*
X98727380Y-81026000D01*
X98824142Y-80977619D01*
X84527571Y-83771619D02*
X83947000Y-83771619D01*
X84237285Y-83771619D02*
X84237285Y-82755619D01*
X84140523Y-82900761D01*
X84043761Y-82997523D01*
X83947000Y-83045904D01*
X85156523Y-82755619D02*
X85253285Y-82755619D01*
X85350047Y-82804000D01*
X85398428Y-82852380D01*
X85446809Y-82949142D01*
X85495190Y-83142666D01*
X85495190Y-83384571D01*
X85446809Y-83578095D01*
X85398428Y-83674857D01*
X85350047Y-83723238D01*
X85253285Y-83771619D01*
X85156523Y-83771619D01*
X85059761Y-83723238D01*
X85011380Y-83674857D01*
X84963000Y-83578095D01*
X84914619Y-83384571D01*
X84914619Y-83142666D01*
X84963000Y-82949142D01*
X85011380Y-82852380D01*
X85059761Y-82804000D01*
X85156523Y-82755619D01*
X86656333Y-82707238D02*
X85785476Y-84013523D01*
X86946619Y-82852380D02*
X86995000Y-82804000D01*
X87091761Y-82755619D01*
X87333666Y-82755619D01*
X87430428Y-82804000D01*
X87478809Y-82852380D01*
X87527190Y-82949142D01*
X87527190Y-83045904D01*
X87478809Y-83191047D01*
X86898238Y-83771619D01*
X87527190Y-83771619D01*
X88156142Y-82755619D02*
X88252904Y-82755619D01*
X88349666Y-82804000D01*
X88398047Y-82852380D01*
X88446428Y-82949142D01*
X88494809Y-83142666D01*
X88494809Y-83384571D01*
X88446428Y-83578095D01*
X88398047Y-83674857D01*
X88349666Y-83723238D01*
X88252904Y-83771619D01*
X88156142Y-83771619D01*
X88059380Y-83723238D01*
X88011000Y-83674857D01*
X87962619Y-83578095D01*
X87914238Y-83384571D01*
X87914238Y-83142666D01*
X87962619Y-82949142D01*
X88011000Y-82852380D01*
X88059380Y-82804000D01*
X88156142Y-82755619D01*
X89462428Y-83771619D02*
X88881857Y-83771619D01*
X89172142Y-83771619D02*
X89172142Y-82755619D01*
X89075380Y-82900761D01*
X88978619Y-82997523D01*
X88881857Y-83045904D01*
X90043000Y-83191047D02*
X89946238Y-83142666D01*
X89897857Y-83094285D01*
X89849476Y-82997523D01*
X89849476Y-82949142D01*
X89897857Y-82852380D01*
X89946238Y-82804000D01*
X90043000Y-82755619D01*
X90236523Y-82755619D01*
X90333285Y-82804000D01*
X90381666Y-82852380D01*
X90430047Y-82949142D01*
X90430047Y-82997523D01*
X90381666Y-83094285D01*
X90333285Y-83142666D01*
X90236523Y-83191047D01*
X90043000Y-83191047D01*
X89946238Y-83239428D01*
X89897857Y-83287809D01*
X89849476Y-83384571D01*
X89849476Y-83578095D01*
X89897857Y-83674857D01*
X89946238Y-83723238D01*
X90043000Y-83771619D01*
X90236523Y-83771619D01*
X90333285Y-83723238D01*
X90381666Y-83674857D01*
X90430047Y-83578095D01*
X90430047Y-83384571D01*
X90381666Y-83287809D01*
X90333285Y-83239428D01*
X90236523Y-83191047D01*
X91542809Y-83094285D02*
X91784714Y-83771619D01*
X92026619Y-83094285D01*
X92800714Y-83723238D02*
X92703952Y-83771619D01*
X92510428Y-83771619D01*
X92413666Y-83723238D01*
X92365285Y-83626476D01*
X92365285Y-83239428D01*
X92413666Y-83142666D01*
X92510428Y-83094285D01*
X92703952Y-83094285D01*
X92800714Y-83142666D01*
X92849095Y-83239428D01*
X92849095Y-83336190D01*
X92365285Y-83432952D01*
X93284523Y-83771619D02*
X93284523Y-83094285D01*
X93284523Y-83287809D02*
X93332904Y-83191047D01*
X93381285Y-83142666D01*
X93478047Y-83094285D01*
X93574809Y-83094285D01*
X95219761Y-83771619D02*
X94639190Y-83771619D01*
X94929476Y-83771619D02*
X94929476Y-82755619D01*
X94832714Y-82900761D01*
X94735952Y-82997523D01*
X94639190Y-83045904D01*
X95655190Y-83674857D02*
X95703571Y-83723238D01*
X95655190Y-83771619D01*
X95606809Y-83723238D01*
X95655190Y-83674857D01*
X95655190Y-83771619D01*
X96671190Y-83771619D02*
X96090619Y-83771619D01*
X96380904Y-83771619D02*
X96380904Y-82755619D01*
X96284142Y-82900761D01*
X96187380Y-82997523D01*
X96090619Y-83045904D01*
X98364523Y-82755619D02*
X97880714Y-82755619D01*
X97832333Y-83239428D01*
X97880714Y-83191047D01*
X97977476Y-83142666D01*
X98219380Y-83142666D01*
X98316142Y-83191047D01*
X98364523Y-83239428D01*
X98412904Y-83336190D01*
X98412904Y-83578095D01*
X98364523Y-83674857D01*
X98316142Y-83723238D01*
X98219380Y-83771619D01*
X97977476Y-83771619D01*
X97880714Y-83723238D01*
X97832333Y-83674857D01*
X98751571Y-83771619D02*
X99283761Y-83094285D01*
X98751571Y-83094285D02*
X99283761Y-83771619D01*
X99574047Y-82755619D02*
X100203000Y-82755619D01*
X99864333Y-83142666D01*
X100009476Y-83142666D01*
X100106238Y-83191047D01*
X100154619Y-83239428D01*
X100203000Y-83336190D01*
X100203000Y-83578095D01*
X100154619Y-83674857D01*
X100106238Y-83723238D01*
X100009476Y-83771619D01*
X99719190Y-83771619D01*
X99622428Y-83723238D01*
X99574047Y-83674857D01*
D10*
G04 #@! TO.C,J2*
X96620000Y-120970000D02*
X109120000Y-120970000D01*
X109120000Y-120970000D02*
X109120000Y-89850000D01*
X109120000Y-89850000D02*
X96620000Y-89850000D01*
X96620000Y-89850000D02*
X96620000Y-120970000D01*
G04 #@! TO.C,J1*
X76300000Y-120970000D02*
X88800000Y-120970000D01*
X88800000Y-120970000D02*
X88800000Y-89850000D01*
X88800000Y-89850000D02*
X76300000Y-89850000D01*
X76300000Y-89850000D02*
X76300000Y-120970000D01*
D15*
G04 #@! TO.C,P1*
X181760000Y-98510000D02*
X194560000Y-98510000D01*
X181760000Y-112310000D02*
X194560000Y-112310000D01*
X181760000Y-112310000D02*
X181760000Y-98510000D01*
X194560000Y-112310000D02*
X194560000Y-98510000D01*
D12*
G04 #@! TO.C,MDB1*
X167640000Y-135890000D02*
G75*
G03X167640000Y-135890000I-2540000J0D01*
G01*
X167640000Y-74930000D02*
G75*
G03X167640000Y-74930000I-2540000J0D01*
G01*
X76200000Y-130810000D02*
G75*
G03X76200000Y-130810000I-2540000J0D01*
G01*
X76200000Y-80010000D02*
G75*
G03X76200000Y-80010000I-2540000J0D01*
G01*
G04 #@! TO.C,L1*
X188722000Y-115697000D02*
X189738000Y-115697000D01*
X189230000Y-116205000D02*
X189230000Y-115189000D01*
X187960000Y-112395000D02*
X190500000Y-112395000D01*
X190500000Y-112395000D02*
X190500000Y-120015000D01*
X190500000Y-120015000D02*
X187960000Y-120015000D01*
X187960000Y-120015000D02*
X187960000Y-112395000D01*
G04 #@! TO.C,L2*
X77470000Y-129540000D02*
X77470000Y-121920000D01*
X80010000Y-129540000D02*
X77470000Y-129540000D01*
X80010000Y-121920000D02*
X80010000Y-129540000D01*
X77470000Y-121920000D02*
X80010000Y-121920000D01*
X78740000Y-125730000D02*
X78740000Y-124714000D01*
X78232000Y-125222000D02*
X79248000Y-125222000D01*
G04 #@! TO.C,L3*
X80772000Y-125222000D02*
X81788000Y-125222000D01*
X81280000Y-125730000D02*
X81280000Y-124714000D01*
X80010000Y-121920000D02*
X82550000Y-121920000D01*
X82550000Y-121920000D02*
X82550000Y-129540000D01*
X82550000Y-129540000D02*
X80010000Y-129540000D01*
X80010000Y-129540000D02*
X80010000Y-121920000D01*
G04 #@! TO.C,L4*
X82550000Y-129540000D02*
X82550000Y-121920000D01*
X85090000Y-129540000D02*
X82550000Y-129540000D01*
X85090000Y-121920000D02*
X85090000Y-129540000D01*
X82550000Y-121920000D02*
X85090000Y-121920000D01*
X83820000Y-125730000D02*
X83820000Y-124714000D01*
X83312000Y-125222000D02*
X84328000Y-125222000D01*
G04 #@! TO.C,L5*
X85852000Y-125222000D02*
X86868000Y-125222000D01*
X86360000Y-125730000D02*
X86360000Y-124714000D01*
X85090000Y-121920000D02*
X87630000Y-121920000D01*
X87630000Y-121920000D02*
X87630000Y-129540000D01*
X87630000Y-129540000D02*
X85090000Y-129540000D01*
X85090000Y-129540000D02*
X85090000Y-121920000D01*
G04 #@! TO.C,L6*
X97790000Y-129540000D02*
X97790000Y-121920000D01*
X100330000Y-129540000D02*
X97790000Y-129540000D01*
X100330000Y-121920000D02*
X100330000Y-129540000D01*
X97790000Y-121920000D02*
X100330000Y-121920000D01*
X99060000Y-125730000D02*
X99060000Y-124714000D01*
X98552000Y-125222000D02*
X99568000Y-125222000D01*
G04 #@! TO.C,L7*
X100330000Y-129540000D02*
X100330000Y-121920000D01*
X102870000Y-129540000D02*
X100330000Y-129540000D01*
X102870000Y-121920000D02*
X102870000Y-129540000D01*
X100330000Y-121920000D02*
X102870000Y-121920000D01*
X101600000Y-125730000D02*
X101600000Y-124714000D01*
X101092000Y-125222000D02*
X102108000Y-125222000D01*
G04 #@! TO.C,L8*
X103632000Y-125222000D02*
X104648000Y-125222000D01*
X104140000Y-125730000D02*
X104140000Y-124714000D01*
X102870000Y-121920000D02*
X105410000Y-121920000D01*
X105410000Y-121920000D02*
X105410000Y-129540000D01*
X105410000Y-129540000D02*
X102870000Y-129540000D01*
X102870000Y-129540000D02*
X102870000Y-121920000D01*
G04 #@! TO.C,L9*
X106172000Y-125222000D02*
X107188000Y-125222000D01*
X106680000Y-125730000D02*
X106680000Y-124714000D01*
X105410000Y-121920000D02*
X107950000Y-121920000D01*
X107950000Y-121920000D02*
X107950000Y-129540000D01*
X107950000Y-129540000D02*
X105410000Y-129540000D01*
X105410000Y-129540000D02*
X105410000Y-121920000D01*
G04 #@! TO.C,L10*
X120777000Y-79248000D02*
X120777000Y-78232000D01*
X121285000Y-78740000D02*
X120269000Y-78740000D01*
X117475000Y-80010000D02*
X117475000Y-77470000D01*
X117475000Y-77470000D02*
X125095000Y-77470000D01*
X125095000Y-77470000D02*
X125095000Y-80010000D01*
X125095000Y-80010000D02*
X117475000Y-80010000D01*
G04 #@! TO.C,L11*
X125095000Y-133350000D02*
X117475000Y-133350000D01*
X125095000Y-130810000D02*
X125095000Y-133350000D01*
X117475000Y-130810000D02*
X125095000Y-130810000D01*
X117475000Y-133350000D02*
X117475000Y-130810000D01*
X121285000Y-132080000D02*
X120269000Y-132080000D01*
X120777000Y-132588000D02*
X120777000Y-131572000D01*
G04 #@! TO.C,L12*
X144145000Y-80010000D02*
X136525000Y-80010000D01*
X144145000Y-77470000D02*
X144145000Y-80010000D01*
X136525000Y-77470000D02*
X144145000Y-77470000D01*
X136525000Y-80010000D02*
X136525000Y-77470000D01*
X140335000Y-78740000D02*
X139319000Y-78740000D01*
X139827000Y-79248000D02*
X139827000Y-78232000D01*
G04 #@! TO.C,L13*
X139827000Y-132588000D02*
X139827000Y-131572000D01*
X140335000Y-132080000D02*
X139319000Y-132080000D01*
X136525000Y-133350000D02*
X136525000Y-130810000D01*
X136525000Y-130810000D02*
X144145000Y-130810000D01*
X144145000Y-130810000D02*
X144145000Y-133350000D01*
X144145000Y-133350000D02*
X136525000Y-133350000D01*
G04 #@! TO.C,L14*
X163195000Y-80010000D02*
X155575000Y-80010000D01*
X163195000Y-77470000D02*
X163195000Y-80010000D01*
X155575000Y-77470000D02*
X163195000Y-77470000D01*
X155575000Y-80010000D02*
X155575000Y-77470000D01*
X159385000Y-78740000D02*
X158369000Y-78740000D01*
X158877000Y-79248000D02*
X158877000Y-78232000D01*
G04 #@! TO.C,L15*
X158877000Y-132588000D02*
X158877000Y-131572000D01*
X159385000Y-132080000D02*
X158369000Y-132080000D01*
X155575000Y-133350000D02*
X155575000Y-130810000D01*
X155575000Y-130810000D02*
X163195000Y-130810000D01*
X163195000Y-130810000D02*
X163195000Y-133350000D01*
X163195000Y-133350000D02*
X155575000Y-133350000D01*
G04 #@! TO.C,L16*
X182245000Y-80010000D02*
X174625000Y-80010000D01*
X182245000Y-77470000D02*
X182245000Y-80010000D01*
X174625000Y-77470000D02*
X182245000Y-77470000D01*
X174625000Y-80010000D02*
X174625000Y-77470000D01*
X178435000Y-78740000D02*
X177419000Y-78740000D01*
X177927000Y-79248000D02*
X177927000Y-78232000D01*
G04 #@! TO.C,L17*
X177927000Y-132588000D02*
X177927000Y-131572000D01*
X178435000Y-132080000D02*
X177419000Y-132080000D01*
X174625000Y-133350000D02*
X174625000Y-130810000D01*
X174625000Y-130810000D02*
X182245000Y-130810000D01*
X182245000Y-130810000D02*
X182245000Y-133350000D01*
X182245000Y-133350000D02*
X174625000Y-133350000D01*
D15*
G04 #@! TO.C,J3*
X126385000Y-89535000D02*
G75*
G03X126385000Y-89535000I-5100000J0D01*
G01*
X129285000Y-89535000D02*
G75*
G03X129285000Y-89535000I-8000000J0D01*
G01*
X122285000Y-85635000D02*
G75*
G02X120285000Y-85635000I-1000000J0D01*
G01*
X122287533Y-85635652D02*
G75*
G02X120285001Y-85635001I-1002533J-3899348D01*
G01*
G04 #@! TO.C,J4*
X126385000Y-121285000D02*
G75*
G03X126385000Y-121285000I-5100000J0D01*
G01*
X129285000Y-121285000D02*
G75*
G03X129285000Y-121285000I-8000000J0D01*
G01*
X122285000Y-117385000D02*
G75*
G02X120285000Y-117385000I-1000000J0D01*
G01*
X122287533Y-117385652D02*
G75*
G02X120285001Y-117385001I-1002533J-3899348D01*
G01*
G04 #@! TO.C,J5*
X145435000Y-89535000D02*
G75*
G03X145435000Y-89535000I-5100000J0D01*
G01*
X148335000Y-89535000D02*
G75*
G03X148335000Y-89535000I-8000000J0D01*
G01*
X141335000Y-85635000D02*
G75*
G02X139335000Y-85635000I-1000000J0D01*
G01*
X141337533Y-85635652D02*
G75*
G02X139335001Y-85635001I-1002533J-3899348D01*
G01*
G04 #@! TO.C,J6*
X145435000Y-121285000D02*
G75*
G03X145435000Y-121285000I-5100000J0D01*
G01*
X148335000Y-121285000D02*
G75*
G03X148335000Y-121285000I-8000000J0D01*
G01*
X141335000Y-117385000D02*
G75*
G02X139335000Y-117385000I-1000000J0D01*
G01*
X141337533Y-117385652D02*
G75*
G02X139335001Y-117385001I-1002533J-3899348D01*
G01*
G04 #@! TO.C,J7*
X160387533Y-85635652D02*
G75*
G02X158385001Y-85635001I-1002533J-3899348D01*
G01*
X160385000Y-85635000D02*
G75*
G02X158385000Y-85635000I-1000000J0D01*
G01*
X167385000Y-89535000D02*
G75*
G03X167385000Y-89535000I-8000000J0D01*
G01*
X164485000Y-89535000D02*
G75*
G03X164485000Y-89535000I-5100000J0D01*
G01*
G04 #@! TO.C,J8*
X160387533Y-117385652D02*
G75*
G02X158385001Y-117385001I-1002533J-3899348D01*
G01*
X160385000Y-117385000D02*
G75*
G02X158385000Y-117385000I-1000000J0D01*
G01*
X167385000Y-121285000D02*
G75*
G03X167385000Y-121285000I-8000000J0D01*
G01*
X164485000Y-121285000D02*
G75*
G03X164485000Y-121285000I-5100000J0D01*
G01*
G04 #@! TO.C,J9*
X179437533Y-85635652D02*
G75*
G02X177435001Y-85635001I-1002533J-3899348D01*
G01*
X179435000Y-85635000D02*
G75*
G02X177435000Y-85635000I-1000000J0D01*
G01*
X186435000Y-89535000D02*
G75*
G03X186435000Y-89535000I-8000000J0D01*
G01*
X183535000Y-89535000D02*
G75*
G03X183535000Y-89535000I-5100000J0D01*
G01*
G04 #@! TO.C,J10*
X179437533Y-117385652D02*
G75*
G02X177435001Y-117385001I-1002533J-3899348D01*
G01*
X179435000Y-117385000D02*
G75*
G02X177435000Y-117385000I-1000000J0D01*
G01*
X186435000Y-121285000D02*
G75*
G03X186435000Y-121285000I-8000000J0D01*
G01*
X183535000Y-121285000D02*
G75*
G03X183535000Y-121285000I-5100000J0D01*
G01*
G04 #@! TD*
G04 #@! TO.C,J2*
D14*
X95074619Y-115273666D02*
X95800333Y-115273666D01*
X95945476Y-115322047D01*
X96042238Y-115418809D01*
X96090619Y-115563952D01*
X96090619Y-115660714D01*
X95171380Y-114838238D02*
X95123000Y-114789857D01*
X95074619Y-114693095D01*
X95074619Y-114451190D01*
X95123000Y-114354428D01*
X95171380Y-114306047D01*
X95268142Y-114257666D01*
X95364904Y-114257666D01*
X95510047Y-114306047D01*
X96090619Y-114886619D01*
X96090619Y-114257666D01*
D16*
X101155500Y-98307071D02*
X101155500Y-97164071D01*
X101590928Y-97164071D01*
X101699785Y-97218500D01*
X101754214Y-97272928D01*
X101808642Y-97381785D01*
X101808642Y-97545071D01*
X101754214Y-97653928D01*
X101699785Y-97708357D01*
X101590928Y-97762785D01*
X101155500Y-97762785D01*
X102298500Y-98307071D02*
X102298500Y-97164071D01*
X102842785Y-98307071D02*
X102842785Y-97164071D01*
X103495928Y-98307071D01*
X103495928Y-97164071D01*
X103985785Y-98252642D02*
X104149071Y-98307071D01*
X104421214Y-98307071D01*
X104530071Y-98252642D01*
X104584500Y-98198214D01*
X104638928Y-98089357D01*
X104638928Y-97980500D01*
X104584500Y-97871642D01*
X104530071Y-97817214D01*
X104421214Y-97762785D01*
X104203500Y-97708357D01*
X104094642Y-97653928D01*
X104040214Y-97599500D01*
X103985785Y-97490642D01*
X103985785Y-97381785D01*
X104040214Y-97272928D01*
X104094642Y-97218500D01*
X104203500Y-97164071D01*
X104475642Y-97164071D01*
X104638928Y-97218500D01*
X101019428Y-96402071D02*
X101019428Y-95259071D01*
X101400428Y-96075500D01*
X101781428Y-95259071D01*
X101781428Y-96402071D01*
X102271285Y-96075500D02*
X102815571Y-96075500D01*
X102162428Y-96402071D02*
X102543428Y-95259071D01*
X102924428Y-96402071D01*
X103849714Y-96402071D02*
X103305428Y-96402071D01*
X103305428Y-95259071D01*
X104230714Y-95803357D02*
X104611714Y-95803357D01*
X104775000Y-96402071D02*
X104230714Y-96402071D01*
X104230714Y-95259071D01*
X104775000Y-95259071D01*
G04 #@! TO.C,J1*
D14*
X74754619Y-115273666D02*
X75480333Y-115273666D01*
X75625476Y-115322047D01*
X75722238Y-115418809D01*
X75770619Y-115563952D01*
X75770619Y-115660714D01*
X75770619Y-114257666D02*
X75770619Y-114838238D01*
X75770619Y-114547952D02*
X74754619Y-114547952D01*
X74899761Y-114644714D01*
X74996523Y-114741476D01*
X75044904Y-114838238D01*
D16*
X78984928Y-98252642D02*
X79148214Y-98307071D01*
X79420357Y-98307071D01*
X79529214Y-98252642D01*
X79583642Y-98198214D01*
X79638071Y-98089357D01*
X79638071Y-97980500D01*
X79583642Y-97871642D01*
X79529214Y-97817214D01*
X79420357Y-97762785D01*
X79202642Y-97708357D01*
X79093785Y-97653928D01*
X79039357Y-97599500D01*
X78984928Y-97490642D01*
X78984928Y-97381785D01*
X79039357Y-97272928D01*
X79093785Y-97218500D01*
X79202642Y-97164071D01*
X79474785Y-97164071D01*
X79638071Y-97218500D01*
X80345642Y-97164071D02*
X80563357Y-97164071D01*
X80672214Y-97218500D01*
X80781071Y-97327357D01*
X80835500Y-97545071D01*
X80835500Y-97926071D01*
X80781071Y-98143785D01*
X80672214Y-98252642D01*
X80563357Y-98307071D01*
X80345642Y-98307071D01*
X80236785Y-98252642D01*
X80127928Y-98143785D01*
X80073500Y-97926071D01*
X80073500Y-97545071D01*
X80127928Y-97327357D01*
X80236785Y-97218500D01*
X80345642Y-97164071D01*
X81978500Y-98198214D02*
X81924071Y-98252642D01*
X81760785Y-98307071D01*
X81651928Y-98307071D01*
X81488642Y-98252642D01*
X81379785Y-98143785D01*
X81325357Y-98034928D01*
X81270928Y-97817214D01*
X81270928Y-97653928D01*
X81325357Y-97436214D01*
X81379785Y-97327357D01*
X81488642Y-97218500D01*
X81651928Y-97164071D01*
X81760785Y-97164071D01*
X81924071Y-97218500D01*
X81978500Y-97272928D01*
X82468357Y-98307071D02*
X82468357Y-97164071D01*
X83121500Y-98307071D02*
X82631642Y-97653928D01*
X83121500Y-97164071D02*
X82468357Y-97817214D01*
X83611357Y-97708357D02*
X83992357Y-97708357D01*
X84155642Y-98307071D02*
X83611357Y-98307071D01*
X83611357Y-97164071D01*
X84155642Y-97164071D01*
X84482214Y-97164071D02*
X85135357Y-97164071D01*
X84808785Y-98307071D02*
X84808785Y-97164071D01*
X85461928Y-98252642D02*
X85625214Y-98307071D01*
X85897357Y-98307071D01*
X86006214Y-98252642D01*
X86060642Y-98198214D01*
X86115071Y-98089357D01*
X86115071Y-97980500D01*
X86060642Y-97871642D01*
X86006214Y-97817214D01*
X85897357Y-97762785D01*
X85679642Y-97708357D01*
X85570785Y-97653928D01*
X85516357Y-97599500D01*
X85461928Y-97490642D01*
X85461928Y-97381785D01*
X85516357Y-97272928D01*
X85570785Y-97218500D01*
X85679642Y-97164071D01*
X85951785Y-97164071D01*
X86115071Y-97218500D01*
X80073500Y-95803357D02*
X79692500Y-95803357D01*
X79692500Y-96402071D02*
X79692500Y-95259071D01*
X80236785Y-95259071D01*
X80672214Y-95803357D02*
X81053214Y-95803357D01*
X81216500Y-96402071D02*
X80672214Y-96402071D01*
X80672214Y-95259071D01*
X81216500Y-95259071D01*
X81706357Y-96402071D02*
X81706357Y-95259071D01*
X82087357Y-96075500D01*
X82468357Y-95259071D01*
X82468357Y-96402071D01*
X82958214Y-96075500D02*
X83502500Y-96075500D01*
X82849357Y-96402071D02*
X83230357Y-95259071D01*
X83611357Y-96402071D01*
X84536642Y-96402071D02*
X83992357Y-96402071D01*
X83992357Y-95259071D01*
X84917642Y-95803357D02*
X85298642Y-95803357D01*
X85461928Y-96402071D02*
X84917642Y-96402071D01*
X84917642Y-95259071D01*
X85461928Y-95259071D01*
G04 #@! TO.C,P1*
D14*
X184670095Y-114124619D02*
X184670095Y-113108619D01*
X185057142Y-113108619D01*
X185153904Y-113157000D01*
X185202285Y-113205380D01*
X185250666Y-113302142D01*
X185250666Y-113447285D01*
X185202285Y-113544047D01*
X185153904Y-113592428D01*
X185057142Y-113640809D01*
X184670095Y-113640809D01*
X186218285Y-114124619D02*
X185637714Y-114124619D01*
X185928000Y-114124619D02*
X185928000Y-113108619D01*
X185831238Y-113253761D01*
X185734476Y-113350523D01*
X185637714Y-113398904D01*
G04 #@! TO.C,L1*
D13*
X189103000Y-120994714D02*
X188740142Y-120994714D01*
X188740142Y-120232714D01*
X189756142Y-120994714D02*
X189320714Y-120994714D01*
X189538428Y-120994714D02*
X189538428Y-120232714D01*
X189465857Y-120341571D01*
X189393285Y-120414142D01*
X189320714Y-120450428D01*
D14*
X189689619Y-116890523D02*
X189205809Y-117229190D01*
X189689619Y-117471095D02*
X188673619Y-117471095D01*
X188673619Y-117084047D01*
X188722000Y-116987285D01*
X188770380Y-116938904D01*
X188867142Y-116890523D01*
X189012285Y-116890523D01*
X189109047Y-116938904D01*
X189157428Y-116987285D01*
X189205809Y-117084047D01*
X189205809Y-117471095D01*
G04 #@! TO.C,L2*
D13*
X77179714Y-125857000D02*
X77179714Y-126219857D01*
X76417714Y-126219857D01*
X76490285Y-125639285D02*
X76454000Y-125603000D01*
X76417714Y-125530428D01*
X76417714Y-125349000D01*
X76454000Y-125276428D01*
X76490285Y-125240142D01*
X76562857Y-125203857D01*
X76635428Y-125203857D01*
X76744285Y-125240142D01*
X77179714Y-125675571D01*
X77179714Y-125203857D01*
D14*
X78232000Y-126463904D02*
X78183619Y-126560666D01*
X78183619Y-126705809D01*
X78232000Y-126850952D01*
X78328761Y-126947714D01*
X78425523Y-126996095D01*
X78619047Y-127044476D01*
X78764190Y-127044476D01*
X78957714Y-126996095D01*
X79054476Y-126947714D01*
X79151238Y-126850952D01*
X79199619Y-126705809D01*
X79199619Y-126609047D01*
X79151238Y-126463904D01*
X79102857Y-126415523D01*
X78764190Y-126415523D01*
X78764190Y-126609047D01*
G04 #@! TO.C,L3*
X80772000Y-126463904D02*
X80723619Y-126560666D01*
X80723619Y-126705809D01*
X80772000Y-126850952D01*
X80868761Y-126947714D01*
X80965523Y-126996095D01*
X81159047Y-127044476D01*
X81304190Y-127044476D01*
X81497714Y-126996095D01*
X81594476Y-126947714D01*
X81691238Y-126850952D01*
X81739619Y-126705809D01*
X81739619Y-126609047D01*
X81691238Y-126463904D01*
X81642857Y-126415523D01*
X81304190Y-126415523D01*
X81304190Y-126609047D01*
G04 #@! TO.C,L4*
X83312000Y-126463904D02*
X83263619Y-126560666D01*
X83263619Y-126705809D01*
X83312000Y-126850952D01*
X83408761Y-126947714D01*
X83505523Y-126996095D01*
X83699047Y-127044476D01*
X83844190Y-127044476D01*
X84037714Y-126996095D01*
X84134476Y-126947714D01*
X84231238Y-126850952D01*
X84279619Y-126705809D01*
X84279619Y-126609047D01*
X84231238Y-126463904D01*
X84182857Y-126415523D01*
X83844190Y-126415523D01*
X83844190Y-126609047D01*
G04 #@! TO.C,L5*
D13*
X88609714Y-125857000D02*
X88609714Y-126219857D01*
X87847714Y-126219857D01*
X87847714Y-125240142D02*
X87847714Y-125603000D01*
X88210571Y-125639285D01*
X88174285Y-125603000D01*
X88138000Y-125530428D01*
X88138000Y-125349000D01*
X88174285Y-125276428D01*
X88210571Y-125240142D01*
X88283142Y-125203857D01*
X88464571Y-125203857D01*
X88537142Y-125240142D01*
X88573428Y-125276428D01*
X88609714Y-125349000D01*
X88609714Y-125530428D01*
X88573428Y-125603000D01*
X88537142Y-125639285D01*
D14*
X85852000Y-126463904D02*
X85803619Y-126560666D01*
X85803619Y-126705809D01*
X85852000Y-126850952D01*
X85948761Y-126947714D01*
X86045523Y-126996095D01*
X86239047Y-127044476D01*
X86384190Y-127044476D01*
X86577714Y-126996095D01*
X86674476Y-126947714D01*
X86771238Y-126850952D01*
X86819619Y-126705809D01*
X86819619Y-126609047D01*
X86771238Y-126463904D01*
X86722857Y-126415523D01*
X86384190Y-126415523D01*
X86384190Y-126609047D01*
G04 #@! TO.C,L6*
D13*
X97499714Y-125857000D02*
X97499714Y-126219857D01*
X96737714Y-126219857D01*
X96737714Y-125276428D02*
X96737714Y-125421571D01*
X96774000Y-125494142D01*
X96810285Y-125530428D01*
X96919142Y-125603000D01*
X97064285Y-125639285D01*
X97354571Y-125639285D01*
X97427142Y-125603000D01*
X97463428Y-125566714D01*
X97499714Y-125494142D01*
X97499714Y-125349000D01*
X97463428Y-125276428D01*
X97427142Y-125240142D01*
X97354571Y-125203857D01*
X97173142Y-125203857D01*
X97100571Y-125240142D01*
X97064285Y-125276428D01*
X97028000Y-125349000D01*
X97028000Y-125494142D01*
X97064285Y-125566714D01*
X97100571Y-125603000D01*
X97173142Y-125639285D01*
D14*
X98552000Y-126463904D02*
X98503619Y-126560666D01*
X98503619Y-126705809D01*
X98552000Y-126850952D01*
X98648761Y-126947714D01*
X98745523Y-126996095D01*
X98939047Y-127044476D01*
X99084190Y-127044476D01*
X99277714Y-126996095D01*
X99374476Y-126947714D01*
X99471238Y-126850952D01*
X99519619Y-126705809D01*
X99519619Y-126609047D01*
X99471238Y-126463904D01*
X99422857Y-126415523D01*
X99084190Y-126415523D01*
X99084190Y-126609047D01*
G04 #@! TO.C,L7*
X101092000Y-126463904D02*
X101043619Y-126560666D01*
X101043619Y-126705809D01*
X101092000Y-126850952D01*
X101188761Y-126947714D01*
X101285523Y-126996095D01*
X101479047Y-127044476D01*
X101624190Y-127044476D01*
X101817714Y-126996095D01*
X101914476Y-126947714D01*
X102011238Y-126850952D01*
X102059619Y-126705809D01*
X102059619Y-126609047D01*
X102011238Y-126463904D01*
X101962857Y-126415523D01*
X101624190Y-126415523D01*
X101624190Y-126609047D01*
G04 #@! TO.C,L8*
X103632000Y-126463904D02*
X103583619Y-126560666D01*
X103583619Y-126705809D01*
X103632000Y-126850952D01*
X103728761Y-126947714D01*
X103825523Y-126996095D01*
X104019047Y-127044476D01*
X104164190Y-127044476D01*
X104357714Y-126996095D01*
X104454476Y-126947714D01*
X104551238Y-126850952D01*
X104599619Y-126705809D01*
X104599619Y-126609047D01*
X104551238Y-126463904D01*
X104502857Y-126415523D01*
X104164190Y-126415523D01*
X104164190Y-126609047D01*
G04 #@! TO.C,L9*
D13*
X108929714Y-125857000D02*
X108929714Y-126219857D01*
X108167714Y-126219857D01*
X108929714Y-125566714D02*
X108929714Y-125421571D01*
X108893428Y-125349000D01*
X108857142Y-125312714D01*
X108748285Y-125240142D01*
X108603142Y-125203857D01*
X108312857Y-125203857D01*
X108240285Y-125240142D01*
X108204000Y-125276428D01*
X108167714Y-125349000D01*
X108167714Y-125494142D01*
X108204000Y-125566714D01*
X108240285Y-125603000D01*
X108312857Y-125639285D01*
X108494285Y-125639285D01*
X108566857Y-125603000D01*
X108603142Y-125566714D01*
X108639428Y-125494142D01*
X108639428Y-125349000D01*
X108603142Y-125276428D01*
X108566857Y-125240142D01*
X108494285Y-125203857D01*
D14*
X106172000Y-126463904D02*
X106123619Y-126560666D01*
X106123619Y-126705809D01*
X106172000Y-126850952D01*
X106268761Y-126947714D01*
X106365523Y-126996095D01*
X106559047Y-127044476D01*
X106704190Y-127044476D01*
X106897714Y-126996095D01*
X106994476Y-126947714D01*
X107091238Y-126850952D01*
X107139619Y-126705809D01*
X107139619Y-126609047D01*
X107091238Y-126463904D01*
X107042857Y-126415523D01*
X106704190Y-126415523D01*
X106704190Y-126609047D01*
G04 #@! TO.C,L10*
D13*
X117184714Y-79229857D02*
X117184714Y-79592714D01*
X116422714Y-79592714D01*
X117184714Y-78576714D02*
X117184714Y-79012142D01*
X117184714Y-78794428D02*
X116422714Y-78794428D01*
X116531571Y-78867000D01*
X116604142Y-78939571D01*
X116640428Y-79012142D01*
X116422714Y-78105000D02*
X116422714Y-78032428D01*
X116459000Y-77959857D01*
X116495285Y-77923571D01*
X116567857Y-77887285D01*
X116713000Y-77851000D01*
X116894428Y-77851000D01*
X117039571Y-77887285D01*
X117112142Y-77923571D01*
X117148428Y-77959857D01*
X117184714Y-78032428D01*
X117184714Y-78105000D01*
X117148428Y-78177571D01*
X117112142Y-78213857D01*
X117039571Y-78250142D01*
X116894428Y-78286428D01*
X116713000Y-78286428D01*
X116567857Y-78250142D01*
X116495285Y-78213857D01*
X116459000Y-78177571D01*
X116422714Y-78105000D01*
D14*
X122551095Y-78232000D02*
X122454333Y-78183619D01*
X122309190Y-78183619D01*
X122164047Y-78232000D01*
X122067285Y-78328761D01*
X122018904Y-78425523D01*
X121970523Y-78619047D01*
X121970523Y-78764190D01*
X122018904Y-78957714D01*
X122067285Y-79054476D01*
X122164047Y-79151238D01*
X122309190Y-79199619D01*
X122405952Y-79199619D01*
X122551095Y-79151238D01*
X122599476Y-79102857D01*
X122599476Y-78764190D01*
X122405952Y-78764190D01*
G04 #@! TO.C,L11*
D13*
X117184714Y-132569857D02*
X117184714Y-132932714D01*
X116422714Y-132932714D01*
X117184714Y-131916714D02*
X117184714Y-132352142D01*
X117184714Y-132134428D02*
X116422714Y-132134428D01*
X116531571Y-132207000D01*
X116604142Y-132279571D01*
X116640428Y-132352142D01*
X117184714Y-131191000D02*
X117184714Y-131626428D01*
X117184714Y-131408714D02*
X116422714Y-131408714D01*
X116531571Y-131481285D01*
X116604142Y-131553857D01*
X116640428Y-131626428D01*
D14*
X122551095Y-131572000D02*
X122454333Y-131523619D01*
X122309190Y-131523619D01*
X122164047Y-131572000D01*
X122067285Y-131668761D01*
X122018904Y-131765523D01*
X121970523Y-131959047D01*
X121970523Y-132104190D01*
X122018904Y-132297714D01*
X122067285Y-132394476D01*
X122164047Y-132491238D01*
X122309190Y-132539619D01*
X122405952Y-132539619D01*
X122551095Y-132491238D01*
X122599476Y-132442857D01*
X122599476Y-132104190D01*
X122405952Y-132104190D01*
G04 #@! TO.C,L12*
D13*
X136234714Y-79229857D02*
X136234714Y-79592714D01*
X135472714Y-79592714D01*
X136234714Y-78576714D02*
X136234714Y-79012142D01*
X136234714Y-78794428D02*
X135472714Y-78794428D01*
X135581571Y-78867000D01*
X135654142Y-78939571D01*
X135690428Y-79012142D01*
X135545285Y-78286428D02*
X135509000Y-78250142D01*
X135472714Y-78177571D01*
X135472714Y-77996142D01*
X135509000Y-77923571D01*
X135545285Y-77887285D01*
X135617857Y-77851000D01*
X135690428Y-77851000D01*
X135799285Y-77887285D01*
X136234714Y-78322714D01*
X136234714Y-77851000D01*
D14*
X141601095Y-78232000D02*
X141504333Y-78183619D01*
X141359190Y-78183619D01*
X141214047Y-78232000D01*
X141117285Y-78328761D01*
X141068904Y-78425523D01*
X141020523Y-78619047D01*
X141020523Y-78764190D01*
X141068904Y-78957714D01*
X141117285Y-79054476D01*
X141214047Y-79151238D01*
X141359190Y-79199619D01*
X141455952Y-79199619D01*
X141601095Y-79151238D01*
X141649476Y-79102857D01*
X141649476Y-78764190D01*
X141455952Y-78764190D01*
G04 #@! TO.C,L13*
D13*
X136234714Y-132569857D02*
X136234714Y-132932714D01*
X135472714Y-132932714D01*
X136234714Y-131916714D02*
X136234714Y-132352142D01*
X136234714Y-132134428D02*
X135472714Y-132134428D01*
X135581571Y-132207000D01*
X135654142Y-132279571D01*
X135690428Y-132352142D01*
X135472714Y-131662714D02*
X135472714Y-131191000D01*
X135763000Y-131445000D01*
X135763000Y-131336142D01*
X135799285Y-131263571D01*
X135835571Y-131227285D01*
X135908142Y-131191000D01*
X136089571Y-131191000D01*
X136162142Y-131227285D01*
X136198428Y-131263571D01*
X136234714Y-131336142D01*
X136234714Y-131553857D01*
X136198428Y-131626428D01*
X136162142Y-131662714D01*
D14*
X141601095Y-131572000D02*
X141504333Y-131523619D01*
X141359190Y-131523619D01*
X141214047Y-131572000D01*
X141117285Y-131668761D01*
X141068904Y-131765523D01*
X141020523Y-131959047D01*
X141020523Y-132104190D01*
X141068904Y-132297714D01*
X141117285Y-132394476D01*
X141214047Y-132491238D01*
X141359190Y-132539619D01*
X141455952Y-132539619D01*
X141601095Y-132491238D01*
X141649476Y-132442857D01*
X141649476Y-132104190D01*
X141455952Y-132104190D01*
G04 #@! TO.C,L14*
D13*
X155284714Y-79229857D02*
X155284714Y-79592714D01*
X154522714Y-79592714D01*
X155284714Y-78576714D02*
X155284714Y-79012142D01*
X155284714Y-78794428D02*
X154522714Y-78794428D01*
X154631571Y-78867000D01*
X154704142Y-78939571D01*
X154740428Y-79012142D01*
X154776714Y-77923571D02*
X155284714Y-77923571D01*
X154486428Y-78105000D02*
X155030714Y-78286428D01*
X155030714Y-77814714D01*
D14*
X160651095Y-78232000D02*
X160554333Y-78183619D01*
X160409190Y-78183619D01*
X160264047Y-78232000D01*
X160167285Y-78328761D01*
X160118904Y-78425523D01*
X160070523Y-78619047D01*
X160070523Y-78764190D01*
X160118904Y-78957714D01*
X160167285Y-79054476D01*
X160264047Y-79151238D01*
X160409190Y-79199619D01*
X160505952Y-79199619D01*
X160651095Y-79151238D01*
X160699476Y-79102857D01*
X160699476Y-78764190D01*
X160505952Y-78764190D01*
G04 #@! TO.C,L15*
D13*
X155284714Y-132569857D02*
X155284714Y-132932714D01*
X154522714Y-132932714D01*
X155284714Y-131916714D02*
X155284714Y-132352142D01*
X155284714Y-132134428D02*
X154522714Y-132134428D01*
X154631571Y-132207000D01*
X154704142Y-132279571D01*
X154740428Y-132352142D01*
X154522714Y-131227285D02*
X154522714Y-131590142D01*
X154885571Y-131626428D01*
X154849285Y-131590142D01*
X154813000Y-131517571D01*
X154813000Y-131336142D01*
X154849285Y-131263571D01*
X154885571Y-131227285D01*
X154958142Y-131191000D01*
X155139571Y-131191000D01*
X155212142Y-131227285D01*
X155248428Y-131263571D01*
X155284714Y-131336142D01*
X155284714Y-131517571D01*
X155248428Y-131590142D01*
X155212142Y-131626428D01*
D14*
X160651095Y-131572000D02*
X160554333Y-131523619D01*
X160409190Y-131523619D01*
X160264047Y-131572000D01*
X160167285Y-131668761D01*
X160118904Y-131765523D01*
X160070523Y-131959047D01*
X160070523Y-132104190D01*
X160118904Y-132297714D01*
X160167285Y-132394476D01*
X160264047Y-132491238D01*
X160409190Y-132539619D01*
X160505952Y-132539619D01*
X160651095Y-132491238D01*
X160699476Y-132442857D01*
X160699476Y-132104190D01*
X160505952Y-132104190D01*
G04 #@! TO.C,L16*
D13*
X174334714Y-79229857D02*
X174334714Y-79592714D01*
X173572714Y-79592714D01*
X174334714Y-78576714D02*
X174334714Y-79012142D01*
X174334714Y-78794428D02*
X173572714Y-78794428D01*
X173681571Y-78867000D01*
X173754142Y-78939571D01*
X173790428Y-79012142D01*
X173572714Y-77923571D02*
X173572714Y-78068714D01*
X173609000Y-78141285D01*
X173645285Y-78177571D01*
X173754142Y-78250142D01*
X173899285Y-78286428D01*
X174189571Y-78286428D01*
X174262142Y-78250142D01*
X174298428Y-78213857D01*
X174334714Y-78141285D01*
X174334714Y-77996142D01*
X174298428Y-77923571D01*
X174262142Y-77887285D01*
X174189571Y-77851000D01*
X174008142Y-77851000D01*
X173935571Y-77887285D01*
X173899285Y-77923571D01*
X173863000Y-77996142D01*
X173863000Y-78141285D01*
X173899285Y-78213857D01*
X173935571Y-78250142D01*
X174008142Y-78286428D01*
D14*
X179701095Y-78232000D02*
X179604333Y-78183619D01*
X179459190Y-78183619D01*
X179314047Y-78232000D01*
X179217285Y-78328761D01*
X179168904Y-78425523D01*
X179120523Y-78619047D01*
X179120523Y-78764190D01*
X179168904Y-78957714D01*
X179217285Y-79054476D01*
X179314047Y-79151238D01*
X179459190Y-79199619D01*
X179555952Y-79199619D01*
X179701095Y-79151238D01*
X179749476Y-79102857D01*
X179749476Y-78764190D01*
X179555952Y-78764190D01*
G04 #@! TO.C,L17*
D13*
X174334714Y-132569857D02*
X174334714Y-132932714D01*
X173572714Y-132932714D01*
X174334714Y-131916714D02*
X174334714Y-132352142D01*
X174334714Y-132134428D02*
X173572714Y-132134428D01*
X173681571Y-132207000D01*
X173754142Y-132279571D01*
X173790428Y-132352142D01*
X173572714Y-131662714D02*
X173572714Y-131154714D01*
X174334714Y-131481285D01*
D14*
X179701095Y-131572000D02*
X179604333Y-131523619D01*
X179459190Y-131523619D01*
X179314047Y-131572000D01*
X179217285Y-131668761D01*
X179168904Y-131765523D01*
X179120523Y-131959047D01*
X179120523Y-132104190D01*
X179168904Y-132297714D01*
X179217285Y-132394476D01*
X179314047Y-132491238D01*
X179459190Y-132539619D01*
X179555952Y-132539619D01*
X179701095Y-132491238D01*
X179749476Y-132442857D01*
X179749476Y-132104190D01*
X179555952Y-132104190D01*
G04 #@! TO.C,J3*
X113961333Y-95963619D02*
X113961333Y-96689333D01*
X113912952Y-96834476D01*
X113816190Y-96931238D01*
X113671047Y-96979619D01*
X113574285Y-96979619D01*
X114348380Y-95963619D02*
X114977333Y-95963619D01*
X114638666Y-96350666D01*
X114783809Y-96350666D01*
X114880571Y-96399047D01*
X114928952Y-96447428D01*
X114977333Y-96544190D01*
X114977333Y-96786095D01*
X114928952Y-96882857D01*
X114880571Y-96931238D01*
X114783809Y-96979619D01*
X114493523Y-96979619D01*
X114396761Y-96931238D01*
X114348380Y-96882857D01*
G04 #@! TO.C,J4*
X113961333Y-113743619D02*
X113961333Y-114469333D01*
X113912952Y-114614476D01*
X113816190Y-114711238D01*
X113671047Y-114759619D01*
X113574285Y-114759619D01*
X114880571Y-114082285D02*
X114880571Y-114759619D01*
X114638666Y-113695238D02*
X114396761Y-114420952D01*
X115025714Y-114420952D01*
G04 #@! TO.C,J5*
X133011333Y-95963619D02*
X133011333Y-96689333D01*
X132962952Y-96834476D01*
X132866190Y-96931238D01*
X132721047Y-96979619D01*
X132624285Y-96979619D01*
X133978952Y-95963619D02*
X133495142Y-95963619D01*
X133446761Y-96447428D01*
X133495142Y-96399047D01*
X133591904Y-96350666D01*
X133833809Y-96350666D01*
X133930571Y-96399047D01*
X133978952Y-96447428D01*
X134027333Y-96544190D01*
X134027333Y-96786095D01*
X133978952Y-96882857D01*
X133930571Y-96931238D01*
X133833809Y-96979619D01*
X133591904Y-96979619D01*
X133495142Y-96931238D01*
X133446761Y-96882857D01*
G04 #@! TO.C,J6*
X133011333Y-113743619D02*
X133011333Y-114469333D01*
X132962952Y-114614476D01*
X132866190Y-114711238D01*
X132721047Y-114759619D01*
X132624285Y-114759619D01*
X133930571Y-113743619D02*
X133737047Y-113743619D01*
X133640285Y-113792000D01*
X133591904Y-113840380D01*
X133495142Y-113985523D01*
X133446761Y-114179047D01*
X133446761Y-114566095D01*
X133495142Y-114662857D01*
X133543523Y-114711238D01*
X133640285Y-114759619D01*
X133833809Y-114759619D01*
X133930571Y-114711238D01*
X133978952Y-114662857D01*
X134027333Y-114566095D01*
X134027333Y-114324190D01*
X133978952Y-114227428D01*
X133930571Y-114179047D01*
X133833809Y-114130666D01*
X133640285Y-114130666D01*
X133543523Y-114179047D01*
X133495142Y-114227428D01*
X133446761Y-114324190D01*
G04 #@! TO.C,J7*
X152061333Y-95963619D02*
X152061333Y-96689333D01*
X152012952Y-96834476D01*
X151916190Y-96931238D01*
X151771047Y-96979619D01*
X151674285Y-96979619D01*
X152448380Y-95963619D02*
X153125714Y-95963619D01*
X152690285Y-96979619D01*
G04 #@! TO.C,J8*
X152061333Y-113743619D02*
X152061333Y-114469333D01*
X152012952Y-114614476D01*
X151916190Y-114711238D01*
X151771047Y-114759619D01*
X151674285Y-114759619D01*
X152690285Y-114179047D02*
X152593523Y-114130666D01*
X152545142Y-114082285D01*
X152496761Y-113985523D01*
X152496761Y-113937142D01*
X152545142Y-113840380D01*
X152593523Y-113792000D01*
X152690285Y-113743619D01*
X152883809Y-113743619D01*
X152980571Y-113792000D01*
X153028952Y-113840380D01*
X153077333Y-113937142D01*
X153077333Y-113985523D01*
X153028952Y-114082285D01*
X152980571Y-114130666D01*
X152883809Y-114179047D01*
X152690285Y-114179047D01*
X152593523Y-114227428D01*
X152545142Y-114275809D01*
X152496761Y-114372571D01*
X152496761Y-114566095D01*
X152545142Y-114662857D01*
X152593523Y-114711238D01*
X152690285Y-114759619D01*
X152883809Y-114759619D01*
X152980571Y-114711238D01*
X153028952Y-114662857D01*
X153077333Y-114566095D01*
X153077333Y-114372571D01*
X153028952Y-114275809D01*
X152980571Y-114227428D01*
X152883809Y-114179047D01*
G04 #@! TO.C,J9*
X171111333Y-95963619D02*
X171111333Y-96689333D01*
X171062952Y-96834476D01*
X170966190Y-96931238D01*
X170821047Y-96979619D01*
X170724285Y-96979619D01*
X171643523Y-96979619D02*
X171837047Y-96979619D01*
X171933809Y-96931238D01*
X171982190Y-96882857D01*
X172078952Y-96737714D01*
X172127333Y-96544190D01*
X172127333Y-96157142D01*
X172078952Y-96060380D01*
X172030571Y-96012000D01*
X171933809Y-95963619D01*
X171740285Y-95963619D01*
X171643523Y-96012000D01*
X171595142Y-96060380D01*
X171546761Y-96157142D01*
X171546761Y-96399047D01*
X171595142Y-96495809D01*
X171643523Y-96544190D01*
X171740285Y-96592571D01*
X171933809Y-96592571D01*
X172030571Y-96544190D01*
X172078952Y-96495809D01*
X172127333Y-96399047D01*
G04 #@! TO.C,J10*
X170627523Y-113743619D02*
X170627523Y-114469333D01*
X170579142Y-114614476D01*
X170482380Y-114711238D01*
X170337238Y-114759619D01*
X170240476Y-114759619D01*
X171643523Y-114759619D02*
X171062952Y-114759619D01*
X171353238Y-114759619D02*
X171353238Y-113743619D01*
X171256476Y-113888761D01*
X171159714Y-113985523D01*
X171062952Y-114033904D01*
X172272476Y-113743619D02*
X172369238Y-113743619D01*
X172466000Y-113792000D01*
X172514380Y-113840380D01*
X172562761Y-113937142D01*
X172611142Y-114130666D01*
X172611142Y-114372571D01*
X172562761Y-114566095D01*
X172514380Y-114662857D01*
X172466000Y-114711238D01*
X172369238Y-114759619D01*
X172272476Y-114759619D01*
X172175714Y-114711238D01*
X172127333Y-114662857D01*
X172078952Y-114566095D01*
X172030571Y-114372571D01*
X172030571Y-114130666D01*
X172078952Y-113937142D01*
X172127333Y-113840380D01*
X172175714Y-113792000D01*
X172272476Y-113743619D01*
G04 #@! TD*
%LPC*%
D17*
G04 #@! TO.C,J2*
X99770000Y-92910000D03*
X99770000Y-117910000D03*
D18*
X102870000Y-119610000D03*
D19*
X102870000Y-91210000D03*
D20*
X101150000Y-110890000D03*
X101150000Y-108150000D03*
X101150000Y-105410000D03*
X101150000Y-102670000D03*
X101150000Y-99930000D03*
X104590000Y-109520000D03*
X104590000Y-106780000D03*
X104590000Y-104040000D03*
X104590000Y-101300000D03*
G04 #@! TD*
D17*
G04 #@! TO.C,J1*
X79450000Y-92910000D03*
X79450000Y-117910000D03*
D18*
X82550000Y-119610000D03*
D19*
X82550000Y-91210000D03*
D20*
X80830000Y-110890000D03*
X80830000Y-108150000D03*
X80830000Y-105410000D03*
X80830000Y-102670000D03*
X80830000Y-99930000D03*
X84270000Y-109520000D03*
X84270000Y-106780000D03*
X84270000Y-104040000D03*
X84270000Y-101300000D03*
G04 #@! TD*
D21*
G04 #@! TO.C,P1*
X175160000Y-109610000D03*
X175160000Y-105410000D03*
X175160000Y-101210000D03*
X180660000Y-109610000D03*
X180660000Y-105410000D03*
D22*
X180660000Y-101210000D03*
D23*
X187960000Y-109610000D03*
X187960000Y-101210000D03*
G04 #@! TD*
D24*
G04 #@! TO.C,MDB1*
X133350000Y-74930000D03*
X130810000Y-74930000D03*
X128270000Y-74930000D03*
X125730000Y-74930000D03*
X123190000Y-74930000D03*
X120650000Y-74930000D03*
X118110000Y-74930000D03*
X115570000Y-74930000D03*
X113030000Y-74930000D03*
X133350000Y-135890000D03*
X130810000Y-135890000D03*
X128270000Y-135890000D03*
X125730000Y-135890000D03*
X123190000Y-135890000D03*
X120650000Y-135890000D03*
X118110000Y-135890000D03*
X115570000Y-135890000D03*
X113030000Y-135890000D03*
D25*
X165100000Y-74930000D03*
X165100000Y-135890000D03*
X73660000Y-130810000D03*
X73660000Y-80010000D03*
D24*
X72390000Y-135890000D03*
X74930000Y-135890000D03*
X77470000Y-135890000D03*
X80010000Y-135890000D03*
X82550000Y-135890000D03*
X85090000Y-135890000D03*
X87630000Y-135890000D03*
X90170000Y-135890000D03*
X92710000Y-135890000D03*
X95250000Y-135890000D03*
X97790000Y-135890000D03*
X100330000Y-135890000D03*
X102870000Y-135890000D03*
X105410000Y-135890000D03*
X107950000Y-135890000D03*
X110490000Y-135890000D03*
X110490000Y-74930000D03*
X107950000Y-74930000D03*
X105410000Y-74930000D03*
X102870000Y-74930000D03*
X100330000Y-74930000D03*
X97790000Y-74930000D03*
X95250000Y-74930000D03*
X92710000Y-74930000D03*
X90170000Y-74930000D03*
X87630000Y-74930000D03*
X85090000Y-74930000D03*
X82550000Y-74930000D03*
X80010000Y-74930000D03*
D26*
X72390000Y-74930000D03*
D24*
X77470000Y-74930000D03*
X74930000Y-74930000D03*
G04 #@! TD*
D27*
G04 #@! TO.C,L1*
X189230000Y-113665000D03*
X189230000Y-118745000D03*
G04 #@! TD*
G04 #@! TO.C,L2*
X78740000Y-128270000D03*
X78740000Y-123190000D03*
G04 #@! TD*
G04 #@! TO.C,L3*
X81280000Y-123190000D03*
X81280000Y-128270000D03*
G04 #@! TD*
G04 #@! TO.C,L4*
X83820000Y-128270000D03*
X83820000Y-123190000D03*
G04 #@! TD*
G04 #@! TO.C,L5*
X86360000Y-123190000D03*
X86360000Y-128270000D03*
G04 #@! TD*
G04 #@! TO.C,L6*
X99060000Y-128270000D03*
X99060000Y-123190000D03*
G04 #@! TD*
G04 #@! TO.C,L7*
X101600000Y-128270000D03*
X101600000Y-123190000D03*
G04 #@! TD*
G04 #@! TO.C,L8*
X104140000Y-123190000D03*
X104140000Y-128270000D03*
G04 #@! TD*
G04 #@! TO.C,L9*
X106680000Y-123190000D03*
X106680000Y-128270000D03*
G04 #@! TD*
D28*
G04 #@! TO.C,L10*
X118745000Y-78740000D03*
X123825000Y-78740000D03*
G04 #@! TD*
G04 #@! TO.C,L11*
X123825000Y-132080000D03*
X118745000Y-132080000D03*
G04 #@! TD*
G04 #@! TO.C,L12*
X142875000Y-78740000D03*
X137795000Y-78740000D03*
G04 #@! TD*
G04 #@! TO.C,L13*
X137795000Y-132080000D03*
X142875000Y-132080000D03*
G04 #@! TD*
G04 #@! TO.C,L14*
X161925000Y-78740000D03*
X156845000Y-78740000D03*
G04 #@! TD*
G04 #@! TO.C,L15*
X156845000Y-132080000D03*
X161925000Y-132080000D03*
G04 #@! TD*
G04 #@! TO.C,L16*
X180975000Y-78740000D03*
X175895000Y-78740000D03*
G04 #@! TD*
G04 #@! TO.C,L17*
X175895000Y-132080000D03*
X180975000Y-132080000D03*
G04 #@! TD*
D29*
G04 #@! TO.C,J3*
X125785000Y-89535000D03*
X116785000Y-89535000D03*
D30*
X126960000Y-89535000D03*
X115610000Y-89535000D03*
D31*
X119515000Y-91305000D03*
X123055000Y-91305000D03*
X123055000Y-87765000D03*
X119515000Y-87765000D03*
X121285000Y-89535000D03*
G04 #@! TD*
D29*
G04 #@! TO.C,J4*
X125785000Y-121285000D03*
X116785000Y-121285000D03*
D30*
X126960000Y-121285000D03*
X115610000Y-121285000D03*
D31*
X119515000Y-123055000D03*
X123055000Y-123055000D03*
X123055000Y-119515000D03*
X119515000Y-119515000D03*
X121285000Y-121285000D03*
G04 #@! TD*
D29*
G04 #@! TO.C,J5*
X144835000Y-89535000D03*
X135835000Y-89535000D03*
D30*
X146010000Y-89535000D03*
X134660000Y-89535000D03*
D31*
X138565000Y-91305000D03*
X142105000Y-91305000D03*
X142105000Y-87765000D03*
X138565000Y-87765000D03*
X140335000Y-89535000D03*
G04 #@! TD*
D29*
G04 #@! TO.C,J6*
X144835000Y-121285000D03*
X135835000Y-121285000D03*
D30*
X146010000Y-121285000D03*
X134660000Y-121285000D03*
D31*
X138565000Y-123055000D03*
X142105000Y-123055000D03*
X142105000Y-119515000D03*
X138565000Y-119515000D03*
X140335000Y-121285000D03*
G04 #@! TD*
G04 #@! TO.C,J7*
X159385000Y-89535000D03*
X157615000Y-87765000D03*
X161155000Y-87765000D03*
X161155000Y-91305000D03*
X157615000Y-91305000D03*
D30*
X153710000Y-89535000D03*
X165060000Y-89535000D03*
D29*
X154885000Y-89535000D03*
X163885000Y-89535000D03*
G04 #@! TD*
D31*
G04 #@! TO.C,J8*
X159385000Y-121285000D03*
X157615000Y-119515000D03*
X161155000Y-119515000D03*
X161155000Y-123055000D03*
X157615000Y-123055000D03*
D30*
X153710000Y-121285000D03*
X165060000Y-121285000D03*
D29*
X154885000Y-121285000D03*
X163885000Y-121285000D03*
G04 #@! TD*
D31*
G04 #@! TO.C,J9*
X178435000Y-89535000D03*
X176665000Y-87765000D03*
X180205000Y-87765000D03*
X180205000Y-91305000D03*
X176665000Y-91305000D03*
D30*
X172760000Y-89535000D03*
X184110000Y-89535000D03*
D29*
X173935000Y-89535000D03*
X182935000Y-89535000D03*
G04 #@! TD*
D31*
G04 #@! TO.C,J10*
X178435000Y-121285000D03*
X176665000Y-119515000D03*
X180205000Y-119515000D03*
X180205000Y-123055000D03*
X176665000Y-123055000D03*
D30*
X172760000Y-121285000D03*
X184110000Y-121285000D03*
D29*
X173935000Y-121285000D03*
X182935000Y-121285000D03*
G04 #@! TD*
M02*
