%FSLAX45Y45*%
G04 Gerber Fmt 4.5, Leading zero omitted, Abs format (unit mm)*
G04 Created by KiCad (PCBNEW 6.0.0-unknown-69339f3~86~ubuntu18.04.1) date 2019-05-17 15:55:21*
%MOMM*%
%LPD*%
G04 APERTURE LIST*
%ADD10C,0.228600*%
%ADD11C,0.200000*%
%ADD12C,0.300000*%
G04 APERTURE END LIST*
D10*
X19113500Y-13779500D02*
G75*
G02X18986500Y-13906500I-127000J0D01*
G01*
X7112000Y-13906500D02*
G75*
G02X6985000Y-13779500I0J127000D01*
G01*
X6985000Y-7302500D02*
G75*
G02X7112000Y-7175500I127000J0D01*
G01*
X18986500Y-7175500D02*
G75*
G02X19113500Y-7302500I0J-127000D01*
G01*
X18986500Y-7175500D02*
X7112000Y-7175500D01*
X19113500Y-13779500D02*
X19113500Y-7302500D01*
X7112000Y-13906500D02*
X18986500Y-13906500D01*
X6985000Y-7302500D02*
X6985000Y-13779500D01*
D11*
X9226210Y-12047110D02*
X9289710Y-12110610D01*
X9289710Y-12047110D02*
X9226210Y-12110610D01*
X9251960Y-12900650D02*
X9315460Y-12964150D01*
X9315460Y-12900650D02*
X9251960Y-12964150D01*
X9484040Y-11898070D02*
X9547540Y-11961570D01*
X9547540Y-11898070D02*
X9484040Y-11961570D01*
X9597700Y-11248970D02*
X9661200Y-11312470D01*
X9661200Y-11248970D02*
X9597700Y-11312470D01*
X9768840Y-9845460D02*
X9832340Y-9908960D01*
X9832340Y-9845460D02*
X9768840Y-9908960D01*
X9877080Y-11512120D02*
X9940580Y-11575620D01*
X9940580Y-11512120D02*
X9877080Y-11575620D01*
X9895910Y-10034160D02*
X9959410Y-10097660D01*
X9959410Y-10034160D02*
X9895910Y-10097660D01*
X9909230Y-12342810D02*
X9972730Y-12406310D01*
X9972730Y-12342810D02*
X9909230Y-12406310D01*
X10008170Y-11386750D02*
X10071670Y-11450250D01*
X10071670Y-11386750D02*
X10008170Y-11450250D01*
X10151200Y-12340880D02*
X10214700Y-12404380D01*
X10214700Y-12340880D02*
X10151200Y-12404380D01*
X10370190Y-11133590D02*
X10433690Y-11197090D01*
X10433690Y-11133590D02*
X10370190Y-11197090D01*
X10473030Y-12341910D02*
X10536530Y-12405410D01*
X10536530Y-12341910D02*
X10473030Y-12405410D01*
X10546310Y-9924500D02*
X10609810Y-9988000D01*
X10609810Y-9924500D02*
X10546310Y-9988000D01*
X10775360Y-12234630D02*
X10838860Y-12298130D01*
X10838860Y-12234630D02*
X10775360Y-12298130D01*
X11115430Y-10678790D02*
X11178930Y-10742290D01*
X11178930Y-10678790D02*
X11115430Y-10742290D01*
X11486370Y-10235450D02*
X11549870Y-10298950D01*
X11549870Y-10235450D02*
X11486370Y-10298950D01*
X11534090Y-10756180D02*
X11597590Y-10819680D01*
X11597590Y-10756180D02*
X11534090Y-10819680D01*
X11621520Y-10181000D02*
X11685020Y-10244500D01*
X11685020Y-10181000D02*
X11621520Y-10244500D01*
X11631520Y-13119460D02*
X11695020Y-13182960D01*
X11695020Y-13119460D02*
X11631520Y-13182960D01*
X11642430Y-7778750D02*
X11705930Y-7842250D01*
X11705930Y-7778750D02*
X11642430Y-7842250D01*
X12042010Y-9330490D02*
X12105510Y-9393990D01*
X12105510Y-9330490D02*
X12042010Y-9393990D01*
X12064980Y-12300190D02*
X12128480Y-12363690D01*
X12128480Y-12300190D02*
X12064980Y-12363690D01*
X12095020Y-9095290D02*
X12158520Y-9158790D01*
X12158520Y-9095290D02*
X12095020Y-9158790D01*
X12191750Y-12456190D02*
X12255250Y-12519690D01*
X12255250Y-12456190D02*
X12191750Y-12519690D01*
X12380180Y-10612420D02*
X12443680Y-10675920D01*
X12443680Y-10612420D02*
X12380180Y-10675920D01*
X12457860Y-11433820D02*
X12521360Y-11497320D01*
X12521360Y-11433820D02*
X12457860Y-11497320D01*
X12814620Y-9797160D02*
X12878120Y-9860660D01*
X12878120Y-9797160D02*
X12814620Y-9860660D01*
X13227890Y-8227610D02*
X13291390Y-8291110D01*
X13291390Y-8227610D02*
X13227890Y-8291110D01*
X13562110Y-7784700D02*
X13625610Y-7848200D01*
X13625610Y-7784700D02*
X13562110Y-7848200D01*
X13661390Y-13100300D02*
X13724890Y-13163800D01*
X13724890Y-13100300D02*
X13661390Y-13163800D01*
X13664540Y-12987810D02*
X13728040Y-13051310D01*
X13728040Y-12987810D02*
X13664540Y-13051310D01*
X13977270Y-12288300D02*
X14040770Y-12351800D01*
X14040770Y-12288300D02*
X13977270Y-12351800D01*
X14058340Y-10970640D02*
X14121840Y-11034140D01*
X14121840Y-10970640D02*
X14058340Y-11034140D01*
X14211350Y-8610110D02*
X14274850Y-8673610D01*
X14274850Y-8610110D02*
X14211350Y-8673610D01*
X14866460Y-10048890D02*
X14929960Y-10112390D01*
X14929960Y-10048890D02*
X14866460Y-10112390D01*
X14963610Y-11087480D02*
X15027110Y-11150980D01*
X15027110Y-11087480D02*
X14963610Y-11150980D01*
X15454310Y-13239750D02*
X15517810Y-13303250D01*
X15517810Y-13239750D02*
X15454310Y-13303250D01*
X15716930Y-8001650D02*
X15780430Y-8065150D01*
X15780430Y-8001650D02*
X15716930Y-8065150D01*
X15882030Y-10786420D02*
X15945530Y-10849920D01*
X15945530Y-10786420D02*
X15882030Y-10849920D01*
X15885290Y-12258190D02*
X15948790Y-12321690D01*
X15948790Y-12258190D02*
X15885290Y-12321690D01*
X16142280Y-8619330D02*
X16205780Y-8682830D01*
X16205780Y-8619330D02*
X16142280Y-8682830D01*
X16212210Y-10433190D02*
X16275710Y-10496690D01*
X16275710Y-10433190D02*
X16212210Y-10496690D01*
X16266170Y-10609380D02*
X16329670Y-10672880D01*
X16329670Y-10609380D02*
X16266170Y-10672880D01*
X17516560Y-7931990D02*
X17580060Y-7995490D01*
X17580060Y-7931990D02*
X17516560Y-7995490D01*
X17687540Y-13088120D02*
X17751040Y-13151620D01*
X17751040Y-13088120D02*
X17687540Y-13151620D01*
X17812940Y-12261640D02*
X17876440Y-12325140D01*
X17876440Y-12261640D02*
X17812940Y-12325140D01*
X17894240Y-8650240D02*
X17957740Y-8713740D01*
X17957740Y-8650240D02*
X17894240Y-8713740D01*
X13241660Y-10748250D02*
G75*
G03X13241660Y-10748250I-35560J0D01*
G01*
X15772070Y-10624890D02*
G75*
G03X15772070Y-10624890I-35560J0D01*
G01*
X15788110Y-10844430D02*
G75*
G03X15788110Y-10844430I-35560J0D01*
G01*
X7239000Y-7438390D02*
X7239000Y-7547610D01*
X7184390Y-7493000D02*
X7293610Y-7493000D01*
X7493000Y-7438390D02*
X7493000Y-7547610D01*
X7438390Y-7493000D02*
X7547610Y-7493000D01*
X7747000Y-7438390D02*
X7747000Y-7547610D01*
X7692390Y-7493000D02*
X7801610Y-7493000D01*
X8001000Y-7438390D02*
X8001000Y-7547610D01*
X7946390Y-7493000D02*
X8055610Y-7493000D01*
X8255000Y-7438390D02*
X8255000Y-7547610D01*
X8200390Y-7493000D02*
X8309610Y-7493000D01*
X8509000Y-7438390D02*
X8509000Y-7547610D01*
X8454390Y-7493000D02*
X8563610Y-7493000D01*
X8763000Y-7438390D02*
X8763000Y-7547610D01*
X8708390Y-7493000D02*
X8817610Y-7493000D01*
X9017000Y-7438390D02*
X9017000Y-7547610D01*
X8962390Y-7493000D02*
X9071610Y-7493000D01*
X9271000Y-7438390D02*
X9271000Y-7547610D01*
X9216390Y-7493000D02*
X9325610Y-7493000D01*
X9525000Y-7438390D02*
X9525000Y-7547610D01*
X9470390Y-7493000D02*
X9579610Y-7493000D01*
X9779000Y-7438390D02*
X9779000Y-7547610D01*
X9724390Y-7493000D02*
X9833610Y-7493000D01*
X10033000Y-7438390D02*
X10033000Y-7547610D01*
X9978390Y-7493000D02*
X10087610Y-7493000D01*
X10287000Y-7438390D02*
X10287000Y-7547610D01*
X10232390Y-7493000D02*
X10341610Y-7493000D01*
X10541000Y-7438390D02*
X10541000Y-7547610D01*
X10486390Y-7493000D02*
X10595610Y-7493000D01*
X10795000Y-7438390D02*
X10795000Y-7547610D01*
X10740390Y-7493000D02*
X10849610Y-7493000D01*
X11049000Y-7438390D02*
X11049000Y-7547610D01*
X10994390Y-7493000D02*
X11103610Y-7493000D01*
X11303000Y-7438390D02*
X11303000Y-7547610D01*
X11248390Y-7493000D02*
X11357610Y-7493000D01*
X11557000Y-7438390D02*
X11557000Y-7547610D01*
X11502390Y-7493000D02*
X11611610Y-7493000D01*
X11811000Y-7438390D02*
X11811000Y-7547610D01*
X11756390Y-7493000D02*
X11865610Y-7493000D01*
X12065000Y-7438390D02*
X12065000Y-7547610D01*
X12010390Y-7493000D02*
X12119610Y-7493000D01*
X12319000Y-7438390D02*
X12319000Y-7547610D01*
X12264390Y-7493000D02*
X12373610Y-7493000D01*
X12573000Y-7438390D02*
X12573000Y-7547610D01*
X12518390Y-7493000D02*
X12627610Y-7493000D01*
X12827000Y-7438390D02*
X12827000Y-7547610D01*
X12772390Y-7493000D02*
X12881610Y-7493000D01*
X13081000Y-7438390D02*
X13081000Y-7547610D01*
X13026390Y-7493000D02*
X13135610Y-7493000D01*
X13335000Y-7438390D02*
X13335000Y-7547610D01*
X13280390Y-7493000D02*
X13389610Y-7493000D01*
X7239000Y-13534390D02*
X7239000Y-13643610D01*
X7184390Y-13589000D02*
X7293610Y-13589000D01*
X7493000Y-13534390D02*
X7493000Y-13643610D01*
X7438390Y-13589000D02*
X7547610Y-13589000D01*
X7747000Y-13534390D02*
X7747000Y-13643610D01*
X7692390Y-13589000D02*
X7801610Y-13589000D01*
X8001000Y-13534390D02*
X8001000Y-13643610D01*
X7946390Y-13589000D02*
X8055610Y-13589000D01*
X8255000Y-13534390D02*
X8255000Y-13643610D01*
X8200390Y-13589000D02*
X8309610Y-13589000D01*
X8509000Y-13534390D02*
X8509000Y-13643610D01*
X8454390Y-13589000D02*
X8563610Y-13589000D01*
X8763000Y-13534390D02*
X8763000Y-13643610D01*
X8708390Y-13589000D02*
X8817610Y-13589000D01*
X9017000Y-13534390D02*
X9017000Y-13643610D01*
X8962390Y-13589000D02*
X9071610Y-13589000D01*
X9271000Y-13534390D02*
X9271000Y-13643610D01*
X9216390Y-13589000D02*
X9325610Y-13589000D01*
X9525000Y-13534390D02*
X9525000Y-13643610D01*
X9470390Y-13589000D02*
X9579610Y-13589000D01*
X9779000Y-13534390D02*
X9779000Y-13643610D01*
X9724390Y-13589000D02*
X9833610Y-13589000D01*
X10033000Y-13534390D02*
X10033000Y-13643610D01*
X9978390Y-13589000D02*
X10087610Y-13589000D01*
X10287000Y-13534390D02*
X10287000Y-13643610D01*
X10232390Y-13589000D02*
X10341610Y-13589000D01*
X10541000Y-13534390D02*
X10541000Y-13643610D01*
X10486390Y-13589000D02*
X10595610Y-13589000D01*
X10795000Y-13534390D02*
X10795000Y-13643610D01*
X10740390Y-13589000D02*
X10849610Y-13589000D01*
X11049000Y-13534390D02*
X11049000Y-13643610D01*
X10994390Y-13589000D02*
X11103610Y-13589000D01*
X11303000Y-13534390D02*
X11303000Y-13643610D01*
X11248390Y-13589000D02*
X11357610Y-13589000D01*
X11557000Y-13534390D02*
X11557000Y-13643610D01*
X11502390Y-13589000D02*
X11611610Y-13589000D01*
X11811000Y-13534390D02*
X11811000Y-13643610D01*
X11756390Y-13589000D02*
X11865610Y-13589000D01*
X12065000Y-13534390D02*
X12065000Y-13643610D01*
X12010390Y-13589000D02*
X12119610Y-13589000D01*
X12319000Y-13534390D02*
X12319000Y-13643610D01*
X12264390Y-13589000D02*
X12373610Y-13589000D01*
X12573000Y-13534390D02*
X12573000Y-13643610D01*
X12518390Y-13589000D02*
X12627610Y-13589000D01*
X12827000Y-13534390D02*
X12827000Y-13643610D01*
X12772390Y-13589000D02*
X12881610Y-13589000D01*
X13081000Y-13534390D02*
X13081000Y-13643610D01*
X13026390Y-13589000D02*
X13135610Y-13589000D01*
X13335000Y-13534390D02*
X13335000Y-13643610D01*
X13280390Y-13589000D02*
X13389610Y-13589000D01*
X12617391Y-12167391D02*
X12617391Y-12089609D01*
X12539609Y-12089609D01*
X12539609Y-12167391D01*
X12617391Y-12167391D01*
X18332391Y-12167391D02*
X18332391Y-12089609D01*
X18254609Y-12089609D01*
X18254609Y-12167391D01*
X18332391Y-12167391D01*
X16427391Y-12167391D02*
X16427391Y-12089609D01*
X16349609Y-12089609D01*
X16349609Y-12167391D01*
X16427391Y-12167391D01*
X16427391Y-8992391D02*
X16427391Y-8914609D01*
X16349609Y-8914609D01*
X16349609Y-8992391D01*
X16427391Y-8992391D01*
X12617391Y-8992391D02*
X12617391Y-8914609D01*
X12539609Y-8914609D01*
X12539609Y-8992391D01*
X12617391Y-8992391D01*
X18332391Y-8992391D02*
X18332391Y-8914609D01*
X18254609Y-8914609D01*
X18254609Y-8992391D01*
X18332391Y-8992391D01*
X14522391Y-8992391D02*
X14522391Y-8914609D01*
X14444609Y-8914609D01*
X14444609Y-8992391D01*
X14522391Y-8992391D01*
X14522391Y-12167391D02*
X14522391Y-12089609D01*
X14444609Y-12089609D01*
X14444609Y-12167391D01*
X14522391Y-12167391D01*
X7621940Y-9549930D02*
X7677820Y-9494050D01*
X7621940Y-9438170D01*
X7566060Y-9494050D01*
X7621940Y-9549930D01*
X7856290Y-10322880D02*
X7912170Y-10267000D01*
X7856290Y-10211120D01*
X7800410Y-10267000D01*
X7856290Y-10322880D01*
X7856290Y-10870880D02*
X7912170Y-10815000D01*
X7856290Y-10759120D01*
X7800410Y-10815000D01*
X7856290Y-10870880D01*
X8653710Y-10708170D02*
X8709590Y-10652290D01*
X8653710Y-10596410D01*
X8597830Y-10652290D01*
X8653710Y-10708170D01*
X8862080Y-10487870D02*
X8917960Y-10431990D01*
X8862080Y-10376110D01*
X8806200Y-10431990D01*
X8862080Y-10487870D01*
X17318500Y-12053500D02*
X17468500Y-12203500D01*
X17468500Y-12053500D02*
X17318500Y-12203500D01*
X17468500Y-12128500D02*
G75*
G03X17468500Y-12128500I-75000J0D01*
G01*
X15413500Y-12053500D02*
X15563500Y-12203500D01*
X15563500Y-12053500D02*
X15413500Y-12203500D01*
X15563500Y-12128500D02*
G75*
G03X15563500Y-12128500I-75000J0D01*
G01*
X15413500Y-8878500D02*
X15563500Y-9028500D01*
X15563500Y-8878500D02*
X15413500Y-9028500D01*
X15563500Y-8953500D02*
G75*
G03X15563500Y-8953500I-75000J0D01*
G01*
X11603500Y-8878500D02*
X11753500Y-9028500D01*
X11753500Y-8878500D02*
X11603500Y-9028500D01*
X11753500Y-8953500D02*
G75*
G03X11753500Y-8953500I-75000J0D01*
G01*
X17318500Y-8878500D02*
X17468500Y-9028500D01*
X17468500Y-8878500D02*
X17318500Y-9028500D01*
X17468500Y-8953500D02*
G75*
G03X17468500Y-8953500I-75000J0D01*
G01*
X13508500Y-8878500D02*
X13658500Y-9028500D01*
X13658500Y-8878500D02*
X13508500Y-9028500D01*
X13658500Y-8953500D02*
G75*
G03X13658500Y-8953500I-75000J0D01*
G01*
X13508500Y-12053500D02*
X13658500Y-12203500D01*
X13658500Y-12053500D02*
X13508500Y-12203500D01*
X13658500Y-12128500D02*
G75*
G03X13658500Y-12128500I-75000J0D01*
G01*
X11603500Y-12053500D02*
X11753500Y-12203500D01*
X11753500Y-12053500D02*
X11603500Y-12203500D01*
X11753500Y-12128500D02*
G75*
G03X11753500Y-12128500I-75000J0D01*
G01*
X7855000Y-9201000D02*
X8035000Y-9381000D01*
X8035000Y-9201000D02*
X7855000Y-9381000D01*
X7945000Y-9201000D02*
X7945000Y-9381000D01*
X7855000Y-9291000D02*
X8035000Y-9291000D01*
X7855000Y-11701000D02*
X8035000Y-11881000D01*
X8035000Y-11701000D02*
X7855000Y-11881000D01*
X7945000Y-11701000D02*
X7945000Y-11881000D01*
X7855000Y-11791000D02*
X8035000Y-11791000D01*
X17426000Y-10031000D02*
X17606000Y-10211000D01*
X17606000Y-10031000D02*
X17426000Y-10211000D01*
X17516000Y-10031000D02*
X17516000Y-10211000D01*
X17426000Y-10121000D02*
X17606000Y-10121000D01*
X17426000Y-10451000D02*
X17606000Y-10631000D01*
X17606000Y-10451000D02*
X17426000Y-10631000D01*
X17516000Y-10451000D02*
X17516000Y-10631000D01*
X17426000Y-10541000D02*
X17606000Y-10541000D01*
X17426000Y-10871000D02*
X17606000Y-11051000D01*
X17606000Y-10871000D02*
X17426000Y-11051000D01*
X17516000Y-10871000D02*
X17516000Y-11051000D01*
X17426000Y-10961000D02*
X17606000Y-10961000D01*
X17976000Y-10031000D02*
X18156000Y-10211000D01*
X18156000Y-10031000D02*
X17976000Y-10211000D01*
X18066000Y-10031000D02*
X18066000Y-10211000D01*
X17976000Y-10121000D02*
X18156000Y-10121000D01*
X17976000Y-10451000D02*
X18156000Y-10631000D01*
X18156000Y-10451000D02*
X17976000Y-10631000D01*
X18066000Y-10451000D02*
X18066000Y-10631000D01*
X17976000Y-10541000D02*
X18156000Y-10541000D01*
X17976000Y-10871000D02*
X18156000Y-11051000D01*
X18156000Y-10871000D02*
X17976000Y-11051000D01*
X18066000Y-10871000D02*
X18066000Y-11051000D01*
X17976000Y-10961000D02*
X18156000Y-10961000D01*
X9887000Y-9201000D02*
X10067000Y-9381000D01*
X10067000Y-9201000D02*
X9887000Y-9381000D01*
X9977000Y-9201000D02*
X9977000Y-9381000D01*
X9887000Y-9291000D02*
X10067000Y-9291000D01*
X9887000Y-11701000D02*
X10067000Y-11881000D01*
X10067000Y-11701000D02*
X9887000Y-11881000D01*
X9977000Y-11701000D02*
X9977000Y-11881000D01*
X9887000Y-11791000D02*
X10067000Y-11791000D01*
X18646000Y-9971000D02*
X18946000Y-10271000D01*
X18946000Y-9971000D02*
X18646000Y-10271000D01*
X18902067Y-10227067D02*
X18902067Y-10014933D01*
X18689933Y-10014933D01*
X18689933Y-10227067D01*
X18902067Y-10227067D01*
X18646000Y-10811000D02*
X18946000Y-11111000D01*
X18946000Y-10811000D02*
X18646000Y-11111000D01*
X18902067Y-11067067D02*
X18902067Y-10854933D01*
X18689933Y-10854933D01*
X18689933Y-11067067D01*
X18902067Y-11067067D01*
X7200900Y-12915900D02*
X7531100Y-13246100D01*
X7531100Y-12915900D02*
X7200900Y-13246100D01*
X7366000Y-13246100D02*
X7531100Y-13081000D01*
X7366000Y-12915900D01*
X7200900Y-13081000D01*
X7366000Y-13246100D01*
X16344900Y-13423900D02*
X16675100Y-13754100D01*
X16675100Y-13423900D02*
X16344900Y-13754100D01*
X16510000Y-13754100D02*
X16675100Y-13589000D01*
X16510000Y-13423900D01*
X16344900Y-13589000D01*
X16510000Y-13754100D01*
X16344900Y-7327900D02*
X16675100Y-7658100D01*
X16675100Y-7327900D02*
X16344900Y-7658100D01*
X16510000Y-7658100D02*
X16675100Y-7493000D01*
X16510000Y-7327900D01*
X16344900Y-7493000D01*
X16510000Y-7658100D01*
X7200900Y-7835900D02*
X7531100Y-8166100D01*
X7531100Y-7835900D02*
X7200900Y-8166100D01*
X7366000Y-8166100D02*
X7531100Y-8001000D01*
X7366000Y-7835900D01*
X7200900Y-8001000D01*
X7366000Y-8166100D01*
D12*
X7259998Y-14383644D02*
X7259998Y-14083644D01*
X7331427Y-14083644D01*
X7374284Y-14097930D01*
X7402856Y-14126501D01*
X7417141Y-14155073D01*
X7431427Y-14212216D01*
X7431427Y-14255073D01*
X7417141Y-14312216D01*
X7402856Y-14340787D01*
X7374284Y-14369359D01*
X7331427Y-14383644D01*
X7259998Y-14383644D01*
X7559998Y-14383644D02*
X7559998Y-14183644D01*
X7559998Y-14240787D02*
X7574284Y-14212216D01*
X7588570Y-14197930D01*
X7617141Y-14183644D01*
X7645713Y-14183644D01*
X7745713Y-14383644D02*
X7745713Y-14183644D01*
X7745713Y-14083644D02*
X7731427Y-14097930D01*
X7745713Y-14112216D01*
X7759998Y-14097930D01*
X7745713Y-14083644D01*
X7745713Y-14112216D01*
X7931427Y-14383644D02*
X7902856Y-14369359D01*
X7888570Y-14340787D01*
X7888570Y-14083644D01*
X8088570Y-14383644D02*
X8059998Y-14369359D01*
X8045713Y-14340787D01*
X8045713Y-14083644D01*
X8431427Y-14383644D02*
X8431427Y-14083644D01*
X8531427Y-14297930D01*
X8631427Y-14083644D01*
X8631427Y-14383644D01*
X8902856Y-14383644D02*
X8902856Y-14226501D01*
X8888570Y-14197930D01*
X8859998Y-14183644D01*
X8802856Y-14183644D01*
X8774284Y-14197930D01*
X8902856Y-14369359D02*
X8874284Y-14383644D01*
X8802856Y-14383644D01*
X8774284Y-14369359D01*
X8759998Y-14340787D01*
X8759998Y-14312216D01*
X8774284Y-14283644D01*
X8802856Y-14269359D01*
X8874284Y-14269359D01*
X8902856Y-14255073D01*
X9045713Y-14183644D02*
X9045713Y-14483644D01*
X9045713Y-14197930D02*
X9074284Y-14183644D01*
X9131427Y-14183644D01*
X9159998Y-14197930D01*
X9174284Y-14212216D01*
X9188570Y-14240787D01*
X9188570Y-14326501D01*
X9174284Y-14355073D01*
X9159998Y-14369359D01*
X9131427Y-14383644D01*
X9074284Y-14383644D01*
X9045713Y-14369359D01*
X9317141Y-14355073D02*
X9331427Y-14369359D01*
X9317141Y-14383644D01*
X9302856Y-14369359D01*
X9317141Y-14355073D01*
X9317141Y-14383644D01*
X9317141Y-14197930D02*
X9331427Y-14212216D01*
X9317141Y-14226501D01*
X9302856Y-14212216D01*
X9317141Y-14197930D01*
X9317141Y-14226501D01*
X6910070Y-14846180D02*
X6973570Y-14909680D01*
X6973570Y-14846180D02*
X6910070Y-14909680D01*
X7317141Y-14713644D02*
X7345713Y-14713644D01*
X7374284Y-14727930D01*
X7388570Y-14742216D01*
X7402856Y-14770787D01*
X7417141Y-14827930D01*
X7417141Y-14899359D01*
X7402856Y-14956501D01*
X7388570Y-14985073D01*
X7374284Y-14999359D01*
X7345713Y-15013644D01*
X7317141Y-15013644D01*
X7288570Y-14999359D01*
X7274284Y-14985073D01*
X7259998Y-14956501D01*
X7245713Y-14899359D01*
X7245713Y-14827930D01*
X7259998Y-14770787D01*
X7274284Y-14742216D01*
X7288570Y-14727930D01*
X7317141Y-14713644D01*
X7545713Y-14985073D02*
X7559998Y-14999359D01*
X7545713Y-15013644D01*
X7531427Y-14999359D01*
X7545713Y-14985073D01*
X7545713Y-15013644D01*
X7817141Y-14713644D02*
X7759998Y-14713644D01*
X7731427Y-14727930D01*
X7717141Y-14742216D01*
X7688570Y-14785073D01*
X7674284Y-14842216D01*
X7674284Y-14956501D01*
X7688570Y-14985073D01*
X7702856Y-14999359D01*
X7731427Y-15013644D01*
X7788570Y-15013644D01*
X7817141Y-14999359D01*
X7831427Y-14985073D01*
X7845713Y-14956501D01*
X7845713Y-14885073D01*
X7831427Y-14856501D01*
X7817141Y-14842216D01*
X7788570Y-14827930D01*
X7731427Y-14827930D01*
X7702856Y-14842216D01*
X7688570Y-14856501D01*
X7674284Y-14885073D01*
X8102856Y-14813644D02*
X8102856Y-15013644D01*
X8031427Y-14699359D02*
X7959998Y-14913644D01*
X8145713Y-14913644D01*
X8259998Y-15013644D02*
X8259998Y-14813644D01*
X8259998Y-14842216D02*
X8274284Y-14827930D01*
X8302856Y-14813644D01*
X8345713Y-14813644D01*
X8374284Y-14827930D01*
X8388570Y-14856501D01*
X8388570Y-15013644D01*
X8388570Y-14856501D02*
X8402856Y-14827930D01*
X8431427Y-14813644D01*
X8474284Y-14813644D01*
X8502856Y-14827930D01*
X8517141Y-14856501D01*
X8517141Y-15013644D01*
X8659998Y-15013644D02*
X8659998Y-14813644D01*
X8659998Y-14842216D02*
X8674284Y-14827930D01*
X8702856Y-14813644D01*
X8745713Y-14813644D01*
X8774284Y-14827930D01*
X8788570Y-14856501D01*
X8788570Y-15013644D01*
X8788570Y-14856501D02*
X8802856Y-14827930D01*
X8831427Y-14813644D01*
X8874284Y-14813644D01*
X8902856Y-14827930D01*
X8917141Y-14856501D01*
X8917141Y-15013644D01*
X9502856Y-14699359D02*
X9245713Y-15085073D01*
X9888570Y-14713644D02*
X9917141Y-14713644D01*
X9945713Y-14727930D01*
X9959998Y-14742216D01*
X9974284Y-14770787D01*
X9988570Y-14827930D01*
X9988570Y-14899359D01*
X9974284Y-14956501D01*
X9959998Y-14985073D01*
X9945713Y-14999359D01*
X9917141Y-15013644D01*
X9888570Y-15013644D01*
X9859998Y-14999359D01*
X9845713Y-14985073D01*
X9831427Y-14956501D01*
X9817141Y-14899359D01*
X9817141Y-14827930D01*
X9831427Y-14770787D01*
X9845713Y-14742216D01*
X9859998Y-14727930D01*
X9888570Y-14713644D01*
X10117141Y-14985073D02*
X10131427Y-14999359D01*
X10117141Y-15013644D01*
X10102856Y-14999359D01*
X10117141Y-14985073D01*
X10117141Y-15013644D01*
X10317141Y-14713644D02*
X10345713Y-14713644D01*
X10374284Y-14727930D01*
X10388570Y-14742216D01*
X10402856Y-14770787D01*
X10417141Y-14827930D01*
X10417141Y-14899359D01*
X10402856Y-14956501D01*
X10388570Y-14985073D01*
X10374284Y-14999359D01*
X10345713Y-15013644D01*
X10317141Y-15013644D01*
X10288570Y-14999359D01*
X10274284Y-14985073D01*
X10259998Y-14956501D01*
X10245713Y-14899359D01*
X10245713Y-14827930D01*
X10259998Y-14770787D01*
X10274284Y-14742216D01*
X10288570Y-14727930D01*
X10317141Y-14713644D01*
X10531427Y-14742216D02*
X10545713Y-14727930D01*
X10574284Y-14713644D01*
X10645713Y-14713644D01*
X10674284Y-14727930D01*
X10688570Y-14742216D01*
X10702856Y-14770787D01*
X10702856Y-14799359D01*
X10688570Y-14842216D01*
X10517141Y-15013644D01*
X10702856Y-15013644D01*
X10974284Y-14713644D02*
X10831427Y-14713644D01*
X10817141Y-14856501D01*
X10831427Y-14842216D01*
X10859998Y-14827930D01*
X10931427Y-14827930D01*
X10959998Y-14842216D01*
X10974284Y-14856501D01*
X10988570Y-14885073D01*
X10988570Y-14956501D01*
X10974284Y-14985073D01*
X10959998Y-14999359D01*
X10931427Y-15013644D01*
X10859998Y-15013644D01*
X10831427Y-14999359D01*
X10817141Y-14985073D01*
X11102856Y-14713644D02*
X11102856Y-14770787D01*
X11217141Y-14713644D02*
X11217141Y-14770787D01*
X11659998Y-15127930D02*
X11645713Y-15113644D01*
X11617141Y-15070787D01*
X11602856Y-15042216D01*
X11588570Y-14999359D01*
X11574284Y-14927930D01*
X11574284Y-14870787D01*
X11588570Y-14799359D01*
X11602856Y-14756501D01*
X11617141Y-14727930D01*
X11645713Y-14685073D01*
X11659998Y-14670787D01*
X11902856Y-14813644D02*
X11902856Y-15013644D01*
X11831427Y-14699359D02*
X11759998Y-14913644D01*
X11945713Y-14913644D01*
X12031427Y-14713644D02*
X12231427Y-14713644D01*
X12102856Y-15013644D01*
X12574284Y-15013644D02*
X12574284Y-14713644D01*
X12702856Y-15013644D02*
X12702856Y-14856501D01*
X12688570Y-14827930D01*
X12659998Y-14813644D01*
X12617141Y-14813644D01*
X12588570Y-14827930D01*
X12574284Y-14842216D01*
X12888570Y-15013644D02*
X12859998Y-14999359D01*
X12845713Y-14985073D01*
X12831427Y-14956501D01*
X12831427Y-14870787D01*
X12845713Y-14842216D01*
X12859998Y-14827930D01*
X12888570Y-14813644D01*
X12931427Y-14813644D01*
X12959998Y-14827930D01*
X12974284Y-14842216D01*
X12988570Y-14870787D01*
X12988570Y-14956501D01*
X12974284Y-14985073D01*
X12959998Y-14999359D01*
X12931427Y-15013644D01*
X12888570Y-15013644D01*
X13159998Y-15013644D02*
X13131427Y-14999359D01*
X13117141Y-14970787D01*
X13117141Y-14713644D01*
X13388570Y-14999359D02*
X13359998Y-15013644D01*
X13302856Y-15013644D01*
X13274284Y-14999359D01*
X13259998Y-14970787D01*
X13259998Y-14856501D01*
X13274284Y-14827930D01*
X13302856Y-14813644D01*
X13359998Y-14813644D01*
X13388570Y-14827930D01*
X13402856Y-14856501D01*
X13402856Y-14885073D01*
X13259998Y-14913644D01*
X13517141Y-14999359D02*
X13545713Y-15013644D01*
X13602856Y-15013644D01*
X13631427Y-14999359D01*
X13645713Y-14970787D01*
X13645713Y-14956501D01*
X13631427Y-14927930D01*
X13602856Y-14913644D01*
X13559998Y-14913644D01*
X13531427Y-14899359D01*
X13517141Y-14870787D01*
X13517141Y-14856501D01*
X13531427Y-14827930D01*
X13559998Y-14813644D01*
X13602856Y-14813644D01*
X13631427Y-14827930D01*
X13745713Y-15127930D02*
X13759998Y-15113644D01*
X13788570Y-15070787D01*
X13802856Y-15042216D01*
X13817141Y-14999359D01*
X13831427Y-14927930D01*
X13831427Y-14870787D01*
X13817141Y-14799359D01*
X13802856Y-14756501D01*
X13788570Y-14727930D01*
X13759998Y-14685073D01*
X13745713Y-14670787D01*
X6973570Y-15273930D02*
G75*
G03X6973570Y-15273930I-35560J0D01*
G01*
X7317141Y-15109644D02*
X7345713Y-15109644D01*
X7374284Y-15123930D01*
X7388570Y-15138216D01*
X7402856Y-15166787D01*
X7417141Y-15223930D01*
X7417141Y-15295359D01*
X7402856Y-15352501D01*
X7388570Y-15381073D01*
X7374284Y-15395359D01*
X7345713Y-15409644D01*
X7317141Y-15409644D01*
X7288570Y-15395359D01*
X7274284Y-15381073D01*
X7259998Y-15352501D01*
X7245713Y-15295359D01*
X7245713Y-15223930D01*
X7259998Y-15166787D01*
X7274284Y-15138216D01*
X7288570Y-15123930D01*
X7317141Y-15109644D01*
X7545713Y-15381073D02*
X7559998Y-15395359D01*
X7545713Y-15409644D01*
X7531427Y-15395359D01*
X7545713Y-15381073D01*
X7545713Y-15409644D01*
X7659998Y-15109644D02*
X7859998Y-15109644D01*
X7731427Y-15409644D01*
X8131427Y-15409644D02*
X7959998Y-15409644D01*
X8045713Y-15409644D02*
X8045713Y-15109644D01*
X8017141Y-15152501D01*
X7988570Y-15181073D01*
X7959998Y-15195359D01*
X8259998Y-15409644D02*
X8259998Y-15209644D01*
X8259998Y-15238216D02*
X8274284Y-15223930D01*
X8302856Y-15209644D01*
X8345713Y-15209644D01*
X8374284Y-15223930D01*
X8388570Y-15252501D01*
X8388570Y-15409644D01*
X8388570Y-15252501D02*
X8402856Y-15223930D01*
X8431427Y-15209644D01*
X8474284Y-15209644D01*
X8502856Y-15223930D01*
X8517141Y-15252501D01*
X8517141Y-15409644D01*
X8659998Y-15409644D02*
X8659998Y-15209644D01*
X8659998Y-15238216D02*
X8674284Y-15223930D01*
X8702856Y-15209644D01*
X8745713Y-15209644D01*
X8774284Y-15223930D01*
X8788570Y-15252501D01*
X8788570Y-15409644D01*
X8788570Y-15252501D02*
X8802856Y-15223930D01*
X8831427Y-15209644D01*
X8874284Y-15209644D01*
X8902856Y-15223930D01*
X8917141Y-15252501D01*
X8917141Y-15409644D01*
X9502856Y-15095359D02*
X9245713Y-15481073D01*
X9888570Y-15109644D02*
X9917141Y-15109644D01*
X9945713Y-15123930D01*
X9959998Y-15138216D01*
X9974284Y-15166787D01*
X9988570Y-15223930D01*
X9988570Y-15295359D01*
X9974284Y-15352501D01*
X9959998Y-15381073D01*
X9945713Y-15395359D01*
X9917141Y-15409644D01*
X9888570Y-15409644D01*
X9859998Y-15395359D01*
X9845713Y-15381073D01*
X9831427Y-15352501D01*
X9817141Y-15295359D01*
X9817141Y-15223930D01*
X9831427Y-15166787D01*
X9845713Y-15138216D01*
X9859998Y-15123930D01*
X9888570Y-15109644D01*
X10117141Y-15381073D02*
X10131427Y-15395359D01*
X10117141Y-15409644D01*
X10102856Y-15395359D01*
X10117141Y-15381073D01*
X10117141Y-15409644D01*
X10317141Y-15109644D02*
X10345713Y-15109644D01*
X10374284Y-15123930D01*
X10388570Y-15138216D01*
X10402856Y-15166787D01*
X10417141Y-15223930D01*
X10417141Y-15295359D01*
X10402856Y-15352501D01*
X10388570Y-15381073D01*
X10374284Y-15395359D01*
X10345713Y-15409644D01*
X10317141Y-15409644D01*
X10288570Y-15395359D01*
X10274284Y-15381073D01*
X10259998Y-15352501D01*
X10245713Y-15295359D01*
X10245713Y-15223930D01*
X10259998Y-15166787D01*
X10274284Y-15138216D01*
X10288570Y-15123930D01*
X10317141Y-15109644D01*
X10531427Y-15138216D02*
X10545713Y-15123930D01*
X10574284Y-15109644D01*
X10645713Y-15109644D01*
X10674284Y-15123930D01*
X10688570Y-15138216D01*
X10702856Y-15166787D01*
X10702856Y-15195359D01*
X10688570Y-15238216D01*
X10517141Y-15409644D01*
X10702856Y-15409644D01*
X10874284Y-15238216D02*
X10845713Y-15223930D01*
X10831427Y-15209644D01*
X10817141Y-15181073D01*
X10817141Y-15166787D01*
X10831427Y-15138216D01*
X10845713Y-15123930D01*
X10874284Y-15109644D01*
X10931427Y-15109644D01*
X10959998Y-15123930D01*
X10974284Y-15138216D01*
X10988570Y-15166787D01*
X10988570Y-15181073D01*
X10974284Y-15209644D01*
X10959998Y-15223930D01*
X10931427Y-15238216D01*
X10874284Y-15238216D01*
X10845713Y-15252501D01*
X10831427Y-15266787D01*
X10817141Y-15295359D01*
X10817141Y-15352501D01*
X10831427Y-15381073D01*
X10845713Y-15395359D01*
X10874284Y-15409644D01*
X10931427Y-15409644D01*
X10959998Y-15395359D01*
X10974284Y-15381073D01*
X10988570Y-15352501D01*
X10988570Y-15295359D01*
X10974284Y-15266787D01*
X10959998Y-15252501D01*
X10931427Y-15238216D01*
X11102856Y-15109644D02*
X11102856Y-15166787D01*
X11217141Y-15109644D02*
X11217141Y-15166787D01*
X11659998Y-15523930D02*
X11645713Y-15509644D01*
X11617141Y-15466787D01*
X11602856Y-15438216D01*
X11588570Y-15395359D01*
X11574284Y-15323930D01*
X11574284Y-15266787D01*
X11588570Y-15195359D01*
X11602856Y-15152501D01*
X11617141Y-15123930D01*
X11645713Y-15081073D01*
X11659998Y-15066787D01*
X11745713Y-15109644D02*
X11931427Y-15109644D01*
X11831427Y-15223930D01*
X11874284Y-15223930D01*
X11902856Y-15238216D01*
X11917141Y-15252501D01*
X11931427Y-15281073D01*
X11931427Y-15352501D01*
X11917141Y-15381073D01*
X11902856Y-15395359D01*
X11874284Y-15409644D01*
X11788570Y-15409644D01*
X11759998Y-15395359D01*
X11745713Y-15381073D01*
X12288570Y-15409644D02*
X12288570Y-15109644D01*
X12417141Y-15409644D02*
X12417141Y-15252501D01*
X12402856Y-15223930D01*
X12374284Y-15209644D01*
X12331427Y-15209644D01*
X12302856Y-15223930D01*
X12288570Y-15238216D01*
X12602856Y-15409644D02*
X12574284Y-15395359D01*
X12559998Y-15381073D01*
X12545713Y-15352501D01*
X12545713Y-15266787D01*
X12559998Y-15238216D01*
X12574284Y-15223930D01*
X12602856Y-15209644D01*
X12645713Y-15209644D01*
X12674284Y-15223930D01*
X12688570Y-15238216D01*
X12702856Y-15266787D01*
X12702856Y-15352501D01*
X12688570Y-15381073D01*
X12674284Y-15395359D01*
X12645713Y-15409644D01*
X12602856Y-15409644D01*
X12874284Y-15409644D02*
X12845713Y-15395359D01*
X12831427Y-15366787D01*
X12831427Y-15109644D01*
X13102856Y-15395359D02*
X13074284Y-15409644D01*
X13017141Y-15409644D01*
X12988570Y-15395359D01*
X12974284Y-15366787D01*
X12974284Y-15252501D01*
X12988570Y-15223930D01*
X13017141Y-15209644D01*
X13074284Y-15209644D01*
X13102856Y-15223930D01*
X13117141Y-15252501D01*
X13117141Y-15281073D01*
X12974284Y-15309644D01*
X13231427Y-15395359D02*
X13259998Y-15409644D01*
X13317141Y-15409644D01*
X13345713Y-15395359D01*
X13359998Y-15366787D01*
X13359998Y-15352501D01*
X13345713Y-15323930D01*
X13317141Y-15309644D01*
X13274284Y-15309644D01*
X13245713Y-15295359D01*
X13231427Y-15266787D01*
X13231427Y-15252501D01*
X13245713Y-15223930D01*
X13274284Y-15209644D01*
X13317141Y-15209644D01*
X13345713Y-15223930D01*
X13459998Y-15523930D02*
X13474284Y-15509644D01*
X13502856Y-15466787D01*
X13517141Y-15438216D01*
X13531427Y-15395359D01*
X13545713Y-15323930D01*
X13545713Y-15266787D01*
X13531427Y-15195359D01*
X13517141Y-15152501D01*
X13502856Y-15123930D01*
X13474284Y-15081073D01*
X13459998Y-15066787D01*
X6918960Y-15615320D02*
X6918960Y-15724540D01*
X6864350Y-15669930D02*
X6973570Y-15669930D01*
X7417141Y-15805644D02*
X7245713Y-15805644D01*
X7331427Y-15805644D02*
X7331427Y-15505644D01*
X7302856Y-15548501D01*
X7274284Y-15577073D01*
X7245713Y-15591359D01*
X7545713Y-15777073D02*
X7559998Y-15791359D01*
X7545713Y-15805644D01*
X7531427Y-15791359D01*
X7545713Y-15777073D01*
X7545713Y-15805644D01*
X7745713Y-15505644D02*
X7774284Y-15505644D01*
X7802856Y-15519930D01*
X7817141Y-15534216D01*
X7831427Y-15562787D01*
X7845713Y-15619930D01*
X7845713Y-15691359D01*
X7831427Y-15748501D01*
X7817141Y-15777073D01*
X7802856Y-15791359D01*
X7774284Y-15805644D01*
X7745713Y-15805644D01*
X7717141Y-15791359D01*
X7702856Y-15777073D01*
X7688570Y-15748501D01*
X7674284Y-15691359D01*
X7674284Y-15619930D01*
X7688570Y-15562787D01*
X7702856Y-15534216D01*
X7717141Y-15519930D01*
X7745713Y-15505644D01*
X7988570Y-15805644D02*
X8045713Y-15805644D01*
X8074284Y-15791359D01*
X8088570Y-15777073D01*
X8117141Y-15734216D01*
X8131427Y-15677073D01*
X8131427Y-15562787D01*
X8117141Y-15534216D01*
X8102856Y-15519930D01*
X8074284Y-15505644D01*
X8017141Y-15505644D01*
X7988570Y-15519930D01*
X7974284Y-15534216D01*
X7959998Y-15562787D01*
X7959998Y-15634216D01*
X7974284Y-15662787D01*
X7988570Y-15677073D01*
X8017141Y-15691359D01*
X8074284Y-15691359D01*
X8102856Y-15677073D01*
X8117141Y-15662787D01*
X8131427Y-15634216D01*
X8259998Y-15805644D02*
X8259998Y-15605644D01*
X8259998Y-15634216D02*
X8274284Y-15619930D01*
X8302856Y-15605644D01*
X8345713Y-15605644D01*
X8374284Y-15619930D01*
X8388570Y-15648501D01*
X8388570Y-15805644D01*
X8388570Y-15648501D02*
X8402856Y-15619930D01*
X8431427Y-15605644D01*
X8474284Y-15605644D01*
X8502856Y-15619930D01*
X8517141Y-15648501D01*
X8517141Y-15805644D01*
X8659998Y-15805644D02*
X8659998Y-15605644D01*
X8659998Y-15634216D02*
X8674284Y-15619930D01*
X8702856Y-15605644D01*
X8745713Y-15605644D01*
X8774284Y-15619930D01*
X8788570Y-15648501D01*
X8788570Y-15805644D01*
X8788570Y-15648501D02*
X8802856Y-15619930D01*
X8831427Y-15605644D01*
X8874284Y-15605644D01*
X8902856Y-15619930D01*
X8917141Y-15648501D01*
X8917141Y-15805644D01*
X9502856Y-15491359D02*
X9245713Y-15877073D01*
X9888570Y-15505644D02*
X9917141Y-15505644D01*
X9945713Y-15519930D01*
X9959998Y-15534216D01*
X9974284Y-15562787D01*
X9988570Y-15619930D01*
X9988570Y-15691359D01*
X9974284Y-15748501D01*
X9959998Y-15777073D01*
X9945713Y-15791359D01*
X9917141Y-15805644D01*
X9888570Y-15805644D01*
X9859998Y-15791359D01*
X9845713Y-15777073D01*
X9831427Y-15748501D01*
X9817141Y-15691359D01*
X9817141Y-15619930D01*
X9831427Y-15562787D01*
X9845713Y-15534216D01*
X9859998Y-15519930D01*
X9888570Y-15505644D01*
X10117141Y-15777073D02*
X10131427Y-15791359D01*
X10117141Y-15805644D01*
X10102856Y-15791359D01*
X10117141Y-15777073D01*
X10117141Y-15805644D01*
X10317141Y-15505644D02*
X10345713Y-15505644D01*
X10374284Y-15519930D01*
X10388570Y-15534216D01*
X10402856Y-15562787D01*
X10417141Y-15619930D01*
X10417141Y-15691359D01*
X10402856Y-15748501D01*
X10388570Y-15777073D01*
X10374284Y-15791359D01*
X10345713Y-15805644D01*
X10317141Y-15805644D01*
X10288570Y-15791359D01*
X10274284Y-15777073D01*
X10259998Y-15748501D01*
X10245713Y-15691359D01*
X10245713Y-15619930D01*
X10259998Y-15562787D01*
X10274284Y-15534216D01*
X10288570Y-15519930D01*
X10317141Y-15505644D01*
X10674284Y-15605644D02*
X10674284Y-15805644D01*
X10602856Y-15491359D02*
X10531427Y-15705644D01*
X10717141Y-15705644D01*
X10802856Y-15505644D02*
X10988570Y-15505644D01*
X10888570Y-15619930D01*
X10931427Y-15619930D01*
X10959998Y-15634216D01*
X10974284Y-15648501D01*
X10988570Y-15677073D01*
X10988570Y-15748501D01*
X10974284Y-15777073D01*
X10959998Y-15791359D01*
X10931427Y-15805644D01*
X10845713Y-15805644D01*
X10817141Y-15791359D01*
X10802856Y-15777073D01*
X11102856Y-15505644D02*
X11102856Y-15562787D01*
X11217141Y-15505644D02*
X11217141Y-15562787D01*
X11659998Y-15919930D02*
X11645713Y-15905644D01*
X11617141Y-15862787D01*
X11602856Y-15834216D01*
X11588570Y-15791359D01*
X11574284Y-15719930D01*
X11574284Y-15662787D01*
X11588570Y-15591359D01*
X11602856Y-15548501D01*
X11617141Y-15519930D01*
X11645713Y-15477073D01*
X11659998Y-15462787D01*
X11917141Y-15505644D02*
X11774284Y-15505644D01*
X11759998Y-15648501D01*
X11774284Y-15634216D01*
X11802856Y-15619930D01*
X11874284Y-15619930D01*
X11902856Y-15634216D01*
X11917141Y-15648501D01*
X11931427Y-15677073D01*
X11931427Y-15748501D01*
X11917141Y-15777073D01*
X11902856Y-15791359D01*
X11874284Y-15805644D01*
X11802856Y-15805644D01*
X11774284Y-15791359D01*
X11759998Y-15777073D01*
X12117141Y-15505644D02*
X12145713Y-15505644D01*
X12174284Y-15519930D01*
X12188570Y-15534216D01*
X12202856Y-15562787D01*
X12217141Y-15619930D01*
X12217141Y-15691359D01*
X12202856Y-15748501D01*
X12188570Y-15777073D01*
X12174284Y-15791359D01*
X12145713Y-15805644D01*
X12117141Y-15805644D01*
X12088570Y-15791359D01*
X12074284Y-15777073D01*
X12059998Y-15748501D01*
X12045713Y-15691359D01*
X12045713Y-15619930D01*
X12059998Y-15562787D01*
X12074284Y-15534216D01*
X12088570Y-15519930D01*
X12117141Y-15505644D01*
X12574284Y-15805644D02*
X12574284Y-15505644D01*
X12702856Y-15805644D02*
X12702856Y-15648501D01*
X12688570Y-15619930D01*
X12659998Y-15605644D01*
X12617141Y-15605644D01*
X12588570Y-15619930D01*
X12574284Y-15634216D01*
X12888570Y-15805644D02*
X12859998Y-15791359D01*
X12845713Y-15777073D01*
X12831427Y-15748501D01*
X12831427Y-15662787D01*
X12845713Y-15634216D01*
X12859998Y-15619930D01*
X12888570Y-15605644D01*
X12931427Y-15605644D01*
X12959998Y-15619930D01*
X12974284Y-15634216D01*
X12988570Y-15662787D01*
X12988570Y-15748501D01*
X12974284Y-15777073D01*
X12959998Y-15791359D01*
X12931427Y-15805644D01*
X12888570Y-15805644D01*
X13159998Y-15805644D02*
X13131427Y-15791359D01*
X13117141Y-15762787D01*
X13117141Y-15505644D01*
X13388570Y-15791359D02*
X13359998Y-15805644D01*
X13302856Y-15805644D01*
X13274284Y-15791359D01*
X13259998Y-15762787D01*
X13259998Y-15648501D01*
X13274284Y-15619930D01*
X13302856Y-15605644D01*
X13359998Y-15605644D01*
X13388570Y-15619930D01*
X13402856Y-15648501D01*
X13402856Y-15677073D01*
X13259998Y-15705644D01*
X13517141Y-15791359D02*
X13545713Y-15805644D01*
X13602856Y-15805644D01*
X13631427Y-15791359D01*
X13645713Y-15762787D01*
X13645713Y-15748501D01*
X13631427Y-15719930D01*
X13602856Y-15705644D01*
X13559998Y-15705644D01*
X13531427Y-15691359D01*
X13517141Y-15662787D01*
X13517141Y-15648501D01*
X13531427Y-15619930D01*
X13559998Y-15605644D01*
X13602856Y-15605644D01*
X13631427Y-15619930D01*
X13745713Y-15919930D02*
X13759998Y-15905644D01*
X13788570Y-15862787D01*
X13802856Y-15834216D01*
X13817141Y-15791359D01*
X13831427Y-15719930D01*
X13831427Y-15662787D01*
X13817141Y-15591359D01*
X13802856Y-15548501D01*
X13788570Y-15519930D01*
X13759998Y-15477073D01*
X13745713Y-15462787D01*
X6957461Y-16104821D02*
X6957461Y-16027039D01*
X6879679Y-16027039D01*
X6879679Y-16104821D01*
X6957461Y-16104821D01*
X7417141Y-16201644D02*
X7245713Y-16201644D01*
X7331427Y-16201644D02*
X7331427Y-15901644D01*
X7302856Y-15944501D01*
X7274284Y-15973073D01*
X7245713Y-15987359D01*
X7545713Y-16173073D02*
X7559998Y-16187359D01*
X7545713Y-16201644D01*
X7531427Y-16187359D01*
X7545713Y-16173073D01*
X7545713Y-16201644D01*
X7845713Y-16201644D02*
X7674284Y-16201644D01*
X7759998Y-16201644D02*
X7759998Y-15901644D01*
X7731427Y-15944501D01*
X7702856Y-15973073D01*
X7674284Y-15987359D01*
X8031427Y-15901644D02*
X8059998Y-15901644D01*
X8088570Y-15915930D01*
X8102856Y-15930216D01*
X8117141Y-15958787D01*
X8131427Y-16015930D01*
X8131427Y-16087359D01*
X8117141Y-16144501D01*
X8102856Y-16173073D01*
X8088570Y-16187359D01*
X8059998Y-16201644D01*
X8031427Y-16201644D01*
X8002856Y-16187359D01*
X7988570Y-16173073D01*
X7974284Y-16144501D01*
X7959998Y-16087359D01*
X7959998Y-16015930D01*
X7974284Y-15958787D01*
X7988570Y-15930216D01*
X8002856Y-15915930D01*
X8031427Y-15901644D01*
X8259998Y-16201644D02*
X8259998Y-16001644D01*
X8259998Y-16030216D02*
X8274284Y-16015930D01*
X8302856Y-16001644D01*
X8345713Y-16001644D01*
X8374284Y-16015930D01*
X8388570Y-16044501D01*
X8388570Y-16201644D01*
X8388570Y-16044501D02*
X8402856Y-16015930D01*
X8431427Y-16001644D01*
X8474284Y-16001644D01*
X8502856Y-16015930D01*
X8517141Y-16044501D01*
X8517141Y-16201644D01*
X8659998Y-16201644D02*
X8659998Y-16001644D01*
X8659998Y-16030216D02*
X8674284Y-16015930D01*
X8702856Y-16001644D01*
X8745713Y-16001644D01*
X8774284Y-16015930D01*
X8788570Y-16044501D01*
X8788570Y-16201644D01*
X8788570Y-16044501D02*
X8802856Y-16015930D01*
X8831427Y-16001644D01*
X8874284Y-16001644D01*
X8902856Y-16015930D01*
X8917141Y-16044501D01*
X8917141Y-16201644D01*
X9502856Y-15887359D02*
X9245713Y-16273073D01*
X9888570Y-15901644D02*
X9917141Y-15901644D01*
X9945713Y-15915930D01*
X9959998Y-15930216D01*
X9974284Y-15958787D01*
X9988570Y-16015930D01*
X9988570Y-16087359D01*
X9974284Y-16144501D01*
X9959998Y-16173073D01*
X9945713Y-16187359D01*
X9917141Y-16201644D01*
X9888570Y-16201644D01*
X9859998Y-16187359D01*
X9845713Y-16173073D01*
X9831427Y-16144501D01*
X9817141Y-16087359D01*
X9817141Y-16015930D01*
X9831427Y-15958787D01*
X9845713Y-15930216D01*
X9859998Y-15915930D01*
X9888570Y-15901644D01*
X10117141Y-16173073D02*
X10131427Y-16187359D01*
X10117141Y-16201644D01*
X10102856Y-16187359D01*
X10117141Y-16173073D01*
X10117141Y-16201644D01*
X10317141Y-15901644D02*
X10345713Y-15901644D01*
X10374284Y-15915930D01*
X10388570Y-15930216D01*
X10402856Y-15958787D01*
X10417141Y-16015930D01*
X10417141Y-16087359D01*
X10402856Y-16144501D01*
X10388570Y-16173073D01*
X10374284Y-16187359D01*
X10345713Y-16201644D01*
X10317141Y-16201644D01*
X10288570Y-16187359D01*
X10274284Y-16173073D01*
X10259998Y-16144501D01*
X10245713Y-16087359D01*
X10245713Y-16015930D01*
X10259998Y-15958787D01*
X10274284Y-15930216D01*
X10288570Y-15915930D01*
X10317141Y-15901644D01*
X10674284Y-16001644D02*
X10674284Y-16201644D01*
X10602856Y-15887359D02*
X10531427Y-16101644D01*
X10717141Y-16101644D01*
X10802856Y-15901644D02*
X10988570Y-15901644D01*
X10888570Y-16015930D01*
X10931427Y-16015930D01*
X10959998Y-16030216D01*
X10974284Y-16044501D01*
X10988570Y-16073073D01*
X10988570Y-16144501D01*
X10974284Y-16173073D01*
X10959998Y-16187359D01*
X10931427Y-16201644D01*
X10845713Y-16201644D01*
X10817141Y-16187359D01*
X10802856Y-16173073D01*
X11102856Y-15901644D02*
X11102856Y-15958787D01*
X11217141Y-15901644D02*
X11217141Y-15958787D01*
X11659998Y-16315930D02*
X11645713Y-16301644D01*
X11617141Y-16258787D01*
X11602856Y-16230216D01*
X11588570Y-16187359D01*
X11574284Y-16115930D01*
X11574284Y-16058787D01*
X11588570Y-15987359D01*
X11602856Y-15944501D01*
X11617141Y-15915930D01*
X11645713Y-15873073D01*
X11659998Y-15858787D01*
X11817141Y-16030216D02*
X11788570Y-16015930D01*
X11774284Y-16001644D01*
X11759998Y-15973073D01*
X11759998Y-15958787D01*
X11774284Y-15930216D01*
X11788570Y-15915930D01*
X11817141Y-15901644D01*
X11874284Y-15901644D01*
X11902856Y-15915930D01*
X11917141Y-15930216D01*
X11931427Y-15958787D01*
X11931427Y-15973073D01*
X11917141Y-16001644D01*
X11902856Y-16015930D01*
X11874284Y-16030216D01*
X11817141Y-16030216D01*
X11788570Y-16044501D01*
X11774284Y-16058787D01*
X11759998Y-16087359D01*
X11759998Y-16144501D01*
X11774284Y-16173073D01*
X11788570Y-16187359D01*
X11817141Y-16201644D01*
X11874284Y-16201644D01*
X11902856Y-16187359D01*
X11917141Y-16173073D01*
X11931427Y-16144501D01*
X11931427Y-16087359D01*
X11917141Y-16058787D01*
X11902856Y-16044501D01*
X11874284Y-16030216D01*
X12288570Y-16201644D02*
X12288570Y-15901644D01*
X12417141Y-16201644D02*
X12417141Y-16044501D01*
X12402856Y-16015930D01*
X12374284Y-16001644D01*
X12331427Y-16001644D01*
X12302856Y-16015930D01*
X12288570Y-16030216D01*
X12602856Y-16201644D02*
X12574284Y-16187359D01*
X12559998Y-16173073D01*
X12545713Y-16144501D01*
X12545713Y-16058787D01*
X12559998Y-16030216D01*
X12574284Y-16015930D01*
X12602856Y-16001644D01*
X12645713Y-16001644D01*
X12674284Y-16015930D01*
X12688570Y-16030216D01*
X12702856Y-16058787D01*
X12702856Y-16144501D01*
X12688570Y-16173073D01*
X12674284Y-16187359D01*
X12645713Y-16201644D01*
X12602856Y-16201644D01*
X12874284Y-16201644D02*
X12845713Y-16187359D01*
X12831427Y-16158787D01*
X12831427Y-15901644D01*
X13102856Y-16187359D02*
X13074284Y-16201644D01*
X13017141Y-16201644D01*
X12988570Y-16187359D01*
X12974284Y-16158787D01*
X12974284Y-16044501D01*
X12988570Y-16015930D01*
X13017141Y-16001644D01*
X13074284Y-16001644D01*
X13102856Y-16015930D01*
X13117141Y-16044501D01*
X13117141Y-16073073D01*
X12974284Y-16101644D01*
X13231427Y-16187359D02*
X13259998Y-16201644D01*
X13317141Y-16201644D01*
X13345713Y-16187359D01*
X13359998Y-16158787D01*
X13359998Y-16144501D01*
X13345713Y-16115930D01*
X13317141Y-16101644D01*
X13274284Y-16101644D01*
X13245713Y-16087359D01*
X13231427Y-16058787D01*
X13231427Y-16044501D01*
X13245713Y-16015930D01*
X13274284Y-16001644D01*
X13317141Y-16001644D01*
X13345713Y-16015930D01*
X13459998Y-16315930D02*
X13474284Y-16301644D01*
X13502856Y-16258787D01*
X13517141Y-16230216D01*
X13531427Y-16187359D01*
X13545713Y-16115930D01*
X13545713Y-16058787D01*
X13531427Y-15987359D01*
X13517141Y-15944501D01*
X13502856Y-15915930D01*
X13474284Y-15873073D01*
X13459998Y-15858787D01*
X6917690Y-16517810D02*
X6973570Y-16461930D01*
X6917690Y-16406050D01*
X6861810Y-16461930D01*
X6917690Y-16517810D01*
X7417141Y-16597644D02*
X7245713Y-16597644D01*
X7331427Y-16597644D02*
X7331427Y-16297644D01*
X7302856Y-16340501D01*
X7274284Y-16369073D01*
X7245713Y-16383359D01*
X7545713Y-16569073D02*
X7559998Y-16583359D01*
X7545713Y-16597644D01*
X7531427Y-16583359D01*
X7545713Y-16569073D01*
X7545713Y-16597644D01*
X7845713Y-16597644D02*
X7674284Y-16597644D01*
X7759998Y-16597644D02*
X7759998Y-16297644D01*
X7731427Y-16340501D01*
X7702856Y-16369073D01*
X7674284Y-16383359D01*
X7959998Y-16326216D02*
X7974284Y-16311930D01*
X8002856Y-16297644D01*
X8074284Y-16297644D01*
X8102856Y-16311930D01*
X8117141Y-16326216D01*
X8131427Y-16354787D01*
X8131427Y-16383359D01*
X8117141Y-16426216D01*
X7945713Y-16597644D01*
X8131427Y-16597644D01*
X8259998Y-16597644D02*
X8259998Y-16397644D01*
X8259998Y-16426216D02*
X8274284Y-16411930D01*
X8302856Y-16397644D01*
X8345713Y-16397644D01*
X8374284Y-16411930D01*
X8388570Y-16440501D01*
X8388570Y-16597644D01*
X8388570Y-16440501D02*
X8402856Y-16411930D01*
X8431427Y-16397644D01*
X8474284Y-16397644D01*
X8502856Y-16411930D01*
X8517141Y-16440501D01*
X8517141Y-16597644D01*
X8659998Y-16597644D02*
X8659998Y-16397644D01*
X8659998Y-16426216D02*
X8674284Y-16411930D01*
X8702856Y-16397644D01*
X8745713Y-16397644D01*
X8774284Y-16411930D01*
X8788570Y-16440501D01*
X8788570Y-16597644D01*
X8788570Y-16440501D02*
X8802856Y-16411930D01*
X8831427Y-16397644D01*
X8874284Y-16397644D01*
X8902856Y-16411930D01*
X8917141Y-16440501D01*
X8917141Y-16597644D01*
X9502856Y-16283359D02*
X9245713Y-16669073D01*
X9888570Y-16297644D02*
X9917141Y-16297644D01*
X9945713Y-16311930D01*
X9959998Y-16326216D01*
X9974284Y-16354787D01*
X9988570Y-16411930D01*
X9988570Y-16483359D01*
X9974284Y-16540501D01*
X9959998Y-16569073D01*
X9945713Y-16583359D01*
X9917141Y-16597644D01*
X9888570Y-16597644D01*
X9859998Y-16583359D01*
X9845713Y-16569073D01*
X9831427Y-16540501D01*
X9817141Y-16483359D01*
X9817141Y-16411930D01*
X9831427Y-16354787D01*
X9845713Y-16326216D01*
X9859998Y-16311930D01*
X9888570Y-16297644D01*
X10117141Y-16569073D02*
X10131427Y-16583359D01*
X10117141Y-16597644D01*
X10102856Y-16583359D01*
X10117141Y-16569073D01*
X10117141Y-16597644D01*
X10317141Y-16297644D02*
X10345713Y-16297644D01*
X10374284Y-16311930D01*
X10388570Y-16326216D01*
X10402856Y-16354787D01*
X10417141Y-16411930D01*
X10417141Y-16483359D01*
X10402856Y-16540501D01*
X10388570Y-16569073D01*
X10374284Y-16583359D01*
X10345713Y-16597644D01*
X10317141Y-16597644D01*
X10288570Y-16583359D01*
X10274284Y-16569073D01*
X10259998Y-16540501D01*
X10245713Y-16483359D01*
X10245713Y-16411930D01*
X10259998Y-16354787D01*
X10274284Y-16326216D01*
X10288570Y-16311930D01*
X10317141Y-16297644D01*
X10674284Y-16397644D02*
X10674284Y-16597644D01*
X10602856Y-16283359D02*
X10531427Y-16497644D01*
X10717141Y-16497644D01*
X10959998Y-16397644D02*
X10959998Y-16597644D01*
X10888570Y-16283359D02*
X10817141Y-16497644D01*
X11002856Y-16497644D01*
X11102856Y-16297644D02*
X11102856Y-16354787D01*
X11217141Y-16297644D02*
X11217141Y-16354787D01*
X11659998Y-16711930D02*
X11645713Y-16697644D01*
X11617141Y-16654787D01*
X11602856Y-16626216D01*
X11588570Y-16583359D01*
X11574284Y-16511930D01*
X11574284Y-16454787D01*
X11588570Y-16383359D01*
X11602856Y-16340501D01*
X11617141Y-16311930D01*
X11645713Y-16269073D01*
X11659998Y-16254787D01*
X11917141Y-16297644D02*
X11774284Y-16297644D01*
X11759998Y-16440501D01*
X11774284Y-16426216D01*
X11802856Y-16411930D01*
X11874284Y-16411930D01*
X11902856Y-16426216D01*
X11917141Y-16440501D01*
X11931427Y-16469073D01*
X11931427Y-16540501D01*
X11917141Y-16569073D01*
X11902856Y-16583359D01*
X11874284Y-16597644D01*
X11802856Y-16597644D01*
X11774284Y-16583359D01*
X11759998Y-16569073D01*
X12288570Y-16597644D02*
X12288570Y-16297644D01*
X12417141Y-16597644D02*
X12417141Y-16440501D01*
X12402856Y-16411930D01*
X12374284Y-16397644D01*
X12331427Y-16397644D01*
X12302856Y-16411930D01*
X12288570Y-16426216D01*
X12602856Y-16597644D02*
X12574284Y-16583359D01*
X12559998Y-16569073D01*
X12545713Y-16540501D01*
X12545713Y-16454787D01*
X12559998Y-16426216D01*
X12574284Y-16411930D01*
X12602856Y-16397644D01*
X12645713Y-16397644D01*
X12674284Y-16411930D01*
X12688570Y-16426216D01*
X12702856Y-16454787D01*
X12702856Y-16540501D01*
X12688570Y-16569073D01*
X12674284Y-16583359D01*
X12645713Y-16597644D01*
X12602856Y-16597644D01*
X12874284Y-16597644D02*
X12845713Y-16583359D01*
X12831427Y-16554787D01*
X12831427Y-16297644D01*
X13102856Y-16583359D02*
X13074284Y-16597644D01*
X13017141Y-16597644D01*
X12988570Y-16583359D01*
X12974284Y-16554787D01*
X12974284Y-16440501D01*
X12988570Y-16411930D01*
X13017141Y-16397644D01*
X13074284Y-16397644D01*
X13102856Y-16411930D01*
X13117141Y-16440501D01*
X13117141Y-16469073D01*
X12974284Y-16497644D01*
X13231427Y-16583359D02*
X13259998Y-16597644D01*
X13317141Y-16597644D01*
X13345713Y-16583359D01*
X13359998Y-16554787D01*
X13359998Y-16540501D01*
X13345713Y-16511930D01*
X13317141Y-16497644D01*
X13274284Y-16497644D01*
X13245713Y-16483359D01*
X13231427Y-16454787D01*
X13231427Y-16440501D01*
X13245713Y-16411930D01*
X13274284Y-16397644D01*
X13317141Y-16397644D01*
X13345713Y-16411930D01*
X13459998Y-16711930D02*
X13474284Y-16697644D01*
X13502856Y-16654787D01*
X13517141Y-16626216D01*
X13531427Y-16583359D01*
X13545713Y-16511930D01*
X13545713Y-16454787D01*
X13531427Y-16383359D01*
X13517141Y-16340501D01*
X13502856Y-16311930D01*
X13474284Y-16269073D01*
X13459998Y-16254787D01*
X6823570Y-16782930D02*
X6973570Y-16932930D01*
X6973570Y-16782930D02*
X6823570Y-16932930D01*
X6973570Y-16857930D02*
G75*
G03X6973570Y-16857930I-75000J0D01*
G01*
X7417141Y-16993644D02*
X7245713Y-16993644D01*
X7331427Y-16993644D02*
X7331427Y-16693644D01*
X7302856Y-16736501D01*
X7274284Y-16765073D01*
X7245713Y-16779359D01*
X7545713Y-16965073D02*
X7559998Y-16979359D01*
X7545713Y-16993644D01*
X7531427Y-16979359D01*
X7545713Y-16965073D01*
X7545713Y-16993644D01*
X7831427Y-16693644D02*
X7688570Y-16693644D01*
X7674284Y-16836502D01*
X7688570Y-16822216D01*
X7717141Y-16807930D01*
X7788570Y-16807930D01*
X7817141Y-16822216D01*
X7831427Y-16836502D01*
X7845713Y-16865073D01*
X7845713Y-16936502D01*
X7831427Y-16965073D01*
X7817141Y-16979359D01*
X7788570Y-16993644D01*
X7717141Y-16993644D01*
X7688570Y-16979359D01*
X7674284Y-16965073D01*
X8031427Y-16693644D02*
X8059998Y-16693644D01*
X8088570Y-16707930D01*
X8102856Y-16722216D01*
X8117141Y-16750787D01*
X8131427Y-16807930D01*
X8131427Y-16879359D01*
X8117141Y-16936502D01*
X8102856Y-16965073D01*
X8088570Y-16979359D01*
X8059998Y-16993644D01*
X8031427Y-16993644D01*
X8002856Y-16979359D01*
X7988570Y-16965073D01*
X7974284Y-16936502D01*
X7959998Y-16879359D01*
X7959998Y-16807930D01*
X7974284Y-16750787D01*
X7988570Y-16722216D01*
X8002856Y-16707930D01*
X8031427Y-16693644D01*
X8259998Y-16993644D02*
X8259998Y-16793644D01*
X8259998Y-16822216D02*
X8274284Y-16807930D01*
X8302856Y-16793644D01*
X8345713Y-16793644D01*
X8374284Y-16807930D01*
X8388570Y-16836502D01*
X8388570Y-16993644D01*
X8388570Y-16836502D02*
X8402856Y-16807930D01*
X8431427Y-16793644D01*
X8474284Y-16793644D01*
X8502856Y-16807930D01*
X8517141Y-16836502D01*
X8517141Y-16993644D01*
X8659998Y-16993644D02*
X8659998Y-16793644D01*
X8659998Y-16822216D02*
X8674284Y-16807930D01*
X8702856Y-16793644D01*
X8745713Y-16793644D01*
X8774284Y-16807930D01*
X8788570Y-16836502D01*
X8788570Y-16993644D01*
X8788570Y-16836502D02*
X8802856Y-16807930D01*
X8831427Y-16793644D01*
X8874284Y-16793644D01*
X8902856Y-16807930D01*
X8917141Y-16836502D01*
X8917141Y-16993644D01*
X9502856Y-16679359D02*
X9245713Y-17065073D01*
X9888570Y-16693644D02*
X9917141Y-16693644D01*
X9945713Y-16707930D01*
X9959998Y-16722216D01*
X9974284Y-16750787D01*
X9988570Y-16807930D01*
X9988570Y-16879359D01*
X9974284Y-16936502D01*
X9959998Y-16965073D01*
X9945713Y-16979359D01*
X9917141Y-16993644D01*
X9888570Y-16993644D01*
X9859998Y-16979359D01*
X9845713Y-16965073D01*
X9831427Y-16936502D01*
X9817141Y-16879359D01*
X9817141Y-16807930D01*
X9831427Y-16750787D01*
X9845713Y-16722216D01*
X9859998Y-16707930D01*
X9888570Y-16693644D01*
X10117141Y-16965073D02*
X10131427Y-16979359D01*
X10117141Y-16993644D01*
X10102856Y-16979359D01*
X10117141Y-16965073D01*
X10117141Y-16993644D01*
X10317141Y-16693644D02*
X10345713Y-16693644D01*
X10374284Y-16707930D01*
X10388570Y-16722216D01*
X10402856Y-16750787D01*
X10417141Y-16807930D01*
X10417141Y-16879359D01*
X10402856Y-16936502D01*
X10388570Y-16965073D01*
X10374284Y-16979359D01*
X10345713Y-16993644D01*
X10317141Y-16993644D01*
X10288570Y-16979359D01*
X10274284Y-16965073D01*
X10259998Y-16936502D01*
X10245713Y-16879359D01*
X10245713Y-16807930D01*
X10259998Y-16750787D01*
X10274284Y-16722216D01*
X10288570Y-16707930D01*
X10317141Y-16693644D01*
X10688570Y-16693644D02*
X10545713Y-16693644D01*
X10531427Y-16836502D01*
X10545713Y-16822216D01*
X10574284Y-16807930D01*
X10645713Y-16807930D01*
X10674284Y-16822216D01*
X10688570Y-16836502D01*
X10702856Y-16865073D01*
X10702856Y-16936502D01*
X10688570Y-16965073D01*
X10674284Y-16979359D01*
X10645713Y-16993644D01*
X10574284Y-16993644D01*
X10545713Y-16979359D01*
X10531427Y-16965073D01*
X10845713Y-16993644D02*
X10902856Y-16993644D01*
X10931427Y-16979359D01*
X10945713Y-16965073D01*
X10974284Y-16922216D01*
X10988570Y-16865073D01*
X10988570Y-16750787D01*
X10974284Y-16722216D01*
X10959998Y-16707930D01*
X10931427Y-16693644D01*
X10874284Y-16693644D01*
X10845713Y-16707930D01*
X10831427Y-16722216D01*
X10817141Y-16750787D01*
X10817141Y-16822216D01*
X10831427Y-16850787D01*
X10845713Y-16865073D01*
X10874284Y-16879359D01*
X10931427Y-16879359D01*
X10959998Y-16865073D01*
X10974284Y-16850787D01*
X10988570Y-16822216D01*
X11102856Y-16693644D02*
X11102856Y-16750787D01*
X11217141Y-16693644D02*
X11217141Y-16750787D01*
X11659998Y-17107930D02*
X11645713Y-17093644D01*
X11617141Y-17050787D01*
X11602856Y-17022216D01*
X11588570Y-16979359D01*
X11574284Y-16907930D01*
X11574284Y-16850787D01*
X11588570Y-16779359D01*
X11602856Y-16736501D01*
X11617141Y-16707930D01*
X11645713Y-16665073D01*
X11659998Y-16650787D01*
X11817141Y-16822216D02*
X11788570Y-16807930D01*
X11774284Y-16793644D01*
X11759998Y-16765073D01*
X11759998Y-16750787D01*
X11774284Y-16722216D01*
X11788570Y-16707930D01*
X11817141Y-16693644D01*
X11874284Y-16693644D01*
X11902856Y-16707930D01*
X11917141Y-16722216D01*
X11931427Y-16750787D01*
X11931427Y-16765073D01*
X11917141Y-16793644D01*
X11902856Y-16807930D01*
X11874284Y-16822216D01*
X11817141Y-16822216D01*
X11788570Y-16836502D01*
X11774284Y-16850787D01*
X11759998Y-16879359D01*
X11759998Y-16936502D01*
X11774284Y-16965073D01*
X11788570Y-16979359D01*
X11817141Y-16993644D01*
X11874284Y-16993644D01*
X11902856Y-16979359D01*
X11917141Y-16965073D01*
X11931427Y-16936502D01*
X11931427Y-16879359D01*
X11917141Y-16850787D01*
X11902856Y-16836502D01*
X11874284Y-16822216D01*
X12288570Y-16993644D02*
X12288570Y-16693644D01*
X12417141Y-16993644D02*
X12417141Y-16836502D01*
X12402856Y-16807930D01*
X12374284Y-16793644D01*
X12331427Y-16793644D01*
X12302856Y-16807930D01*
X12288570Y-16822216D01*
X12602856Y-16993644D02*
X12574284Y-16979359D01*
X12559998Y-16965073D01*
X12545713Y-16936502D01*
X12545713Y-16850787D01*
X12559998Y-16822216D01*
X12574284Y-16807930D01*
X12602856Y-16793644D01*
X12645713Y-16793644D01*
X12674284Y-16807930D01*
X12688570Y-16822216D01*
X12702856Y-16850787D01*
X12702856Y-16936502D01*
X12688570Y-16965073D01*
X12674284Y-16979359D01*
X12645713Y-16993644D01*
X12602856Y-16993644D01*
X12874284Y-16993644D02*
X12845713Y-16979359D01*
X12831427Y-16950787D01*
X12831427Y-16693644D01*
X13102856Y-16979359D02*
X13074284Y-16993644D01*
X13017141Y-16993644D01*
X12988570Y-16979359D01*
X12974284Y-16950787D01*
X12974284Y-16836502D01*
X12988570Y-16807930D01*
X13017141Y-16793644D01*
X13074284Y-16793644D01*
X13102856Y-16807930D01*
X13117141Y-16836502D01*
X13117141Y-16865073D01*
X12974284Y-16893644D01*
X13231427Y-16979359D02*
X13259998Y-16993644D01*
X13317141Y-16993644D01*
X13345713Y-16979359D01*
X13359998Y-16950787D01*
X13359998Y-16936502D01*
X13345713Y-16907930D01*
X13317141Y-16893644D01*
X13274284Y-16893644D01*
X13245713Y-16879359D01*
X13231427Y-16850787D01*
X13231427Y-16836502D01*
X13245713Y-16807930D01*
X13274284Y-16793644D01*
X13317141Y-16793644D01*
X13345713Y-16807930D01*
X13459998Y-17107930D02*
X13474284Y-17093644D01*
X13502856Y-17050787D01*
X13517141Y-17022216D01*
X13531427Y-16979359D01*
X13545713Y-16907930D01*
X13545713Y-16850787D01*
X13531427Y-16779359D01*
X13517141Y-16736501D01*
X13502856Y-16707930D01*
X13474284Y-16665073D01*
X13459998Y-16650787D01*
X6793570Y-17163930D02*
X6973570Y-17343930D01*
X6973570Y-17163930D02*
X6793570Y-17343930D01*
X6883570Y-17163930D02*
X6883570Y-17343930D01*
X6793570Y-17253930D02*
X6973570Y-17253930D01*
X7417141Y-17389644D02*
X7245713Y-17389644D01*
X7331427Y-17389644D02*
X7331427Y-17089644D01*
X7302856Y-17132502D01*
X7274284Y-17161073D01*
X7245713Y-17175359D01*
X7545713Y-17361073D02*
X7559998Y-17375359D01*
X7545713Y-17389644D01*
X7531427Y-17375359D01*
X7545713Y-17361073D01*
X7545713Y-17389644D01*
X7731427Y-17218216D02*
X7702856Y-17203930D01*
X7688570Y-17189644D01*
X7674284Y-17161073D01*
X7674284Y-17146787D01*
X7688570Y-17118216D01*
X7702856Y-17103930D01*
X7731427Y-17089644D01*
X7788570Y-17089644D01*
X7817141Y-17103930D01*
X7831427Y-17118216D01*
X7845713Y-17146787D01*
X7845713Y-17161073D01*
X7831427Y-17189644D01*
X7817141Y-17203930D01*
X7788570Y-17218216D01*
X7731427Y-17218216D01*
X7702856Y-17232502D01*
X7688570Y-17246787D01*
X7674284Y-17275359D01*
X7674284Y-17332502D01*
X7688570Y-17361073D01*
X7702856Y-17375359D01*
X7731427Y-17389644D01*
X7788570Y-17389644D01*
X7817141Y-17375359D01*
X7831427Y-17361073D01*
X7845713Y-17332502D01*
X7845713Y-17275359D01*
X7831427Y-17246787D01*
X7817141Y-17232502D01*
X7788570Y-17218216D01*
X8031427Y-17089644D02*
X8059998Y-17089644D01*
X8088570Y-17103930D01*
X8102856Y-17118216D01*
X8117141Y-17146787D01*
X8131427Y-17203930D01*
X8131427Y-17275359D01*
X8117141Y-17332502D01*
X8102856Y-17361073D01*
X8088570Y-17375359D01*
X8059998Y-17389644D01*
X8031427Y-17389644D01*
X8002856Y-17375359D01*
X7988570Y-17361073D01*
X7974284Y-17332502D01*
X7959998Y-17275359D01*
X7959998Y-17203930D01*
X7974284Y-17146787D01*
X7988570Y-17118216D01*
X8002856Y-17103930D01*
X8031427Y-17089644D01*
X8259998Y-17389644D02*
X8259998Y-17189644D01*
X8259998Y-17218216D02*
X8274284Y-17203930D01*
X8302856Y-17189644D01*
X8345713Y-17189644D01*
X8374284Y-17203930D01*
X8388570Y-17232502D01*
X8388570Y-17389644D01*
X8388570Y-17232502D02*
X8402856Y-17203930D01*
X8431427Y-17189644D01*
X8474284Y-17189644D01*
X8502856Y-17203930D01*
X8517141Y-17232502D01*
X8517141Y-17389644D01*
X8659998Y-17389644D02*
X8659998Y-17189644D01*
X8659998Y-17218216D02*
X8674284Y-17203930D01*
X8702856Y-17189644D01*
X8745713Y-17189644D01*
X8774284Y-17203930D01*
X8788570Y-17232502D01*
X8788570Y-17389644D01*
X8788570Y-17232502D02*
X8802856Y-17203930D01*
X8831427Y-17189644D01*
X8874284Y-17189644D01*
X8902856Y-17203930D01*
X8917141Y-17232502D01*
X8917141Y-17389644D01*
X9502856Y-17075359D02*
X9245713Y-17461073D01*
X9888570Y-17089644D02*
X9917141Y-17089644D01*
X9945713Y-17103930D01*
X9959998Y-17118216D01*
X9974284Y-17146787D01*
X9988570Y-17203930D01*
X9988570Y-17275359D01*
X9974284Y-17332502D01*
X9959998Y-17361073D01*
X9945713Y-17375359D01*
X9917141Y-17389644D01*
X9888570Y-17389644D01*
X9859998Y-17375359D01*
X9845713Y-17361073D01*
X9831427Y-17332502D01*
X9817141Y-17275359D01*
X9817141Y-17203930D01*
X9831427Y-17146787D01*
X9845713Y-17118216D01*
X9859998Y-17103930D01*
X9888570Y-17089644D01*
X10117141Y-17361073D02*
X10131427Y-17375359D01*
X10117141Y-17389644D01*
X10102856Y-17375359D01*
X10117141Y-17361073D01*
X10117141Y-17389644D01*
X10317141Y-17089644D02*
X10345713Y-17089644D01*
X10374284Y-17103930D01*
X10388570Y-17118216D01*
X10402856Y-17146787D01*
X10417141Y-17203930D01*
X10417141Y-17275359D01*
X10402856Y-17332502D01*
X10388570Y-17361073D01*
X10374284Y-17375359D01*
X10345713Y-17389644D01*
X10317141Y-17389644D01*
X10288570Y-17375359D01*
X10274284Y-17361073D01*
X10259998Y-17332502D01*
X10245713Y-17275359D01*
X10245713Y-17203930D01*
X10259998Y-17146787D01*
X10274284Y-17118216D01*
X10288570Y-17103930D01*
X10317141Y-17089644D01*
X10517141Y-17089644D02*
X10717141Y-17089644D01*
X10588570Y-17389644D01*
X10988570Y-17389644D02*
X10817141Y-17389644D01*
X10902856Y-17389644D02*
X10902856Y-17089644D01*
X10874284Y-17132502D01*
X10845713Y-17161073D01*
X10817141Y-17175359D01*
X11102856Y-17089644D02*
X11102856Y-17146787D01*
X11217141Y-17089644D02*
X11217141Y-17146787D01*
X11659998Y-17503930D02*
X11645713Y-17489644D01*
X11617141Y-17446787D01*
X11602856Y-17418216D01*
X11588570Y-17375359D01*
X11574284Y-17303930D01*
X11574284Y-17246787D01*
X11588570Y-17175359D01*
X11602856Y-17132502D01*
X11617141Y-17103930D01*
X11645713Y-17061073D01*
X11659998Y-17046787D01*
X11931427Y-17389644D02*
X11759998Y-17389644D01*
X11845713Y-17389644D02*
X11845713Y-17089644D01*
X11817141Y-17132502D01*
X11788570Y-17161073D01*
X11759998Y-17175359D01*
X12117141Y-17089644D02*
X12145713Y-17089644D01*
X12174284Y-17103930D01*
X12188570Y-17118216D01*
X12202856Y-17146787D01*
X12217141Y-17203930D01*
X12217141Y-17275359D01*
X12202856Y-17332502D01*
X12188570Y-17361073D01*
X12174284Y-17375359D01*
X12145713Y-17389644D01*
X12117141Y-17389644D01*
X12088570Y-17375359D01*
X12074284Y-17361073D01*
X12059998Y-17332502D01*
X12045713Y-17275359D01*
X12045713Y-17203930D01*
X12059998Y-17146787D01*
X12074284Y-17118216D01*
X12088570Y-17103930D01*
X12117141Y-17089644D01*
X12574284Y-17389644D02*
X12574284Y-17089644D01*
X12702856Y-17389644D02*
X12702856Y-17232502D01*
X12688570Y-17203930D01*
X12659998Y-17189644D01*
X12617141Y-17189644D01*
X12588570Y-17203930D01*
X12574284Y-17218216D01*
X12888570Y-17389644D02*
X12859998Y-17375359D01*
X12845713Y-17361073D01*
X12831427Y-17332502D01*
X12831427Y-17246787D01*
X12845713Y-17218216D01*
X12859998Y-17203930D01*
X12888570Y-17189644D01*
X12931427Y-17189644D01*
X12959998Y-17203930D01*
X12974284Y-17218216D01*
X12988570Y-17246787D01*
X12988570Y-17332502D01*
X12974284Y-17361073D01*
X12959998Y-17375359D01*
X12931427Y-17389644D01*
X12888570Y-17389644D01*
X13159998Y-17389644D02*
X13131427Y-17375359D01*
X13117141Y-17346787D01*
X13117141Y-17089644D01*
X13388570Y-17375359D02*
X13359998Y-17389644D01*
X13302856Y-17389644D01*
X13274284Y-17375359D01*
X13259998Y-17346787D01*
X13259998Y-17232502D01*
X13274284Y-17203930D01*
X13302856Y-17189644D01*
X13359998Y-17189644D01*
X13388570Y-17203930D01*
X13402856Y-17232502D01*
X13402856Y-17261073D01*
X13259998Y-17289644D01*
X13517141Y-17375359D02*
X13545713Y-17389644D01*
X13602856Y-17389644D01*
X13631427Y-17375359D01*
X13645713Y-17346787D01*
X13645713Y-17332502D01*
X13631427Y-17303930D01*
X13602856Y-17289644D01*
X13559998Y-17289644D01*
X13531427Y-17275359D01*
X13517141Y-17246787D01*
X13517141Y-17232502D01*
X13531427Y-17203930D01*
X13559998Y-17189644D01*
X13602856Y-17189644D01*
X13631427Y-17203930D01*
X13745713Y-17503930D02*
X13759998Y-17489644D01*
X13788570Y-17446787D01*
X13802856Y-17418216D01*
X13817141Y-17375359D01*
X13831427Y-17303930D01*
X13831427Y-17246787D01*
X13817141Y-17175359D01*
X13802856Y-17132502D01*
X13788570Y-17103930D01*
X13759998Y-17061073D01*
X13745713Y-17046787D01*
X6673570Y-17499930D02*
X6973570Y-17799930D01*
X6973570Y-17499930D02*
X6673570Y-17799930D01*
X6929637Y-17755997D02*
X6929637Y-17543863D01*
X6717503Y-17543863D01*
X6717503Y-17755997D01*
X6929637Y-17755997D01*
X7231427Y-17485644D02*
X7417141Y-17485644D01*
X7317141Y-17599930D01*
X7359998Y-17599930D01*
X7388570Y-17614216D01*
X7402856Y-17628502D01*
X7417141Y-17657073D01*
X7417141Y-17728502D01*
X7402856Y-17757073D01*
X7388570Y-17771359D01*
X7359998Y-17785644D01*
X7274284Y-17785644D01*
X7245713Y-17771359D01*
X7231427Y-17757073D01*
X7545713Y-17757073D02*
X7559998Y-17771359D01*
X7545713Y-17785644D01*
X7531427Y-17771359D01*
X7545713Y-17757073D01*
X7545713Y-17785644D01*
X7745713Y-17485644D02*
X7774284Y-17485644D01*
X7802856Y-17499930D01*
X7817141Y-17514216D01*
X7831427Y-17542787D01*
X7845713Y-17599930D01*
X7845713Y-17671359D01*
X7831427Y-17728502D01*
X7817141Y-17757073D01*
X7802856Y-17771359D01*
X7774284Y-17785644D01*
X7745713Y-17785644D01*
X7717141Y-17771359D01*
X7702856Y-17757073D01*
X7688570Y-17728502D01*
X7674284Y-17671359D01*
X7674284Y-17599930D01*
X7688570Y-17542787D01*
X7702856Y-17514216D01*
X7717141Y-17499930D01*
X7745713Y-17485644D01*
X8031427Y-17485644D02*
X8059998Y-17485644D01*
X8088570Y-17499930D01*
X8102856Y-17514216D01*
X8117141Y-17542787D01*
X8131427Y-17599930D01*
X8131427Y-17671359D01*
X8117141Y-17728502D01*
X8102856Y-17757073D01*
X8088570Y-17771359D01*
X8059998Y-17785644D01*
X8031427Y-17785644D01*
X8002856Y-17771359D01*
X7988570Y-17757073D01*
X7974284Y-17728502D01*
X7959998Y-17671359D01*
X7959998Y-17599930D01*
X7974284Y-17542787D01*
X7988570Y-17514216D01*
X8002856Y-17499930D01*
X8031427Y-17485644D01*
X8259998Y-17785644D02*
X8259998Y-17585644D01*
X8259998Y-17614216D02*
X8274284Y-17599930D01*
X8302856Y-17585644D01*
X8345713Y-17585644D01*
X8374284Y-17599930D01*
X8388570Y-17628502D01*
X8388570Y-17785644D01*
X8388570Y-17628502D02*
X8402856Y-17599930D01*
X8431427Y-17585644D01*
X8474284Y-17585644D01*
X8502856Y-17599930D01*
X8517141Y-17628502D01*
X8517141Y-17785644D01*
X8659998Y-17785644D02*
X8659998Y-17585644D01*
X8659998Y-17614216D02*
X8674284Y-17599930D01*
X8702856Y-17585644D01*
X8745713Y-17585644D01*
X8774284Y-17599930D01*
X8788570Y-17628502D01*
X8788570Y-17785644D01*
X8788570Y-17628502D02*
X8802856Y-17599930D01*
X8831427Y-17585644D01*
X8874284Y-17585644D01*
X8902856Y-17599930D01*
X8917141Y-17628502D01*
X8917141Y-17785644D01*
X9502856Y-17471359D02*
X9245713Y-17857073D01*
X9888570Y-17485644D02*
X9917141Y-17485644D01*
X9945713Y-17499930D01*
X9959998Y-17514216D01*
X9974284Y-17542787D01*
X9988570Y-17599930D01*
X9988570Y-17671359D01*
X9974284Y-17728502D01*
X9959998Y-17757073D01*
X9945713Y-17771359D01*
X9917141Y-17785644D01*
X9888570Y-17785644D01*
X9859998Y-17771359D01*
X9845713Y-17757073D01*
X9831427Y-17728502D01*
X9817141Y-17671359D01*
X9817141Y-17599930D01*
X9831427Y-17542787D01*
X9845713Y-17514216D01*
X9859998Y-17499930D01*
X9888570Y-17485644D01*
X10117141Y-17757073D02*
X10131427Y-17771359D01*
X10117141Y-17785644D01*
X10102856Y-17771359D01*
X10117141Y-17757073D01*
X10117141Y-17785644D01*
X10417141Y-17785644D02*
X10245713Y-17785644D01*
X10331427Y-17785644D02*
X10331427Y-17485644D01*
X10302856Y-17528502D01*
X10274284Y-17557073D01*
X10245713Y-17571359D01*
X10702856Y-17785644D02*
X10531427Y-17785644D01*
X10617141Y-17785644D02*
X10617141Y-17485644D01*
X10588570Y-17528502D01*
X10559998Y-17557073D01*
X10531427Y-17571359D01*
X10874284Y-17614216D02*
X10845713Y-17599930D01*
X10831427Y-17585644D01*
X10817141Y-17557073D01*
X10817141Y-17542787D01*
X10831427Y-17514216D01*
X10845713Y-17499930D01*
X10874284Y-17485644D01*
X10931427Y-17485644D01*
X10959998Y-17499930D01*
X10974284Y-17514216D01*
X10988570Y-17542787D01*
X10988570Y-17557073D01*
X10974284Y-17585644D01*
X10959998Y-17599930D01*
X10931427Y-17614216D01*
X10874284Y-17614216D01*
X10845713Y-17628502D01*
X10831427Y-17642787D01*
X10817141Y-17671359D01*
X10817141Y-17728502D01*
X10831427Y-17757073D01*
X10845713Y-17771359D01*
X10874284Y-17785644D01*
X10931427Y-17785644D01*
X10959998Y-17771359D01*
X10974284Y-17757073D01*
X10988570Y-17728502D01*
X10988570Y-17671359D01*
X10974284Y-17642787D01*
X10959998Y-17628502D01*
X10931427Y-17614216D01*
X11102856Y-17485644D02*
X11102856Y-17542787D01*
X11217141Y-17485644D02*
X11217141Y-17542787D01*
X11659998Y-17899930D02*
X11645713Y-17885644D01*
X11617141Y-17842787D01*
X11602856Y-17814216D01*
X11588570Y-17771359D01*
X11574284Y-17699930D01*
X11574284Y-17642787D01*
X11588570Y-17571359D01*
X11602856Y-17528502D01*
X11617141Y-17499930D01*
X11645713Y-17457073D01*
X11659998Y-17442787D01*
X11759998Y-17514216D02*
X11774284Y-17499930D01*
X11802856Y-17485644D01*
X11874284Y-17485644D01*
X11902856Y-17499930D01*
X11917141Y-17514216D01*
X11931427Y-17542787D01*
X11931427Y-17571359D01*
X11917141Y-17614216D01*
X11745713Y-17785644D01*
X11931427Y-17785644D01*
X12288570Y-17785644D02*
X12288570Y-17485644D01*
X12417141Y-17785644D02*
X12417141Y-17628502D01*
X12402856Y-17599930D01*
X12374284Y-17585644D01*
X12331427Y-17585644D01*
X12302856Y-17599930D01*
X12288570Y-17614216D01*
X12602856Y-17785644D02*
X12574284Y-17771359D01*
X12559998Y-17757073D01*
X12545713Y-17728502D01*
X12545713Y-17642787D01*
X12559998Y-17614216D01*
X12574284Y-17599930D01*
X12602856Y-17585644D01*
X12645713Y-17585644D01*
X12674284Y-17599930D01*
X12688570Y-17614216D01*
X12702856Y-17642787D01*
X12702856Y-17728502D01*
X12688570Y-17757073D01*
X12674284Y-17771359D01*
X12645713Y-17785644D01*
X12602856Y-17785644D01*
X12874284Y-17785644D02*
X12845713Y-17771359D01*
X12831427Y-17742787D01*
X12831427Y-17485644D01*
X13102856Y-17771359D02*
X13074284Y-17785644D01*
X13017141Y-17785644D01*
X12988570Y-17771359D01*
X12974284Y-17742787D01*
X12974284Y-17628502D01*
X12988570Y-17599930D01*
X13017141Y-17585644D01*
X13074284Y-17585644D01*
X13102856Y-17599930D01*
X13117141Y-17628502D01*
X13117141Y-17657073D01*
X12974284Y-17685644D01*
X13231427Y-17771359D02*
X13259998Y-17785644D01*
X13317141Y-17785644D01*
X13345713Y-17771359D01*
X13359998Y-17742787D01*
X13359998Y-17728502D01*
X13345713Y-17699930D01*
X13317141Y-17685644D01*
X13274284Y-17685644D01*
X13245713Y-17671359D01*
X13231427Y-17642787D01*
X13231427Y-17628502D01*
X13245713Y-17599930D01*
X13274284Y-17585644D01*
X13317141Y-17585644D01*
X13345713Y-17599930D01*
X13459998Y-17899930D02*
X13474284Y-17885644D01*
X13502856Y-17842787D01*
X13517141Y-17814216D01*
X13531427Y-17771359D01*
X13545713Y-17699930D01*
X13545713Y-17642787D01*
X13531427Y-17571359D01*
X13517141Y-17528502D01*
X13502856Y-17499930D01*
X13474284Y-17457073D01*
X13459998Y-17442787D01*
X6643370Y-17914830D02*
X6973570Y-18245030D01*
X6973570Y-17914830D02*
X6643370Y-18245030D01*
X6808470Y-18245030D02*
X6973570Y-18079930D01*
X6808470Y-17914830D01*
X6643370Y-18079930D01*
X6808470Y-18245030D01*
X7231427Y-17915644D02*
X7417141Y-17915644D01*
X7317141Y-18029930D01*
X7359998Y-18029930D01*
X7388570Y-18044216D01*
X7402856Y-18058502D01*
X7417141Y-18087073D01*
X7417141Y-18158502D01*
X7402856Y-18187073D01*
X7388570Y-18201359D01*
X7359998Y-18215644D01*
X7274284Y-18215644D01*
X7245713Y-18201359D01*
X7231427Y-18187073D01*
X7545713Y-18187073D02*
X7559998Y-18201359D01*
X7545713Y-18215644D01*
X7531427Y-18201359D01*
X7545713Y-18187073D01*
X7545713Y-18215644D01*
X7659998Y-17915644D02*
X7845713Y-17915644D01*
X7745713Y-18029930D01*
X7788570Y-18029930D01*
X7817141Y-18044216D01*
X7831427Y-18058502D01*
X7845713Y-18087073D01*
X7845713Y-18158502D01*
X7831427Y-18187073D01*
X7817141Y-18201359D01*
X7788570Y-18215644D01*
X7702856Y-18215644D01*
X7674284Y-18201359D01*
X7659998Y-18187073D01*
X8031427Y-17915644D02*
X8059998Y-17915644D01*
X8088570Y-17929930D01*
X8102856Y-17944216D01*
X8117141Y-17972787D01*
X8131427Y-18029930D01*
X8131427Y-18101359D01*
X8117141Y-18158502D01*
X8102856Y-18187073D01*
X8088570Y-18201359D01*
X8059998Y-18215644D01*
X8031427Y-18215644D01*
X8002856Y-18201359D01*
X7988570Y-18187073D01*
X7974284Y-18158502D01*
X7959998Y-18101359D01*
X7959998Y-18029930D01*
X7974284Y-17972787D01*
X7988570Y-17944216D01*
X8002856Y-17929930D01*
X8031427Y-17915644D01*
X8259998Y-18215644D02*
X8259998Y-18015644D01*
X8259998Y-18044216D02*
X8274284Y-18029930D01*
X8302856Y-18015644D01*
X8345713Y-18015644D01*
X8374284Y-18029930D01*
X8388570Y-18058502D01*
X8388570Y-18215644D01*
X8388570Y-18058502D02*
X8402856Y-18029930D01*
X8431427Y-18015644D01*
X8474284Y-18015644D01*
X8502856Y-18029930D01*
X8517141Y-18058502D01*
X8517141Y-18215644D01*
X8659998Y-18215644D02*
X8659998Y-18015644D01*
X8659998Y-18044216D02*
X8674284Y-18029930D01*
X8702856Y-18015644D01*
X8745713Y-18015644D01*
X8774284Y-18029930D01*
X8788570Y-18058502D01*
X8788570Y-18215644D01*
X8788570Y-18058502D02*
X8802856Y-18029930D01*
X8831427Y-18015644D01*
X8874284Y-18015644D01*
X8902856Y-18029930D01*
X8917141Y-18058502D01*
X8917141Y-18215644D01*
X9502856Y-17901359D02*
X9245713Y-18287073D01*
X9888570Y-17915644D02*
X9917141Y-17915644D01*
X9945713Y-17929930D01*
X9959998Y-17944216D01*
X9974284Y-17972787D01*
X9988570Y-18029930D01*
X9988570Y-18101359D01*
X9974284Y-18158502D01*
X9959998Y-18187073D01*
X9945713Y-18201359D01*
X9917141Y-18215644D01*
X9888570Y-18215644D01*
X9859998Y-18201359D01*
X9845713Y-18187073D01*
X9831427Y-18158502D01*
X9817141Y-18101359D01*
X9817141Y-18029930D01*
X9831427Y-17972787D01*
X9845713Y-17944216D01*
X9859998Y-17929930D01*
X9888570Y-17915644D01*
X10117141Y-18187073D02*
X10131427Y-18201359D01*
X10117141Y-18215644D01*
X10102856Y-18201359D01*
X10117141Y-18187073D01*
X10117141Y-18215644D01*
X10417141Y-18215644D02*
X10245713Y-18215644D01*
X10331427Y-18215644D02*
X10331427Y-17915644D01*
X10302856Y-17958502D01*
X10274284Y-17987073D01*
X10245713Y-18001359D01*
X10517141Y-17915644D02*
X10702856Y-17915644D01*
X10602856Y-18029930D01*
X10645713Y-18029930D01*
X10674284Y-18044216D01*
X10688570Y-18058502D01*
X10702856Y-18087073D01*
X10702856Y-18158502D01*
X10688570Y-18187073D01*
X10674284Y-18201359D01*
X10645713Y-18215644D01*
X10559998Y-18215644D01*
X10531427Y-18201359D01*
X10517141Y-18187073D01*
X10888570Y-17915644D02*
X10917141Y-17915644D01*
X10945713Y-17929930D01*
X10959998Y-17944216D01*
X10974284Y-17972787D01*
X10988570Y-18029930D01*
X10988570Y-18101359D01*
X10974284Y-18158502D01*
X10959998Y-18187073D01*
X10945713Y-18201359D01*
X10917141Y-18215644D01*
X10888570Y-18215644D01*
X10859998Y-18201359D01*
X10845713Y-18187073D01*
X10831427Y-18158502D01*
X10817141Y-18101359D01*
X10817141Y-18029930D01*
X10831427Y-17972787D01*
X10845713Y-17944216D01*
X10859998Y-17929930D01*
X10888570Y-17915644D01*
X11102856Y-17915644D02*
X11102856Y-17972787D01*
X11217141Y-17915644D02*
X11217141Y-17972787D01*
X11659998Y-18329930D02*
X11645713Y-18315644D01*
X11617141Y-18272787D01*
X11602856Y-18244216D01*
X11588570Y-18201359D01*
X11574284Y-18129930D01*
X11574284Y-18072787D01*
X11588570Y-18001359D01*
X11602856Y-17958502D01*
X11617141Y-17929930D01*
X11645713Y-17887073D01*
X11659998Y-17872787D01*
X11902856Y-18015644D02*
X11902856Y-18215644D01*
X11831427Y-17901359D02*
X11759998Y-18115644D01*
X11945713Y-18115644D01*
X12288570Y-18215644D02*
X12288570Y-17915644D01*
X12417141Y-18215644D02*
X12417141Y-18058502D01*
X12402856Y-18029930D01*
X12374284Y-18015644D01*
X12331427Y-18015644D01*
X12302856Y-18029930D01*
X12288570Y-18044216D01*
X12602856Y-18215644D02*
X12574284Y-18201359D01*
X12559998Y-18187073D01*
X12545713Y-18158502D01*
X12545713Y-18072787D01*
X12559998Y-18044216D01*
X12574284Y-18029930D01*
X12602856Y-18015644D01*
X12645713Y-18015644D01*
X12674284Y-18029930D01*
X12688570Y-18044216D01*
X12702856Y-18072787D01*
X12702856Y-18158502D01*
X12688570Y-18187073D01*
X12674284Y-18201359D01*
X12645713Y-18215644D01*
X12602856Y-18215644D01*
X12874284Y-18215644D02*
X12845713Y-18201359D01*
X12831427Y-18172787D01*
X12831427Y-17915644D01*
X13102856Y-18201359D02*
X13074284Y-18215644D01*
X13017141Y-18215644D01*
X12988570Y-18201359D01*
X12974284Y-18172787D01*
X12974284Y-18058502D01*
X12988570Y-18029930D01*
X13017141Y-18015644D01*
X13074284Y-18015644D01*
X13102856Y-18029930D01*
X13117141Y-18058502D01*
X13117141Y-18087073D01*
X12974284Y-18115644D01*
X13231427Y-18201359D02*
X13259998Y-18215644D01*
X13317141Y-18215644D01*
X13345713Y-18201359D01*
X13359998Y-18172787D01*
X13359998Y-18158502D01*
X13345713Y-18129930D01*
X13317141Y-18115644D01*
X13274284Y-18115644D01*
X13245713Y-18101359D01*
X13231427Y-18072787D01*
X13231427Y-18058502D01*
X13245713Y-18029930D01*
X13274284Y-18015644D01*
X13317141Y-18015644D01*
X13345713Y-18029930D01*
X13459998Y-18329930D02*
X13474284Y-18315644D01*
X13502856Y-18272787D01*
X13517141Y-18244216D01*
X13531427Y-18201359D01*
X13545713Y-18129930D01*
X13545713Y-18072787D01*
X13531427Y-18001359D01*
X13517141Y-17958502D01*
X13502856Y-17929930D01*
X13474284Y-17887073D01*
X13459998Y-17872787D01*
M02*
