G04 #@! TF.GenerationSoftware,KiCad,Pcbnew,6.0.0-rc1-unknown-d9d0051~66~ubuntu18.04.1*
G04 #@! TF.CreationDate,2018-08-28T13:07:50-04:00*
G04 #@! TF.ProjectId,sleep_rig_controller_5x3,736D6172745F766973696F6E5F636F6E,1.0*
G04 #@! TF.SameCoordinates,Original*
G04 #@! TF.FileFunction,Soldermask,Bot*
G04 #@! TF.FilePolarity,Negative*
%FSLAX46Y46*%
G04 Gerber Fmt 4.6, Leading zero omitted, Abs format (unit mm)*
G04 Created by KiCad (PCBNEW 6.0.0-rc1-unknown-d9d0051~66~ubuntu18.04.1) date Tue Aug 28 13:07:50 2018*
%MOMM*%
%LPD*%
G01*
G04 APERTURE LIST*
%ADD10C,0.228600*%
%ADD11R,1.270000X2.540000*%
%ADD12O,5.080000X3.556000*%
%ADD13O,4.064000X5.080000*%
%ADD14O,4.572000X3.556000*%
%ADD15C,1.930400*%
%ADD16O,4.000000X3.000000*%
%ADD17R,4.000000X3.000000*%
%ADD18C,4.000000*%
%ADD19O,1.854200X2.540000*%
%ADD20C,3.556000*%
%ADD21R,1.854200X2.540000*%
%ADD22R,1.640000X1.800000*%
%ADD23R,5.160000X4.000000*%
%ADD24R,2.540000X1.270000*%
%ADD25R,6.400000X5.800000*%
%ADD26R,2.200000X0.800000*%
%ADD27O,5.000000X6.000000*%
%ADD28O,1.600000X2.200000*%
%ADD29R,1.600000X2.200000*%
%ADD30C,3.000000*%
%ADD31O,1.500000X2.500000*%
%ADD32R,2.140000X0.740000*%
%ADD33O,1.524000X2.032000*%
G04 APERTURE END LIST*
D10*
X191135000Y-71755000D02*
X69850000Y-71755000D01*
X191135000Y-139065000D02*
X191135000Y-71755000D01*
X69850000Y-139065000D02*
X191135000Y-139065000D01*
X69850000Y-71755000D02*
X69850000Y-139065000D01*
D11*
G04 #@! TO.C,R8*
X134874000Y-111125000D03*
X131826000Y-111125000D03*
G04 #@! TD*
D12*
G04 #@! TO.C,P2*
X185496200Y-122605800D03*
X185496200Y-113614200D03*
D13*
X178511200Y-118110000D03*
D14*
X183997600Y-118110000D03*
D15*
X187502800Y-118110000D03*
G04 #@! TD*
D16*
G04 #@! TO.C,P1*
X175160000Y-96910000D03*
X175160000Y-92710000D03*
X175160000Y-88510000D03*
X180660000Y-96910000D03*
X180660000Y-92710000D03*
D17*
X180660000Y-88510000D03*
D18*
X187960000Y-96910000D03*
X187960000Y-88510000D03*
G04 #@! TD*
D19*
G04 #@! TO.C,MDB1*
X133350000Y-74930000D03*
X130810000Y-74930000D03*
X128270000Y-74930000D03*
X125730000Y-74930000D03*
X123190000Y-74930000D03*
X120650000Y-74930000D03*
X118110000Y-74930000D03*
X115570000Y-74930000D03*
X113030000Y-74930000D03*
X133350000Y-135890000D03*
X130810000Y-135890000D03*
X128270000Y-135890000D03*
X125730000Y-135890000D03*
X123190000Y-135890000D03*
X120650000Y-135890000D03*
X118110000Y-135890000D03*
X115570000Y-135890000D03*
X113030000Y-135890000D03*
D20*
X165100000Y-74930000D03*
X165100000Y-135890000D03*
X73660000Y-130810000D03*
X73660000Y-80010000D03*
D19*
X72390000Y-135890000D03*
X74930000Y-135890000D03*
X77470000Y-135890000D03*
X80010000Y-135890000D03*
X82550000Y-135890000D03*
X85090000Y-135890000D03*
X87630000Y-135890000D03*
X90170000Y-135890000D03*
X92710000Y-135890000D03*
X95250000Y-135890000D03*
X97790000Y-135890000D03*
X100330000Y-135890000D03*
X102870000Y-135890000D03*
X105410000Y-135890000D03*
X107950000Y-135890000D03*
X110490000Y-135890000D03*
X110490000Y-74930000D03*
X107950000Y-74930000D03*
X105410000Y-74930000D03*
X102870000Y-74930000D03*
X100330000Y-74930000D03*
X97790000Y-74930000D03*
X95250000Y-74930000D03*
X92710000Y-74930000D03*
X90170000Y-74930000D03*
X87630000Y-74930000D03*
X85090000Y-74930000D03*
X82550000Y-74930000D03*
X80010000Y-74930000D03*
D21*
X72390000Y-74930000D03*
D19*
X77470000Y-74930000D03*
X74930000Y-74930000D03*
G04 #@! TD*
D22*
G04 #@! TO.C,D1*
X84695000Y-78310000D03*
X84695000Y-80440000D03*
D23*
X80895000Y-79375000D03*
G04 #@! TD*
D11*
G04 #@! TO.C,C1*
X113284000Y-113665000D03*
X110236000Y-113665000D03*
G04 #@! TD*
G04 #@! TO.C,C2*
X145034000Y-113665000D03*
X141986000Y-113665000D03*
G04 #@! TD*
D24*
G04 #@! TO.C,C3*
X77470000Y-84836000D03*
X77470000Y-87884000D03*
G04 #@! TD*
G04 #@! TO.C,C4*
X77470000Y-97536000D03*
X77470000Y-100584000D03*
G04 #@! TD*
G04 #@! TO.C,C5*
X77470000Y-110236000D03*
X77470000Y-113284000D03*
G04 #@! TD*
G04 #@! TO.C,C6*
X77470000Y-122936000D03*
X77470000Y-125984000D03*
G04 #@! TD*
D25*
G04 #@! TO.C,HPS1*
X86945000Y-86360000D03*
D26*
X80645000Y-88640000D03*
X80645000Y-87500000D03*
X80645000Y-85220000D03*
X80645000Y-84080000D03*
G04 #@! TD*
D25*
G04 #@! TO.C,HPS2*
X86945000Y-99060000D03*
D26*
X80645000Y-101340000D03*
X80645000Y-100200000D03*
X80645000Y-97920000D03*
X80645000Y-96780000D03*
G04 #@! TD*
D25*
G04 #@! TO.C,HPS3*
X86945000Y-111760000D03*
D26*
X80645000Y-114040000D03*
X80645000Y-112900000D03*
X80645000Y-110620000D03*
X80645000Y-109480000D03*
G04 #@! TD*
D25*
G04 #@! TO.C,HPS4*
X86945000Y-124460000D03*
D26*
X80645000Y-126740000D03*
X80645000Y-125600000D03*
X80645000Y-123320000D03*
X80645000Y-122180000D03*
G04 #@! TD*
D27*
G04 #@! TO.C,J3*
X108155000Y-92710000D03*
X133142000Y-92710000D03*
D28*
X115110000Y-91290000D03*
X117880000Y-91290000D03*
X120650000Y-91290000D03*
X123420000Y-91290000D03*
D29*
X126190000Y-91290000D03*
D28*
X116495000Y-94130000D03*
X119265000Y-94130000D03*
X122035000Y-94130000D03*
X124805000Y-94130000D03*
G04 #@! TD*
D27*
G04 #@! TO.C,J4*
X108155000Y-118110000D03*
X133142000Y-118110000D03*
D29*
X115110000Y-116690000D03*
D28*
X117880000Y-116690000D03*
X120650000Y-116690000D03*
X123420000Y-116690000D03*
X126190000Y-116690000D03*
X116495000Y-119530000D03*
X119265000Y-119530000D03*
X122035000Y-119530000D03*
X124805000Y-119530000D03*
G04 #@! TD*
D30*
G04 #@! TO.C,J1*
X152400000Y-85710000D03*
D31*
X150632200Y-94477800D03*
X154167800Y-94477800D03*
X154167800Y-90942200D03*
X150632200Y-90942200D03*
X152400000Y-92710000D03*
G04 #@! TD*
D30*
G04 #@! TO.C,J2*
X152400000Y-111110000D03*
D31*
X150632200Y-119877800D03*
X154167800Y-119877800D03*
X154167800Y-116342200D03*
X150632200Y-116342200D03*
X152400000Y-118110000D03*
G04 #@! TD*
D11*
G04 #@! TO.C,R1*
X71501000Y-85725000D03*
X74549000Y-85725000D03*
G04 #@! TD*
G04 #@! TO.C,R2*
X71501000Y-99060000D03*
X74549000Y-99060000D03*
G04 #@! TD*
G04 #@! TO.C,R3*
X71501000Y-111760000D03*
X74549000Y-111760000D03*
G04 #@! TD*
G04 #@! TO.C,R4*
X71501000Y-124460000D03*
X74549000Y-124460000D03*
G04 #@! TD*
G04 #@! TO.C,R5*
X134874000Y-99695000D03*
X131826000Y-99695000D03*
G04 #@! TD*
G04 #@! TO.C,R6*
X134874000Y-103505000D03*
X131826000Y-103505000D03*
G04 #@! TD*
G04 #@! TO.C,R7*
X134874000Y-107315000D03*
X131826000Y-107315000D03*
G04 #@! TD*
D32*
G04 #@! TO.C,U1*
X116410000Y-99695000D03*
X116410000Y-100965000D03*
X116410000Y-102235000D03*
X116410000Y-103505000D03*
X116410000Y-104775000D03*
X116410000Y-106045000D03*
X116410000Y-107315000D03*
X116410000Y-108585000D03*
X116410000Y-109855000D03*
X116410000Y-111125000D03*
X107110000Y-111125000D03*
X107110000Y-109855000D03*
X107110000Y-108585000D03*
X107110000Y-107315000D03*
X107110000Y-106045000D03*
X107110000Y-104775000D03*
X107110000Y-103505000D03*
X107110000Y-102235000D03*
X107110000Y-100965000D03*
X107110000Y-99695000D03*
G04 #@! TD*
G04 #@! TO.C,U2*
X148160000Y-99695000D03*
X148160000Y-100965000D03*
X148160000Y-102235000D03*
X148160000Y-103505000D03*
X148160000Y-104775000D03*
X148160000Y-106045000D03*
X148160000Y-107315000D03*
X148160000Y-108585000D03*
X148160000Y-109855000D03*
X148160000Y-111125000D03*
X138860000Y-111125000D03*
X138860000Y-109855000D03*
X138860000Y-108585000D03*
X138860000Y-107315000D03*
X138860000Y-106045000D03*
X138860000Y-104775000D03*
X138860000Y-103505000D03*
X138860000Y-102235000D03*
X138860000Y-100965000D03*
X138860000Y-99695000D03*
G04 #@! TD*
D33*
G04 #@! TO.C,L1*
X166370000Y-102870000D03*
X166370000Y-107950000D03*
G04 #@! TD*
G04 #@! TO.C,L2*
X93345000Y-89535000D03*
X93345000Y-84455000D03*
G04 #@! TD*
G04 #@! TO.C,L3*
X95885000Y-84455000D03*
X95885000Y-89535000D03*
G04 #@! TD*
G04 #@! TO.C,L4*
X98425000Y-89535000D03*
X98425000Y-84455000D03*
G04 #@! TD*
G04 #@! TO.C,L5*
X100965000Y-84455000D03*
X100965000Y-89535000D03*
G04 #@! TD*
G04 #@! TO.C,L6*
X93345000Y-126365000D03*
X93345000Y-121285000D03*
G04 #@! TD*
G04 #@! TO.C,L7*
X95885000Y-126365000D03*
X95885000Y-121285000D03*
G04 #@! TD*
G04 #@! TO.C,L8*
X98425000Y-121285000D03*
X98425000Y-126365000D03*
G04 #@! TD*
G04 #@! TO.C,L9*
X100965000Y-121285000D03*
X100965000Y-126365000D03*
G04 #@! TD*
G04 #@! TO.C,L10*
X141605000Y-84455000D03*
X141605000Y-89535000D03*
G04 #@! TD*
G04 #@! TO.C,L11*
X141605000Y-126365000D03*
X141605000Y-121285000D03*
G04 #@! TD*
M02*
