G04 #@! TF.GenerationSoftware,KiCad,Pcbnew,6.0.0-rc1-unknown-d9d0051~66~ubuntu18.04.1*
G04 #@! TF.CreationDate,2018-08-28T13:07:50-04:00*
G04 #@! TF.ProjectId,sleep_rig_controller_5x3,736D6172745F766973696F6E5F636F6E,1.0*
G04 #@! TF.SameCoordinates,Original*
G04 #@! TF.FileFunction,Legend,Top*
G04 #@! TF.FilePolarity,Positive*
%FSLAX46Y46*%
G04 Gerber Fmt 4.6, Leading zero omitted, Abs format (unit mm)*
G04 Created by KiCad (PCBNEW 6.0.0-rc1-unknown-d9d0051~66~ubuntu18.04.1) date Tue Aug 28 13:07:50 2018*
%MOMM*%
%LPD*%
G01*
G04 APERTURE LIST*
%ADD10C,0.254000*%
%ADD11C,0.190500*%
%ADD12C,0.381000*%
%ADD13C,0.317500*%
%ADD14C,0.228600*%
%ADD15C,0.400000*%
%ADD16O,5.080000X3.556000*%
%ADD17O,4.064000X5.080000*%
%ADD18O,4.572000X3.556000*%
%ADD19C,1.930400*%
%ADD20O,4.000000X3.000000*%
%ADD21R,4.000000X3.000000*%
%ADD22C,4.000000*%
%ADD23O,1.854200X2.540000*%
%ADD24C,3.556000*%
%ADD25R,1.854200X2.540000*%
%ADD26O,5.000000X6.000000*%
%ADD27O,1.600000X2.200000*%
%ADD28R,1.600000X2.200000*%
%ADD29C,3.000000*%
%ADD30O,1.500000X2.500000*%
%ADD31O,1.524000X2.032000*%
G04 APERTURE END LIST*
D10*
X170833142Y-104309333D02*
X171316952Y-104309333D01*
X170736380Y-104599619D02*
X171075047Y-103583619D01*
X171413714Y-104599619D01*
X171752380Y-103922285D02*
X171752380Y-104599619D01*
X171752380Y-104019047D02*
X171800761Y-103970666D01*
X171897523Y-103922285D01*
X172042666Y-103922285D01*
X172139428Y-103970666D01*
X172187809Y-104067428D01*
X172187809Y-104599619D01*
X172574857Y-103922285D02*
X172816761Y-104599619D01*
X173058666Y-103922285D02*
X172816761Y-104599619D01*
X172720000Y-104841523D01*
X172671619Y-104889904D01*
X172574857Y-104938285D01*
X174171428Y-104551238D02*
X174316571Y-104599619D01*
X174558476Y-104599619D01*
X174655238Y-104551238D01*
X174703619Y-104502857D01*
X174752000Y-104406095D01*
X174752000Y-104309333D01*
X174703619Y-104212571D01*
X174655238Y-104164190D01*
X174558476Y-104115809D01*
X174364952Y-104067428D01*
X174268190Y-104019047D01*
X174219809Y-103970666D01*
X174171428Y-103873904D01*
X174171428Y-103777142D01*
X174219809Y-103680380D01*
X174268190Y-103632000D01*
X174364952Y-103583619D01*
X174606857Y-103583619D01*
X174752000Y-103632000D01*
X175187428Y-104599619D02*
X175187428Y-103922285D01*
X175187428Y-103583619D02*
X175139047Y-103632000D01*
X175187428Y-103680380D01*
X175235809Y-103632000D01*
X175187428Y-103583619D01*
X175187428Y-103680380D01*
X175574476Y-103922285D02*
X176106666Y-103922285D01*
X175574476Y-104599619D01*
X176106666Y-104599619D01*
X176880761Y-104551238D02*
X176784000Y-104599619D01*
X176590476Y-104599619D01*
X176493714Y-104551238D01*
X176445333Y-104454476D01*
X176445333Y-104067428D01*
X176493714Y-103970666D01*
X176590476Y-103922285D01*
X176784000Y-103922285D01*
X176880761Y-103970666D01*
X176929142Y-104067428D01*
X176929142Y-104164190D01*
X176445333Y-104260952D01*
X178477333Y-104067428D02*
X178622476Y-104115809D01*
X178670857Y-104164190D01*
X178719238Y-104260952D01*
X178719238Y-104406095D01*
X178670857Y-104502857D01*
X178622476Y-104551238D01*
X178525714Y-104599619D01*
X178138666Y-104599619D01*
X178138666Y-103583619D01*
X178477333Y-103583619D01*
X178574095Y-103632000D01*
X178622476Y-103680380D01*
X178670857Y-103777142D01*
X178670857Y-103873904D01*
X178622476Y-103970666D01*
X178574095Y-104019047D01*
X178477333Y-104067428D01*
X178138666Y-104067428D01*
X179590095Y-104599619D02*
X179590095Y-104067428D01*
X179541714Y-103970666D01*
X179444952Y-103922285D01*
X179251428Y-103922285D01*
X179154666Y-103970666D01*
X179590095Y-104551238D02*
X179493333Y-104599619D01*
X179251428Y-104599619D01*
X179154666Y-104551238D01*
X179106285Y-104454476D01*
X179106285Y-104357714D01*
X179154666Y-104260952D01*
X179251428Y-104212571D01*
X179493333Y-104212571D01*
X179590095Y-104164190D01*
X180509333Y-104551238D02*
X180412571Y-104599619D01*
X180219047Y-104599619D01*
X180122285Y-104551238D01*
X180073904Y-104502857D01*
X180025523Y-104406095D01*
X180025523Y-104115809D01*
X180073904Y-104019047D01*
X180122285Y-103970666D01*
X180219047Y-103922285D01*
X180412571Y-103922285D01*
X180509333Y-103970666D01*
X180944761Y-104599619D02*
X180944761Y-103583619D01*
X181041523Y-104212571D02*
X181331809Y-104599619D01*
X181331809Y-103922285D02*
X180944761Y-104309333D01*
X181912380Y-104599619D02*
X181815619Y-104551238D01*
X181767238Y-104454476D01*
X181767238Y-103583619D01*
X182299428Y-104599619D02*
X182299428Y-103922285D01*
X182299428Y-103583619D02*
X182251047Y-103632000D01*
X182299428Y-103680380D01*
X182347809Y-103632000D01*
X182299428Y-103583619D01*
X182299428Y-103680380D01*
X183218666Y-103922285D02*
X183218666Y-104744761D01*
X183170285Y-104841523D01*
X183121904Y-104889904D01*
X183025142Y-104938285D01*
X182880000Y-104938285D01*
X182783238Y-104889904D01*
X183218666Y-104551238D02*
X183121904Y-104599619D01*
X182928380Y-104599619D01*
X182831619Y-104551238D01*
X182783238Y-104502857D01*
X182734857Y-104406095D01*
X182734857Y-104115809D01*
X182783238Y-104019047D01*
X182831619Y-103970666D01*
X182928380Y-103922285D01*
X183121904Y-103922285D01*
X183218666Y-103970666D01*
X183702476Y-104599619D02*
X183702476Y-103583619D01*
X184137904Y-104599619D02*
X184137904Y-104067428D01*
X184089523Y-103970666D01*
X183992761Y-103922285D01*
X183847619Y-103922285D01*
X183750857Y-103970666D01*
X183702476Y-104019047D01*
X184476571Y-103922285D02*
X184863619Y-103922285D01*
X184621714Y-103583619D02*
X184621714Y-104454476D01*
X184670095Y-104551238D01*
X184766857Y-104599619D01*
X184863619Y-104599619D01*
X169478476Y-107091238D02*
X169623619Y-107139619D01*
X169865523Y-107139619D01*
X169962285Y-107091238D01*
X170010666Y-107042857D01*
X170059047Y-106946095D01*
X170059047Y-106849333D01*
X170010666Y-106752571D01*
X169962285Y-106704190D01*
X169865523Y-106655809D01*
X169672000Y-106607428D01*
X169575238Y-106559047D01*
X169526857Y-106510666D01*
X169478476Y-106413904D01*
X169478476Y-106317142D01*
X169526857Y-106220380D01*
X169575238Y-106172000D01*
X169672000Y-106123619D01*
X169913904Y-106123619D01*
X170059047Y-106172000D01*
X170494476Y-107139619D02*
X170494476Y-106462285D01*
X170494476Y-106559047D02*
X170542857Y-106510666D01*
X170639619Y-106462285D01*
X170784761Y-106462285D01*
X170881523Y-106510666D01*
X170929904Y-106607428D01*
X170929904Y-107139619D01*
X170929904Y-106607428D02*
X170978285Y-106510666D01*
X171075047Y-106462285D01*
X171220190Y-106462285D01*
X171316952Y-106510666D01*
X171365333Y-106607428D01*
X171365333Y-107139619D01*
X172284571Y-107139619D02*
X172284571Y-106607428D01*
X172236190Y-106510666D01*
X172139428Y-106462285D01*
X171945904Y-106462285D01*
X171849142Y-106510666D01*
X172284571Y-107091238D02*
X172187809Y-107139619D01*
X171945904Y-107139619D01*
X171849142Y-107091238D01*
X171800761Y-106994476D01*
X171800761Y-106897714D01*
X171849142Y-106800952D01*
X171945904Y-106752571D01*
X172187809Y-106752571D01*
X172284571Y-106704190D01*
X172913523Y-107139619D02*
X172816761Y-107091238D01*
X172768380Y-106994476D01*
X172768380Y-106123619D01*
X173445714Y-107139619D02*
X173348952Y-107091238D01*
X173300571Y-106994476D01*
X173300571Y-106123619D01*
X174945523Y-106607428D02*
X175090666Y-106655809D01*
X175139047Y-106704190D01*
X175187428Y-106800952D01*
X175187428Y-106946095D01*
X175139047Y-107042857D01*
X175090666Y-107091238D01*
X174993904Y-107139619D01*
X174606857Y-107139619D01*
X174606857Y-106123619D01*
X174945523Y-106123619D01*
X175042285Y-106172000D01*
X175090666Y-106220380D01*
X175139047Y-106317142D01*
X175139047Y-106413904D01*
X175090666Y-106510666D01*
X175042285Y-106559047D01*
X174945523Y-106607428D01*
X174606857Y-106607428D01*
X176058285Y-107139619D02*
X176058285Y-106607428D01*
X176009904Y-106510666D01*
X175913142Y-106462285D01*
X175719619Y-106462285D01*
X175622857Y-106510666D01*
X176058285Y-107091238D02*
X175961523Y-107139619D01*
X175719619Y-107139619D01*
X175622857Y-107091238D01*
X175574476Y-106994476D01*
X175574476Y-106897714D01*
X175622857Y-106800952D01*
X175719619Y-106752571D01*
X175961523Y-106752571D01*
X176058285Y-106704190D01*
X176977523Y-107091238D02*
X176880761Y-107139619D01*
X176687238Y-107139619D01*
X176590476Y-107091238D01*
X176542095Y-107042857D01*
X176493714Y-106946095D01*
X176493714Y-106655809D01*
X176542095Y-106559047D01*
X176590476Y-106510666D01*
X176687238Y-106462285D01*
X176880761Y-106462285D01*
X176977523Y-106510666D01*
X177412952Y-107139619D02*
X177412952Y-106123619D01*
X177509714Y-106752571D02*
X177800000Y-107139619D01*
X177800000Y-106462285D02*
X177412952Y-106849333D01*
X178380571Y-107139619D02*
X178283809Y-107091238D01*
X178235428Y-106994476D01*
X178235428Y-106123619D01*
X178767619Y-107139619D02*
X178767619Y-106462285D01*
X178767619Y-106123619D02*
X178719238Y-106172000D01*
X178767619Y-106220380D01*
X178816000Y-106172000D01*
X178767619Y-106123619D01*
X178767619Y-106220380D01*
X179686857Y-106462285D02*
X179686857Y-107284761D01*
X179638476Y-107381523D01*
X179590095Y-107429904D01*
X179493333Y-107478285D01*
X179348190Y-107478285D01*
X179251428Y-107429904D01*
X179686857Y-107091238D02*
X179590095Y-107139619D01*
X179396571Y-107139619D01*
X179299809Y-107091238D01*
X179251428Y-107042857D01*
X179203047Y-106946095D01*
X179203047Y-106655809D01*
X179251428Y-106559047D01*
X179299809Y-106510666D01*
X179396571Y-106462285D01*
X179590095Y-106462285D01*
X179686857Y-106510666D01*
X180170666Y-107139619D02*
X180170666Y-106123619D01*
X180606095Y-107139619D02*
X180606095Y-106607428D01*
X180557714Y-106510666D01*
X180460952Y-106462285D01*
X180315809Y-106462285D01*
X180219047Y-106510666D01*
X180170666Y-106559047D01*
X180944761Y-106462285D02*
X181331809Y-106462285D01*
X181089904Y-106123619D02*
X181089904Y-106994476D01*
X181138285Y-107091238D01*
X181235047Y-107139619D01*
X181331809Y-107139619D01*
X181622095Y-107091238D02*
X181718857Y-107139619D01*
X181912380Y-107139619D01*
X182009142Y-107091238D01*
X182057523Y-106994476D01*
X182057523Y-106946095D01*
X182009142Y-106849333D01*
X181912380Y-106800952D01*
X181767238Y-106800952D01*
X181670476Y-106752571D01*
X181622095Y-106655809D01*
X181622095Y-106607428D01*
X181670476Y-106510666D01*
X181767238Y-106462285D01*
X181912380Y-106462285D01*
X182009142Y-106510666D01*
X183460571Y-106123619D02*
X183654095Y-106123619D01*
X183750857Y-106172000D01*
X183847619Y-106268761D01*
X183896000Y-106462285D01*
X183896000Y-106800952D01*
X183847619Y-106994476D01*
X183750857Y-107091238D01*
X183654095Y-107139619D01*
X183460571Y-107139619D01*
X183363809Y-107091238D01*
X183267047Y-106994476D01*
X183218666Y-106800952D01*
X183218666Y-106462285D01*
X183267047Y-106268761D01*
X183363809Y-106172000D01*
X183460571Y-106123619D01*
X184331428Y-106462285D02*
X184331428Y-107139619D01*
X184331428Y-106559047D02*
X184379809Y-106510666D01*
X184476571Y-106462285D01*
X184621714Y-106462285D01*
X184718476Y-106510666D01*
X184766857Y-106607428D01*
X184766857Y-107139619D01*
X185395809Y-107139619D02*
X185299047Y-107091238D01*
X185250666Y-106994476D01*
X185250666Y-106123619D01*
X185686095Y-106462285D02*
X185928000Y-107139619D01*
X186169904Y-106462285D02*
X185928000Y-107139619D01*
X185831238Y-107381523D01*
X185782857Y-107429904D01*
X185686095Y-107478285D01*
D11*
X92927714Y-119818603D02*
X93689714Y-119564603D01*
X92927714Y-119310603D01*
X93689714Y-119056603D02*
X92927714Y-119056603D01*
X93653428Y-118730032D02*
X93689714Y-118621175D01*
X93689714Y-118439746D01*
X93653428Y-118367175D01*
X93617142Y-118330889D01*
X93544571Y-118294603D01*
X93472000Y-118294603D01*
X93399428Y-118330889D01*
X93363142Y-118367175D01*
X93326857Y-118439746D01*
X93290571Y-118584889D01*
X93254285Y-118657460D01*
X93218000Y-118693746D01*
X93145428Y-118730032D01*
X93072857Y-118730032D01*
X93000285Y-118693746D01*
X92964000Y-118657460D01*
X92927714Y-118584889D01*
X92927714Y-118403460D01*
X92964000Y-118294603D01*
X93689714Y-117968032D02*
X92927714Y-117968032D01*
X93290571Y-117351175D02*
X93326857Y-117242317D01*
X93363142Y-117206032D01*
X93435714Y-117169746D01*
X93544571Y-117169746D01*
X93617142Y-117206032D01*
X93653428Y-117242317D01*
X93689714Y-117314889D01*
X93689714Y-117605175D01*
X92927714Y-117605175D01*
X92927714Y-117351175D01*
X92964000Y-117278603D01*
X93000285Y-117242317D01*
X93072857Y-117206032D01*
X93145428Y-117206032D01*
X93218000Y-117242317D01*
X93254285Y-117278603D01*
X93290571Y-117351175D01*
X93290571Y-117605175D01*
X93689714Y-116480317D02*
X93689714Y-116843175D01*
X92927714Y-116843175D01*
X93290571Y-116226317D02*
X93290571Y-115972317D01*
X93689714Y-115863460D02*
X93689714Y-116226317D01*
X92927714Y-116226317D01*
X92927714Y-115863460D01*
X93689714Y-114593460D02*
X93689714Y-114956317D01*
X92927714Y-114956317D01*
X93689714Y-114339460D02*
X92927714Y-114339460D01*
X92964000Y-113577460D02*
X92927714Y-113650032D01*
X92927714Y-113758889D01*
X92964000Y-113867746D01*
X93036571Y-113940317D01*
X93109142Y-113976603D01*
X93254285Y-114012889D01*
X93363142Y-114012889D01*
X93508285Y-113976603D01*
X93580857Y-113940317D01*
X93653428Y-113867746D01*
X93689714Y-113758889D01*
X93689714Y-113686317D01*
X93653428Y-113577460D01*
X93617142Y-113541175D01*
X93363142Y-113541175D01*
X93363142Y-113686317D01*
X93689714Y-113214603D02*
X92927714Y-113214603D01*
X93290571Y-113214603D02*
X93290571Y-112779175D01*
X93689714Y-112779175D02*
X92927714Y-112779175D01*
X92927714Y-112525175D02*
X92927714Y-112089746D01*
X93689714Y-112307460D02*
X92927714Y-112307460D01*
X93689714Y-111255175D02*
X92927714Y-111255175D01*
X93689714Y-110892317D02*
X92927714Y-110892317D01*
X93689714Y-110456889D01*
X92927714Y-110456889D01*
X93689714Y-110094032D02*
X92927714Y-110094032D01*
X92927714Y-109912603D01*
X92964000Y-109803746D01*
X93036571Y-109731175D01*
X93109142Y-109694889D01*
X93254285Y-109658603D01*
X93363142Y-109658603D01*
X93508285Y-109694889D01*
X93580857Y-109731175D01*
X93653428Y-109803746D01*
X93689714Y-109912603D01*
X93689714Y-110094032D01*
X93689714Y-109332032D02*
X92927714Y-109332032D01*
X93617142Y-108533746D02*
X93653428Y-108570032D01*
X93689714Y-108678889D01*
X93689714Y-108751460D01*
X93653428Y-108860317D01*
X93580857Y-108932889D01*
X93508285Y-108969175D01*
X93363142Y-109005460D01*
X93254285Y-109005460D01*
X93109142Y-108969175D01*
X93036571Y-108932889D01*
X92964000Y-108860317D01*
X92927714Y-108751460D01*
X92927714Y-108678889D01*
X92964000Y-108570032D01*
X93000285Y-108533746D01*
X93472000Y-108243460D02*
X93472000Y-107880603D01*
X93689714Y-108316032D02*
X92927714Y-108062032D01*
X93689714Y-107808032D01*
X92927714Y-107662889D02*
X92927714Y-107227460D01*
X93689714Y-107445175D02*
X92927714Y-107445175D01*
X92927714Y-106828317D02*
X92927714Y-106683175D01*
X92964000Y-106610603D01*
X93036571Y-106538032D01*
X93181714Y-106501746D01*
X93435714Y-106501746D01*
X93580857Y-106538032D01*
X93653428Y-106610603D01*
X93689714Y-106683175D01*
X93689714Y-106828317D01*
X93653428Y-106900889D01*
X93580857Y-106973460D01*
X93435714Y-107009746D01*
X93181714Y-107009746D01*
X93036571Y-106973460D01*
X92964000Y-106900889D01*
X92927714Y-106828317D01*
X93689714Y-105739746D02*
X93326857Y-105993746D01*
X93689714Y-106175175D02*
X92927714Y-106175175D01*
X92927714Y-105884889D01*
X92964000Y-105812317D01*
X93000285Y-105776032D01*
X93072857Y-105739746D01*
X93181714Y-105739746D01*
X93254285Y-105776032D01*
X93290571Y-105812317D01*
X93326857Y-105884889D01*
X93326857Y-106175175D01*
X98370571Y-119455746D02*
X98406857Y-119346889D01*
X98443142Y-119310603D01*
X98515714Y-119274317D01*
X98624571Y-119274317D01*
X98697142Y-119310603D01*
X98733428Y-119346889D01*
X98769714Y-119419460D01*
X98769714Y-119709746D01*
X98007714Y-119709746D01*
X98007714Y-119455746D01*
X98044000Y-119383175D01*
X98080285Y-119346889D01*
X98152857Y-119310603D01*
X98225428Y-119310603D01*
X98298000Y-119346889D01*
X98334285Y-119383175D01*
X98370571Y-119455746D01*
X98370571Y-119709746D01*
X98007714Y-118947746D02*
X98624571Y-118947746D01*
X98697142Y-118911460D01*
X98733428Y-118875175D01*
X98769714Y-118802603D01*
X98769714Y-118657460D01*
X98733428Y-118584889D01*
X98697142Y-118548603D01*
X98624571Y-118512317D01*
X98007714Y-118512317D01*
X98007714Y-118222032D02*
X98007714Y-117714032D01*
X98769714Y-118222032D01*
X98769714Y-117714032D01*
X98007714Y-117496317D02*
X98007714Y-116988317D01*
X98769714Y-117496317D01*
X98769714Y-116988317D01*
X98370571Y-116698032D02*
X98370571Y-116444032D01*
X98769714Y-116335175D02*
X98769714Y-116698032D01*
X98007714Y-116698032D01*
X98007714Y-116335175D01*
X98769714Y-115573175D02*
X98406857Y-115827175D01*
X98769714Y-116008603D02*
X98007714Y-116008603D01*
X98007714Y-115718317D01*
X98044000Y-115645746D01*
X98080285Y-115609460D01*
X98152857Y-115573175D01*
X98261714Y-115573175D01*
X98334285Y-115609460D01*
X98370571Y-115645746D01*
X98406857Y-115718317D01*
X98406857Y-116008603D01*
X98769714Y-114666032D02*
X98007714Y-114666032D01*
X98769714Y-114303175D02*
X98007714Y-114303175D01*
X98769714Y-113867746D01*
X98007714Y-113867746D01*
X98769714Y-113504889D02*
X98007714Y-113504889D01*
X98007714Y-113323460D01*
X98044000Y-113214603D01*
X98116571Y-113142032D01*
X98189142Y-113105746D01*
X98334285Y-113069460D01*
X98443142Y-113069460D01*
X98588285Y-113105746D01*
X98660857Y-113142032D01*
X98733428Y-113214603D01*
X98769714Y-113323460D01*
X98769714Y-113504889D01*
X98769714Y-112742889D02*
X98007714Y-112742889D01*
X98697142Y-111944603D02*
X98733428Y-111980889D01*
X98769714Y-112089746D01*
X98769714Y-112162317D01*
X98733428Y-112271175D01*
X98660857Y-112343746D01*
X98588285Y-112380032D01*
X98443142Y-112416317D01*
X98334285Y-112416317D01*
X98189142Y-112380032D01*
X98116571Y-112343746D01*
X98044000Y-112271175D01*
X98007714Y-112162317D01*
X98007714Y-112089746D01*
X98044000Y-111980889D01*
X98080285Y-111944603D01*
X98552000Y-111654317D02*
X98552000Y-111291460D01*
X98769714Y-111726889D02*
X98007714Y-111472889D01*
X98769714Y-111218889D01*
X98007714Y-111073746D02*
X98007714Y-110638317D01*
X98769714Y-110856032D02*
X98007714Y-110856032D01*
X98007714Y-110239175D02*
X98007714Y-110094032D01*
X98044000Y-110021460D01*
X98116571Y-109948889D01*
X98261714Y-109912603D01*
X98515714Y-109912603D01*
X98660857Y-109948889D01*
X98733428Y-110021460D01*
X98769714Y-110094032D01*
X98769714Y-110239175D01*
X98733428Y-110311746D01*
X98660857Y-110384317D01*
X98515714Y-110420603D01*
X98261714Y-110420603D01*
X98116571Y-110384317D01*
X98044000Y-110311746D01*
X98007714Y-110239175D01*
X98769714Y-109150603D02*
X98406857Y-109404603D01*
X98769714Y-109586032D02*
X98007714Y-109586032D01*
X98007714Y-109295746D01*
X98044000Y-109223175D01*
X98080285Y-109186889D01*
X98152857Y-109150603D01*
X98261714Y-109150603D01*
X98334285Y-109186889D01*
X98370571Y-109223175D01*
X98406857Y-109295746D01*
X98406857Y-109586032D01*
X95467714Y-119782317D02*
X96229714Y-119600889D01*
X95685428Y-119455746D01*
X96229714Y-119310603D01*
X95467714Y-119129175D01*
X96229714Y-118838889D02*
X95467714Y-118838889D01*
X95830571Y-118838889D02*
X95830571Y-118403460D01*
X96229714Y-118403460D02*
X95467714Y-118403460D01*
X96229714Y-118040603D02*
X95467714Y-118040603D01*
X95467714Y-117786603D02*
X95467714Y-117351175D01*
X96229714Y-117568889D02*
X95467714Y-117568889D01*
X95830571Y-117097175D02*
X95830571Y-116843175D01*
X96229714Y-116734317D02*
X96229714Y-117097175D01*
X95467714Y-117097175D01*
X95467714Y-116734317D01*
X96229714Y-115464317D02*
X96229714Y-115827175D01*
X95467714Y-115827175D01*
X96229714Y-115210317D02*
X95467714Y-115210317D01*
X95504000Y-114448317D02*
X95467714Y-114520889D01*
X95467714Y-114629746D01*
X95504000Y-114738603D01*
X95576571Y-114811175D01*
X95649142Y-114847460D01*
X95794285Y-114883746D01*
X95903142Y-114883746D01*
X96048285Y-114847460D01*
X96120857Y-114811175D01*
X96193428Y-114738603D01*
X96229714Y-114629746D01*
X96229714Y-114557175D01*
X96193428Y-114448317D01*
X96157142Y-114412032D01*
X95903142Y-114412032D01*
X95903142Y-114557175D01*
X96229714Y-114085460D02*
X95467714Y-114085460D01*
X95830571Y-114085460D02*
X95830571Y-113650032D01*
X96229714Y-113650032D02*
X95467714Y-113650032D01*
X95467714Y-113396032D02*
X95467714Y-112960603D01*
X96229714Y-113178317D02*
X95467714Y-113178317D01*
X96229714Y-112126032D02*
X95467714Y-112126032D01*
X96229714Y-111763175D02*
X95467714Y-111763175D01*
X96229714Y-111327746D01*
X95467714Y-111327746D01*
X96229714Y-110964889D02*
X95467714Y-110964889D01*
X95467714Y-110783460D01*
X95504000Y-110674603D01*
X95576571Y-110602032D01*
X95649142Y-110565746D01*
X95794285Y-110529460D01*
X95903142Y-110529460D01*
X96048285Y-110565746D01*
X96120857Y-110602032D01*
X96193428Y-110674603D01*
X96229714Y-110783460D01*
X96229714Y-110964889D01*
X96229714Y-110202889D02*
X95467714Y-110202889D01*
X96157142Y-109404603D02*
X96193428Y-109440889D01*
X96229714Y-109549746D01*
X96229714Y-109622317D01*
X96193428Y-109731175D01*
X96120857Y-109803746D01*
X96048285Y-109840032D01*
X95903142Y-109876317D01*
X95794285Y-109876317D01*
X95649142Y-109840032D01*
X95576571Y-109803746D01*
X95504000Y-109731175D01*
X95467714Y-109622317D01*
X95467714Y-109549746D01*
X95504000Y-109440889D01*
X95540285Y-109404603D01*
X96012000Y-109114317D02*
X96012000Y-108751460D01*
X96229714Y-109186889D02*
X95467714Y-108932889D01*
X96229714Y-108678889D01*
X95467714Y-108533746D02*
X95467714Y-108098317D01*
X96229714Y-108316032D02*
X95467714Y-108316032D01*
X95467714Y-107699175D02*
X95467714Y-107554032D01*
X95504000Y-107481460D01*
X95576571Y-107408889D01*
X95721714Y-107372603D01*
X95975714Y-107372603D01*
X96120857Y-107408889D01*
X96193428Y-107481460D01*
X96229714Y-107554032D01*
X96229714Y-107699175D01*
X96193428Y-107771746D01*
X96120857Y-107844317D01*
X95975714Y-107880603D01*
X95721714Y-107880603D01*
X95576571Y-107844317D01*
X95504000Y-107771746D01*
X95467714Y-107699175D01*
X96229714Y-106610603D02*
X95866857Y-106864603D01*
X96229714Y-107046032D02*
X95467714Y-107046032D01*
X95467714Y-106755746D01*
X95504000Y-106683175D01*
X95540285Y-106646889D01*
X95612857Y-106610603D01*
X95721714Y-106610603D01*
X95794285Y-106646889D01*
X95830571Y-106683175D01*
X95866857Y-106755746D01*
X95866857Y-107046032D01*
X101237142Y-119274317D02*
X101273428Y-119310603D01*
X101309714Y-119419460D01*
X101309714Y-119492032D01*
X101273428Y-119600889D01*
X101200857Y-119673460D01*
X101128285Y-119709746D01*
X100983142Y-119746032D01*
X100874285Y-119746032D01*
X100729142Y-119709746D01*
X100656571Y-119673460D01*
X100584000Y-119600889D01*
X100547714Y-119492032D01*
X100547714Y-119419460D01*
X100584000Y-119310603D01*
X100620285Y-119274317D01*
X101092000Y-118984032D02*
X101092000Y-118621175D01*
X101309714Y-119056603D02*
X100547714Y-118802603D01*
X101309714Y-118548603D01*
X101309714Y-118294603D02*
X100547714Y-118294603D01*
X101092000Y-118040603D01*
X100547714Y-117786603D01*
X101309714Y-117786603D01*
X100910571Y-117423746D02*
X100910571Y-117169746D01*
X101309714Y-117060889D02*
X101309714Y-117423746D01*
X100547714Y-117423746D01*
X100547714Y-117060889D01*
X101309714Y-116298889D02*
X100946857Y-116552889D01*
X101309714Y-116734317D02*
X100547714Y-116734317D01*
X100547714Y-116444032D01*
X100584000Y-116371460D01*
X100620285Y-116335175D01*
X100692857Y-116298889D01*
X100801714Y-116298889D01*
X100874285Y-116335175D01*
X100910571Y-116371460D01*
X100946857Y-116444032D01*
X100946857Y-116734317D01*
X101092000Y-116008603D02*
X101092000Y-115645746D01*
X101309714Y-116081175D02*
X100547714Y-115827175D01*
X101309714Y-115573175D01*
X100547714Y-114847460D02*
X100547714Y-114412032D01*
X101309714Y-114629746D02*
X100547714Y-114629746D01*
X101309714Y-113722603D02*
X100946857Y-113976603D01*
X101309714Y-114158032D02*
X100547714Y-114158032D01*
X100547714Y-113867746D01*
X100584000Y-113795175D01*
X100620285Y-113758889D01*
X100692857Y-113722603D01*
X100801714Y-113722603D01*
X100874285Y-113758889D01*
X100910571Y-113795175D01*
X100946857Y-113867746D01*
X100946857Y-114158032D01*
X101309714Y-113396032D02*
X100547714Y-113396032D01*
X100584000Y-112634032D02*
X100547714Y-112706603D01*
X100547714Y-112815460D01*
X100584000Y-112924317D01*
X100656571Y-112996889D01*
X100729142Y-113033175D01*
X100874285Y-113069460D01*
X100983142Y-113069460D01*
X101128285Y-113033175D01*
X101200857Y-112996889D01*
X101273428Y-112924317D01*
X101309714Y-112815460D01*
X101309714Y-112742889D01*
X101273428Y-112634032D01*
X101237142Y-112597746D01*
X100983142Y-112597746D01*
X100983142Y-112742889D01*
X100584000Y-111872032D02*
X100547714Y-111944603D01*
X100547714Y-112053460D01*
X100584000Y-112162317D01*
X100656571Y-112234889D01*
X100729142Y-112271175D01*
X100874285Y-112307460D01*
X100983142Y-112307460D01*
X101128285Y-112271175D01*
X101200857Y-112234889D01*
X101273428Y-112162317D01*
X101309714Y-112053460D01*
X101309714Y-111980889D01*
X101273428Y-111872032D01*
X101237142Y-111835746D01*
X100983142Y-111835746D01*
X100983142Y-111980889D01*
X100910571Y-111509175D02*
X100910571Y-111255175D01*
X101309714Y-111146317D02*
X101309714Y-111509175D01*
X100547714Y-111509175D01*
X100547714Y-111146317D01*
X101309714Y-110384317D02*
X100946857Y-110638317D01*
X101309714Y-110819746D02*
X100547714Y-110819746D01*
X100547714Y-110529460D01*
X100584000Y-110456889D01*
X100620285Y-110420603D01*
X100692857Y-110384317D01*
X100801714Y-110384317D01*
X100874285Y-110420603D01*
X100910571Y-110456889D01*
X100946857Y-110529460D01*
X100946857Y-110819746D01*
X98370571Y-94956539D02*
X98406857Y-94847682D01*
X98443142Y-94811396D01*
X98515714Y-94775110D01*
X98624571Y-94775110D01*
X98697142Y-94811396D01*
X98733428Y-94847682D01*
X98769714Y-94920253D01*
X98769714Y-95210539D01*
X98007714Y-95210539D01*
X98007714Y-94956539D01*
X98044000Y-94883967D01*
X98080285Y-94847682D01*
X98152857Y-94811396D01*
X98225428Y-94811396D01*
X98298000Y-94847682D01*
X98334285Y-94883967D01*
X98370571Y-94956539D01*
X98370571Y-95210539D01*
X98007714Y-94448539D02*
X98624571Y-94448539D01*
X98697142Y-94412253D01*
X98733428Y-94375967D01*
X98769714Y-94303396D01*
X98769714Y-94158253D01*
X98733428Y-94085682D01*
X98697142Y-94049396D01*
X98624571Y-94013110D01*
X98007714Y-94013110D01*
X98007714Y-93722825D02*
X98007714Y-93214825D01*
X98769714Y-93722825D01*
X98769714Y-93214825D01*
X98007714Y-92997110D02*
X98007714Y-92489110D01*
X98769714Y-92997110D01*
X98769714Y-92489110D01*
X98370571Y-92198825D02*
X98370571Y-91944825D01*
X98769714Y-91835967D02*
X98769714Y-92198825D01*
X98007714Y-92198825D01*
X98007714Y-91835967D01*
X98769714Y-91073967D02*
X98406857Y-91327967D01*
X98769714Y-91509396D02*
X98007714Y-91509396D01*
X98007714Y-91219110D01*
X98044000Y-91146539D01*
X98080285Y-91110253D01*
X98152857Y-91073967D01*
X98261714Y-91073967D01*
X98334285Y-91110253D01*
X98370571Y-91146539D01*
X98406857Y-91219110D01*
X98406857Y-91509396D01*
X95467714Y-97823110D02*
X96229714Y-97641682D01*
X95685428Y-97496539D01*
X96229714Y-97351396D01*
X95467714Y-97169967D01*
X96229714Y-96879682D02*
X95467714Y-96879682D01*
X95830571Y-96879682D02*
X95830571Y-96444253D01*
X96229714Y-96444253D02*
X95467714Y-96444253D01*
X96229714Y-96081396D02*
X95467714Y-96081396D01*
X95467714Y-95827396D02*
X95467714Y-95391967D01*
X96229714Y-95609682D02*
X95467714Y-95609682D01*
X95830571Y-95137967D02*
X95830571Y-94883967D01*
X96229714Y-94775110D02*
X96229714Y-95137967D01*
X95467714Y-95137967D01*
X95467714Y-94775110D01*
X96229714Y-93505110D02*
X96229714Y-93867967D01*
X95467714Y-93867967D01*
X96229714Y-93251110D02*
X95467714Y-93251110D01*
X95504000Y-92489110D02*
X95467714Y-92561682D01*
X95467714Y-92670539D01*
X95504000Y-92779396D01*
X95576571Y-92851967D01*
X95649142Y-92888253D01*
X95794285Y-92924539D01*
X95903142Y-92924539D01*
X96048285Y-92888253D01*
X96120857Y-92851967D01*
X96193428Y-92779396D01*
X96229714Y-92670539D01*
X96229714Y-92597967D01*
X96193428Y-92489110D01*
X96157142Y-92452825D01*
X95903142Y-92452825D01*
X95903142Y-92597967D01*
X96229714Y-92126253D02*
X95467714Y-92126253D01*
X95830571Y-92126253D02*
X95830571Y-91690825D01*
X96229714Y-91690825D02*
X95467714Y-91690825D01*
X95467714Y-91436825D02*
X95467714Y-91001396D01*
X96229714Y-91219110D02*
X95467714Y-91219110D01*
X93290571Y-93323682D02*
X93290571Y-93577682D01*
X93689714Y-93577682D02*
X92927714Y-93577682D01*
X92927714Y-93214825D01*
X93472000Y-92960825D02*
X93472000Y-92597967D01*
X93689714Y-93033396D02*
X92927714Y-92779396D01*
X93689714Y-92525396D01*
X93689714Y-92271396D02*
X92927714Y-92271396D01*
X93689714Y-91835967D01*
X92927714Y-91835967D01*
X93653428Y-91509396D02*
X93689714Y-91400539D01*
X93689714Y-91219110D01*
X93653428Y-91146539D01*
X93617142Y-91110253D01*
X93544571Y-91073967D01*
X93472000Y-91073967D01*
X93399428Y-91110253D01*
X93363142Y-91146539D01*
X93326857Y-91219110D01*
X93290571Y-91364253D01*
X93254285Y-91436825D01*
X93218000Y-91473110D01*
X93145428Y-91509396D01*
X93072857Y-91509396D01*
X93000285Y-91473110D01*
X92964000Y-91436825D01*
X92927714Y-91364253D01*
X92927714Y-91182825D01*
X92964000Y-91073967D01*
D12*
X167640000Y-105410000D02*
X190500000Y-105410000D01*
X165100000Y-105410000D02*
X88900000Y-105410000D01*
D13*
X105651904Y-128844523D02*
X105047142Y-128844523D01*
X104986666Y-129449285D01*
X105047142Y-129388809D01*
X105168095Y-129328333D01*
X105470476Y-129328333D01*
X105591428Y-129388809D01*
X105651904Y-129449285D01*
X105712380Y-129570238D01*
X105712380Y-129872619D01*
X105651904Y-129993571D01*
X105591428Y-130054047D01*
X105470476Y-130114523D01*
X105168095Y-130114523D01*
X105047142Y-130054047D01*
X104986666Y-129993571D01*
X106075238Y-128844523D02*
X106498571Y-130114523D01*
X106921904Y-128844523D01*
X108554761Y-128844523D02*
X108796666Y-128844523D01*
X108917619Y-128905000D01*
X109038571Y-129025952D01*
X109099047Y-129267857D01*
X109099047Y-129691190D01*
X109038571Y-129933095D01*
X108917619Y-130054047D01*
X108796666Y-130114523D01*
X108554761Y-130114523D01*
X108433809Y-130054047D01*
X108312857Y-129933095D01*
X108252380Y-129691190D01*
X108252380Y-129267857D01*
X108312857Y-129025952D01*
X108433809Y-128905000D01*
X108554761Y-128844523D01*
X110187619Y-129267857D02*
X110187619Y-130114523D01*
X109643333Y-129267857D02*
X109643333Y-129933095D01*
X109703809Y-130054047D01*
X109824761Y-130114523D01*
X110006190Y-130114523D01*
X110127142Y-130054047D01*
X110187619Y-129993571D01*
X110610952Y-129267857D02*
X111094761Y-129267857D01*
X110792380Y-128844523D02*
X110792380Y-129933095D01*
X110852857Y-130054047D01*
X110973809Y-130114523D01*
X111094761Y-130114523D01*
X111518095Y-129267857D02*
X111518095Y-130537857D01*
X111518095Y-129328333D02*
X111639047Y-129267857D01*
X111880952Y-129267857D01*
X112001904Y-129328333D01*
X112062380Y-129388809D01*
X112122857Y-129509761D01*
X112122857Y-129872619D01*
X112062380Y-129993571D01*
X112001904Y-130054047D01*
X111880952Y-130114523D01*
X111639047Y-130114523D01*
X111518095Y-130054047D01*
X113211428Y-129267857D02*
X113211428Y-130114523D01*
X112667142Y-129267857D02*
X112667142Y-129933095D01*
X112727619Y-130054047D01*
X112848571Y-130114523D01*
X113030000Y-130114523D01*
X113150952Y-130054047D01*
X113211428Y-129993571D01*
X113634761Y-129267857D02*
X114118571Y-129267857D01*
X113816190Y-128844523D02*
X113816190Y-129933095D01*
X113876666Y-130054047D01*
X113997619Y-130114523D01*
X114118571Y-130114523D01*
X116235238Y-129993571D02*
X116174761Y-130054047D01*
X115993333Y-130114523D01*
X115872380Y-130114523D01*
X115690952Y-130054047D01*
X115570000Y-129933095D01*
X115509523Y-129812142D01*
X115449047Y-129570238D01*
X115449047Y-129388809D01*
X115509523Y-129146904D01*
X115570000Y-129025952D01*
X115690952Y-128905000D01*
X115872380Y-128844523D01*
X115993333Y-128844523D01*
X116174761Y-128905000D01*
X116235238Y-128965476D01*
X116779523Y-130114523D02*
X116779523Y-128844523D01*
X117323809Y-130114523D02*
X117323809Y-129449285D01*
X117263333Y-129328333D01*
X117142380Y-129267857D01*
X116960952Y-129267857D01*
X116840000Y-129328333D01*
X116779523Y-129388809D01*
X118472857Y-130114523D02*
X118472857Y-129449285D01*
X118412380Y-129328333D01*
X118291428Y-129267857D01*
X118049523Y-129267857D01*
X117928571Y-129328333D01*
X118472857Y-130054047D02*
X118351904Y-130114523D01*
X118049523Y-130114523D01*
X117928571Y-130054047D01*
X117868095Y-129933095D01*
X117868095Y-129812142D01*
X117928571Y-129691190D01*
X118049523Y-129630714D01*
X118351904Y-129630714D01*
X118472857Y-129570238D01*
X119077619Y-129267857D02*
X119077619Y-130114523D01*
X119077619Y-129388809D02*
X119138095Y-129328333D01*
X119259047Y-129267857D01*
X119440476Y-129267857D01*
X119561428Y-129328333D01*
X119621904Y-129449285D01*
X119621904Y-130114523D01*
X120226666Y-129267857D02*
X120226666Y-130114523D01*
X120226666Y-129388809D02*
X120287142Y-129328333D01*
X120408095Y-129267857D01*
X120589523Y-129267857D01*
X120710476Y-129328333D01*
X120770952Y-129449285D01*
X120770952Y-130114523D01*
X121859523Y-130054047D02*
X121738571Y-130114523D01*
X121496666Y-130114523D01*
X121375714Y-130054047D01*
X121315238Y-129933095D01*
X121315238Y-129449285D01*
X121375714Y-129328333D01*
X121496666Y-129267857D01*
X121738571Y-129267857D01*
X121859523Y-129328333D01*
X121920000Y-129449285D01*
X121920000Y-129570238D01*
X121315238Y-129691190D01*
X122645714Y-130114523D02*
X122524761Y-130054047D01*
X122464285Y-129933095D01*
X122464285Y-128844523D01*
X123069047Y-130054047D02*
X123190000Y-130114523D01*
X123431904Y-130114523D01*
X123552857Y-130054047D01*
X123613333Y-129933095D01*
X123613333Y-129872619D01*
X123552857Y-129751666D01*
X123431904Y-129691190D01*
X123250476Y-129691190D01*
X123129523Y-129630714D01*
X123069047Y-129509761D01*
X123069047Y-129449285D01*
X123129523Y-129328333D01*
X123250476Y-129267857D01*
X123431904Y-129267857D01*
X123552857Y-129328333D01*
X104381904Y-80705476D02*
X104442380Y-80645000D01*
X104563333Y-80584523D01*
X104865714Y-80584523D01*
X104986666Y-80645000D01*
X105047142Y-80705476D01*
X105107619Y-80826428D01*
X105107619Y-80947380D01*
X105047142Y-81128809D01*
X104321428Y-81854523D01*
X105107619Y-81854523D01*
X106196190Y-81007857D02*
X106196190Y-81854523D01*
X105893809Y-80524047D02*
X105591428Y-81431190D01*
X106377619Y-81431190D01*
X106680000Y-80584523D02*
X107103333Y-81854523D01*
X107526666Y-80584523D01*
X109159523Y-80584523D02*
X109401428Y-80584523D01*
X109522380Y-80645000D01*
X109643333Y-80765952D01*
X109703809Y-81007857D01*
X109703809Y-81431190D01*
X109643333Y-81673095D01*
X109522380Y-81794047D01*
X109401428Y-81854523D01*
X109159523Y-81854523D01*
X109038571Y-81794047D01*
X108917619Y-81673095D01*
X108857142Y-81431190D01*
X108857142Y-81007857D01*
X108917619Y-80765952D01*
X109038571Y-80645000D01*
X109159523Y-80584523D01*
X110792380Y-81007857D02*
X110792380Y-81854523D01*
X110248095Y-81007857D02*
X110248095Y-81673095D01*
X110308571Y-81794047D01*
X110429523Y-81854523D01*
X110610952Y-81854523D01*
X110731904Y-81794047D01*
X110792380Y-81733571D01*
X111215714Y-81007857D02*
X111699523Y-81007857D01*
X111397142Y-80584523D02*
X111397142Y-81673095D01*
X111457619Y-81794047D01*
X111578571Y-81854523D01*
X111699523Y-81854523D01*
X112122857Y-81007857D02*
X112122857Y-82277857D01*
X112122857Y-81068333D02*
X112243809Y-81007857D01*
X112485714Y-81007857D01*
X112606666Y-81068333D01*
X112667142Y-81128809D01*
X112727619Y-81249761D01*
X112727619Y-81612619D01*
X112667142Y-81733571D01*
X112606666Y-81794047D01*
X112485714Y-81854523D01*
X112243809Y-81854523D01*
X112122857Y-81794047D01*
X113816190Y-81007857D02*
X113816190Y-81854523D01*
X113271904Y-81007857D02*
X113271904Y-81673095D01*
X113332380Y-81794047D01*
X113453333Y-81854523D01*
X113634761Y-81854523D01*
X113755714Y-81794047D01*
X113816190Y-81733571D01*
X114239523Y-81007857D02*
X114723333Y-81007857D01*
X114420952Y-80584523D02*
X114420952Y-81673095D01*
X114481428Y-81794047D01*
X114602380Y-81854523D01*
X114723333Y-81854523D01*
X116840000Y-81733571D02*
X116779523Y-81794047D01*
X116598095Y-81854523D01*
X116477142Y-81854523D01*
X116295714Y-81794047D01*
X116174761Y-81673095D01*
X116114285Y-81552142D01*
X116053809Y-81310238D01*
X116053809Y-81128809D01*
X116114285Y-80886904D01*
X116174761Y-80765952D01*
X116295714Y-80645000D01*
X116477142Y-80584523D01*
X116598095Y-80584523D01*
X116779523Y-80645000D01*
X116840000Y-80705476D01*
X117384285Y-81854523D02*
X117384285Y-80584523D01*
X117928571Y-81854523D02*
X117928571Y-81189285D01*
X117868095Y-81068333D01*
X117747142Y-81007857D01*
X117565714Y-81007857D01*
X117444761Y-81068333D01*
X117384285Y-81128809D01*
X119077619Y-81854523D02*
X119077619Y-81189285D01*
X119017142Y-81068333D01*
X118896190Y-81007857D01*
X118654285Y-81007857D01*
X118533333Y-81068333D01*
X119077619Y-81794047D02*
X118956666Y-81854523D01*
X118654285Y-81854523D01*
X118533333Y-81794047D01*
X118472857Y-81673095D01*
X118472857Y-81552142D01*
X118533333Y-81431190D01*
X118654285Y-81370714D01*
X118956666Y-81370714D01*
X119077619Y-81310238D01*
X119682380Y-81007857D02*
X119682380Y-81854523D01*
X119682380Y-81128809D02*
X119742857Y-81068333D01*
X119863809Y-81007857D01*
X120045238Y-81007857D01*
X120166190Y-81068333D01*
X120226666Y-81189285D01*
X120226666Y-81854523D01*
X120831428Y-81007857D02*
X120831428Y-81854523D01*
X120831428Y-81128809D02*
X120891904Y-81068333D01*
X121012857Y-81007857D01*
X121194285Y-81007857D01*
X121315238Y-81068333D01*
X121375714Y-81189285D01*
X121375714Y-81854523D01*
X122464285Y-81794047D02*
X122343333Y-81854523D01*
X122101428Y-81854523D01*
X121980476Y-81794047D01*
X121920000Y-81673095D01*
X121920000Y-81189285D01*
X121980476Y-81068333D01*
X122101428Y-81007857D01*
X122343333Y-81007857D01*
X122464285Y-81068333D01*
X122524761Y-81189285D01*
X122524761Y-81310238D01*
X121920000Y-81431190D01*
X123250476Y-81854523D02*
X123129523Y-81794047D01*
X123069047Y-81673095D01*
X123069047Y-80584523D01*
X123673809Y-81794047D02*
X123794761Y-81854523D01*
X124036666Y-81854523D01*
X124157619Y-81794047D01*
X124218095Y-81673095D01*
X124218095Y-81612619D01*
X124157619Y-81491666D01*
X124036666Y-81431190D01*
X123855238Y-81431190D01*
X123734285Y-81370714D01*
X123673809Y-81249761D01*
X123673809Y-81189285D01*
X123734285Y-81068333D01*
X123855238Y-81007857D01*
X124036666Y-81007857D01*
X124157619Y-81068333D01*
X101539523Y-129292803D02*
X101539523Y-130018517D01*
X101539523Y-129655660D02*
X100269523Y-129655660D01*
X100450952Y-129776613D01*
X100571904Y-129897565D01*
X100632380Y-130018517D01*
X101539523Y-128083279D02*
X101539523Y-128808994D01*
X101539523Y-128446136D02*
X100269523Y-128446136D01*
X100450952Y-128567089D01*
X100571904Y-128688041D01*
X100632380Y-128808994D01*
X98999523Y-129292803D02*
X98999523Y-130018517D01*
X98999523Y-129655660D02*
X97729523Y-129655660D01*
X97910952Y-129776613D01*
X98031904Y-129897565D01*
X98092380Y-130018517D01*
X97729523Y-128506613D02*
X97729523Y-128385660D01*
X97790000Y-128264708D01*
X97850476Y-128204232D01*
X97971428Y-128143755D01*
X98213333Y-128083279D01*
X98515714Y-128083279D01*
X98757619Y-128143755D01*
X98878571Y-128204232D01*
X98939047Y-128264708D01*
X98999523Y-128385660D01*
X98999523Y-128506613D01*
X98939047Y-128627565D01*
X98878571Y-128688041D01*
X98757619Y-128748517D01*
X98515714Y-128808994D01*
X98213333Y-128808994D01*
X97971428Y-128748517D01*
X97850476Y-128688041D01*
X97790000Y-128627565D01*
X97729523Y-128506613D01*
X96459523Y-128688041D02*
X96459523Y-128446136D01*
X96399047Y-128325184D01*
X96338571Y-128264708D01*
X96157142Y-128143755D01*
X95915238Y-128083279D01*
X95431428Y-128083279D01*
X95310476Y-128143755D01*
X95250000Y-128204232D01*
X95189523Y-128325184D01*
X95189523Y-128567089D01*
X95250000Y-128688041D01*
X95310476Y-128748517D01*
X95431428Y-128808994D01*
X95733809Y-128808994D01*
X95854761Y-128748517D01*
X95915238Y-128688041D01*
X95975714Y-128567089D01*
X95975714Y-128325184D01*
X95915238Y-128204232D01*
X95854761Y-128143755D01*
X95733809Y-128083279D01*
X93193809Y-128567089D02*
X93133333Y-128688041D01*
X93072857Y-128748517D01*
X92951904Y-128808994D01*
X92891428Y-128808994D01*
X92770476Y-128748517D01*
X92710000Y-128688041D01*
X92649523Y-128567089D01*
X92649523Y-128325184D01*
X92710000Y-128204232D01*
X92770476Y-128143755D01*
X92891428Y-128083279D01*
X92951904Y-128083279D01*
X93072857Y-128143755D01*
X93133333Y-128204232D01*
X93193809Y-128325184D01*
X93193809Y-128567089D01*
X93254285Y-128688041D01*
X93314761Y-128748517D01*
X93435714Y-128808994D01*
X93677619Y-128808994D01*
X93798571Y-128748517D01*
X93859047Y-128688041D01*
X93919523Y-128567089D01*
X93919523Y-128325184D01*
X93859047Y-128204232D01*
X93798571Y-128143755D01*
X93677619Y-128083279D01*
X93435714Y-128083279D01*
X93314761Y-128143755D01*
X93254285Y-128204232D01*
X93193809Y-128325184D01*
X100269523Y-82797196D02*
X100269523Y-82011005D01*
X100753333Y-82434339D01*
X100753333Y-82252910D01*
X100813809Y-82131958D01*
X100874285Y-82071482D01*
X100995238Y-82011005D01*
X101297619Y-82011005D01*
X101418571Y-82071482D01*
X101479047Y-82131958D01*
X101539523Y-82252910D01*
X101539523Y-82615767D01*
X101479047Y-82736720D01*
X101418571Y-82797196D01*
X97850476Y-82736720D02*
X97790000Y-82676244D01*
X97729523Y-82555291D01*
X97729523Y-82252910D01*
X97790000Y-82131958D01*
X97850476Y-82071482D01*
X97971428Y-82011005D01*
X98092380Y-82011005D01*
X98273809Y-82071482D01*
X98999523Y-82797196D01*
X98999523Y-82011005D01*
X96459523Y-82011005D02*
X96459523Y-82736720D01*
X96459523Y-82373863D02*
X95189523Y-82373863D01*
X95370952Y-82494815D01*
X95491904Y-82615767D01*
X95552380Y-82736720D01*
X92649523Y-82434339D02*
X92649523Y-82313386D01*
X92710000Y-82192434D01*
X92770476Y-82131958D01*
X92891428Y-82071482D01*
X93133333Y-82011005D01*
X93435714Y-82011005D01*
X93677619Y-82071482D01*
X93798571Y-82131958D01*
X93859047Y-82192434D01*
X93919523Y-82313386D01*
X93919523Y-82434339D01*
X93859047Y-82555291D01*
X93798571Y-82615767D01*
X93677619Y-82676244D01*
X93435714Y-82736720D01*
X93133333Y-82736720D01*
X92891428Y-82676244D01*
X92770476Y-82615767D01*
X92710000Y-82555291D01*
X92649523Y-82434339D01*
X144507857Y-128844523D02*
X144931190Y-130114523D01*
X145354523Y-128844523D01*
X145777857Y-130114523D02*
X145777857Y-129267857D01*
X145777857Y-128844523D02*
X145717380Y-128905000D01*
X145777857Y-128965476D01*
X145838333Y-128905000D01*
X145777857Y-128844523D01*
X145777857Y-128965476D01*
X146322142Y-130054047D02*
X146443095Y-130114523D01*
X146685000Y-130114523D01*
X146805952Y-130054047D01*
X146866428Y-129933095D01*
X146866428Y-129872619D01*
X146805952Y-129751666D01*
X146685000Y-129691190D01*
X146503571Y-129691190D01*
X146382619Y-129630714D01*
X146322142Y-129509761D01*
X146322142Y-129449285D01*
X146382619Y-129328333D01*
X146503571Y-129267857D01*
X146685000Y-129267857D01*
X146805952Y-129328333D01*
X147410714Y-130114523D02*
X147410714Y-129267857D01*
X147410714Y-128844523D02*
X147350238Y-128905000D01*
X147410714Y-128965476D01*
X147471190Y-128905000D01*
X147410714Y-128844523D01*
X147410714Y-128965476D01*
X148015476Y-130114523D02*
X148015476Y-128844523D01*
X148015476Y-129328333D02*
X148136428Y-129267857D01*
X148378333Y-129267857D01*
X148499285Y-129328333D01*
X148559761Y-129388809D01*
X148620238Y-129509761D01*
X148620238Y-129872619D01*
X148559761Y-129993571D01*
X148499285Y-130054047D01*
X148378333Y-130114523D01*
X148136428Y-130114523D01*
X148015476Y-130054047D01*
X149345952Y-130114523D02*
X149225000Y-130054047D01*
X149164523Y-129933095D01*
X149164523Y-128844523D01*
X150313571Y-130054047D02*
X150192619Y-130114523D01*
X149950714Y-130114523D01*
X149829761Y-130054047D01*
X149769285Y-129933095D01*
X149769285Y-129449285D01*
X149829761Y-129328333D01*
X149950714Y-129267857D01*
X150192619Y-129267857D01*
X150313571Y-129328333D01*
X150374047Y-129449285D01*
X150374047Y-129570238D01*
X149769285Y-129691190D01*
X152309285Y-129449285D02*
X152490714Y-129509761D01*
X152551190Y-129570238D01*
X152611666Y-129691190D01*
X152611666Y-129872619D01*
X152551190Y-129993571D01*
X152490714Y-130054047D01*
X152369761Y-130114523D01*
X151885952Y-130114523D01*
X151885952Y-128844523D01*
X152309285Y-128844523D01*
X152430238Y-128905000D01*
X152490714Y-128965476D01*
X152551190Y-129086428D01*
X152551190Y-129207380D01*
X152490714Y-129328333D01*
X152430238Y-129388809D01*
X152309285Y-129449285D01*
X151885952Y-129449285D01*
X153700238Y-130114523D02*
X153700238Y-129449285D01*
X153639761Y-129328333D01*
X153518809Y-129267857D01*
X153276904Y-129267857D01*
X153155952Y-129328333D01*
X153700238Y-130054047D02*
X153579285Y-130114523D01*
X153276904Y-130114523D01*
X153155952Y-130054047D01*
X153095476Y-129933095D01*
X153095476Y-129812142D01*
X153155952Y-129691190D01*
X153276904Y-129630714D01*
X153579285Y-129630714D01*
X153700238Y-129570238D01*
X154849285Y-130054047D02*
X154728333Y-130114523D01*
X154486428Y-130114523D01*
X154365476Y-130054047D01*
X154305000Y-129993571D01*
X154244523Y-129872619D01*
X154244523Y-129509761D01*
X154305000Y-129388809D01*
X154365476Y-129328333D01*
X154486428Y-129267857D01*
X154728333Y-129267857D01*
X154849285Y-129328333D01*
X155393571Y-130114523D02*
X155393571Y-128844523D01*
X155514523Y-129630714D02*
X155877380Y-130114523D01*
X155877380Y-129267857D02*
X155393571Y-129751666D01*
X156603095Y-130114523D02*
X156482142Y-130054047D01*
X156421666Y-129933095D01*
X156421666Y-128844523D01*
X157086904Y-130114523D02*
X157086904Y-129267857D01*
X157086904Y-128844523D02*
X157026428Y-128905000D01*
X157086904Y-128965476D01*
X157147380Y-128905000D01*
X157086904Y-128844523D01*
X157086904Y-128965476D01*
X158235952Y-129267857D02*
X158235952Y-130295952D01*
X158175476Y-130416904D01*
X158115000Y-130477380D01*
X157994047Y-130537857D01*
X157812619Y-130537857D01*
X157691666Y-130477380D01*
X158235952Y-130054047D02*
X158115000Y-130114523D01*
X157873095Y-130114523D01*
X157752142Y-130054047D01*
X157691666Y-129993571D01*
X157631190Y-129872619D01*
X157631190Y-129509761D01*
X157691666Y-129388809D01*
X157752142Y-129328333D01*
X157873095Y-129267857D01*
X158115000Y-129267857D01*
X158235952Y-129328333D01*
X158840714Y-130114523D02*
X158840714Y-128844523D01*
X159385000Y-130114523D02*
X159385000Y-129449285D01*
X159324523Y-129328333D01*
X159203571Y-129267857D01*
X159022142Y-129267857D01*
X158901190Y-129328333D01*
X158840714Y-129388809D01*
X159808333Y-129267857D02*
X160292142Y-129267857D01*
X159989761Y-128844523D02*
X159989761Y-129933095D01*
X160050238Y-130054047D01*
X160171190Y-130114523D01*
X160292142Y-130114523D01*
X146866428Y-81854523D02*
X146866428Y-80584523D01*
X148196904Y-81854523D02*
X147773571Y-81249761D01*
X147471190Y-81854523D02*
X147471190Y-80584523D01*
X147955000Y-80584523D01*
X148075952Y-80645000D01*
X148136428Y-80705476D01*
X148196904Y-80826428D01*
X148196904Y-81007857D01*
X148136428Y-81128809D01*
X148075952Y-81189285D01*
X147955000Y-81249761D01*
X147471190Y-81249761D01*
X150132142Y-81189285D02*
X150313571Y-81249761D01*
X150374047Y-81310238D01*
X150434523Y-81431190D01*
X150434523Y-81612619D01*
X150374047Y-81733571D01*
X150313571Y-81794047D01*
X150192619Y-81854523D01*
X149708809Y-81854523D01*
X149708809Y-80584523D01*
X150132142Y-80584523D01*
X150253095Y-80645000D01*
X150313571Y-80705476D01*
X150374047Y-80826428D01*
X150374047Y-80947380D01*
X150313571Y-81068333D01*
X150253095Y-81128809D01*
X150132142Y-81189285D01*
X149708809Y-81189285D01*
X151523095Y-81854523D02*
X151523095Y-81189285D01*
X151462619Y-81068333D01*
X151341666Y-81007857D01*
X151099761Y-81007857D01*
X150978809Y-81068333D01*
X151523095Y-81794047D02*
X151402142Y-81854523D01*
X151099761Y-81854523D01*
X150978809Y-81794047D01*
X150918333Y-81673095D01*
X150918333Y-81552142D01*
X150978809Y-81431190D01*
X151099761Y-81370714D01*
X151402142Y-81370714D01*
X151523095Y-81310238D01*
X152672142Y-81794047D02*
X152551190Y-81854523D01*
X152309285Y-81854523D01*
X152188333Y-81794047D01*
X152127857Y-81733571D01*
X152067380Y-81612619D01*
X152067380Y-81249761D01*
X152127857Y-81128809D01*
X152188333Y-81068333D01*
X152309285Y-81007857D01*
X152551190Y-81007857D01*
X152672142Y-81068333D01*
X153216428Y-81854523D02*
X153216428Y-80584523D01*
X153337380Y-81370714D02*
X153700238Y-81854523D01*
X153700238Y-81007857D02*
X153216428Y-81491666D01*
X154425952Y-81854523D02*
X154305000Y-81794047D01*
X154244523Y-81673095D01*
X154244523Y-80584523D01*
X154909761Y-81854523D02*
X154909761Y-81007857D01*
X154909761Y-80584523D02*
X154849285Y-80645000D01*
X154909761Y-80705476D01*
X154970238Y-80645000D01*
X154909761Y-80584523D01*
X154909761Y-80705476D01*
X156058809Y-81007857D02*
X156058809Y-82035952D01*
X155998333Y-82156904D01*
X155937857Y-82217380D01*
X155816904Y-82277857D01*
X155635476Y-82277857D01*
X155514523Y-82217380D01*
X156058809Y-81794047D02*
X155937857Y-81854523D01*
X155695952Y-81854523D01*
X155575000Y-81794047D01*
X155514523Y-81733571D01*
X155454047Y-81612619D01*
X155454047Y-81249761D01*
X155514523Y-81128809D01*
X155575000Y-81068333D01*
X155695952Y-81007857D01*
X155937857Y-81007857D01*
X156058809Y-81068333D01*
X156663571Y-81854523D02*
X156663571Y-80584523D01*
X157207857Y-81854523D02*
X157207857Y-81189285D01*
X157147380Y-81068333D01*
X157026428Y-81007857D01*
X156845000Y-81007857D01*
X156724047Y-81068333D01*
X156663571Y-81128809D01*
X157631190Y-81007857D02*
X158115000Y-81007857D01*
X157812619Y-80584523D02*
X157812619Y-81673095D01*
X157873095Y-81794047D01*
X157994047Y-81854523D01*
X158115000Y-81854523D01*
D10*
X168897904Y-132285619D02*
X168897904Y-133108095D01*
X168946285Y-133204857D01*
X168994666Y-133253238D01*
X169091428Y-133301619D01*
X169284952Y-133301619D01*
X169381714Y-133253238D01*
X169430095Y-133204857D01*
X169478476Y-133108095D01*
X169478476Y-132285619D01*
X169913904Y-133253238D02*
X170010666Y-133301619D01*
X170204190Y-133301619D01*
X170300952Y-133253238D01*
X170349333Y-133156476D01*
X170349333Y-133108095D01*
X170300952Y-133011333D01*
X170204190Y-132962952D01*
X170059047Y-132962952D01*
X169962285Y-132914571D01*
X169913904Y-132817809D01*
X169913904Y-132769428D01*
X169962285Y-132672666D01*
X170059047Y-132624285D01*
X170204190Y-132624285D01*
X170300952Y-132672666D01*
X171171809Y-133253238D02*
X171075047Y-133301619D01*
X170881523Y-133301619D01*
X170784761Y-133253238D01*
X170736380Y-133156476D01*
X170736380Y-132769428D01*
X170784761Y-132672666D01*
X170881523Y-132624285D01*
X171075047Y-132624285D01*
X171171809Y-132672666D01*
X171220190Y-132769428D01*
X171220190Y-132866190D01*
X170736380Y-132962952D01*
X172816761Y-133253238D02*
X172720000Y-133301619D01*
X172526476Y-133301619D01*
X172429714Y-133253238D01*
X172381333Y-133156476D01*
X172381333Y-132769428D01*
X172429714Y-132672666D01*
X172526476Y-132624285D01*
X172720000Y-132624285D01*
X172816761Y-132672666D01*
X172865142Y-132769428D01*
X172865142Y-132866190D01*
X172381333Y-132962952D01*
X173300571Y-133301619D02*
X173300571Y-132624285D01*
X173300571Y-132285619D02*
X173252190Y-132334000D01*
X173300571Y-132382380D01*
X173348952Y-132334000D01*
X173300571Y-132285619D01*
X173300571Y-132382380D01*
X173639238Y-132624285D02*
X174026285Y-132624285D01*
X173784380Y-132285619D02*
X173784380Y-133156476D01*
X173832761Y-133253238D01*
X173929523Y-133301619D01*
X174026285Y-133301619D01*
X174364952Y-133301619D02*
X174364952Y-132285619D01*
X174800380Y-133301619D02*
X174800380Y-132769428D01*
X174752000Y-132672666D01*
X174655238Y-132624285D01*
X174510095Y-132624285D01*
X174413333Y-132672666D01*
X174364952Y-132721047D01*
X175671238Y-133253238D02*
X175574476Y-133301619D01*
X175380952Y-133301619D01*
X175284190Y-133253238D01*
X175235809Y-133156476D01*
X175235809Y-132769428D01*
X175284190Y-132672666D01*
X175380952Y-132624285D01*
X175574476Y-132624285D01*
X175671238Y-132672666D01*
X175719619Y-132769428D01*
X175719619Y-132866190D01*
X175235809Y-132962952D01*
X176155047Y-133301619D02*
X176155047Y-132624285D01*
X176155047Y-132817809D02*
X176203428Y-132721047D01*
X176251809Y-132672666D01*
X176348571Y-132624285D01*
X176445333Y-132624285D01*
X177558095Y-133301619D02*
X177558095Y-132285619D01*
X177993523Y-133301619D02*
X177993523Y-132769428D01*
X177945142Y-132672666D01*
X177848380Y-132624285D01*
X177703238Y-132624285D01*
X177606476Y-132672666D01*
X177558095Y-132721047D01*
X178477333Y-133301619D02*
X178477333Y-132624285D01*
X178477333Y-132285619D02*
X178428952Y-132334000D01*
X178477333Y-132382380D01*
X178525714Y-132334000D01*
X178477333Y-132285619D01*
X178477333Y-132382380D01*
X179396571Y-132624285D02*
X179396571Y-133446761D01*
X179348190Y-133543523D01*
X179299809Y-133591904D01*
X179203047Y-133640285D01*
X179057904Y-133640285D01*
X178961142Y-133591904D01*
X179396571Y-133253238D02*
X179299809Y-133301619D01*
X179106285Y-133301619D01*
X179009523Y-133253238D01*
X178961142Y-133204857D01*
X178912761Y-133108095D01*
X178912761Y-132817809D01*
X178961142Y-132721047D01*
X179009523Y-132672666D01*
X179106285Y-132624285D01*
X179299809Y-132624285D01*
X179396571Y-132672666D01*
X179880380Y-133301619D02*
X179880380Y-132285619D01*
X180315809Y-133301619D02*
X180315809Y-132769428D01*
X180267428Y-132672666D01*
X180170666Y-132624285D01*
X180025523Y-132624285D01*
X179928761Y-132672666D01*
X179880380Y-132721047D01*
X181718857Y-133301619D02*
X181622095Y-133253238D01*
X181573714Y-133204857D01*
X181525333Y-133108095D01*
X181525333Y-132817809D01*
X181573714Y-132721047D01*
X181622095Y-132672666D01*
X181718857Y-132624285D01*
X181864000Y-132624285D01*
X181960761Y-132672666D01*
X182009142Y-132721047D01*
X182057523Y-132817809D01*
X182057523Y-133108095D01*
X182009142Y-133204857D01*
X181960761Y-133253238D01*
X181864000Y-133301619D01*
X181718857Y-133301619D01*
X182492952Y-133301619D02*
X182492952Y-132624285D01*
X182492952Y-132817809D02*
X182541333Y-132721047D01*
X182589714Y-132672666D01*
X182686476Y-132624285D01*
X182783238Y-132624285D01*
X184041142Y-133301619D02*
X183944380Y-133253238D01*
X183896000Y-133156476D01*
X183896000Y-132285619D01*
X184573333Y-133301619D02*
X184476571Y-133253238D01*
X184428190Y-133204857D01*
X184379809Y-133108095D01*
X184379809Y-132817809D01*
X184428190Y-132721047D01*
X184476571Y-132672666D01*
X184573333Y-132624285D01*
X184718476Y-132624285D01*
X184815238Y-132672666D01*
X184863619Y-132721047D01*
X184912000Y-132817809D01*
X184912000Y-133108095D01*
X184863619Y-133204857D01*
X184815238Y-133253238D01*
X184718476Y-133301619D01*
X184573333Y-133301619D01*
X185250666Y-132624285D02*
X185444190Y-133301619D01*
X185637714Y-132817809D01*
X185831238Y-133301619D01*
X186024761Y-132624285D01*
X173469904Y-135031238D02*
X173373142Y-135079619D01*
X173179619Y-135079619D01*
X173082857Y-135031238D01*
X173034476Y-134982857D01*
X172986095Y-134886095D01*
X172986095Y-134595809D01*
X173034476Y-134499047D01*
X173082857Y-134450666D01*
X173179619Y-134402285D01*
X173373142Y-134402285D01*
X173469904Y-134450666D01*
X174340761Y-134402285D02*
X174340761Y-135079619D01*
X173905333Y-134402285D02*
X173905333Y-134934476D01*
X173953714Y-135031238D01*
X174050476Y-135079619D01*
X174195619Y-135079619D01*
X174292380Y-135031238D01*
X174340761Y-134982857D01*
X174824571Y-135079619D02*
X174824571Y-134402285D01*
X174824571Y-134595809D02*
X174872952Y-134499047D01*
X174921333Y-134450666D01*
X175018095Y-134402285D01*
X175114857Y-134402285D01*
X175453523Y-135079619D02*
X175453523Y-134402285D01*
X175453523Y-134595809D02*
X175501904Y-134499047D01*
X175550285Y-134450666D01*
X175647047Y-134402285D01*
X175743809Y-134402285D01*
X176469523Y-135031238D02*
X176372761Y-135079619D01*
X176179238Y-135079619D01*
X176082476Y-135031238D01*
X176034095Y-134934476D01*
X176034095Y-134547428D01*
X176082476Y-134450666D01*
X176179238Y-134402285D01*
X176372761Y-134402285D01*
X176469523Y-134450666D01*
X176517904Y-134547428D01*
X176517904Y-134644190D01*
X176034095Y-134740952D01*
X176953333Y-134402285D02*
X176953333Y-135079619D01*
X176953333Y-134499047D02*
X177001714Y-134450666D01*
X177098476Y-134402285D01*
X177243619Y-134402285D01*
X177340380Y-134450666D01*
X177388761Y-134547428D01*
X177388761Y-135079619D01*
X177727428Y-134402285D02*
X178114476Y-134402285D01*
X177872571Y-134063619D02*
X177872571Y-134934476D01*
X177920952Y-135031238D01*
X178017714Y-135079619D01*
X178114476Y-135079619D01*
X179227238Y-135079619D02*
X179227238Y-134402285D01*
X179227238Y-134063619D02*
X179178857Y-134112000D01*
X179227238Y-134160380D01*
X179275619Y-134112000D01*
X179227238Y-134063619D01*
X179227238Y-134160380D01*
X179711047Y-134402285D02*
X179711047Y-135079619D01*
X179711047Y-134499047D02*
X179759428Y-134450666D01*
X179856190Y-134402285D01*
X180001333Y-134402285D01*
X180098095Y-134450666D01*
X180146476Y-134547428D01*
X180146476Y-135079619D01*
X180630285Y-134402285D02*
X180630285Y-135418285D01*
X180630285Y-134450666D02*
X180727047Y-134402285D01*
X180920571Y-134402285D01*
X181017333Y-134450666D01*
X181065714Y-134499047D01*
X181114095Y-134595809D01*
X181114095Y-134886095D01*
X181065714Y-134982857D01*
X181017333Y-135031238D01*
X180920571Y-135079619D01*
X180727047Y-135079619D01*
X180630285Y-135031238D01*
X181984952Y-134402285D02*
X181984952Y-135079619D01*
X181549523Y-134402285D02*
X181549523Y-134934476D01*
X181597904Y-135031238D01*
X181694666Y-135079619D01*
X181839809Y-135079619D01*
X181936571Y-135031238D01*
X181984952Y-134982857D01*
X182323619Y-134402285D02*
X182710666Y-134402285D01*
X182468761Y-134063619D02*
X182468761Y-134934476D01*
X182517142Y-135031238D01*
X182613904Y-135079619D01*
X182710666Y-135079619D01*
X174534285Y-136180285D02*
X174534285Y-136857619D01*
X174534285Y-136277047D02*
X174582666Y-136228666D01*
X174679428Y-136180285D01*
X174824571Y-136180285D01*
X174921333Y-136228666D01*
X174969714Y-136325428D01*
X174969714Y-136857619D01*
X175598666Y-136857619D02*
X175501904Y-136809238D01*
X175453523Y-136760857D01*
X175405142Y-136664095D01*
X175405142Y-136373809D01*
X175453523Y-136277047D01*
X175501904Y-136228666D01*
X175598666Y-136180285D01*
X175743809Y-136180285D01*
X175840571Y-136228666D01*
X175888952Y-136277047D01*
X175937333Y-136373809D01*
X175937333Y-136664095D01*
X175888952Y-136760857D01*
X175840571Y-136809238D01*
X175743809Y-136857619D01*
X175598666Y-136857619D01*
X176227619Y-136180285D02*
X176614666Y-136180285D01*
X176372761Y-135841619D02*
X176372761Y-136712476D01*
X176421142Y-136809238D01*
X176517904Y-136857619D01*
X176614666Y-136857619D01*
X177727428Y-136857619D02*
X177727428Y-135841619D01*
X177727428Y-136228666D02*
X177824190Y-136180285D01*
X178017714Y-136180285D01*
X178114476Y-136228666D01*
X178162857Y-136277047D01*
X178211238Y-136373809D01*
X178211238Y-136664095D01*
X178162857Y-136760857D01*
X178114476Y-136809238D01*
X178017714Y-136857619D01*
X177824190Y-136857619D01*
X177727428Y-136809238D01*
X178791809Y-136857619D02*
X178695047Y-136809238D01*
X178646666Y-136760857D01*
X178598285Y-136664095D01*
X178598285Y-136373809D01*
X178646666Y-136277047D01*
X178695047Y-136228666D01*
X178791809Y-136180285D01*
X178936952Y-136180285D01*
X179033714Y-136228666D01*
X179082095Y-136277047D01*
X179130476Y-136373809D01*
X179130476Y-136664095D01*
X179082095Y-136760857D01*
X179033714Y-136809238D01*
X178936952Y-136857619D01*
X178791809Y-136857619D01*
X179420761Y-136180285D02*
X179807809Y-136180285D01*
X179565904Y-135841619D02*
X179565904Y-136712476D01*
X179614285Y-136809238D01*
X179711047Y-136857619D01*
X179807809Y-136857619D01*
X180146476Y-136857619D02*
X180146476Y-135841619D01*
X180581904Y-136857619D02*
X180581904Y-136325428D01*
X180533523Y-136228666D01*
X180436761Y-136180285D01*
X180291619Y-136180285D01*
X180194857Y-136228666D01*
X180146476Y-136277047D01*
X181065714Y-136760857D02*
X181114095Y-136809238D01*
X181065714Y-136857619D01*
X181017333Y-136809238D01*
X181065714Y-136760857D01*
X181065714Y-136857619D01*
X181065714Y-136470571D02*
X181017333Y-135890000D01*
X181065714Y-135841619D01*
X181114095Y-135890000D01*
X181065714Y-136470571D01*
X181065714Y-135841619D01*
D13*
X170119523Y-130114523D02*
X169514761Y-130114523D01*
X169514761Y-128844523D01*
X170724285Y-130114523D02*
X170603333Y-130054047D01*
X170542857Y-129993571D01*
X170482380Y-129872619D01*
X170482380Y-129509761D01*
X170542857Y-129388809D01*
X170603333Y-129328333D01*
X170724285Y-129267857D01*
X170905714Y-129267857D01*
X171026666Y-129328333D01*
X171087142Y-129388809D01*
X171147619Y-129509761D01*
X171147619Y-129872619D01*
X171087142Y-129993571D01*
X171026666Y-130054047D01*
X170905714Y-130114523D01*
X170724285Y-130114523D01*
X171570952Y-129267857D02*
X171812857Y-130114523D01*
X172054761Y-129509761D01*
X172296666Y-130114523D01*
X172538571Y-129267857D01*
X174715714Y-129993571D02*
X174655238Y-130054047D01*
X174473809Y-130114523D01*
X174352857Y-130114523D01*
X174171428Y-130054047D01*
X174050476Y-129933095D01*
X173990000Y-129812142D01*
X173929523Y-129570238D01*
X173929523Y-129388809D01*
X173990000Y-129146904D01*
X174050476Y-129025952D01*
X174171428Y-128905000D01*
X174352857Y-128844523D01*
X174473809Y-128844523D01*
X174655238Y-128905000D01*
X174715714Y-128965476D01*
X175804285Y-129267857D02*
X175804285Y-130114523D01*
X175260000Y-129267857D02*
X175260000Y-129933095D01*
X175320476Y-130054047D01*
X175441428Y-130114523D01*
X175622857Y-130114523D01*
X175743809Y-130054047D01*
X175804285Y-129993571D01*
X176409047Y-130114523D02*
X176409047Y-129267857D01*
X176409047Y-129509761D02*
X176469523Y-129388809D01*
X176530000Y-129328333D01*
X176650952Y-129267857D01*
X176771904Y-129267857D01*
X177195238Y-130114523D02*
X177195238Y-129267857D01*
X177195238Y-129509761D02*
X177255714Y-129388809D01*
X177316190Y-129328333D01*
X177437142Y-129267857D01*
X177558095Y-129267857D01*
X178465238Y-130054047D02*
X178344285Y-130114523D01*
X178102380Y-130114523D01*
X177981428Y-130054047D01*
X177920952Y-129933095D01*
X177920952Y-129449285D01*
X177981428Y-129328333D01*
X178102380Y-129267857D01*
X178344285Y-129267857D01*
X178465238Y-129328333D01*
X178525714Y-129449285D01*
X178525714Y-129570238D01*
X177920952Y-129691190D01*
X179070000Y-129267857D02*
X179070000Y-130114523D01*
X179070000Y-129388809D02*
X179130476Y-129328333D01*
X179251428Y-129267857D01*
X179432857Y-129267857D01*
X179553809Y-129328333D01*
X179614285Y-129449285D01*
X179614285Y-130114523D01*
X180037619Y-129267857D02*
X180521428Y-129267857D01*
X180219047Y-128844523D02*
X180219047Y-129933095D01*
X180279523Y-130054047D01*
X180400476Y-130114523D01*
X180521428Y-130114523D01*
X181912380Y-130114523D02*
X181912380Y-128844523D01*
X182517142Y-129267857D02*
X182517142Y-130114523D01*
X182517142Y-129388809D02*
X182577619Y-129328333D01*
X182698571Y-129267857D01*
X182880000Y-129267857D01*
X183000952Y-129328333D01*
X183061428Y-129449285D01*
X183061428Y-130114523D01*
X183666190Y-129267857D02*
X183666190Y-130537857D01*
X183666190Y-129328333D02*
X183787142Y-129267857D01*
X184029047Y-129267857D01*
X184150000Y-129328333D01*
X184210476Y-129388809D01*
X184270952Y-129509761D01*
X184270952Y-129872619D01*
X184210476Y-129993571D01*
X184150000Y-130054047D01*
X184029047Y-130114523D01*
X183787142Y-130114523D01*
X183666190Y-130054047D01*
X185359523Y-129267857D02*
X185359523Y-130114523D01*
X184815238Y-129267857D02*
X184815238Y-129933095D01*
X184875714Y-130054047D01*
X184996666Y-130114523D01*
X185178095Y-130114523D01*
X185299047Y-130054047D01*
X185359523Y-129993571D01*
X185782857Y-129267857D02*
X186266666Y-129267857D01*
X185964285Y-128844523D02*
X185964285Y-129933095D01*
X186024761Y-130054047D01*
X186145714Y-130114523D01*
X186266666Y-130114523D01*
D10*
X171117380Y-121883714D02*
X171069000Y-121835333D01*
X171020619Y-121738571D01*
X171020619Y-121496666D01*
X171069000Y-121399904D01*
X171117380Y-121351523D01*
X171214142Y-121303142D01*
X171310904Y-121303142D01*
X171456047Y-121351523D01*
X172036619Y-121932095D01*
X172036619Y-121303142D01*
X171359285Y-120432285D02*
X172036619Y-120432285D01*
X170972238Y-120674190D02*
X171697952Y-120916095D01*
X171697952Y-120287142D01*
X171020619Y-120045238D02*
X172036619Y-119706571D01*
X171020619Y-119367904D01*
X171359285Y-118255142D02*
X171649571Y-117481047D01*
X171939857Y-118255142D01*
X171504428Y-116997238D02*
X171504428Y-116223142D01*
X171794714Y-116223142D02*
X171794714Y-116997238D01*
X171020619Y-115255523D02*
X171020619Y-115739333D01*
X171504428Y-115787714D01*
X171456047Y-115739333D01*
X171407666Y-115642571D01*
X171407666Y-115400666D01*
X171456047Y-115303904D01*
X171504428Y-115255523D01*
X171601190Y-115207142D01*
X171843095Y-115207142D01*
X171939857Y-115255523D01*
X171988238Y-115303904D01*
X172036619Y-115400666D01*
X172036619Y-115642571D01*
X171988238Y-115739333D01*
X171939857Y-115787714D01*
X171746333Y-114820095D02*
X171746333Y-114336285D01*
X172036619Y-114916857D02*
X171020619Y-114578190D01*
X172036619Y-114239523D01*
X172895380Y-120746761D02*
X172847000Y-120698380D01*
X172798619Y-120601619D01*
X172798619Y-120359714D01*
X172847000Y-120262952D01*
X172895380Y-120214571D01*
X172992142Y-120166190D01*
X173088904Y-120166190D01*
X173234047Y-120214571D01*
X173814619Y-120795142D01*
X173814619Y-120166190D01*
X173717857Y-119730761D02*
X173766238Y-119682380D01*
X173814619Y-119730761D01*
X173766238Y-119779142D01*
X173717857Y-119730761D01*
X173814619Y-119730761D01*
X172798619Y-118763142D02*
X172798619Y-119246952D01*
X173282428Y-119295333D01*
X173234047Y-119246952D01*
X173185666Y-119150190D01*
X173185666Y-118908285D01*
X173234047Y-118811523D01*
X173282428Y-118763142D01*
X173379190Y-118714761D01*
X173621095Y-118714761D01*
X173717857Y-118763142D01*
X173766238Y-118811523D01*
X173814619Y-118908285D01*
X173814619Y-119150190D01*
X173766238Y-119246952D01*
X173717857Y-119295333D01*
X173814619Y-118376095D02*
X173137285Y-117843904D01*
X173137285Y-118376095D02*
X173814619Y-117843904D01*
X172798619Y-116973047D02*
X172798619Y-117456857D01*
X173282428Y-117505238D01*
X173234047Y-117456857D01*
X173185666Y-117360095D01*
X173185666Y-117118190D01*
X173234047Y-117021428D01*
X173282428Y-116973047D01*
X173379190Y-116924666D01*
X173621095Y-116924666D01*
X173717857Y-116973047D01*
X173766238Y-117021428D01*
X173814619Y-117118190D01*
X173814619Y-117360095D01*
X173766238Y-117456857D01*
X173717857Y-117505238D01*
X173717857Y-116489238D02*
X173766238Y-116440857D01*
X173814619Y-116489238D01*
X173766238Y-116537619D01*
X173717857Y-116489238D01*
X173814619Y-116489238D01*
X172798619Y-115521619D02*
X172798619Y-116005428D01*
X173282428Y-116053809D01*
X173234047Y-116005428D01*
X173185666Y-115908666D01*
X173185666Y-115666761D01*
X173234047Y-115570000D01*
X173282428Y-115521619D01*
X173379190Y-115473238D01*
X173621095Y-115473238D01*
X173717857Y-115521619D01*
X173766238Y-115570000D01*
X173814619Y-115666761D01*
X173814619Y-115908666D01*
X173766238Y-116005428D01*
X173717857Y-116053809D01*
X175495857Y-120746761D02*
X175544238Y-120795142D01*
X175592619Y-120940285D01*
X175592619Y-121037047D01*
X175544238Y-121182190D01*
X175447476Y-121278952D01*
X175350714Y-121327333D01*
X175157190Y-121375714D01*
X175012047Y-121375714D01*
X174818523Y-121327333D01*
X174721761Y-121278952D01*
X174625000Y-121182190D01*
X174576619Y-121037047D01*
X174576619Y-120940285D01*
X174625000Y-120795142D01*
X174673380Y-120746761D01*
X175544238Y-119924285D02*
X175592619Y-120021047D01*
X175592619Y-120214571D01*
X175544238Y-120311333D01*
X175447476Y-120359714D01*
X175060428Y-120359714D01*
X174963666Y-120311333D01*
X174915285Y-120214571D01*
X174915285Y-120021047D01*
X174963666Y-119924285D01*
X175060428Y-119875904D01*
X175157190Y-119875904D01*
X175253952Y-120359714D01*
X174915285Y-119440476D02*
X175592619Y-119440476D01*
X175012047Y-119440476D02*
X174963666Y-119392095D01*
X174915285Y-119295333D01*
X174915285Y-119150190D01*
X174963666Y-119053428D01*
X175060428Y-119005047D01*
X175592619Y-119005047D01*
X174915285Y-118666380D02*
X174915285Y-118279333D01*
X174576619Y-118521238D02*
X175447476Y-118521238D01*
X175544238Y-118472857D01*
X175592619Y-118376095D01*
X175592619Y-118279333D01*
X175544238Y-117553619D02*
X175592619Y-117650380D01*
X175592619Y-117843904D01*
X175544238Y-117940666D01*
X175447476Y-117989047D01*
X175060428Y-117989047D01*
X174963666Y-117940666D01*
X174915285Y-117843904D01*
X174915285Y-117650380D01*
X174963666Y-117553619D01*
X175060428Y-117505238D01*
X175157190Y-117505238D01*
X175253952Y-117989047D01*
X175592619Y-117069809D02*
X174915285Y-117069809D01*
X175108809Y-117069809D02*
X175012047Y-117021428D01*
X174963666Y-116973047D01*
X174915285Y-116876285D01*
X174915285Y-116779523D01*
X175205571Y-115666761D02*
X175205571Y-114892666D01*
X175592619Y-115279714D02*
X174818523Y-115279714D01*
D13*
X169151904Y-81854523D02*
X169151904Y-80584523D01*
X169151904Y-81189285D02*
X169877619Y-81189285D01*
X169877619Y-81854523D02*
X169877619Y-80584523D01*
X170482380Y-81854523D02*
X170482380Y-81007857D01*
X170482380Y-80584523D02*
X170421904Y-80645000D01*
X170482380Y-80705476D01*
X170542857Y-80645000D01*
X170482380Y-80584523D01*
X170482380Y-80705476D01*
X171631428Y-81007857D02*
X171631428Y-82035952D01*
X171570952Y-82156904D01*
X171510476Y-82217380D01*
X171389523Y-82277857D01*
X171208095Y-82277857D01*
X171087142Y-82217380D01*
X171631428Y-81794047D02*
X171510476Y-81854523D01*
X171268571Y-81854523D01*
X171147619Y-81794047D01*
X171087142Y-81733571D01*
X171026666Y-81612619D01*
X171026666Y-81249761D01*
X171087142Y-81128809D01*
X171147619Y-81068333D01*
X171268571Y-81007857D01*
X171510476Y-81007857D01*
X171631428Y-81068333D01*
X172236190Y-81854523D02*
X172236190Y-80584523D01*
X172780476Y-81854523D02*
X172780476Y-81189285D01*
X172720000Y-81068333D01*
X172599047Y-81007857D01*
X172417619Y-81007857D01*
X172296666Y-81068333D01*
X172236190Y-81128809D01*
X175078571Y-81733571D02*
X175018095Y-81794047D01*
X174836666Y-81854523D01*
X174715714Y-81854523D01*
X174534285Y-81794047D01*
X174413333Y-81673095D01*
X174352857Y-81552142D01*
X174292380Y-81310238D01*
X174292380Y-81128809D01*
X174352857Y-80886904D01*
X174413333Y-80765952D01*
X174534285Y-80645000D01*
X174715714Y-80584523D01*
X174836666Y-80584523D01*
X175018095Y-80645000D01*
X175078571Y-80705476D01*
X176167142Y-81007857D02*
X176167142Y-81854523D01*
X175622857Y-81007857D02*
X175622857Y-81673095D01*
X175683333Y-81794047D01*
X175804285Y-81854523D01*
X175985714Y-81854523D01*
X176106666Y-81794047D01*
X176167142Y-81733571D01*
X176771904Y-81854523D02*
X176771904Y-81007857D01*
X176771904Y-81249761D02*
X176832380Y-81128809D01*
X176892857Y-81068333D01*
X177013809Y-81007857D01*
X177134761Y-81007857D01*
X177558095Y-81854523D02*
X177558095Y-81007857D01*
X177558095Y-81249761D02*
X177618571Y-81128809D01*
X177679047Y-81068333D01*
X177800000Y-81007857D01*
X177920952Y-81007857D01*
X178828095Y-81794047D02*
X178707142Y-81854523D01*
X178465238Y-81854523D01*
X178344285Y-81794047D01*
X178283809Y-81673095D01*
X178283809Y-81189285D01*
X178344285Y-81068333D01*
X178465238Y-81007857D01*
X178707142Y-81007857D01*
X178828095Y-81068333D01*
X178888571Y-81189285D01*
X178888571Y-81310238D01*
X178283809Y-81431190D01*
X179432857Y-81007857D02*
X179432857Y-81854523D01*
X179432857Y-81128809D02*
X179493333Y-81068333D01*
X179614285Y-81007857D01*
X179795714Y-81007857D01*
X179916666Y-81068333D01*
X179977142Y-81189285D01*
X179977142Y-81854523D01*
X180400476Y-81007857D02*
X180884285Y-81007857D01*
X180581904Y-80584523D02*
X180581904Y-81673095D01*
X180642380Y-81794047D01*
X180763333Y-81854523D01*
X180884285Y-81854523D01*
X182275238Y-81854523D02*
X182275238Y-80584523D01*
X182880000Y-81007857D02*
X182880000Y-81854523D01*
X182880000Y-81128809D02*
X182940476Y-81068333D01*
X183061428Y-81007857D01*
X183242857Y-81007857D01*
X183363809Y-81068333D01*
X183424285Y-81189285D01*
X183424285Y-81854523D01*
X184029047Y-81007857D02*
X184029047Y-82277857D01*
X184029047Y-81068333D02*
X184150000Y-81007857D01*
X184391904Y-81007857D01*
X184512857Y-81068333D01*
X184573333Y-81128809D01*
X184633809Y-81249761D01*
X184633809Y-81612619D01*
X184573333Y-81733571D01*
X184512857Y-81794047D01*
X184391904Y-81854523D01*
X184150000Y-81854523D01*
X184029047Y-81794047D01*
X185722380Y-81007857D02*
X185722380Y-81854523D01*
X185178095Y-81007857D02*
X185178095Y-81673095D01*
X185238571Y-81794047D01*
X185359523Y-81854523D01*
X185540952Y-81854523D01*
X185661904Y-81794047D01*
X185722380Y-81733571D01*
X186145714Y-81007857D02*
X186629523Y-81007857D01*
X186327142Y-80584523D02*
X186327142Y-81673095D01*
X186387619Y-81794047D01*
X186508571Y-81854523D01*
X186629523Y-81854523D01*
D10*
X167942380Y-95709619D02*
X167894000Y-95661238D01*
X167845619Y-95564476D01*
X167845619Y-95322571D01*
X167894000Y-95225809D01*
X167942380Y-95177428D01*
X168039142Y-95129047D01*
X168135904Y-95129047D01*
X168281047Y-95177428D01*
X168861619Y-95758000D01*
X168861619Y-95129047D01*
X168184285Y-94258190D02*
X168861619Y-94258190D01*
X167797238Y-94500095D02*
X168522952Y-94742000D01*
X168522952Y-94113047D01*
X167845619Y-93871142D02*
X168861619Y-93532476D01*
X167845619Y-93193809D01*
X168861619Y-91548857D02*
X168861619Y-92129428D01*
X168861619Y-91839142D02*
X167845619Y-91839142D01*
X167990761Y-91935904D01*
X168087523Y-92032666D01*
X168135904Y-92129428D01*
X168861619Y-90581238D02*
X168861619Y-91161809D01*
X168861619Y-90871523D02*
X167845619Y-90871523D01*
X167990761Y-90968285D01*
X168087523Y-91065047D01*
X168135904Y-91161809D01*
X168571333Y-90194190D02*
X168571333Y-89710380D01*
X168861619Y-90290952D02*
X167845619Y-89952285D01*
X168861619Y-89613619D01*
X170639619Y-96338571D02*
X169623619Y-96338571D01*
X170349333Y-95999904D01*
X169623619Y-95661238D01*
X170639619Y-95661238D01*
X170591238Y-94790380D02*
X170639619Y-94887142D01*
X170639619Y-95080666D01*
X170591238Y-95177428D01*
X170494476Y-95225809D01*
X170107428Y-95225809D01*
X170010666Y-95177428D01*
X169962285Y-95080666D01*
X169962285Y-94887142D01*
X170010666Y-94790380D01*
X170107428Y-94742000D01*
X170204190Y-94742000D01*
X170300952Y-95225809D01*
X170639619Y-93871142D02*
X170107428Y-93871142D01*
X170010666Y-93919523D01*
X169962285Y-94016285D01*
X169962285Y-94209809D01*
X170010666Y-94306571D01*
X170591238Y-93871142D02*
X170639619Y-93967904D01*
X170639619Y-94209809D01*
X170591238Y-94306571D01*
X170494476Y-94354952D01*
X170397714Y-94354952D01*
X170300952Y-94306571D01*
X170252571Y-94209809D01*
X170252571Y-93967904D01*
X170204190Y-93871142D01*
X169962285Y-93387333D02*
X170639619Y-93387333D01*
X170059047Y-93387333D02*
X170010666Y-93338952D01*
X169962285Y-93242190D01*
X169962285Y-93097047D01*
X170010666Y-93000285D01*
X170107428Y-92951904D01*
X170639619Y-92951904D01*
X169623619Y-91790761D02*
X170639619Y-91548857D01*
X169913904Y-91355333D01*
X170639619Y-91161809D01*
X169623619Y-90919904D01*
X170591238Y-90145809D02*
X170639619Y-90242571D01*
X170639619Y-90436095D01*
X170591238Y-90532857D01*
X170494476Y-90581238D01*
X170107428Y-90581238D01*
X170010666Y-90532857D01*
X169962285Y-90436095D01*
X169962285Y-90242571D01*
X170010666Y-90145809D01*
X170107428Y-90097428D01*
X170204190Y-90097428D01*
X170300952Y-90581238D01*
X170639619Y-89516857D02*
X170591238Y-89613619D01*
X170494476Y-89662000D01*
X169623619Y-89662000D01*
X170639619Y-88984666D02*
X170591238Y-89081428D01*
X170494476Y-89129809D01*
X169623619Y-89129809D01*
X171450000Y-98298000D02*
X171401619Y-98394761D01*
X171401619Y-98539904D01*
X171450000Y-98685047D01*
X171546761Y-98781809D01*
X171643523Y-98830190D01*
X171837047Y-98878571D01*
X171982190Y-98878571D01*
X172175714Y-98830190D01*
X172272476Y-98781809D01*
X172369238Y-98685047D01*
X172417619Y-98539904D01*
X172417619Y-98443142D01*
X172369238Y-98298000D01*
X172320857Y-98249619D01*
X171982190Y-98249619D01*
X171982190Y-98443142D01*
X172369238Y-97862571D02*
X172417619Y-97717428D01*
X172417619Y-97475523D01*
X172369238Y-97378761D01*
X172320857Y-97330380D01*
X172224095Y-97282000D01*
X172127333Y-97282000D01*
X172030571Y-97330380D01*
X171982190Y-97378761D01*
X171933809Y-97475523D01*
X171885428Y-97669047D01*
X171837047Y-97765809D01*
X171788666Y-97814190D01*
X171691904Y-97862571D01*
X171595142Y-97862571D01*
X171498380Y-97814190D01*
X171450000Y-97765809D01*
X171401619Y-97669047D01*
X171401619Y-97427142D01*
X171450000Y-97282000D01*
X171401619Y-96991714D02*
X171401619Y-96411142D01*
X172417619Y-96701428D02*
X171401619Y-96701428D01*
X171498380Y-96120857D02*
X171450000Y-96072476D01*
X171401619Y-95975714D01*
X171401619Y-95733809D01*
X171450000Y-95637047D01*
X171498380Y-95588666D01*
X171595142Y-95540285D01*
X171691904Y-95540285D01*
X171837047Y-95588666D01*
X172417619Y-96169238D01*
X172417619Y-95540285D01*
X171837047Y-94959714D02*
X171788666Y-95056476D01*
X171740285Y-95104857D01*
X171643523Y-95153238D01*
X171595142Y-95153238D01*
X171498380Y-95104857D01*
X171450000Y-95056476D01*
X171401619Y-94959714D01*
X171401619Y-94766190D01*
X171450000Y-94669428D01*
X171498380Y-94621047D01*
X171595142Y-94572666D01*
X171643523Y-94572666D01*
X171740285Y-94621047D01*
X171788666Y-94669428D01*
X171837047Y-94766190D01*
X171837047Y-94959714D01*
X171885428Y-95056476D01*
X171933809Y-95104857D01*
X172030571Y-95153238D01*
X172224095Y-95153238D01*
X172320857Y-95104857D01*
X172369238Y-95056476D01*
X172417619Y-94959714D01*
X172417619Y-94766190D01*
X172369238Y-94669428D01*
X172320857Y-94621047D01*
X172224095Y-94572666D01*
X172030571Y-94572666D01*
X171933809Y-94621047D01*
X171885428Y-94669428D01*
X171837047Y-94766190D01*
X171401619Y-93943714D02*
X171401619Y-93846952D01*
X171450000Y-93750190D01*
X171498380Y-93701809D01*
X171595142Y-93653428D01*
X171788666Y-93605047D01*
X172030571Y-93605047D01*
X172224095Y-93653428D01*
X172320857Y-93701809D01*
X172369238Y-93750190D01*
X172417619Y-93846952D01*
X172417619Y-93943714D01*
X172369238Y-94040476D01*
X172320857Y-94088857D01*
X172224095Y-94137238D01*
X172030571Y-94185619D01*
X171788666Y-94185619D01*
X171595142Y-94137238D01*
X171498380Y-94088857D01*
X171450000Y-94040476D01*
X171401619Y-93943714D01*
X172127333Y-93218000D02*
X172127333Y-92734190D01*
X172417619Y-93314761D02*
X171401619Y-92976095D01*
X172417619Y-92637428D01*
X171498380Y-92347142D02*
X171450000Y-92298761D01*
X171401619Y-92202000D01*
X171401619Y-91960095D01*
X171450000Y-91863333D01*
X171498380Y-91814952D01*
X171595142Y-91766571D01*
X171691904Y-91766571D01*
X171837047Y-91814952D01*
X172417619Y-92395523D01*
X172417619Y-91766571D01*
X171740285Y-90895714D02*
X172417619Y-90895714D01*
X171353238Y-91137619D02*
X172078952Y-91379523D01*
X172078952Y-90750571D01*
X172030571Y-90363523D02*
X172030571Y-89589428D01*
X172320857Y-88525047D02*
X172369238Y-88573428D01*
X172417619Y-88718571D01*
X172417619Y-88815333D01*
X172369238Y-88960476D01*
X172272476Y-89057238D01*
X172175714Y-89105619D01*
X171982190Y-89154000D01*
X171837047Y-89154000D01*
X171643523Y-89105619D01*
X171546761Y-89057238D01*
X171450000Y-88960476D01*
X171401619Y-88815333D01*
X171401619Y-88718571D01*
X171450000Y-88573428D01*
X171498380Y-88525047D01*
X171401619Y-87654190D02*
X171401619Y-87847714D01*
X171450000Y-87944476D01*
X171498380Y-87992857D01*
X171643523Y-88089619D01*
X171837047Y-88138000D01*
X172224095Y-88138000D01*
X172320857Y-88089619D01*
X172369238Y-88041238D01*
X172417619Y-87944476D01*
X172417619Y-87750952D01*
X172369238Y-87654190D01*
X172320857Y-87605809D01*
X172224095Y-87557428D01*
X171982190Y-87557428D01*
X171885428Y-87605809D01*
X171837047Y-87654190D01*
X171788666Y-87750952D01*
X171788666Y-87944476D01*
X171837047Y-88041238D01*
X171885428Y-88089619D01*
X171982190Y-88138000D01*
X172417619Y-87122000D02*
X171401619Y-87122000D01*
X171401619Y-86734952D01*
X171450000Y-86638190D01*
X171498380Y-86589809D01*
X171595142Y-86541428D01*
X171740285Y-86541428D01*
X171837047Y-86589809D01*
X171885428Y-86638190D01*
X171933809Y-86734952D01*
X171933809Y-87122000D01*
D12*
X139700000Y-80010000D02*
X139700000Y-130810000D01*
X165100000Y-80010000D02*
X165100000Y-130810000D01*
X88900000Y-80010000D02*
X190500000Y-80010000D01*
X88900000Y-130810000D02*
X88900000Y-80010000D01*
X190500000Y-130810000D02*
X88900000Y-130810000D01*
X190500000Y-80010000D02*
X190500000Y-130810000D01*
D14*
X191135000Y-71755000D02*
X69850000Y-71755000D01*
X191135000Y-139065000D02*
X191135000Y-71755000D01*
X69850000Y-139065000D02*
X191135000Y-139065000D01*
X69850000Y-71755000D02*
X69850000Y-139065000D01*
D11*
X85452857Y-133809619D02*
X85452857Y-132793619D01*
X85888285Y-133809619D02*
X85888285Y-133277428D01*
X85839904Y-133180666D01*
X85743142Y-133132285D01*
X85598000Y-133132285D01*
X85501238Y-133180666D01*
X85452857Y-133229047D01*
X86226952Y-133132285D02*
X86614000Y-133132285D01*
X86372095Y-132793619D02*
X86372095Y-133664476D01*
X86420476Y-133761238D01*
X86517238Y-133809619D01*
X86614000Y-133809619D01*
X86807523Y-133132285D02*
X87194571Y-133132285D01*
X86952666Y-132793619D02*
X86952666Y-133664476D01*
X87001047Y-133761238D01*
X87097809Y-133809619D01*
X87194571Y-133809619D01*
X87533238Y-133132285D02*
X87533238Y-134148285D01*
X87533238Y-133180666D02*
X87630000Y-133132285D01*
X87823523Y-133132285D01*
X87920285Y-133180666D01*
X87968666Y-133229047D01*
X88017047Y-133325809D01*
X88017047Y-133616095D01*
X87968666Y-133712857D01*
X87920285Y-133761238D01*
X87823523Y-133809619D01*
X87630000Y-133809619D01*
X87533238Y-133761238D01*
X88404095Y-133761238D02*
X88500857Y-133809619D01*
X88694380Y-133809619D01*
X88791142Y-133761238D01*
X88839523Y-133664476D01*
X88839523Y-133616095D01*
X88791142Y-133519333D01*
X88694380Y-133470952D01*
X88549238Y-133470952D01*
X88452476Y-133422571D01*
X88404095Y-133325809D01*
X88404095Y-133277428D01*
X88452476Y-133180666D01*
X88549238Y-133132285D01*
X88694380Y-133132285D01*
X88791142Y-133180666D01*
X89274952Y-133712857D02*
X89323333Y-133761238D01*
X89274952Y-133809619D01*
X89226571Y-133761238D01*
X89274952Y-133712857D01*
X89274952Y-133809619D01*
X89274952Y-133180666D02*
X89323333Y-133229047D01*
X89274952Y-133277428D01*
X89226571Y-133229047D01*
X89274952Y-133180666D01*
X89274952Y-133277428D01*
X90484476Y-132745238D02*
X89613619Y-134051523D01*
X91548857Y-132745238D02*
X90678000Y-134051523D01*
X92322952Y-133132285D02*
X92322952Y-133954761D01*
X92274571Y-134051523D01*
X92226190Y-134099904D01*
X92129428Y-134148285D01*
X91984285Y-134148285D01*
X91887523Y-134099904D01*
X92322952Y-133761238D02*
X92226190Y-133809619D01*
X92032666Y-133809619D01*
X91935904Y-133761238D01*
X91887523Y-133712857D01*
X91839142Y-133616095D01*
X91839142Y-133325809D01*
X91887523Y-133229047D01*
X91935904Y-133180666D01*
X92032666Y-133132285D01*
X92226190Y-133132285D01*
X92322952Y-133180666D01*
X92806761Y-133809619D02*
X92806761Y-133132285D01*
X92806761Y-132793619D02*
X92758380Y-132842000D01*
X92806761Y-132890380D01*
X92855142Y-132842000D01*
X92806761Y-132793619D01*
X92806761Y-132890380D01*
X93145428Y-133132285D02*
X93532476Y-133132285D01*
X93290571Y-132793619D02*
X93290571Y-133664476D01*
X93338952Y-133761238D01*
X93435714Y-133809619D01*
X93532476Y-133809619D01*
X93871142Y-133809619D02*
X93871142Y-132793619D01*
X94306571Y-133809619D02*
X94306571Y-133277428D01*
X94258190Y-133180666D01*
X94161428Y-133132285D01*
X94016285Y-133132285D01*
X93919523Y-133180666D01*
X93871142Y-133229047D01*
X95225809Y-133132285D02*
X95225809Y-133809619D01*
X94790380Y-133132285D02*
X94790380Y-133664476D01*
X94838761Y-133761238D01*
X94935523Y-133809619D01*
X95080666Y-133809619D01*
X95177428Y-133761238D01*
X95225809Y-133712857D01*
X95709619Y-133809619D02*
X95709619Y-132793619D01*
X95709619Y-133180666D02*
X95806380Y-133132285D01*
X95999904Y-133132285D01*
X96096666Y-133180666D01*
X96145047Y-133229047D01*
X96193428Y-133325809D01*
X96193428Y-133616095D01*
X96145047Y-133712857D01*
X96096666Y-133761238D01*
X95999904Y-133809619D01*
X95806380Y-133809619D01*
X95709619Y-133761238D01*
X96628857Y-133712857D02*
X96677238Y-133761238D01*
X96628857Y-133809619D01*
X96580476Y-133761238D01*
X96628857Y-133712857D01*
X96628857Y-133809619D01*
X97548095Y-133761238D02*
X97451333Y-133809619D01*
X97257809Y-133809619D01*
X97161047Y-133761238D01*
X97112666Y-133712857D01*
X97064285Y-133616095D01*
X97064285Y-133325809D01*
X97112666Y-133229047D01*
X97161047Y-133180666D01*
X97257809Y-133132285D01*
X97451333Y-133132285D01*
X97548095Y-133180666D01*
X98128666Y-133809619D02*
X98031904Y-133761238D01*
X97983523Y-133712857D01*
X97935142Y-133616095D01*
X97935142Y-133325809D01*
X97983523Y-133229047D01*
X98031904Y-133180666D01*
X98128666Y-133132285D01*
X98273809Y-133132285D01*
X98370571Y-133180666D01*
X98418952Y-133229047D01*
X98467333Y-133325809D01*
X98467333Y-133616095D01*
X98418952Y-133712857D01*
X98370571Y-133761238D01*
X98273809Y-133809619D01*
X98128666Y-133809619D01*
X98902761Y-133809619D02*
X98902761Y-133132285D01*
X98902761Y-133229047D02*
X98951142Y-133180666D01*
X99047904Y-133132285D01*
X99193047Y-133132285D01*
X99289809Y-133180666D01*
X99338190Y-133277428D01*
X99338190Y-133809619D01*
X99338190Y-133277428D02*
X99386571Y-133180666D01*
X99483333Y-133132285D01*
X99628476Y-133132285D01*
X99725238Y-133180666D01*
X99773619Y-133277428D01*
X99773619Y-133809619D01*
X100983142Y-132745238D02*
X100112285Y-134051523D01*
X101321809Y-133132285D02*
X101321809Y-134003142D01*
X101273428Y-134099904D01*
X101176666Y-134148285D01*
X101128285Y-134148285D01*
X101321809Y-132793619D02*
X101273428Y-132842000D01*
X101321809Y-132890380D01*
X101370190Y-132842000D01*
X101321809Y-132793619D01*
X101321809Y-132890380D01*
X102241047Y-133809619D02*
X102241047Y-133277428D01*
X102192666Y-133180666D01*
X102095904Y-133132285D01*
X101902380Y-133132285D01*
X101805619Y-133180666D01*
X102241047Y-133761238D02*
X102144285Y-133809619D01*
X101902380Y-133809619D01*
X101805619Y-133761238D01*
X101757238Y-133664476D01*
X101757238Y-133567714D01*
X101805619Y-133470952D01*
X101902380Y-133422571D01*
X102144285Y-133422571D01*
X102241047Y-133374190D01*
X102724857Y-133132285D02*
X102724857Y-133809619D01*
X102724857Y-133229047D02*
X102773238Y-133180666D01*
X102870000Y-133132285D01*
X103015142Y-133132285D01*
X103111904Y-133180666D01*
X103160285Y-133277428D01*
X103160285Y-133809619D01*
X104031142Y-133761238D02*
X103934380Y-133809619D01*
X103740857Y-133809619D01*
X103644095Y-133761238D01*
X103595714Y-133664476D01*
X103595714Y-133277428D01*
X103644095Y-133180666D01*
X103740857Y-133132285D01*
X103934380Y-133132285D01*
X104031142Y-133180666D01*
X104079523Y-133277428D01*
X104079523Y-133374190D01*
X103595714Y-133470952D01*
X104660095Y-133809619D02*
X104563333Y-133761238D01*
X104514952Y-133664476D01*
X104514952Y-132793619D01*
X105047142Y-133809619D02*
X105047142Y-133132285D01*
X105047142Y-132793619D02*
X104998761Y-132842000D01*
X105047142Y-132890380D01*
X105095523Y-132842000D01*
X105047142Y-132793619D01*
X105047142Y-132890380D01*
X105966380Y-133809619D02*
X105966380Y-133277428D01*
X105918000Y-133180666D01*
X105821238Y-133132285D01*
X105627714Y-133132285D01*
X105530952Y-133180666D01*
X105966380Y-133761238D02*
X105869619Y-133809619D01*
X105627714Y-133809619D01*
X105530952Y-133761238D01*
X105482571Y-133664476D01*
X105482571Y-133567714D01*
X105530952Y-133470952D01*
X105627714Y-133422571D01*
X105869619Y-133422571D01*
X105966380Y-133374190D01*
X106450190Y-133422571D02*
X107224285Y-133422571D01*
X107708095Y-133809619D02*
X107708095Y-133132285D01*
X107708095Y-133229047D02*
X107756476Y-133180666D01*
X107853238Y-133132285D01*
X107998380Y-133132285D01*
X108095142Y-133180666D01*
X108143523Y-133277428D01*
X108143523Y-133809619D01*
X108143523Y-133277428D02*
X108191904Y-133180666D01*
X108288666Y-133132285D01*
X108433809Y-133132285D01*
X108530571Y-133180666D01*
X108578952Y-133277428D01*
X108578952Y-133809619D01*
X109207904Y-133809619D02*
X109111142Y-133761238D01*
X109062761Y-133712857D01*
X109014380Y-133616095D01*
X109014380Y-133325809D01*
X109062761Y-133229047D01*
X109111142Y-133180666D01*
X109207904Y-133132285D01*
X109353047Y-133132285D01*
X109449809Y-133180666D01*
X109498190Y-133229047D01*
X109546571Y-133325809D01*
X109546571Y-133616095D01*
X109498190Y-133712857D01*
X109449809Y-133761238D01*
X109353047Y-133809619D01*
X109207904Y-133809619D01*
X110417428Y-133809619D02*
X110417428Y-132793619D01*
X110417428Y-133761238D02*
X110320666Y-133809619D01*
X110127142Y-133809619D01*
X110030380Y-133761238D01*
X109982000Y-133712857D01*
X109933619Y-133616095D01*
X109933619Y-133325809D01*
X109982000Y-133229047D01*
X110030380Y-133180666D01*
X110127142Y-133132285D01*
X110320666Y-133132285D01*
X110417428Y-133180666D01*
X111336666Y-133132285D02*
X111336666Y-133809619D01*
X110901238Y-133132285D02*
X110901238Y-133664476D01*
X110949619Y-133761238D01*
X111046380Y-133809619D01*
X111191523Y-133809619D01*
X111288285Y-133761238D01*
X111336666Y-133712857D01*
X111965619Y-133809619D02*
X111868857Y-133761238D01*
X111820476Y-133664476D01*
X111820476Y-132793619D01*
X112788095Y-133809619D02*
X112788095Y-133277428D01*
X112739714Y-133180666D01*
X112642952Y-133132285D01*
X112449428Y-133132285D01*
X112352666Y-133180666D01*
X112788095Y-133761238D02*
X112691333Y-133809619D01*
X112449428Y-133809619D01*
X112352666Y-133761238D01*
X112304285Y-133664476D01*
X112304285Y-133567714D01*
X112352666Y-133470952D01*
X112449428Y-133422571D01*
X112691333Y-133422571D01*
X112788095Y-133374190D01*
X113271904Y-133809619D02*
X113271904Y-133132285D01*
X113271904Y-133325809D02*
X113320285Y-133229047D01*
X113368666Y-133180666D01*
X113465428Y-133132285D01*
X113562190Y-133132285D01*
X113900857Y-133422571D02*
X114674952Y-133422571D01*
X115594190Y-133809619D02*
X115594190Y-132793619D01*
X115594190Y-133761238D02*
X115497428Y-133809619D01*
X115303904Y-133809619D01*
X115207142Y-133761238D01*
X115158761Y-133712857D01*
X115110380Y-133616095D01*
X115110380Y-133325809D01*
X115158761Y-133229047D01*
X115207142Y-133180666D01*
X115303904Y-133132285D01*
X115497428Y-133132285D01*
X115594190Y-133180666D01*
X116465047Y-133761238D02*
X116368285Y-133809619D01*
X116174761Y-133809619D01*
X116078000Y-133761238D01*
X116029619Y-133664476D01*
X116029619Y-133277428D01*
X116078000Y-133180666D01*
X116174761Y-133132285D01*
X116368285Y-133132285D01*
X116465047Y-133180666D01*
X116513428Y-133277428D01*
X116513428Y-133374190D01*
X116029619Y-133470952D01*
X116852095Y-133132285D02*
X117094000Y-133809619D01*
X117335904Y-133132285D01*
X117722952Y-133809619D02*
X117722952Y-133132285D01*
X117722952Y-132793619D02*
X117674571Y-132842000D01*
X117722952Y-132890380D01*
X117771333Y-132842000D01*
X117722952Y-132793619D01*
X117722952Y-132890380D01*
X118642190Y-133761238D02*
X118545428Y-133809619D01*
X118351904Y-133809619D01*
X118255142Y-133761238D01*
X118206761Y-133712857D01*
X118158380Y-133616095D01*
X118158380Y-133325809D01*
X118206761Y-133229047D01*
X118255142Y-133180666D01*
X118351904Y-133132285D01*
X118545428Y-133132285D01*
X118642190Y-133180666D01*
X119464666Y-133761238D02*
X119367904Y-133809619D01*
X119174380Y-133809619D01*
X119077619Y-133761238D01*
X119029238Y-133664476D01*
X119029238Y-133277428D01*
X119077619Y-133180666D01*
X119174380Y-133132285D01*
X119367904Y-133132285D01*
X119464666Y-133180666D01*
X119513047Y-133277428D01*
X119513047Y-133374190D01*
X119029238Y-133470952D01*
X119900095Y-133761238D02*
X119996857Y-133809619D01*
X120190380Y-133809619D01*
X120287142Y-133761238D01*
X120335523Y-133664476D01*
X120335523Y-133616095D01*
X120287142Y-133519333D01*
X120190380Y-133470952D01*
X120045238Y-133470952D01*
X119948476Y-133422571D01*
X119900095Y-133325809D01*
X119900095Y-133277428D01*
X119948476Y-133180666D01*
X120045238Y-133132285D01*
X120190380Y-133132285D01*
X120287142Y-133180666D01*
D10*
X70436619Y-113804095D02*
X71162333Y-113804095D01*
X71307476Y-113852476D01*
X71404238Y-113949238D01*
X71452619Y-114094380D01*
X71452619Y-114191142D01*
X71452619Y-112884857D02*
X70920428Y-112884857D01*
X70823666Y-112933238D01*
X70775285Y-113030000D01*
X70775285Y-113223523D01*
X70823666Y-113320285D01*
X71404238Y-112884857D02*
X71452619Y-112981619D01*
X71452619Y-113223523D01*
X71404238Y-113320285D01*
X71307476Y-113368666D01*
X71210714Y-113368666D01*
X71113952Y-113320285D01*
X71065571Y-113223523D01*
X71065571Y-112981619D01*
X71017190Y-112884857D01*
X70775285Y-112401047D02*
X71452619Y-112401047D01*
X70872047Y-112401047D02*
X70823666Y-112352666D01*
X70775285Y-112255904D01*
X70775285Y-112110761D01*
X70823666Y-112014000D01*
X70920428Y-111965619D01*
X71452619Y-111965619D01*
X71404238Y-111094761D02*
X71452619Y-111191523D01*
X71452619Y-111385047D01*
X71404238Y-111481809D01*
X71307476Y-111530190D01*
X70920428Y-111530190D01*
X70823666Y-111481809D01*
X70775285Y-111385047D01*
X70775285Y-111191523D01*
X70823666Y-111094761D01*
X70920428Y-111046380D01*
X71017190Y-111046380D01*
X71113952Y-111530190D01*
X71452619Y-110465809D02*
X71404238Y-110562571D01*
X71307476Y-110610952D01*
X70436619Y-110610952D01*
X71452619Y-110078761D02*
X70775285Y-110078761D01*
X70436619Y-110078761D02*
X70485000Y-110127142D01*
X70533380Y-110078761D01*
X70485000Y-110030380D01*
X70436619Y-110078761D01*
X70533380Y-110078761D01*
X71452619Y-109159523D02*
X70920428Y-109159523D01*
X70823666Y-109207904D01*
X70775285Y-109304666D01*
X70775285Y-109498190D01*
X70823666Y-109594952D01*
X71404238Y-109159523D02*
X71452619Y-109256285D01*
X71452619Y-109498190D01*
X71404238Y-109594952D01*
X71307476Y-109643333D01*
X71210714Y-109643333D01*
X71113952Y-109594952D01*
X71065571Y-109498190D01*
X71065571Y-109256285D01*
X71017190Y-109159523D01*
X71452619Y-107901619D02*
X70436619Y-107901619D01*
X71162333Y-107562952D01*
X70436619Y-107224285D01*
X71452619Y-107224285D01*
X71452619Y-106595333D02*
X71404238Y-106692095D01*
X71355857Y-106740476D01*
X71259095Y-106788857D01*
X70968809Y-106788857D01*
X70872047Y-106740476D01*
X70823666Y-106692095D01*
X70775285Y-106595333D01*
X70775285Y-106450190D01*
X70823666Y-106353428D01*
X70872047Y-106305047D01*
X70968809Y-106256666D01*
X71259095Y-106256666D01*
X71355857Y-106305047D01*
X71404238Y-106353428D01*
X71452619Y-106450190D01*
X71452619Y-106595333D01*
X71452619Y-105385809D02*
X70436619Y-105385809D01*
X71404238Y-105385809D02*
X71452619Y-105482571D01*
X71452619Y-105676095D01*
X71404238Y-105772857D01*
X71355857Y-105821238D01*
X71259095Y-105869619D01*
X70968809Y-105869619D01*
X70872047Y-105821238D01*
X70823666Y-105772857D01*
X70775285Y-105676095D01*
X70775285Y-105482571D01*
X70823666Y-105385809D01*
X70775285Y-104466571D02*
X71452619Y-104466571D01*
X70775285Y-104902000D02*
X71307476Y-104902000D01*
X71404238Y-104853619D01*
X71452619Y-104756857D01*
X71452619Y-104611714D01*
X71404238Y-104514952D01*
X71355857Y-104466571D01*
X71452619Y-103837619D02*
X71404238Y-103934380D01*
X71307476Y-103982761D01*
X70436619Y-103982761D01*
X71452619Y-103015142D02*
X70920428Y-103015142D01*
X70823666Y-103063523D01*
X70775285Y-103160285D01*
X70775285Y-103353809D01*
X70823666Y-103450571D01*
X71404238Y-103015142D02*
X71452619Y-103111904D01*
X71452619Y-103353809D01*
X71404238Y-103450571D01*
X71307476Y-103498952D01*
X71210714Y-103498952D01*
X71113952Y-103450571D01*
X71065571Y-103353809D01*
X71065571Y-103111904D01*
X71017190Y-103015142D01*
X71452619Y-102531333D02*
X70775285Y-102531333D01*
X70968809Y-102531333D02*
X70872047Y-102482952D01*
X70823666Y-102434571D01*
X70775285Y-102337809D01*
X70775285Y-102241047D01*
X71452619Y-101128285D02*
X70436619Y-101128285D01*
X70436619Y-100886380D01*
X70485000Y-100741238D01*
X70581761Y-100644476D01*
X70678523Y-100596095D01*
X70872047Y-100547714D01*
X71017190Y-100547714D01*
X71210714Y-100596095D01*
X71307476Y-100644476D01*
X71404238Y-100741238D01*
X71452619Y-100886380D01*
X71452619Y-101128285D01*
X71404238Y-99725238D02*
X71452619Y-99822000D01*
X71452619Y-100015523D01*
X71404238Y-100112285D01*
X71307476Y-100160666D01*
X70920428Y-100160666D01*
X70823666Y-100112285D01*
X70775285Y-100015523D01*
X70775285Y-99822000D01*
X70823666Y-99725238D01*
X70920428Y-99676857D01*
X71017190Y-99676857D01*
X71113952Y-100160666D01*
X70775285Y-99338190D02*
X71452619Y-99096285D01*
X70775285Y-98854380D01*
X71452619Y-98467333D02*
X70775285Y-98467333D01*
X70436619Y-98467333D02*
X70485000Y-98515714D01*
X70533380Y-98467333D01*
X70485000Y-98418952D01*
X70436619Y-98467333D01*
X70533380Y-98467333D01*
X71404238Y-97548095D02*
X71452619Y-97644857D01*
X71452619Y-97838380D01*
X71404238Y-97935142D01*
X71355857Y-97983523D01*
X71259095Y-98031904D01*
X70968809Y-98031904D01*
X70872047Y-97983523D01*
X70823666Y-97935142D01*
X70775285Y-97838380D01*
X70775285Y-97644857D01*
X70823666Y-97548095D01*
X71404238Y-96725619D02*
X71452619Y-96822380D01*
X71452619Y-97015904D01*
X71404238Y-97112666D01*
X71307476Y-97161047D01*
X70920428Y-97161047D01*
X70823666Y-97112666D01*
X70775285Y-97015904D01*
X70775285Y-96822380D01*
X70823666Y-96725619D01*
X70920428Y-96677238D01*
X71017190Y-96677238D01*
X71113952Y-97161047D01*
X73182238Y-114046000D02*
X73230619Y-113949238D01*
X73230619Y-113755714D01*
X73182238Y-113658952D01*
X73085476Y-113610571D01*
X73037095Y-113610571D01*
X72940333Y-113658952D01*
X72891952Y-113755714D01*
X72891952Y-113900857D01*
X72843571Y-113997619D01*
X72746809Y-114046000D01*
X72698428Y-114046000D01*
X72601666Y-113997619D01*
X72553285Y-113900857D01*
X72553285Y-113755714D01*
X72601666Y-113658952D01*
X73230619Y-113175142D02*
X72553285Y-113175142D01*
X72650047Y-113175142D02*
X72601666Y-113126761D01*
X72553285Y-113030000D01*
X72553285Y-112884857D01*
X72601666Y-112788095D01*
X72698428Y-112739714D01*
X73230619Y-112739714D01*
X72698428Y-112739714D02*
X72601666Y-112691333D01*
X72553285Y-112594571D01*
X72553285Y-112449428D01*
X72601666Y-112352666D01*
X72698428Y-112304285D01*
X73230619Y-112304285D01*
X73230619Y-111385047D02*
X72698428Y-111385047D01*
X72601666Y-111433428D01*
X72553285Y-111530190D01*
X72553285Y-111723714D01*
X72601666Y-111820476D01*
X73182238Y-111385047D02*
X73230619Y-111481809D01*
X73230619Y-111723714D01*
X73182238Y-111820476D01*
X73085476Y-111868857D01*
X72988714Y-111868857D01*
X72891952Y-111820476D01*
X72843571Y-111723714D01*
X72843571Y-111481809D01*
X72795190Y-111385047D01*
X73230619Y-110901238D02*
X72553285Y-110901238D01*
X72746809Y-110901238D02*
X72650047Y-110852857D01*
X72601666Y-110804476D01*
X72553285Y-110707714D01*
X72553285Y-110610952D01*
X72553285Y-110417428D02*
X72553285Y-110030380D01*
X72214619Y-110272285D02*
X73085476Y-110272285D01*
X73182238Y-110223904D01*
X73230619Y-110127142D01*
X73230619Y-110030380D01*
X73327380Y-109933619D02*
X73327380Y-109159523D01*
X72553285Y-109014380D02*
X73230619Y-108772476D01*
X72553285Y-108530571D01*
X73230619Y-108143523D02*
X72553285Y-108143523D01*
X72214619Y-108143523D02*
X72263000Y-108191904D01*
X72311380Y-108143523D01*
X72263000Y-108095142D01*
X72214619Y-108143523D01*
X72311380Y-108143523D01*
X73182238Y-107708095D02*
X73230619Y-107611333D01*
X73230619Y-107417809D01*
X73182238Y-107321047D01*
X73085476Y-107272666D01*
X73037095Y-107272666D01*
X72940333Y-107321047D01*
X72891952Y-107417809D01*
X72891952Y-107562952D01*
X72843571Y-107659714D01*
X72746809Y-107708095D01*
X72698428Y-107708095D01*
X72601666Y-107659714D01*
X72553285Y-107562952D01*
X72553285Y-107417809D01*
X72601666Y-107321047D01*
X73230619Y-106837238D02*
X72553285Y-106837238D01*
X72214619Y-106837238D02*
X72263000Y-106885619D01*
X72311380Y-106837238D01*
X72263000Y-106788857D01*
X72214619Y-106837238D01*
X72311380Y-106837238D01*
X73230619Y-106208285D02*
X73182238Y-106305047D01*
X73133857Y-106353428D01*
X73037095Y-106401809D01*
X72746809Y-106401809D01*
X72650047Y-106353428D01*
X72601666Y-106305047D01*
X72553285Y-106208285D01*
X72553285Y-106063142D01*
X72601666Y-105966380D01*
X72650047Y-105918000D01*
X72746809Y-105869619D01*
X73037095Y-105869619D01*
X73133857Y-105918000D01*
X73182238Y-105966380D01*
X73230619Y-106063142D01*
X73230619Y-106208285D01*
X72553285Y-105434190D02*
X73230619Y-105434190D01*
X72650047Y-105434190D02*
X72601666Y-105385809D01*
X72553285Y-105289047D01*
X72553285Y-105143904D01*
X72601666Y-105047142D01*
X72698428Y-104998761D01*
X73230619Y-104998761D01*
X73327380Y-104756857D02*
X73327380Y-103982761D01*
X73182238Y-103305428D02*
X73230619Y-103402190D01*
X73230619Y-103595714D01*
X73182238Y-103692476D01*
X73133857Y-103740857D01*
X73037095Y-103789238D01*
X72746809Y-103789238D01*
X72650047Y-103740857D01*
X72601666Y-103692476D01*
X72553285Y-103595714D01*
X72553285Y-103402190D01*
X72601666Y-103305428D01*
X73230619Y-102724857D02*
X73182238Y-102821619D01*
X73133857Y-102870000D01*
X73037095Y-102918380D01*
X72746809Y-102918380D01*
X72650047Y-102870000D01*
X72601666Y-102821619D01*
X72553285Y-102724857D01*
X72553285Y-102579714D01*
X72601666Y-102482952D01*
X72650047Y-102434571D01*
X72746809Y-102386190D01*
X73037095Y-102386190D01*
X73133857Y-102434571D01*
X73182238Y-102482952D01*
X73230619Y-102579714D01*
X73230619Y-102724857D01*
X72553285Y-101950761D02*
X73230619Y-101950761D01*
X72650047Y-101950761D02*
X72601666Y-101902380D01*
X72553285Y-101805619D01*
X72553285Y-101660476D01*
X72601666Y-101563714D01*
X72698428Y-101515333D01*
X73230619Y-101515333D01*
X72553285Y-101176666D02*
X72553285Y-100789619D01*
X72214619Y-101031523D02*
X73085476Y-101031523D01*
X73182238Y-100983142D01*
X73230619Y-100886380D01*
X73230619Y-100789619D01*
X73230619Y-100450952D02*
X72553285Y-100450952D01*
X72746809Y-100450952D02*
X72650047Y-100402571D01*
X72601666Y-100354190D01*
X72553285Y-100257428D01*
X72553285Y-100160666D01*
X73230619Y-99676857D02*
X73182238Y-99773619D01*
X73133857Y-99822000D01*
X73037095Y-99870380D01*
X72746809Y-99870380D01*
X72650047Y-99822000D01*
X72601666Y-99773619D01*
X72553285Y-99676857D01*
X72553285Y-99531714D01*
X72601666Y-99434952D01*
X72650047Y-99386571D01*
X72746809Y-99338190D01*
X73037095Y-99338190D01*
X73133857Y-99386571D01*
X73182238Y-99434952D01*
X73230619Y-99531714D01*
X73230619Y-99676857D01*
X73230619Y-98757619D02*
X73182238Y-98854380D01*
X73085476Y-98902761D01*
X72214619Y-98902761D01*
X73230619Y-98225428D02*
X73182238Y-98322190D01*
X73085476Y-98370571D01*
X72214619Y-98370571D01*
X73182238Y-97451333D02*
X73230619Y-97548095D01*
X73230619Y-97741619D01*
X73182238Y-97838380D01*
X73085476Y-97886761D01*
X72698428Y-97886761D01*
X72601666Y-97838380D01*
X72553285Y-97741619D01*
X72553285Y-97548095D01*
X72601666Y-97451333D01*
X72698428Y-97402952D01*
X72795190Y-97402952D01*
X72891952Y-97886761D01*
X73230619Y-96967523D02*
X72553285Y-96967523D01*
X72746809Y-96967523D02*
X72650047Y-96919142D01*
X72601666Y-96870761D01*
X72553285Y-96774000D01*
X72553285Y-96677238D01*
X74331285Y-112449428D02*
X75347285Y-112449428D01*
X74379666Y-112449428D02*
X74331285Y-112352666D01*
X74331285Y-112159142D01*
X74379666Y-112062380D01*
X74428047Y-112014000D01*
X74524809Y-111965619D01*
X74815095Y-111965619D01*
X74911857Y-112014000D01*
X74960238Y-112062380D01*
X75008619Y-112159142D01*
X75008619Y-112352666D01*
X74960238Y-112449428D01*
X75008619Y-111094761D02*
X74476428Y-111094761D01*
X74379666Y-111143142D01*
X74331285Y-111239904D01*
X74331285Y-111433428D01*
X74379666Y-111530190D01*
X74960238Y-111094761D02*
X75008619Y-111191523D01*
X75008619Y-111433428D01*
X74960238Y-111530190D01*
X74863476Y-111578571D01*
X74766714Y-111578571D01*
X74669952Y-111530190D01*
X74621571Y-111433428D01*
X74621571Y-111191523D01*
X74573190Y-111094761D01*
X75008619Y-110610952D02*
X74331285Y-110610952D01*
X74524809Y-110610952D02*
X74428047Y-110562571D01*
X74379666Y-110514190D01*
X74331285Y-110417428D01*
X74331285Y-110320666D01*
X74331285Y-110127142D02*
X74331285Y-109740095D01*
X73992619Y-109982000D02*
X74863476Y-109982000D01*
X74960238Y-109933619D01*
X75008619Y-109836857D01*
X75008619Y-109740095D01*
X75105380Y-109643333D02*
X75105380Y-108869238D01*
X74331285Y-108627333D02*
X75008619Y-108627333D01*
X74428047Y-108627333D02*
X74379666Y-108578952D01*
X74331285Y-108482190D01*
X74331285Y-108337047D01*
X74379666Y-108240285D01*
X74476428Y-108191904D01*
X75008619Y-108191904D01*
X74331285Y-107272666D02*
X75008619Y-107272666D01*
X74331285Y-107708095D02*
X74863476Y-107708095D01*
X74960238Y-107659714D01*
X75008619Y-107562952D01*
X75008619Y-107417809D01*
X74960238Y-107321047D01*
X74911857Y-107272666D01*
X75008619Y-106788857D02*
X74331285Y-106788857D01*
X74428047Y-106788857D02*
X74379666Y-106740476D01*
X74331285Y-106643714D01*
X74331285Y-106498571D01*
X74379666Y-106401809D01*
X74476428Y-106353428D01*
X75008619Y-106353428D01*
X74476428Y-106353428D02*
X74379666Y-106305047D01*
X74331285Y-106208285D01*
X74331285Y-106063142D01*
X74379666Y-105966380D01*
X74476428Y-105918000D01*
X75008619Y-105918000D01*
X75008619Y-105434190D02*
X73992619Y-105434190D01*
X74379666Y-105434190D02*
X74331285Y-105337428D01*
X74331285Y-105143904D01*
X74379666Y-105047142D01*
X74428047Y-104998761D01*
X74524809Y-104950380D01*
X74815095Y-104950380D01*
X74911857Y-104998761D01*
X74960238Y-105047142D01*
X75008619Y-105143904D01*
X75008619Y-105337428D01*
X74960238Y-105434190D01*
X74960238Y-104127904D02*
X75008619Y-104224666D01*
X75008619Y-104418190D01*
X74960238Y-104514952D01*
X74863476Y-104563333D01*
X74476428Y-104563333D01*
X74379666Y-104514952D01*
X74331285Y-104418190D01*
X74331285Y-104224666D01*
X74379666Y-104127904D01*
X74476428Y-104079523D01*
X74573190Y-104079523D01*
X74669952Y-104563333D01*
X75008619Y-103644095D02*
X74331285Y-103644095D01*
X74524809Y-103644095D02*
X74428047Y-103595714D01*
X74379666Y-103547333D01*
X74331285Y-103450571D01*
X74331285Y-103353809D01*
X74911857Y-103015142D02*
X74960238Y-102966761D01*
X75008619Y-103015142D01*
X74960238Y-103063523D01*
X74911857Y-103015142D01*
X75008619Y-103015142D01*
X74379666Y-103015142D02*
X74428047Y-102966761D01*
X74476428Y-103015142D01*
X74428047Y-103063523D01*
X74379666Y-103015142D01*
X74476428Y-103015142D01*
X75008619Y-101225047D02*
X75008619Y-101805619D01*
X75008619Y-101515333D02*
X73992619Y-101515333D01*
X74137761Y-101612095D01*
X74234523Y-101708857D01*
X74282904Y-101805619D01*
X74089380Y-100838000D02*
X74041000Y-100789619D01*
X73992619Y-100692857D01*
X73992619Y-100450952D01*
X74041000Y-100354190D01*
X74089380Y-100305809D01*
X74186142Y-100257428D01*
X74282904Y-100257428D01*
X74428047Y-100305809D01*
X75008619Y-100886380D01*
X75008619Y-100257428D01*
X73992619Y-99918761D02*
X73992619Y-99241428D01*
X75008619Y-99676857D01*
X73992619Y-98660857D02*
X73992619Y-98564095D01*
X74041000Y-98467333D01*
X74089380Y-98418952D01*
X74186142Y-98370571D01*
X74379666Y-98322190D01*
X74621571Y-98322190D01*
X74815095Y-98370571D01*
X74911857Y-98418952D01*
X74960238Y-98467333D01*
X75008619Y-98564095D01*
X75008619Y-98660857D01*
X74960238Y-98757619D01*
X74911857Y-98805999D01*
X74815095Y-98854380D01*
X74621571Y-98902761D01*
X74379666Y-98902761D01*
X74186142Y-98854380D01*
X74089380Y-98805999D01*
X74041000Y-98757619D01*
X73992619Y-98660857D01*
X75770619Y-113296095D02*
X75770619Y-113199333D01*
X75819000Y-113102571D01*
X75867380Y-113054190D01*
X75964142Y-113005809D01*
X76157666Y-112957428D01*
X76399571Y-112957428D01*
X76593095Y-113005809D01*
X76689857Y-113054190D01*
X76738238Y-113102571D01*
X76786619Y-113199333D01*
X76786619Y-113296095D01*
X76738238Y-113392857D01*
X76689857Y-113441238D01*
X76593095Y-113489619D01*
X76399571Y-113538000D01*
X76157666Y-113538000D01*
X75964142Y-113489619D01*
X75867380Y-113441238D01*
X75819000Y-113392857D01*
X75770619Y-113296095D01*
X76206047Y-112376857D02*
X76157666Y-112473619D01*
X76109285Y-112522000D01*
X76012523Y-112570380D01*
X75964142Y-112570380D01*
X75867380Y-112522000D01*
X75819000Y-112473619D01*
X75770619Y-112376857D01*
X75770619Y-112183333D01*
X75819000Y-112086571D01*
X75867380Y-112038190D01*
X75964142Y-111989809D01*
X76012523Y-111989809D01*
X76109285Y-112038190D01*
X76157666Y-112086571D01*
X76206047Y-112183333D01*
X76206047Y-112376857D01*
X76254428Y-112473619D01*
X76302809Y-112522000D01*
X76399571Y-112570380D01*
X76593095Y-112570380D01*
X76689857Y-112522000D01*
X76738238Y-112473619D01*
X76786619Y-112376857D01*
X76786619Y-112183333D01*
X76738238Y-112086571D01*
X76689857Y-112038190D01*
X76593095Y-111989809D01*
X76399571Y-111989809D01*
X76302809Y-112038190D01*
X76254428Y-112086571D01*
X76206047Y-112183333D01*
X75722238Y-110828666D02*
X77028523Y-111699523D01*
X75867380Y-110538380D02*
X75819000Y-110490000D01*
X75770619Y-110393238D01*
X75770619Y-110151333D01*
X75819000Y-110054571D01*
X75867380Y-110006190D01*
X75964142Y-109957809D01*
X76060904Y-109957809D01*
X76206047Y-110006190D01*
X76786619Y-110586761D01*
X76786619Y-109957809D01*
X75770619Y-109328857D02*
X75770619Y-109232095D01*
X75819000Y-109135333D01*
X75867380Y-109086952D01*
X75964142Y-109038571D01*
X76157666Y-108990190D01*
X76399571Y-108990190D01*
X76593095Y-109038571D01*
X76689857Y-109086952D01*
X76738238Y-109135333D01*
X76786619Y-109232095D01*
X76786619Y-109328857D01*
X76738238Y-109425619D01*
X76689857Y-109474000D01*
X76593095Y-109522380D01*
X76399571Y-109570761D01*
X76157666Y-109570761D01*
X75964142Y-109522380D01*
X75867380Y-109474000D01*
X75819000Y-109425619D01*
X75770619Y-109328857D01*
X76786619Y-108022571D02*
X76786619Y-108603142D01*
X76786619Y-108312857D02*
X75770619Y-108312857D01*
X75915761Y-108409619D01*
X76012523Y-108506380D01*
X76060904Y-108603142D01*
X76206047Y-107442000D02*
X76157666Y-107538761D01*
X76109285Y-107587142D01*
X76012523Y-107635523D01*
X75964142Y-107635523D01*
X75867380Y-107587142D01*
X75819000Y-107538761D01*
X75770619Y-107442000D01*
X75770619Y-107248476D01*
X75819000Y-107151714D01*
X75867380Y-107103333D01*
X75964142Y-107054952D01*
X76012523Y-107054952D01*
X76109285Y-107103333D01*
X76157666Y-107151714D01*
X76206047Y-107248476D01*
X76206047Y-107442000D01*
X76254428Y-107538761D01*
X76302809Y-107587142D01*
X76399571Y-107635523D01*
X76593095Y-107635523D01*
X76689857Y-107587142D01*
X76738238Y-107538761D01*
X76786619Y-107442000D01*
X76786619Y-107248476D01*
X76738238Y-107151714D01*
X76689857Y-107103333D01*
X76593095Y-107054952D01*
X76399571Y-107054952D01*
X76302809Y-107103333D01*
X76254428Y-107151714D01*
X76206047Y-107248476D01*
X76109285Y-105942190D02*
X76786619Y-105700285D01*
X76109285Y-105458380D01*
X76738238Y-104684285D02*
X76786619Y-104781047D01*
X76786619Y-104974571D01*
X76738238Y-105071333D01*
X76641476Y-105119714D01*
X76254428Y-105119714D01*
X76157666Y-105071333D01*
X76109285Y-104974571D01*
X76109285Y-104781047D01*
X76157666Y-104684285D01*
X76254428Y-104635904D01*
X76351190Y-104635904D01*
X76447952Y-105119714D01*
X76786619Y-104200476D02*
X76109285Y-104200476D01*
X76302809Y-104200476D02*
X76206047Y-104152095D01*
X76157666Y-104103714D01*
X76109285Y-104006952D01*
X76109285Y-103910190D01*
X76786619Y-102265238D02*
X76786619Y-102845809D01*
X76786619Y-102555523D02*
X75770619Y-102555523D01*
X75915761Y-102652285D01*
X76012523Y-102749047D01*
X76060904Y-102845809D01*
X76689857Y-101829809D02*
X76738238Y-101781428D01*
X76786619Y-101829809D01*
X76738238Y-101878190D01*
X76689857Y-101829809D01*
X76786619Y-101829809D01*
X75770619Y-101152476D02*
X75770619Y-101055714D01*
X75819000Y-100958952D01*
X75867380Y-100910571D01*
X75964142Y-100862190D01*
X76157666Y-100813809D01*
X76399571Y-100813809D01*
X76593095Y-100862190D01*
X76689857Y-100910571D01*
X76738238Y-100958952D01*
X76786619Y-101055714D01*
X76786619Y-101152476D01*
X76738238Y-101249238D01*
X76689857Y-101297619D01*
X76593095Y-101346000D01*
X76399571Y-101394380D01*
X76157666Y-101394380D01*
X75964142Y-101346000D01*
X75867380Y-101297619D01*
X75819000Y-101249238D01*
X75770619Y-101152476D01*
X75770619Y-99120476D02*
X75770619Y-99604285D01*
X76254428Y-99652666D01*
X76206047Y-99604285D01*
X76157666Y-99507523D01*
X76157666Y-99265619D01*
X76206047Y-99168857D01*
X76254428Y-99120476D01*
X76351190Y-99072095D01*
X76593095Y-99072095D01*
X76689857Y-99120476D01*
X76738238Y-99168857D01*
X76786619Y-99265619D01*
X76786619Y-99507523D01*
X76738238Y-99604285D01*
X76689857Y-99652666D01*
X76786619Y-98733428D02*
X76109285Y-98201238D01*
X76109285Y-98733428D02*
X76786619Y-98201238D01*
X75770619Y-97910952D02*
X75770619Y-97282000D01*
X76157666Y-97620666D01*
X76157666Y-97475523D01*
X76206047Y-97378761D01*
X76254428Y-97330380D01*
X76351190Y-97282000D01*
X76593095Y-97282000D01*
X76689857Y-97330380D01*
X76738238Y-97378761D01*
X76786619Y-97475523D01*
X76786619Y-97765809D01*
X76738238Y-97862571D01*
X76689857Y-97910952D01*
D12*
G04 #@! TO.C,P2*
X190500000Y-113030000D02*
X190500000Y-123190000D01*
X177165000Y-113030000D02*
X190500000Y-113030000D01*
X177165000Y-123190000D02*
X190500000Y-123190000D01*
X177165000Y-113030000D02*
X177165000Y-123190000D01*
D15*
G04 #@! TO.C,P1*
X181760000Y-85810000D02*
X194560000Y-85810000D01*
X181760000Y-99610000D02*
X194560000Y-99610000D01*
X181760000Y-99610000D02*
X181760000Y-85810000D01*
X194560000Y-99610000D02*
X194560000Y-85810000D01*
D14*
G04 #@! TO.C,MDB1*
X167640000Y-135890000D02*
G75*
G03X167640000Y-135890000I-2540000J0D01*
G01*
X167640000Y-74930000D02*
G75*
G03X167640000Y-74930000I-2540000J0D01*
G01*
X76200000Y-130810000D02*
G75*
G03X76200000Y-130810000I-2540000J0D01*
G01*
X76200000Y-80010000D02*
G75*
G03X76200000Y-80010000I-2540000J0D01*
G01*
D12*
G04 #@! TO.C,J3*
X105250000Y-86435000D02*
X105250000Y-98985000D01*
X105250000Y-98985000D02*
X136050000Y-98985000D01*
X136050000Y-98985000D02*
X136050000Y-86435000D01*
X136050000Y-86435000D02*
X105250000Y-86435000D01*
G04 #@! TO.C,J4*
X105250000Y-111835000D02*
X105250000Y-124385000D01*
X105250000Y-124385000D02*
X136050000Y-124385000D01*
X136050000Y-124385000D02*
X136050000Y-111835000D01*
X136050000Y-111835000D02*
X105250000Y-111835000D01*
D15*
G04 #@! TO.C,J1*
X161300000Y-92710000D02*
G75*
G03X161300000Y-92710000I-8900000J0D01*
G01*
X153400000Y-88810000D02*
G75*
G02X151400000Y-88810000I-1000000J0D01*
G01*
X153402533Y-88810652D02*
G75*
G02X151400001Y-88810001I-1002533J-3899348D01*
G01*
G04 #@! TO.C,J2*
X161300000Y-118110000D02*
G75*
G03X161300000Y-118110000I-8900000J0D01*
G01*
X153400000Y-114210000D02*
G75*
G02X151400000Y-114210000I-1000000J0D01*
G01*
X153402533Y-114210652D02*
G75*
G02X151400001Y-114210001I-1002533J-3899348D01*
G01*
D14*
G04 #@! TO.C,L1*
X165862000Y-104902000D02*
X166878000Y-104902000D01*
X166370000Y-105410000D02*
X166370000Y-104394000D01*
X165100000Y-101600000D02*
X167640000Y-101600000D01*
X167640000Y-101600000D02*
X167640000Y-109220000D01*
X167640000Y-109220000D02*
X165100000Y-109220000D01*
X165100000Y-109220000D02*
X165100000Y-101600000D01*
G04 #@! TO.C,L2*
X92075000Y-90805000D02*
X92075000Y-83185000D01*
X94615000Y-90805000D02*
X92075000Y-90805000D01*
X94615000Y-83185000D02*
X94615000Y-90805000D01*
X92075000Y-83185000D02*
X94615000Y-83185000D01*
X93345000Y-86995000D02*
X93345000Y-85979000D01*
X92837000Y-86487000D02*
X93853000Y-86487000D01*
G04 #@! TO.C,L3*
X95377000Y-86487000D02*
X96393000Y-86487000D01*
X95885000Y-86995000D02*
X95885000Y-85979000D01*
X94615000Y-83185000D02*
X97155000Y-83185000D01*
X97155000Y-83185000D02*
X97155000Y-90805000D01*
X97155000Y-90805000D02*
X94615000Y-90805000D01*
X94615000Y-90805000D02*
X94615000Y-83185000D01*
G04 #@! TO.C,L4*
X97155000Y-90805000D02*
X97155000Y-83185000D01*
X99695000Y-90805000D02*
X97155000Y-90805000D01*
X99695000Y-83185000D02*
X99695000Y-90805000D01*
X97155000Y-83185000D02*
X99695000Y-83185000D01*
X98425000Y-86995000D02*
X98425000Y-85979000D01*
X97917000Y-86487000D02*
X98933000Y-86487000D01*
G04 #@! TO.C,L5*
X100457000Y-86487000D02*
X101473000Y-86487000D01*
X100965000Y-86995000D02*
X100965000Y-85979000D01*
X99695000Y-83185000D02*
X102235000Y-83185000D01*
X102235000Y-83185000D02*
X102235000Y-90805000D01*
X102235000Y-90805000D02*
X99695000Y-90805000D01*
X99695000Y-90805000D02*
X99695000Y-83185000D01*
G04 #@! TO.C,L6*
X92075000Y-127635000D02*
X92075000Y-120015000D01*
X94615000Y-127635000D02*
X92075000Y-127635000D01*
X94615000Y-120015000D02*
X94615000Y-127635000D01*
X92075000Y-120015000D02*
X94615000Y-120015000D01*
X93345000Y-123825000D02*
X93345000Y-122809000D01*
X92837000Y-123317000D02*
X93853000Y-123317000D01*
G04 #@! TO.C,L7*
X94615000Y-127635000D02*
X94615000Y-120015000D01*
X97155000Y-127635000D02*
X94615000Y-127635000D01*
X97155000Y-120015000D02*
X97155000Y-127635000D01*
X94615000Y-120015000D02*
X97155000Y-120015000D01*
X95885000Y-123825000D02*
X95885000Y-122809000D01*
X95377000Y-123317000D02*
X96393000Y-123317000D01*
G04 #@! TO.C,L8*
X97917000Y-123317000D02*
X98933000Y-123317000D01*
X98425000Y-123825000D02*
X98425000Y-122809000D01*
X97155000Y-120015000D02*
X99695000Y-120015000D01*
X99695000Y-120015000D02*
X99695000Y-127635000D01*
X99695000Y-127635000D02*
X97155000Y-127635000D01*
X97155000Y-127635000D02*
X97155000Y-120015000D01*
G04 #@! TO.C,L9*
X100457000Y-123317000D02*
X101473000Y-123317000D01*
X100965000Y-123825000D02*
X100965000Y-122809000D01*
X99695000Y-120015000D02*
X102235000Y-120015000D01*
X102235000Y-120015000D02*
X102235000Y-127635000D01*
X102235000Y-127635000D02*
X99695000Y-127635000D01*
X99695000Y-127635000D02*
X99695000Y-120015000D01*
G04 #@! TO.C,L10*
X141097000Y-86487000D02*
X142113000Y-86487000D01*
X141605000Y-86995000D02*
X141605000Y-85979000D01*
X140335000Y-83185000D02*
X142875000Y-83185000D01*
X142875000Y-83185000D02*
X142875000Y-90805000D01*
X142875000Y-90805000D02*
X140335000Y-90805000D01*
X140335000Y-90805000D02*
X140335000Y-83185000D01*
G04 #@! TO.C,L11*
X140335000Y-127635000D02*
X140335000Y-120015000D01*
X142875000Y-127635000D02*
X140335000Y-127635000D01*
X142875000Y-120015000D02*
X142875000Y-127635000D01*
X140335000Y-120015000D02*
X142875000Y-120015000D01*
X141605000Y-123825000D02*
X141605000Y-122809000D01*
X141097000Y-123317000D02*
X142113000Y-123317000D01*
G04 #@! TD*
G04 #@! TO.C,P2*
D10*
X187210095Y-111584619D02*
X187210095Y-110568619D01*
X187597142Y-110568619D01*
X187693904Y-110617000D01*
X187742285Y-110665380D01*
X187790666Y-110762142D01*
X187790666Y-110907285D01*
X187742285Y-111004047D01*
X187693904Y-111052428D01*
X187597142Y-111100809D01*
X187210095Y-111100809D01*
X188177714Y-110665380D02*
X188226095Y-110617000D01*
X188322857Y-110568619D01*
X188564761Y-110568619D01*
X188661523Y-110617000D01*
X188709904Y-110665380D01*
X188758285Y-110762142D01*
X188758285Y-110858904D01*
X188709904Y-111004047D01*
X188129333Y-111584619D01*
X188758285Y-111584619D01*
G04 #@! TO.C,P1*
X187210095Y-101424619D02*
X187210095Y-100408619D01*
X187597142Y-100408619D01*
X187693904Y-100457000D01*
X187742285Y-100505380D01*
X187790666Y-100602142D01*
X187790666Y-100747285D01*
X187742285Y-100844047D01*
X187693904Y-100892428D01*
X187597142Y-100940809D01*
X187210095Y-100940809D01*
X188758285Y-101424619D02*
X188177714Y-101424619D01*
X188468000Y-101424619D02*
X188468000Y-100408619D01*
X188371238Y-100553761D01*
X188274476Y-100650523D01*
X188177714Y-100698904D01*
G04 #@! TO.C,J3*
X120311333Y-99773619D02*
X120311333Y-100499333D01*
X120262952Y-100644476D01*
X120166190Y-100741238D01*
X120021047Y-100789619D01*
X119924285Y-100789619D01*
X120698380Y-99773619D02*
X121327333Y-99773619D01*
X120988666Y-100160666D01*
X121133809Y-100160666D01*
X121230571Y-100209047D01*
X121278952Y-100257428D01*
X121327333Y-100354190D01*
X121327333Y-100596095D01*
X121278952Y-100692857D01*
X121230571Y-100741238D01*
X121133809Y-100789619D01*
X120843523Y-100789619D01*
X120746761Y-100741238D01*
X120698380Y-100692857D01*
X114699142Y-97082428D02*
X114360476Y-97082428D01*
X114360476Y-97614619D02*
X114360476Y-96598619D01*
X114844285Y-96598619D01*
X115231333Y-97082428D02*
X115570000Y-97082428D01*
X115715142Y-97614619D02*
X115231333Y-97614619D01*
X115231333Y-96598619D01*
X115715142Y-96598619D01*
X116150571Y-97614619D02*
X116150571Y-96598619D01*
X116489238Y-97324333D01*
X116827904Y-96598619D01*
X116827904Y-97614619D01*
X117263333Y-97324333D02*
X117747142Y-97324333D01*
X117166571Y-97614619D02*
X117505238Y-96598619D01*
X117843904Y-97614619D01*
X118666380Y-97614619D02*
X118182571Y-97614619D01*
X118182571Y-96598619D01*
X119005047Y-97082428D02*
X119343714Y-97082428D01*
X119488857Y-97614619D02*
X119005047Y-97614619D01*
X119005047Y-96598619D01*
X119488857Y-96598619D01*
X120650000Y-97566238D02*
X120795142Y-97614619D01*
X121037047Y-97614619D01*
X121133809Y-97566238D01*
X121182190Y-97517857D01*
X121230571Y-97421095D01*
X121230571Y-97324333D01*
X121182190Y-97227571D01*
X121133809Y-97179190D01*
X121037047Y-97130809D01*
X120843523Y-97082428D01*
X120746761Y-97034047D01*
X120698380Y-96985666D01*
X120650000Y-96888904D01*
X120650000Y-96792142D01*
X120698380Y-96695380D01*
X120746761Y-96647000D01*
X120843523Y-96598619D01*
X121085428Y-96598619D01*
X121230571Y-96647000D01*
X121859523Y-96598619D02*
X122053047Y-96598619D01*
X122149809Y-96647000D01*
X122246571Y-96743761D01*
X122294952Y-96937285D01*
X122294952Y-97275952D01*
X122246571Y-97469476D01*
X122149809Y-97566238D01*
X122053047Y-97614619D01*
X121859523Y-97614619D01*
X121762761Y-97566238D01*
X121666000Y-97469476D01*
X121617619Y-97275952D01*
X121617619Y-96937285D01*
X121666000Y-96743761D01*
X121762761Y-96647000D01*
X121859523Y-96598619D01*
X123310952Y-97517857D02*
X123262571Y-97566238D01*
X123117428Y-97614619D01*
X123020666Y-97614619D01*
X122875523Y-97566238D01*
X122778761Y-97469476D01*
X122730380Y-97372714D01*
X122682000Y-97179190D01*
X122682000Y-97034047D01*
X122730380Y-96840523D01*
X122778761Y-96743761D01*
X122875523Y-96647000D01*
X123020666Y-96598619D01*
X123117428Y-96598619D01*
X123262571Y-96647000D01*
X123310952Y-96695380D01*
X123746380Y-97614619D02*
X123746380Y-96598619D01*
X124326952Y-97614619D02*
X123891523Y-97034047D01*
X124326952Y-96598619D02*
X123746380Y-97179190D01*
X124762380Y-97082428D02*
X125101047Y-97082428D01*
X125246190Y-97614619D02*
X124762380Y-97614619D01*
X124762380Y-96598619D01*
X125246190Y-96598619D01*
X125536476Y-96598619D02*
X126117047Y-96598619D01*
X125826761Y-97614619D02*
X125826761Y-96598619D01*
X126407333Y-97566238D02*
X126552476Y-97614619D01*
X126794380Y-97614619D01*
X126891142Y-97566238D01*
X126939523Y-97517857D01*
X126987904Y-97421095D01*
X126987904Y-97324333D01*
X126939523Y-97227571D01*
X126891142Y-97179190D01*
X126794380Y-97130809D01*
X126600857Y-97082428D01*
X126504095Y-97034047D01*
X126455714Y-96985666D01*
X126407333Y-96888904D01*
X126407333Y-96792142D01*
X126455714Y-96695380D01*
X126504095Y-96647000D01*
X126600857Y-96598619D01*
X126842761Y-96598619D01*
X126987904Y-96647000D01*
G04 #@! TO.C,J4*
X120311333Y-109933619D02*
X120311333Y-110659333D01*
X120262952Y-110804476D01*
X120166190Y-110901238D01*
X120021047Y-110949619D01*
X119924285Y-110949619D01*
X121230571Y-110272285D02*
X121230571Y-110949619D01*
X120988666Y-109885238D02*
X120746761Y-110610952D01*
X121375714Y-110610952D01*
X116852095Y-123014619D02*
X116852095Y-121998619D01*
X117190761Y-122724333D01*
X117529428Y-121998619D01*
X117529428Y-123014619D01*
X117964857Y-122724333D02*
X118448666Y-122724333D01*
X117868095Y-123014619D02*
X118206761Y-121998619D01*
X118545428Y-123014619D01*
X119367904Y-123014619D02*
X118884095Y-123014619D01*
X118884095Y-121998619D01*
X119706571Y-122482428D02*
X120045238Y-122482428D01*
X120190380Y-123014619D02*
X119706571Y-123014619D01*
X119706571Y-121998619D01*
X120190380Y-121998619D01*
X121399904Y-123014619D02*
X121399904Y-121998619D01*
X121786952Y-121998619D01*
X121883714Y-122047000D01*
X121932095Y-122095380D01*
X121980476Y-122192142D01*
X121980476Y-122337285D01*
X121932095Y-122434047D01*
X121883714Y-122482428D01*
X121786952Y-122530809D01*
X121399904Y-122530809D01*
X122415904Y-123014619D02*
X122415904Y-121998619D01*
X122899714Y-123014619D02*
X122899714Y-121998619D01*
X123480285Y-123014619D01*
X123480285Y-121998619D01*
X123915714Y-122966238D02*
X124060857Y-123014619D01*
X124302761Y-123014619D01*
X124399523Y-122966238D01*
X124447904Y-122917857D01*
X124496285Y-122821095D01*
X124496285Y-122724333D01*
X124447904Y-122627571D01*
X124399523Y-122579190D01*
X124302761Y-122530809D01*
X124109238Y-122482428D01*
X124012476Y-122434047D01*
X123964095Y-122385666D01*
X123915714Y-122288904D01*
X123915714Y-122192142D01*
X123964095Y-122095380D01*
X124012476Y-122047000D01*
X124109238Y-121998619D01*
X124351142Y-121998619D01*
X124496285Y-122047000D01*
G04 #@! TO.C,J1*
X152061333Y-102313619D02*
X152061333Y-103039333D01*
X152012952Y-103184476D01*
X151916190Y-103281238D01*
X151771047Y-103329619D01*
X151674285Y-103329619D01*
X153077333Y-103329619D02*
X152496761Y-103329619D01*
X152787047Y-103329619D02*
X152787047Y-102313619D01*
X152690285Y-102458761D01*
X152593523Y-102555523D01*
X152496761Y-102603904D01*
G04 #@! TO.C,J2*
X152061333Y-107393619D02*
X152061333Y-108119333D01*
X152012952Y-108264476D01*
X151916190Y-108361238D01*
X151771047Y-108409619D01*
X151674285Y-108409619D01*
X152496761Y-107490380D02*
X152545142Y-107442000D01*
X152641904Y-107393619D01*
X152883809Y-107393619D01*
X152980571Y-107442000D01*
X153028952Y-107490380D01*
X153077333Y-107587142D01*
X153077333Y-107683904D01*
X153028952Y-107829047D01*
X152448380Y-108409619D01*
X153077333Y-108409619D01*
G04 #@! TO.C,L1*
D11*
X166243000Y-101309714D02*
X165880142Y-101309714D01*
X165880142Y-100547714D01*
X166896142Y-101309714D02*
X166460714Y-101309714D01*
X166678428Y-101309714D02*
X166678428Y-100547714D01*
X166605857Y-100656571D01*
X166533285Y-100729142D01*
X166460714Y-100765428D01*
D10*
X166829619Y-106095523D02*
X166345809Y-106434190D01*
X166829619Y-106676095D02*
X165813619Y-106676095D01*
X165813619Y-106289047D01*
X165862000Y-106192285D01*
X165910380Y-106143904D01*
X166007142Y-106095523D01*
X166152285Y-106095523D01*
X166249047Y-106143904D01*
X166297428Y-106192285D01*
X166345809Y-106289047D01*
X166345809Y-106676095D01*
G04 #@! TO.C,L2*
D11*
X91784714Y-87122000D02*
X91784714Y-87484857D01*
X91022714Y-87484857D01*
X91095285Y-86904285D02*
X91059000Y-86868000D01*
X91022714Y-86795428D01*
X91022714Y-86614000D01*
X91059000Y-86541428D01*
X91095285Y-86505142D01*
X91167857Y-86468857D01*
X91240428Y-86468857D01*
X91349285Y-86505142D01*
X91784714Y-86940571D01*
X91784714Y-86468857D01*
D10*
X92837000Y-87728904D02*
X92788619Y-87825666D01*
X92788619Y-87970809D01*
X92837000Y-88115952D01*
X92933761Y-88212714D01*
X93030523Y-88261095D01*
X93224047Y-88309476D01*
X93369190Y-88309476D01*
X93562714Y-88261095D01*
X93659476Y-88212714D01*
X93756238Y-88115952D01*
X93804619Y-87970809D01*
X93804619Y-87874047D01*
X93756238Y-87728904D01*
X93707857Y-87680523D01*
X93369190Y-87680523D01*
X93369190Y-87874047D01*
G04 #@! TO.C,L3*
X95377000Y-87728904D02*
X95328619Y-87825666D01*
X95328619Y-87970809D01*
X95377000Y-88115952D01*
X95473761Y-88212714D01*
X95570523Y-88261095D01*
X95764047Y-88309476D01*
X95909190Y-88309476D01*
X96102714Y-88261095D01*
X96199476Y-88212714D01*
X96296238Y-88115952D01*
X96344619Y-87970809D01*
X96344619Y-87874047D01*
X96296238Y-87728904D01*
X96247857Y-87680523D01*
X95909190Y-87680523D01*
X95909190Y-87874047D01*
G04 #@! TO.C,L4*
X97917000Y-87728904D02*
X97868619Y-87825666D01*
X97868619Y-87970809D01*
X97917000Y-88115952D01*
X98013761Y-88212714D01*
X98110523Y-88261095D01*
X98304047Y-88309476D01*
X98449190Y-88309476D01*
X98642714Y-88261095D01*
X98739476Y-88212714D01*
X98836238Y-88115952D01*
X98884619Y-87970809D01*
X98884619Y-87874047D01*
X98836238Y-87728904D01*
X98787857Y-87680523D01*
X98449190Y-87680523D01*
X98449190Y-87874047D01*
G04 #@! TO.C,L5*
D11*
X103214714Y-87122000D02*
X103214714Y-87484857D01*
X102452714Y-87484857D01*
X102452714Y-86505142D02*
X102452714Y-86868000D01*
X102815571Y-86904285D01*
X102779285Y-86868000D01*
X102743000Y-86795428D01*
X102743000Y-86614000D01*
X102779285Y-86541428D01*
X102815571Y-86505142D01*
X102888142Y-86468857D01*
X103069571Y-86468857D01*
X103142142Y-86505142D01*
X103178428Y-86541428D01*
X103214714Y-86614000D01*
X103214714Y-86795428D01*
X103178428Y-86868000D01*
X103142142Y-86904285D01*
D10*
X100457000Y-87728904D02*
X100408619Y-87825666D01*
X100408619Y-87970809D01*
X100457000Y-88115952D01*
X100553761Y-88212714D01*
X100650523Y-88261095D01*
X100844047Y-88309476D01*
X100989190Y-88309476D01*
X101182714Y-88261095D01*
X101279476Y-88212714D01*
X101376238Y-88115952D01*
X101424619Y-87970809D01*
X101424619Y-87874047D01*
X101376238Y-87728904D01*
X101327857Y-87680523D01*
X100989190Y-87680523D01*
X100989190Y-87874047D01*
G04 #@! TO.C,L6*
D11*
X91784714Y-123952000D02*
X91784714Y-124314857D01*
X91022714Y-124314857D01*
X91022714Y-123371428D02*
X91022714Y-123516571D01*
X91059000Y-123589142D01*
X91095285Y-123625428D01*
X91204142Y-123698000D01*
X91349285Y-123734285D01*
X91639571Y-123734285D01*
X91712142Y-123698000D01*
X91748428Y-123661714D01*
X91784714Y-123589142D01*
X91784714Y-123444000D01*
X91748428Y-123371428D01*
X91712142Y-123335142D01*
X91639571Y-123298857D01*
X91458142Y-123298857D01*
X91385571Y-123335142D01*
X91349285Y-123371428D01*
X91313000Y-123444000D01*
X91313000Y-123589142D01*
X91349285Y-123661714D01*
X91385571Y-123698000D01*
X91458142Y-123734285D01*
D10*
X92837000Y-124558904D02*
X92788619Y-124655666D01*
X92788619Y-124800809D01*
X92837000Y-124945952D01*
X92933761Y-125042714D01*
X93030523Y-125091095D01*
X93224047Y-125139476D01*
X93369190Y-125139476D01*
X93562714Y-125091095D01*
X93659476Y-125042714D01*
X93756238Y-124945952D01*
X93804619Y-124800809D01*
X93804619Y-124704047D01*
X93756238Y-124558904D01*
X93707857Y-124510523D01*
X93369190Y-124510523D01*
X93369190Y-124704047D01*
G04 #@! TO.C,L7*
X95377000Y-124558904D02*
X95328619Y-124655666D01*
X95328619Y-124800809D01*
X95377000Y-124945952D01*
X95473761Y-125042714D01*
X95570523Y-125091095D01*
X95764047Y-125139476D01*
X95909190Y-125139476D01*
X96102714Y-125091095D01*
X96199476Y-125042714D01*
X96296238Y-124945952D01*
X96344619Y-124800809D01*
X96344619Y-124704047D01*
X96296238Y-124558904D01*
X96247857Y-124510523D01*
X95909190Y-124510523D01*
X95909190Y-124704047D01*
G04 #@! TO.C,L8*
X97917000Y-124558904D02*
X97868619Y-124655666D01*
X97868619Y-124800809D01*
X97917000Y-124945952D01*
X98013761Y-125042714D01*
X98110523Y-125091095D01*
X98304047Y-125139476D01*
X98449190Y-125139476D01*
X98642714Y-125091095D01*
X98739476Y-125042714D01*
X98836238Y-124945952D01*
X98884619Y-124800809D01*
X98884619Y-124704047D01*
X98836238Y-124558904D01*
X98787857Y-124510523D01*
X98449190Y-124510523D01*
X98449190Y-124704047D01*
G04 #@! TO.C,L9*
D11*
X103214714Y-123952000D02*
X103214714Y-124314857D01*
X102452714Y-124314857D01*
X103214714Y-123661714D02*
X103214714Y-123516571D01*
X103178428Y-123444000D01*
X103142142Y-123407714D01*
X103033285Y-123335142D01*
X102888142Y-123298857D01*
X102597857Y-123298857D01*
X102525285Y-123335142D01*
X102489000Y-123371428D01*
X102452714Y-123444000D01*
X102452714Y-123589142D01*
X102489000Y-123661714D01*
X102525285Y-123698000D01*
X102597857Y-123734285D01*
X102779285Y-123734285D01*
X102851857Y-123698000D01*
X102888142Y-123661714D01*
X102924428Y-123589142D01*
X102924428Y-123444000D01*
X102888142Y-123371428D01*
X102851857Y-123335142D01*
X102779285Y-123298857D01*
D10*
X100457000Y-124558904D02*
X100408619Y-124655666D01*
X100408619Y-124800809D01*
X100457000Y-124945952D01*
X100553761Y-125042714D01*
X100650523Y-125091095D01*
X100844047Y-125139476D01*
X100989190Y-125139476D01*
X101182714Y-125091095D01*
X101279476Y-125042714D01*
X101376238Y-124945952D01*
X101424619Y-124800809D01*
X101424619Y-124704047D01*
X101376238Y-124558904D01*
X101327857Y-124510523D01*
X100989190Y-124510523D01*
X100989190Y-124704047D01*
G04 #@! TO.C,L10*
D11*
X143854714Y-87484857D02*
X143854714Y-87847714D01*
X143092714Y-87847714D01*
X143854714Y-86831714D02*
X143854714Y-87267142D01*
X143854714Y-87049428D02*
X143092714Y-87049428D01*
X143201571Y-87122000D01*
X143274142Y-87194571D01*
X143310428Y-87267142D01*
X143092714Y-86360000D02*
X143092714Y-86287428D01*
X143129000Y-86214857D01*
X143165285Y-86178571D01*
X143237857Y-86142285D01*
X143383000Y-86106000D01*
X143564428Y-86106000D01*
X143709571Y-86142285D01*
X143782142Y-86178571D01*
X143818428Y-86214857D01*
X143854714Y-86287428D01*
X143854714Y-86360000D01*
X143818428Y-86432571D01*
X143782142Y-86468857D01*
X143709571Y-86505142D01*
X143564428Y-86541428D01*
X143383000Y-86541428D01*
X143237857Y-86505142D01*
X143165285Y-86468857D01*
X143129000Y-86432571D01*
X143092714Y-86360000D01*
D10*
X141097000Y-87728904D02*
X141048619Y-87825666D01*
X141048619Y-87970809D01*
X141097000Y-88115952D01*
X141193761Y-88212714D01*
X141290523Y-88261095D01*
X141484047Y-88309476D01*
X141629190Y-88309476D01*
X141822714Y-88261095D01*
X141919476Y-88212714D01*
X142016238Y-88115952D01*
X142064619Y-87970809D01*
X142064619Y-87874047D01*
X142016238Y-87728904D01*
X141967857Y-87680523D01*
X141629190Y-87680523D01*
X141629190Y-87874047D01*
G04 #@! TO.C,L11*
D11*
X143854714Y-123679857D02*
X143854714Y-124042714D01*
X143092714Y-124042714D01*
X143854714Y-123026714D02*
X143854714Y-123462142D01*
X143854714Y-123244428D02*
X143092714Y-123244428D01*
X143201571Y-123317000D01*
X143274142Y-123389571D01*
X143310428Y-123462142D01*
X143854714Y-122301000D02*
X143854714Y-122736428D01*
X143854714Y-122518714D02*
X143092714Y-122518714D01*
X143201571Y-122591285D01*
X143274142Y-122663857D01*
X143310428Y-122736428D01*
D10*
X141097000Y-124558904D02*
X141048619Y-124655666D01*
X141048619Y-124800809D01*
X141097000Y-124945952D01*
X141193761Y-125042714D01*
X141290523Y-125091095D01*
X141484047Y-125139476D01*
X141629190Y-125139476D01*
X141822714Y-125091095D01*
X141919476Y-125042714D01*
X142016238Y-124945952D01*
X142064619Y-124800809D01*
X142064619Y-124704047D01*
X142016238Y-124558904D01*
X141967857Y-124510523D01*
X141629190Y-124510523D01*
X141629190Y-124704047D01*
G04 #@! TD*
%LPC*%
D16*
G04 #@! TO.C,P2*
X185496200Y-122605800D03*
X185496200Y-113614200D03*
D17*
X178511200Y-118110000D03*
D18*
X183997600Y-118110000D03*
D19*
X187502800Y-118110000D03*
G04 #@! TD*
D20*
G04 #@! TO.C,P1*
X175160000Y-96910000D03*
X175160000Y-92710000D03*
X175160000Y-88510000D03*
X180660000Y-96910000D03*
X180660000Y-92710000D03*
D21*
X180660000Y-88510000D03*
D22*
X187960000Y-96910000D03*
X187960000Y-88510000D03*
G04 #@! TD*
D23*
G04 #@! TO.C,MDB1*
X133350000Y-74930000D03*
X130810000Y-74930000D03*
X128270000Y-74930000D03*
X125730000Y-74930000D03*
X123190000Y-74930000D03*
X120650000Y-74930000D03*
X118110000Y-74930000D03*
X115570000Y-74930000D03*
X113030000Y-74930000D03*
X133350000Y-135890000D03*
X130810000Y-135890000D03*
X128270000Y-135890000D03*
X125730000Y-135890000D03*
X123190000Y-135890000D03*
X120650000Y-135890000D03*
X118110000Y-135890000D03*
X115570000Y-135890000D03*
X113030000Y-135890000D03*
D24*
X165100000Y-74930000D03*
X165100000Y-135890000D03*
X73660000Y-130810000D03*
X73660000Y-80010000D03*
D23*
X72390000Y-135890000D03*
X74930000Y-135890000D03*
X77470000Y-135890000D03*
X80010000Y-135890000D03*
X82550000Y-135890000D03*
X85090000Y-135890000D03*
X87630000Y-135890000D03*
X90170000Y-135890000D03*
X92710000Y-135890000D03*
X95250000Y-135890000D03*
X97790000Y-135890000D03*
X100330000Y-135890000D03*
X102870000Y-135890000D03*
X105410000Y-135890000D03*
X107950000Y-135890000D03*
X110490000Y-135890000D03*
X110490000Y-74930000D03*
X107950000Y-74930000D03*
X105410000Y-74930000D03*
X102870000Y-74930000D03*
X100330000Y-74930000D03*
X97790000Y-74930000D03*
X95250000Y-74930000D03*
X92710000Y-74930000D03*
X90170000Y-74930000D03*
X87630000Y-74930000D03*
X85090000Y-74930000D03*
X82550000Y-74930000D03*
X80010000Y-74930000D03*
D25*
X72390000Y-74930000D03*
D23*
X77470000Y-74930000D03*
X74930000Y-74930000D03*
G04 #@! TD*
D26*
G04 #@! TO.C,J3*
X108155000Y-92710000D03*
X133142000Y-92710000D03*
D27*
X115110000Y-91290000D03*
X117880000Y-91290000D03*
X120650000Y-91290000D03*
X123420000Y-91290000D03*
D28*
X126190000Y-91290000D03*
D27*
X116495000Y-94130000D03*
X119265000Y-94130000D03*
X122035000Y-94130000D03*
X124805000Y-94130000D03*
G04 #@! TD*
D26*
G04 #@! TO.C,J4*
X108155000Y-118110000D03*
X133142000Y-118110000D03*
D28*
X115110000Y-116690000D03*
D27*
X117880000Y-116690000D03*
X120650000Y-116690000D03*
X123420000Y-116690000D03*
X126190000Y-116690000D03*
X116495000Y-119530000D03*
X119265000Y-119530000D03*
X122035000Y-119530000D03*
X124805000Y-119530000D03*
G04 #@! TD*
D29*
G04 #@! TO.C,J1*
X152400000Y-85710000D03*
D30*
X150632200Y-94477800D03*
X154167800Y-94477800D03*
X154167800Y-90942200D03*
X150632200Y-90942200D03*
X152400000Y-92710000D03*
G04 #@! TD*
D29*
G04 #@! TO.C,J2*
X152400000Y-111110000D03*
D30*
X150632200Y-119877800D03*
X154167800Y-119877800D03*
X154167800Y-116342200D03*
X150632200Y-116342200D03*
X152400000Y-118110000D03*
G04 #@! TD*
D31*
G04 #@! TO.C,L1*
X166370000Y-102870000D03*
X166370000Y-107950000D03*
G04 #@! TD*
G04 #@! TO.C,L2*
X93345000Y-89535000D03*
X93345000Y-84455000D03*
G04 #@! TD*
G04 #@! TO.C,L3*
X95885000Y-84455000D03*
X95885000Y-89535000D03*
G04 #@! TD*
G04 #@! TO.C,L4*
X98425000Y-89535000D03*
X98425000Y-84455000D03*
G04 #@! TD*
G04 #@! TO.C,L5*
X100965000Y-84455000D03*
X100965000Y-89535000D03*
G04 #@! TD*
G04 #@! TO.C,L6*
X93345000Y-126365000D03*
X93345000Y-121285000D03*
G04 #@! TD*
G04 #@! TO.C,L7*
X95885000Y-126365000D03*
X95885000Y-121285000D03*
G04 #@! TD*
G04 #@! TO.C,L8*
X98425000Y-121285000D03*
X98425000Y-126365000D03*
G04 #@! TD*
G04 #@! TO.C,L9*
X100965000Y-121285000D03*
X100965000Y-126365000D03*
G04 #@! TD*
G04 #@! TO.C,L10*
X141605000Y-84455000D03*
X141605000Y-89535000D03*
G04 #@! TD*
G04 #@! TO.C,L11*
X141605000Y-126365000D03*
X141605000Y-121285000D03*
G04 #@! TD*
M02*
