G04 #@! TF.GenerationSoftware,KiCad,Pcbnew,6.0.0-rc1-unknown-d9d0051~66~ubuntu18.04.1*
G04 #@! TF.CreationDate,2018-08-28T13:07:50-04:00*
G04 #@! TF.ProjectId,sleep_rig_controller_5x3,736D6172745F766973696F6E5F636F6E,1.0*
G04 #@! TF.SameCoordinates,Original*
G04 #@! TF.FileFunction,Legend,Bot*
G04 #@! TF.FilePolarity,Positive*
%FSLAX46Y46*%
G04 Gerber Fmt 4.6, Leading zero omitted, Abs format (unit mm)*
G04 Created by KiCad (PCBNEW 6.0.0-rc1-unknown-d9d0051~66~ubuntu18.04.1) date Tue Aug 28 13:07:50 2018*
%MOMM*%
%LPD*%
G01*
G04 APERTURE LIST*
%ADD10C,0.228600*%
%ADD11C,0.127000*%
%ADD12C,0.381000*%
%ADD13C,0.254000*%
%ADD14R,1.270000X2.540000*%
%ADD15O,5.080000X3.556000*%
%ADD16O,4.064000X5.080000*%
%ADD17O,4.572000X3.556000*%
%ADD18C,1.930400*%
%ADD19O,4.000000X3.000000*%
%ADD20R,4.000000X3.000000*%
%ADD21C,4.000000*%
%ADD22O,1.854200X2.540000*%
%ADD23C,3.556000*%
%ADD24R,1.854200X2.540000*%
%ADD25R,1.640000X1.800000*%
%ADD26R,5.160000X4.000000*%
%ADD27R,2.540000X1.270000*%
%ADD28R,6.400000X5.800000*%
%ADD29R,2.200000X0.800000*%
%ADD30O,5.000000X6.000000*%
%ADD31O,1.600000X2.200000*%
%ADD32R,1.600000X2.200000*%
%ADD33C,3.000000*%
%ADD34O,1.500000X2.500000*%
%ADD35R,2.140000X0.740000*%
%ADD36O,1.524000X2.032000*%
G04 APERTURE END LIST*
D10*
X191135000Y-71755000D02*
X69850000Y-71755000D01*
X191135000Y-139065000D02*
X191135000Y-71755000D01*
X69850000Y-139065000D02*
X191135000Y-139065000D01*
X69850000Y-71755000D02*
X69850000Y-139065000D01*
D11*
G04 #@! TO.C,R8*
X135636000Y-112522000D02*
X134112000Y-112522000D01*
X135636000Y-109728000D02*
X135636000Y-112522000D01*
X134112000Y-109728000D02*
X135636000Y-109728000D01*
X131064000Y-109728000D02*
X132588000Y-109728000D01*
X131064000Y-112522000D02*
X131064000Y-109728000D01*
X132588000Y-112522000D02*
X131064000Y-112522000D01*
D12*
G04 #@! TO.C,MDB1*
X71120000Y-76200000D02*
X134620000Y-76200000D01*
X71120000Y-73660000D02*
X134620000Y-73660000D01*
X71120000Y-137160000D02*
X134620000Y-137160000D01*
X71120000Y-134620000D02*
X134620000Y-134620000D01*
X134620000Y-76200000D02*
X134620000Y-73660000D01*
X71120000Y-73660000D02*
X71120000Y-76200000D01*
X134620000Y-137160000D02*
X134620000Y-134620000D01*
X71120000Y-134620000D02*
X71120000Y-137160000D01*
D10*
G04 #@! TO.C,D1*
X78165000Y-81675000D02*
X85665000Y-81675000D01*
X78165000Y-77075000D02*
X78165000Y-81675000D01*
X85665000Y-77075000D02*
X78165000Y-77075000D01*
X85665000Y-81675000D02*
X85665000Y-77075000D01*
D11*
G04 #@! TO.C,C1*
X114046000Y-115062000D02*
X112522000Y-115062000D01*
X114046000Y-112268000D02*
X114046000Y-115062000D01*
X112522000Y-112268000D02*
X114046000Y-112268000D01*
X109474000Y-112268000D02*
X110998000Y-112268000D01*
X109474000Y-115062000D02*
X109474000Y-112268000D01*
X110998000Y-115062000D02*
X109474000Y-115062000D01*
G04 #@! TO.C,C2*
X145796000Y-115062000D02*
X144272000Y-115062000D01*
X145796000Y-112268000D02*
X145796000Y-115062000D01*
X144272000Y-112268000D02*
X145796000Y-112268000D01*
X141224000Y-112268000D02*
X142748000Y-112268000D01*
X141224000Y-115062000D02*
X141224000Y-112268000D01*
X142748000Y-115062000D02*
X141224000Y-115062000D01*
G04 #@! TO.C,C3*
X78867000Y-84074000D02*
X78867000Y-85598000D01*
X76073000Y-84074000D02*
X78867000Y-84074000D01*
X76073000Y-85598000D02*
X76073000Y-84074000D01*
X76073000Y-88646000D02*
X76073000Y-87122000D01*
X78867000Y-88646000D02*
X76073000Y-88646000D01*
X78867000Y-87122000D02*
X78867000Y-88646000D01*
G04 #@! TO.C,C4*
X78867000Y-96774000D02*
X78867000Y-98298000D01*
X76073000Y-96774000D02*
X78867000Y-96774000D01*
X76073000Y-98298000D02*
X76073000Y-96774000D01*
X76073000Y-101346000D02*
X76073000Y-99822000D01*
X78867000Y-101346000D02*
X76073000Y-101346000D01*
X78867000Y-99822000D02*
X78867000Y-101346000D01*
G04 #@! TO.C,C5*
X78867000Y-109474000D02*
X78867000Y-110998000D01*
X76073000Y-109474000D02*
X78867000Y-109474000D01*
X76073000Y-110998000D02*
X76073000Y-109474000D01*
X76073000Y-114046000D02*
X76073000Y-112522000D01*
X78867000Y-114046000D02*
X76073000Y-114046000D01*
X78867000Y-112522000D02*
X78867000Y-114046000D01*
G04 #@! TO.C,C6*
X78867000Y-122174000D02*
X78867000Y-123698000D01*
X76073000Y-122174000D02*
X78867000Y-122174000D01*
X76073000Y-123698000D02*
X76073000Y-122174000D01*
X76073000Y-126746000D02*
X76073000Y-125222000D01*
X78867000Y-126746000D02*
X76073000Y-126746000D01*
X78867000Y-125222000D02*
X78867000Y-126746000D01*
D12*
G04 #@! TO.C,HPS1*
X83468607Y-86360000D02*
G75*
G03X83468607Y-86360000I-223607J0D01*
G01*
X88835000Y-89610000D02*
X88835000Y-83110000D01*
X88835000Y-83110000D02*
X82615000Y-83110000D01*
X82615000Y-83110000D02*
X82615000Y-89610000D01*
X82615000Y-89610000D02*
X88835000Y-89610000D01*
G04 #@! TO.C,HPS2*
X83468607Y-99060000D02*
G75*
G03X83468607Y-99060000I-223607J0D01*
G01*
X88835000Y-102310000D02*
X88835000Y-95810000D01*
X88835000Y-95810000D02*
X82615000Y-95810000D01*
X82615000Y-95810000D02*
X82615000Y-102310000D01*
X82615000Y-102310000D02*
X88835000Y-102310000D01*
G04 #@! TO.C,HPS3*
X83468607Y-111760000D02*
G75*
G03X83468607Y-111760000I-223607J0D01*
G01*
X88835000Y-115010000D02*
X88835000Y-108510000D01*
X88835000Y-108510000D02*
X82615000Y-108510000D01*
X82615000Y-108510000D02*
X82615000Y-115010000D01*
X82615000Y-115010000D02*
X88835000Y-115010000D01*
G04 #@! TO.C,HPS4*
X83468607Y-124460000D02*
G75*
G03X83468607Y-124460000I-223607J0D01*
G01*
X88835000Y-127710000D02*
X88835000Y-121210000D01*
X88835000Y-121210000D02*
X82615000Y-121210000D01*
X82615000Y-121210000D02*
X82615000Y-127710000D01*
X82615000Y-127710000D02*
X88835000Y-127710000D01*
D11*
G04 #@! TO.C,R1*
X70739000Y-84328000D02*
X72263000Y-84328000D01*
X70739000Y-87122000D02*
X70739000Y-84328000D01*
X72263000Y-87122000D02*
X70739000Y-87122000D01*
X75311000Y-87122000D02*
X73787000Y-87122000D01*
X75311000Y-84328000D02*
X75311000Y-87122000D01*
X73787000Y-84328000D02*
X75311000Y-84328000D01*
G04 #@! TO.C,R2*
X70739000Y-97663000D02*
X72263000Y-97663000D01*
X70739000Y-100457000D02*
X70739000Y-97663000D01*
X72263000Y-100457000D02*
X70739000Y-100457000D01*
X75311000Y-100457000D02*
X73787000Y-100457000D01*
X75311000Y-97663000D02*
X75311000Y-100457000D01*
X73787000Y-97663000D02*
X75311000Y-97663000D01*
G04 #@! TO.C,R3*
X70739000Y-110363000D02*
X72263000Y-110363000D01*
X70739000Y-113157000D02*
X70739000Y-110363000D01*
X72263000Y-113157000D02*
X70739000Y-113157000D01*
X75311000Y-113157000D02*
X73787000Y-113157000D01*
X75311000Y-110363000D02*
X75311000Y-113157000D01*
X73787000Y-110363000D02*
X75311000Y-110363000D01*
G04 #@! TO.C,R4*
X70739000Y-123063000D02*
X72263000Y-123063000D01*
X70739000Y-125857000D02*
X70739000Y-123063000D01*
X72263000Y-125857000D02*
X70739000Y-125857000D01*
X75311000Y-125857000D02*
X73787000Y-125857000D01*
X75311000Y-123063000D02*
X75311000Y-125857000D01*
X73787000Y-123063000D02*
X75311000Y-123063000D01*
G04 #@! TO.C,R5*
X135636000Y-101092000D02*
X134112000Y-101092000D01*
X135636000Y-98298000D02*
X135636000Y-101092000D01*
X134112000Y-98298000D02*
X135636000Y-98298000D01*
X131064000Y-98298000D02*
X132588000Y-98298000D01*
X131064000Y-101092000D02*
X131064000Y-98298000D01*
X132588000Y-101092000D02*
X131064000Y-101092000D01*
G04 #@! TO.C,R6*
X135636000Y-104902000D02*
X134112000Y-104902000D01*
X135636000Y-102108000D02*
X135636000Y-104902000D01*
X134112000Y-102108000D02*
X135636000Y-102108000D01*
X131064000Y-102108000D02*
X132588000Y-102108000D01*
X131064000Y-104902000D02*
X131064000Y-102108000D01*
X132588000Y-104902000D02*
X131064000Y-104902000D01*
G04 #@! TO.C,R7*
X135636000Y-108712000D02*
X134112000Y-108712000D01*
X135636000Y-105918000D02*
X135636000Y-108712000D01*
X134112000Y-105918000D02*
X135636000Y-105918000D01*
X131064000Y-105918000D02*
X132588000Y-105918000D01*
X131064000Y-108712000D02*
X131064000Y-105918000D01*
X132588000Y-108712000D02*
X131064000Y-108712000D01*
D12*
G04 #@! TO.C,U1*
X108010000Y-98910000D02*
X115510000Y-98910000D01*
X108010000Y-111910000D02*
X108010000Y-98910000D01*
X115510000Y-111910000D02*
X108010000Y-111910000D01*
X115510000Y-98910000D02*
X115510000Y-111910000D01*
X114935000Y-100330000D02*
G75*
G03X114935000Y-100330000I-635000J0D01*
G01*
G04 #@! TO.C,U2*
X139760000Y-98910000D02*
X147260000Y-98910000D01*
X139760000Y-111910000D02*
X139760000Y-98910000D01*
X147260000Y-111910000D02*
X139760000Y-111910000D01*
X147260000Y-98910000D02*
X147260000Y-111910000D01*
X146685000Y-100330000D02*
G75*
G03X146685000Y-100330000I-635000J0D01*
G01*
G04 #@! TD*
G04 #@! TO.C,R8*
D13*
X136984619Y-110955666D02*
X136500809Y-110617000D01*
X136984619Y-110375095D02*
X135968619Y-110375095D01*
X135968619Y-110762142D01*
X136017000Y-110858904D01*
X136065380Y-110907285D01*
X136162142Y-110955666D01*
X136307285Y-110955666D01*
X136404047Y-110907285D01*
X136452428Y-110858904D01*
X136500809Y-110762142D01*
X136500809Y-110375095D01*
X136404047Y-111536238D02*
X136355666Y-111439476D01*
X136307285Y-111391095D01*
X136210523Y-111342714D01*
X136162142Y-111342714D01*
X136065380Y-111391095D01*
X136017000Y-111439476D01*
X135968619Y-111536238D01*
X135968619Y-111729761D01*
X136017000Y-111826523D01*
X136065380Y-111874904D01*
X136162142Y-111923285D01*
X136210523Y-111923285D01*
X136307285Y-111874904D01*
X136355666Y-111826523D01*
X136404047Y-111729761D01*
X136404047Y-111536238D01*
X136452428Y-111439476D01*
X136500809Y-111391095D01*
X136597571Y-111342714D01*
X136791095Y-111342714D01*
X136887857Y-111391095D01*
X136936238Y-111439476D01*
X136984619Y-111536238D01*
X136984619Y-111729761D01*
X136936238Y-111826523D01*
X136887857Y-111874904D01*
X136791095Y-111923285D01*
X136597571Y-111923285D01*
X136500809Y-111874904D01*
X136452428Y-111826523D01*
X136404047Y-111729761D01*
X129618619Y-109576809D02*
X129618619Y-110205761D01*
X130005666Y-109867095D01*
X130005666Y-110012238D01*
X130054047Y-110109000D01*
X130102428Y-110157380D01*
X130199190Y-110205761D01*
X130441095Y-110205761D01*
X130537857Y-110157380D01*
X130586238Y-110109000D01*
X130634619Y-110012238D01*
X130634619Y-109721952D01*
X130586238Y-109625190D01*
X130537857Y-109576809D01*
X129618619Y-111125000D02*
X129618619Y-110641190D01*
X130102428Y-110592809D01*
X130054047Y-110641190D01*
X130005666Y-110737952D01*
X130005666Y-110979857D01*
X130054047Y-111076619D01*
X130102428Y-111125000D01*
X130199190Y-111173380D01*
X130441095Y-111173380D01*
X130537857Y-111125000D01*
X130586238Y-111076619D01*
X130634619Y-110979857D01*
X130634619Y-110737952D01*
X130586238Y-110641190D01*
X130537857Y-110592809D01*
X130537857Y-111608809D02*
X130586238Y-111657190D01*
X130634619Y-111608809D01*
X130586238Y-111560428D01*
X130537857Y-111608809D01*
X130634619Y-111608809D01*
X129618619Y-111995857D02*
X129618619Y-112673190D01*
X130634619Y-112237761D01*
G04 #@! TO.C,D1*
X77774619Y-78625095D02*
X76758619Y-78625095D01*
X76758619Y-78867000D01*
X76807000Y-79012142D01*
X76903761Y-79108904D01*
X77000523Y-79157285D01*
X77194047Y-79205666D01*
X77339190Y-79205666D01*
X77532714Y-79157285D01*
X77629476Y-79108904D01*
X77726238Y-79012142D01*
X77774619Y-78867000D01*
X77774619Y-78625095D01*
X77774619Y-80173285D02*
X77774619Y-79592714D01*
X77774619Y-79883000D02*
X76758619Y-79883000D01*
X76903761Y-79786238D01*
X77000523Y-79689476D01*
X77048904Y-79592714D01*
G04 #@! TO.C,C1*
X115739333Y-114027857D02*
X115787714Y-114076238D01*
X115932857Y-114124619D01*
X116029619Y-114124619D01*
X116174761Y-114076238D01*
X116271523Y-113979476D01*
X116319904Y-113882714D01*
X116368285Y-113689190D01*
X116368285Y-113544047D01*
X116319904Y-113350523D01*
X116271523Y-113253761D01*
X116174761Y-113157000D01*
X116029619Y-113108619D01*
X115932857Y-113108619D01*
X115787714Y-113157000D01*
X115739333Y-113205380D01*
X114771714Y-114124619D02*
X115352285Y-114124619D01*
X115062000Y-114124619D02*
X115062000Y-113108619D01*
X115158761Y-113253761D01*
X115255523Y-113350523D01*
X115352285Y-113398904D01*
X108984142Y-113108619D02*
X108887380Y-113108619D01*
X108790619Y-113157000D01*
X108742238Y-113205380D01*
X108693857Y-113302142D01*
X108645476Y-113495666D01*
X108645476Y-113737571D01*
X108693857Y-113931095D01*
X108742238Y-114027857D01*
X108790619Y-114076238D01*
X108887380Y-114124619D01*
X108984142Y-114124619D01*
X109080904Y-114076238D01*
X109129285Y-114027857D01*
X109177666Y-113931095D01*
X109226047Y-113737571D01*
X109226047Y-113495666D01*
X109177666Y-113302142D01*
X109129285Y-113205380D01*
X109080904Y-113157000D01*
X108984142Y-113108619D01*
X108210047Y-114027857D02*
X108161666Y-114076238D01*
X108210047Y-114124619D01*
X108258428Y-114076238D01*
X108210047Y-114027857D01*
X108210047Y-114124619D01*
X107194047Y-114124619D02*
X107774619Y-114124619D01*
X107484333Y-114124619D02*
X107484333Y-113108619D01*
X107581095Y-113253761D01*
X107677857Y-113350523D01*
X107774619Y-113398904D01*
X106323190Y-113447285D02*
X106323190Y-114124619D01*
X106758619Y-113447285D02*
X106758619Y-113979476D01*
X106710238Y-114076238D01*
X106613476Y-114124619D01*
X106468333Y-114124619D01*
X106371571Y-114076238D01*
X106323190Y-114027857D01*
X105500714Y-113592428D02*
X105839380Y-113592428D01*
X105839380Y-114124619D02*
X105839380Y-113108619D01*
X105355571Y-113108619D01*
G04 #@! TO.C,C2*
X139869333Y-114027857D02*
X139917714Y-114076238D01*
X140062857Y-114124619D01*
X140159619Y-114124619D01*
X140304761Y-114076238D01*
X140401523Y-113979476D01*
X140449904Y-113882714D01*
X140498285Y-113689190D01*
X140498285Y-113544047D01*
X140449904Y-113350523D01*
X140401523Y-113253761D01*
X140304761Y-113157000D01*
X140159619Y-113108619D01*
X140062857Y-113108619D01*
X139917714Y-113157000D01*
X139869333Y-113205380D01*
X139482285Y-113205380D02*
X139433904Y-113157000D01*
X139337142Y-113108619D01*
X139095238Y-113108619D01*
X138998476Y-113157000D01*
X138950095Y-113205380D01*
X138901714Y-113302142D01*
X138901714Y-113398904D01*
X138950095Y-113544047D01*
X139530666Y-114124619D01*
X138901714Y-114124619D01*
X149624142Y-113108619D02*
X149527380Y-113108619D01*
X149430619Y-113157000D01*
X149382238Y-113205380D01*
X149333857Y-113302142D01*
X149285476Y-113495666D01*
X149285476Y-113737571D01*
X149333857Y-113931095D01*
X149382238Y-114027857D01*
X149430619Y-114076238D01*
X149527380Y-114124619D01*
X149624142Y-114124619D01*
X149720904Y-114076238D01*
X149769285Y-114027857D01*
X149817666Y-113931095D01*
X149866047Y-113737571D01*
X149866047Y-113495666D01*
X149817666Y-113302142D01*
X149769285Y-113205380D01*
X149720904Y-113157000D01*
X149624142Y-113108619D01*
X148850047Y-114027857D02*
X148801666Y-114076238D01*
X148850047Y-114124619D01*
X148898428Y-114076238D01*
X148850047Y-114027857D01*
X148850047Y-114124619D01*
X147834047Y-114124619D02*
X148414619Y-114124619D01*
X148124333Y-114124619D02*
X148124333Y-113108619D01*
X148221095Y-113253761D01*
X148317857Y-113350523D01*
X148414619Y-113398904D01*
X146963190Y-113447285D02*
X146963190Y-114124619D01*
X147398619Y-113447285D02*
X147398619Y-113979476D01*
X147350238Y-114076238D01*
X147253476Y-114124619D01*
X147108333Y-114124619D01*
X147011571Y-114076238D01*
X146963190Y-114027857D01*
X146140714Y-113592428D02*
X146479380Y-113592428D01*
X146479380Y-114124619D02*
X146479380Y-113108619D01*
X145995571Y-113108619D01*
G04 #@! TO.C,C3*
X77639333Y-83547857D02*
X77687714Y-83596238D01*
X77832857Y-83644619D01*
X77929619Y-83644619D01*
X78074761Y-83596238D01*
X78171523Y-83499476D01*
X78219904Y-83402714D01*
X78268285Y-83209190D01*
X78268285Y-83064047D01*
X78219904Y-82870523D01*
X78171523Y-82773761D01*
X78074761Y-82677000D01*
X77929619Y-82628619D01*
X77832857Y-82628619D01*
X77687714Y-82677000D01*
X77639333Y-82725380D01*
X77300666Y-82628619D02*
X76671714Y-82628619D01*
X77010380Y-83015666D01*
X76865238Y-83015666D01*
X76768476Y-83064047D01*
X76720095Y-83112428D01*
X76671714Y-83209190D01*
X76671714Y-83451095D01*
X76720095Y-83547857D01*
X76768476Y-83596238D01*
X76865238Y-83644619D01*
X77155523Y-83644619D01*
X77252285Y-83596238D01*
X77300666Y-83547857D01*
X79139142Y-88978619D02*
X79042380Y-88978619D01*
X78945619Y-89027000D01*
X78897238Y-89075380D01*
X78848857Y-89172142D01*
X78800476Y-89365666D01*
X78800476Y-89607571D01*
X78848857Y-89801095D01*
X78897238Y-89897857D01*
X78945619Y-89946238D01*
X79042380Y-89994619D01*
X79139142Y-89994619D01*
X79235904Y-89946238D01*
X79284285Y-89897857D01*
X79332666Y-89801095D01*
X79381047Y-89607571D01*
X79381047Y-89365666D01*
X79332666Y-89172142D01*
X79284285Y-89075380D01*
X79235904Y-89027000D01*
X79139142Y-88978619D01*
X78365047Y-89897857D02*
X78316666Y-89946238D01*
X78365047Y-89994619D01*
X78413428Y-89946238D01*
X78365047Y-89897857D01*
X78365047Y-89994619D01*
X77349047Y-89994619D02*
X77929619Y-89994619D01*
X77639333Y-89994619D02*
X77639333Y-88978619D01*
X77736095Y-89123761D01*
X77832857Y-89220523D01*
X77929619Y-89268904D01*
X76478190Y-89317285D02*
X76478190Y-89994619D01*
X76913619Y-89317285D02*
X76913619Y-89849476D01*
X76865238Y-89946238D01*
X76768476Y-89994619D01*
X76623333Y-89994619D01*
X76526571Y-89946238D01*
X76478190Y-89897857D01*
X75655714Y-89462428D02*
X75994380Y-89462428D01*
X75994380Y-89994619D02*
X75994380Y-88978619D01*
X75510571Y-88978619D01*
G04 #@! TO.C,C4*
X77639333Y-96247857D02*
X77687714Y-96296238D01*
X77832857Y-96344619D01*
X77929619Y-96344619D01*
X78074761Y-96296238D01*
X78171523Y-96199476D01*
X78219904Y-96102714D01*
X78268285Y-95909190D01*
X78268285Y-95764047D01*
X78219904Y-95570523D01*
X78171523Y-95473761D01*
X78074761Y-95377000D01*
X77929619Y-95328619D01*
X77832857Y-95328619D01*
X77687714Y-95377000D01*
X77639333Y-95425380D01*
X76768476Y-95667285D02*
X76768476Y-96344619D01*
X77010380Y-95280238D02*
X77252285Y-96005952D01*
X76623333Y-96005952D01*
X79139142Y-101678619D02*
X79042380Y-101678619D01*
X78945619Y-101727000D01*
X78897238Y-101775380D01*
X78848857Y-101872142D01*
X78800476Y-102065666D01*
X78800476Y-102307571D01*
X78848857Y-102501095D01*
X78897238Y-102597857D01*
X78945619Y-102646238D01*
X79042380Y-102694619D01*
X79139142Y-102694619D01*
X79235904Y-102646238D01*
X79284285Y-102597857D01*
X79332666Y-102501095D01*
X79381047Y-102307571D01*
X79381047Y-102065666D01*
X79332666Y-101872142D01*
X79284285Y-101775380D01*
X79235904Y-101727000D01*
X79139142Y-101678619D01*
X78365047Y-102597857D02*
X78316666Y-102646238D01*
X78365047Y-102694619D01*
X78413428Y-102646238D01*
X78365047Y-102597857D01*
X78365047Y-102694619D01*
X77349047Y-102694619D02*
X77929619Y-102694619D01*
X77639333Y-102694619D02*
X77639333Y-101678619D01*
X77736095Y-101823761D01*
X77832857Y-101920523D01*
X77929619Y-101968904D01*
X76478190Y-102017285D02*
X76478190Y-102694619D01*
X76913619Y-102017285D02*
X76913619Y-102549476D01*
X76865238Y-102646238D01*
X76768476Y-102694619D01*
X76623333Y-102694619D01*
X76526571Y-102646238D01*
X76478190Y-102597857D01*
X75655714Y-102162428D02*
X75994380Y-102162428D01*
X75994380Y-102694619D02*
X75994380Y-101678619D01*
X75510571Y-101678619D01*
G04 #@! TO.C,C5*
X77639333Y-108947857D02*
X77687714Y-108996238D01*
X77832857Y-109044619D01*
X77929619Y-109044619D01*
X78074761Y-108996238D01*
X78171523Y-108899476D01*
X78219904Y-108802714D01*
X78268285Y-108609190D01*
X78268285Y-108464047D01*
X78219904Y-108270523D01*
X78171523Y-108173761D01*
X78074761Y-108077000D01*
X77929619Y-108028619D01*
X77832857Y-108028619D01*
X77687714Y-108077000D01*
X77639333Y-108125380D01*
X76720095Y-108028619D02*
X77203904Y-108028619D01*
X77252285Y-108512428D01*
X77203904Y-108464047D01*
X77107142Y-108415666D01*
X76865238Y-108415666D01*
X76768476Y-108464047D01*
X76720095Y-108512428D01*
X76671714Y-108609190D01*
X76671714Y-108851095D01*
X76720095Y-108947857D01*
X76768476Y-108996238D01*
X76865238Y-109044619D01*
X77107142Y-109044619D01*
X77203904Y-108996238D01*
X77252285Y-108947857D01*
X79139142Y-114378619D02*
X79042380Y-114378619D01*
X78945619Y-114427000D01*
X78897238Y-114475380D01*
X78848857Y-114572142D01*
X78800476Y-114765666D01*
X78800476Y-115007571D01*
X78848857Y-115201095D01*
X78897238Y-115297857D01*
X78945619Y-115346238D01*
X79042380Y-115394619D01*
X79139142Y-115394619D01*
X79235904Y-115346238D01*
X79284285Y-115297857D01*
X79332666Y-115201095D01*
X79381047Y-115007571D01*
X79381047Y-114765666D01*
X79332666Y-114572142D01*
X79284285Y-114475380D01*
X79235904Y-114427000D01*
X79139142Y-114378619D01*
X78365047Y-115297857D02*
X78316666Y-115346238D01*
X78365047Y-115394619D01*
X78413428Y-115346238D01*
X78365047Y-115297857D01*
X78365047Y-115394619D01*
X77349047Y-115394619D02*
X77929619Y-115394619D01*
X77639333Y-115394619D02*
X77639333Y-114378619D01*
X77736095Y-114523761D01*
X77832857Y-114620523D01*
X77929619Y-114668904D01*
X76478190Y-114717285D02*
X76478190Y-115394619D01*
X76913619Y-114717285D02*
X76913619Y-115249476D01*
X76865238Y-115346238D01*
X76768476Y-115394619D01*
X76623333Y-115394619D01*
X76526571Y-115346238D01*
X76478190Y-115297857D01*
X75655714Y-114862428D02*
X75994380Y-114862428D01*
X75994380Y-115394619D02*
X75994380Y-114378619D01*
X75510571Y-114378619D01*
G04 #@! TO.C,C6*
X77639333Y-121647857D02*
X77687714Y-121696238D01*
X77832857Y-121744619D01*
X77929619Y-121744619D01*
X78074761Y-121696238D01*
X78171523Y-121599476D01*
X78219904Y-121502714D01*
X78268285Y-121309190D01*
X78268285Y-121164047D01*
X78219904Y-120970523D01*
X78171523Y-120873761D01*
X78074761Y-120777000D01*
X77929619Y-120728619D01*
X77832857Y-120728619D01*
X77687714Y-120777000D01*
X77639333Y-120825380D01*
X76768476Y-120728619D02*
X76962000Y-120728619D01*
X77058761Y-120777000D01*
X77107142Y-120825380D01*
X77203904Y-120970523D01*
X77252285Y-121164047D01*
X77252285Y-121551095D01*
X77203904Y-121647857D01*
X77155523Y-121696238D01*
X77058761Y-121744619D01*
X76865238Y-121744619D01*
X76768476Y-121696238D01*
X76720095Y-121647857D01*
X76671714Y-121551095D01*
X76671714Y-121309190D01*
X76720095Y-121212428D01*
X76768476Y-121164047D01*
X76865238Y-121115666D01*
X77058761Y-121115666D01*
X77155523Y-121164047D01*
X77203904Y-121212428D01*
X77252285Y-121309190D01*
X79139142Y-127078619D02*
X79042380Y-127078619D01*
X78945619Y-127127000D01*
X78897238Y-127175380D01*
X78848857Y-127272142D01*
X78800476Y-127465666D01*
X78800476Y-127707571D01*
X78848857Y-127901095D01*
X78897238Y-127997857D01*
X78945619Y-128046238D01*
X79042380Y-128094619D01*
X79139142Y-128094619D01*
X79235904Y-128046238D01*
X79284285Y-127997857D01*
X79332666Y-127901095D01*
X79381047Y-127707571D01*
X79381047Y-127465666D01*
X79332666Y-127272142D01*
X79284285Y-127175380D01*
X79235904Y-127127000D01*
X79139142Y-127078619D01*
X78365047Y-127997857D02*
X78316666Y-128046238D01*
X78365047Y-128094619D01*
X78413428Y-128046238D01*
X78365047Y-127997857D01*
X78365047Y-128094619D01*
X77349047Y-128094619D02*
X77929619Y-128094619D01*
X77639333Y-128094619D02*
X77639333Y-127078619D01*
X77736095Y-127223761D01*
X77832857Y-127320523D01*
X77929619Y-127368904D01*
X76478190Y-127417285D02*
X76478190Y-128094619D01*
X76913619Y-127417285D02*
X76913619Y-127949476D01*
X76865238Y-128046238D01*
X76768476Y-128094619D01*
X76623333Y-128094619D01*
X76526571Y-128046238D01*
X76478190Y-127997857D01*
X75655714Y-127562428D02*
X75994380Y-127562428D01*
X75994380Y-128094619D02*
X75994380Y-127078619D01*
X75510571Y-127078619D01*
G04 #@! TO.C,HPS1*
X87510904Y-91264619D02*
X87510904Y-90248619D01*
X87510904Y-90732428D02*
X86930333Y-90732428D01*
X86930333Y-91264619D02*
X86930333Y-90248619D01*
X86446523Y-91264619D02*
X86446523Y-90248619D01*
X86059476Y-90248619D01*
X85962714Y-90297000D01*
X85914333Y-90345380D01*
X85865952Y-90442142D01*
X85865952Y-90587285D01*
X85914333Y-90684047D01*
X85962714Y-90732428D01*
X86059476Y-90780809D01*
X86446523Y-90780809D01*
X85478904Y-91216238D02*
X85333761Y-91264619D01*
X85091857Y-91264619D01*
X84995095Y-91216238D01*
X84946714Y-91167857D01*
X84898333Y-91071095D01*
X84898333Y-90974333D01*
X84946714Y-90877571D01*
X84995095Y-90829190D01*
X85091857Y-90780809D01*
X85285380Y-90732428D01*
X85382142Y-90684047D01*
X85430523Y-90635666D01*
X85478904Y-90538904D01*
X85478904Y-90442142D01*
X85430523Y-90345380D01*
X85382142Y-90297000D01*
X85285380Y-90248619D01*
X85043476Y-90248619D01*
X84898333Y-90297000D01*
X83930714Y-91264619D02*
X84511285Y-91264619D01*
X84221000Y-91264619D02*
X84221000Y-90248619D01*
X84317761Y-90393761D01*
X84414523Y-90490523D01*
X84511285Y-90538904D01*
G04 #@! TO.C,HPS2*
X87510904Y-103964619D02*
X87510904Y-102948619D01*
X87510904Y-103432428D02*
X86930333Y-103432428D01*
X86930333Y-103964619D02*
X86930333Y-102948619D01*
X86446523Y-103964619D02*
X86446523Y-102948619D01*
X86059476Y-102948619D01*
X85962714Y-102997000D01*
X85914333Y-103045380D01*
X85865952Y-103142142D01*
X85865952Y-103287285D01*
X85914333Y-103384047D01*
X85962714Y-103432428D01*
X86059476Y-103480809D01*
X86446523Y-103480809D01*
X85478904Y-103916238D02*
X85333761Y-103964619D01*
X85091857Y-103964619D01*
X84995095Y-103916238D01*
X84946714Y-103867857D01*
X84898333Y-103771095D01*
X84898333Y-103674333D01*
X84946714Y-103577571D01*
X84995095Y-103529190D01*
X85091857Y-103480809D01*
X85285380Y-103432428D01*
X85382142Y-103384047D01*
X85430523Y-103335666D01*
X85478904Y-103238904D01*
X85478904Y-103142142D01*
X85430523Y-103045380D01*
X85382142Y-102997000D01*
X85285380Y-102948619D01*
X85043476Y-102948619D01*
X84898333Y-102997000D01*
X84511285Y-103045380D02*
X84462904Y-102997000D01*
X84366142Y-102948619D01*
X84124238Y-102948619D01*
X84027476Y-102997000D01*
X83979095Y-103045380D01*
X83930714Y-103142142D01*
X83930714Y-103238904D01*
X83979095Y-103384047D01*
X84559666Y-103964619D01*
X83930714Y-103964619D01*
G04 #@! TO.C,HPS3*
X87510904Y-116664619D02*
X87510904Y-115648619D01*
X87510904Y-116132428D02*
X86930333Y-116132428D01*
X86930333Y-116664619D02*
X86930333Y-115648619D01*
X86446523Y-116664619D02*
X86446523Y-115648619D01*
X86059476Y-115648619D01*
X85962714Y-115697000D01*
X85914333Y-115745380D01*
X85865952Y-115842142D01*
X85865952Y-115987285D01*
X85914333Y-116084047D01*
X85962714Y-116132428D01*
X86059476Y-116180809D01*
X86446523Y-116180809D01*
X85478904Y-116616238D02*
X85333761Y-116664619D01*
X85091857Y-116664619D01*
X84995095Y-116616238D01*
X84946714Y-116567857D01*
X84898333Y-116471095D01*
X84898333Y-116374333D01*
X84946714Y-116277571D01*
X84995095Y-116229190D01*
X85091857Y-116180809D01*
X85285380Y-116132428D01*
X85382142Y-116084047D01*
X85430523Y-116035666D01*
X85478904Y-115938904D01*
X85478904Y-115842142D01*
X85430523Y-115745380D01*
X85382142Y-115697000D01*
X85285380Y-115648619D01*
X85043476Y-115648619D01*
X84898333Y-115697000D01*
X84559666Y-115648619D02*
X83930714Y-115648619D01*
X84269380Y-116035666D01*
X84124238Y-116035666D01*
X84027476Y-116084047D01*
X83979095Y-116132428D01*
X83930714Y-116229190D01*
X83930714Y-116471095D01*
X83979095Y-116567857D01*
X84027476Y-116616238D01*
X84124238Y-116664619D01*
X84414523Y-116664619D01*
X84511285Y-116616238D01*
X84559666Y-116567857D01*
G04 #@! TO.C,HPS4*
X87490904Y-129364619D02*
X87490904Y-128348619D01*
X87490904Y-128832428D02*
X86910333Y-128832428D01*
X86910333Y-129364619D02*
X86910333Y-128348619D01*
X86426523Y-129364619D02*
X86426523Y-128348619D01*
X86039476Y-128348619D01*
X85942714Y-128397000D01*
X85894333Y-128445380D01*
X85845952Y-128542142D01*
X85845952Y-128687285D01*
X85894333Y-128784047D01*
X85942714Y-128832428D01*
X86039476Y-128880809D01*
X86426523Y-128880809D01*
X85458904Y-129316238D02*
X85313761Y-129364619D01*
X85071857Y-129364619D01*
X84975095Y-129316238D01*
X84926714Y-129267857D01*
X84878333Y-129171095D01*
X84878333Y-129074333D01*
X84926714Y-128977571D01*
X84975095Y-128929190D01*
X85071857Y-128880809D01*
X85265380Y-128832428D01*
X85362142Y-128784047D01*
X85410523Y-128735666D01*
X85458904Y-128638904D01*
X85458904Y-128542142D01*
X85410523Y-128445380D01*
X85362142Y-128397000D01*
X85265380Y-128348619D01*
X85023476Y-128348619D01*
X84878333Y-128397000D01*
X84007476Y-128687285D02*
X84007476Y-129364619D01*
X84249380Y-128300238D02*
X84491285Y-129025952D01*
X83862333Y-129025952D01*
G04 #@! TO.C,R1*
X73194333Y-83898619D02*
X73533000Y-83414809D01*
X73774904Y-83898619D02*
X73774904Y-82882619D01*
X73387857Y-82882619D01*
X73291095Y-82931000D01*
X73242714Y-82979380D01*
X73194333Y-83076142D01*
X73194333Y-83221285D01*
X73242714Y-83318047D01*
X73291095Y-83366428D01*
X73387857Y-83414809D01*
X73774904Y-83414809D01*
X72226714Y-83898619D02*
X72807285Y-83898619D01*
X72517000Y-83898619D02*
X72517000Y-82882619D01*
X72613761Y-83027761D01*
X72710523Y-83124523D01*
X72807285Y-83172904D01*
X73920047Y-87454619D02*
X74403857Y-87454619D01*
X74452238Y-87938428D01*
X74403857Y-87890047D01*
X74307095Y-87841666D01*
X74065190Y-87841666D01*
X73968428Y-87890047D01*
X73920047Y-87938428D01*
X73871666Y-88035190D01*
X73871666Y-88277095D01*
X73920047Y-88373857D01*
X73968428Y-88422238D01*
X74065190Y-88470619D01*
X74307095Y-88470619D01*
X74403857Y-88422238D01*
X74452238Y-88373857D01*
X73436238Y-88373857D02*
X73387857Y-88422238D01*
X73436238Y-88470619D01*
X73484619Y-88422238D01*
X73436238Y-88373857D01*
X73436238Y-88470619D01*
X72904047Y-88470619D02*
X72710523Y-88470619D01*
X72613761Y-88422238D01*
X72565380Y-88373857D01*
X72468619Y-88228714D01*
X72420238Y-88035190D01*
X72420238Y-87648142D01*
X72468619Y-87551380D01*
X72517000Y-87503000D01*
X72613761Y-87454619D01*
X72807285Y-87454619D01*
X72904047Y-87503000D01*
X72952428Y-87551380D01*
X73000809Y-87648142D01*
X73000809Y-87890047D01*
X72952428Y-87986809D01*
X72904047Y-88035190D01*
X72807285Y-88083571D01*
X72613761Y-88083571D01*
X72517000Y-88035190D01*
X72468619Y-87986809D01*
X72420238Y-87890047D01*
X71984809Y-88470619D02*
X71984809Y-87454619D01*
X71888047Y-88083571D02*
X71597761Y-88470619D01*
X71597761Y-87793285D02*
X71984809Y-88180333D01*
G04 #@! TO.C,R2*
X73194333Y-97233619D02*
X73533000Y-96749809D01*
X73774904Y-97233619D02*
X73774904Y-96217619D01*
X73387857Y-96217619D01*
X73291095Y-96266000D01*
X73242714Y-96314380D01*
X73194333Y-96411142D01*
X73194333Y-96556285D01*
X73242714Y-96653047D01*
X73291095Y-96701428D01*
X73387857Y-96749809D01*
X73774904Y-96749809D01*
X72807285Y-96314380D02*
X72758904Y-96266000D01*
X72662142Y-96217619D01*
X72420238Y-96217619D01*
X72323476Y-96266000D01*
X72275095Y-96314380D01*
X72226714Y-96411142D01*
X72226714Y-96507904D01*
X72275095Y-96653047D01*
X72855666Y-97233619D01*
X72226714Y-97233619D01*
X73920047Y-100789619D02*
X74403857Y-100789619D01*
X74452238Y-101273428D01*
X74403857Y-101225047D01*
X74307095Y-101176666D01*
X74065190Y-101176666D01*
X73968428Y-101225047D01*
X73920047Y-101273428D01*
X73871666Y-101370190D01*
X73871666Y-101612095D01*
X73920047Y-101708857D01*
X73968428Y-101757238D01*
X74065190Y-101805619D01*
X74307095Y-101805619D01*
X74403857Y-101757238D01*
X74452238Y-101708857D01*
X73436238Y-101708857D02*
X73387857Y-101757238D01*
X73436238Y-101805619D01*
X73484619Y-101757238D01*
X73436238Y-101708857D01*
X73436238Y-101805619D01*
X72904047Y-101805619D02*
X72710523Y-101805619D01*
X72613761Y-101757238D01*
X72565380Y-101708857D01*
X72468619Y-101563714D01*
X72420238Y-101370190D01*
X72420238Y-100983142D01*
X72468619Y-100886380D01*
X72517000Y-100838000D01*
X72613761Y-100789619D01*
X72807285Y-100789619D01*
X72904047Y-100838000D01*
X72952428Y-100886380D01*
X73000809Y-100983142D01*
X73000809Y-101225047D01*
X72952428Y-101321809D01*
X72904047Y-101370190D01*
X72807285Y-101418571D01*
X72613761Y-101418571D01*
X72517000Y-101370190D01*
X72468619Y-101321809D01*
X72420238Y-101225047D01*
X71984809Y-101805619D02*
X71984809Y-100789619D01*
X71888047Y-101418571D02*
X71597761Y-101805619D01*
X71597761Y-101128285D02*
X71984809Y-101515333D01*
G04 #@! TO.C,R3*
X73194333Y-109933619D02*
X73533000Y-109449809D01*
X73774904Y-109933619D02*
X73774904Y-108917619D01*
X73387857Y-108917619D01*
X73291095Y-108966000D01*
X73242714Y-109014380D01*
X73194333Y-109111142D01*
X73194333Y-109256285D01*
X73242714Y-109353047D01*
X73291095Y-109401428D01*
X73387857Y-109449809D01*
X73774904Y-109449809D01*
X72855666Y-108917619D02*
X72226714Y-108917619D01*
X72565380Y-109304666D01*
X72420238Y-109304666D01*
X72323476Y-109353047D01*
X72275095Y-109401428D01*
X72226714Y-109498190D01*
X72226714Y-109740095D01*
X72275095Y-109836857D01*
X72323476Y-109885238D01*
X72420238Y-109933619D01*
X72710523Y-109933619D01*
X72807285Y-109885238D01*
X72855666Y-109836857D01*
X73920047Y-113489619D02*
X74403857Y-113489619D01*
X74452238Y-113973428D01*
X74403857Y-113925047D01*
X74307095Y-113876666D01*
X74065190Y-113876666D01*
X73968428Y-113925047D01*
X73920047Y-113973428D01*
X73871666Y-114070190D01*
X73871666Y-114312095D01*
X73920047Y-114408857D01*
X73968428Y-114457238D01*
X74065190Y-114505619D01*
X74307095Y-114505619D01*
X74403857Y-114457238D01*
X74452238Y-114408857D01*
X73436238Y-114408857D02*
X73387857Y-114457238D01*
X73436238Y-114505619D01*
X73484619Y-114457238D01*
X73436238Y-114408857D01*
X73436238Y-114505619D01*
X72904047Y-114505619D02*
X72710523Y-114505619D01*
X72613761Y-114457238D01*
X72565380Y-114408857D01*
X72468619Y-114263714D01*
X72420238Y-114070190D01*
X72420238Y-113683142D01*
X72468619Y-113586380D01*
X72517000Y-113538000D01*
X72613761Y-113489619D01*
X72807285Y-113489619D01*
X72904047Y-113538000D01*
X72952428Y-113586380D01*
X73000809Y-113683142D01*
X73000809Y-113925047D01*
X72952428Y-114021809D01*
X72904047Y-114070190D01*
X72807285Y-114118571D01*
X72613761Y-114118571D01*
X72517000Y-114070190D01*
X72468619Y-114021809D01*
X72420238Y-113925047D01*
X71984809Y-114505619D02*
X71984809Y-113489619D01*
X71888047Y-114118571D02*
X71597761Y-114505619D01*
X71597761Y-113828285D02*
X71984809Y-114215333D01*
G04 #@! TO.C,R4*
X73194333Y-122633619D02*
X73533000Y-122149809D01*
X73774904Y-122633619D02*
X73774904Y-121617619D01*
X73387857Y-121617619D01*
X73291095Y-121666000D01*
X73242714Y-121714380D01*
X73194333Y-121811142D01*
X73194333Y-121956285D01*
X73242714Y-122053047D01*
X73291095Y-122101428D01*
X73387857Y-122149809D01*
X73774904Y-122149809D01*
X72323476Y-121956285D02*
X72323476Y-122633619D01*
X72565380Y-121569238D02*
X72807285Y-122294952D01*
X72178333Y-122294952D01*
X73920047Y-126189619D02*
X74403857Y-126189619D01*
X74452238Y-126673428D01*
X74403857Y-126625047D01*
X74307095Y-126576666D01*
X74065190Y-126576666D01*
X73968428Y-126625047D01*
X73920047Y-126673428D01*
X73871666Y-126770190D01*
X73871666Y-127012095D01*
X73920047Y-127108857D01*
X73968428Y-127157238D01*
X74065190Y-127205619D01*
X74307095Y-127205619D01*
X74403857Y-127157238D01*
X74452238Y-127108857D01*
X73436238Y-127108857D02*
X73387857Y-127157238D01*
X73436238Y-127205619D01*
X73484619Y-127157238D01*
X73436238Y-127108857D01*
X73436238Y-127205619D01*
X72904047Y-127205619D02*
X72710523Y-127205619D01*
X72613761Y-127157238D01*
X72565380Y-127108857D01*
X72468619Y-126963714D01*
X72420238Y-126770190D01*
X72420238Y-126383142D01*
X72468619Y-126286380D01*
X72517000Y-126238000D01*
X72613761Y-126189619D01*
X72807285Y-126189619D01*
X72904047Y-126238000D01*
X72952428Y-126286380D01*
X73000809Y-126383142D01*
X73000809Y-126625047D01*
X72952428Y-126721809D01*
X72904047Y-126770190D01*
X72807285Y-126818571D01*
X72613761Y-126818571D01*
X72517000Y-126770190D01*
X72468619Y-126721809D01*
X72420238Y-126625047D01*
X71984809Y-127205619D02*
X71984809Y-126189619D01*
X71888047Y-126818571D02*
X71597761Y-127205619D01*
X71597761Y-126528285D02*
X71984809Y-126915333D01*
G04 #@! TO.C,R5*
X136984619Y-99525666D02*
X136500809Y-99187000D01*
X136984619Y-98945095D02*
X135968619Y-98945095D01*
X135968619Y-99332142D01*
X136017000Y-99428904D01*
X136065380Y-99477285D01*
X136162142Y-99525666D01*
X136307285Y-99525666D01*
X136404047Y-99477285D01*
X136452428Y-99428904D01*
X136500809Y-99332142D01*
X136500809Y-98945095D01*
X135968619Y-100444904D02*
X135968619Y-99961095D01*
X136452428Y-99912714D01*
X136404047Y-99961095D01*
X136355666Y-100057857D01*
X136355666Y-100299761D01*
X136404047Y-100396523D01*
X136452428Y-100444904D01*
X136549190Y-100493285D01*
X136791095Y-100493285D01*
X136887857Y-100444904D01*
X136936238Y-100396523D01*
X136984619Y-100299761D01*
X136984619Y-100057857D01*
X136936238Y-99961095D01*
X136887857Y-99912714D01*
X129618619Y-98146809D02*
X129618619Y-98775761D01*
X130005666Y-98437095D01*
X130005666Y-98582238D01*
X130054047Y-98679000D01*
X130102428Y-98727380D01*
X130199190Y-98775761D01*
X130441095Y-98775761D01*
X130537857Y-98727380D01*
X130586238Y-98679000D01*
X130634619Y-98582238D01*
X130634619Y-98291952D01*
X130586238Y-98195190D01*
X130537857Y-98146809D01*
X129618619Y-99695000D02*
X129618619Y-99211190D01*
X130102428Y-99162809D01*
X130054047Y-99211190D01*
X130005666Y-99307952D01*
X130005666Y-99549857D01*
X130054047Y-99646619D01*
X130102428Y-99695000D01*
X130199190Y-99743380D01*
X130441095Y-99743380D01*
X130537857Y-99695000D01*
X130586238Y-99646619D01*
X130634619Y-99549857D01*
X130634619Y-99307952D01*
X130586238Y-99211190D01*
X130537857Y-99162809D01*
X130537857Y-100178809D02*
X130586238Y-100227190D01*
X130634619Y-100178809D01*
X130586238Y-100130428D01*
X130537857Y-100178809D01*
X130634619Y-100178809D01*
X129618619Y-100565857D02*
X129618619Y-101243190D01*
X130634619Y-100807761D01*
G04 #@! TO.C,R6*
X136984619Y-103335666D02*
X136500809Y-102997000D01*
X136984619Y-102755095D02*
X135968619Y-102755095D01*
X135968619Y-103142142D01*
X136017000Y-103238904D01*
X136065380Y-103287285D01*
X136162142Y-103335666D01*
X136307285Y-103335666D01*
X136404047Y-103287285D01*
X136452428Y-103238904D01*
X136500809Y-103142142D01*
X136500809Y-102755095D01*
X135968619Y-104206523D02*
X135968619Y-104013000D01*
X136017000Y-103916238D01*
X136065380Y-103867857D01*
X136210523Y-103771095D01*
X136404047Y-103722714D01*
X136791095Y-103722714D01*
X136887857Y-103771095D01*
X136936238Y-103819476D01*
X136984619Y-103916238D01*
X136984619Y-104109761D01*
X136936238Y-104206523D01*
X136887857Y-104254904D01*
X136791095Y-104303285D01*
X136549190Y-104303285D01*
X136452428Y-104254904D01*
X136404047Y-104206523D01*
X136355666Y-104109761D01*
X136355666Y-103916238D01*
X136404047Y-103819476D01*
X136452428Y-103771095D01*
X136549190Y-103722714D01*
X129618619Y-101956809D02*
X129618619Y-102585761D01*
X130005666Y-102247095D01*
X130005666Y-102392238D01*
X130054047Y-102489000D01*
X130102428Y-102537380D01*
X130199190Y-102585761D01*
X130441095Y-102585761D01*
X130537857Y-102537380D01*
X130586238Y-102489000D01*
X130634619Y-102392238D01*
X130634619Y-102101952D01*
X130586238Y-102005190D01*
X130537857Y-101956809D01*
X129618619Y-103505000D02*
X129618619Y-103021190D01*
X130102428Y-102972809D01*
X130054047Y-103021190D01*
X130005666Y-103117952D01*
X130005666Y-103359857D01*
X130054047Y-103456619D01*
X130102428Y-103505000D01*
X130199190Y-103553380D01*
X130441095Y-103553380D01*
X130537857Y-103505000D01*
X130586238Y-103456619D01*
X130634619Y-103359857D01*
X130634619Y-103117952D01*
X130586238Y-103021190D01*
X130537857Y-102972809D01*
X130537857Y-103988809D02*
X130586238Y-104037190D01*
X130634619Y-103988809D01*
X130586238Y-103940428D01*
X130537857Y-103988809D01*
X130634619Y-103988809D01*
X129618619Y-104375857D02*
X129618619Y-105053190D01*
X130634619Y-104617761D01*
G04 #@! TO.C,R7*
X136984619Y-107145666D02*
X136500809Y-106807000D01*
X136984619Y-106565095D02*
X135968619Y-106565095D01*
X135968619Y-106952142D01*
X136017000Y-107048904D01*
X136065380Y-107097285D01*
X136162142Y-107145666D01*
X136307285Y-107145666D01*
X136404047Y-107097285D01*
X136452428Y-107048904D01*
X136500809Y-106952142D01*
X136500809Y-106565095D01*
X135968619Y-107484333D02*
X135968619Y-108161666D01*
X136984619Y-107726238D01*
X129618619Y-105766809D02*
X129618619Y-106395761D01*
X130005666Y-106057095D01*
X130005666Y-106202238D01*
X130054047Y-106299000D01*
X130102428Y-106347380D01*
X130199190Y-106395761D01*
X130441095Y-106395761D01*
X130537857Y-106347380D01*
X130586238Y-106299000D01*
X130634619Y-106202238D01*
X130634619Y-105911952D01*
X130586238Y-105815190D01*
X130537857Y-105766809D01*
X129618619Y-107315000D02*
X129618619Y-106831190D01*
X130102428Y-106782809D01*
X130054047Y-106831190D01*
X130005666Y-106927952D01*
X130005666Y-107169857D01*
X130054047Y-107266619D01*
X130102428Y-107315000D01*
X130199190Y-107363380D01*
X130441095Y-107363380D01*
X130537857Y-107315000D01*
X130586238Y-107266619D01*
X130634619Y-107169857D01*
X130634619Y-106927952D01*
X130586238Y-106831190D01*
X130537857Y-106782809D01*
X130537857Y-107798809D02*
X130586238Y-107847190D01*
X130634619Y-107798809D01*
X130586238Y-107750428D01*
X130537857Y-107798809D01*
X130634619Y-107798809D01*
X129618619Y-108185857D02*
X129618619Y-108863190D01*
X130634619Y-108427761D01*
G04 #@! TO.C,U1*
X112534095Y-97233619D02*
X112534095Y-98056095D01*
X112485714Y-98152857D01*
X112437333Y-98201238D01*
X112340571Y-98249619D01*
X112147047Y-98249619D01*
X112050285Y-98201238D01*
X112001904Y-98152857D01*
X111953523Y-98056095D01*
X111953523Y-97233619D01*
X110937523Y-98249619D02*
X111518095Y-98249619D01*
X111227809Y-98249619D02*
X111227809Y-97233619D01*
X111324571Y-97378761D01*
X111421333Y-97475523D01*
X111518095Y-97523904D01*
G04 #@! TO.C,U2*
X144284095Y-97233619D02*
X144284095Y-98056095D01*
X144235714Y-98152857D01*
X144187333Y-98201238D01*
X144090571Y-98249619D01*
X143897047Y-98249619D01*
X143800285Y-98201238D01*
X143751904Y-98152857D01*
X143703523Y-98056095D01*
X143703523Y-97233619D01*
X143268095Y-97330380D02*
X143219714Y-97282000D01*
X143122952Y-97233619D01*
X142881047Y-97233619D01*
X142784285Y-97282000D01*
X142735904Y-97330380D01*
X142687523Y-97427142D01*
X142687523Y-97523904D01*
X142735904Y-97669047D01*
X143316476Y-98249619D01*
X142687523Y-98249619D01*
G04 #@! TD*
%LPC*%
D14*
G04 #@! TO.C,R8*
X134874000Y-111125000D03*
X131826000Y-111125000D03*
G04 #@! TD*
D15*
G04 #@! TO.C,P2*
X185496200Y-122605800D03*
X185496200Y-113614200D03*
D16*
X178511200Y-118110000D03*
D17*
X183997600Y-118110000D03*
D18*
X187502800Y-118110000D03*
G04 #@! TD*
D19*
G04 #@! TO.C,P1*
X175160000Y-96910000D03*
X175160000Y-92710000D03*
X175160000Y-88510000D03*
X180660000Y-96910000D03*
X180660000Y-92710000D03*
D20*
X180660000Y-88510000D03*
D21*
X187960000Y-96910000D03*
X187960000Y-88510000D03*
G04 #@! TD*
D22*
G04 #@! TO.C,MDB1*
X133350000Y-74930000D03*
X130810000Y-74930000D03*
X128270000Y-74930000D03*
X125730000Y-74930000D03*
X123190000Y-74930000D03*
X120650000Y-74930000D03*
X118110000Y-74930000D03*
X115570000Y-74930000D03*
X113030000Y-74930000D03*
X133350000Y-135890000D03*
X130810000Y-135890000D03*
X128270000Y-135890000D03*
X125730000Y-135890000D03*
X123190000Y-135890000D03*
X120650000Y-135890000D03*
X118110000Y-135890000D03*
X115570000Y-135890000D03*
X113030000Y-135890000D03*
D23*
X165100000Y-74930000D03*
X165100000Y-135890000D03*
X73660000Y-130810000D03*
X73660000Y-80010000D03*
D22*
X72390000Y-135890000D03*
X74930000Y-135890000D03*
X77470000Y-135890000D03*
X80010000Y-135890000D03*
X82550000Y-135890000D03*
X85090000Y-135890000D03*
X87630000Y-135890000D03*
X90170000Y-135890000D03*
X92710000Y-135890000D03*
X95250000Y-135890000D03*
X97790000Y-135890000D03*
X100330000Y-135890000D03*
X102870000Y-135890000D03*
X105410000Y-135890000D03*
X107950000Y-135890000D03*
X110490000Y-135890000D03*
X110490000Y-74930000D03*
X107950000Y-74930000D03*
X105410000Y-74930000D03*
X102870000Y-74930000D03*
X100330000Y-74930000D03*
X97790000Y-74930000D03*
X95250000Y-74930000D03*
X92710000Y-74930000D03*
X90170000Y-74930000D03*
X87630000Y-74930000D03*
X85090000Y-74930000D03*
X82550000Y-74930000D03*
X80010000Y-74930000D03*
D24*
X72390000Y-74930000D03*
D22*
X77470000Y-74930000D03*
X74930000Y-74930000D03*
G04 #@! TD*
D25*
G04 #@! TO.C,D1*
X84695000Y-78310000D03*
X84695000Y-80440000D03*
D26*
X80895000Y-79375000D03*
G04 #@! TD*
D14*
G04 #@! TO.C,C1*
X113284000Y-113665000D03*
X110236000Y-113665000D03*
G04 #@! TD*
G04 #@! TO.C,C2*
X145034000Y-113665000D03*
X141986000Y-113665000D03*
G04 #@! TD*
D27*
G04 #@! TO.C,C3*
X77470000Y-84836000D03*
X77470000Y-87884000D03*
G04 #@! TD*
G04 #@! TO.C,C4*
X77470000Y-97536000D03*
X77470000Y-100584000D03*
G04 #@! TD*
G04 #@! TO.C,C5*
X77470000Y-110236000D03*
X77470000Y-113284000D03*
G04 #@! TD*
G04 #@! TO.C,C6*
X77470000Y-122936000D03*
X77470000Y-125984000D03*
G04 #@! TD*
D28*
G04 #@! TO.C,HPS1*
X86945000Y-86360000D03*
D29*
X80645000Y-88640000D03*
X80645000Y-87500000D03*
X80645000Y-85220000D03*
X80645000Y-84080000D03*
G04 #@! TD*
D28*
G04 #@! TO.C,HPS2*
X86945000Y-99060000D03*
D29*
X80645000Y-101340000D03*
X80645000Y-100200000D03*
X80645000Y-97920000D03*
X80645000Y-96780000D03*
G04 #@! TD*
D28*
G04 #@! TO.C,HPS3*
X86945000Y-111760000D03*
D29*
X80645000Y-114040000D03*
X80645000Y-112900000D03*
X80645000Y-110620000D03*
X80645000Y-109480000D03*
G04 #@! TD*
D28*
G04 #@! TO.C,HPS4*
X86945000Y-124460000D03*
D29*
X80645000Y-126740000D03*
X80645000Y-125600000D03*
X80645000Y-123320000D03*
X80645000Y-122180000D03*
G04 #@! TD*
D30*
G04 #@! TO.C,J3*
X108155000Y-92710000D03*
X133142000Y-92710000D03*
D31*
X115110000Y-91290000D03*
X117880000Y-91290000D03*
X120650000Y-91290000D03*
X123420000Y-91290000D03*
D32*
X126190000Y-91290000D03*
D31*
X116495000Y-94130000D03*
X119265000Y-94130000D03*
X122035000Y-94130000D03*
X124805000Y-94130000D03*
G04 #@! TD*
D30*
G04 #@! TO.C,J4*
X108155000Y-118110000D03*
X133142000Y-118110000D03*
D32*
X115110000Y-116690000D03*
D31*
X117880000Y-116690000D03*
X120650000Y-116690000D03*
X123420000Y-116690000D03*
X126190000Y-116690000D03*
X116495000Y-119530000D03*
X119265000Y-119530000D03*
X122035000Y-119530000D03*
X124805000Y-119530000D03*
G04 #@! TD*
D33*
G04 #@! TO.C,J1*
X152400000Y-85710000D03*
D34*
X150632200Y-94477800D03*
X154167800Y-94477800D03*
X154167800Y-90942200D03*
X150632200Y-90942200D03*
X152400000Y-92710000D03*
G04 #@! TD*
D33*
G04 #@! TO.C,J2*
X152400000Y-111110000D03*
D34*
X150632200Y-119877800D03*
X154167800Y-119877800D03*
X154167800Y-116342200D03*
X150632200Y-116342200D03*
X152400000Y-118110000D03*
G04 #@! TD*
D14*
G04 #@! TO.C,R1*
X71501000Y-85725000D03*
X74549000Y-85725000D03*
G04 #@! TD*
G04 #@! TO.C,R2*
X71501000Y-99060000D03*
X74549000Y-99060000D03*
G04 #@! TD*
G04 #@! TO.C,R3*
X71501000Y-111760000D03*
X74549000Y-111760000D03*
G04 #@! TD*
G04 #@! TO.C,R4*
X71501000Y-124460000D03*
X74549000Y-124460000D03*
G04 #@! TD*
G04 #@! TO.C,R5*
X134874000Y-99695000D03*
X131826000Y-99695000D03*
G04 #@! TD*
G04 #@! TO.C,R6*
X134874000Y-103505000D03*
X131826000Y-103505000D03*
G04 #@! TD*
G04 #@! TO.C,R7*
X134874000Y-107315000D03*
X131826000Y-107315000D03*
G04 #@! TD*
D35*
G04 #@! TO.C,U1*
X116410000Y-99695000D03*
X116410000Y-100965000D03*
X116410000Y-102235000D03*
X116410000Y-103505000D03*
X116410000Y-104775000D03*
X116410000Y-106045000D03*
X116410000Y-107315000D03*
X116410000Y-108585000D03*
X116410000Y-109855000D03*
X116410000Y-111125000D03*
X107110000Y-111125000D03*
X107110000Y-109855000D03*
X107110000Y-108585000D03*
X107110000Y-107315000D03*
X107110000Y-106045000D03*
X107110000Y-104775000D03*
X107110000Y-103505000D03*
X107110000Y-102235000D03*
X107110000Y-100965000D03*
X107110000Y-99695000D03*
G04 #@! TD*
G04 #@! TO.C,U2*
X148160000Y-99695000D03*
X148160000Y-100965000D03*
X148160000Y-102235000D03*
X148160000Y-103505000D03*
X148160000Y-104775000D03*
X148160000Y-106045000D03*
X148160000Y-107315000D03*
X148160000Y-108585000D03*
X148160000Y-109855000D03*
X148160000Y-111125000D03*
X138860000Y-111125000D03*
X138860000Y-109855000D03*
X138860000Y-108585000D03*
X138860000Y-107315000D03*
X138860000Y-106045000D03*
X138860000Y-104775000D03*
X138860000Y-103505000D03*
X138860000Y-102235000D03*
X138860000Y-100965000D03*
X138860000Y-99695000D03*
G04 #@! TD*
D36*
G04 #@! TO.C,L1*
X166370000Y-102870000D03*
X166370000Y-107950000D03*
G04 #@! TD*
G04 #@! TO.C,L2*
X93345000Y-89535000D03*
X93345000Y-84455000D03*
G04 #@! TD*
G04 #@! TO.C,L3*
X95885000Y-84455000D03*
X95885000Y-89535000D03*
G04 #@! TD*
G04 #@! TO.C,L4*
X98425000Y-89535000D03*
X98425000Y-84455000D03*
G04 #@! TD*
G04 #@! TO.C,L5*
X100965000Y-84455000D03*
X100965000Y-89535000D03*
G04 #@! TD*
G04 #@! TO.C,L6*
X93345000Y-126365000D03*
X93345000Y-121285000D03*
G04 #@! TD*
G04 #@! TO.C,L7*
X95885000Y-126365000D03*
X95885000Y-121285000D03*
G04 #@! TD*
G04 #@! TO.C,L8*
X98425000Y-121285000D03*
X98425000Y-126365000D03*
G04 #@! TD*
G04 #@! TO.C,L9*
X100965000Y-121285000D03*
X100965000Y-126365000D03*
G04 #@! TD*
G04 #@! TO.C,L10*
X141605000Y-84455000D03*
X141605000Y-89535000D03*
G04 #@! TD*
G04 #@! TO.C,L11*
X141605000Y-126365000D03*
X141605000Y-121285000D03*
G04 #@! TD*
M02*
