G04 #@! TF.GenerationSoftware,KiCad,Pcbnew,6.0.0-rc1-unknown-7c11d03~66~ubuntu18.04.1*
G04 #@! TF.CreationDate,2018-08-27T10:42:18-04:00*
G04 #@! TF.ProjectId,smart_vision_controller_5x3,736D6172745F766973696F6E5F636F6E,1.0*
G04 #@! TF.SameCoordinates,Original*
G04 #@! TF.FileFunction,Legend,Top*
G04 #@! TF.FilePolarity,Positive*
%FSLAX46Y46*%
G04 Gerber Fmt 4.6, Leading zero omitted, Abs format (unit mm)*
G04 Created by KiCad (PCBNEW 6.0.0-rc1-unknown-7c11d03~66~ubuntu18.04.1) date Mon Aug 27 10:42:18 2018*
%MOMM*%
%LPD*%
G01*
G04 APERTURE LIST*
%ADD10C,0.317500*%
%ADD11C,0.254000*%
%ADD12C,0.381000*%
%ADD13C,0.228600*%
%ADD14C,0.190500*%
%ADD15C,0.400000*%
%ADD16O,5.080000X3.556000*%
%ADD17O,4.064000X5.080000*%
%ADD18O,4.572000X3.556000*%
%ADD19C,1.930400*%
%ADD20O,4.000000X3.000000*%
%ADD21R,4.000000X3.000000*%
%ADD22C,4.000000*%
%ADD23O,1.854200X2.540000*%
%ADD24C,3.556000*%
%ADD25R,1.854200X2.540000*%
%ADD26O,5.000000X6.000000*%
%ADD27O,1.600000X2.200000*%
%ADD28R,1.600000X2.200000*%
%ADD29C,3.000000*%
%ADD30O,1.500000X2.500000*%
%ADD31O,1.524000X2.032000*%
G04 APERTURE END LIST*
D10*
X105651904Y-105984523D02*
X105047142Y-105984523D01*
X104986666Y-106589285D01*
X105047142Y-106528809D01*
X105168095Y-106468333D01*
X105470476Y-106468333D01*
X105591428Y-106528809D01*
X105651904Y-106589285D01*
X105712380Y-106710238D01*
X105712380Y-107012619D01*
X105651904Y-107133571D01*
X105591428Y-107194047D01*
X105470476Y-107254523D01*
X105168095Y-107254523D01*
X105047142Y-107194047D01*
X104986666Y-107133571D01*
X106075238Y-105984523D02*
X106498571Y-107254523D01*
X106921904Y-105984523D01*
X108554761Y-105984523D02*
X108796666Y-105984523D01*
X108917619Y-106045000D01*
X109038571Y-106165952D01*
X109099047Y-106407857D01*
X109099047Y-106831190D01*
X109038571Y-107073095D01*
X108917619Y-107194047D01*
X108796666Y-107254523D01*
X108554761Y-107254523D01*
X108433809Y-107194047D01*
X108312857Y-107073095D01*
X108252380Y-106831190D01*
X108252380Y-106407857D01*
X108312857Y-106165952D01*
X108433809Y-106045000D01*
X108554761Y-105984523D01*
X110187619Y-106407857D02*
X110187619Y-107254523D01*
X109643333Y-106407857D02*
X109643333Y-107073095D01*
X109703809Y-107194047D01*
X109824761Y-107254523D01*
X110006190Y-107254523D01*
X110127142Y-107194047D01*
X110187619Y-107133571D01*
X110610952Y-106407857D02*
X111094761Y-106407857D01*
X110792380Y-105984523D02*
X110792380Y-107073095D01*
X110852857Y-107194047D01*
X110973809Y-107254523D01*
X111094761Y-107254523D01*
X111518095Y-106407857D02*
X111518095Y-107677857D01*
X111518095Y-106468333D02*
X111639047Y-106407857D01*
X111880952Y-106407857D01*
X112001904Y-106468333D01*
X112062380Y-106528809D01*
X112122857Y-106649761D01*
X112122857Y-107012619D01*
X112062380Y-107133571D01*
X112001904Y-107194047D01*
X111880952Y-107254523D01*
X111639047Y-107254523D01*
X111518095Y-107194047D01*
X113211428Y-106407857D02*
X113211428Y-107254523D01*
X112667142Y-106407857D02*
X112667142Y-107073095D01*
X112727619Y-107194047D01*
X112848571Y-107254523D01*
X113030000Y-107254523D01*
X113150952Y-107194047D01*
X113211428Y-107133571D01*
X113634761Y-106407857D02*
X114118571Y-106407857D01*
X113816190Y-105984523D02*
X113816190Y-107073095D01*
X113876666Y-107194047D01*
X113997619Y-107254523D01*
X114118571Y-107254523D01*
X116235238Y-107133571D02*
X116174761Y-107194047D01*
X115993333Y-107254523D01*
X115872380Y-107254523D01*
X115690952Y-107194047D01*
X115570000Y-107073095D01*
X115509523Y-106952142D01*
X115449047Y-106710238D01*
X115449047Y-106528809D01*
X115509523Y-106286904D01*
X115570000Y-106165952D01*
X115690952Y-106045000D01*
X115872380Y-105984523D01*
X115993333Y-105984523D01*
X116174761Y-106045000D01*
X116235238Y-106105476D01*
X116779523Y-107254523D02*
X116779523Y-105984523D01*
X117323809Y-107254523D02*
X117323809Y-106589285D01*
X117263333Y-106468333D01*
X117142380Y-106407857D01*
X116960952Y-106407857D01*
X116840000Y-106468333D01*
X116779523Y-106528809D01*
X118472857Y-107254523D02*
X118472857Y-106589285D01*
X118412380Y-106468333D01*
X118291428Y-106407857D01*
X118049523Y-106407857D01*
X117928571Y-106468333D01*
X118472857Y-107194047D02*
X118351904Y-107254523D01*
X118049523Y-107254523D01*
X117928571Y-107194047D01*
X117868095Y-107073095D01*
X117868095Y-106952142D01*
X117928571Y-106831190D01*
X118049523Y-106770714D01*
X118351904Y-106770714D01*
X118472857Y-106710238D01*
X119077619Y-106407857D02*
X119077619Y-107254523D01*
X119077619Y-106528809D02*
X119138095Y-106468333D01*
X119259047Y-106407857D01*
X119440476Y-106407857D01*
X119561428Y-106468333D01*
X119621904Y-106589285D01*
X119621904Y-107254523D01*
X120226666Y-106407857D02*
X120226666Y-107254523D01*
X120226666Y-106528809D02*
X120287142Y-106468333D01*
X120408095Y-106407857D01*
X120589523Y-106407857D01*
X120710476Y-106468333D01*
X120770952Y-106589285D01*
X120770952Y-107254523D01*
X121859523Y-107194047D02*
X121738571Y-107254523D01*
X121496666Y-107254523D01*
X121375714Y-107194047D01*
X121315238Y-107073095D01*
X121315238Y-106589285D01*
X121375714Y-106468333D01*
X121496666Y-106407857D01*
X121738571Y-106407857D01*
X121859523Y-106468333D01*
X121920000Y-106589285D01*
X121920000Y-106710238D01*
X121315238Y-106831190D01*
X122645714Y-107254523D02*
X122524761Y-107194047D01*
X122464285Y-107073095D01*
X122464285Y-105984523D01*
X123069047Y-107194047D02*
X123190000Y-107254523D01*
X123431904Y-107254523D01*
X123552857Y-107194047D01*
X123613333Y-107073095D01*
X123613333Y-107012619D01*
X123552857Y-106891666D01*
X123431904Y-106831190D01*
X123250476Y-106831190D01*
X123129523Y-106770714D01*
X123069047Y-106649761D01*
X123069047Y-106589285D01*
X123129523Y-106468333D01*
X123250476Y-106407857D01*
X123431904Y-106407857D01*
X123552857Y-106468333D01*
X104381904Y-103565476D02*
X104442380Y-103505000D01*
X104563333Y-103444523D01*
X104865714Y-103444523D01*
X104986666Y-103505000D01*
X105047142Y-103565476D01*
X105107619Y-103686428D01*
X105107619Y-103807380D01*
X105047142Y-103988809D01*
X104321428Y-104714523D01*
X105107619Y-104714523D01*
X106196190Y-103867857D02*
X106196190Y-104714523D01*
X105893809Y-103384047D02*
X105591428Y-104291190D01*
X106377619Y-104291190D01*
X106680000Y-103444523D02*
X107103333Y-104714523D01*
X107526666Y-103444523D01*
X109159523Y-103444523D02*
X109401428Y-103444523D01*
X109522380Y-103505000D01*
X109643333Y-103625952D01*
X109703809Y-103867857D01*
X109703809Y-104291190D01*
X109643333Y-104533095D01*
X109522380Y-104654047D01*
X109401428Y-104714523D01*
X109159523Y-104714523D01*
X109038571Y-104654047D01*
X108917619Y-104533095D01*
X108857142Y-104291190D01*
X108857142Y-103867857D01*
X108917619Y-103625952D01*
X109038571Y-103505000D01*
X109159523Y-103444523D01*
X110792380Y-103867857D02*
X110792380Y-104714523D01*
X110248095Y-103867857D02*
X110248095Y-104533095D01*
X110308571Y-104654047D01*
X110429523Y-104714523D01*
X110610952Y-104714523D01*
X110731904Y-104654047D01*
X110792380Y-104593571D01*
X111215714Y-103867857D02*
X111699523Y-103867857D01*
X111397142Y-103444523D02*
X111397142Y-104533095D01*
X111457619Y-104654047D01*
X111578571Y-104714523D01*
X111699523Y-104714523D01*
X112122857Y-103867857D02*
X112122857Y-105137857D01*
X112122857Y-103928333D02*
X112243809Y-103867857D01*
X112485714Y-103867857D01*
X112606666Y-103928333D01*
X112667142Y-103988809D01*
X112727619Y-104109761D01*
X112727619Y-104472619D01*
X112667142Y-104593571D01*
X112606666Y-104654047D01*
X112485714Y-104714523D01*
X112243809Y-104714523D01*
X112122857Y-104654047D01*
X113816190Y-103867857D02*
X113816190Y-104714523D01*
X113271904Y-103867857D02*
X113271904Y-104533095D01*
X113332380Y-104654047D01*
X113453333Y-104714523D01*
X113634761Y-104714523D01*
X113755714Y-104654047D01*
X113816190Y-104593571D01*
X114239523Y-103867857D02*
X114723333Y-103867857D01*
X114420952Y-103444523D02*
X114420952Y-104533095D01*
X114481428Y-104654047D01*
X114602380Y-104714523D01*
X114723333Y-104714523D01*
X116840000Y-104593571D02*
X116779523Y-104654047D01*
X116598095Y-104714523D01*
X116477142Y-104714523D01*
X116295714Y-104654047D01*
X116174761Y-104533095D01*
X116114285Y-104412142D01*
X116053809Y-104170238D01*
X116053809Y-103988809D01*
X116114285Y-103746904D01*
X116174761Y-103625952D01*
X116295714Y-103505000D01*
X116477142Y-103444523D01*
X116598095Y-103444523D01*
X116779523Y-103505000D01*
X116840000Y-103565476D01*
X117384285Y-104714523D02*
X117384285Y-103444523D01*
X117928571Y-104714523D02*
X117928571Y-104049285D01*
X117868095Y-103928333D01*
X117747142Y-103867857D01*
X117565714Y-103867857D01*
X117444761Y-103928333D01*
X117384285Y-103988809D01*
X119077619Y-104714523D02*
X119077619Y-104049285D01*
X119017142Y-103928333D01*
X118896190Y-103867857D01*
X118654285Y-103867857D01*
X118533333Y-103928333D01*
X119077619Y-104654047D02*
X118956666Y-104714523D01*
X118654285Y-104714523D01*
X118533333Y-104654047D01*
X118472857Y-104533095D01*
X118472857Y-104412142D01*
X118533333Y-104291190D01*
X118654285Y-104230714D01*
X118956666Y-104230714D01*
X119077619Y-104170238D01*
X119682380Y-103867857D02*
X119682380Y-104714523D01*
X119682380Y-103988809D02*
X119742857Y-103928333D01*
X119863809Y-103867857D01*
X120045238Y-103867857D01*
X120166190Y-103928333D01*
X120226666Y-104049285D01*
X120226666Y-104714523D01*
X120831428Y-103867857D02*
X120831428Y-104714523D01*
X120831428Y-103988809D02*
X120891904Y-103928333D01*
X121012857Y-103867857D01*
X121194285Y-103867857D01*
X121315238Y-103928333D01*
X121375714Y-104049285D01*
X121375714Y-104714523D01*
X122464285Y-104654047D02*
X122343333Y-104714523D01*
X122101428Y-104714523D01*
X121980476Y-104654047D01*
X121920000Y-104533095D01*
X121920000Y-104049285D01*
X121980476Y-103928333D01*
X122101428Y-103867857D01*
X122343333Y-103867857D01*
X122464285Y-103928333D01*
X122524761Y-104049285D01*
X122524761Y-104170238D01*
X121920000Y-104291190D01*
X123250476Y-104714523D02*
X123129523Y-104654047D01*
X123069047Y-104533095D01*
X123069047Y-103444523D01*
X123673809Y-104654047D02*
X123794761Y-104714523D01*
X124036666Y-104714523D01*
X124157619Y-104654047D01*
X124218095Y-104533095D01*
X124218095Y-104472619D01*
X124157619Y-104351666D01*
X124036666Y-104291190D01*
X123855238Y-104291190D01*
X123734285Y-104230714D01*
X123673809Y-104109761D01*
X123673809Y-104049285D01*
X123734285Y-103928333D01*
X123855238Y-103867857D01*
X124036666Y-103867857D01*
X124157619Y-103928333D01*
X101539523Y-112491005D02*
X101539523Y-113216720D01*
X101539523Y-112853863D02*
X100269523Y-112853863D01*
X100450952Y-112974815D01*
X100571904Y-113095767D01*
X100632380Y-113216720D01*
X101539523Y-111281482D02*
X101539523Y-112007196D01*
X101539523Y-111644339D02*
X100269523Y-111644339D01*
X100450952Y-111765291D01*
X100571904Y-111886244D01*
X100632380Y-112007196D01*
X98999523Y-112491005D02*
X98999523Y-113216720D01*
X98999523Y-112853863D02*
X97729523Y-112853863D01*
X97910952Y-112974815D01*
X98031904Y-113095767D01*
X98092380Y-113216720D01*
X97729523Y-111704815D02*
X97729523Y-111583863D01*
X97790000Y-111462910D01*
X97850476Y-111402434D01*
X97971428Y-111341958D01*
X98213333Y-111281482D01*
X98515714Y-111281482D01*
X98757619Y-111341958D01*
X98878571Y-111402434D01*
X98939047Y-111462910D01*
X98999523Y-111583863D01*
X98999523Y-111704815D01*
X98939047Y-111825767D01*
X98878571Y-111886244D01*
X98757619Y-111946720D01*
X98515714Y-112007196D01*
X98213333Y-112007196D01*
X97971428Y-111946720D01*
X97850476Y-111886244D01*
X97790000Y-111825767D01*
X97729523Y-111704815D01*
X96459523Y-113095767D02*
X96459523Y-112853863D01*
X96399047Y-112732910D01*
X96338571Y-112672434D01*
X96157142Y-112551482D01*
X95915238Y-112491005D01*
X95431428Y-112491005D01*
X95310476Y-112551482D01*
X95250000Y-112611958D01*
X95189523Y-112732910D01*
X95189523Y-112974815D01*
X95250000Y-113095767D01*
X95310476Y-113156244D01*
X95431428Y-113216720D01*
X95733809Y-113216720D01*
X95854761Y-113156244D01*
X95915238Y-113095767D01*
X95975714Y-112974815D01*
X95975714Y-112732910D01*
X95915238Y-112611958D01*
X95854761Y-112551482D01*
X95733809Y-112491005D01*
X93193809Y-112974815D02*
X93133333Y-113095767D01*
X93072857Y-113156244D01*
X92951904Y-113216720D01*
X92891428Y-113216720D01*
X92770476Y-113156244D01*
X92710000Y-113095767D01*
X92649523Y-112974815D01*
X92649523Y-112732910D01*
X92710000Y-112611958D01*
X92770476Y-112551482D01*
X92891428Y-112491005D01*
X92951904Y-112491005D01*
X93072857Y-112551482D01*
X93133333Y-112611958D01*
X93193809Y-112732910D01*
X93193809Y-112974815D01*
X93254285Y-113095767D01*
X93314761Y-113156244D01*
X93435714Y-113216720D01*
X93677619Y-113216720D01*
X93798571Y-113156244D01*
X93859047Y-113095767D01*
X93919523Y-112974815D01*
X93919523Y-112732910D01*
X93859047Y-112611958D01*
X93798571Y-112551482D01*
X93677619Y-112491005D01*
X93435714Y-112491005D01*
X93314761Y-112551482D01*
X93254285Y-112611958D01*
X93193809Y-112732910D01*
X100269523Y-98389470D02*
X100269523Y-97603279D01*
X100753333Y-98026613D01*
X100753333Y-97845184D01*
X100813809Y-97724232D01*
X100874285Y-97663755D01*
X100995238Y-97603279D01*
X101297619Y-97603279D01*
X101418571Y-97663755D01*
X101479047Y-97724232D01*
X101539523Y-97845184D01*
X101539523Y-98208041D01*
X101479047Y-98328994D01*
X101418571Y-98389470D01*
X97850476Y-98328994D02*
X97790000Y-98268517D01*
X97729523Y-98147565D01*
X97729523Y-97845184D01*
X97790000Y-97724232D01*
X97850476Y-97663755D01*
X97971428Y-97603279D01*
X98092380Y-97603279D01*
X98273809Y-97663755D01*
X98999523Y-98389470D01*
X98999523Y-97603279D01*
X96459523Y-97603279D02*
X96459523Y-98328994D01*
X96459523Y-97966136D02*
X95189523Y-97966136D01*
X95370952Y-98087089D01*
X95491904Y-98208041D01*
X95552380Y-98328994D01*
X92649523Y-98026613D02*
X92649523Y-97905660D01*
X92710000Y-97784708D01*
X92770476Y-97724232D01*
X92891428Y-97663755D01*
X93133333Y-97603279D01*
X93435714Y-97603279D01*
X93677619Y-97663755D01*
X93798571Y-97724232D01*
X93859047Y-97784708D01*
X93919523Y-97905660D01*
X93919523Y-98026613D01*
X93859047Y-98147565D01*
X93798571Y-98208041D01*
X93677619Y-98268517D01*
X93435714Y-98328994D01*
X93133333Y-98328994D01*
X92891428Y-98268517D01*
X92770476Y-98208041D01*
X92710000Y-98147565D01*
X92649523Y-98026613D01*
X146594285Y-105984523D02*
X147017619Y-107254523D01*
X147440952Y-105984523D01*
X147864285Y-107254523D02*
X147864285Y-106407857D01*
X147864285Y-105984523D02*
X147803809Y-106045000D01*
X147864285Y-106105476D01*
X147924761Y-106045000D01*
X147864285Y-105984523D01*
X147864285Y-106105476D01*
X148408571Y-107194047D02*
X148529523Y-107254523D01*
X148771428Y-107254523D01*
X148892380Y-107194047D01*
X148952857Y-107073095D01*
X148952857Y-107012619D01*
X148892380Y-106891666D01*
X148771428Y-106831190D01*
X148590000Y-106831190D01*
X148469047Y-106770714D01*
X148408571Y-106649761D01*
X148408571Y-106589285D01*
X148469047Y-106468333D01*
X148590000Y-106407857D01*
X148771428Y-106407857D01*
X148892380Y-106468333D01*
X149497142Y-107254523D02*
X149497142Y-106407857D01*
X149497142Y-105984523D02*
X149436666Y-106045000D01*
X149497142Y-106105476D01*
X149557619Y-106045000D01*
X149497142Y-105984523D01*
X149497142Y-106105476D01*
X150101904Y-107254523D02*
X150101904Y-105984523D01*
X150101904Y-106468333D02*
X150222857Y-106407857D01*
X150464761Y-106407857D01*
X150585714Y-106468333D01*
X150646190Y-106528809D01*
X150706666Y-106649761D01*
X150706666Y-107012619D01*
X150646190Y-107133571D01*
X150585714Y-107194047D01*
X150464761Y-107254523D01*
X150222857Y-107254523D01*
X150101904Y-107194047D01*
X151432380Y-107254523D02*
X151311428Y-107194047D01*
X151250952Y-107073095D01*
X151250952Y-105984523D01*
X152400000Y-107194047D02*
X152279047Y-107254523D01*
X152037142Y-107254523D01*
X151916190Y-107194047D01*
X151855714Y-107073095D01*
X151855714Y-106589285D01*
X151916190Y-106468333D01*
X152037142Y-106407857D01*
X152279047Y-106407857D01*
X152400000Y-106468333D01*
X152460476Y-106589285D01*
X152460476Y-106710238D01*
X151855714Y-106831190D01*
X154577142Y-107254523D02*
X153972380Y-107254523D01*
X153972380Y-105984523D01*
X155000476Y-107254523D02*
X155000476Y-106407857D01*
X155000476Y-105984523D02*
X154940000Y-106045000D01*
X155000476Y-106105476D01*
X155060952Y-106045000D01*
X155000476Y-105984523D01*
X155000476Y-106105476D01*
X156149523Y-106407857D02*
X156149523Y-107435952D01*
X156089047Y-107556904D01*
X156028571Y-107617380D01*
X155907619Y-107677857D01*
X155726190Y-107677857D01*
X155605238Y-107617380D01*
X156149523Y-107194047D02*
X156028571Y-107254523D01*
X155786666Y-107254523D01*
X155665714Y-107194047D01*
X155605238Y-107133571D01*
X155544761Y-107012619D01*
X155544761Y-106649761D01*
X155605238Y-106528809D01*
X155665714Y-106468333D01*
X155786666Y-106407857D01*
X156028571Y-106407857D01*
X156149523Y-106468333D01*
X156754285Y-107254523D02*
X156754285Y-105984523D01*
X157298571Y-107254523D02*
X157298571Y-106589285D01*
X157238095Y-106468333D01*
X157117142Y-106407857D01*
X156935714Y-106407857D01*
X156814761Y-106468333D01*
X156754285Y-106528809D01*
X157721904Y-106407857D02*
X158205714Y-106407857D01*
X157903333Y-105984523D02*
X157903333Y-107073095D01*
X157963809Y-107194047D01*
X158084761Y-107254523D01*
X158205714Y-107254523D01*
X148952857Y-104714523D02*
X148952857Y-103444523D01*
X150283333Y-104714523D02*
X149860000Y-104109761D01*
X149557619Y-104714523D02*
X149557619Y-103444523D01*
X150041428Y-103444523D01*
X150162380Y-103505000D01*
X150222857Y-103565476D01*
X150283333Y-103686428D01*
X150283333Y-103867857D01*
X150222857Y-103988809D01*
X150162380Y-104049285D01*
X150041428Y-104109761D01*
X149557619Y-104109761D01*
X152400000Y-104714523D02*
X151795238Y-104714523D01*
X151795238Y-103444523D01*
X152823333Y-104714523D02*
X152823333Y-103867857D01*
X152823333Y-103444523D02*
X152762857Y-103505000D01*
X152823333Y-103565476D01*
X152883809Y-103505000D01*
X152823333Y-103444523D01*
X152823333Y-103565476D01*
X153972380Y-103867857D02*
X153972380Y-104895952D01*
X153911904Y-105016904D01*
X153851428Y-105077380D01*
X153730476Y-105137857D01*
X153549047Y-105137857D01*
X153428095Y-105077380D01*
X153972380Y-104654047D02*
X153851428Y-104714523D01*
X153609523Y-104714523D01*
X153488571Y-104654047D01*
X153428095Y-104593571D01*
X153367619Y-104472619D01*
X153367619Y-104109761D01*
X153428095Y-103988809D01*
X153488571Y-103928333D01*
X153609523Y-103867857D01*
X153851428Y-103867857D01*
X153972380Y-103928333D01*
X154577142Y-104714523D02*
X154577142Y-103444523D01*
X155121428Y-104714523D02*
X155121428Y-104049285D01*
X155060952Y-103928333D01*
X154940000Y-103867857D01*
X154758571Y-103867857D01*
X154637619Y-103928333D01*
X154577142Y-103988809D01*
X155544761Y-103867857D02*
X156028571Y-103867857D01*
X155726190Y-103444523D02*
X155726190Y-104533095D01*
X155786666Y-104654047D01*
X155907619Y-104714523D01*
X156028571Y-104714523D01*
D11*
X168897904Y-132285619D02*
X168897904Y-133108095D01*
X168946285Y-133204857D01*
X168994666Y-133253238D01*
X169091428Y-133301619D01*
X169284952Y-133301619D01*
X169381714Y-133253238D01*
X169430095Y-133204857D01*
X169478476Y-133108095D01*
X169478476Y-132285619D01*
X169913904Y-133253238D02*
X170010666Y-133301619D01*
X170204190Y-133301619D01*
X170300952Y-133253238D01*
X170349333Y-133156476D01*
X170349333Y-133108095D01*
X170300952Y-133011333D01*
X170204190Y-132962952D01*
X170059047Y-132962952D01*
X169962285Y-132914571D01*
X169913904Y-132817809D01*
X169913904Y-132769428D01*
X169962285Y-132672666D01*
X170059047Y-132624285D01*
X170204190Y-132624285D01*
X170300952Y-132672666D01*
X171171809Y-133253238D02*
X171075047Y-133301619D01*
X170881523Y-133301619D01*
X170784761Y-133253238D01*
X170736380Y-133156476D01*
X170736380Y-132769428D01*
X170784761Y-132672666D01*
X170881523Y-132624285D01*
X171075047Y-132624285D01*
X171171809Y-132672666D01*
X171220190Y-132769428D01*
X171220190Y-132866190D01*
X170736380Y-132962952D01*
X172816761Y-133253238D02*
X172720000Y-133301619D01*
X172526476Y-133301619D01*
X172429714Y-133253238D01*
X172381333Y-133156476D01*
X172381333Y-132769428D01*
X172429714Y-132672666D01*
X172526476Y-132624285D01*
X172720000Y-132624285D01*
X172816761Y-132672666D01*
X172865142Y-132769428D01*
X172865142Y-132866190D01*
X172381333Y-132962952D01*
X173300571Y-133301619D02*
X173300571Y-132624285D01*
X173300571Y-132285619D02*
X173252190Y-132334000D01*
X173300571Y-132382380D01*
X173348952Y-132334000D01*
X173300571Y-132285619D01*
X173300571Y-132382380D01*
X173639238Y-132624285D02*
X174026285Y-132624285D01*
X173784380Y-132285619D02*
X173784380Y-133156476D01*
X173832761Y-133253238D01*
X173929523Y-133301619D01*
X174026285Y-133301619D01*
X174364952Y-133301619D02*
X174364952Y-132285619D01*
X174800380Y-133301619D02*
X174800380Y-132769428D01*
X174752000Y-132672666D01*
X174655238Y-132624285D01*
X174510095Y-132624285D01*
X174413333Y-132672666D01*
X174364952Y-132721047D01*
X175671238Y-133253238D02*
X175574476Y-133301619D01*
X175380952Y-133301619D01*
X175284190Y-133253238D01*
X175235809Y-133156476D01*
X175235809Y-132769428D01*
X175284190Y-132672666D01*
X175380952Y-132624285D01*
X175574476Y-132624285D01*
X175671238Y-132672666D01*
X175719619Y-132769428D01*
X175719619Y-132866190D01*
X175235809Y-132962952D01*
X176155047Y-133301619D02*
X176155047Y-132624285D01*
X176155047Y-132817809D02*
X176203428Y-132721047D01*
X176251809Y-132672666D01*
X176348571Y-132624285D01*
X176445333Y-132624285D01*
X177558095Y-133301619D02*
X177558095Y-132285619D01*
X177993523Y-133301619D02*
X177993523Y-132769428D01*
X177945142Y-132672666D01*
X177848380Y-132624285D01*
X177703238Y-132624285D01*
X177606476Y-132672666D01*
X177558095Y-132721047D01*
X178477333Y-133301619D02*
X178477333Y-132624285D01*
X178477333Y-132285619D02*
X178428952Y-132334000D01*
X178477333Y-132382380D01*
X178525714Y-132334000D01*
X178477333Y-132285619D01*
X178477333Y-132382380D01*
X179396571Y-132624285D02*
X179396571Y-133446761D01*
X179348190Y-133543523D01*
X179299809Y-133591904D01*
X179203047Y-133640285D01*
X179057904Y-133640285D01*
X178961142Y-133591904D01*
X179396571Y-133253238D02*
X179299809Y-133301619D01*
X179106285Y-133301619D01*
X179009523Y-133253238D01*
X178961142Y-133204857D01*
X178912761Y-133108095D01*
X178912761Y-132817809D01*
X178961142Y-132721047D01*
X179009523Y-132672666D01*
X179106285Y-132624285D01*
X179299809Y-132624285D01*
X179396571Y-132672666D01*
X179880380Y-133301619D02*
X179880380Y-132285619D01*
X180315809Y-133301619D02*
X180315809Y-132769428D01*
X180267428Y-132672666D01*
X180170666Y-132624285D01*
X180025523Y-132624285D01*
X179928761Y-132672666D01*
X179880380Y-132721047D01*
X181718857Y-133301619D02*
X181622095Y-133253238D01*
X181573714Y-133204857D01*
X181525333Y-133108095D01*
X181525333Y-132817809D01*
X181573714Y-132721047D01*
X181622095Y-132672666D01*
X181718857Y-132624285D01*
X181864000Y-132624285D01*
X181960761Y-132672666D01*
X182009142Y-132721047D01*
X182057523Y-132817809D01*
X182057523Y-133108095D01*
X182009142Y-133204857D01*
X181960761Y-133253238D01*
X181864000Y-133301619D01*
X181718857Y-133301619D01*
X182492952Y-133301619D02*
X182492952Y-132624285D01*
X182492952Y-132817809D02*
X182541333Y-132721047D01*
X182589714Y-132672666D01*
X182686476Y-132624285D01*
X182783238Y-132624285D01*
X184041142Y-133301619D02*
X183944380Y-133253238D01*
X183896000Y-133156476D01*
X183896000Y-132285619D01*
X184573333Y-133301619D02*
X184476571Y-133253238D01*
X184428190Y-133204857D01*
X184379809Y-133108095D01*
X184379809Y-132817809D01*
X184428190Y-132721047D01*
X184476571Y-132672666D01*
X184573333Y-132624285D01*
X184718476Y-132624285D01*
X184815238Y-132672666D01*
X184863619Y-132721047D01*
X184912000Y-132817809D01*
X184912000Y-133108095D01*
X184863619Y-133204857D01*
X184815238Y-133253238D01*
X184718476Y-133301619D01*
X184573333Y-133301619D01*
X185250666Y-132624285D02*
X185444190Y-133301619D01*
X185637714Y-132817809D01*
X185831238Y-133301619D01*
X186024761Y-132624285D01*
X170881523Y-135031238D02*
X170784761Y-135079619D01*
X170591238Y-135079619D01*
X170494476Y-135031238D01*
X170446095Y-134982857D01*
X170397714Y-134886095D01*
X170397714Y-134595809D01*
X170446095Y-134499047D01*
X170494476Y-134450666D01*
X170591238Y-134402285D01*
X170784761Y-134402285D01*
X170881523Y-134450666D01*
X171752380Y-134402285D02*
X171752380Y-135079619D01*
X171316952Y-134402285D02*
X171316952Y-134934476D01*
X171365333Y-135031238D01*
X171462095Y-135079619D01*
X171607238Y-135079619D01*
X171704000Y-135031238D01*
X171752380Y-134982857D01*
X172236190Y-135079619D02*
X172236190Y-134402285D01*
X172236190Y-134595809D02*
X172284571Y-134499047D01*
X172332952Y-134450666D01*
X172429714Y-134402285D01*
X172526476Y-134402285D01*
X172865142Y-135079619D02*
X172865142Y-134402285D01*
X172865142Y-134595809D02*
X172913523Y-134499047D01*
X172961904Y-134450666D01*
X173058666Y-134402285D01*
X173155428Y-134402285D01*
X173881142Y-135031238D02*
X173784380Y-135079619D01*
X173590857Y-135079619D01*
X173494095Y-135031238D01*
X173445714Y-134934476D01*
X173445714Y-134547428D01*
X173494095Y-134450666D01*
X173590857Y-134402285D01*
X173784380Y-134402285D01*
X173881142Y-134450666D01*
X173929523Y-134547428D01*
X173929523Y-134644190D01*
X173445714Y-134740952D01*
X174364952Y-134402285D02*
X174364952Y-135079619D01*
X174364952Y-134499047D02*
X174413333Y-134450666D01*
X174510095Y-134402285D01*
X174655238Y-134402285D01*
X174752000Y-134450666D01*
X174800380Y-134547428D01*
X174800380Y-135079619D01*
X175139047Y-134402285D02*
X175526095Y-134402285D01*
X175284190Y-134063619D02*
X175284190Y-134934476D01*
X175332571Y-135031238D01*
X175429333Y-135079619D01*
X175526095Y-135079619D01*
X176638857Y-134402285D02*
X176638857Y-135418285D01*
X176638857Y-134450666D02*
X176735619Y-134402285D01*
X176929142Y-134402285D01*
X177025904Y-134450666D01*
X177074285Y-134499047D01*
X177122666Y-134595809D01*
X177122666Y-134886095D01*
X177074285Y-134982857D01*
X177025904Y-135031238D01*
X176929142Y-135079619D01*
X176735619Y-135079619D01*
X176638857Y-135031238D01*
X177703238Y-135079619D02*
X177606476Y-135031238D01*
X177558095Y-134982857D01*
X177509714Y-134886095D01*
X177509714Y-134595809D01*
X177558095Y-134499047D01*
X177606476Y-134450666D01*
X177703238Y-134402285D01*
X177848380Y-134402285D01*
X177945142Y-134450666D01*
X177993523Y-134499047D01*
X178041904Y-134595809D01*
X178041904Y-134886095D01*
X177993523Y-134982857D01*
X177945142Y-135031238D01*
X177848380Y-135079619D01*
X177703238Y-135079619D01*
X178380571Y-134402285D02*
X178574095Y-135079619D01*
X178767619Y-134595809D01*
X178961142Y-135079619D01*
X179154666Y-134402285D01*
X179928761Y-135031238D02*
X179832000Y-135079619D01*
X179638476Y-135079619D01*
X179541714Y-135031238D01*
X179493333Y-134934476D01*
X179493333Y-134547428D01*
X179541714Y-134450666D01*
X179638476Y-134402285D01*
X179832000Y-134402285D01*
X179928761Y-134450666D01*
X179977142Y-134547428D01*
X179977142Y-134644190D01*
X179493333Y-134740952D01*
X180412571Y-135079619D02*
X180412571Y-134402285D01*
X180412571Y-134595809D02*
X180460952Y-134499047D01*
X180509333Y-134450666D01*
X180606095Y-134402285D01*
X180702857Y-134402285D01*
X181815619Y-135079619D02*
X181815619Y-134402285D01*
X181815619Y-134063619D02*
X181767238Y-134112000D01*
X181815619Y-134160380D01*
X181864000Y-134112000D01*
X181815619Y-134063619D01*
X181815619Y-134160380D01*
X182299428Y-134402285D02*
X182299428Y-135079619D01*
X182299428Y-134499047D02*
X182347809Y-134450666D01*
X182444571Y-134402285D01*
X182589714Y-134402285D01*
X182686476Y-134450666D01*
X182734857Y-134547428D01*
X182734857Y-135079619D01*
X183218666Y-134402285D02*
X183218666Y-135418285D01*
X183218666Y-134450666D02*
X183315428Y-134402285D01*
X183508952Y-134402285D01*
X183605714Y-134450666D01*
X183654095Y-134499047D01*
X183702476Y-134595809D01*
X183702476Y-134886095D01*
X183654095Y-134982857D01*
X183605714Y-135031238D01*
X183508952Y-135079619D01*
X183315428Y-135079619D01*
X183218666Y-135031238D01*
X184573333Y-134402285D02*
X184573333Y-135079619D01*
X184137904Y-134402285D02*
X184137904Y-134934476D01*
X184186285Y-135031238D01*
X184283047Y-135079619D01*
X184428190Y-135079619D01*
X184524952Y-135031238D01*
X184573333Y-134982857D01*
X184912000Y-134402285D02*
X185299047Y-134402285D01*
X185057142Y-134063619D02*
X185057142Y-134934476D01*
X185105523Y-135031238D01*
X185202285Y-135079619D01*
X185299047Y-135079619D01*
X174534285Y-136180285D02*
X174534285Y-136857619D01*
X174534285Y-136277047D02*
X174582666Y-136228666D01*
X174679428Y-136180285D01*
X174824571Y-136180285D01*
X174921333Y-136228666D01*
X174969714Y-136325428D01*
X174969714Y-136857619D01*
X175598666Y-136857619D02*
X175501904Y-136809238D01*
X175453523Y-136760857D01*
X175405142Y-136664095D01*
X175405142Y-136373809D01*
X175453523Y-136277047D01*
X175501904Y-136228666D01*
X175598666Y-136180285D01*
X175743809Y-136180285D01*
X175840571Y-136228666D01*
X175888952Y-136277047D01*
X175937333Y-136373809D01*
X175937333Y-136664095D01*
X175888952Y-136760857D01*
X175840571Y-136809238D01*
X175743809Y-136857619D01*
X175598666Y-136857619D01*
X176227619Y-136180285D02*
X176614666Y-136180285D01*
X176372761Y-135841619D02*
X176372761Y-136712476D01*
X176421142Y-136809238D01*
X176517904Y-136857619D01*
X176614666Y-136857619D01*
X177727428Y-136857619D02*
X177727428Y-135841619D01*
X177727428Y-136228666D02*
X177824190Y-136180285D01*
X178017714Y-136180285D01*
X178114476Y-136228666D01*
X178162857Y-136277047D01*
X178211238Y-136373809D01*
X178211238Y-136664095D01*
X178162857Y-136760857D01*
X178114476Y-136809238D01*
X178017714Y-136857619D01*
X177824190Y-136857619D01*
X177727428Y-136809238D01*
X178791809Y-136857619D02*
X178695047Y-136809238D01*
X178646666Y-136760857D01*
X178598285Y-136664095D01*
X178598285Y-136373809D01*
X178646666Y-136277047D01*
X178695047Y-136228666D01*
X178791809Y-136180285D01*
X178936952Y-136180285D01*
X179033714Y-136228666D01*
X179082095Y-136277047D01*
X179130476Y-136373809D01*
X179130476Y-136664095D01*
X179082095Y-136760857D01*
X179033714Y-136809238D01*
X178936952Y-136857619D01*
X178791809Y-136857619D01*
X179420761Y-136180285D02*
X179807809Y-136180285D01*
X179565904Y-135841619D02*
X179565904Y-136712476D01*
X179614285Y-136809238D01*
X179711047Y-136857619D01*
X179807809Y-136857619D01*
X180146476Y-136857619D02*
X180146476Y-135841619D01*
X180581904Y-136857619D02*
X180581904Y-136325428D01*
X180533523Y-136228666D01*
X180436761Y-136180285D01*
X180291619Y-136180285D01*
X180194857Y-136228666D01*
X180146476Y-136277047D01*
X181065714Y-136760857D02*
X181114095Y-136809238D01*
X181065714Y-136857619D01*
X181017333Y-136809238D01*
X181065714Y-136760857D01*
X181065714Y-136857619D01*
X181065714Y-136470571D02*
X181017333Y-135890000D01*
X181065714Y-135841619D01*
X181114095Y-135890000D01*
X181065714Y-136470571D01*
X181065714Y-135841619D01*
D10*
X166823571Y-107254523D02*
X166218809Y-107254523D01*
X166218809Y-105984523D01*
X167428333Y-107254523D02*
X167307380Y-107194047D01*
X167246904Y-107133571D01*
X167186428Y-107012619D01*
X167186428Y-106649761D01*
X167246904Y-106528809D01*
X167307380Y-106468333D01*
X167428333Y-106407857D01*
X167609761Y-106407857D01*
X167730714Y-106468333D01*
X167791190Y-106528809D01*
X167851666Y-106649761D01*
X167851666Y-107012619D01*
X167791190Y-107133571D01*
X167730714Y-107194047D01*
X167609761Y-107254523D01*
X167428333Y-107254523D01*
X168275000Y-106407857D02*
X168516904Y-107254523D01*
X168758809Y-106649761D01*
X169000714Y-107254523D01*
X169242619Y-106407857D01*
X171419761Y-107133571D02*
X171359285Y-107194047D01*
X171177857Y-107254523D01*
X171056904Y-107254523D01*
X170875476Y-107194047D01*
X170754523Y-107073095D01*
X170694047Y-106952142D01*
X170633571Y-106710238D01*
X170633571Y-106528809D01*
X170694047Y-106286904D01*
X170754523Y-106165952D01*
X170875476Y-106045000D01*
X171056904Y-105984523D01*
X171177857Y-105984523D01*
X171359285Y-106045000D01*
X171419761Y-106105476D01*
X172508333Y-106407857D02*
X172508333Y-107254523D01*
X171964047Y-106407857D02*
X171964047Y-107073095D01*
X172024523Y-107194047D01*
X172145476Y-107254523D01*
X172326904Y-107254523D01*
X172447857Y-107194047D01*
X172508333Y-107133571D01*
X173113095Y-107254523D02*
X173113095Y-106407857D01*
X173113095Y-106649761D02*
X173173571Y-106528809D01*
X173234047Y-106468333D01*
X173355000Y-106407857D01*
X173475952Y-106407857D01*
X173899285Y-107254523D02*
X173899285Y-106407857D01*
X173899285Y-106649761D02*
X173959761Y-106528809D01*
X174020238Y-106468333D01*
X174141190Y-106407857D01*
X174262142Y-106407857D01*
X175169285Y-107194047D02*
X175048333Y-107254523D01*
X174806428Y-107254523D01*
X174685476Y-107194047D01*
X174625000Y-107073095D01*
X174625000Y-106589285D01*
X174685476Y-106468333D01*
X174806428Y-106407857D01*
X175048333Y-106407857D01*
X175169285Y-106468333D01*
X175229761Y-106589285D01*
X175229761Y-106710238D01*
X174625000Y-106831190D01*
X175774047Y-106407857D02*
X175774047Y-107254523D01*
X175774047Y-106528809D02*
X175834523Y-106468333D01*
X175955476Y-106407857D01*
X176136904Y-106407857D01*
X176257857Y-106468333D01*
X176318333Y-106589285D01*
X176318333Y-107254523D01*
X176741666Y-106407857D02*
X177225476Y-106407857D01*
X176923095Y-105984523D02*
X176923095Y-107073095D01*
X176983571Y-107194047D01*
X177104523Y-107254523D01*
X177225476Y-107254523D01*
X178616428Y-107254523D02*
X178616428Y-105984523D01*
X179100238Y-105984523D01*
X179221190Y-106045000D01*
X179281666Y-106105476D01*
X179342142Y-106226428D01*
X179342142Y-106407857D01*
X179281666Y-106528809D01*
X179221190Y-106589285D01*
X179100238Y-106649761D01*
X178616428Y-106649761D01*
X180067857Y-107254523D02*
X179946904Y-107194047D01*
X179886428Y-107133571D01*
X179825952Y-107012619D01*
X179825952Y-106649761D01*
X179886428Y-106528809D01*
X179946904Y-106468333D01*
X180067857Y-106407857D01*
X180249285Y-106407857D01*
X180370238Y-106468333D01*
X180430714Y-106528809D01*
X180491190Y-106649761D01*
X180491190Y-107012619D01*
X180430714Y-107133571D01*
X180370238Y-107194047D01*
X180249285Y-107254523D01*
X180067857Y-107254523D01*
X180914523Y-106407857D02*
X181156428Y-107254523D01*
X181398333Y-106649761D01*
X181640238Y-107254523D01*
X181882142Y-106407857D01*
X182849761Y-107194047D02*
X182728809Y-107254523D01*
X182486904Y-107254523D01*
X182365952Y-107194047D01*
X182305476Y-107073095D01*
X182305476Y-106589285D01*
X182365952Y-106468333D01*
X182486904Y-106407857D01*
X182728809Y-106407857D01*
X182849761Y-106468333D01*
X182910238Y-106589285D01*
X182910238Y-106710238D01*
X182305476Y-106831190D01*
X183454523Y-107254523D02*
X183454523Y-106407857D01*
X183454523Y-106649761D02*
X183515000Y-106528809D01*
X183575476Y-106468333D01*
X183696428Y-106407857D01*
X183817380Y-106407857D01*
X185208333Y-107254523D02*
X185208333Y-105984523D01*
X185813095Y-106407857D02*
X185813095Y-107254523D01*
X185813095Y-106528809D02*
X185873571Y-106468333D01*
X185994523Y-106407857D01*
X186175952Y-106407857D01*
X186296904Y-106468333D01*
X186357380Y-106589285D01*
X186357380Y-107254523D01*
X186962142Y-106407857D02*
X186962142Y-107677857D01*
X186962142Y-106468333D02*
X187083095Y-106407857D01*
X187325000Y-106407857D01*
X187445952Y-106468333D01*
X187506428Y-106528809D01*
X187566904Y-106649761D01*
X187566904Y-107012619D01*
X187506428Y-107133571D01*
X187445952Y-107194047D01*
X187325000Y-107254523D01*
X187083095Y-107254523D01*
X186962142Y-107194047D01*
X188655476Y-106407857D02*
X188655476Y-107254523D01*
X188111190Y-106407857D02*
X188111190Y-107073095D01*
X188171666Y-107194047D01*
X188292619Y-107254523D01*
X188474047Y-107254523D01*
X188595000Y-107194047D01*
X188655476Y-107133571D01*
X189078809Y-106407857D02*
X189562619Y-106407857D01*
X189260238Y-105984523D02*
X189260238Y-107073095D01*
X189320714Y-107194047D01*
X189441666Y-107254523D01*
X189562619Y-107254523D01*
D11*
X166654238Y-126431523D02*
X166702619Y-126286380D01*
X166702619Y-126044476D01*
X166654238Y-125947714D01*
X166605857Y-125899333D01*
X166509095Y-125850952D01*
X166412333Y-125850952D01*
X166315571Y-125899333D01*
X166267190Y-125947714D01*
X166218809Y-126044476D01*
X166170428Y-126238000D01*
X166122047Y-126334761D01*
X166073666Y-126383142D01*
X165976904Y-126431523D01*
X165880142Y-126431523D01*
X165783380Y-126383142D01*
X165735000Y-126334761D01*
X165686619Y-126238000D01*
X165686619Y-125996095D01*
X165735000Y-125850952D01*
X166702619Y-125415523D02*
X166025285Y-125415523D01*
X166122047Y-125415523D02*
X166073666Y-125367142D01*
X166025285Y-125270380D01*
X166025285Y-125125238D01*
X166073666Y-125028476D01*
X166170428Y-124980095D01*
X166702619Y-124980095D01*
X166170428Y-124980095D02*
X166073666Y-124931714D01*
X166025285Y-124834952D01*
X166025285Y-124689809D01*
X166073666Y-124593047D01*
X166170428Y-124544666D01*
X166702619Y-124544666D01*
X166702619Y-123625428D02*
X166170428Y-123625428D01*
X166073666Y-123673809D01*
X166025285Y-123770571D01*
X166025285Y-123964095D01*
X166073666Y-124060857D01*
X166654238Y-123625428D02*
X166702619Y-123722190D01*
X166702619Y-123964095D01*
X166654238Y-124060857D01*
X166557476Y-124109238D01*
X166460714Y-124109238D01*
X166363952Y-124060857D01*
X166315571Y-123964095D01*
X166315571Y-123722190D01*
X166267190Y-123625428D01*
X166702619Y-122996476D02*
X166654238Y-123093238D01*
X166557476Y-123141619D01*
X165686619Y-123141619D01*
X166702619Y-122464285D02*
X166654238Y-122561047D01*
X166557476Y-122609428D01*
X165686619Y-122609428D01*
X166170428Y-120964476D02*
X166218809Y-120819333D01*
X166267190Y-120770952D01*
X166363952Y-120722571D01*
X166509095Y-120722571D01*
X166605857Y-120770952D01*
X166654238Y-120819333D01*
X166702619Y-120916095D01*
X166702619Y-121303142D01*
X165686619Y-121303142D01*
X165686619Y-120964476D01*
X165735000Y-120867714D01*
X165783380Y-120819333D01*
X165880142Y-120770952D01*
X165976904Y-120770952D01*
X166073666Y-120819333D01*
X166122047Y-120867714D01*
X166170428Y-120964476D01*
X166170428Y-121303142D01*
X166702619Y-119851714D02*
X166170428Y-119851714D01*
X166073666Y-119900095D01*
X166025285Y-119996857D01*
X166025285Y-120190380D01*
X166073666Y-120287142D01*
X166654238Y-119851714D02*
X166702619Y-119948476D01*
X166702619Y-120190380D01*
X166654238Y-120287142D01*
X166557476Y-120335523D01*
X166460714Y-120335523D01*
X166363952Y-120287142D01*
X166315571Y-120190380D01*
X166315571Y-119948476D01*
X166267190Y-119851714D01*
X166654238Y-118932476D02*
X166702619Y-119029238D01*
X166702619Y-119222761D01*
X166654238Y-119319523D01*
X166605857Y-119367904D01*
X166509095Y-119416285D01*
X166218809Y-119416285D01*
X166122047Y-119367904D01*
X166073666Y-119319523D01*
X166025285Y-119222761D01*
X166025285Y-119029238D01*
X166073666Y-118932476D01*
X166702619Y-118497047D02*
X165686619Y-118497047D01*
X166315571Y-118400285D02*
X166702619Y-118110000D01*
X166025285Y-118110000D02*
X166412333Y-118497047D01*
X166702619Y-117529428D02*
X166654238Y-117626190D01*
X166557476Y-117674571D01*
X165686619Y-117674571D01*
X166702619Y-117142380D02*
X166025285Y-117142380D01*
X165686619Y-117142380D02*
X165735000Y-117190761D01*
X165783380Y-117142380D01*
X165735000Y-117094000D01*
X165686619Y-117142380D01*
X165783380Y-117142380D01*
X166025285Y-116223142D02*
X166847761Y-116223142D01*
X166944523Y-116271523D01*
X166992904Y-116319904D01*
X167041285Y-116416666D01*
X167041285Y-116561809D01*
X166992904Y-116658571D01*
X166654238Y-116223142D02*
X166702619Y-116319904D01*
X166702619Y-116513428D01*
X166654238Y-116610190D01*
X166605857Y-116658571D01*
X166509095Y-116706952D01*
X166218809Y-116706952D01*
X166122047Y-116658571D01*
X166073666Y-116610190D01*
X166025285Y-116513428D01*
X166025285Y-116319904D01*
X166073666Y-116223142D01*
X166702619Y-115739333D02*
X165686619Y-115739333D01*
X166702619Y-115303904D02*
X166170428Y-115303904D01*
X166073666Y-115352285D01*
X166025285Y-115449047D01*
X166025285Y-115594190D01*
X166073666Y-115690952D01*
X166122047Y-115739333D01*
X166025285Y-114965238D02*
X166025285Y-114578190D01*
X165686619Y-114820095D02*
X166557476Y-114820095D01*
X166654238Y-114771714D01*
X166702619Y-114674952D01*
X166702619Y-114578190D01*
X166654238Y-114287904D02*
X166702619Y-114191142D01*
X166702619Y-113997619D01*
X166654238Y-113900857D01*
X166557476Y-113852476D01*
X166509095Y-113852476D01*
X166412333Y-113900857D01*
X166363952Y-113997619D01*
X166363952Y-114142761D01*
X166315571Y-114239523D01*
X166218809Y-114287904D01*
X166170428Y-114287904D01*
X166073666Y-114239523D01*
X166025285Y-114142761D01*
X166025285Y-113997619D01*
X166073666Y-113900857D01*
X165686619Y-112449428D02*
X165686619Y-112255904D01*
X165735000Y-112159142D01*
X165831761Y-112062380D01*
X166025285Y-112014000D01*
X166363952Y-112014000D01*
X166557476Y-112062380D01*
X166654238Y-112159142D01*
X166702619Y-112255904D01*
X166702619Y-112449428D01*
X166654238Y-112546190D01*
X166557476Y-112642952D01*
X166363952Y-112691333D01*
X166025285Y-112691333D01*
X165831761Y-112642952D01*
X165735000Y-112546190D01*
X165686619Y-112449428D01*
X166025285Y-111578571D02*
X166702619Y-111578571D01*
X166122047Y-111578571D02*
X166073666Y-111530190D01*
X166025285Y-111433428D01*
X166025285Y-111288285D01*
X166073666Y-111191523D01*
X166170428Y-111143142D01*
X166702619Y-111143142D01*
X166702619Y-110514190D02*
X166654238Y-110610952D01*
X166557476Y-110659333D01*
X165686619Y-110659333D01*
X166025285Y-110223904D02*
X166702619Y-109982000D01*
X166025285Y-109740095D02*
X166702619Y-109982000D01*
X166944523Y-110078761D01*
X166992904Y-110127142D01*
X167041285Y-110223904D01*
X167561380Y-121883714D02*
X167513000Y-121835333D01*
X167464619Y-121738571D01*
X167464619Y-121496666D01*
X167513000Y-121399904D01*
X167561380Y-121351523D01*
X167658142Y-121303142D01*
X167754904Y-121303142D01*
X167900047Y-121351523D01*
X168480619Y-121932095D01*
X168480619Y-121303142D01*
X167803285Y-120432285D02*
X168480619Y-120432285D01*
X167416238Y-120674190D02*
X168141952Y-120916095D01*
X168141952Y-120287142D01*
X167464619Y-120045238D02*
X168480619Y-119706571D01*
X167464619Y-119367904D01*
X167803285Y-118255142D02*
X168093571Y-117481047D01*
X168383857Y-118255142D01*
X167948428Y-116997238D02*
X167948428Y-116223142D01*
X168238714Y-116223142D02*
X168238714Y-116997238D01*
X167464619Y-115255523D02*
X167464619Y-115739333D01*
X167948428Y-115787714D01*
X167900047Y-115739333D01*
X167851666Y-115642571D01*
X167851666Y-115400666D01*
X167900047Y-115303904D01*
X167948428Y-115255523D01*
X168045190Y-115207142D01*
X168287095Y-115207142D01*
X168383857Y-115255523D01*
X168432238Y-115303904D01*
X168480619Y-115400666D01*
X168480619Y-115642571D01*
X168432238Y-115739333D01*
X168383857Y-115787714D01*
X168190333Y-114820095D02*
X168190333Y-114336285D01*
X168480619Y-114916857D02*
X167464619Y-114578190D01*
X168480619Y-114239523D01*
X169339380Y-120746761D02*
X169291000Y-120698380D01*
X169242619Y-120601619D01*
X169242619Y-120359714D01*
X169291000Y-120262952D01*
X169339380Y-120214571D01*
X169436142Y-120166190D01*
X169532904Y-120166190D01*
X169678047Y-120214571D01*
X170258619Y-120795142D01*
X170258619Y-120166190D01*
X170161857Y-119730761D02*
X170210238Y-119682380D01*
X170258619Y-119730761D01*
X170210238Y-119779142D01*
X170161857Y-119730761D01*
X170258619Y-119730761D01*
X169242619Y-118763142D02*
X169242619Y-119246952D01*
X169726428Y-119295333D01*
X169678047Y-119246952D01*
X169629666Y-119150190D01*
X169629666Y-118908285D01*
X169678047Y-118811523D01*
X169726428Y-118763142D01*
X169823190Y-118714761D01*
X170065095Y-118714761D01*
X170161857Y-118763142D01*
X170210238Y-118811523D01*
X170258619Y-118908285D01*
X170258619Y-119150190D01*
X170210238Y-119246952D01*
X170161857Y-119295333D01*
X170258619Y-118376095D02*
X169581285Y-117843904D01*
X169581285Y-118376095D02*
X170258619Y-117843904D01*
X169242619Y-116973047D02*
X169242619Y-117456857D01*
X169726428Y-117505238D01*
X169678047Y-117456857D01*
X169629666Y-117360095D01*
X169629666Y-117118190D01*
X169678047Y-117021428D01*
X169726428Y-116973047D01*
X169823190Y-116924666D01*
X170065095Y-116924666D01*
X170161857Y-116973047D01*
X170210238Y-117021428D01*
X170258619Y-117118190D01*
X170258619Y-117360095D01*
X170210238Y-117456857D01*
X170161857Y-117505238D01*
X170161857Y-116489238D02*
X170210238Y-116440857D01*
X170258619Y-116489238D01*
X170210238Y-116537619D01*
X170161857Y-116489238D01*
X170258619Y-116489238D01*
X169242619Y-115521619D02*
X169242619Y-116005428D01*
X169726428Y-116053809D01*
X169678047Y-116005428D01*
X169629666Y-115908666D01*
X169629666Y-115666761D01*
X169678047Y-115570000D01*
X169726428Y-115521619D01*
X169823190Y-115473238D01*
X170065095Y-115473238D01*
X170161857Y-115521619D01*
X170210238Y-115570000D01*
X170258619Y-115666761D01*
X170258619Y-115908666D01*
X170210238Y-116005428D01*
X170161857Y-116053809D01*
X171939857Y-120746761D02*
X171988238Y-120795142D01*
X172036619Y-120940285D01*
X172036619Y-121037047D01*
X171988238Y-121182190D01*
X171891476Y-121278952D01*
X171794714Y-121327333D01*
X171601190Y-121375714D01*
X171456047Y-121375714D01*
X171262523Y-121327333D01*
X171165761Y-121278952D01*
X171069000Y-121182190D01*
X171020619Y-121037047D01*
X171020619Y-120940285D01*
X171069000Y-120795142D01*
X171117380Y-120746761D01*
X171988238Y-119924285D02*
X172036619Y-120021047D01*
X172036619Y-120214571D01*
X171988238Y-120311333D01*
X171891476Y-120359714D01*
X171504428Y-120359714D01*
X171407666Y-120311333D01*
X171359285Y-120214571D01*
X171359285Y-120021047D01*
X171407666Y-119924285D01*
X171504428Y-119875904D01*
X171601190Y-119875904D01*
X171697952Y-120359714D01*
X171359285Y-119440476D02*
X172036619Y-119440476D01*
X171456047Y-119440476D02*
X171407666Y-119392095D01*
X171359285Y-119295333D01*
X171359285Y-119150190D01*
X171407666Y-119053428D01*
X171504428Y-119005047D01*
X172036619Y-119005047D01*
X171359285Y-118666380D02*
X171359285Y-118279333D01*
X171020619Y-118521238D02*
X171891476Y-118521238D01*
X171988238Y-118472857D01*
X172036619Y-118376095D01*
X172036619Y-118279333D01*
X171988238Y-117553619D02*
X172036619Y-117650380D01*
X172036619Y-117843904D01*
X171988238Y-117940666D01*
X171891476Y-117989047D01*
X171504428Y-117989047D01*
X171407666Y-117940666D01*
X171359285Y-117843904D01*
X171359285Y-117650380D01*
X171407666Y-117553619D01*
X171504428Y-117505238D01*
X171601190Y-117505238D01*
X171697952Y-117989047D01*
X172036619Y-117069809D02*
X171359285Y-117069809D01*
X171552809Y-117069809D02*
X171456047Y-117021428D01*
X171407666Y-116973047D01*
X171359285Y-116876285D01*
X171359285Y-116779523D01*
X171649571Y-115666761D02*
X171649571Y-114892666D01*
X172036619Y-115279714D02*
X171262523Y-115279714D01*
D10*
X165855952Y-104714523D02*
X165855952Y-103444523D01*
X165855952Y-104049285D02*
X166581666Y-104049285D01*
X166581666Y-104714523D02*
X166581666Y-103444523D01*
X167186428Y-104714523D02*
X167186428Y-103867857D01*
X167186428Y-103444523D02*
X167125952Y-103505000D01*
X167186428Y-103565476D01*
X167246904Y-103505000D01*
X167186428Y-103444523D01*
X167186428Y-103565476D01*
X168335476Y-103867857D02*
X168335476Y-104895952D01*
X168275000Y-105016904D01*
X168214523Y-105077380D01*
X168093571Y-105137857D01*
X167912142Y-105137857D01*
X167791190Y-105077380D01*
X168335476Y-104654047D02*
X168214523Y-104714523D01*
X167972619Y-104714523D01*
X167851666Y-104654047D01*
X167791190Y-104593571D01*
X167730714Y-104472619D01*
X167730714Y-104109761D01*
X167791190Y-103988809D01*
X167851666Y-103928333D01*
X167972619Y-103867857D01*
X168214523Y-103867857D01*
X168335476Y-103928333D01*
X168940238Y-104714523D02*
X168940238Y-103444523D01*
X169484523Y-104714523D02*
X169484523Y-104049285D01*
X169424047Y-103928333D01*
X169303095Y-103867857D01*
X169121666Y-103867857D01*
X169000714Y-103928333D01*
X168940238Y-103988809D01*
X171782619Y-104593571D02*
X171722142Y-104654047D01*
X171540714Y-104714523D01*
X171419761Y-104714523D01*
X171238333Y-104654047D01*
X171117380Y-104533095D01*
X171056904Y-104412142D01*
X170996428Y-104170238D01*
X170996428Y-103988809D01*
X171056904Y-103746904D01*
X171117380Y-103625952D01*
X171238333Y-103505000D01*
X171419761Y-103444523D01*
X171540714Y-103444523D01*
X171722142Y-103505000D01*
X171782619Y-103565476D01*
X172871190Y-103867857D02*
X172871190Y-104714523D01*
X172326904Y-103867857D02*
X172326904Y-104533095D01*
X172387380Y-104654047D01*
X172508333Y-104714523D01*
X172689761Y-104714523D01*
X172810714Y-104654047D01*
X172871190Y-104593571D01*
X173475952Y-104714523D02*
X173475952Y-103867857D01*
X173475952Y-104109761D02*
X173536428Y-103988809D01*
X173596904Y-103928333D01*
X173717857Y-103867857D01*
X173838809Y-103867857D01*
X174262142Y-104714523D02*
X174262142Y-103867857D01*
X174262142Y-104109761D02*
X174322619Y-103988809D01*
X174383095Y-103928333D01*
X174504047Y-103867857D01*
X174625000Y-103867857D01*
X175532142Y-104654047D02*
X175411190Y-104714523D01*
X175169285Y-104714523D01*
X175048333Y-104654047D01*
X174987857Y-104533095D01*
X174987857Y-104049285D01*
X175048333Y-103928333D01*
X175169285Y-103867857D01*
X175411190Y-103867857D01*
X175532142Y-103928333D01*
X175592619Y-104049285D01*
X175592619Y-104170238D01*
X174987857Y-104291190D01*
X176136904Y-103867857D02*
X176136904Y-104714523D01*
X176136904Y-103988809D02*
X176197380Y-103928333D01*
X176318333Y-103867857D01*
X176499761Y-103867857D01*
X176620714Y-103928333D01*
X176681190Y-104049285D01*
X176681190Y-104714523D01*
X177104523Y-103867857D02*
X177588333Y-103867857D01*
X177285952Y-103444523D02*
X177285952Y-104533095D01*
X177346428Y-104654047D01*
X177467380Y-104714523D01*
X177588333Y-104714523D01*
X178979285Y-104714523D02*
X178979285Y-103444523D01*
X179463095Y-103444523D01*
X179584047Y-103505000D01*
X179644523Y-103565476D01*
X179705000Y-103686428D01*
X179705000Y-103867857D01*
X179644523Y-103988809D01*
X179584047Y-104049285D01*
X179463095Y-104109761D01*
X178979285Y-104109761D01*
X180430714Y-104714523D02*
X180309761Y-104654047D01*
X180249285Y-104593571D01*
X180188809Y-104472619D01*
X180188809Y-104109761D01*
X180249285Y-103988809D01*
X180309761Y-103928333D01*
X180430714Y-103867857D01*
X180612142Y-103867857D01*
X180733095Y-103928333D01*
X180793571Y-103988809D01*
X180854047Y-104109761D01*
X180854047Y-104472619D01*
X180793571Y-104593571D01*
X180733095Y-104654047D01*
X180612142Y-104714523D01*
X180430714Y-104714523D01*
X181277380Y-103867857D02*
X181519285Y-104714523D01*
X181761190Y-104109761D01*
X182003095Y-104714523D01*
X182245000Y-103867857D01*
X183212619Y-104654047D02*
X183091666Y-104714523D01*
X182849761Y-104714523D01*
X182728809Y-104654047D01*
X182668333Y-104533095D01*
X182668333Y-104049285D01*
X182728809Y-103928333D01*
X182849761Y-103867857D01*
X183091666Y-103867857D01*
X183212619Y-103928333D01*
X183273095Y-104049285D01*
X183273095Y-104170238D01*
X182668333Y-104291190D01*
X183817380Y-104714523D02*
X183817380Y-103867857D01*
X183817380Y-104109761D02*
X183877857Y-103988809D01*
X183938333Y-103928333D01*
X184059285Y-103867857D01*
X184180238Y-103867857D01*
X185571190Y-104714523D02*
X185571190Y-103444523D01*
X186175952Y-103867857D02*
X186175952Y-104714523D01*
X186175952Y-103988809D02*
X186236428Y-103928333D01*
X186357380Y-103867857D01*
X186538809Y-103867857D01*
X186659761Y-103928333D01*
X186720238Y-104049285D01*
X186720238Y-104714523D01*
X187325000Y-103867857D02*
X187325000Y-105137857D01*
X187325000Y-103928333D02*
X187445952Y-103867857D01*
X187687857Y-103867857D01*
X187808809Y-103928333D01*
X187869285Y-103988809D01*
X187929761Y-104109761D01*
X187929761Y-104472619D01*
X187869285Y-104593571D01*
X187808809Y-104654047D01*
X187687857Y-104714523D01*
X187445952Y-104714523D01*
X187325000Y-104654047D01*
X189018333Y-103867857D02*
X189018333Y-104714523D01*
X188474047Y-103867857D02*
X188474047Y-104533095D01*
X188534523Y-104654047D01*
X188655476Y-104714523D01*
X188836904Y-104714523D01*
X188957857Y-104654047D01*
X189018333Y-104593571D01*
X189441666Y-103867857D02*
X189925476Y-103867857D01*
X189623095Y-103444523D02*
X189623095Y-104533095D01*
X189683571Y-104654047D01*
X189804523Y-104714523D01*
X189925476Y-104714523D01*
D11*
X166412333Y-99676857D02*
X166412333Y-99193047D01*
X166702619Y-99773619D02*
X165686619Y-99434952D01*
X166702619Y-99096285D01*
X166025285Y-98757619D02*
X166702619Y-98757619D01*
X166122047Y-98757619D02*
X166073666Y-98709238D01*
X166025285Y-98612476D01*
X166025285Y-98467333D01*
X166073666Y-98370571D01*
X166170428Y-98322190D01*
X166702619Y-98322190D01*
X166025285Y-97935142D02*
X166702619Y-97693238D01*
X166025285Y-97451333D02*
X166702619Y-97693238D01*
X166944523Y-97790000D01*
X166992904Y-97838380D01*
X167041285Y-97935142D01*
X166654238Y-96338571D02*
X166702619Y-96193428D01*
X166702619Y-95951523D01*
X166654238Y-95854761D01*
X166605857Y-95806380D01*
X166509095Y-95758000D01*
X166412333Y-95758000D01*
X166315571Y-95806380D01*
X166267190Y-95854761D01*
X166218809Y-95951523D01*
X166170428Y-96145047D01*
X166122047Y-96241809D01*
X166073666Y-96290190D01*
X165976904Y-96338571D01*
X165880142Y-96338571D01*
X165783380Y-96290190D01*
X165735000Y-96241809D01*
X165686619Y-96145047D01*
X165686619Y-95903142D01*
X165735000Y-95758000D01*
X166702619Y-95322571D02*
X166025285Y-95322571D01*
X165686619Y-95322571D02*
X165735000Y-95370952D01*
X165783380Y-95322571D01*
X165735000Y-95274190D01*
X165686619Y-95322571D01*
X165783380Y-95322571D01*
X166025285Y-94935523D02*
X166025285Y-94403333D01*
X166702619Y-94935523D01*
X166702619Y-94403333D01*
X166654238Y-93629238D02*
X166702619Y-93726000D01*
X166702619Y-93919523D01*
X166654238Y-94016285D01*
X166557476Y-94064666D01*
X166170428Y-94064666D01*
X166073666Y-94016285D01*
X166025285Y-93919523D01*
X166025285Y-93726000D01*
X166073666Y-93629238D01*
X166170428Y-93580857D01*
X166267190Y-93580857D01*
X166363952Y-94064666D01*
X166170428Y-92032666D02*
X166218809Y-91887523D01*
X166267190Y-91839142D01*
X166363952Y-91790761D01*
X166509095Y-91790761D01*
X166605857Y-91839142D01*
X166654238Y-91887523D01*
X166702619Y-91984285D01*
X166702619Y-92371333D01*
X165686619Y-92371333D01*
X165686619Y-92032666D01*
X165735000Y-91935904D01*
X165783380Y-91887523D01*
X165880142Y-91839142D01*
X165976904Y-91839142D01*
X166073666Y-91887523D01*
X166122047Y-91935904D01*
X166170428Y-92032666D01*
X166170428Y-92371333D01*
X166702619Y-90919904D02*
X166170428Y-90919904D01*
X166073666Y-90968285D01*
X166025285Y-91065047D01*
X166025285Y-91258571D01*
X166073666Y-91355333D01*
X166654238Y-90919904D02*
X166702619Y-91016666D01*
X166702619Y-91258571D01*
X166654238Y-91355333D01*
X166557476Y-91403714D01*
X166460714Y-91403714D01*
X166363952Y-91355333D01*
X166315571Y-91258571D01*
X166315571Y-91016666D01*
X166267190Y-90919904D01*
X166654238Y-90000666D02*
X166702619Y-90097428D01*
X166702619Y-90290952D01*
X166654238Y-90387714D01*
X166605857Y-90436095D01*
X166509095Y-90484476D01*
X166218809Y-90484476D01*
X166122047Y-90436095D01*
X166073666Y-90387714D01*
X166025285Y-90290952D01*
X166025285Y-90097428D01*
X166073666Y-90000666D01*
X166702619Y-89565238D02*
X165686619Y-89565238D01*
X166315571Y-89468476D02*
X166702619Y-89178190D01*
X166025285Y-89178190D02*
X166412333Y-89565238D01*
X166702619Y-88597619D02*
X166654238Y-88694380D01*
X166557476Y-88742761D01*
X165686619Y-88742761D01*
X166702619Y-88210571D02*
X166025285Y-88210571D01*
X165686619Y-88210571D02*
X165735000Y-88258952D01*
X165783380Y-88210571D01*
X165735000Y-88162190D01*
X165686619Y-88210571D01*
X165783380Y-88210571D01*
X166025285Y-87291333D02*
X166847761Y-87291333D01*
X166944523Y-87339714D01*
X166992904Y-87388095D01*
X167041285Y-87484857D01*
X167041285Y-87630000D01*
X166992904Y-87726761D01*
X166654238Y-87291333D02*
X166702619Y-87388095D01*
X166702619Y-87581619D01*
X166654238Y-87678380D01*
X166605857Y-87726761D01*
X166509095Y-87775142D01*
X166218809Y-87775142D01*
X166122047Y-87726761D01*
X166073666Y-87678380D01*
X166025285Y-87581619D01*
X166025285Y-87388095D01*
X166073666Y-87291333D01*
X166702619Y-86807523D02*
X165686619Y-86807523D01*
X166702619Y-86372095D02*
X166170428Y-86372095D01*
X166073666Y-86420476D01*
X166025285Y-86517238D01*
X166025285Y-86662380D01*
X166073666Y-86759142D01*
X166122047Y-86807523D01*
X166025285Y-86033428D02*
X166025285Y-85646380D01*
X165686619Y-85888285D02*
X166557476Y-85888285D01*
X166654238Y-85839904D01*
X166702619Y-85743142D01*
X166702619Y-85646380D01*
X167561380Y-95709619D02*
X167513000Y-95661238D01*
X167464619Y-95564476D01*
X167464619Y-95322571D01*
X167513000Y-95225809D01*
X167561380Y-95177428D01*
X167658142Y-95129047D01*
X167754904Y-95129047D01*
X167900047Y-95177428D01*
X168480619Y-95758000D01*
X168480619Y-95129047D01*
X167803285Y-94258190D02*
X168480619Y-94258190D01*
X167416238Y-94500095D02*
X168141952Y-94742000D01*
X168141952Y-94113047D01*
X167464619Y-93871142D02*
X168480619Y-93532476D01*
X167464619Y-93193809D01*
X168480619Y-91548857D02*
X168480619Y-92129428D01*
X168480619Y-91839142D02*
X167464619Y-91839142D01*
X167609761Y-91935904D01*
X167706523Y-92032666D01*
X167754904Y-92129428D01*
X168480619Y-90581238D02*
X168480619Y-91161809D01*
X168480619Y-90871523D02*
X167464619Y-90871523D01*
X167609761Y-90968285D01*
X167706523Y-91065047D01*
X167754904Y-91161809D01*
X168190333Y-90194190D02*
X168190333Y-89710380D01*
X168480619Y-90290952D02*
X167464619Y-89952285D01*
X168480619Y-89613619D01*
X170258619Y-96338571D02*
X169242619Y-96338571D01*
X169968333Y-95999904D01*
X169242619Y-95661238D01*
X170258619Y-95661238D01*
X170210238Y-94790380D02*
X170258619Y-94887142D01*
X170258619Y-95080666D01*
X170210238Y-95177428D01*
X170113476Y-95225809D01*
X169726428Y-95225809D01*
X169629666Y-95177428D01*
X169581285Y-95080666D01*
X169581285Y-94887142D01*
X169629666Y-94790380D01*
X169726428Y-94742000D01*
X169823190Y-94742000D01*
X169919952Y-95225809D01*
X170258619Y-93871142D02*
X169726428Y-93871142D01*
X169629666Y-93919523D01*
X169581285Y-94016285D01*
X169581285Y-94209809D01*
X169629666Y-94306571D01*
X170210238Y-93871142D02*
X170258619Y-93967904D01*
X170258619Y-94209809D01*
X170210238Y-94306571D01*
X170113476Y-94354952D01*
X170016714Y-94354952D01*
X169919952Y-94306571D01*
X169871571Y-94209809D01*
X169871571Y-93967904D01*
X169823190Y-93871142D01*
X169581285Y-93387333D02*
X170258619Y-93387333D01*
X169678047Y-93387333D02*
X169629666Y-93338952D01*
X169581285Y-93242190D01*
X169581285Y-93097047D01*
X169629666Y-93000285D01*
X169726428Y-92951904D01*
X170258619Y-92951904D01*
X169242619Y-91790761D02*
X170258619Y-91548857D01*
X169532904Y-91355333D01*
X170258619Y-91161809D01*
X169242619Y-90919904D01*
X170210238Y-90145809D02*
X170258619Y-90242571D01*
X170258619Y-90436095D01*
X170210238Y-90532857D01*
X170113476Y-90581238D01*
X169726428Y-90581238D01*
X169629666Y-90532857D01*
X169581285Y-90436095D01*
X169581285Y-90242571D01*
X169629666Y-90145809D01*
X169726428Y-90097428D01*
X169823190Y-90097428D01*
X169919952Y-90581238D01*
X170258619Y-89516857D02*
X170210238Y-89613619D01*
X170113476Y-89662000D01*
X169242619Y-89662000D01*
X170258619Y-88984666D02*
X170210238Y-89081428D01*
X170113476Y-89129809D01*
X169242619Y-89129809D01*
X171069000Y-98298000D02*
X171020619Y-98394761D01*
X171020619Y-98539904D01*
X171069000Y-98685047D01*
X171165761Y-98781809D01*
X171262523Y-98830190D01*
X171456047Y-98878571D01*
X171601190Y-98878571D01*
X171794714Y-98830190D01*
X171891476Y-98781809D01*
X171988238Y-98685047D01*
X172036619Y-98539904D01*
X172036619Y-98443142D01*
X171988238Y-98298000D01*
X171939857Y-98249619D01*
X171601190Y-98249619D01*
X171601190Y-98443142D01*
X171988238Y-97862571D02*
X172036619Y-97717428D01*
X172036619Y-97475523D01*
X171988238Y-97378761D01*
X171939857Y-97330380D01*
X171843095Y-97282000D01*
X171746333Y-97282000D01*
X171649571Y-97330380D01*
X171601190Y-97378761D01*
X171552809Y-97475523D01*
X171504428Y-97669047D01*
X171456047Y-97765809D01*
X171407666Y-97814190D01*
X171310904Y-97862571D01*
X171214142Y-97862571D01*
X171117380Y-97814190D01*
X171069000Y-97765809D01*
X171020619Y-97669047D01*
X171020619Y-97427142D01*
X171069000Y-97282000D01*
X171020619Y-96991714D02*
X171020619Y-96411142D01*
X172036619Y-96701428D02*
X171020619Y-96701428D01*
X171117380Y-96120857D02*
X171069000Y-96072476D01*
X171020619Y-95975714D01*
X171020619Y-95733809D01*
X171069000Y-95637047D01*
X171117380Y-95588666D01*
X171214142Y-95540285D01*
X171310904Y-95540285D01*
X171456047Y-95588666D01*
X172036619Y-96169238D01*
X172036619Y-95540285D01*
X171456047Y-94959714D02*
X171407666Y-95056476D01*
X171359285Y-95104857D01*
X171262523Y-95153238D01*
X171214142Y-95153238D01*
X171117380Y-95104857D01*
X171069000Y-95056476D01*
X171020619Y-94959714D01*
X171020619Y-94766190D01*
X171069000Y-94669428D01*
X171117380Y-94621047D01*
X171214142Y-94572666D01*
X171262523Y-94572666D01*
X171359285Y-94621047D01*
X171407666Y-94669428D01*
X171456047Y-94766190D01*
X171456047Y-94959714D01*
X171504428Y-95056476D01*
X171552809Y-95104857D01*
X171649571Y-95153238D01*
X171843095Y-95153238D01*
X171939857Y-95104857D01*
X171988238Y-95056476D01*
X172036619Y-94959714D01*
X172036619Y-94766190D01*
X171988238Y-94669428D01*
X171939857Y-94621047D01*
X171843095Y-94572666D01*
X171649571Y-94572666D01*
X171552809Y-94621047D01*
X171504428Y-94669428D01*
X171456047Y-94766190D01*
X171020619Y-93943714D02*
X171020619Y-93846952D01*
X171069000Y-93750190D01*
X171117380Y-93701809D01*
X171214142Y-93653428D01*
X171407666Y-93605047D01*
X171649571Y-93605047D01*
X171843095Y-93653428D01*
X171939857Y-93701809D01*
X171988238Y-93750190D01*
X172036619Y-93846952D01*
X172036619Y-93943714D01*
X171988238Y-94040476D01*
X171939857Y-94088857D01*
X171843095Y-94137238D01*
X171649571Y-94185619D01*
X171407666Y-94185619D01*
X171214142Y-94137238D01*
X171117380Y-94088857D01*
X171069000Y-94040476D01*
X171020619Y-93943714D01*
X171746333Y-93218000D02*
X171746333Y-92734190D01*
X172036619Y-93314761D02*
X171020619Y-92976095D01*
X172036619Y-92637428D01*
X171117380Y-92347142D02*
X171069000Y-92298761D01*
X171020619Y-92202000D01*
X171020619Y-91960095D01*
X171069000Y-91863333D01*
X171117380Y-91814952D01*
X171214142Y-91766571D01*
X171310904Y-91766571D01*
X171456047Y-91814952D01*
X172036619Y-92395523D01*
X172036619Y-91766571D01*
X171359285Y-90895714D02*
X172036619Y-90895714D01*
X170972238Y-91137619D02*
X171697952Y-91379523D01*
X171697952Y-90750571D01*
X171649571Y-90363523D02*
X171649571Y-89589428D01*
X171939857Y-88525047D02*
X171988238Y-88573428D01*
X172036619Y-88718571D01*
X172036619Y-88815333D01*
X171988238Y-88960476D01*
X171891476Y-89057238D01*
X171794714Y-89105619D01*
X171601190Y-89154000D01*
X171456047Y-89154000D01*
X171262523Y-89105619D01*
X171165761Y-89057238D01*
X171069000Y-88960476D01*
X171020619Y-88815333D01*
X171020619Y-88718571D01*
X171069000Y-88573428D01*
X171117380Y-88525047D01*
X171020619Y-87654190D02*
X171020619Y-87847714D01*
X171069000Y-87944476D01*
X171117380Y-87992857D01*
X171262523Y-88089619D01*
X171456047Y-88138000D01*
X171843095Y-88138000D01*
X171939857Y-88089619D01*
X171988238Y-88041238D01*
X172036619Y-87944476D01*
X172036619Y-87750952D01*
X171988238Y-87654190D01*
X171939857Y-87605809D01*
X171843095Y-87557428D01*
X171601190Y-87557428D01*
X171504428Y-87605809D01*
X171456047Y-87654190D01*
X171407666Y-87750952D01*
X171407666Y-87944476D01*
X171456047Y-88041238D01*
X171504428Y-88089619D01*
X171601190Y-88138000D01*
X172036619Y-87122000D02*
X171020619Y-87122000D01*
X171020619Y-86734952D01*
X171069000Y-86638190D01*
X171117380Y-86589809D01*
X171214142Y-86541428D01*
X171359285Y-86541428D01*
X171456047Y-86589809D01*
X171504428Y-86638190D01*
X171552809Y-86734952D01*
X171552809Y-87122000D01*
D12*
X139700000Y-80010000D02*
X139700000Y-130810000D01*
X165100000Y-80010000D02*
X165100000Y-130810000D01*
X88900000Y-80010000D02*
X190500000Y-80010000D01*
X88900000Y-130810000D02*
X88900000Y-80010000D01*
X190500000Y-130810000D02*
X88900000Y-130810000D01*
X190500000Y-80010000D02*
X190500000Y-130810000D01*
X88900000Y-105410000D02*
X190500000Y-105410000D01*
D13*
X191135000Y-71755000D02*
X69850000Y-71755000D01*
X191135000Y-139065000D02*
X191135000Y-71755000D01*
X69850000Y-139065000D02*
X191135000Y-139065000D01*
X69850000Y-71755000D02*
X69850000Y-139065000D01*
D14*
X85452857Y-133809619D02*
X85452857Y-132793619D01*
X85888285Y-133809619D02*
X85888285Y-133277428D01*
X85839904Y-133180666D01*
X85743142Y-133132285D01*
X85598000Y-133132285D01*
X85501238Y-133180666D01*
X85452857Y-133229047D01*
X86226952Y-133132285D02*
X86614000Y-133132285D01*
X86372095Y-132793619D02*
X86372095Y-133664476D01*
X86420476Y-133761238D01*
X86517238Y-133809619D01*
X86614000Y-133809619D01*
X86807523Y-133132285D02*
X87194571Y-133132285D01*
X86952666Y-132793619D02*
X86952666Y-133664476D01*
X87001047Y-133761238D01*
X87097809Y-133809619D01*
X87194571Y-133809619D01*
X87533238Y-133132285D02*
X87533238Y-134148285D01*
X87533238Y-133180666D02*
X87630000Y-133132285D01*
X87823523Y-133132285D01*
X87920285Y-133180666D01*
X87968666Y-133229047D01*
X88017047Y-133325809D01*
X88017047Y-133616095D01*
X87968666Y-133712857D01*
X87920285Y-133761238D01*
X87823523Y-133809619D01*
X87630000Y-133809619D01*
X87533238Y-133761238D01*
X88404095Y-133761238D02*
X88500857Y-133809619D01*
X88694380Y-133809619D01*
X88791142Y-133761238D01*
X88839523Y-133664476D01*
X88839523Y-133616095D01*
X88791142Y-133519333D01*
X88694380Y-133470952D01*
X88549238Y-133470952D01*
X88452476Y-133422571D01*
X88404095Y-133325809D01*
X88404095Y-133277428D01*
X88452476Y-133180666D01*
X88549238Y-133132285D01*
X88694380Y-133132285D01*
X88791142Y-133180666D01*
X89274952Y-133712857D02*
X89323333Y-133761238D01*
X89274952Y-133809619D01*
X89226571Y-133761238D01*
X89274952Y-133712857D01*
X89274952Y-133809619D01*
X89274952Y-133180666D02*
X89323333Y-133229047D01*
X89274952Y-133277428D01*
X89226571Y-133229047D01*
X89274952Y-133180666D01*
X89274952Y-133277428D01*
X90484476Y-132745238D02*
X89613619Y-134051523D01*
X91548857Y-132745238D02*
X90678000Y-134051523D01*
X92322952Y-133132285D02*
X92322952Y-133954761D01*
X92274571Y-134051523D01*
X92226190Y-134099904D01*
X92129428Y-134148285D01*
X91984285Y-134148285D01*
X91887523Y-134099904D01*
X92322952Y-133761238D02*
X92226190Y-133809619D01*
X92032666Y-133809619D01*
X91935904Y-133761238D01*
X91887523Y-133712857D01*
X91839142Y-133616095D01*
X91839142Y-133325809D01*
X91887523Y-133229047D01*
X91935904Y-133180666D01*
X92032666Y-133132285D01*
X92226190Y-133132285D01*
X92322952Y-133180666D01*
X92806761Y-133809619D02*
X92806761Y-133132285D01*
X92806761Y-132793619D02*
X92758380Y-132842000D01*
X92806761Y-132890380D01*
X92855142Y-132842000D01*
X92806761Y-132793619D01*
X92806761Y-132890380D01*
X93145428Y-133132285D02*
X93532476Y-133132285D01*
X93290571Y-132793619D02*
X93290571Y-133664476D01*
X93338952Y-133761238D01*
X93435714Y-133809619D01*
X93532476Y-133809619D01*
X93871142Y-133809619D02*
X93871142Y-132793619D01*
X94306571Y-133809619D02*
X94306571Y-133277428D01*
X94258190Y-133180666D01*
X94161428Y-133132285D01*
X94016285Y-133132285D01*
X93919523Y-133180666D01*
X93871142Y-133229047D01*
X95225809Y-133132285D02*
X95225809Y-133809619D01*
X94790380Y-133132285D02*
X94790380Y-133664476D01*
X94838761Y-133761238D01*
X94935523Y-133809619D01*
X95080666Y-133809619D01*
X95177428Y-133761238D01*
X95225809Y-133712857D01*
X95709619Y-133809619D02*
X95709619Y-132793619D01*
X95709619Y-133180666D02*
X95806380Y-133132285D01*
X95999904Y-133132285D01*
X96096666Y-133180666D01*
X96145047Y-133229047D01*
X96193428Y-133325809D01*
X96193428Y-133616095D01*
X96145047Y-133712857D01*
X96096666Y-133761238D01*
X95999904Y-133809619D01*
X95806380Y-133809619D01*
X95709619Y-133761238D01*
X96628857Y-133712857D02*
X96677238Y-133761238D01*
X96628857Y-133809619D01*
X96580476Y-133761238D01*
X96628857Y-133712857D01*
X96628857Y-133809619D01*
X97548095Y-133761238D02*
X97451333Y-133809619D01*
X97257809Y-133809619D01*
X97161047Y-133761238D01*
X97112666Y-133712857D01*
X97064285Y-133616095D01*
X97064285Y-133325809D01*
X97112666Y-133229047D01*
X97161047Y-133180666D01*
X97257809Y-133132285D01*
X97451333Y-133132285D01*
X97548095Y-133180666D01*
X98128666Y-133809619D02*
X98031904Y-133761238D01*
X97983523Y-133712857D01*
X97935142Y-133616095D01*
X97935142Y-133325809D01*
X97983523Y-133229047D01*
X98031904Y-133180666D01*
X98128666Y-133132285D01*
X98273809Y-133132285D01*
X98370571Y-133180666D01*
X98418952Y-133229047D01*
X98467333Y-133325809D01*
X98467333Y-133616095D01*
X98418952Y-133712857D01*
X98370571Y-133761238D01*
X98273809Y-133809619D01*
X98128666Y-133809619D01*
X98902761Y-133809619D02*
X98902761Y-133132285D01*
X98902761Y-133229047D02*
X98951142Y-133180666D01*
X99047904Y-133132285D01*
X99193047Y-133132285D01*
X99289809Y-133180666D01*
X99338190Y-133277428D01*
X99338190Y-133809619D01*
X99338190Y-133277428D02*
X99386571Y-133180666D01*
X99483333Y-133132285D01*
X99628476Y-133132285D01*
X99725238Y-133180666D01*
X99773619Y-133277428D01*
X99773619Y-133809619D01*
X100983142Y-132745238D02*
X100112285Y-134051523D01*
X101321809Y-133132285D02*
X101321809Y-134003142D01*
X101273428Y-134099904D01*
X101176666Y-134148285D01*
X101128285Y-134148285D01*
X101321809Y-132793619D02*
X101273428Y-132842000D01*
X101321809Y-132890380D01*
X101370190Y-132842000D01*
X101321809Y-132793619D01*
X101321809Y-132890380D01*
X102241047Y-133809619D02*
X102241047Y-133277428D01*
X102192666Y-133180666D01*
X102095904Y-133132285D01*
X101902380Y-133132285D01*
X101805619Y-133180666D01*
X102241047Y-133761238D02*
X102144285Y-133809619D01*
X101902380Y-133809619D01*
X101805619Y-133761238D01*
X101757238Y-133664476D01*
X101757238Y-133567714D01*
X101805619Y-133470952D01*
X101902380Y-133422571D01*
X102144285Y-133422571D01*
X102241047Y-133374190D01*
X102724857Y-133132285D02*
X102724857Y-133809619D01*
X102724857Y-133229047D02*
X102773238Y-133180666D01*
X102870000Y-133132285D01*
X103015142Y-133132285D01*
X103111904Y-133180666D01*
X103160285Y-133277428D01*
X103160285Y-133809619D01*
X104031142Y-133761238D02*
X103934380Y-133809619D01*
X103740857Y-133809619D01*
X103644095Y-133761238D01*
X103595714Y-133664476D01*
X103595714Y-133277428D01*
X103644095Y-133180666D01*
X103740857Y-133132285D01*
X103934380Y-133132285D01*
X104031142Y-133180666D01*
X104079523Y-133277428D01*
X104079523Y-133374190D01*
X103595714Y-133470952D01*
X104660095Y-133809619D02*
X104563333Y-133761238D01*
X104514952Y-133664476D01*
X104514952Y-132793619D01*
X105047142Y-133809619D02*
X105047142Y-133132285D01*
X105047142Y-132793619D02*
X104998761Y-132842000D01*
X105047142Y-132890380D01*
X105095523Y-132842000D01*
X105047142Y-132793619D01*
X105047142Y-132890380D01*
X105966380Y-133809619D02*
X105966380Y-133277428D01*
X105918000Y-133180666D01*
X105821238Y-133132285D01*
X105627714Y-133132285D01*
X105530952Y-133180666D01*
X105966380Y-133761238D02*
X105869619Y-133809619D01*
X105627714Y-133809619D01*
X105530952Y-133761238D01*
X105482571Y-133664476D01*
X105482571Y-133567714D01*
X105530952Y-133470952D01*
X105627714Y-133422571D01*
X105869619Y-133422571D01*
X105966380Y-133374190D01*
X106450190Y-133422571D02*
X107224285Y-133422571D01*
X107708095Y-133809619D02*
X107708095Y-133132285D01*
X107708095Y-133229047D02*
X107756476Y-133180666D01*
X107853238Y-133132285D01*
X107998380Y-133132285D01*
X108095142Y-133180666D01*
X108143523Y-133277428D01*
X108143523Y-133809619D01*
X108143523Y-133277428D02*
X108191904Y-133180666D01*
X108288666Y-133132285D01*
X108433809Y-133132285D01*
X108530571Y-133180666D01*
X108578952Y-133277428D01*
X108578952Y-133809619D01*
X109207904Y-133809619D02*
X109111142Y-133761238D01*
X109062761Y-133712857D01*
X109014380Y-133616095D01*
X109014380Y-133325809D01*
X109062761Y-133229047D01*
X109111142Y-133180666D01*
X109207904Y-133132285D01*
X109353047Y-133132285D01*
X109449809Y-133180666D01*
X109498190Y-133229047D01*
X109546571Y-133325809D01*
X109546571Y-133616095D01*
X109498190Y-133712857D01*
X109449809Y-133761238D01*
X109353047Y-133809619D01*
X109207904Y-133809619D01*
X110417428Y-133809619D02*
X110417428Y-132793619D01*
X110417428Y-133761238D02*
X110320666Y-133809619D01*
X110127142Y-133809619D01*
X110030380Y-133761238D01*
X109982000Y-133712857D01*
X109933619Y-133616095D01*
X109933619Y-133325809D01*
X109982000Y-133229047D01*
X110030380Y-133180666D01*
X110127142Y-133132285D01*
X110320666Y-133132285D01*
X110417428Y-133180666D01*
X111336666Y-133132285D02*
X111336666Y-133809619D01*
X110901238Y-133132285D02*
X110901238Y-133664476D01*
X110949619Y-133761238D01*
X111046380Y-133809619D01*
X111191523Y-133809619D01*
X111288285Y-133761238D01*
X111336666Y-133712857D01*
X111965619Y-133809619D02*
X111868857Y-133761238D01*
X111820476Y-133664476D01*
X111820476Y-132793619D01*
X112788095Y-133809619D02*
X112788095Y-133277428D01*
X112739714Y-133180666D01*
X112642952Y-133132285D01*
X112449428Y-133132285D01*
X112352666Y-133180666D01*
X112788095Y-133761238D02*
X112691333Y-133809619D01*
X112449428Y-133809619D01*
X112352666Y-133761238D01*
X112304285Y-133664476D01*
X112304285Y-133567714D01*
X112352666Y-133470952D01*
X112449428Y-133422571D01*
X112691333Y-133422571D01*
X112788095Y-133374190D01*
X113271904Y-133809619D02*
X113271904Y-133132285D01*
X113271904Y-133325809D02*
X113320285Y-133229047D01*
X113368666Y-133180666D01*
X113465428Y-133132285D01*
X113562190Y-133132285D01*
X113900857Y-133422571D02*
X114674952Y-133422571D01*
X115594190Y-133809619D02*
X115594190Y-132793619D01*
X115594190Y-133761238D02*
X115497428Y-133809619D01*
X115303904Y-133809619D01*
X115207142Y-133761238D01*
X115158761Y-133712857D01*
X115110380Y-133616095D01*
X115110380Y-133325809D01*
X115158761Y-133229047D01*
X115207142Y-133180666D01*
X115303904Y-133132285D01*
X115497428Y-133132285D01*
X115594190Y-133180666D01*
X116465047Y-133761238D02*
X116368285Y-133809619D01*
X116174761Y-133809619D01*
X116078000Y-133761238D01*
X116029619Y-133664476D01*
X116029619Y-133277428D01*
X116078000Y-133180666D01*
X116174761Y-133132285D01*
X116368285Y-133132285D01*
X116465047Y-133180666D01*
X116513428Y-133277428D01*
X116513428Y-133374190D01*
X116029619Y-133470952D01*
X116852095Y-133132285D02*
X117094000Y-133809619D01*
X117335904Y-133132285D01*
X117722952Y-133809619D02*
X117722952Y-133132285D01*
X117722952Y-132793619D02*
X117674571Y-132842000D01*
X117722952Y-132890380D01*
X117771333Y-132842000D01*
X117722952Y-132793619D01*
X117722952Y-132890380D01*
X118642190Y-133761238D02*
X118545428Y-133809619D01*
X118351904Y-133809619D01*
X118255142Y-133761238D01*
X118206761Y-133712857D01*
X118158380Y-133616095D01*
X118158380Y-133325809D01*
X118206761Y-133229047D01*
X118255142Y-133180666D01*
X118351904Y-133132285D01*
X118545428Y-133132285D01*
X118642190Y-133180666D01*
X119464666Y-133761238D02*
X119367904Y-133809619D01*
X119174380Y-133809619D01*
X119077619Y-133761238D01*
X119029238Y-133664476D01*
X119029238Y-133277428D01*
X119077619Y-133180666D01*
X119174380Y-133132285D01*
X119367904Y-133132285D01*
X119464666Y-133180666D01*
X119513047Y-133277428D01*
X119513047Y-133374190D01*
X119029238Y-133470952D01*
X119900095Y-133761238D02*
X119996857Y-133809619D01*
X120190380Y-133809619D01*
X120287142Y-133761238D01*
X120335523Y-133664476D01*
X120335523Y-133616095D01*
X120287142Y-133519333D01*
X120190380Y-133470952D01*
X120045238Y-133470952D01*
X119948476Y-133422571D01*
X119900095Y-133325809D01*
X119900095Y-133277428D01*
X119948476Y-133180666D01*
X120045238Y-133132285D01*
X120190380Y-133132285D01*
X120287142Y-133180666D01*
D11*
X70436619Y-113804095D02*
X71162333Y-113804095D01*
X71307476Y-113852476D01*
X71404238Y-113949238D01*
X71452619Y-114094380D01*
X71452619Y-114191142D01*
X71452619Y-112884857D02*
X70920428Y-112884857D01*
X70823666Y-112933238D01*
X70775285Y-113030000D01*
X70775285Y-113223523D01*
X70823666Y-113320285D01*
X71404238Y-112884857D02*
X71452619Y-112981619D01*
X71452619Y-113223523D01*
X71404238Y-113320285D01*
X71307476Y-113368666D01*
X71210714Y-113368666D01*
X71113952Y-113320285D01*
X71065571Y-113223523D01*
X71065571Y-112981619D01*
X71017190Y-112884857D01*
X70775285Y-112401047D02*
X71452619Y-112401047D01*
X70872047Y-112401047D02*
X70823666Y-112352666D01*
X70775285Y-112255904D01*
X70775285Y-112110761D01*
X70823666Y-112014000D01*
X70920428Y-111965619D01*
X71452619Y-111965619D01*
X71404238Y-111094761D02*
X71452619Y-111191523D01*
X71452619Y-111385047D01*
X71404238Y-111481809D01*
X71307476Y-111530190D01*
X70920428Y-111530190D01*
X70823666Y-111481809D01*
X70775285Y-111385047D01*
X70775285Y-111191523D01*
X70823666Y-111094761D01*
X70920428Y-111046380D01*
X71017190Y-111046380D01*
X71113952Y-111530190D01*
X71452619Y-110465809D02*
X71404238Y-110562571D01*
X71307476Y-110610952D01*
X70436619Y-110610952D01*
X71452619Y-110078761D02*
X70775285Y-110078761D01*
X70436619Y-110078761D02*
X70485000Y-110127142D01*
X70533380Y-110078761D01*
X70485000Y-110030380D01*
X70436619Y-110078761D01*
X70533380Y-110078761D01*
X71452619Y-109159523D02*
X70920428Y-109159523D01*
X70823666Y-109207904D01*
X70775285Y-109304666D01*
X70775285Y-109498190D01*
X70823666Y-109594952D01*
X71404238Y-109159523D02*
X71452619Y-109256285D01*
X71452619Y-109498190D01*
X71404238Y-109594952D01*
X71307476Y-109643333D01*
X71210714Y-109643333D01*
X71113952Y-109594952D01*
X71065571Y-109498190D01*
X71065571Y-109256285D01*
X71017190Y-109159523D01*
X71452619Y-107901619D02*
X70436619Y-107901619D01*
X71162333Y-107562952D01*
X70436619Y-107224285D01*
X71452619Y-107224285D01*
X71452619Y-106595333D02*
X71404238Y-106692095D01*
X71355857Y-106740476D01*
X71259095Y-106788857D01*
X70968809Y-106788857D01*
X70872047Y-106740476D01*
X70823666Y-106692095D01*
X70775285Y-106595333D01*
X70775285Y-106450190D01*
X70823666Y-106353428D01*
X70872047Y-106305047D01*
X70968809Y-106256666D01*
X71259095Y-106256666D01*
X71355857Y-106305047D01*
X71404238Y-106353428D01*
X71452619Y-106450190D01*
X71452619Y-106595333D01*
X71452619Y-105385809D02*
X70436619Y-105385809D01*
X71404238Y-105385809D02*
X71452619Y-105482571D01*
X71452619Y-105676095D01*
X71404238Y-105772857D01*
X71355857Y-105821238D01*
X71259095Y-105869619D01*
X70968809Y-105869619D01*
X70872047Y-105821238D01*
X70823666Y-105772857D01*
X70775285Y-105676095D01*
X70775285Y-105482571D01*
X70823666Y-105385809D01*
X70775285Y-104466571D02*
X71452619Y-104466571D01*
X70775285Y-104902000D02*
X71307476Y-104902000D01*
X71404238Y-104853619D01*
X71452619Y-104756857D01*
X71452619Y-104611714D01*
X71404238Y-104514952D01*
X71355857Y-104466571D01*
X71452619Y-103837619D02*
X71404238Y-103934380D01*
X71307476Y-103982761D01*
X70436619Y-103982761D01*
X71452619Y-103015142D02*
X70920428Y-103015142D01*
X70823666Y-103063523D01*
X70775285Y-103160285D01*
X70775285Y-103353809D01*
X70823666Y-103450571D01*
X71404238Y-103015142D02*
X71452619Y-103111904D01*
X71452619Y-103353809D01*
X71404238Y-103450571D01*
X71307476Y-103498952D01*
X71210714Y-103498952D01*
X71113952Y-103450571D01*
X71065571Y-103353809D01*
X71065571Y-103111904D01*
X71017190Y-103015142D01*
X71452619Y-102531333D02*
X70775285Y-102531333D01*
X70968809Y-102531333D02*
X70872047Y-102482952D01*
X70823666Y-102434571D01*
X70775285Y-102337809D01*
X70775285Y-102241047D01*
X71452619Y-101128285D02*
X70436619Y-101128285D01*
X70436619Y-100886380D01*
X70485000Y-100741238D01*
X70581761Y-100644476D01*
X70678523Y-100596095D01*
X70872047Y-100547714D01*
X71017190Y-100547714D01*
X71210714Y-100596095D01*
X71307476Y-100644476D01*
X71404238Y-100741238D01*
X71452619Y-100886380D01*
X71452619Y-101128285D01*
X71404238Y-99725238D02*
X71452619Y-99822000D01*
X71452619Y-100015523D01*
X71404238Y-100112285D01*
X71307476Y-100160666D01*
X70920428Y-100160666D01*
X70823666Y-100112285D01*
X70775285Y-100015523D01*
X70775285Y-99822000D01*
X70823666Y-99725238D01*
X70920428Y-99676857D01*
X71017190Y-99676857D01*
X71113952Y-100160666D01*
X70775285Y-99338190D02*
X71452619Y-99096285D01*
X70775285Y-98854380D01*
X71452619Y-98467333D02*
X70775285Y-98467333D01*
X70436619Y-98467333D02*
X70485000Y-98515714D01*
X70533380Y-98467333D01*
X70485000Y-98418952D01*
X70436619Y-98467333D01*
X70533380Y-98467333D01*
X71404238Y-97548095D02*
X71452619Y-97644857D01*
X71452619Y-97838380D01*
X71404238Y-97935142D01*
X71355857Y-97983523D01*
X71259095Y-98031904D01*
X70968809Y-98031904D01*
X70872047Y-97983523D01*
X70823666Y-97935142D01*
X70775285Y-97838380D01*
X70775285Y-97644857D01*
X70823666Y-97548095D01*
X71404238Y-96725619D02*
X71452619Y-96822380D01*
X71452619Y-97015904D01*
X71404238Y-97112666D01*
X71307476Y-97161047D01*
X70920428Y-97161047D01*
X70823666Y-97112666D01*
X70775285Y-97015904D01*
X70775285Y-96822380D01*
X70823666Y-96725619D01*
X70920428Y-96677238D01*
X71017190Y-96677238D01*
X71113952Y-97161047D01*
X73182238Y-114046000D02*
X73230619Y-113949238D01*
X73230619Y-113755714D01*
X73182238Y-113658952D01*
X73085476Y-113610571D01*
X73037095Y-113610571D01*
X72940333Y-113658952D01*
X72891952Y-113755714D01*
X72891952Y-113900857D01*
X72843571Y-113997619D01*
X72746809Y-114046000D01*
X72698428Y-114046000D01*
X72601666Y-113997619D01*
X72553285Y-113900857D01*
X72553285Y-113755714D01*
X72601666Y-113658952D01*
X73230619Y-113175142D02*
X72553285Y-113175142D01*
X72650047Y-113175142D02*
X72601666Y-113126761D01*
X72553285Y-113030000D01*
X72553285Y-112884857D01*
X72601666Y-112788095D01*
X72698428Y-112739714D01*
X73230619Y-112739714D01*
X72698428Y-112739714D02*
X72601666Y-112691333D01*
X72553285Y-112594571D01*
X72553285Y-112449428D01*
X72601666Y-112352666D01*
X72698428Y-112304285D01*
X73230619Y-112304285D01*
X73230619Y-111385047D02*
X72698428Y-111385047D01*
X72601666Y-111433428D01*
X72553285Y-111530190D01*
X72553285Y-111723714D01*
X72601666Y-111820476D01*
X73182238Y-111385047D02*
X73230619Y-111481809D01*
X73230619Y-111723714D01*
X73182238Y-111820476D01*
X73085476Y-111868857D01*
X72988714Y-111868857D01*
X72891952Y-111820476D01*
X72843571Y-111723714D01*
X72843571Y-111481809D01*
X72795190Y-111385047D01*
X73230619Y-110901238D02*
X72553285Y-110901238D01*
X72746809Y-110901238D02*
X72650047Y-110852857D01*
X72601666Y-110804476D01*
X72553285Y-110707714D01*
X72553285Y-110610952D01*
X72553285Y-110417428D02*
X72553285Y-110030380D01*
X72214619Y-110272285D02*
X73085476Y-110272285D01*
X73182238Y-110223904D01*
X73230619Y-110127142D01*
X73230619Y-110030380D01*
X73327380Y-109933619D02*
X73327380Y-109159523D01*
X72553285Y-109014380D02*
X73230619Y-108772476D01*
X72553285Y-108530571D01*
X73230619Y-108143523D02*
X72553285Y-108143523D01*
X72214619Y-108143523D02*
X72263000Y-108191904D01*
X72311380Y-108143523D01*
X72263000Y-108095142D01*
X72214619Y-108143523D01*
X72311380Y-108143523D01*
X73182238Y-107708095D02*
X73230619Y-107611333D01*
X73230619Y-107417809D01*
X73182238Y-107321047D01*
X73085476Y-107272666D01*
X73037095Y-107272666D01*
X72940333Y-107321047D01*
X72891952Y-107417809D01*
X72891952Y-107562952D01*
X72843571Y-107659714D01*
X72746809Y-107708095D01*
X72698428Y-107708095D01*
X72601666Y-107659714D01*
X72553285Y-107562952D01*
X72553285Y-107417809D01*
X72601666Y-107321047D01*
X73230619Y-106837238D02*
X72553285Y-106837238D01*
X72214619Y-106837238D02*
X72263000Y-106885619D01*
X72311380Y-106837238D01*
X72263000Y-106788857D01*
X72214619Y-106837238D01*
X72311380Y-106837238D01*
X73230619Y-106208285D02*
X73182238Y-106305047D01*
X73133857Y-106353428D01*
X73037095Y-106401809D01*
X72746809Y-106401809D01*
X72650047Y-106353428D01*
X72601666Y-106305047D01*
X72553285Y-106208285D01*
X72553285Y-106063142D01*
X72601666Y-105966380D01*
X72650047Y-105918000D01*
X72746809Y-105869619D01*
X73037095Y-105869619D01*
X73133857Y-105918000D01*
X73182238Y-105966380D01*
X73230619Y-106063142D01*
X73230619Y-106208285D01*
X72553285Y-105434190D02*
X73230619Y-105434190D01*
X72650047Y-105434190D02*
X72601666Y-105385809D01*
X72553285Y-105289047D01*
X72553285Y-105143904D01*
X72601666Y-105047142D01*
X72698428Y-104998761D01*
X73230619Y-104998761D01*
X73327380Y-104756857D02*
X73327380Y-103982761D01*
X73182238Y-103305428D02*
X73230619Y-103402190D01*
X73230619Y-103595714D01*
X73182238Y-103692476D01*
X73133857Y-103740857D01*
X73037095Y-103789238D01*
X72746809Y-103789238D01*
X72650047Y-103740857D01*
X72601666Y-103692476D01*
X72553285Y-103595714D01*
X72553285Y-103402190D01*
X72601666Y-103305428D01*
X73230619Y-102724857D02*
X73182238Y-102821619D01*
X73133857Y-102870000D01*
X73037095Y-102918380D01*
X72746809Y-102918380D01*
X72650047Y-102870000D01*
X72601666Y-102821619D01*
X72553285Y-102724857D01*
X72553285Y-102579714D01*
X72601666Y-102482952D01*
X72650047Y-102434571D01*
X72746809Y-102386190D01*
X73037095Y-102386190D01*
X73133857Y-102434571D01*
X73182238Y-102482952D01*
X73230619Y-102579714D01*
X73230619Y-102724857D01*
X72553285Y-101950761D02*
X73230619Y-101950761D01*
X72650047Y-101950761D02*
X72601666Y-101902380D01*
X72553285Y-101805619D01*
X72553285Y-101660476D01*
X72601666Y-101563714D01*
X72698428Y-101515333D01*
X73230619Y-101515333D01*
X72553285Y-101176666D02*
X72553285Y-100789619D01*
X72214619Y-101031523D02*
X73085476Y-101031523D01*
X73182238Y-100983142D01*
X73230619Y-100886380D01*
X73230619Y-100789619D01*
X73230619Y-100450952D02*
X72553285Y-100450952D01*
X72746809Y-100450952D02*
X72650047Y-100402571D01*
X72601666Y-100354190D01*
X72553285Y-100257428D01*
X72553285Y-100160666D01*
X73230619Y-99676857D02*
X73182238Y-99773619D01*
X73133857Y-99822000D01*
X73037095Y-99870380D01*
X72746809Y-99870380D01*
X72650047Y-99822000D01*
X72601666Y-99773619D01*
X72553285Y-99676857D01*
X72553285Y-99531714D01*
X72601666Y-99434952D01*
X72650047Y-99386571D01*
X72746809Y-99338190D01*
X73037095Y-99338190D01*
X73133857Y-99386571D01*
X73182238Y-99434952D01*
X73230619Y-99531714D01*
X73230619Y-99676857D01*
X73230619Y-98757619D02*
X73182238Y-98854380D01*
X73085476Y-98902761D01*
X72214619Y-98902761D01*
X73230619Y-98225428D02*
X73182238Y-98322190D01*
X73085476Y-98370571D01*
X72214619Y-98370571D01*
X73182238Y-97451333D02*
X73230619Y-97548095D01*
X73230619Y-97741619D01*
X73182238Y-97838380D01*
X73085476Y-97886761D01*
X72698428Y-97886761D01*
X72601666Y-97838380D01*
X72553285Y-97741619D01*
X72553285Y-97548095D01*
X72601666Y-97451333D01*
X72698428Y-97402952D01*
X72795190Y-97402952D01*
X72891952Y-97886761D01*
X73230619Y-96967523D02*
X72553285Y-96967523D01*
X72746809Y-96967523D02*
X72650047Y-96919142D01*
X72601666Y-96870761D01*
X72553285Y-96774000D01*
X72553285Y-96677238D01*
X74331285Y-112449428D02*
X75347285Y-112449428D01*
X74379666Y-112449428D02*
X74331285Y-112352666D01*
X74331285Y-112159142D01*
X74379666Y-112062380D01*
X74428047Y-112014000D01*
X74524809Y-111965619D01*
X74815095Y-111965619D01*
X74911857Y-112014000D01*
X74960238Y-112062380D01*
X75008619Y-112159142D01*
X75008619Y-112352666D01*
X74960238Y-112449428D01*
X75008619Y-111094761D02*
X74476428Y-111094761D01*
X74379666Y-111143142D01*
X74331285Y-111239904D01*
X74331285Y-111433428D01*
X74379666Y-111530190D01*
X74960238Y-111094761D02*
X75008619Y-111191523D01*
X75008619Y-111433428D01*
X74960238Y-111530190D01*
X74863476Y-111578571D01*
X74766714Y-111578571D01*
X74669952Y-111530190D01*
X74621571Y-111433428D01*
X74621571Y-111191523D01*
X74573190Y-111094761D01*
X75008619Y-110610952D02*
X74331285Y-110610952D01*
X74524809Y-110610952D02*
X74428047Y-110562571D01*
X74379666Y-110514190D01*
X74331285Y-110417428D01*
X74331285Y-110320666D01*
X74331285Y-110127142D02*
X74331285Y-109740095D01*
X73992619Y-109982000D02*
X74863476Y-109982000D01*
X74960238Y-109933619D01*
X75008619Y-109836857D01*
X75008619Y-109740095D01*
X75105380Y-109643333D02*
X75105380Y-108869238D01*
X74331285Y-108627333D02*
X75008619Y-108627333D01*
X74428047Y-108627333D02*
X74379666Y-108578952D01*
X74331285Y-108482190D01*
X74331285Y-108337047D01*
X74379666Y-108240285D01*
X74476428Y-108191904D01*
X75008619Y-108191904D01*
X74331285Y-107272666D02*
X75008619Y-107272666D01*
X74331285Y-107708095D02*
X74863476Y-107708095D01*
X74960238Y-107659714D01*
X75008619Y-107562952D01*
X75008619Y-107417809D01*
X74960238Y-107321047D01*
X74911857Y-107272666D01*
X75008619Y-106788857D02*
X74331285Y-106788857D01*
X74428047Y-106788857D02*
X74379666Y-106740476D01*
X74331285Y-106643714D01*
X74331285Y-106498571D01*
X74379666Y-106401809D01*
X74476428Y-106353428D01*
X75008619Y-106353428D01*
X74476428Y-106353428D02*
X74379666Y-106305047D01*
X74331285Y-106208285D01*
X74331285Y-106063142D01*
X74379666Y-105966380D01*
X74476428Y-105918000D01*
X75008619Y-105918000D01*
X75008619Y-105434190D02*
X73992619Y-105434190D01*
X74379666Y-105434190D02*
X74331285Y-105337428D01*
X74331285Y-105143904D01*
X74379666Y-105047142D01*
X74428047Y-104998761D01*
X74524809Y-104950380D01*
X74815095Y-104950380D01*
X74911857Y-104998761D01*
X74960238Y-105047142D01*
X75008619Y-105143904D01*
X75008619Y-105337428D01*
X74960238Y-105434190D01*
X74960238Y-104127904D02*
X75008619Y-104224666D01*
X75008619Y-104418190D01*
X74960238Y-104514952D01*
X74863476Y-104563333D01*
X74476428Y-104563333D01*
X74379666Y-104514952D01*
X74331285Y-104418190D01*
X74331285Y-104224666D01*
X74379666Y-104127904D01*
X74476428Y-104079523D01*
X74573190Y-104079523D01*
X74669952Y-104563333D01*
X75008619Y-103644095D02*
X74331285Y-103644095D01*
X74524809Y-103644095D02*
X74428047Y-103595714D01*
X74379666Y-103547333D01*
X74331285Y-103450571D01*
X74331285Y-103353809D01*
X74911857Y-103015142D02*
X74960238Y-102966761D01*
X75008619Y-103015142D01*
X74960238Y-103063523D01*
X74911857Y-103015142D01*
X75008619Y-103015142D01*
X74379666Y-103015142D02*
X74428047Y-102966761D01*
X74476428Y-103015142D01*
X74428047Y-103063523D01*
X74379666Y-103015142D01*
X74476428Y-103015142D01*
X75008619Y-101225047D02*
X75008619Y-101805619D01*
X75008619Y-101515333D02*
X73992619Y-101515333D01*
X74137761Y-101612095D01*
X74234523Y-101708857D01*
X74282904Y-101805619D01*
X74089380Y-100838000D02*
X74041000Y-100789619D01*
X73992619Y-100692857D01*
X73992619Y-100450952D01*
X74041000Y-100354190D01*
X74089380Y-100305809D01*
X74186142Y-100257428D01*
X74282904Y-100257428D01*
X74428047Y-100305809D01*
X75008619Y-100886380D01*
X75008619Y-100257428D01*
X73992619Y-99918761D02*
X73992619Y-99241428D01*
X75008619Y-99676857D01*
X73992619Y-98660857D02*
X73992619Y-98564095D01*
X74041000Y-98467333D01*
X74089380Y-98418952D01*
X74186142Y-98370571D01*
X74379666Y-98322190D01*
X74621571Y-98322190D01*
X74815095Y-98370571D01*
X74911857Y-98418952D01*
X74960238Y-98467333D01*
X75008619Y-98564095D01*
X75008619Y-98660857D01*
X74960238Y-98757619D01*
X74911857Y-98805999D01*
X74815095Y-98854380D01*
X74621571Y-98902761D01*
X74379666Y-98902761D01*
X74186142Y-98854380D01*
X74089380Y-98805999D01*
X74041000Y-98757619D01*
X73992619Y-98660857D01*
X75770619Y-113296095D02*
X75770619Y-113199333D01*
X75819000Y-113102571D01*
X75867380Y-113054190D01*
X75964142Y-113005809D01*
X76157666Y-112957428D01*
X76399571Y-112957428D01*
X76593095Y-113005809D01*
X76689857Y-113054190D01*
X76738238Y-113102571D01*
X76786619Y-113199333D01*
X76786619Y-113296095D01*
X76738238Y-113392857D01*
X76689857Y-113441238D01*
X76593095Y-113489619D01*
X76399571Y-113538000D01*
X76157666Y-113538000D01*
X75964142Y-113489619D01*
X75867380Y-113441238D01*
X75819000Y-113392857D01*
X75770619Y-113296095D01*
X76206047Y-112376857D02*
X76157666Y-112473619D01*
X76109285Y-112522000D01*
X76012523Y-112570380D01*
X75964142Y-112570380D01*
X75867380Y-112522000D01*
X75819000Y-112473619D01*
X75770619Y-112376857D01*
X75770619Y-112183333D01*
X75819000Y-112086571D01*
X75867380Y-112038190D01*
X75964142Y-111989809D01*
X76012523Y-111989809D01*
X76109285Y-112038190D01*
X76157666Y-112086571D01*
X76206047Y-112183333D01*
X76206047Y-112376857D01*
X76254428Y-112473619D01*
X76302809Y-112522000D01*
X76399571Y-112570380D01*
X76593095Y-112570380D01*
X76689857Y-112522000D01*
X76738238Y-112473619D01*
X76786619Y-112376857D01*
X76786619Y-112183333D01*
X76738238Y-112086571D01*
X76689857Y-112038190D01*
X76593095Y-111989809D01*
X76399571Y-111989809D01*
X76302809Y-112038190D01*
X76254428Y-112086571D01*
X76206047Y-112183333D01*
X75722238Y-110828666D02*
X77028523Y-111699523D01*
X75867380Y-110538380D02*
X75819000Y-110490000D01*
X75770619Y-110393238D01*
X75770619Y-110151333D01*
X75819000Y-110054571D01*
X75867380Y-110006190D01*
X75964142Y-109957809D01*
X76060904Y-109957809D01*
X76206047Y-110006190D01*
X76786619Y-110586761D01*
X76786619Y-109957809D01*
X75770619Y-109328857D02*
X75770619Y-109232095D01*
X75819000Y-109135333D01*
X75867380Y-109086952D01*
X75964142Y-109038571D01*
X76157666Y-108990190D01*
X76399571Y-108990190D01*
X76593095Y-109038571D01*
X76689857Y-109086952D01*
X76738238Y-109135333D01*
X76786619Y-109232095D01*
X76786619Y-109328857D01*
X76738238Y-109425619D01*
X76689857Y-109474000D01*
X76593095Y-109522380D01*
X76399571Y-109570761D01*
X76157666Y-109570761D01*
X75964142Y-109522380D01*
X75867380Y-109474000D01*
X75819000Y-109425619D01*
X75770619Y-109328857D01*
X76786619Y-108022571D02*
X76786619Y-108603142D01*
X76786619Y-108312857D02*
X75770619Y-108312857D01*
X75915761Y-108409619D01*
X76012523Y-108506380D01*
X76060904Y-108603142D01*
X76206047Y-107442000D02*
X76157666Y-107538761D01*
X76109285Y-107587142D01*
X76012523Y-107635523D01*
X75964142Y-107635523D01*
X75867380Y-107587142D01*
X75819000Y-107538761D01*
X75770619Y-107442000D01*
X75770619Y-107248476D01*
X75819000Y-107151714D01*
X75867380Y-107103333D01*
X75964142Y-107054952D01*
X76012523Y-107054952D01*
X76109285Y-107103333D01*
X76157666Y-107151714D01*
X76206047Y-107248476D01*
X76206047Y-107442000D01*
X76254428Y-107538761D01*
X76302809Y-107587142D01*
X76399571Y-107635523D01*
X76593095Y-107635523D01*
X76689857Y-107587142D01*
X76738238Y-107538761D01*
X76786619Y-107442000D01*
X76786619Y-107248476D01*
X76738238Y-107151714D01*
X76689857Y-107103333D01*
X76593095Y-107054952D01*
X76399571Y-107054952D01*
X76302809Y-107103333D01*
X76254428Y-107151714D01*
X76206047Y-107248476D01*
X76109285Y-105942190D02*
X76786619Y-105700285D01*
X76109285Y-105458380D01*
X76738238Y-104684285D02*
X76786619Y-104781047D01*
X76786619Y-104974571D01*
X76738238Y-105071333D01*
X76641476Y-105119714D01*
X76254428Y-105119714D01*
X76157666Y-105071333D01*
X76109285Y-104974571D01*
X76109285Y-104781047D01*
X76157666Y-104684285D01*
X76254428Y-104635904D01*
X76351190Y-104635904D01*
X76447952Y-105119714D01*
X76786619Y-104200476D02*
X76109285Y-104200476D01*
X76302809Y-104200476D02*
X76206047Y-104152095D01*
X76157666Y-104103714D01*
X76109285Y-104006952D01*
X76109285Y-103910190D01*
X76786619Y-102265238D02*
X76786619Y-102845809D01*
X76786619Y-102555523D02*
X75770619Y-102555523D01*
X75915761Y-102652285D01*
X76012523Y-102749047D01*
X76060904Y-102845809D01*
X76689857Y-101829809D02*
X76738238Y-101781428D01*
X76786619Y-101829809D01*
X76738238Y-101878190D01*
X76689857Y-101829809D01*
X76786619Y-101829809D01*
X75770619Y-101152476D02*
X75770619Y-101055714D01*
X75819000Y-100958952D01*
X75867380Y-100910571D01*
X75964142Y-100862190D01*
X76157666Y-100813809D01*
X76399571Y-100813809D01*
X76593095Y-100862190D01*
X76689857Y-100910571D01*
X76738238Y-100958952D01*
X76786619Y-101055714D01*
X76786619Y-101152476D01*
X76738238Y-101249238D01*
X76689857Y-101297619D01*
X76593095Y-101346000D01*
X76399571Y-101394380D01*
X76157666Y-101394380D01*
X75964142Y-101346000D01*
X75867380Y-101297619D01*
X75819000Y-101249238D01*
X75770619Y-101152476D01*
X75770619Y-99120476D02*
X75770619Y-99604285D01*
X76254428Y-99652666D01*
X76206047Y-99604285D01*
X76157666Y-99507523D01*
X76157666Y-99265619D01*
X76206047Y-99168857D01*
X76254428Y-99120476D01*
X76351190Y-99072095D01*
X76593095Y-99072095D01*
X76689857Y-99120476D01*
X76738238Y-99168857D01*
X76786619Y-99265619D01*
X76786619Y-99507523D01*
X76738238Y-99604285D01*
X76689857Y-99652666D01*
X76786619Y-98733428D02*
X76109285Y-98201238D01*
X76109285Y-98733428D02*
X76786619Y-98201238D01*
X75770619Y-97910952D02*
X75770619Y-97282000D01*
X76157666Y-97620666D01*
X76157666Y-97475523D01*
X76206047Y-97378761D01*
X76254428Y-97330380D01*
X76351190Y-97282000D01*
X76593095Y-97282000D01*
X76689857Y-97330380D01*
X76738238Y-97378761D01*
X76786619Y-97475523D01*
X76786619Y-97765809D01*
X76738238Y-97862571D01*
X76689857Y-97910952D01*
D12*
G04 #@! TO.C,P2*
X190500000Y-113030000D02*
X190500000Y-123190000D01*
X177165000Y-113030000D02*
X190500000Y-113030000D01*
X177165000Y-123190000D02*
X190500000Y-123190000D01*
X177165000Y-113030000D02*
X177165000Y-123190000D01*
D15*
G04 #@! TO.C,P1*
X181760000Y-85810000D02*
X194560000Y-85810000D01*
X181760000Y-99610000D02*
X194560000Y-99610000D01*
X181760000Y-99610000D02*
X181760000Y-85810000D01*
X194560000Y-99610000D02*
X194560000Y-85810000D01*
D13*
G04 #@! TO.C,MDB1*
X167640000Y-135890000D02*
G75*
G03X167640000Y-135890000I-2540000J0D01*
G01*
X167640000Y-74930000D02*
G75*
G03X167640000Y-74930000I-2540000J0D01*
G01*
X76200000Y-130810000D02*
G75*
G03X76200000Y-130810000I-2540000J0D01*
G01*
X76200000Y-80010000D02*
G75*
G03X76200000Y-80010000I-2540000J0D01*
G01*
D12*
G04 #@! TO.C,J1*
X105250000Y-86435000D02*
X105250000Y-98985000D01*
X105250000Y-98985000D02*
X136050000Y-98985000D01*
X136050000Y-98985000D02*
X136050000Y-86435000D01*
X136050000Y-86435000D02*
X105250000Y-86435000D01*
G04 #@! TO.C,J2*
X105250000Y-111835000D02*
X105250000Y-124385000D01*
X105250000Y-124385000D02*
X136050000Y-124385000D01*
X136050000Y-124385000D02*
X136050000Y-111835000D01*
X136050000Y-111835000D02*
X105250000Y-111835000D01*
D15*
G04 #@! TO.C,J3*
X161300000Y-92710000D02*
G75*
G03X161300000Y-92710000I-8900000J0D01*
G01*
X153400000Y-88810000D02*
G75*
G02X151400000Y-88810000I-1000000J0D01*
G01*
X153402533Y-88810652D02*
G75*
G02X151400001Y-88810001I-1002533J-3899348D01*
G01*
G04 #@! TO.C,J4*
X161300000Y-118110000D02*
G75*
G03X161300000Y-118110000I-8900000J0D01*
G01*
X153400000Y-114210000D02*
G75*
G02X151400000Y-114210000I-1000000J0D01*
G01*
X153402533Y-114210652D02*
G75*
G02X151400001Y-114210001I-1002533J-3899348D01*
G01*
D13*
G04 #@! TO.C,L1*
X92075000Y-96520000D02*
X92075000Y-88900000D01*
X94615000Y-96520000D02*
X92075000Y-96520000D01*
X94615000Y-88900000D02*
X94615000Y-96520000D01*
X92075000Y-88900000D02*
X94615000Y-88900000D01*
X93345000Y-92710000D02*
X93345000Y-91694000D01*
X92837000Y-92202000D02*
X93853000Y-92202000D01*
G04 #@! TO.C,L2*
X94615000Y-96520000D02*
X94615000Y-88900000D01*
X97155000Y-96520000D02*
X94615000Y-96520000D01*
X97155000Y-88900000D02*
X97155000Y-96520000D01*
X94615000Y-88900000D02*
X97155000Y-88900000D01*
X95885000Y-92710000D02*
X95885000Y-91694000D01*
X95377000Y-92202000D02*
X96393000Y-92202000D01*
G04 #@! TO.C,L3*
X97155000Y-96520000D02*
X97155000Y-88900000D01*
X99695000Y-96520000D02*
X97155000Y-96520000D01*
X99695000Y-88900000D02*
X99695000Y-96520000D01*
X97155000Y-88900000D02*
X99695000Y-88900000D01*
X98425000Y-92710000D02*
X98425000Y-91694000D01*
X97917000Y-92202000D02*
X98933000Y-92202000D01*
G04 #@! TO.C,L4*
X99695000Y-96520000D02*
X99695000Y-88900000D01*
X102235000Y-96520000D02*
X99695000Y-96520000D01*
X102235000Y-88900000D02*
X102235000Y-96520000D01*
X99695000Y-88900000D02*
X102235000Y-88900000D01*
X100965000Y-92710000D02*
X100965000Y-91694000D01*
X100457000Y-92202000D02*
X101473000Y-92202000D01*
G04 #@! TO.C,L5*
X92075000Y-121920000D02*
X92075000Y-114300000D01*
X94615000Y-121920000D02*
X92075000Y-121920000D01*
X94615000Y-114300000D02*
X94615000Y-121920000D01*
X92075000Y-114300000D02*
X94615000Y-114300000D01*
X93345000Y-118110000D02*
X93345000Y-117094000D01*
X92837000Y-117602000D02*
X93853000Y-117602000D01*
G04 #@! TO.C,L6*
X94615000Y-121920000D02*
X94615000Y-114300000D01*
X97155000Y-121920000D02*
X94615000Y-121920000D01*
X97155000Y-114300000D02*
X97155000Y-121920000D01*
X94615000Y-114300000D02*
X97155000Y-114300000D01*
X95885000Y-118110000D02*
X95885000Y-117094000D01*
X95377000Y-117602000D02*
X96393000Y-117602000D01*
G04 #@! TO.C,L7*
X97155000Y-121920000D02*
X97155000Y-114300000D01*
X99695000Y-121920000D02*
X97155000Y-121920000D01*
X99695000Y-114300000D02*
X99695000Y-121920000D01*
X97155000Y-114300000D02*
X99695000Y-114300000D01*
X98425000Y-118110000D02*
X98425000Y-117094000D01*
X97917000Y-117602000D02*
X98933000Y-117602000D01*
G04 #@! TO.C,L8*
X99695000Y-121920000D02*
X99695000Y-114300000D01*
X102235000Y-121920000D02*
X99695000Y-121920000D01*
X102235000Y-114300000D02*
X102235000Y-121920000D01*
X99695000Y-114300000D02*
X102235000Y-114300000D01*
X100965000Y-118110000D02*
X100965000Y-117094000D01*
X100457000Y-117602000D02*
X101473000Y-117602000D01*
G04 #@! TD*
G04 #@! TO.C,P2*
D11*
X188480095Y-124919619D02*
X188480095Y-123903619D01*
X188867142Y-123903619D01*
X188963904Y-123952000D01*
X189012285Y-124000380D01*
X189060666Y-124097142D01*
X189060666Y-124242285D01*
X189012285Y-124339047D01*
X188963904Y-124387428D01*
X188867142Y-124435809D01*
X188480095Y-124435809D01*
X189447714Y-124000380D02*
X189496095Y-123952000D01*
X189592857Y-123903619D01*
X189834761Y-123903619D01*
X189931523Y-123952000D01*
X189979904Y-124000380D01*
X190028285Y-124097142D01*
X190028285Y-124193904D01*
X189979904Y-124339047D01*
X189399333Y-124919619D01*
X190028285Y-124919619D01*
G04 #@! TO.C,P1*
X188480095Y-84914619D02*
X188480095Y-83898619D01*
X188867142Y-83898619D01*
X188963904Y-83947000D01*
X189012285Y-83995380D01*
X189060666Y-84092142D01*
X189060666Y-84237285D01*
X189012285Y-84334047D01*
X188963904Y-84382428D01*
X188867142Y-84430809D01*
X188480095Y-84430809D01*
X190028285Y-84914619D02*
X189447714Y-84914619D01*
X189738000Y-84914619D02*
X189738000Y-83898619D01*
X189641238Y-84043761D01*
X189544476Y-84140523D01*
X189447714Y-84188904D01*
G04 #@! TO.C,J1*
X120311333Y-84533619D02*
X120311333Y-85259333D01*
X120262952Y-85404476D01*
X120166190Y-85501238D01*
X120021047Y-85549619D01*
X119924285Y-85549619D01*
X121327333Y-85549619D02*
X120746761Y-85549619D01*
X121037047Y-85549619D02*
X121037047Y-84533619D01*
X120940285Y-84678761D01*
X120843523Y-84775523D01*
X120746761Y-84823904D01*
X114699142Y-97082428D02*
X114360476Y-97082428D01*
X114360476Y-97614619D02*
X114360476Y-96598619D01*
X114844285Y-96598619D01*
X115231333Y-97082428D02*
X115570000Y-97082428D01*
X115715142Y-97614619D02*
X115231333Y-97614619D01*
X115231333Y-96598619D01*
X115715142Y-96598619D01*
X116150571Y-97614619D02*
X116150571Y-96598619D01*
X116489238Y-97324333D01*
X116827904Y-96598619D01*
X116827904Y-97614619D01*
X117263333Y-97324333D02*
X117747142Y-97324333D01*
X117166571Y-97614619D02*
X117505238Y-96598619D01*
X117843904Y-97614619D01*
X118666380Y-97614619D02*
X118182571Y-97614619D01*
X118182571Y-96598619D01*
X119005047Y-97082428D02*
X119343714Y-97082428D01*
X119488857Y-97614619D02*
X119005047Y-97614619D01*
X119005047Y-96598619D01*
X119488857Y-96598619D01*
X120650000Y-97566238D02*
X120795142Y-97614619D01*
X121037047Y-97614619D01*
X121133809Y-97566238D01*
X121182190Y-97517857D01*
X121230571Y-97421095D01*
X121230571Y-97324333D01*
X121182190Y-97227571D01*
X121133809Y-97179190D01*
X121037047Y-97130809D01*
X120843523Y-97082428D01*
X120746761Y-97034047D01*
X120698380Y-96985666D01*
X120650000Y-96888904D01*
X120650000Y-96792142D01*
X120698380Y-96695380D01*
X120746761Y-96647000D01*
X120843523Y-96598619D01*
X121085428Y-96598619D01*
X121230571Y-96647000D01*
X121859523Y-96598619D02*
X122053047Y-96598619D01*
X122149809Y-96647000D01*
X122246571Y-96743761D01*
X122294952Y-96937285D01*
X122294952Y-97275952D01*
X122246571Y-97469476D01*
X122149809Y-97566238D01*
X122053047Y-97614619D01*
X121859523Y-97614619D01*
X121762761Y-97566238D01*
X121666000Y-97469476D01*
X121617619Y-97275952D01*
X121617619Y-96937285D01*
X121666000Y-96743761D01*
X121762761Y-96647000D01*
X121859523Y-96598619D01*
X123310952Y-97517857D02*
X123262571Y-97566238D01*
X123117428Y-97614619D01*
X123020666Y-97614619D01*
X122875523Y-97566238D01*
X122778761Y-97469476D01*
X122730380Y-97372714D01*
X122682000Y-97179190D01*
X122682000Y-97034047D01*
X122730380Y-96840523D01*
X122778761Y-96743761D01*
X122875523Y-96647000D01*
X123020666Y-96598619D01*
X123117428Y-96598619D01*
X123262571Y-96647000D01*
X123310952Y-96695380D01*
X123746380Y-97614619D02*
X123746380Y-96598619D01*
X124326952Y-97614619D02*
X123891523Y-97034047D01*
X124326952Y-96598619D02*
X123746380Y-97179190D01*
X124762380Y-97082428D02*
X125101047Y-97082428D01*
X125246190Y-97614619D02*
X124762380Y-97614619D01*
X124762380Y-96598619D01*
X125246190Y-96598619D01*
X125536476Y-96598619D02*
X126117047Y-96598619D01*
X125826761Y-97614619D02*
X125826761Y-96598619D01*
X126407333Y-97566238D02*
X126552476Y-97614619D01*
X126794380Y-97614619D01*
X126891142Y-97566238D01*
X126939523Y-97517857D01*
X126987904Y-97421095D01*
X126987904Y-97324333D01*
X126939523Y-97227571D01*
X126891142Y-97179190D01*
X126794380Y-97130809D01*
X126600857Y-97082428D01*
X126504095Y-97034047D01*
X126455714Y-96985666D01*
X126407333Y-96888904D01*
X126407333Y-96792142D01*
X126455714Y-96695380D01*
X126504095Y-96647000D01*
X126600857Y-96598619D01*
X126842761Y-96598619D01*
X126987904Y-96647000D01*
G04 #@! TO.C,J2*
X120311333Y-125173619D02*
X120311333Y-125899333D01*
X120262952Y-126044476D01*
X120166190Y-126141238D01*
X120021047Y-126189619D01*
X119924285Y-126189619D01*
X120746761Y-125270380D02*
X120795142Y-125222000D01*
X120891904Y-125173619D01*
X121133809Y-125173619D01*
X121230571Y-125222000D01*
X121278952Y-125270380D01*
X121327333Y-125367142D01*
X121327333Y-125463904D01*
X121278952Y-125609047D01*
X120698380Y-126189619D01*
X121327333Y-126189619D01*
X116852095Y-123014619D02*
X116852095Y-121998619D01*
X117190761Y-122724333D01*
X117529428Y-121998619D01*
X117529428Y-123014619D01*
X117964857Y-122724333D02*
X118448666Y-122724333D01*
X117868095Y-123014619D02*
X118206761Y-121998619D01*
X118545428Y-123014619D01*
X119367904Y-123014619D02*
X118884095Y-123014619D01*
X118884095Y-121998619D01*
X119706571Y-122482428D02*
X120045238Y-122482428D01*
X120190380Y-123014619D02*
X119706571Y-123014619D01*
X119706571Y-121998619D01*
X120190380Y-121998619D01*
X121399904Y-123014619D02*
X121399904Y-121998619D01*
X121786952Y-121998619D01*
X121883714Y-122047000D01*
X121932095Y-122095380D01*
X121980476Y-122192142D01*
X121980476Y-122337285D01*
X121932095Y-122434047D01*
X121883714Y-122482428D01*
X121786952Y-122530809D01*
X121399904Y-122530809D01*
X122415904Y-123014619D02*
X122415904Y-121998619D01*
X122899714Y-123014619D02*
X122899714Y-121998619D01*
X123480285Y-123014619D01*
X123480285Y-121998619D01*
X123915714Y-122966238D02*
X124060857Y-123014619D01*
X124302761Y-123014619D01*
X124399523Y-122966238D01*
X124447904Y-122917857D01*
X124496285Y-122821095D01*
X124496285Y-122724333D01*
X124447904Y-122627571D01*
X124399523Y-122579190D01*
X124302761Y-122530809D01*
X124109238Y-122482428D01*
X124012476Y-122434047D01*
X123964095Y-122385666D01*
X123915714Y-122288904D01*
X123915714Y-122192142D01*
X123964095Y-122095380D01*
X124012476Y-122047000D01*
X124109238Y-121998619D01*
X124351142Y-121998619D01*
X124496285Y-122047000D01*
G04 #@! TO.C,J3*
X152061333Y-82153619D02*
X152061333Y-82879333D01*
X152012952Y-83024476D01*
X151916190Y-83121238D01*
X151771047Y-83169619D01*
X151674285Y-83169619D01*
X152448380Y-82153619D02*
X153077333Y-82153619D01*
X152738666Y-82540666D01*
X152883809Y-82540666D01*
X152980571Y-82589047D01*
X153028952Y-82637428D01*
X153077333Y-82734190D01*
X153077333Y-82976095D01*
X153028952Y-83072857D01*
X152980571Y-83121238D01*
X152883809Y-83169619D01*
X152593523Y-83169619D01*
X152496761Y-83121238D01*
X152448380Y-83072857D01*
G04 #@! TO.C,J4*
X152061333Y-127713619D02*
X152061333Y-128439333D01*
X152012952Y-128584476D01*
X151916190Y-128681238D01*
X151771047Y-128729619D01*
X151674285Y-128729619D01*
X152980571Y-128052285D02*
X152980571Y-128729619D01*
X152738666Y-127665238D02*
X152496761Y-128390952D01*
X153125714Y-128390952D01*
G04 #@! TO.C,L1*
D14*
X93218000Y-88609714D02*
X92855142Y-88609714D01*
X92855142Y-87847714D01*
X93871142Y-88609714D02*
X93435714Y-88609714D01*
X93653428Y-88609714D02*
X93653428Y-87847714D01*
X93580857Y-87956571D01*
X93508285Y-88029142D01*
X93435714Y-88065428D01*
D11*
X92837000Y-93443904D02*
X92788619Y-93540666D01*
X92788619Y-93685809D01*
X92837000Y-93830952D01*
X92933761Y-93927714D01*
X93030523Y-93976095D01*
X93224047Y-94024476D01*
X93369190Y-94024476D01*
X93562714Y-93976095D01*
X93659476Y-93927714D01*
X93756238Y-93830952D01*
X93804619Y-93685809D01*
X93804619Y-93589047D01*
X93756238Y-93443904D01*
X93707857Y-93395523D01*
X93369190Y-93395523D01*
X93369190Y-93589047D01*
G04 #@! TO.C,L2*
D14*
X95758000Y-88609714D02*
X95395142Y-88609714D01*
X95395142Y-87847714D01*
X95975714Y-87920285D02*
X96012000Y-87884000D01*
X96084571Y-87847714D01*
X96266000Y-87847714D01*
X96338571Y-87884000D01*
X96374857Y-87920285D01*
X96411142Y-87992857D01*
X96411142Y-88065428D01*
X96374857Y-88174285D01*
X95939428Y-88609714D01*
X96411142Y-88609714D01*
D11*
X95377000Y-93443904D02*
X95328619Y-93540666D01*
X95328619Y-93685809D01*
X95377000Y-93830952D01*
X95473761Y-93927714D01*
X95570523Y-93976095D01*
X95764047Y-94024476D01*
X95909190Y-94024476D01*
X96102714Y-93976095D01*
X96199476Y-93927714D01*
X96296238Y-93830952D01*
X96344619Y-93685809D01*
X96344619Y-93589047D01*
X96296238Y-93443904D01*
X96247857Y-93395523D01*
X95909190Y-93395523D01*
X95909190Y-93589047D01*
G04 #@! TO.C,L3*
D14*
X98298000Y-88609714D02*
X97935142Y-88609714D01*
X97935142Y-87847714D01*
X98479428Y-87847714D02*
X98951142Y-87847714D01*
X98697142Y-88138000D01*
X98806000Y-88138000D01*
X98878571Y-88174285D01*
X98914857Y-88210571D01*
X98951142Y-88283142D01*
X98951142Y-88464571D01*
X98914857Y-88537142D01*
X98878571Y-88573428D01*
X98806000Y-88609714D01*
X98588285Y-88609714D01*
X98515714Y-88573428D01*
X98479428Y-88537142D01*
D11*
X97917000Y-93443904D02*
X97868619Y-93540666D01*
X97868619Y-93685809D01*
X97917000Y-93830952D01*
X98013761Y-93927714D01*
X98110523Y-93976095D01*
X98304047Y-94024476D01*
X98449190Y-94024476D01*
X98642714Y-93976095D01*
X98739476Y-93927714D01*
X98836238Y-93830952D01*
X98884619Y-93685809D01*
X98884619Y-93589047D01*
X98836238Y-93443904D01*
X98787857Y-93395523D01*
X98449190Y-93395523D01*
X98449190Y-93589047D01*
G04 #@! TO.C,L4*
D14*
X100838000Y-88609714D02*
X100475142Y-88609714D01*
X100475142Y-87847714D01*
X101418571Y-88101714D02*
X101418571Y-88609714D01*
X101237142Y-87811428D02*
X101055714Y-88355714D01*
X101527428Y-88355714D01*
D11*
X100457000Y-93443904D02*
X100408619Y-93540666D01*
X100408619Y-93685809D01*
X100457000Y-93830952D01*
X100553761Y-93927714D01*
X100650523Y-93976095D01*
X100844047Y-94024476D01*
X100989190Y-94024476D01*
X101182714Y-93976095D01*
X101279476Y-93927714D01*
X101376238Y-93830952D01*
X101424619Y-93685809D01*
X101424619Y-93589047D01*
X101376238Y-93443904D01*
X101327857Y-93395523D01*
X100989190Y-93395523D01*
X100989190Y-93589047D01*
G04 #@! TO.C,L5*
D14*
X93218000Y-122954714D02*
X92855142Y-122954714D01*
X92855142Y-122192714D01*
X93834857Y-122192714D02*
X93472000Y-122192714D01*
X93435714Y-122555571D01*
X93472000Y-122519285D01*
X93544571Y-122483000D01*
X93726000Y-122483000D01*
X93798571Y-122519285D01*
X93834857Y-122555571D01*
X93871142Y-122628142D01*
X93871142Y-122809571D01*
X93834857Y-122882142D01*
X93798571Y-122918428D01*
X93726000Y-122954714D01*
X93544571Y-122954714D01*
X93472000Y-122918428D01*
X93435714Y-122882142D01*
D11*
X92837000Y-118843904D02*
X92788619Y-118940666D01*
X92788619Y-119085809D01*
X92837000Y-119230952D01*
X92933761Y-119327714D01*
X93030523Y-119376095D01*
X93224047Y-119424476D01*
X93369190Y-119424476D01*
X93562714Y-119376095D01*
X93659476Y-119327714D01*
X93756238Y-119230952D01*
X93804619Y-119085809D01*
X93804619Y-118989047D01*
X93756238Y-118843904D01*
X93707857Y-118795523D01*
X93369190Y-118795523D01*
X93369190Y-118989047D01*
G04 #@! TO.C,L6*
D14*
X95758000Y-122954714D02*
X95395142Y-122954714D01*
X95395142Y-122192714D01*
X96338571Y-122192714D02*
X96193428Y-122192714D01*
X96120857Y-122229000D01*
X96084571Y-122265285D01*
X96012000Y-122374142D01*
X95975714Y-122519285D01*
X95975714Y-122809571D01*
X96012000Y-122882142D01*
X96048285Y-122918428D01*
X96120857Y-122954714D01*
X96266000Y-122954714D01*
X96338571Y-122918428D01*
X96374857Y-122882142D01*
X96411142Y-122809571D01*
X96411142Y-122628142D01*
X96374857Y-122555571D01*
X96338571Y-122519285D01*
X96266000Y-122483000D01*
X96120857Y-122483000D01*
X96048285Y-122519285D01*
X96012000Y-122555571D01*
X95975714Y-122628142D01*
D11*
X95377000Y-118843904D02*
X95328619Y-118940666D01*
X95328619Y-119085809D01*
X95377000Y-119230952D01*
X95473761Y-119327714D01*
X95570523Y-119376095D01*
X95764047Y-119424476D01*
X95909190Y-119424476D01*
X96102714Y-119376095D01*
X96199476Y-119327714D01*
X96296238Y-119230952D01*
X96344619Y-119085809D01*
X96344619Y-118989047D01*
X96296238Y-118843904D01*
X96247857Y-118795523D01*
X95909190Y-118795523D01*
X95909190Y-118989047D01*
G04 #@! TO.C,L7*
D14*
X98298000Y-122954714D02*
X97935142Y-122954714D01*
X97935142Y-122192714D01*
X98479428Y-122192714D02*
X98987428Y-122192714D01*
X98660857Y-122954714D01*
D11*
X97917000Y-118843904D02*
X97868619Y-118940666D01*
X97868619Y-119085809D01*
X97917000Y-119230952D01*
X98013761Y-119327714D01*
X98110523Y-119376095D01*
X98304047Y-119424476D01*
X98449190Y-119424476D01*
X98642714Y-119376095D01*
X98739476Y-119327714D01*
X98836238Y-119230952D01*
X98884619Y-119085809D01*
X98884619Y-118989047D01*
X98836238Y-118843904D01*
X98787857Y-118795523D01*
X98449190Y-118795523D01*
X98449190Y-118989047D01*
G04 #@! TO.C,L8*
D14*
X100838000Y-122954714D02*
X100475142Y-122954714D01*
X100475142Y-122192714D01*
X101200857Y-122519285D02*
X101128285Y-122483000D01*
X101092000Y-122446714D01*
X101055714Y-122374142D01*
X101055714Y-122337857D01*
X101092000Y-122265285D01*
X101128285Y-122229000D01*
X101200857Y-122192714D01*
X101346000Y-122192714D01*
X101418571Y-122229000D01*
X101454857Y-122265285D01*
X101491142Y-122337857D01*
X101491142Y-122374142D01*
X101454857Y-122446714D01*
X101418571Y-122483000D01*
X101346000Y-122519285D01*
X101200857Y-122519285D01*
X101128285Y-122555571D01*
X101092000Y-122591857D01*
X101055714Y-122664428D01*
X101055714Y-122809571D01*
X101092000Y-122882142D01*
X101128285Y-122918428D01*
X101200857Y-122954714D01*
X101346000Y-122954714D01*
X101418571Y-122918428D01*
X101454857Y-122882142D01*
X101491142Y-122809571D01*
X101491142Y-122664428D01*
X101454857Y-122591857D01*
X101418571Y-122555571D01*
X101346000Y-122519285D01*
D11*
X100457000Y-118843904D02*
X100408619Y-118940666D01*
X100408619Y-119085809D01*
X100457000Y-119230952D01*
X100553761Y-119327714D01*
X100650523Y-119376095D01*
X100844047Y-119424476D01*
X100989190Y-119424476D01*
X101182714Y-119376095D01*
X101279476Y-119327714D01*
X101376238Y-119230952D01*
X101424619Y-119085809D01*
X101424619Y-118989047D01*
X101376238Y-118843904D01*
X101327857Y-118795523D01*
X100989190Y-118795523D01*
X100989190Y-118989047D01*
G04 #@! TD*
%LPC*%
D16*
G04 #@! TO.C,P2*
X185496200Y-122605800D03*
X185496200Y-113614200D03*
D17*
X178511200Y-118110000D03*
D18*
X183997600Y-118110000D03*
D19*
X187502800Y-118110000D03*
G04 #@! TD*
D20*
G04 #@! TO.C,P1*
X175160000Y-96910000D03*
X175160000Y-92710000D03*
X175160000Y-88510000D03*
X180660000Y-96910000D03*
X180660000Y-92710000D03*
D21*
X180660000Y-88510000D03*
D22*
X187960000Y-96910000D03*
X187960000Y-88510000D03*
G04 #@! TD*
D23*
G04 #@! TO.C,MDB1*
X133350000Y-74930000D03*
X130810000Y-74930000D03*
X128270000Y-74930000D03*
X125730000Y-74930000D03*
X123190000Y-74930000D03*
X120650000Y-74930000D03*
X118110000Y-74930000D03*
X115570000Y-74930000D03*
X113030000Y-74930000D03*
X133350000Y-135890000D03*
X130810000Y-135890000D03*
X128270000Y-135890000D03*
X125730000Y-135890000D03*
X123190000Y-135890000D03*
X120650000Y-135890000D03*
X118110000Y-135890000D03*
X115570000Y-135890000D03*
X113030000Y-135890000D03*
D24*
X165100000Y-74930000D03*
X165100000Y-135890000D03*
X73660000Y-130810000D03*
X73660000Y-80010000D03*
D23*
X72390000Y-135890000D03*
X74930000Y-135890000D03*
X77470000Y-135890000D03*
X80010000Y-135890000D03*
X82550000Y-135890000D03*
X85090000Y-135890000D03*
X87630000Y-135890000D03*
X90170000Y-135890000D03*
X92710000Y-135890000D03*
X95250000Y-135890000D03*
X97790000Y-135890000D03*
X100330000Y-135890000D03*
X102870000Y-135890000D03*
X105410000Y-135890000D03*
X107950000Y-135890000D03*
X110490000Y-135890000D03*
X110490000Y-74930000D03*
X107950000Y-74930000D03*
X105410000Y-74930000D03*
X102870000Y-74930000D03*
X100330000Y-74930000D03*
X97790000Y-74930000D03*
X95250000Y-74930000D03*
X92710000Y-74930000D03*
X90170000Y-74930000D03*
X87630000Y-74930000D03*
X85090000Y-74930000D03*
X82550000Y-74930000D03*
X80010000Y-74930000D03*
D25*
X72390000Y-74930000D03*
D23*
X77470000Y-74930000D03*
X74930000Y-74930000D03*
G04 #@! TD*
D26*
G04 #@! TO.C,J1*
X108155000Y-92710000D03*
X133142000Y-92710000D03*
D27*
X115110000Y-91290000D03*
X117880000Y-91290000D03*
X120650000Y-91290000D03*
X123420000Y-91290000D03*
D28*
X126190000Y-91290000D03*
D27*
X116495000Y-94130000D03*
X119265000Y-94130000D03*
X122035000Y-94130000D03*
X124805000Y-94130000D03*
G04 #@! TD*
D26*
G04 #@! TO.C,J2*
X108155000Y-118110000D03*
X133142000Y-118110000D03*
D28*
X115110000Y-116690000D03*
D27*
X117880000Y-116690000D03*
X120650000Y-116690000D03*
X123420000Y-116690000D03*
X126190000Y-116690000D03*
X116495000Y-119530000D03*
X119265000Y-119530000D03*
X122035000Y-119530000D03*
X124805000Y-119530000D03*
G04 #@! TD*
D29*
G04 #@! TO.C,J3*
X152400000Y-85710000D03*
D30*
X150632200Y-94477800D03*
X154167800Y-94477800D03*
X154167800Y-90942200D03*
X150632200Y-90942200D03*
X152400000Y-92710000D03*
G04 #@! TD*
D29*
G04 #@! TO.C,J4*
X152400000Y-111110000D03*
D30*
X150632200Y-119877800D03*
X154167800Y-119877800D03*
X154167800Y-116342200D03*
X150632200Y-116342200D03*
X152400000Y-118110000D03*
G04 #@! TD*
D31*
G04 #@! TO.C,L1*
X93345000Y-95250000D03*
X93345000Y-90170000D03*
G04 #@! TD*
G04 #@! TO.C,L2*
X95885000Y-95250000D03*
X95885000Y-90170000D03*
G04 #@! TD*
G04 #@! TO.C,L3*
X98425000Y-95250000D03*
X98425000Y-90170000D03*
G04 #@! TD*
G04 #@! TO.C,L4*
X100965000Y-95250000D03*
X100965000Y-90170000D03*
G04 #@! TD*
G04 #@! TO.C,L5*
X93345000Y-120650000D03*
X93345000Y-115570000D03*
G04 #@! TD*
G04 #@! TO.C,L6*
X95885000Y-120650000D03*
X95885000Y-115570000D03*
G04 #@! TD*
G04 #@! TO.C,L7*
X98425000Y-120650000D03*
X98425000Y-115570000D03*
G04 #@! TD*
G04 #@! TO.C,L8*
X100965000Y-120650000D03*
X100965000Y-115570000D03*
G04 #@! TD*
M02*
