G04 #@! TF.GenerationSoftware,KiCad,Pcbnew,6.0.0-rc1-unknown-7c11d03~66~ubuntu18.04.1*
G04 #@! TF.CreationDate,2018-08-27T10:42:18-04:00*
G04 #@! TF.ProjectId,smart_vision_controller_5x3,736D6172745F766973696F6E5F636F6E,1.0*
G04 #@! TF.SameCoordinates,Original*
G04 #@! TF.FileFunction,Copper,L1,Top,Signal*
G04 #@! TF.FilePolarity,Positive*
%FSLAX46Y46*%
G04 Gerber Fmt 4.6, Leading zero omitted, Abs format (unit mm)*
G04 Created by KiCad (PCBNEW 6.0.0-rc1-unknown-7c11d03~66~ubuntu18.04.1) date Mon Aug 27 10:42:18 2018*
%MOMM*%
%LPD*%
G01*
G04 APERTURE LIST*
G04 #@! TA.AperFunction,NonConductor*
%ADD10C,0.228600*%
G04 #@! TD*
G04 #@! TA.AperFunction,ComponentPad*
%ADD11O,5.080000X3.556000*%
G04 #@! TD*
G04 #@! TA.AperFunction,ComponentPad*
%ADD12O,4.064000X5.080000*%
G04 #@! TD*
G04 #@! TA.AperFunction,ComponentPad*
%ADD13O,4.572000X3.556000*%
G04 #@! TD*
G04 #@! TA.AperFunction,ComponentPad*
%ADD14C,1.930400*%
G04 #@! TD*
G04 #@! TA.AperFunction,ComponentPad*
%ADD15O,4.000000X3.000000*%
G04 #@! TD*
G04 #@! TA.AperFunction,ComponentPad*
%ADD16R,4.000000X3.000000*%
G04 #@! TD*
G04 #@! TA.AperFunction,ComponentPad*
%ADD17C,4.000000*%
G04 #@! TD*
G04 #@! TA.AperFunction,ComponentPad*
%ADD18O,1.854200X2.540000*%
G04 #@! TD*
G04 #@! TA.AperFunction,ComponentPad*
%ADD19C,3.556000*%
G04 #@! TD*
G04 #@! TA.AperFunction,ComponentPad*
%ADD20R,1.854200X2.540000*%
G04 #@! TD*
G04 #@! TA.AperFunction,ComponentPad*
%ADD21O,5.000000X6.000000*%
G04 #@! TD*
G04 #@! TA.AperFunction,ComponentPad*
%ADD22O,1.600000X2.200000*%
G04 #@! TD*
G04 #@! TA.AperFunction,ComponentPad*
%ADD23R,1.600000X2.200000*%
G04 #@! TD*
G04 #@! TA.AperFunction,ComponentPad*
%ADD24C,3.000000*%
G04 #@! TD*
G04 #@! TA.AperFunction,ComponentPad*
%ADD25O,1.500000X2.500000*%
G04 #@! TD*
G04 #@! TA.AperFunction,ComponentPad*
%ADD26O,1.524000X2.032000*%
G04 #@! TD*
G04 #@! TA.AperFunction,ViaPad*
%ADD27C,1.219200*%
G04 #@! TD*
G04 #@! TA.AperFunction,ViaPad*
%ADD28C,0.889000*%
G04 #@! TD*
G04 #@! TA.AperFunction,ViaPad*
%ADD29C,1.625600*%
G04 #@! TD*
G04 #@! TA.AperFunction,Conductor*
%ADD30C,1.219200*%
G04 #@! TD*
G04 #@! TA.AperFunction,Conductor*
%ADD31C,0.406400*%
G04 #@! TD*
G04 #@! TA.AperFunction,Conductor*
%ADD32C,1.625600*%
G04 #@! TD*
G04 #@! TA.AperFunction,Conductor*
%ADD33C,0.609600*%
G04 #@! TD*
G04 #@! TA.AperFunction,Conductor*
%ADD34C,0.254000*%
G04 #@! TD*
G04 APERTURE END LIST*
D10*
X191135000Y-71755000D02*
X69850000Y-71755000D01*
X191135000Y-139065000D02*
X191135000Y-71755000D01*
X69850000Y-139065000D02*
X191135000Y-139065000D01*
X69850000Y-71755000D02*
X69850000Y-139065000D01*
D11*
G04 #@! TO.P,P2,*
G04 #@! TO.N,*
X185496200Y-122605800D03*
X185496200Y-113614200D03*
D12*
G04 #@! TO.P,P2,1*
G04 #@! TO.N,VAA*
X178511200Y-118110000D03*
D13*
G04 #@! TO.P,P2,2*
G04 #@! TO.N,GND*
X183997600Y-118110000D03*
D14*
G04 #@! TO.P,P2,*
G04 #@! TO.N,*
X187502800Y-118110000D03*
G04 #@! TD*
D15*
G04 #@! TO.P,P1,6*
G04 #@! TO.N,GND*
X175160000Y-96910000D03*
G04 #@! TO.P,P1,5*
X175160000Y-92710000D03*
G04 #@! TO.P,P1,4*
X175160000Y-88510000D03*
G04 #@! TO.P,P1,3*
G04 #@! TO.N,VAA*
X180660000Y-96910000D03*
G04 #@! TO.P,P1,2*
X180660000Y-92710000D03*
D16*
G04 #@! TO.P,P1,1*
X180660000Y-88510000D03*
D17*
G04 #@! TO.P,P1,*
G04 #@! TO.N,*
X187960000Y-96910000D03*
X187960000Y-88510000D03*
G04 #@! TD*
D18*
G04 #@! TO.P,MDB1,46*
G04 #@! TO.N,N/C*
X133350000Y-74930000D03*
G04 #@! TO.P,MDB1,45*
X130810000Y-74930000D03*
G04 #@! TO.P,MDB1,30*
G04 #@! TO.N,/SIGNAL_3*
X128270000Y-74930000D03*
G04 #@! TO.P,MDB1,29*
G04 #@! TO.N,/SIGNAL_2*
X125730000Y-74930000D03*
G04 #@! TO.P,MDB1,44*
G04 #@! TO.N,N/C*
X123190000Y-74930000D03*
G04 #@! TO.P,MDB1,43*
X120650000Y-74930000D03*
G04 #@! TO.P,MDB1,47*
X118110000Y-74930000D03*
G04 #@! TO.P,MDB1,48*
X115570000Y-74930000D03*
G04 #@! TO.P,MDB1,49*
X113030000Y-74930000D03*
G04 #@! TO.P,MDB1,33*
X133350000Y-135890000D03*
G04 #@! TO.P,MDB1,34*
X130810000Y-135890000D03*
G04 #@! TO.P,MDB1,35*
G04 #@! TO.N,/SIGNAL_4*
X128270000Y-135890000D03*
G04 #@! TO.P,MDB1,36*
G04 #@! TO.N,/SIGNAL_5*
X125730000Y-135890000D03*
G04 #@! TO.P,MDB1,37*
G04 #@! TO.N,N/C*
X123190000Y-135890000D03*
G04 #@! TO.P,MDB1,38*
X120650000Y-135890000D03*
G04 #@! TO.P,MDB1,51*
X118110000Y-135890000D03*
G04 #@! TO.P,MDB1,DAC0*
X115570000Y-135890000D03*
G04 #@! TO.P,MDB1,DAC1*
X113030000Y-135890000D03*
D19*
G04 #@! TO.P,MDB1,*
G04 #@! TO.N,*
X165100000Y-74930000D03*
X165100000Y-135890000D03*
X73660000Y-130810000D03*
X73660000Y-80010000D03*
D18*
G04 #@! TO.P,MDB1,AREF*
G04 #@! TO.N,N/C*
X72390000Y-135890000D03*
G04 #@! TO.P,MDB1,VEE*
G04 #@! TO.N,VEE*
X74930000Y-135890000D03*
G04 #@! TO.P,MDB1,AGND*
G04 #@! TO.N,N/C*
X77470000Y-135890000D03*
G04 #@! TO.P,MDB1,3V3*
X80010000Y-135890000D03*
G04 #@! TO.P,MDB1,23*
G04 #@! TO.N,/SIGNAL_7*
X82550000Y-135890000D03*
G04 #@! TO.P,MDB1,22*
G04 #@! TO.N,/SIGNAL_6*
X85090000Y-135890000D03*
G04 #@! TO.P,MDB1,21*
G04 #@! TO.N,/SIGNAL_15*
X87630000Y-135890000D03*
G04 #@! TO.P,MDB1,20*
G04 #@! TO.N,/SIGNAL_14*
X90170000Y-135890000D03*
G04 #@! TO.P,MDB1,19*
G04 #@! TO.N,/SIGNAL_13*
X92710000Y-135890000D03*
G04 #@! TO.P,MDB1,18*
G04 #@! TO.N,/SIGNAL_12*
X95250000Y-135890000D03*
G04 #@! TO.P,MDB1,17*
G04 #@! TO.N,/SIGNAL_11*
X97790000Y-135890000D03*
G04 #@! TO.P,MDB1,16*
G04 #@! TO.N,/SIGNAL_10*
X100330000Y-135890000D03*
G04 #@! TO.P,MDB1,15*
G04 #@! TO.N,/SIGNAL_9*
X102870000Y-135890000D03*
G04 #@! TO.P,MDB1,14*
G04 #@! TO.N,/SIGNAL_8*
X105410000Y-135890000D03*
G04 #@! TO.P,MDB1,13*
G04 #@! TO.N,N/C*
X107950000Y-135890000D03*
G04 #@! TO.P,MDB1,53*
X110490000Y-135890000D03*
G04 #@! TO.P,MDB1,50*
X110490000Y-74930000D03*
G04 #@! TO.P,MDB1,12*
X107950000Y-74930000D03*
G04 #@! TO.P,MDB1,11*
X105410000Y-74930000D03*
G04 #@! TO.P,MDB1,42*
X102870000Y-74930000D03*
G04 #@! TO.P,MDB1,41*
X100330000Y-74930000D03*
G04 #@! TO.P,MDB1,40*
X97790000Y-74930000D03*
G04 #@! TO.P,MDB1,52*
G04 #@! TO.N,/~ENABLE*
X95250000Y-74930000D03*
G04 #@! TO.P,MDB1,6*
G04 #@! TO.N,/SIGNAL_1*
X92710000Y-74930000D03*
G04 #@! TO.P,MDB1,5*
G04 #@! TO.N,N/C*
X90170000Y-74930000D03*
G04 #@! TO.P,MDB1,54*
X87630000Y-74930000D03*
G04 #@! TO.P,MDB1,55*
X85090000Y-74930000D03*
G04 #@! TO.P,MDB1,2*
G04 #@! TO.N,/SIGNAL_0*
X82550000Y-74930000D03*
G04 #@! TO.P,MDB1,A11*
G04 #@! TO.N,N/C*
X80010000Y-74930000D03*
D20*
G04 #@! TO.P,MDB1,VDD*
G04 #@! TO.N,VDD*
X72390000Y-74930000D03*
D18*
G04 #@! TO.P,MDB1,A10*
G04 #@! TO.N,N/C*
X77470000Y-74930000D03*
G04 #@! TO.P,MDB1,GND*
G04 #@! TO.N,GND*
X74930000Y-74930000D03*
G04 #@! TD*
D21*
G04 #@! TO.P,J1,*
G04 #@! TO.N,*
X108155000Y-92710000D03*
X133142000Y-92710000D03*
D22*
G04 #@! TO.P,J1,5*
G04 #@! TO.N,VAA*
X115110000Y-91290000D03*
G04 #@! TO.P,J1,4*
G04 #@! TO.N,/CHANNEL_1*
X117880000Y-91290000D03*
G04 #@! TO.P,J1,3*
G04 #@! TO.N,VAA*
X120650000Y-91290000D03*
G04 #@! TO.P,J1,2*
G04 #@! TO.N,/CHANNEL_0*
X123420000Y-91290000D03*
D23*
G04 #@! TO.P,J1,1*
G04 #@! TO.N,VAA*
X126190000Y-91290000D03*
D22*
G04 #@! TO.P,J1,9*
X116495000Y-94130000D03*
G04 #@! TO.P,J1,8*
G04 #@! TO.N,/CHANNEL_3*
X119265000Y-94130000D03*
G04 #@! TO.P,J1,7*
G04 #@! TO.N,VAA*
X122035000Y-94130000D03*
G04 #@! TO.P,J1,6*
G04 #@! TO.N,/CHANNEL_2*
X124805000Y-94130000D03*
G04 #@! TD*
D21*
G04 #@! TO.P,J2,*
G04 #@! TO.N,*
X108155000Y-118110000D03*
X133142000Y-118110000D03*
D23*
G04 #@! TO.P,J2,1*
G04 #@! TO.N,GND*
X115110000Y-116690000D03*
D22*
G04 #@! TO.P,J2,2*
G04 #@! TO.N,/CHANNEL_8*
X117880000Y-116690000D03*
G04 #@! TO.P,J2,3*
G04 #@! TO.N,GND*
X120650000Y-116690000D03*
G04 #@! TO.P,J2,4*
G04 #@! TO.N,/CHANNEL_9*
X123420000Y-116690000D03*
G04 #@! TO.P,J2,5*
G04 #@! TO.N,GND*
X126190000Y-116690000D03*
G04 #@! TO.P,J2,6*
G04 #@! TO.N,/CHANNEL_10*
X116495000Y-119530000D03*
G04 #@! TO.P,J2,7*
G04 #@! TO.N,GND*
X119265000Y-119530000D03*
G04 #@! TO.P,J2,8*
G04 #@! TO.N,/CHANNEL_11*
X122035000Y-119530000D03*
G04 #@! TO.P,J2,9*
G04 #@! TO.N,GND*
X124805000Y-119530000D03*
G04 #@! TD*
D24*
G04 #@! TO.P,J3,*
G04 #@! TO.N,*
X152400000Y-85710000D03*
D25*
G04 #@! TO.P,J3,4*
G04 #@! TO.N,/IR*
X150632200Y-94477800D03*
G04 #@! TO.P,J3,3*
G04 #@! TO.N,GND*
X154167800Y-94477800D03*
G04 #@! TO.P,J3,2*
G04 #@! TO.N,N/C*
X154167800Y-90942200D03*
G04 #@! TO.P,J3,1*
G04 #@! TO.N,VAA*
X150632200Y-90942200D03*
G04 #@! TO.P,J3,5*
X152400000Y-92710000D03*
G04 #@! TD*
D24*
G04 #@! TO.P,J4,*
G04 #@! TO.N,*
X152400000Y-111110000D03*
D25*
G04 #@! TO.P,J4,4*
G04 #@! TO.N,/VISIBLE*
X150632200Y-119877800D03*
G04 #@! TO.P,J4,3*
G04 #@! TO.N,GND*
X154167800Y-119877800D03*
G04 #@! TO.P,J4,2*
G04 #@! TO.N,N/C*
X154167800Y-116342200D03*
G04 #@! TO.P,J4,1*
G04 #@! TO.N,VAA*
X150632200Y-116342200D03*
G04 #@! TO.P,J4,5*
X152400000Y-118110000D03*
G04 #@! TD*
D26*
G04 #@! TO.P,L1,2*
G04 #@! TO.N,GND*
X93345000Y-95250000D03*
G04 #@! TO.P,L1,1*
G04 #@! TO.N,/S_0*
X93345000Y-90170000D03*
G04 #@! TD*
G04 #@! TO.P,L2,2*
G04 #@! TO.N,GND*
X95885000Y-95250000D03*
G04 #@! TO.P,L2,1*
G04 #@! TO.N,/S_1*
X95885000Y-90170000D03*
G04 #@! TD*
G04 #@! TO.P,L3,2*
G04 #@! TO.N,GND*
X98425000Y-95250000D03*
G04 #@! TO.P,L3,1*
G04 #@! TO.N,/S_2*
X98425000Y-90170000D03*
G04 #@! TD*
G04 #@! TO.P,L4,2*
G04 #@! TO.N,GND*
X100965000Y-95250000D03*
G04 #@! TO.P,L4,1*
G04 #@! TO.N,/S_3*
X100965000Y-90170000D03*
G04 #@! TD*
G04 #@! TO.P,L5,2*
G04 #@! TO.N,GND*
X93345000Y-120650000D03*
G04 #@! TO.P,L5,1*
G04 #@! TO.N,/S_8*
X93345000Y-115570000D03*
G04 #@! TD*
G04 #@! TO.P,L6,2*
G04 #@! TO.N,GND*
X95885000Y-120650000D03*
G04 #@! TO.P,L6,1*
G04 #@! TO.N,/S_9*
X95885000Y-115570000D03*
G04 #@! TD*
G04 #@! TO.P,L7,2*
G04 #@! TO.N,GND*
X98425000Y-120650000D03*
G04 #@! TO.P,L7,1*
G04 #@! TO.N,/S_10*
X98425000Y-115570000D03*
G04 #@! TD*
G04 #@! TO.P,L8,2*
G04 #@! TO.N,GND*
X100965000Y-120650000D03*
G04 #@! TO.P,L8,1*
G04 #@! TO.N,/S_11*
X100965000Y-115570000D03*
G04 #@! TD*
D27*
G04 #@! TO.N,VEE*
X110236000Y-101261400D03*
X140723900Y-100001400D03*
D28*
G04 #@! TO.N,GND*
X80107800Y-120751000D03*
D29*
G04 #@! TO.N,VAA*
X94276100Y-86697800D03*
G04 #@! TO.N,/CHANNEL_0*
X92154600Y-85417500D03*
G04 #@! TO.N,/CHANNEL_1*
X90231400Y-93076600D03*
G04 #@! TO.N,/CHANNEL_2*
X96289900Y-104902700D03*
X115359000Y-97336500D03*
G04 #@! TO.N,/CHANNEL_3*
X89868500Y-116169100D03*
D28*
G04 #@! TO.N,/CHANNEL_10*
X127161400Y-111162600D03*
G04 #@! TO.N,/CHANNEL_8*
X122465400Y-112658000D03*
G04 #@! TO.N,/IR*
X137116500Y-107312600D03*
G04 #@! TO.N,/S_0*
X81330100Y-93402100D03*
X100979500Y-98853400D03*
G04 #@! TO.N,/S_1*
X71904800Y-96970100D03*
X98620600Y-101592900D03*
G04 #@! TO.N,/S_2*
X72350200Y-107519500D03*
X91476800Y-102175200D03*
X97219900Y-102175200D03*
G04 #@! TO.N,/S_8*
X132943800Y-101625200D03*
G04 #@! TO.N,/S_9*
X133251600Y-104164000D03*
G04 #@! TO.N,/S_10*
X133514900Y-107519500D03*
G04 #@! TO.N,/S_11*
X133179800Y-110111500D03*
G04 #@! TO.N,/SIGNAL_5*
X114791900Y-108526300D03*
G04 #@! TO.N,/SIGNAL_15*
X146114600Y-109040200D03*
G04 #@! TO.N,/SIGNAL_14*
X146148900Y-110116200D03*
G04 #@! TO.N,/SIGNAL_10*
X145420100Y-111298500D03*
G04 #@! TO.N,/SIGNAL_9*
X147593400Y-130471200D03*
G04 #@! TO.N,/SIGNAL_8*
X143377500Y-113716500D03*
G04 #@! TD*
D30*
G04 #@! TO.N,VEE*
X140723900Y-100001400D02*
X140723900Y-100001500D01*
X140723900Y-100001500D02*
X125788300Y-100001500D01*
X125788300Y-100001500D02*
X124528400Y-101261400D01*
X124528400Y-101261400D02*
X110236000Y-101261400D01*
D31*
G04 #@! TO.N,GND*
X100965000Y-120650000D02*
X102057200Y-120650000D01*
X115110000Y-116690000D02*
X113979800Y-116690000D01*
X113979800Y-116690000D02*
X113979800Y-116831300D01*
X113979800Y-116831300D02*
X109394900Y-121416200D01*
X109394900Y-121416200D02*
X102823400Y-121416200D01*
X102823400Y-121416200D02*
X102057200Y-120650000D01*
X175160000Y-96910000D02*
X172829800Y-96910000D01*
X154167800Y-94477800D02*
X154167800Y-96058000D01*
X154167800Y-96058000D02*
X171977800Y-96058000D01*
X171977800Y-96058000D02*
X172829800Y-96910000D01*
X184505600Y-118110000D02*
X184505600Y-116001800D01*
X175160000Y-96910000D02*
X175160000Y-107010500D01*
X175160000Y-107010500D02*
X184151300Y-116001800D01*
X184151300Y-116001800D02*
X184505600Y-116001800D01*
X93345000Y-120650000D02*
X92252800Y-120650000D01*
X92252800Y-120650000D02*
X92151800Y-120751000D01*
X92151800Y-120751000D02*
X80107800Y-120751000D01*
X95885000Y-120650000D02*
X93345000Y-120650000D01*
X124805000Y-119530000D02*
X123674800Y-119530000D01*
X119265000Y-119530000D02*
X120395200Y-119530000D01*
X120395200Y-119530000D02*
X120395200Y-120095100D01*
X120395200Y-120095100D02*
X121389800Y-121089700D01*
X121389800Y-121089700D02*
X122595300Y-121089700D01*
X122595300Y-121089700D02*
X123674800Y-120010200D01*
X123674800Y-120010200D02*
X123674800Y-119530000D01*
X99517200Y-120650000D02*
X100965000Y-120650000D01*
X98425000Y-120650000D02*
X99517200Y-120650000D01*
X95885000Y-95250000D02*
X93345000Y-95250000D01*
X98425000Y-95250000D02*
X95885000Y-95250000D01*
X100965000Y-95250000D02*
X98425000Y-95250000D01*
X98425000Y-120650000D02*
X95885000Y-120650000D01*
D32*
G04 #@! TO.N,VAA*
X150865200Y-116500300D02*
X153404800Y-113960700D01*
X153404800Y-113960700D02*
X171262800Y-113960700D01*
X171262800Y-113960700D02*
X175412100Y-118110000D01*
X152400000Y-118110000D02*
X150865200Y-116575200D01*
X150865200Y-116575200D02*
X150865200Y-116500300D01*
X150865200Y-116500300D02*
X150790300Y-116500300D01*
X150790300Y-116500300D02*
X150632200Y-116342200D01*
X178511200Y-118110000D02*
X175412100Y-118110000D01*
X120650000Y-89122900D02*
X118224900Y-86697800D01*
X118224900Y-86697800D02*
X94276100Y-86697800D01*
X180660000Y-88510000D02*
X180660000Y-85942900D01*
X150632200Y-88680900D02*
X150632200Y-88625100D01*
X150632200Y-90942200D02*
X150632200Y-88680900D01*
X180660000Y-85942900D02*
X155947500Y-85942900D01*
X155947500Y-85942900D02*
X153209500Y-88680900D01*
X153209500Y-88680900D02*
X150632200Y-88680900D01*
X120650000Y-91290000D02*
X120650000Y-89122900D01*
X126190000Y-91290000D02*
X128057100Y-91290000D01*
X128057100Y-91290000D02*
X130722000Y-88625100D01*
X130722000Y-88625100D02*
X150632200Y-88625100D01*
G04 #@! TO.N,/CHANNEL_0*
X123420000Y-89122900D02*
X119114900Y-84817800D01*
X119114900Y-84817800D02*
X92754300Y-84817800D01*
X92754300Y-84817800D02*
X92154600Y-85417500D01*
X123420000Y-91290000D02*
X123420000Y-89122900D01*
G04 #@! TO.N,/CHANNEL_1*
X117880000Y-91290000D02*
X117880000Y-89122900D01*
X117880000Y-89122900D02*
X117385500Y-88628400D01*
X117385500Y-88628400D02*
X106671000Y-88628400D01*
X106671000Y-88628400D02*
X102222800Y-93076600D01*
X102222800Y-93076600D02*
X90231400Y-93076600D01*
G04 #@! TO.N,/CHANNEL_2*
X96289900Y-104902700D02*
X98476200Y-104902700D01*
X98476200Y-104902700D02*
X106042400Y-97336500D01*
X106042400Y-97336500D02*
X115359000Y-97336500D01*
G04 #@! TO.N,/CHANNEL_3*
X119265000Y-96297100D02*
X115977500Y-99584600D01*
X115977500Y-99584600D02*
X106453000Y-99584600D01*
X106453000Y-99584600D02*
X89868500Y-116169100D01*
X119265000Y-94130000D02*
X119265000Y-96297100D01*
D33*
G04 #@! TO.N,/CHANNEL_10*
X116495000Y-119530000D02*
X116495000Y-115850100D01*
X116495000Y-115850100D02*
X121182500Y-111162600D01*
X121182500Y-111162600D02*
X127161400Y-111162600D01*
G04 #@! TO.N,/CHANNEL_8*
X117880000Y-116690000D02*
X119239100Y-116690000D01*
X119239100Y-116690000D02*
X119239100Y-115745900D01*
X119239100Y-115745900D02*
X122327000Y-112658000D01*
X122327000Y-112658000D02*
X122465400Y-112658000D01*
G04 #@! TO.N,/IR*
X150632200Y-94477800D02*
X150632200Y-96286900D01*
X150632200Y-96286900D02*
X148142200Y-96286900D01*
X148142200Y-96286900D02*
X137116500Y-107312600D01*
G04 #@! TO.N,/S_0*
X88524400Y-93309800D02*
X81422400Y-93309800D01*
X81422400Y-93309800D02*
X81330100Y-93402100D01*
X88524400Y-93309800D02*
X94068000Y-98853400D01*
X94068000Y-98853400D02*
X100979500Y-98853400D01*
X92023900Y-90170000D02*
X91193000Y-90170000D01*
X91193000Y-90170000D02*
X88524400Y-92838600D01*
X88524400Y-92838600D02*
X88524400Y-93309800D01*
X93345000Y-90170000D02*
X92023900Y-90170000D01*
G04 #@! TO.N,/S_1*
X95885000Y-90170000D02*
X94309800Y-88594800D01*
X94309800Y-88594800D02*
X84718100Y-88594800D01*
X84718100Y-88594800D02*
X78636800Y-94676100D01*
X78636800Y-94676100D02*
X78636800Y-96100700D01*
X78636800Y-96100700D02*
X83157900Y-100621800D01*
X83157900Y-100621800D02*
X97649500Y-100621800D01*
X97649500Y-100621800D02*
X98620600Y-101592900D01*
X78636800Y-96100700D02*
X72774200Y-96100700D01*
X72774200Y-96100700D02*
X71904800Y-96970100D01*
G04 #@! TO.N,/S_2*
X91476800Y-102175200D02*
X77694500Y-102175200D01*
X77694500Y-102175200D02*
X72350200Y-107519500D01*
X97219900Y-102175200D02*
X91476800Y-102175200D01*
G04 #@! TO.N,/S_8*
X93345000Y-115570000D02*
X105701400Y-103213600D01*
X105701400Y-103213600D02*
X131355400Y-103213600D01*
X131355400Y-103213600D02*
X132943800Y-101625200D01*
G04 #@! TO.N,/S_9*
X95885000Y-115570000D02*
X107291000Y-104164000D01*
X107291000Y-104164000D02*
X133251600Y-104164000D01*
G04 #@! TO.N,/S_10*
X133514900Y-107519500D02*
X106475500Y-107519500D01*
X106475500Y-107519500D02*
X98425000Y-115570000D01*
G04 #@! TO.N,/S_11*
X133179800Y-110111500D02*
X107744600Y-110111500D01*
X107744600Y-110111500D02*
X102286100Y-115570000D01*
X100965000Y-115570000D02*
X102286100Y-115570000D01*
D31*
G04 #@! TO.N,/SIGNAL_5*
X125730000Y-134289800D02*
X146908800Y-113111000D01*
X146908800Y-113111000D02*
X146908800Y-108715400D01*
X146908800Y-108715400D02*
X146484000Y-108290600D01*
X146484000Y-108290600D02*
X145804100Y-108290600D01*
X145804100Y-108290600D02*
X145568400Y-108526300D01*
X145568400Y-108526300D02*
X114791900Y-108526300D01*
X125730000Y-135890000D02*
X125730000Y-134289800D01*
G04 #@! TO.N,/SIGNAL_15*
X87630000Y-135890000D02*
X88887300Y-135890000D01*
X146114600Y-109040200D02*
X136932600Y-109040200D01*
X136932600Y-109040200D02*
X127790800Y-118182000D01*
X127790800Y-118182000D02*
X127790800Y-118435200D01*
X127790800Y-118435200D02*
X124254800Y-121971200D01*
X124254800Y-121971200D02*
X101942200Y-121971200D01*
X101942200Y-121971200D02*
X88887300Y-135026100D01*
X88887300Y-135026100D02*
X88887300Y-135890000D01*
G04 #@! TO.N,/SIGNAL_14*
X91427300Y-135890000D02*
X91427300Y-135026100D01*
X91427300Y-135026100D02*
X103167600Y-123285800D01*
X103167600Y-123285800D02*
X123719000Y-123285800D01*
X123719000Y-123285800D02*
X129820000Y-117184800D01*
X129820000Y-117184800D02*
X129820000Y-116915300D01*
X129820000Y-116915300D02*
X136619100Y-110116200D01*
X136619100Y-110116200D02*
X146148900Y-110116200D01*
X90170000Y-135890000D02*
X91427300Y-135890000D01*
G04 #@! TO.N,/SIGNAL_10*
X145420100Y-111298500D02*
X144701200Y-111298500D01*
X144701200Y-111298500D02*
X131719400Y-124280300D01*
X131719400Y-124280300D02*
X112333100Y-124280300D01*
X112333100Y-124280300D02*
X101587300Y-135026100D01*
X101587300Y-135026100D02*
X101587300Y-135890000D01*
X100330000Y-135890000D02*
X101587300Y-135890000D01*
G04 #@! TO.N,/SIGNAL_9*
X102870000Y-135890000D02*
X104127300Y-135890000D01*
X147593400Y-130471200D02*
X140599400Y-137465200D01*
X140599400Y-137465200D02*
X104838600Y-137465200D01*
X104838600Y-137465200D02*
X104127300Y-136753900D01*
X104127300Y-136753900D02*
X104127300Y-135890000D01*
G04 #@! TO.N,/SIGNAL_8*
X105410000Y-135890000D02*
X106667300Y-135890000D01*
X143377500Y-113716500D02*
X124516300Y-132577700D01*
X124516300Y-132577700D02*
X109115700Y-132577700D01*
X109115700Y-132577700D02*
X106667300Y-135026100D01*
X106667300Y-135026100D02*
X106667300Y-135890000D01*
G04 #@! TD*
D34*
G04 #@! TO.N,VAA*
G36*
X191643000Y-139573000D02*
X69342000Y-139573000D01*
X69342000Y-130380548D01*
X71501000Y-130380548D01*
X71501000Y-131239452D01*
X71829688Y-132032975D01*
X72437025Y-132640312D01*
X73230548Y-132969000D01*
X74089452Y-132969000D01*
X74882975Y-132640312D01*
X75490312Y-132032975D01*
X75819000Y-131239452D01*
X75819000Y-130380548D01*
X75490312Y-129587025D01*
X74882975Y-128979688D01*
X74089452Y-128651000D01*
X73230548Y-128651000D01*
X72437025Y-128979688D01*
X71829688Y-129587025D01*
X71501000Y-130380548D01*
X69342000Y-130380548D01*
X69342000Y-96805898D01*
X71079300Y-96805898D01*
X71079300Y-97134302D01*
X71204974Y-97437708D01*
X71437192Y-97669926D01*
X71740598Y-97795600D01*
X72069002Y-97795600D01*
X72372408Y-97669926D01*
X72604626Y-97437708D01*
X72730300Y-97134302D01*
X72730300Y-97114466D01*
X73058267Y-96786500D01*
X78352734Y-96786500D01*
X82625204Y-101058971D01*
X82663466Y-101116234D01*
X82880722Y-101261400D01*
X82890314Y-101267809D01*
X83157900Y-101321035D01*
X83225442Y-101307600D01*
X97365434Y-101307600D01*
X97424102Y-101366268D01*
X97384102Y-101349700D01*
X97055698Y-101349700D01*
X96752292Y-101475374D01*
X96738266Y-101489400D01*
X91958434Y-101489400D01*
X91944408Y-101475374D01*
X91641002Y-101349700D01*
X91312598Y-101349700D01*
X91009192Y-101475374D01*
X90995166Y-101489400D01*
X77762042Y-101489400D01*
X77694500Y-101475965D01*
X77626957Y-101489400D01*
X77426914Y-101529191D01*
X77200066Y-101680766D01*
X77161806Y-101738026D01*
X72205834Y-106694000D01*
X72185998Y-106694000D01*
X71882592Y-106819674D01*
X71650374Y-107051892D01*
X71524700Y-107355298D01*
X71524700Y-107683702D01*
X71650374Y-107987108D01*
X71882592Y-108219326D01*
X72185998Y-108345000D01*
X72514402Y-108345000D01*
X72817808Y-108219326D01*
X73050026Y-107987108D01*
X73175700Y-107683702D01*
X73175700Y-107663866D01*
X77978568Y-102861000D01*
X90995166Y-102861000D01*
X91009192Y-102875026D01*
X91312598Y-103000700D01*
X91641002Y-103000700D01*
X91944408Y-102875026D01*
X91958434Y-102861000D01*
X96738266Y-102861000D01*
X96752292Y-102875026D01*
X97055698Y-103000700D01*
X97384102Y-103000700D01*
X97687508Y-102875026D01*
X97919726Y-102642808D01*
X98045400Y-102339402D01*
X98045400Y-102185134D01*
X98152992Y-102292726D01*
X98456398Y-102418400D01*
X98784802Y-102418400D01*
X99088208Y-102292726D01*
X99320426Y-102060508D01*
X99446100Y-101757102D01*
X99446100Y-101428698D01*
X99320426Y-101125292D01*
X99088208Y-100893074D01*
X98784802Y-100767400D01*
X98764967Y-100767400D01*
X98182197Y-100184631D01*
X98143934Y-100127366D01*
X97917086Y-99975791D01*
X97717043Y-99936000D01*
X97717042Y-99936000D01*
X97649500Y-99922565D01*
X97581958Y-99936000D01*
X83441967Y-99936000D01*
X79322600Y-95816634D01*
X79322600Y-94960166D01*
X80566653Y-93716113D01*
X80630274Y-93869708D01*
X80862492Y-94101926D01*
X81165898Y-94227600D01*
X81494302Y-94227600D01*
X81797708Y-94101926D01*
X81904034Y-93995600D01*
X88240334Y-93995600D01*
X93535304Y-99290571D01*
X93573566Y-99347834D01*
X93800414Y-99499409D01*
X94067999Y-99552635D01*
X94135542Y-99539200D01*
X100497866Y-99539200D01*
X100511892Y-99553226D01*
X100815298Y-99678900D01*
X101143702Y-99678900D01*
X101447108Y-99553226D01*
X101679326Y-99321008D01*
X101805000Y-99017602D01*
X101805000Y-98689198D01*
X101679326Y-98385792D01*
X101447108Y-98153574D01*
X101143702Y-98027900D01*
X100815298Y-98027900D01*
X100511892Y-98153574D01*
X100497866Y-98167600D01*
X94352067Y-98167600D01*
X90454866Y-94270400D01*
X92455156Y-94270400D01*
X92268318Y-94550025D01*
X92202000Y-94883429D01*
X92202000Y-95616572D01*
X92268318Y-95949976D01*
X92520944Y-96328057D01*
X92899025Y-96580682D01*
X93345000Y-96669392D01*
X93790976Y-96580682D01*
X94169057Y-96328057D01*
X94421682Y-95949975D01*
X94444711Y-95834200D01*
X94785289Y-95834200D01*
X94808318Y-95949976D01*
X95060944Y-96328057D01*
X95439025Y-96580682D01*
X95885000Y-96669392D01*
X96330976Y-96580682D01*
X96709057Y-96328057D01*
X96961682Y-95949975D01*
X96984711Y-95834200D01*
X97325289Y-95834200D01*
X97348318Y-95949976D01*
X97600944Y-96328057D01*
X97979025Y-96580682D01*
X98425000Y-96669392D01*
X98870976Y-96580682D01*
X99249057Y-96328057D01*
X99501682Y-95949975D01*
X99524711Y-95834200D01*
X99865289Y-95834200D01*
X99888318Y-95949976D01*
X100140944Y-96328057D01*
X100519025Y-96580682D01*
X100965000Y-96669392D01*
X101410976Y-96580682D01*
X101789057Y-96328057D01*
X102041682Y-95949975D01*
X102108000Y-95616571D01*
X102108000Y-94883428D01*
X102041682Y-94550024D01*
X101854844Y-94270400D01*
X102105231Y-94270400D01*
X102222800Y-94293786D01*
X102340369Y-94270400D01*
X102340374Y-94270400D01*
X102688597Y-94201134D01*
X103083481Y-93937281D01*
X103150083Y-93837604D01*
X105326779Y-91660908D01*
X105274000Y-91926247D01*
X105274000Y-93493754D01*
X105441157Y-94334110D01*
X106077916Y-95287085D01*
X107030891Y-95923843D01*
X108131160Y-96142700D01*
X106159970Y-96142700D01*
X106042400Y-96119314D01*
X105924829Y-96142700D01*
X105924826Y-96142700D01*
X105655900Y-96196193D01*
X105576602Y-96211966D01*
X105291676Y-96402348D01*
X105181719Y-96475819D01*
X105115119Y-96575493D01*
X97981713Y-103708900D01*
X96052438Y-103708900D01*
X95941676Y-103754779D01*
X95824103Y-103778166D01*
X95724430Y-103844766D01*
X95613667Y-103890645D01*
X95528893Y-103975419D01*
X95429219Y-104042019D01*
X95362619Y-104141693D01*
X95277845Y-104226467D01*
X95231966Y-104337230D01*
X95165366Y-104436903D01*
X95141979Y-104554476D01*
X95096100Y-104665238D01*
X95096100Y-104785126D01*
X95072713Y-104902700D01*
X95096100Y-105020274D01*
X95096100Y-105140162D01*
X95141979Y-105250924D01*
X95165366Y-105368497D01*
X95231966Y-105468170D01*
X95277845Y-105578933D01*
X95362619Y-105663707D01*
X95429219Y-105763381D01*
X95528893Y-105829981D01*
X95613667Y-105914755D01*
X95724430Y-105960634D01*
X95824103Y-106027234D01*
X95941676Y-106050621D01*
X96052438Y-106096500D01*
X98252812Y-106096500D01*
X89192269Y-115157044D01*
X89192267Y-115157045D01*
X88856445Y-115492867D01*
X88810564Y-115603633D01*
X88743967Y-115703303D01*
X88720581Y-115820871D01*
X88674700Y-115931638D01*
X88674700Y-116051531D01*
X88651314Y-116169100D01*
X88674700Y-116286669D01*
X88674700Y-116406562D01*
X88720581Y-116517329D01*
X88743967Y-116634897D01*
X88810564Y-116734567D01*
X88856445Y-116845333D01*
X88941220Y-116930108D01*
X89007819Y-117029781D01*
X89107492Y-117096380D01*
X89192267Y-117181155D01*
X89303033Y-117227036D01*
X89402703Y-117293633D01*
X89520271Y-117317019D01*
X89631038Y-117362900D01*
X89750931Y-117362900D01*
X89868500Y-117386286D01*
X89986069Y-117362900D01*
X90105962Y-117362900D01*
X90216729Y-117317019D01*
X90334297Y-117293633D01*
X90433967Y-117227036D01*
X90544733Y-117181155D01*
X90880555Y-116845333D01*
X90880556Y-116845331D01*
X92202000Y-115523887D01*
X92202000Y-115936572D01*
X92268318Y-116269976D01*
X92520944Y-116648057D01*
X92899025Y-116900682D01*
X93345000Y-116989392D01*
X93790976Y-116900682D01*
X94169057Y-116648057D01*
X94421682Y-116269975D01*
X94488000Y-115936571D01*
X94488000Y-115396866D01*
X94757038Y-115127828D01*
X94742000Y-115203429D01*
X94742000Y-115936572D01*
X94808318Y-116269976D01*
X95060944Y-116648057D01*
X95439025Y-116900682D01*
X95885000Y-116989392D01*
X96330976Y-116900682D01*
X96709057Y-116648057D01*
X96961682Y-116269975D01*
X97028000Y-115936571D01*
X97028000Y-115396866D01*
X97297038Y-115127828D01*
X97282000Y-115203429D01*
X97282000Y-115936572D01*
X97348318Y-116269976D01*
X97600944Y-116648057D01*
X97979025Y-116900682D01*
X98425000Y-116989392D01*
X98870976Y-116900682D01*
X99249057Y-116648057D01*
X99501682Y-116269975D01*
X99568000Y-115936571D01*
X99568000Y-115396866D01*
X99837038Y-115127828D01*
X99822000Y-115203429D01*
X99822000Y-115936572D01*
X99888318Y-116269976D01*
X100140944Y-116648057D01*
X100519025Y-116900682D01*
X100965000Y-116989392D01*
X101410976Y-116900682D01*
X101789057Y-116648057D01*
X102041682Y-116269975D01*
X102044502Y-116255800D01*
X102218558Y-116255800D01*
X102286100Y-116269235D01*
X102353642Y-116255800D01*
X102353643Y-116255800D01*
X102553686Y-116216009D01*
X102780534Y-116064434D01*
X102818798Y-116007168D01*
X108028668Y-110797300D01*
X120577933Y-110797300D01*
X116109894Y-115265340D01*
X116058659Y-115231106D01*
X115910000Y-115201536D01*
X114310000Y-115201536D01*
X114161341Y-115231106D01*
X114035314Y-115315314D01*
X113951106Y-115441341D01*
X113921536Y-115590000D01*
X113921536Y-116105945D01*
X113751857Y-116139696D01*
X113558615Y-116268815D01*
X113429496Y-116462057D01*
X113406313Y-116578604D01*
X111022303Y-118962615D01*
X111036000Y-118893753D01*
X111036000Y-117326246D01*
X110868843Y-116485890D01*
X110232084Y-115532915D01*
X109279109Y-114896157D01*
X108155000Y-114672558D01*
X107030890Y-114896157D01*
X106077915Y-115532916D01*
X105441157Y-116485891D01*
X105274000Y-117326247D01*
X105274000Y-118893754D01*
X105441157Y-119734110D01*
X106077916Y-120687085D01*
X106294796Y-120832000D01*
X103065384Y-120832000D01*
X102510981Y-120277599D01*
X102478385Y-120228815D01*
X102285143Y-120099696D01*
X102114737Y-120065800D01*
X102114736Y-120065800D01*
X102062650Y-120055439D01*
X102041682Y-119950024D01*
X101789057Y-119571943D01*
X101410975Y-119319318D01*
X100965000Y-119230608D01*
X100519024Y-119319318D01*
X100140943Y-119571943D01*
X99888318Y-119950025D01*
X99865289Y-120065800D01*
X99524711Y-120065800D01*
X99501682Y-119950024D01*
X99249057Y-119571943D01*
X98870975Y-119319318D01*
X98425000Y-119230608D01*
X97979024Y-119319318D01*
X97600943Y-119571943D01*
X97348318Y-119950025D01*
X97325289Y-120065800D01*
X96984711Y-120065800D01*
X96961682Y-119950024D01*
X96709057Y-119571943D01*
X96330975Y-119319318D01*
X95885000Y-119230608D01*
X95439024Y-119319318D01*
X95060943Y-119571943D01*
X94808318Y-119950025D01*
X94785289Y-120065800D01*
X94444711Y-120065800D01*
X94421682Y-119950024D01*
X94169057Y-119571943D01*
X93790975Y-119319318D01*
X93345000Y-119230608D01*
X92899024Y-119319318D01*
X92520943Y-119571943D01*
X92268318Y-119950025D01*
X92247350Y-120055439D01*
X92024857Y-120099696D01*
X91924428Y-120166800D01*
X80691034Y-120166800D01*
X80575408Y-120051174D01*
X80272002Y-119925500D01*
X79943598Y-119925500D01*
X79640192Y-120051174D01*
X79407974Y-120283392D01*
X79282300Y-120586798D01*
X79282300Y-120915202D01*
X79407974Y-121218608D01*
X79640192Y-121450826D01*
X79943598Y-121576500D01*
X80272002Y-121576500D01*
X80575408Y-121450826D01*
X80691034Y-121335200D01*
X92094264Y-121335200D01*
X92151800Y-121346645D01*
X92209336Y-121335200D01*
X92209337Y-121335200D01*
X92263246Y-121324477D01*
X92268318Y-121349976D01*
X92520944Y-121728057D01*
X92899025Y-121980682D01*
X93345000Y-122069392D01*
X93790976Y-121980682D01*
X94169057Y-121728057D01*
X94421682Y-121349975D01*
X94444711Y-121234200D01*
X94785289Y-121234200D01*
X94808318Y-121349976D01*
X95060944Y-121728057D01*
X95439025Y-121980682D01*
X95885000Y-122069392D01*
X96330976Y-121980682D01*
X96709057Y-121728057D01*
X96961682Y-121349975D01*
X96984711Y-121234200D01*
X97325289Y-121234200D01*
X97348318Y-121349976D01*
X97600944Y-121728057D01*
X97979025Y-121980682D01*
X98425000Y-122069392D01*
X98870976Y-121980682D01*
X99249057Y-121728057D01*
X99501682Y-121349975D01*
X99524711Y-121234200D01*
X99865289Y-121234200D01*
X99888318Y-121349976D01*
X100140944Y-121728057D01*
X100519025Y-121980682D01*
X100965000Y-122069392D01*
X101030942Y-122056275D01*
X88519207Y-134568011D01*
X88140394Y-134314897D01*
X87630000Y-134213373D01*
X87119605Y-134314897D01*
X86686913Y-134604013D01*
X86397797Y-135036706D01*
X86360000Y-135226724D01*
X86322203Y-135036705D01*
X86033087Y-134604013D01*
X85600394Y-134314897D01*
X85090000Y-134213373D01*
X84579605Y-134314897D01*
X84146913Y-134604013D01*
X83857797Y-135036706D01*
X83820000Y-135226724D01*
X83782203Y-135036705D01*
X83493087Y-134604013D01*
X83060394Y-134314897D01*
X82550000Y-134213373D01*
X82039605Y-134314897D01*
X81606913Y-134604013D01*
X81317797Y-135036706D01*
X81280000Y-135226724D01*
X81242203Y-135036705D01*
X80953087Y-134604013D01*
X80520394Y-134314897D01*
X80010000Y-134213373D01*
X79499605Y-134314897D01*
X79066913Y-134604013D01*
X78777797Y-135036706D01*
X78740000Y-135226724D01*
X78702203Y-135036705D01*
X78413087Y-134604013D01*
X77980394Y-134314897D01*
X77470000Y-134213373D01*
X76959605Y-134314897D01*
X76526913Y-134604013D01*
X76237797Y-135036706D01*
X76200000Y-135226724D01*
X76162203Y-135036705D01*
X75873087Y-134604013D01*
X75440394Y-134314897D01*
X74930000Y-134213373D01*
X74419605Y-134314897D01*
X73986913Y-134604013D01*
X73697797Y-135036706D01*
X73660000Y-135226724D01*
X73622203Y-135036705D01*
X73333087Y-134604013D01*
X72900394Y-134314897D01*
X72390000Y-134213373D01*
X71879605Y-134314897D01*
X71446913Y-134604013D01*
X71157797Y-135036706D01*
X71081900Y-135418266D01*
X71081900Y-136361735D01*
X71157797Y-136743295D01*
X71446914Y-137175987D01*
X71879606Y-137465103D01*
X72390000Y-137566627D01*
X72900395Y-137465103D01*
X73333087Y-137175987D01*
X73622203Y-136743295D01*
X73660000Y-136553276D01*
X73697797Y-136743295D01*
X73986914Y-137175987D01*
X74419606Y-137465103D01*
X74930000Y-137566627D01*
X75440395Y-137465103D01*
X75873087Y-137175987D01*
X76162203Y-136743295D01*
X76200000Y-136553276D01*
X76237797Y-136743295D01*
X76526914Y-137175987D01*
X76959606Y-137465103D01*
X77470000Y-137566627D01*
X77980395Y-137465103D01*
X78413087Y-137175987D01*
X78702203Y-136743295D01*
X78740000Y-136553276D01*
X78777797Y-136743295D01*
X79066914Y-137175987D01*
X79499606Y-137465103D01*
X80010000Y-137566627D01*
X80520395Y-137465103D01*
X80953087Y-137175987D01*
X81242203Y-136743295D01*
X81280000Y-136553276D01*
X81317797Y-136743295D01*
X81606914Y-137175987D01*
X82039606Y-137465103D01*
X82550000Y-137566627D01*
X83060395Y-137465103D01*
X83493087Y-137175987D01*
X83782203Y-136743295D01*
X83820000Y-136553276D01*
X83857797Y-136743295D01*
X84146914Y-137175987D01*
X84579606Y-137465103D01*
X85090000Y-137566627D01*
X85600395Y-137465103D01*
X86033087Y-137175987D01*
X86322203Y-136743295D01*
X86360000Y-136553276D01*
X86397797Y-136743295D01*
X86686914Y-137175987D01*
X87119606Y-137465103D01*
X87630000Y-137566627D01*
X88140395Y-137465103D01*
X88573087Y-137175987D01*
X88862203Y-136743295D01*
X88900000Y-136553276D01*
X88937797Y-136743295D01*
X89226914Y-137175987D01*
X89659606Y-137465103D01*
X90170000Y-137566627D01*
X90680395Y-137465103D01*
X91113087Y-137175987D01*
X91402203Y-136743295D01*
X91440000Y-136553276D01*
X91477797Y-136743295D01*
X91766914Y-137175987D01*
X92199606Y-137465103D01*
X92710000Y-137566627D01*
X93220395Y-137465103D01*
X93653087Y-137175987D01*
X93942203Y-136743295D01*
X93980000Y-136553276D01*
X94017797Y-136743295D01*
X94306914Y-137175987D01*
X94739606Y-137465103D01*
X95250000Y-137566627D01*
X95760395Y-137465103D01*
X96193087Y-137175987D01*
X96482203Y-136743295D01*
X96520000Y-136553276D01*
X96557797Y-136743295D01*
X96846914Y-137175987D01*
X97279606Y-137465103D01*
X97790000Y-137566627D01*
X98300395Y-137465103D01*
X98733087Y-137175987D01*
X99022203Y-136743295D01*
X99060000Y-136553276D01*
X99097797Y-136743295D01*
X99386914Y-137175987D01*
X99819606Y-137465103D01*
X100330000Y-137566627D01*
X100840395Y-137465103D01*
X101273087Y-137175987D01*
X101562203Y-136743295D01*
X101600000Y-136553276D01*
X101637797Y-136743295D01*
X101926914Y-137175987D01*
X102359606Y-137465103D01*
X102870000Y-137566627D01*
X103380395Y-137465103D01*
X103759207Y-137211989D01*
X104384822Y-137837606D01*
X104417415Y-137886385D01*
X104610657Y-138015504D01*
X104781063Y-138049400D01*
X104838599Y-138060845D01*
X104896135Y-138049400D01*
X140541864Y-138049400D01*
X140599400Y-138060845D01*
X140656936Y-138049400D01*
X140656937Y-138049400D01*
X140827343Y-138015504D01*
X141020585Y-137886385D01*
X141053181Y-137837601D01*
X143430234Y-135460548D01*
X162941000Y-135460548D01*
X162941000Y-136319452D01*
X163269688Y-137112975D01*
X163877025Y-137720312D01*
X164670548Y-138049000D01*
X165529452Y-138049000D01*
X166322975Y-137720312D01*
X166930312Y-137112975D01*
X167259000Y-136319452D01*
X167259000Y-135460548D01*
X166930312Y-134667025D01*
X166322975Y-134059688D01*
X165529452Y-133731000D01*
X164670548Y-133731000D01*
X163877025Y-134059688D01*
X163269688Y-134667025D01*
X162941000Y-135460548D01*
X143430234Y-135460548D01*
X147594083Y-131296700D01*
X147757602Y-131296700D01*
X148061008Y-131171026D01*
X148293226Y-130938808D01*
X148418900Y-130635402D01*
X148418900Y-130306998D01*
X148293226Y-130003592D01*
X148061008Y-129771374D01*
X147757602Y-129645700D01*
X147429198Y-129645700D01*
X147125792Y-129771374D01*
X146893574Y-130003592D01*
X146767900Y-130306998D01*
X146767900Y-130470517D01*
X140357418Y-136881000D01*
X134490191Y-136881000D01*
X134582203Y-136743295D01*
X134658100Y-136361734D01*
X134658100Y-135418265D01*
X134582203Y-135036705D01*
X134293087Y-134604013D01*
X133860394Y-134314897D01*
X133350000Y-134213373D01*
X132839605Y-134314897D01*
X132406913Y-134604013D01*
X132117797Y-135036706D01*
X132080000Y-135226724D01*
X132042203Y-135036705D01*
X131753087Y-134604013D01*
X131320394Y-134314897D01*
X130810000Y-134213373D01*
X130299605Y-134314897D01*
X129866913Y-134604013D01*
X129577797Y-135036706D01*
X129540000Y-135226724D01*
X129502203Y-135036705D01*
X129213087Y-134604013D01*
X128780394Y-134314897D01*
X128270000Y-134213373D01*
X127759605Y-134314897D01*
X127326913Y-134604013D01*
X127037797Y-135036706D01*
X127000000Y-135226724D01*
X126962203Y-135036705D01*
X126673087Y-134604013D01*
X126414651Y-134431331D01*
X138240182Y-122605800D01*
X182532903Y-122605800D01*
X182700467Y-123448200D01*
X183177648Y-124162352D01*
X183891800Y-124639533D01*
X184521559Y-124764800D01*
X186470841Y-124764800D01*
X187100600Y-124639533D01*
X187814752Y-124162352D01*
X188291933Y-123448200D01*
X188459497Y-122605800D01*
X188291933Y-121763400D01*
X187814752Y-121049248D01*
X187100600Y-120572067D01*
X186470841Y-120446800D01*
X184521559Y-120446800D01*
X183891800Y-120572067D01*
X183177648Y-121049248D01*
X182700467Y-121763400D01*
X182532903Y-122605800D01*
X138240182Y-122605800D01*
X144376783Y-116469200D01*
X149247200Y-116469200D01*
X149247200Y-116969200D01*
X149401228Y-117489549D01*
X149742660Y-117911345D01*
X150219516Y-118170373D01*
X150291015Y-118184518D01*
X150505198Y-118061857D01*
X150505198Y-118227200D01*
X150619345Y-118227200D01*
X150190906Y-118312422D01*
X149816795Y-118562395D01*
X149566822Y-118936507D01*
X149501200Y-119266410D01*
X149501200Y-120489191D01*
X149566822Y-120819094D01*
X149816796Y-121193205D01*
X150190907Y-121443178D01*
X150632200Y-121530957D01*
X151073494Y-121443178D01*
X151447605Y-121193205D01*
X151697578Y-120819094D01*
X151763200Y-120489191D01*
X151763200Y-119816433D01*
X151987316Y-119938173D01*
X152058815Y-119952318D01*
X152273000Y-119829656D01*
X152273000Y-118237000D01*
X152527000Y-118237000D01*
X152527000Y-119829656D01*
X152741185Y-119952318D01*
X152812684Y-119938173D01*
X153036800Y-119816433D01*
X153036800Y-120489191D01*
X153102422Y-120819094D01*
X153352396Y-121193205D01*
X153726507Y-121443178D01*
X154167800Y-121530957D01*
X154609094Y-121443178D01*
X154983205Y-121193205D01*
X155233178Y-120819094D01*
X155298800Y-120489191D01*
X155298800Y-119266409D01*
X155233178Y-118936506D01*
X154983205Y-118562395D01*
X154609093Y-118312422D01*
X154229923Y-118237000D01*
X175844200Y-118237000D01*
X175844200Y-118745000D01*
X176095814Y-119755949D01*
X176715149Y-120593656D01*
X177607916Y-121130587D01*
X177969026Y-121229309D01*
X178384200Y-121123033D01*
X178384200Y-118237000D01*
X178638200Y-118237000D01*
X178638200Y-121123033D01*
X179053374Y-121229309D01*
X179414484Y-121130587D01*
X180307251Y-120593656D01*
X180926586Y-119755949D01*
X181178200Y-118745000D01*
X181178200Y-118237000D01*
X178638200Y-118237000D01*
X178384200Y-118237000D01*
X175844200Y-118237000D01*
X154229923Y-118237000D01*
X154167800Y-118224643D01*
X153785000Y-118300787D01*
X153785000Y-118237000D01*
X152527000Y-118237000D01*
X152273000Y-118237000D01*
X152253000Y-118237000D01*
X152253000Y-117983000D01*
X152273000Y-117983000D01*
X152273000Y-116390344D01*
X152527000Y-116390344D01*
X152527000Y-117983000D01*
X153785000Y-117983000D01*
X153785000Y-117919213D01*
X154167800Y-117995357D01*
X154609094Y-117907578D01*
X154983205Y-117657605D01*
X155105217Y-117475000D01*
X175844200Y-117475000D01*
X175844200Y-117983000D01*
X178384200Y-117983000D01*
X178384200Y-115096967D01*
X178638200Y-115096967D01*
X178638200Y-117983000D01*
X181178200Y-117983000D01*
X181178200Y-117475000D01*
X180926586Y-116464051D01*
X180307251Y-115626344D01*
X179414484Y-115089413D01*
X179053374Y-114990691D01*
X178638200Y-115096967D01*
X178384200Y-115096967D01*
X177969026Y-114990691D01*
X177607916Y-115089413D01*
X176715149Y-115626344D01*
X176095814Y-116464051D01*
X175844200Y-117475000D01*
X155105217Y-117475000D01*
X155233178Y-117283494D01*
X155298800Y-116953591D01*
X155298800Y-115730809D01*
X155233178Y-115400906D01*
X154983205Y-115026795D01*
X154609093Y-114776822D01*
X154167800Y-114689043D01*
X153726506Y-114776822D01*
X153352395Y-115026795D01*
X153102422Y-115400907D01*
X153036800Y-115730810D01*
X153036800Y-116403567D01*
X152812684Y-116281827D01*
X152741185Y-116267682D01*
X152527000Y-116390344D01*
X152273000Y-116390344D01*
X152058815Y-116267682D01*
X152017200Y-116275915D01*
X152017200Y-115715200D01*
X151863172Y-115194851D01*
X151521740Y-114773055D01*
X151044884Y-114514027D01*
X150973385Y-114499882D01*
X150759200Y-114622544D01*
X150759200Y-116215200D01*
X150779200Y-116215200D01*
X150779200Y-116469200D01*
X150759200Y-116469200D01*
X150759200Y-116489200D01*
X150505200Y-116489200D01*
X150505200Y-116469200D01*
X149247200Y-116469200D01*
X144376783Y-116469200D01*
X145130783Y-115715200D01*
X149247200Y-115715200D01*
X149247200Y-116215200D01*
X150505200Y-116215200D01*
X150505200Y-114622544D01*
X150291015Y-114499882D01*
X150219516Y-114514027D01*
X149742660Y-114773055D01*
X149401228Y-115194851D01*
X149247200Y-115715200D01*
X145130783Y-115715200D01*
X147281207Y-113564777D01*
X147329985Y-113532185D01*
X147459104Y-113338943D01*
X147493000Y-113168537D01*
X147493000Y-113168536D01*
X147504445Y-113111001D01*
X147493000Y-113053465D01*
X147493000Y-110735846D01*
X150519000Y-110735846D01*
X150519000Y-111484154D01*
X150805365Y-112175501D01*
X151334499Y-112704635D01*
X152025846Y-112991000D01*
X152774154Y-112991000D01*
X153465501Y-112704635D01*
X153994635Y-112175501D01*
X154281000Y-111484154D01*
X154281000Y-110735846D01*
X153994635Y-110044499D01*
X153465501Y-109515365D01*
X152774154Y-109229000D01*
X152025846Y-109229000D01*
X151334499Y-109515365D01*
X150805365Y-110044499D01*
X150519000Y-110735846D01*
X147493000Y-110735846D01*
X147493000Y-108772936D01*
X147504445Y-108715400D01*
X147485273Y-108619016D01*
X147459104Y-108487457D01*
X147329985Y-108294215D01*
X147281203Y-108261620D01*
X146937781Y-107918199D01*
X146905185Y-107869415D01*
X146711943Y-107740296D01*
X146541537Y-107706400D01*
X146541536Y-107706400D01*
X146484000Y-107694955D01*
X146426464Y-107706400D01*
X145861635Y-107706400D01*
X145804099Y-107694955D01*
X145746563Y-107706400D01*
X145576157Y-107740296D01*
X145382915Y-107869415D01*
X145350320Y-107918197D01*
X145326417Y-107942100D01*
X137654434Y-107942100D01*
X137816326Y-107780208D01*
X137942000Y-107476802D01*
X137942000Y-107456966D01*
X148426268Y-96972700D01*
X150564658Y-96972700D01*
X150632200Y-96986135D01*
X150899786Y-96932909D01*
X151126634Y-96781334D01*
X151278209Y-96554486D01*
X151318000Y-96354443D01*
X151331435Y-96286900D01*
X151318000Y-96219357D01*
X151318000Y-95879804D01*
X151447605Y-95793205D01*
X151697578Y-95419094D01*
X151763200Y-95089191D01*
X151763200Y-94416433D01*
X151987316Y-94538173D01*
X152058815Y-94552318D01*
X152273000Y-94429656D01*
X152273000Y-92837000D01*
X152527000Y-92837000D01*
X152527000Y-94429656D01*
X152741185Y-94552318D01*
X152812684Y-94538173D01*
X153036800Y-94416433D01*
X153036800Y-95089191D01*
X153102422Y-95419094D01*
X153352396Y-95793205D01*
X153583601Y-95947691D01*
X153583601Y-96000458D01*
X153572155Y-96058000D01*
X153617496Y-96285943D01*
X153746615Y-96479185D01*
X153939857Y-96608304D01*
X154110263Y-96642200D01*
X154167800Y-96653645D01*
X154225337Y-96642200D01*
X171735818Y-96642200D01*
X172376020Y-97282403D01*
X172408615Y-97331185D01*
X172601857Y-97460304D01*
X172772263Y-97494200D01*
X172772264Y-97494200D01*
X172829800Y-97505645D01*
X172859458Y-97499745D01*
X172888138Y-97643929D01*
X173303875Y-98266125D01*
X173926071Y-98681862D01*
X174474743Y-98791000D01*
X174575800Y-98791000D01*
X174575801Y-106952959D01*
X174564355Y-107010500D01*
X174609697Y-107238443D01*
X174738816Y-107431685D01*
X174787597Y-107464279D01*
X183274755Y-115951438D01*
X182647200Y-116076267D01*
X181933048Y-116553448D01*
X181455867Y-117267600D01*
X181288303Y-118110000D01*
X181455867Y-118952400D01*
X181933048Y-119666552D01*
X182647200Y-120143733D01*
X183276959Y-120269000D01*
X184718241Y-120269000D01*
X185348000Y-120143733D01*
X186062152Y-119666552D01*
X186500101Y-119011116D01*
X186740239Y-119251254D01*
X187235024Y-119456200D01*
X187770576Y-119456200D01*
X188265361Y-119251254D01*
X188644054Y-118872561D01*
X188849000Y-118377776D01*
X188849000Y-117842224D01*
X188644054Y-117347439D01*
X188265361Y-116968746D01*
X187770576Y-116763800D01*
X187235024Y-116763800D01*
X186740239Y-116968746D01*
X186500101Y-117208884D01*
X186062152Y-116553448D01*
X185348000Y-116076267D01*
X185096388Y-116026218D01*
X185101245Y-116001800D01*
X185055904Y-115773857D01*
X185055465Y-115773200D01*
X186470841Y-115773200D01*
X187100600Y-115647933D01*
X187814752Y-115170752D01*
X188291933Y-114456600D01*
X188459497Y-113614200D01*
X188291933Y-112771800D01*
X187814752Y-112057648D01*
X187100600Y-111580467D01*
X186470841Y-111455200D01*
X184521559Y-111455200D01*
X183891800Y-111580467D01*
X183177648Y-112057648D01*
X182700467Y-112771800D01*
X182542357Y-113566673D01*
X175744200Y-106768518D01*
X175744200Y-98791000D01*
X175845257Y-98791000D01*
X176393929Y-98681862D01*
X177016125Y-98266125D01*
X177431862Y-97643929D01*
X177486582Y-97368833D01*
X178074887Y-97368833D01*
X178138916Y-97609696D01*
X178560524Y-98329870D01*
X179225638Y-98833882D01*
X180033000Y-99045000D01*
X180533000Y-99045000D01*
X180533000Y-97037000D01*
X180787000Y-97037000D01*
X180787000Y-99045000D01*
X181287000Y-99045000D01*
X182094362Y-98833882D01*
X182759476Y-98329870D01*
X183181084Y-97609696D01*
X183245113Y-97368833D01*
X183132165Y-97037000D01*
X180787000Y-97037000D01*
X180533000Y-97037000D01*
X178187835Y-97037000D01*
X178074887Y-97368833D01*
X177486582Y-97368833D01*
X177577850Y-96910000D01*
X177431862Y-96176071D01*
X177016125Y-95553875D01*
X176393929Y-95138138D01*
X175845257Y-95029000D01*
X174474743Y-95029000D01*
X173926071Y-95138138D01*
X173303875Y-95553875D01*
X172901723Y-96155740D01*
X172431581Y-95685599D01*
X172398985Y-95636815D01*
X172205743Y-95507696D01*
X172035337Y-95473800D01*
X172035336Y-95473800D01*
X171977800Y-95462355D01*
X171920264Y-95473800D01*
X155196625Y-95473800D01*
X155233178Y-95419094D01*
X155298800Y-95089191D01*
X155298800Y-93866409D01*
X155233178Y-93536506D01*
X154983205Y-93162395D01*
X154609093Y-92912422D01*
X154167800Y-92824643D01*
X153785000Y-92900787D01*
X153785000Y-92837000D01*
X152527000Y-92837000D01*
X152273000Y-92837000D01*
X152253000Y-92837000D01*
X152253000Y-92710000D01*
X172742150Y-92710000D01*
X172888138Y-93443929D01*
X173303875Y-94066125D01*
X173926071Y-94481862D01*
X174474743Y-94591000D01*
X175845257Y-94591000D01*
X176393929Y-94481862D01*
X177016125Y-94066125D01*
X177431862Y-93443929D01*
X177486582Y-93168833D01*
X178074887Y-93168833D01*
X178138916Y-93409696D01*
X178560524Y-94129870D01*
X179225638Y-94633882D01*
X179899152Y-94810000D01*
X179225638Y-94986118D01*
X178560524Y-95490130D01*
X178138916Y-96210304D01*
X178074887Y-96451167D01*
X178187835Y-96783000D01*
X180533000Y-96783000D01*
X180533000Y-92837000D01*
X180787000Y-92837000D01*
X180787000Y-96783000D01*
X183132165Y-96783000D01*
X183245113Y-96451167D01*
X183241185Y-96436390D01*
X185579000Y-96436390D01*
X185579000Y-97383610D01*
X185941485Y-98258728D01*
X186611272Y-98928515D01*
X187486390Y-99291000D01*
X188433610Y-99291000D01*
X189308728Y-98928515D01*
X189978515Y-98258728D01*
X190341000Y-97383610D01*
X190341000Y-96436390D01*
X189978515Y-95561272D01*
X189308728Y-94891485D01*
X188433610Y-94529000D01*
X187486390Y-94529000D01*
X186611272Y-94891485D01*
X185941485Y-95561272D01*
X185579000Y-96436390D01*
X183241185Y-96436390D01*
X183181084Y-96210304D01*
X182759476Y-95490130D01*
X182094362Y-94986118D01*
X181420848Y-94810000D01*
X182094362Y-94633882D01*
X182759476Y-94129870D01*
X183181084Y-93409696D01*
X183245113Y-93168833D01*
X183132165Y-92837000D01*
X180787000Y-92837000D01*
X180533000Y-92837000D01*
X178187835Y-92837000D01*
X178074887Y-93168833D01*
X177486582Y-93168833D01*
X177577850Y-92710000D01*
X177431862Y-91976071D01*
X177016125Y-91353875D01*
X176393929Y-90938138D01*
X175845257Y-90829000D01*
X174474743Y-90829000D01*
X173926071Y-90938138D01*
X173303875Y-91353875D01*
X172888138Y-91976071D01*
X172742150Y-92710000D01*
X152253000Y-92710000D01*
X152253000Y-92583000D01*
X152273000Y-92583000D01*
X152273000Y-90990344D01*
X152527000Y-90990344D01*
X152527000Y-92583000D01*
X153785000Y-92583000D01*
X153785000Y-92519213D01*
X154167800Y-92595357D01*
X154609094Y-92507578D01*
X154983205Y-92257605D01*
X155233178Y-91883494D01*
X155298800Y-91553591D01*
X155298800Y-90330809D01*
X155233178Y-90000906D01*
X154983205Y-89626795D01*
X154609093Y-89376822D01*
X154167800Y-89289043D01*
X153726506Y-89376822D01*
X153352395Y-89626795D01*
X153102422Y-90000907D01*
X153036800Y-90330810D01*
X153036800Y-91003567D01*
X152812684Y-90881827D01*
X152741185Y-90867682D01*
X152527000Y-90990344D01*
X152273000Y-90990344D01*
X152058815Y-90867682D01*
X152017200Y-90875915D01*
X152017200Y-90315200D01*
X151863172Y-89794851D01*
X151521740Y-89373055D01*
X151044884Y-89114027D01*
X150973385Y-89099882D01*
X150759200Y-89222544D01*
X150759200Y-90815200D01*
X150779200Y-90815200D01*
X150779200Y-91069200D01*
X150759200Y-91069200D01*
X150759200Y-91089200D01*
X150505200Y-91089200D01*
X150505200Y-91069200D01*
X149247200Y-91069200D01*
X149247200Y-91569200D01*
X149401228Y-92089549D01*
X149742660Y-92511345D01*
X150219516Y-92770373D01*
X150291015Y-92784518D01*
X150505198Y-92661857D01*
X150505198Y-92827200D01*
X150619345Y-92827200D01*
X150190906Y-92912422D01*
X149816795Y-93162395D01*
X149566822Y-93536507D01*
X149501200Y-93866410D01*
X149501200Y-95089191D01*
X149566822Y-95419094D01*
X149688435Y-95601100D01*
X148209736Y-95601100D01*
X148142199Y-95587666D01*
X148074662Y-95601100D01*
X148074657Y-95601100D01*
X147874614Y-95640891D01*
X147647766Y-95792466D01*
X147609506Y-95849726D01*
X136972134Y-106487100D01*
X136952298Y-106487100D01*
X136648892Y-106612774D01*
X136416674Y-106844992D01*
X136291000Y-107148398D01*
X136291000Y-107476802D01*
X136416674Y-107780208D01*
X136578566Y-107942100D01*
X134233369Y-107942100D01*
X134340400Y-107683702D01*
X134340400Y-107355298D01*
X134214726Y-107051892D01*
X133982508Y-106819674D01*
X133679102Y-106694000D01*
X133350698Y-106694000D01*
X133047292Y-106819674D01*
X133033266Y-106833700D01*
X106543042Y-106833700D01*
X106475499Y-106820265D01*
X106407957Y-106833700D01*
X106207914Y-106873491D01*
X105981066Y-107025066D01*
X105942804Y-107082329D01*
X98799945Y-114225189D01*
X98425000Y-114150608D01*
X98236829Y-114188038D01*
X107575068Y-104849800D01*
X132769966Y-104849800D01*
X132783992Y-104863826D01*
X133087398Y-104989500D01*
X133415802Y-104989500D01*
X133719208Y-104863826D01*
X133951426Y-104631608D01*
X134077100Y-104328202D01*
X134077100Y-103999798D01*
X133951426Y-103696392D01*
X133719208Y-103464174D01*
X133415802Y-103338500D01*
X133087398Y-103338500D01*
X132783992Y-103464174D01*
X132769966Y-103478200D01*
X132060666Y-103478200D01*
X133088168Y-102450700D01*
X133108002Y-102450700D01*
X133411408Y-102325026D01*
X133643626Y-102092808D01*
X133769300Y-101789402D01*
X133769300Y-101460998D01*
X133643626Y-101157592D01*
X133478134Y-100992100D01*
X140626334Y-100992100D01*
X140723900Y-101011507D01*
X140821969Y-100992000D01*
X140920943Y-100992000D01*
X141012383Y-100954124D01*
X141110413Y-100934625D01*
X141193520Y-100879095D01*
X141285030Y-100841190D01*
X141355069Y-100771151D01*
X141438083Y-100715683D01*
X141493551Y-100632669D01*
X141563690Y-100562530D01*
X141601649Y-100470889D01*
X141657025Y-100388013D01*
X141676470Y-100290255D01*
X141714500Y-100198443D01*
X141714500Y-100099065D01*
X141733907Y-100001500D01*
X141714500Y-99903934D01*
X141714500Y-99804357D01*
X141676432Y-99712453D01*
X141657025Y-99614887D01*
X141601758Y-99532174D01*
X141563690Y-99440270D01*
X141493350Y-99369930D01*
X141438083Y-99287217D01*
X141355370Y-99231950D01*
X141285030Y-99161610D01*
X141193124Y-99123541D01*
X141110412Y-99068275D01*
X141012848Y-99048868D01*
X140920943Y-99010800D01*
X140821466Y-99010800D01*
X140723900Y-98991393D01*
X140626334Y-99010800D01*
X140526857Y-99010800D01*
X140526616Y-99010900D01*
X125885866Y-99010900D01*
X125788300Y-98991493D01*
X125690734Y-99010900D01*
X125401787Y-99068375D01*
X125074117Y-99287317D01*
X125018850Y-99370030D01*
X124118081Y-100270800D01*
X116979587Y-100270800D01*
X120026007Y-97224381D01*
X120125681Y-97157781D01*
X120389534Y-96762897D01*
X120458800Y-96414674D01*
X120458800Y-96414670D01*
X120482186Y-96297101D01*
X120458800Y-96179532D01*
X120458800Y-94257000D01*
X120600000Y-94257000D01*
X120600000Y-94557000D01*
X120757834Y-95096483D01*
X121110104Y-95534500D01*
X121603181Y-95804367D01*
X121685961Y-95821904D01*
X121908000Y-95699915D01*
X121908000Y-94257000D01*
X122162000Y-94257000D01*
X122162000Y-95699915D01*
X122384039Y-95821904D01*
X122466819Y-95804367D01*
X122959896Y-95534500D01*
X123312166Y-95096483D01*
X123470000Y-94557000D01*
X123470000Y-94257000D01*
X122162000Y-94257000D01*
X121908000Y-94257000D01*
X120600000Y-94257000D01*
X120458800Y-94257000D01*
X120458800Y-94012426D01*
X120446000Y-93948076D01*
X120446000Y-93713682D01*
X120443876Y-93703000D01*
X120600000Y-93703000D01*
X120600000Y-94003000D01*
X121908000Y-94003000D01*
X121908000Y-92560085D01*
X122162000Y-92560085D01*
X122162000Y-94003000D01*
X123470000Y-94003000D01*
X123470000Y-93713683D01*
X123624000Y-93713683D01*
X123624000Y-94546318D01*
X123692522Y-94890803D01*
X123953548Y-95281453D01*
X124344198Y-95542478D01*
X124805000Y-95634137D01*
X125265803Y-95542478D01*
X125656453Y-95281453D01*
X125917478Y-94890803D01*
X125986000Y-94546317D01*
X125986000Y-93713682D01*
X125917478Y-93369197D01*
X125687492Y-93025000D01*
X125904250Y-93025000D01*
X126063000Y-92866250D01*
X126063000Y-91417000D01*
X126317000Y-91417000D01*
X126317000Y-92866250D01*
X126475750Y-93025000D01*
X127116309Y-93025000D01*
X127349698Y-92928327D01*
X127528327Y-92749699D01*
X127625000Y-92516310D01*
X127625000Y-91926247D01*
X130261000Y-91926247D01*
X130261000Y-93493754D01*
X130428157Y-94334110D01*
X131064916Y-95287085D01*
X132017891Y-95923843D01*
X133142000Y-96147442D01*
X134266110Y-95923843D01*
X135219085Y-95287085D01*
X135855843Y-94334110D01*
X136023000Y-93493753D01*
X136023000Y-91926246D01*
X135855843Y-91085890D01*
X135340884Y-90315200D01*
X149247200Y-90315200D01*
X149247200Y-90815200D01*
X150505200Y-90815200D01*
X150505200Y-89222544D01*
X150291015Y-89099882D01*
X150219516Y-89114027D01*
X149742660Y-89373055D01*
X149401228Y-89794851D01*
X149247200Y-90315200D01*
X135340884Y-90315200D01*
X135219084Y-90132915D01*
X134266109Y-89496157D01*
X133142000Y-89272558D01*
X132017890Y-89496157D01*
X131064915Y-90132916D01*
X130428157Y-91085891D01*
X130261000Y-91926247D01*
X127625000Y-91926247D01*
X127625000Y-91575750D01*
X127466250Y-91417000D01*
X126317000Y-91417000D01*
X126063000Y-91417000D01*
X124913750Y-91417000D01*
X124755000Y-91575750D01*
X124755000Y-92516310D01*
X124800730Y-92626712D01*
X124344197Y-92717522D01*
X123953547Y-92978547D01*
X123692522Y-93369198D01*
X123624000Y-93713683D01*
X123470000Y-93713683D01*
X123470000Y-93703000D01*
X123312166Y-93163517D01*
X122959896Y-92725500D01*
X122466819Y-92455633D01*
X122384039Y-92438096D01*
X122162000Y-92560085D01*
X121908000Y-92560085D01*
X121751949Y-92474350D01*
X121927166Y-92256483D01*
X122085000Y-91717000D01*
X122085000Y-91417000D01*
X120777000Y-91417000D01*
X120777000Y-92859915D01*
X120933051Y-92945650D01*
X120757834Y-93163517D01*
X120600000Y-93703000D01*
X120443876Y-93703000D01*
X120377478Y-93369197D01*
X120116453Y-92978547D01*
X119725802Y-92717522D01*
X119265000Y-92625863D01*
X118804197Y-92717522D01*
X118413547Y-92978547D01*
X118152522Y-93369198D01*
X118084000Y-93713683D01*
X118084000Y-93948077D01*
X118071200Y-94012427D01*
X118071201Y-95802611D01*
X116569737Y-97304075D01*
X116552800Y-97218926D01*
X116552800Y-97099038D01*
X116506921Y-96988276D01*
X116483534Y-96870703D01*
X116416934Y-96771030D01*
X116371055Y-96660267D01*
X116286281Y-96575493D01*
X116219681Y-96475819D01*
X116120007Y-96409219D01*
X116035233Y-96324445D01*
X115924470Y-96278566D01*
X115824797Y-96211966D01*
X115707224Y-96188579D01*
X115596462Y-96142700D01*
X108178840Y-96142700D01*
X109279110Y-95923843D01*
X110232085Y-95287085D01*
X110868843Y-94334110D01*
X110884181Y-94257000D01*
X115060000Y-94257000D01*
X115060000Y-94557000D01*
X115217834Y-95096483D01*
X115570104Y-95534500D01*
X116063181Y-95804367D01*
X116145961Y-95821904D01*
X116368000Y-95699915D01*
X116368000Y-94257000D01*
X116622000Y-94257000D01*
X116622000Y-95699915D01*
X116844039Y-95821904D01*
X116926819Y-95804367D01*
X117419896Y-95534500D01*
X117772166Y-95096483D01*
X117930000Y-94557000D01*
X117930000Y-94257000D01*
X116622000Y-94257000D01*
X116368000Y-94257000D01*
X115060000Y-94257000D01*
X110884181Y-94257000D01*
X110994378Y-93703000D01*
X115060000Y-93703000D01*
X115060000Y-94003000D01*
X116368000Y-94003000D01*
X116368000Y-92560085D01*
X116622000Y-92560085D01*
X116622000Y-94003000D01*
X117930000Y-94003000D01*
X117930000Y-93703000D01*
X117772166Y-93163517D01*
X117419896Y-92725500D01*
X116926819Y-92455633D01*
X116844039Y-92438096D01*
X116622000Y-92560085D01*
X116368000Y-92560085D01*
X116211949Y-92474350D01*
X116387166Y-92256483D01*
X116545000Y-91717000D01*
X116545000Y-91417000D01*
X115237000Y-91417000D01*
X115237000Y-92859915D01*
X115393051Y-92945650D01*
X115217834Y-93163517D01*
X115060000Y-93703000D01*
X110994378Y-93703000D01*
X111036000Y-93493753D01*
X111036000Y-91926246D01*
X110934705Y-91417000D01*
X113675000Y-91417000D01*
X113675000Y-91717000D01*
X113832834Y-92256483D01*
X114185104Y-92694500D01*
X114678181Y-92964367D01*
X114760961Y-92981904D01*
X114983000Y-92859915D01*
X114983000Y-91417000D01*
X113675000Y-91417000D01*
X110934705Y-91417000D01*
X110868843Y-91085890D01*
X110232084Y-90132915D01*
X109767066Y-89822200D01*
X114300760Y-89822200D01*
X114185104Y-89885500D01*
X113832834Y-90323517D01*
X113675000Y-90863000D01*
X113675000Y-91163000D01*
X114983000Y-91163000D01*
X114983000Y-91143000D01*
X115237000Y-91143000D01*
X115237000Y-91163000D01*
X116545000Y-91163000D01*
X116545000Y-90863000D01*
X116387166Y-90323517D01*
X116034896Y-89885500D01*
X115919240Y-89822200D01*
X116686201Y-89822200D01*
X116686200Y-91407573D01*
X116699000Y-91471923D01*
X116699000Y-91706318D01*
X116767522Y-92050803D01*
X117028548Y-92441453D01*
X117419198Y-92702478D01*
X117880000Y-92794137D01*
X118340803Y-92702478D01*
X118731453Y-92441453D01*
X118992478Y-92050803D01*
X119061000Y-91706317D01*
X119061000Y-91471924D01*
X119071925Y-91417000D01*
X119215000Y-91417000D01*
X119215000Y-91717000D01*
X119372834Y-92256483D01*
X119725104Y-92694500D01*
X120218181Y-92964367D01*
X120300961Y-92981904D01*
X120523000Y-92859915D01*
X120523000Y-91417000D01*
X119215000Y-91417000D01*
X119071925Y-91417000D01*
X119073800Y-91407574D01*
X119073800Y-90863000D01*
X119215000Y-90863000D01*
X119215000Y-91163000D01*
X120523000Y-91163000D01*
X120523000Y-89720085D01*
X120777000Y-89720085D01*
X120777000Y-91163000D01*
X122085000Y-91163000D01*
X122085000Y-90863000D01*
X121927166Y-90323517D01*
X121574896Y-89885500D01*
X121081819Y-89615633D01*
X120999039Y-89598096D01*
X120777000Y-89720085D01*
X120523000Y-89720085D01*
X120300961Y-89598096D01*
X120218181Y-89615633D01*
X119725104Y-89885500D01*
X119372834Y-90323517D01*
X119215000Y-90863000D01*
X119073800Y-90863000D01*
X119073800Y-89240474D01*
X119097187Y-89122900D01*
X119004534Y-88657102D01*
X118821384Y-88383000D01*
X118740681Y-88262219D01*
X118641004Y-88195617D01*
X118312783Y-87867396D01*
X118246181Y-87767719D01*
X117851297Y-87503866D01*
X117503074Y-87434600D01*
X117503069Y-87434600D01*
X117385500Y-87411214D01*
X117267931Y-87434600D01*
X106788569Y-87434600D01*
X106671000Y-87411214D01*
X106553431Y-87434600D01*
X106553426Y-87434600D01*
X106205203Y-87503866D01*
X105810319Y-87767719D01*
X105743719Y-87867393D01*
X101728313Y-91882800D01*
X90450067Y-91882800D01*
X91477067Y-90855800D01*
X92265498Y-90855800D01*
X92268318Y-90869976D01*
X92520944Y-91248057D01*
X92899025Y-91500682D01*
X93345000Y-91589392D01*
X93790976Y-91500682D01*
X94169057Y-91248057D01*
X94421682Y-90869975D01*
X94488000Y-90536571D01*
X94488000Y-89803428D01*
X94472962Y-89727829D01*
X94742000Y-89996867D01*
X94742000Y-90536572D01*
X94808318Y-90869976D01*
X95060944Y-91248057D01*
X95439025Y-91500682D01*
X95885000Y-91589392D01*
X96330976Y-91500682D01*
X96709057Y-91248057D01*
X96961682Y-90869975D01*
X97028000Y-90536571D01*
X97028000Y-89803429D01*
X97282000Y-89803429D01*
X97282000Y-90536572D01*
X97348318Y-90869976D01*
X97600944Y-91248057D01*
X97979025Y-91500682D01*
X98425000Y-91589392D01*
X98870976Y-91500682D01*
X99249057Y-91248057D01*
X99501682Y-90869975D01*
X99568000Y-90536571D01*
X99568000Y-89803429D01*
X99822000Y-89803429D01*
X99822000Y-90536572D01*
X99888318Y-90869976D01*
X100140944Y-91248057D01*
X100519025Y-91500682D01*
X100965000Y-91589392D01*
X101410976Y-91500682D01*
X101789057Y-91248057D01*
X102041682Y-90869975D01*
X102108000Y-90536571D01*
X102108000Y-89803428D01*
X102041682Y-89470024D01*
X101789057Y-89091943D01*
X101410975Y-88839318D01*
X100965000Y-88750608D01*
X100519024Y-88839318D01*
X100140943Y-89091943D01*
X99888318Y-89470025D01*
X99822000Y-89803429D01*
X99568000Y-89803429D01*
X99568000Y-89803428D01*
X99501682Y-89470024D01*
X99249057Y-89091943D01*
X98870975Y-88839318D01*
X98425000Y-88750608D01*
X97979024Y-88839318D01*
X97600943Y-89091943D01*
X97348318Y-89470025D01*
X97282000Y-89803429D01*
X97028000Y-89803429D01*
X97028000Y-89803428D01*
X96961682Y-89470024D01*
X96709057Y-89091943D01*
X96330975Y-88839318D01*
X95885000Y-88750608D01*
X95510055Y-88825189D01*
X94842498Y-88157632D01*
X94804234Y-88100366D01*
X94577386Y-87948791D01*
X94377343Y-87909000D01*
X94377342Y-87909000D01*
X94309800Y-87895565D01*
X94242258Y-87909000D01*
X84785642Y-87909000D01*
X84718100Y-87895565D01*
X84650557Y-87909000D01*
X84450514Y-87948791D01*
X84223666Y-88100366D01*
X84185404Y-88157629D01*
X78199629Y-94143405D01*
X78142366Y-94181667D01*
X78040507Y-94334110D01*
X77990791Y-94408515D01*
X77937565Y-94676100D01*
X77951000Y-94743643D01*
X77951001Y-95414900D01*
X72841742Y-95414900D01*
X72774199Y-95401465D01*
X72506614Y-95454691D01*
X72279766Y-95606266D01*
X72241504Y-95663529D01*
X71760434Y-96144600D01*
X71740598Y-96144600D01*
X71437192Y-96270274D01*
X71204974Y-96502492D01*
X71079300Y-96805898D01*
X69342000Y-96805898D01*
X69342000Y-85417500D01*
X90937414Y-85417500D01*
X90960800Y-85535069D01*
X90960800Y-85654962D01*
X91006681Y-85765729D01*
X91030067Y-85883297D01*
X91096664Y-85982967D01*
X91142545Y-86093733D01*
X91227320Y-86178508D01*
X91293919Y-86278181D01*
X91393592Y-86344780D01*
X91478367Y-86429555D01*
X91589133Y-86475436D01*
X91688803Y-86542033D01*
X91806371Y-86565419D01*
X91917138Y-86611300D01*
X92037031Y-86611300D01*
X92154600Y-86634686D01*
X92272169Y-86611300D01*
X92392062Y-86611300D01*
X92502829Y-86565419D01*
X92620397Y-86542033D01*
X92720067Y-86475436D01*
X92830833Y-86429555D01*
X93166655Y-86093733D01*
X93166656Y-86093731D01*
X93248787Y-86011600D01*
X118620413Y-86011600D01*
X122226201Y-89617389D01*
X122226200Y-91407573D01*
X122239000Y-91471923D01*
X122239000Y-91706318D01*
X122307522Y-92050803D01*
X122568548Y-92441453D01*
X122959198Y-92702478D01*
X123420000Y-92794137D01*
X123880803Y-92702478D01*
X124271453Y-92441453D01*
X124532478Y-92050803D01*
X124601000Y-91706317D01*
X124601000Y-91471924D01*
X124613800Y-91407574D01*
X124613800Y-90063690D01*
X124755000Y-90063690D01*
X124755000Y-91004250D01*
X124913750Y-91163000D01*
X126063000Y-91163000D01*
X126063000Y-89713750D01*
X126317000Y-89713750D01*
X126317000Y-91163000D01*
X127466250Y-91163000D01*
X127625000Y-91004250D01*
X127625000Y-90063690D01*
X127528327Y-89830301D01*
X127349698Y-89651673D01*
X127116309Y-89555000D01*
X126475750Y-89555000D01*
X126317000Y-89713750D01*
X126063000Y-89713750D01*
X125904250Y-89555000D01*
X125263691Y-89555000D01*
X125030302Y-89651673D01*
X124851673Y-89830301D01*
X124755000Y-90063690D01*
X124613800Y-90063690D01*
X124613800Y-89240469D01*
X124637186Y-89122900D01*
X124613800Y-89005331D01*
X124613800Y-89005326D01*
X124544534Y-88657103D01*
X124446243Y-88510000D01*
X172742150Y-88510000D01*
X172888138Y-89243929D01*
X173303875Y-89866125D01*
X173926071Y-90281862D01*
X174474743Y-90391000D01*
X175845257Y-90391000D01*
X176393929Y-90281862D01*
X177016125Y-89866125D01*
X177431862Y-89243929D01*
X177521010Y-88795750D01*
X178025000Y-88795750D01*
X178025000Y-90136309D01*
X178121673Y-90369698D01*
X178300301Y-90548327D01*
X178533690Y-90645000D01*
X179765304Y-90645000D01*
X179225638Y-90786118D01*
X178560524Y-91290130D01*
X178138916Y-92010304D01*
X178074887Y-92251167D01*
X178187835Y-92583000D01*
X180533000Y-92583000D01*
X180533000Y-90575000D01*
X180444250Y-90575000D01*
X180533000Y-90486250D01*
X180533000Y-88637000D01*
X180787000Y-88637000D01*
X180787000Y-90486250D01*
X180875750Y-90575000D01*
X180787000Y-90575000D01*
X180787000Y-92583000D01*
X183132165Y-92583000D01*
X183245113Y-92251167D01*
X183181084Y-92010304D01*
X182759476Y-91290130D01*
X182094362Y-90786118D01*
X181554696Y-90645000D01*
X182786310Y-90645000D01*
X183019699Y-90548327D01*
X183198327Y-90369698D01*
X183295000Y-90136309D01*
X183295000Y-88795750D01*
X183136250Y-88637000D01*
X180787000Y-88637000D01*
X180533000Y-88637000D01*
X178183750Y-88637000D01*
X178025000Y-88795750D01*
X177521010Y-88795750D01*
X177577850Y-88510000D01*
X177431862Y-87776071D01*
X177016125Y-87153875D01*
X176611766Y-86883691D01*
X178025000Y-86883691D01*
X178025000Y-88224250D01*
X178183750Y-88383000D01*
X180533000Y-88383000D01*
X180533000Y-86533750D01*
X180787000Y-86533750D01*
X180787000Y-88383000D01*
X183136250Y-88383000D01*
X183295000Y-88224250D01*
X183295000Y-88036390D01*
X185579000Y-88036390D01*
X185579000Y-88983610D01*
X185941485Y-89858728D01*
X186611272Y-90528515D01*
X187486390Y-90891000D01*
X188433610Y-90891000D01*
X189308728Y-90528515D01*
X189978515Y-89858728D01*
X190341000Y-88983610D01*
X190341000Y-88036390D01*
X189978515Y-87161272D01*
X189308728Y-86491485D01*
X188433610Y-86129000D01*
X187486390Y-86129000D01*
X186611272Y-86491485D01*
X185941485Y-87161272D01*
X185579000Y-88036390D01*
X183295000Y-88036390D01*
X183295000Y-86883691D01*
X183198327Y-86650302D01*
X183019699Y-86471673D01*
X182786310Y-86375000D01*
X180945750Y-86375000D01*
X180787000Y-86533750D01*
X180533000Y-86533750D01*
X180374250Y-86375000D01*
X178533690Y-86375000D01*
X178300301Y-86471673D01*
X178121673Y-86650302D01*
X178025000Y-86883691D01*
X176611766Y-86883691D01*
X176393929Y-86738138D01*
X175845257Y-86629000D01*
X174474743Y-86629000D01*
X173926071Y-86738138D01*
X173303875Y-87153875D01*
X172888138Y-87776071D01*
X172742150Y-88510000D01*
X124446243Y-88510000D01*
X124280681Y-88262219D01*
X124181007Y-88195619D01*
X121321234Y-85335846D01*
X150519000Y-85335846D01*
X150519000Y-86084154D01*
X150805365Y-86775501D01*
X151334499Y-87304635D01*
X152025846Y-87591000D01*
X152774154Y-87591000D01*
X153465501Y-87304635D01*
X153994635Y-86775501D01*
X154281000Y-86084154D01*
X154281000Y-85335846D01*
X153994635Y-84644499D01*
X153465501Y-84115365D01*
X152774154Y-83829000D01*
X152025846Y-83829000D01*
X151334499Y-84115365D01*
X150805365Y-84644499D01*
X150519000Y-85335846D01*
X121321234Y-85335846D01*
X120042183Y-84056796D01*
X119975581Y-83957119D01*
X119580697Y-83693266D01*
X119232474Y-83624000D01*
X119232469Y-83624000D01*
X119114900Y-83600614D01*
X118997331Y-83624000D01*
X92871869Y-83624000D01*
X92754300Y-83600614D01*
X92636731Y-83624000D01*
X92636726Y-83624000D01*
X92288503Y-83693266D01*
X91893619Y-83957119D01*
X91827017Y-84056796D01*
X91478369Y-84405444D01*
X91478367Y-84405445D01*
X91142545Y-84741267D01*
X91096664Y-84852033D01*
X91030067Y-84951703D01*
X91006681Y-85069271D01*
X90960800Y-85180038D01*
X90960800Y-85299931D01*
X90937414Y-85417500D01*
X69342000Y-85417500D01*
X69342000Y-79580548D01*
X71501000Y-79580548D01*
X71501000Y-80439452D01*
X71829688Y-81232975D01*
X72437025Y-81840312D01*
X73230548Y-82169000D01*
X74089452Y-82169000D01*
X74882975Y-81840312D01*
X75490312Y-81232975D01*
X75819000Y-80439452D01*
X75819000Y-79580548D01*
X75490312Y-78787025D01*
X74882975Y-78179688D01*
X74089452Y-77851000D01*
X73230548Y-77851000D01*
X72437025Y-78179688D01*
X71829688Y-78787025D01*
X71501000Y-79580548D01*
X69342000Y-79580548D01*
X69342000Y-73660000D01*
X71074436Y-73660000D01*
X71074436Y-76200000D01*
X71104006Y-76348659D01*
X71188214Y-76474686D01*
X71314241Y-76558894D01*
X71462900Y-76588464D01*
X73317100Y-76588464D01*
X73465759Y-76558894D01*
X73591786Y-76474686D01*
X73675994Y-76348659D01*
X73705564Y-76200000D01*
X73705564Y-75794919D01*
X73986914Y-76215987D01*
X74419606Y-76505103D01*
X74930000Y-76606627D01*
X75440395Y-76505103D01*
X75873087Y-76215987D01*
X76162203Y-75783295D01*
X76200000Y-75593276D01*
X76237797Y-75783295D01*
X76526914Y-76215987D01*
X76959606Y-76505103D01*
X77470000Y-76606627D01*
X77980395Y-76505103D01*
X78413087Y-76215987D01*
X78702203Y-75783295D01*
X78740000Y-75593276D01*
X78777797Y-75783295D01*
X79066914Y-76215987D01*
X79499606Y-76505103D01*
X80010000Y-76606627D01*
X80520395Y-76505103D01*
X80953087Y-76215987D01*
X81242203Y-75783295D01*
X81280000Y-75593276D01*
X81317797Y-75783295D01*
X81606914Y-76215987D01*
X82039606Y-76505103D01*
X82550000Y-76606627D01*
X83060395Y-76505103D01*
X83493087Y-76215987D01*
X83782203Y-75783295D01*
X83820000Y-75593276D01*
X83857797Y-75783295D01*
X84146914Y-76215987D01*
X84579606Y-76505103D01*
X85090000Y-76606627D01*
X85600395Y-76505103D01*
X86033087Y-76215987D01*
X86322203Y-75783295D01*
X86360000Y-75593276D01*
X86397797Y-75783295D01*
X86686914Y-76215987D01*
X87119606Y-76505103D01*
X87630000Y-76606627D01*
X88140395Y-76505103D01*
X88573087Y-76215987D01*
X88862203Y-75783295D01*
X88900000Y-75593276D01*
X88937797Y-75783295D01*
X89226914Y-76215987D01*
X89659606Y-76505103D01*
X90170000Y-76606627D01*
X90680395Y-76505103D01*
X91113087Y-76215987D01*
X91402203Y-75783295D01*
X91440000Y-75593276D01*
X91477797Y-75783295D01*
X91766914Y-76215987D01*
X92199606Y-76505103D01*
X92710000Y-76606627D01*
X93220395Y-76505103D01*
X93653087Y-76215987D01*
X93942203Y-75783295D01*
X93980000Y-75593276D01*
X94017797Y-75783295D01*
X94306914Y-76215987D01*
X94739606Y-76505103D01*
X95250000Y-76606627D01*
X95760395Y-76505103D01*
X96193087Y-76215987D01*
X96482203Y-75783295D01*
X96520000Y-75593276D01*
X96557797Y-75783295D01*
X96846914Y-76215987D01*
X97279606Y-76505103D01*
X97790000Y-76606627D01*
X98300395Y-76505103D01*
X98733087Y-76215987D01*
X99022203Y-75783295D01*
X99060000Y-75593276D01*
X99097797Y-75783295D01*
X99386914Y-76215987D01*
X99819606Y-76505103D01*
X100330000Y-76606627D01*
X100840395Y-76505103D01*
X101273087Y-76215987D01*
X101562203Y-75783295D01*
X101600000Y-75593276D01*
X101637797Y-75783295D01*
X101926914Y-76215987D01*
X102359606Y-76505103D01*
X102870000Y-76606627D01*
X103380395Y-76505103D01*
X103813087Y-76215987D01*
X104102203Y-75783295D01*
X104140000Y-75593276D01*
X104177797Y-75783295D01*
X104466914Y-76215987D01*
X104899606Y-76505103D01*
X105410000Y-76606627D01*
X105920395Y-76505103D01*
X106353087Y-76215987D01*
X106642203Y-75783295D01*
X106680000Y-75593276D01*
X106717797Y-75783295D01*
X107006914Y-76215987D01*
X107439606Y-76505103D01*
X107950000Y-76606627D01*
X108460395Y-76505103D01*
X108893087Y-76215987D01*
X109182203Y-75783295D01*
X109220000Y-75593276D01*
X109257797Y-75783295D01*
X109546914Y-76215987D01*
X109979606Y-76505103D01*
X110490000Y-76606627D01*
X111000395Y-76505103D01*
X111433087Y-76215987D01*
X111722203Y-75783295D01*
X111760000Y-75593276D01*
X111797797Y-75783295D01*
X112086914Y-76215987D01*
X112519606Y-76505103D01*
X113030000Y-76606627D01*
X113540395Y-76505103D01*
X113973087Y-76215987D01*
X114262203Y-75783295D01*
X114300000Y-75593276D01*
X114337797Y-75783295D01*
X114626914Y-76215987D01*
X115059606Y-76505103D01*
X115570000Y-76606627D01*
X116080395Y-76505103D01*
X116513087Y-76215987D01*
X116802203Y-75783295D01*
X116840000Y-75593276D01*
X116877797Y-75783295D01*
X117166914Y-76215987D01*
X117599606Y-76505103D01*
X118110000Y-76606627D01*
X118620395Y-76505103D01*
X119053087Y-76215987D01*
X119342203Y-75783295D01*
X119380000Y-75593276D01*
X119417797Y-75783295D01*
X119706914Y-76215987D01*
X120139606Y-76505103D01*
X120650000Y-76606627D01*
X121160395Y-76505103D01*
X121593087Y-76215987D01*
X121882203Y-75783295D01*
X121920000Y-75593276D01*
X121957797Y-75783295D01*
X122246914Y-76215987D01*
X122679606Y-76505103D01*
X123190000Y-76606627D01*
X123700395Y-76505103D01*
X124133087Y-76215987D01*
X124422203Y-75783295D01*
X124460000Y-75593276D01*
X124497797Y-75783295D01*
X124786914Y-76215987D01*
X125219606Y-76505103D01*
X125730000Y-76606627D01*
X126240395Y-76505103D01*
X126673087Y-76215987D01*
X126962203Y-75783295D01*
X127000000Y-75593276D01*
X127037797Y-75783295D01*
X127326914Y-76215987D01*
X127759606Y-76505103D01*
X128270000Y-76606627D01*
X128780395Y-76505103D01*
X129213087Y-76215987D01*
X129502203Y-75783295D01*
X129540000Y-75593276D01*
X129577797Y-75783295D01*
X129866914Y-76215987D01*
X130299606Y-76505103D01*
X130810000Y-76606627D01*
X131320395Y-76505103D01*
X131753087Y-76215987D01*
X132042203Y-75783295D01*
X132080000Y-75593276D01*
X132117797Y-75783295D01*
X132406914Y-76215987D01*
X132839606Y-76505103D01*
X133350000Y-76606627D01*
X133860395Y-76505103D01*
X134293087Y-76215987D01*
X134582203Y-75783295D01*
X134658100Y-75401734D01*
X134658100Y-74500548D01*
X162941000Y-74500548D01*
X162941000Y-75359452D01*
X163269688Y-76152975D01*
X163877025Y-76760312D01*
X164670548Y-77089000D01*
X165529452Y-77089000D01*
X166322975Y-76760312D01*
X166930312Y-76152975D01*
X167259000Y-75359452D01*
X167259000Y-74500548D01*
X166930312Y-73707025D01*
X166322975Y-73099688D01*
X165529452Y-72771000D01*
X164670548Y-72771000D01*
X163877025Y-73099688D01*
X163269688Y-73707025D01*
X162941000Y-74500548D01*
X134658100Y-74500548D01*
X134658100Y-74458265D01*
X134582203Y-74076705D01*
X134293087Y-73644013D01*
X133860394Y-73354897D01*
X133350000Y-73253373D01*
X132839605Y-73354897D01*
X132406913Y-73644013D01*
X132117797Y-74076706D01*
X132080000Y-74266724D01*
X132042203Y-74076705D01*
X131753087Y-73644013D01*
X131320394Y-73354897D01*
X130810000Y-73253373D01*
X130299605Y-73354897D01*
X129866913Y-73644013D01*
X129577797Y-74076706D01*
X129540000Y-74266724D01*
X129502203Y-74076705D01*
X129213087Y-73644013D01*
X128780394Y-73354897D01*
X128270000Y-73253373D01*
X127759605Y-73354897D01*
X127326913Y-73644013D01*
X127037797Y-74076706D01*
X127000000Y-74266724D01*
X126962203Y-74076705D01*
X126673087Y-73644013D01*
X126240394Y-73354897D01*
X125730000Y-73253373D01*
X125219605Y-73354897D01*
X124786913Y-73644013D01*
X124497797Y-74076706D01*
X124460000Y-74266724D01*
X124422203Y-74076705D01*
X124133087Y-73644013D01*
X123700394Y-73354897D01*
X123190000Y-73253373D01*
X122679605Y-73354897D01*
X122246913Y-73644013D01*
X121957797Y-74076706D01*
X121920000Y-74266724D01*
X121882203Y-74076705D01*
X121593087Y-73644013D01*
X121160394Y-73354897D01*
X120650000Y-73253373D01*
X120139605Y-73354897D01*
X119706913Y-73644013D01*
X119417797Y-74076706D01*
X119380000Y-74266724D01*
X119342203Y-74076705D01*
X119053087Y-73644013D01*
X118620394Y-73354897D01*
X118110000Y-73253373D01*
X117599605Y-73354897D01*
X117166913Y-73644013D01*
X116877797Y-74076706D01*
X116840000Y-74266724D01*
X116802203Y-74076705D01*
X116513087Y-73644013D01*
X116080394Y-73354897D01*
X115570000Y-73253373D01*
X115059605Y-73354897D01*
X114626913Y-73644013D01*
X114337797Y-74076706D01*
X114300000Y-74266724D01*
X114262203Y-74076705D01*
X113973087Y-73644013D01*
X113540394Y-73354897D01*
X113030000Y-73253373D01*
X112519605Y-73354897D01*
X112086913Y-73644013D01*
X111797797Y-74076706D01*
X111760000Y-74266724D01*
X111722203Y-74076705D01*
X111433087Y-73644013D01*
X111000394Y-73354897D01*
X110490000Y-73253373D01*
X109979605Y-73354897D01*
X109546913Y-73644013D01*
X109257797Y-74076706D01*
X109220000Y-74266724D01*
X109182203Y-74076705D01*
X108893087Y-73644013D01*
X108460394Y-73354897D01*
X107950000Y-73253373D01*
X107439605Y-73354897D01*
X107006913Y-73644013D01*
X106717797Y-74076706D01*
X106680000Y-74266724D01*
X106642203Y-74076705D01*
X106353087Y-73644013D01*
X105920394Y-73354897D01*
X105410000Y-73253373D01*
X104899605Y-73354897D01*
X104466913Y-73644013D01*
X104177797Y-74076706D01*
X104140000Y-74266724D01*
X104102203Y-74076705D01*
X103813087Y-73644013D01*
X103380394Y-73354897D01*
X102870000Y-73253373D01*
X102359605Y-73354897D01*
X101926913Y-73644013D01*
X101637797Y-74076706D01*
X101600000Y-74266724D01*
X101562203Y-74076705D01*
X101273087Y-73644013D01*
X100840394Y-73354897D01*
X100330000Y-73253373D01*
X99819605Y-73354897D01*
X99386913Y-73644013D01*
X99097797Y-74076706D01*
X99060000Y-74266724D01*
X99022203Y-74076705D01*
X98733087Y-73644013D01*
X98300394Y-73354897D01*
X97790000Y-73253373D01*
X97279605Y-73354897D01*
X96846913Y-73644013D01*
X96557797Y-74076706D01*
X96520000Y-74266724D01*
X96482203Y-74076705D01*
X96193087Y-73644013D01*
X95760394Y-73354897D01*
X95250000Y-73253373D01*
X94739605Y-73354897D01*
X94306913Y-73644013D01*
X94017797Y-74076706D01*
X93980000Y-74266724D01*
X93942203Y-74076705D01*
X93653087Y-73644013D01*
X93220394Y-73354897D01*
X92710000Y-73253373D01*
X92199605Y-73354897D01*
X91766913Y-73644013D01*
X91477797Y-74076706D01*
X91440000Y-74266724D01*
X91402203Y-74076705D01*
X91113087Y-73644013D01*
X90680394Y-73354897D01*
X90170000Y-73253373D01*
X89659605Y-73354897D01*
X89226913Y-73644013D01*
X88937797Y-74076706D01*
X88900000Y-74266724D01*
X88862203Y-74076705D01*
X88573087Y-73644013D01*
X88140394Y-73354897D01*
X87630000Y-73253373D01*
X87119605Y-73354897D01*
X86686913Y-73644013D01*
X86397797Y-74076706D01*
X86360000Y-74266724D01*
X86322203Y-74076705D01*
X86033087Y-73644013D01*
X85600394Y-73354897D01*
X85090000Y-73253373D01*
X84579605Y-73354897D01*
X84146913Y-73644013D01*
X83857797Y-74076706D01*
X83820000Y-74266724D01*
X83782203Y-74076705D01*
X83493087Y-73644013D01*
X83060394Y-73354897D01*
X82550000Y-73253373D01*
X82039605Y-73354897D01*
X81606913Y-73644013D01*
X81317797Y-74076706D01*
X81280000Y-74266724D01*
X81242203Y-74076705D01*
X80953087Y-73644013D01*
X80520394Y-73354897D01*
X80010000Y-73253373D01*
X79499605Y-73354897D01*
X79066913Y-73644013D01*
X78777797Y-74076706D01*
X78740000Y-74266724D01*
X78702203Y-74076705D01*
X78413087Y-73644013D01*
X77980394Y-73354897D01*
X77470000Y-73253373D01*
X76959605Y-73354897D01*
X76526913Y-73644013D01*
X76237797Y-74076706D01*
X76200000Y-74266724D01*
X76162203Y-74076705D01*
X75873087Y-73644013D01*
X75440394Y-73354897D01*
X74930000Y-73253373D01*
X74419605Y-73354897D01*
X73986913Y-73644013D01*
X73705564Y-74065082D01*
X73705564Y-73660000D01*
X73675994Y-73511341D01*
X73591786Y-73385314D01*
X73465759Y-73301106D01*
X73317100Y-73271536D01*
X71462900Y-73271536D01*
X71314241Y-73301106D01*
X71188214Y-73385314D01*
X71104006Y-73511341D01*
X71074436Y-73660000D01*
X69342000Y-73660000D01*
X69342000Y-71247000D01*
X191643000Y-71247000D01*
X191643000Y-139573000D01*
X191643000Y-139573000D01*
G37*
X191643000Y-139573000D02*
X69342000Y-139573000D01*
X69342000Y-130380548D01*
X71501000Y-130380548D01*
X71501000Y-131239452D01*
X71829688Y-132032975D01*
X72437025Y-132640312D01*
X73230548Y-132969000D01*
X74089452Y-132969000D01*
X74882975Y-132640312D01*
X75490312Y-132032975D01*
X75819000Y-131239452D01*
X75819000Y-130380548D01*
X75490312Y-129587025D01*
X74882975Y-128979688D01*
X74089452Y-128651000D01*
X73230548Y-128651000D01*
X72437025Y-128979688D01*
X71829688Y-129587025D01*
X71501000Y-130380548D01*
X69342000Y-130380548D01*
X69342000Y-96805898D01*
X71079300Y-96805898D01*
X71079300Y-97134302D01*
X71204974Y-97437708D01*
X71437192Y-97669926D01*
X71740598Y-97795600D01*
X72069002Y-97795600D01*
X72372408Y-97669926D01*
X72604626Y-97437708D01*
X72730300Y-97134302D01*
X72730300Y-97114466D01*
X73058267Y-96786500D01*
X78352734Y-96786500D01*
X82625204Y-101058971D01*
X82663466Y-101116234D01*
X82880722Y-101261400D01*
X82890314Y-101267809D01*
X83157900Y-101321035D01*
X83225442Y-101307600D01*
X97365434Y-101307600D01*
X97424102Y-101366268D01*
X97384102Y-101349700D01*
X97055698Y-101349700D01*
X96752292Y-101475374D01*
X96738266Y-101489400D01*
X91958434Y-101489400D01*
X91944408Y-101475374D01*
X91641002Y-101349700D01*
X91312598Y-101349700D01*
X91009192Y-101475374D01*
X90995166Y-101489400D01*
X77762042Y-101489400D01*
X77694500Y-101475965D01*
X77626957Y-101489400D01*
X77426914Y-101529191D01*
X77200066Y-101680766D01*
X77161806Y-101738026D01*
X72205834Y-106694000D01*
X72185998Y-106694000D01*
X71882592Y-106819674D01*
X71650374Y-107051892D01*
X71524700Y-107355298D01*
X71524700Y-107683702D01*
X71650374Y-107987108D01*
X71882592Y-108219326D01*
X72185998Y-108345000D01*
X72514402Y-108345000D01*
X72817808Y-108219326D01*
X73050026Y-107987108D01*
X73175700Y-107683702D01*
X73175700Y-107663866D01*
X77978568Y-102861000D01*
X90995166Y-102861000D01*
X91009192Y-102875026D01*
X91312598Y-103000700D01*
X91641002Y-103000700D01*
X91944408Y-102875026D01*
X91958434Y-102861000D01*
X96738266Y-102861000D01*
X96752292Y-102875026D01*
X97055698Y-103000700D01*
X97384102Y-103000700D01*
X97687508Y-102875026D01*
X97919726Y-102642808D01*
X98045400Y-102339402D01*
X98045400Y-102185134D01*
X98152992Y-102292726D01*
X98456398Y-102418400D01*
X98784802Y-102418400D01*
X99088208Y-102292726D01*
X99320426Y-102060508D01*
X99446100Y-101757102D01*
X99446100Y-101428698D01*
X99320426Y-101125292D01*
X99088208Y-100893074D01*
X98784802Y-100767400D01*
X98764967Y-100767400D01*
X98182197Y-100184631D01*
X98143934Y-100127366D01*
X97917086Y-99975791D01*
X97717043Y-99936000D01*
X97717042Y-99936000D01*
X97649500Y-99922565D01*
X97581958Y-99936000D01*
X83441967Y-99936000D01*
X79322600Y-95816634D01*
X79322600Y-94960166D01*
X80566653Y-93716113D01*
X80630274Y-93869708D01*
X80862492Y-94101926D01*
X81165898Y-94227600D01*
X81494302Y-94227600D01*
X81797708Y-94101926D01*
X81904034Y-93995600D01*
X88240334Y-93995600D01*
X93535304Y-99290571D01*
X93573566Y-99347834D01*
X93800414Y-99499409D01*
X94067999Y-99552635D01*
X94135542Y-99539200D01*
X100497866Y-99539200D01*
X100511892Y-99553226D01*
X100815298Y-99678900D01*
X101143702Y-99678900D01*
X101447108Y-99553226D01*
X101679326Y-99321008D01*
X101805000Y-99017602D01*
X101805000Y-98689198D01*
X101679326Y-98385792D01*
X101447108Y-98153574D01*
X101143702Y-98027900D01*
X100815298Y-98027900D01*
X100511892Y-98153574D01*
X100497866Y-98167600D01*
X94352067Y-98167600D01*
X90454866Y-94270400D01*
X92455156Y-94270400D01*
X92268318Y-94550025D01*
X92202000Y-94883429D01*
X92202000Y-95616572D01*
X92268318Y-95949976D01*
X92520944Y-96328057D01*
X92899025Y-96580682D01*
X93345000Y-96669392D01*
X93790976Y-96580682D01*
X94169057Y-96328057D01*
X94421682Y-95949975D01*
X94444711Y-95834200D01*
X94785289Y-95834200D01*
X94808318Y-95949976D01*
X95060944Y-96328057D01*
X95439025Y-96580682D01*
X95885000Y-96669392D01*
X96330976Y-96580682D01*
X96709057Y-96328057D01*
X96961682Y-95949975D01*
X96984711Y-95834200D01*
X97325289Y-95834200D01*
X97348318Y-95949976D01*
X97600944Y-96328057D01*
X97979025Y-96580682D01*
X98425000Y-96669392D01*
X98870976Y-96580682D01*
X99249057Y-96328057D01*
X99501682Y-95949975D01*
X99524711Y-95834200D01*
X99865289Y-95834200D01*
X99888318Y-95949976D01*
X100140944Y-96328057D01*
X100519025Y-96580682D01*
X100965000Y-96669392D01*
X101410976Y-96580682D01*
X101789057Y-96328057D01*
X102041682Y-95949975D01*
X102108000Y-95616571D01*
X102108000Y-94883428D01*
X102041682Y-94550024D01*
X101854844Y-94270400D01*
X102105231Y-94270400D01*
X102222800Y-94293786D01*
X102340369Y-94270400D01*
X102340374Y-94270400D01*
X102688597Y-94201134D01*
X103083481Y-93937281D01*
X103150083Y-93837604D01*
X105326779Y-91660908D01*
X105274000Y-91926247D01*
X105274000Y-93493754D01*
X105441157Y-94334110D01*
X106077916Y-95287085D01*
X107030891Y-95923843D01*
X108131160Y-96142700D01*
X106159970Y-96142700D01*
X106042400Y-96119314D01*
X105924829Y-96142700D01*
X105924826Y-96142700D01*
X105655900Y-96196193D01*
X105576602Y-96211966D01*
X105291676Y-96402348D01*
X105181719Y-96475819D01*
X105115119Y-96575493D01*
X97981713Y-103708900D01*
X96052438Y-103708900D01*
X95941676Y-103754779D01*
X95824103Y-103778166D01*
X95724430Y-103844766D01*
X95613667Y-103890645D01*
X95528893Y-103975419D01*
X95429219Y-104042019D01*
X95362619Y-104141693D01*
X95277845Y-104226467D01*
X95231966Y-104337230D01*
X95165366Y-104436903D01*
X95141979Y-104554476D01*
X95096100Y-104665238D01*
X95096100Y-104785126D01*
X95072713Y-104902700D01*
X95096100Y-105020274D01*
X95096100Y-105140162D01*
X95141979Y-105250924D01*
X95165366Y-105368497D01*
X95231966Y-105468170D01*
X95277845Y-105578933D01*
X95362619Y-105663707D01*
X95429219Y-105763381D01*
X95528893Y-105829981D01*
X95613667Y-105914755D01*
X95724430Y-105960634D01*
X95824103Y-106027234D01*
X95941676Y-106050621D01*
X96052438Y-106096500D01*
X98252812Y-106096500D01*
X89192269Y-115157044D01*
X89192267Y-115157045D01*
X88856445Y-115492867D01*
X88810564Y-115603633D01*
X88743967Y-115703303D01*
X88720581Y-115820871D01*
X88674700Y-115931638D01*
X88674700Y-116051531D01*
X88651314Y-116169100D01*
X88674700Y-116286669D01*
X88674700Y-116406562D01*
X88720581Y-116517329D01*
X88743967Y-116634897D01*
X88810564Y-116734567D01*
X88856445Y-116845333D01*
X88941220Y-116930108D01*
X89007819Y-117029781D01*
X89107492Y-117096380D01*
X89192267Y-117181155D01*
X89303033Y-117227036D01*
X89402703Y-117293633D01*
X89520271Y-117317019D01*
X89631038Y-117362900D01*
X89750931Y-117362900D01*
X89868500Y-117386286D01*
X89986069Y-117362900D01*
X90105962Y-117362900D01*
X90216729Y-117317019D01*
X90334297Y-117293633D01*
X90433967Y-117227036D01*
X90544733Y-117181155D01*
X90880555Y-116845333D01*
X90880556Y-116845331D01*
X92202000Y-115523887D01*
X92202000Y-115936572D01*
X92268318Y-116269976D01*
X92520944Y-116648057D01*
X92899025Y-116900682D01*
X93345000Y-116989392D01*
X93790976Y-116900682D01*
X94169057Y-116648057D01*
X94421682Y-116269975D01*
X94488000Y-115936571D01*
X94488000Y-115396866D01*
X94757038Y-115127828D01*
X94742000Y-115203429D01*
X94742000Y-115936572D01*
X94808318Y-116269976D01*
X95060944Y-116648057D01*
X95439025Y-116900682D01*
X95885000Y-116989392D01*
X96330976Y-116900682D01*
X96709057Y-116648057D01*
X96961682Y-116269975D01*
X97028000Y-115936571D01*
X97028000Y-115396866D01*
X97297038Y-115127828D01*
X97282000Y-115203429D01*
X97282000Y-115936572D01*
X97348318Y-116269976D01*
X97600944Y-116648057D01*
X97979025Y-116900682D01*
X98425000Y-116989392D01*
X98870976Y-116900682D01*
X99249057Y-116648057D01*
X99501682Y-116269975D01*
X99568000Y-115936571D01*
X99568000Y-115396866D01*
X99837038Y-115127828D01*
X99822000Y-115203429D01*
X99822000Y-115936572D01*
X99888318Y-116269976D01*
X100140944Y-116648057D01*
X100519025Y-116900682D01*
X100965000Y-116989392D01*
X101410976Y-116900682D01*
X101789057Y-116648057D01*
X102041682Y-116269975D01*
X102044502Y-116255800D01*
X102218558Y-116255800D01*
X102286100Y-116269235D01*
X102353642Y-116255800D01*
X102353643Y-116255800D01*
X102553686Y-116216009D01*
X102780534Y-116064434D01*
X102818798Y-116007168D01*
X108028668Y-110797300D01*
X120577933Y-110797300D01*
X116109894Y-115265340D01*
X116058659Y-115231106D01*
X115910000Y-115201536D01*
X114310000Y-115201536D01*
X114161341Y-115231106D01*
X114035314Y-115315314D01*
X113951106Y-115441341D01*
X113921536Y-115590000D01*
X113921536Y-116105945D01*
X113751857Y-116139696D01*
X113558615Y-116268815D01*
X113429496Y-116462057D01*
X113406313Y-116578604D01*
X111022303Y-118962615D01*
X111036000Y-118893753D01*
X111036000Y-117326246D01*
X110868843Y-116485890D01*
X110232084Y-115532915D01*
X109279109Y-114896157D01*
X108155000Y-114672558D01*
X107030890Y-114896157D01*
X106077915Y-115532916D01*
X105441157Y-116485891D01*
X105274000Y-117326247D01*
X105274000Y-118893754D01*
X105441157Y-119734110D01*
X106077916Y-120687085D01*
X106294796Y-120832000D01*
X103065384Y-120832000D01*
X102510981Y-120277599D01*
X102478385Y-120228815D01*
X102285143Y-120099696D01*
X102114737Y-120065800D01*
X102114736Y-120065800D01*
X102062650Y-120055439D01*
X102041682Y-119950024D01*
X101789057Y-119571943D01*
X101410975Y-119319318D01*
X100965000Y-119230608D01*
X100519024Y-119319318D01*
X100140943Y-119571943D01*
X99888318Y-119950025D01*
X99865289Y-120065800D01*
X99524711Y-120065800D01*
X99501682Y-119950024D01*
X99249057Y-119571943D01*
X98870975Y-119319318D01*
X98425000Y-119230608D01*
X97979024Y-119319318D01*
X97600943Y-119571943D01*
X97348318Y-119950025D01*
X97325289Y-120065800D01*
X96984711Y-120065800D01*
X96961682Y-119950024D01*
X96709057Y-119571943D01*
X96330975Y-119319318D01*
X95885000Y-119230608D01*
X95439024Y-119319318D01*
X95060943Y-119571943D01*
X94808318Y-119950025D01*
X94785289Y-120065800D01*
X94444711Y-120065800D01*
X94421682Y-119950024D01*
X94169057Y-119571943D01*
X93790975Y-119319318D01*
X93345000Y-119230608D01*
X92899024Y-119319318D01*
X92520943Y-119571943D01*
X92268318Y-119950025D01*
X92247350Y-120055439D01*
X92024857Y-120099696D01*
X91924428Y-120166800D01*
X80691034Y-120166800D01*
X80575408Y-120051174D01*
X80272002Y-119925500D01*
X79943598Y-119925500D01*
X79640192Y-120051174D01*
X79407974Y-120283392D01*
X79282300Y-120586798D01*
X79282300Y-120915202D01*
X79407974Y-121218608D01*
X79640192Y-121450826D01*
X79943598Y-121576500D01*
X80272002Y-121576500D01*
X80575408Y-121450826D01*
X80691034Y-121335200D01*
X92094264Y-121335200D01*
X92151800Y-121346645D01*
X92209336Y-121335200D01*
X92209337Y-121335200D01*
X92263246Y-121324477D01*
X92268318Y-121349976D01*
X92520944Y-121728057D01*
X92899025Y-121980682D01*
X93345000Y-122069392D01*
X93790976Y-121980682D01*
X94169057Y-121728057D01*
X94421682Y-121349975D01*
X94444711Y-121234200D01*
X94785289Y-121234200D01*
X94808318Y-121349976D01*
X95060944Y-121728057D01*
X95439025Y-121980682D01*
X95885000Y-122069392D01*
X96330976Y-121980682D01*
X96709057Y-121728057D01*
X96961682Y-121349975D01*
X96984711Y-121234200D01*
X97325289Y-121234200D01*
X97348318Y-121349976D01*
X97600944Y-121728057D01*
X97979025Y-121980682D01*
X98425000Y-122069392D01*
X98870976Y-121980682D01*
X99249057Y-121728057D01*
X99501682Y-121349975D01*
X99524711Y-121234200D01*
X99865289Y-121234200D01*
X99888318Y-121349976D01*
X100140944Y-121728057D01*
X100519025Y-121980682D01*
X100965000Y-122069392D01*
X101030942Y-122056275D01*
X88519207Y-134568011D01*
X88140394Y-134314897D01*
X87630000Y-134213373D01*
X87119605Y-134314897D01*
X86686913Y-134604013D01*
X86397797Y-135036706D01*
X86360000Y-135226724D01*
X86322203Y-135036705D01*
X86033087Y-134604013D01*
X85600394Y-134314897D01*
X85090000Y-134213373D01*
X84579605Y-134314897D01*
X84146913Y-134604013D01*
X83857797Y-135036706D01*
X83820000Y-135226724D01*
X83782203Y-135036705D01*
X83493087Y-134604013D01*
X83060394Y-134314897D01*
X82550000Y-134213373D01*
X82039605Y-134314897D01*
X81606913Y-134604013D01*
X81317797Y-135036706D01*
X81280000Y-135226724D01*
X81242203Y-135036705D01*
X80953087Y-134604013D01*
X80520394Y-134314897D01*
X80010000Y-134213373D01*
X79499605Y-134314897D01*
X79066913Y-134604013D01*
X78777797Y-135036706D01*
X78740000Y-135226724D01*
X78702203Y-135036705D01*
X78413087Y-134604013D01*
X77980394Y-134314897D01*
X77470000Y-134213373D01*
X76959605Y-134314897D01*
X76526913Y-134604013D01*
X76237797Y-135036706D01*
X76200000Y-135226724D01*
X76162203Y-135036705D01*
X75873087Y-134604013D01*
X75440394Y-134314897D01*
X74930000Y-134213373D01*
X74419605Y-134314897D01*
X73986913Y-134604013D01*
X73697797Y-135036706D01*
X73660000Y-135226724D01*
X73622203Y-135036705D01*
X73333087Y-134604013D01*
X72900394Y-134314897D01*
X72390000Y-134213373D01*
X71879605Y-134314897D01*
X71446913Y-134604013D01*
X71157797Y-135036706D01*
X71081900Y-135418266D01*
X71081900Y-136361735D01*
X71157797Y-136743295D01*
X71446914Y-137175987D01*
X71879606Y-137465103D01*
X72390000Y-137566627D01*
X72900395Y-137465103D01*
X73333087Y-137175987D01*
X73622203Y-136743295D01*
X73660000Y-136553276D01*
X73697797Y-136743295D01*
X73986914Y-137175987D01*
X74419606Y-137465103D01*
X74930000Y-137566627D01*
X75440395Y-137465103D01*
X75873087Y-137175987D01*
X76162203Y-136743295D01*
X76200000Y-136553276D01*
X76237797Y-136743295D01*
X76526914Y-137175987D01*
X76959606Y-137465103D01*
X77470000Y-137566627D01*
X77980395Y-137465103D01*
X78413087Y-137175987D01*
X78702203Y-136743295D01*
X78740000Y-136553276D01*
X78777797Y-136743295D01*
X79066914Y-137175987D01*
X79499606Y-137465103D01*
X80010000Y-137566627D01*
X80520395Y-137465103D01*
X80953087Y-137175987D01*
X81242203Y-136743295D01*
X81280000Y-136553276D01*
X81317797Y-136743295D01*
X81606914Y-137175987D01*
X82039606Y-137465103D01*
X82550000Y-137566627D01*
X83060395Y-137465103D01*
X83493087Y-137175987D01*
X83782203Y-136743295D01*
X83820000Y-136553276D01*
X83857797Y-136743295D01*
X84146914Y-137175987D01*
X84579606Y-137465103D01*
X85090000Y-137566627D01*
X85600395Y-137465103D01*
X86033087Y-137175987D01*
X86322203Y-136743295D01*
X86360000Y-136553276D01*
X86397797Y-136743295D01*
X86686914Y-137175987D01*
X87119606Y-137465103D01*
X87630000Y-137566627D01*
X88140395Y-137465103D01*
X88573087Y-137175987D01*
X88862203Y-136743295D01*
X88900000Y-136553276D01*
X88937797Y-136743295D01*
X89226914Y-137175987D01*
X89659606Y-137465103D01*
X90170000Y-137566627D01*
X90680395Y-137465103D01*
X91113087Y-137175987D01*
X91402203Y-136743295D01*
X91440000Y-136553276D01*
X91477797Y-136743295D01*
X91766914Y-137175987D01*
X92199606Y-137465103D01*
X92710000Y-137566627D01*
X93220395Y-137465103D01*
X93653087Y-137175987D01*
X93942203Y-136743295D01*
X93980000Y-136553276D01*
X94017797Y-136743295D01*
X94306914Y-137175987D01*
X94739606Y-137465103D01*
X95250000Y-137566627D01*
X95760395Y-137465103D01*
X96193087Y-137175987D01*
X96482203Y-136743295D01*
X96520000Y-136553276D01*
X96557797Y-136743295D01*
X96846914Y-137175987D01*
X97279606Y-137465103D01*
X97790000Y-137566627D01*
X98300395Y-137465103D01*
X98733087Y-137175987D01*
X99022203Y-136743295D01*
X99060000Y-136553276D01*
X99097797Y-136743295D01*
X99386914Y-137175987D01*
X99819606Y-137465103D01*
X100330000Y-137566627D01*
X100840395Y-137465103D01*
X101273087Y-137175987D01*
X101562203Y-136743295D01*
X101600000Y-136553276D01*
X101637797Y-136743295D01*
X101926914Y-137175987D01*
X102359606Y-137465103D01*
X102870000Y-137566627D01*
X103380395Y-137465103D01*
X103759207Y-137211989D01*
X104384822Y-137837606D01*
X104417415Y-137886385D01*
X104610657Y-138015504D01*
X104781063Y-138049400D01*
X104838599Y-138060845D01*
X104896135Y-138049400D01*
X140541864Y-138049400D01*
X140599400Y-138060845D01*
X140656936Y-138049400D01*
X140656937Y-138049400D01*
X140827343Y-138015504D01*
X141020585Y-137886385D01*
X141053181Y-137837601D01*
X143430234Y-135460548D01*
X162941000Y-135460548D01*
X162941000Y-136319452D01*
X163269688Y-137112975D01*
X163877025Y-137720312D01*
X164670548Y-138049000D01*
X165529452Y-138049000D01*
X166322975Y-137720312D01*
X166930312Y-137112975D01*
X167259000Y-136319452D01*
X167259000Y-135460548D01*
X166930312Y-134667025D01*
X166322975Y-134059688D01*
X165529452Y-133731000D01*
X164670548Y-133731000D01*
X163877025Y-134059688D01*
X163269688Y-134667025D01*
X162941000Y-135460548D01*
X143430234Y-135460548D01*
X147594083Y-131296700D01*
X147757602Y-131296700D01*
X148061008Y-131171026D01*
X148293226Y-130938808D01*
X148418900Y-130635402D01*
X148418900Y-130306998D01*
X148293226Y-130003592D01*
X148061008Y-129771374D01*
X147757602Y-129645700D01*
X147429198Y-129645700D01*
X147125792Y-129771374D01*
X146893574Y-130003592D01*
X146767900Y-130306998D01*
X146767900Y-130470517D01*
X140357418Y-136881000D01*
X134490191Y-136881000D01*
X134582203Y-136743295D01*
X134658100Y-136361734D01*
X134658100Y-135418265D01*
X134582203Y-135036705D01*
X134293087Y-134604013D01*
X133860394Y-134314897D01*
X133350000Y-134213373D01*
X132839605Y-134314897D01*
X132406913Y-134604013D01*
X132117797Y-135036706D01*
X132080000Y-135226724D01*
X132042203Y-135036705D01*
X131753087Y-134604013D01*
X131320394Y-134314897D01*
X130810000Y-134213373D01*
X130299605Y-134314897D01*
X129866913Y-134604013D01*
X129577797Y-135036706D01*
X129540000Y-135226724D01*
X129502203Y-135036705D01*
X129213087Y-134604013D01*
X128780394Y-134314897D01*
X128270000Y-134213373D01*
X127759605Y-134314897D01*
X127326913Y-134604013D01*
X127037797Y-135036706D01*
X127000000Y-135226724D01*
X126962203Y-135036705D01*
X126673087Y-134604013D01*
X126414651Y-134431331D01*
X138240182Y-122605800D01*
X182532903Y-122605800D01*
X182700467Y-123448200D01*
X183177648Y-124162352D01*
X183891800Y-124639533D01*
X184521559Y-124764800D01*
X186470841Y-124764800D01*
X187100600Y-124639533D01*
X187814752Y-124162352D01*
X188291933Y-123448200D01*
X188459497Y-122605800D01*
X188291933Y-121763400D01*
X187814752Y-121049248D01*
X187100600Y-120572067D01*
X186470841Y-120446800D01*
X184521559Y-120446800D01*
X183891800Y-120572067D01*
X183177648Y-121049248D01*
X182700467Y-121763400D01*
X182532903Y-122605800D01*
X138240182Y-122605800D01*
X144376783Y-116469200D01*
X149247200Y-116469200D01*
X149247200Y-116969200D01*
X149401228Y-117489549D01*
X149742660Y-117911345D01*
X150219516Y-118170373D01*
X150291015Y-118184518D01*
X150505198Y-118061857D01*
X150505198Y-118227200D01*
X150619345Y-118227200D01*
X150190906Y-118312422D01*
X149816795Y-118562395D01*
X149566822Y-118936507D01*
X149501200Y-119266410D01*
X149501200Y-120489191D01*
X149566822Y-120819094D01*
X149816796Y-121193205D01*
X150190907Y-121443178D01*
X150632200Y-121530957D01*
X151073494Y-121443178D01*
X151447605Y-121193205D01*
X151697578Y-120819094D01*
X151763200Y-120489191D01*
X151763200Y-119816433D01*
X151987316Y-119938173D01*
X152058815Y-119952318D01*
X152273000Y-119829656D01*
X152273000Y-118237000D01*
X152527000Y-118237000D01*
X152527000Y-119829656D01*
X152741185Y-119952318D01*
X152812684Y-119938173D01*
X153036800Y-119816433D01*
X153036800Y-120489191D01*
X153102422Y-120819094D01*
X153352396Y-121193205D01*
X153726507Y-121443178D01*
X154167800Y-121530957D01*
X154609094Y-121443178D01*
X154983205Y-121193205D01*
X155233178Y-120819094D01*
X155298800Y-120489191D01*
X155298800Y-119266409D01*
X155233178Y-118936506D01*
X154983205Y-118562395D01*
X154609093Y-118312422D01*
X154229923Y-118237000D01*
X175844200Y-118237000D01*
X175844200Y-118745000D01*
X176095814Y-119755949D01*
X176715149Y-120593656D01*
X177607916Y-121130587D01*
X177969026Y-121229309D01*
X178384200Y-121123033D01*
X178384200Y-118237000D01*
X178638200Y-118237000D01*
X178638200Y-121123033D01*
X179053374Y-121229309D01*
X179414484Y-121130587D01*
X180307251Y-120593656D01*
X180926586Y-119755949D01*
X181178200Y-118745000D01*
X181178200Y-118237000D01*
X178638200Y-118237000D01*
X178384200Y-118237000D01*
X175844200Y-118237000D01*
X154229923Y-118237000D01*
X154167800Y-118224643D01*
X153785000Y-118300787D01*
X153785000Y-118237000D01*
X152527000Y-118237000D01*
X152273000Y-118237000D01*
X152253000Y-118237000D01*
X152253000Y-117983000D01*
X152273000Y-117983000D01*
X152273000Y-116390344D01*
X152527000Y-116390344D01*
X152527000Y-117983000D01*
X153785000Y-117983000D01*
X153785000Y-117919213D01*
X154167800Y-117995357D01*
X154609094Y-117907578D01*
X154983205Y-117657605D01*
X155105217Y-117475000D01*
X175844200Y-117475000D01*
X175844200Y-117983000D01*
X178384200Y-117983000D01*
X178384200Y-115096967D01*
X178638200Y-115096967D01*
X178638200Y-117983000D01*
X181178200Y-117983000D01*
X181178200Y-117475000D01*
X180926586Y-116464051D01*
X180307251Y-115626344D01*
X179414484Y-115089413D01*
X179053374Y-114990691D01*
X178638200Y-115096967D01*
X178384200Y-115096967D01*
X177969026Y-114990691D01*
X177607916Y-115089413D01*
X176715149Y-115626344D01*
X176095814Y-116464051D01*
X175844200Y-117475000D01*
X155105217Y-117475000D01*
X155233178Y-117283494D01*
X155298800Y-116953591D01*
X155298800Y-115730809D01*
X155233178Y-115400906D01*
X154983205Y-115026795D01*
X154609093Y-114776822D01*
X154167800Y-114689043D01*
X153726506Y-114776822D01*
X153352395Y-115026795D01*
X153102422Y-115400907D01*
X153036800Y-115730810D01*
X153036800Y-116403567D01*
X152812684Y-116281827D01*
X152741185Y-116267682D01*
X152527000Y-116390344D01*
X152273000Y-116390344D01*
X152058815Y-116267682D01*
X152017200Y-116275915D01*
X152017200Y-115715200D01*
X151863172Y-115194851D01*
X151521740Y-114773055D01*
X151044884Y-114514027D01*
X150973385Y-114499882D01*
X150759200Y-114622544D01*
X150759200Y-116215200D01*
X150779200Y-116215200D01*
X150779200Y-116469200D01*
X150759200Y-116469200D01*
X150759200Y-116489200D01*
X150505200Y-116489200D01*
X150505200Y-116469200D01*
X149247200Y-116469200D01*
X144376783Y-116469200D01*
X145130783Y-115715200D01*
X149247200Y-115715200D01*
X149247200Y-116215200D01*
X150505200Y-116215200D01*
X150505200Y-114622544D01*
X150291015Y-114499882D01*
X150219516Y-114514027D01*
X149742660Y-114773055D01*
X149401228Y-115194851D01*
X149247200Y-115715200D01*
X145130783Y-115715200D01*
X147281207Y-113564777D01*
X147329985Y-113532185D01*
X147459104Y-113338943D01*
X147493000Y-113168537D01*
X147493000Y-113168536D01*
X147504445Y-113111001D01*
X147493000Y-113053465D01*
X147493000Y-110735846D01*
X150519000Y-110735846D01*
X150519000Y-111484154D01*
X150805365Y-112175501D01*
X151334499Y-112704635D01*
X152025846Y-112991000D01*
X152774154Y-112991000D01*
X153465501Y-112704635D01*
X153994635Y-112175501D01*
X154281000Y-111484154D01*
X154281000Y-110735846D01*
X153994635Y-110044499D01*
X153465501Y-109515365D01*
X152774154Y-109229000D01*
X152025846Y-109229000D01*
X151334499Y-109515365D01*
X150805365Y-110044499D01*
X150519000Y-110735846D01*
X147493000Y-110735846D01*
X147493000Y-108772936D01*
X147504445Y-108715400D01*
X147485273Y-108619016D01*
X147459104Y-108487457D01*
X147329985Y-108294215D01*
X147281203Y-108261620D01*
X146937781Y-107918199D01*
X146905185Y-107869415D01*
X146711943Y-107740296D01*
X146541537Y-107706400D01*
X146541536Y-107706400D01*
X146484000Y-107694955D01*
X146426464Y-107706400D01*
X145861635Y-107706400D01*
X145804099Y-107694955D01*
X145746563Y-107706400D01*
X145576157Y-107740296D01*
X145382915Y-107869415D01*
X145350320Y-107918197D01*
X145326417Y-107942100D01*
X137654434Y-107942100D01*
X137816326Y-107780208D01*
X137942000Y-107476802D01*
X137942000Y-107456966D01*
X148426268Y-96972700D01*
X150564658Y-96972700D01*
X150632200Y-96986135D01*
X150899786Y-96932909D01*
X151126634Y-96781334D01*
X151278209Y-96554486D01*
X151318000Y-96354443D01*
X151331435Y-96286900D01*
X151318000Y-96219357D01*
X151318000Y-95879804D01*
X151447605Y-95793205D01*
X151697578Y-95419094D01*
X151763200Y-95089191D01*
X151763200Y-94416433D01*
X151987316Y-94538173D01*
X152058815Y-94552318D01*
X152273000Y-94429656D01*
X152273000Y-92837000D01*
X152527000Y-92837000D01*
X152527000Y-94429656D01*
X152741185Y-94552318D01*
X152812684Y-94538173D01*
X153036800Y-94416433D01*
X153036800Y-95089191D01*
X153102422Y-95419094D01*
X153352396Y-95793205D01*
X153583601Y-95947691D01*
X153583601Y-96000458D01*
X153572155Y-96058000D01*
X153617496Y-96285943D01*
X153746615Y-96479185D01*
X153939857Y-96608304D01*
X154110263Y-96642200D01*
X154167800Y-96653645D01*
X154225337Y-96642200D01*
X171735818Y-96642200D01*
X172376020Y-97282403D01*
X172408615Y-97331185D01*
X172601857Y-97460304D01*
X172772263Y-97494200D01*
X172772264Y-97494200D01*
X172829800Y-97505645D01*
X172859458Y-97499745D01*
X172888138Y-97643929D01*
X173303875Y-98266125D01*
X173926071Y-98681862D01*
X174474743Y-98791000D01*
X174575800Y-98791000D01*
X174575801Y-106952959D01*
X174564355Y-107010500D01*
X174609697Y-107238443D01*
X174738816Y-107431685D01*
X174787597Y-107464279D01*
X183274755Y-115951438D01*
X182647200Y-116076267D01*
X181933048Y-116553448D01*
X181455867Y-117267600D01*
X181288303Y-118110000D01*
X181455867Y-118952400D01*
X181933048Y-119666552D01*
X182647200Y-120143733D01*
X183276959Y-120269000D01*
X184718241Y-120269000D01*
X185348000Y-120143733D01*
X186062152Y-119666552D01*
X186500101Y-119011116D01*
X186740239Y-119251254D01*
X187235024Y-119456200D01*
X187770576Y-119456200D01*
X188265361Y-119251254D01*
X188644054Y-118872561D01*
X188849000Y-118377776D01*
X188849000Y-117842224D01*
X188644054Y-117347439D01*
X188265361Y-116968746D01*
X187770576Y-116763800D01*
X187235024Y-116763800D01*
X186740239Y-116968746D01*
X186500101Y-117208884D01*
X186062152Y-116553448D01*
X185348000Y-116076267D01*
X185096388Y-116026218D01*
X185101245Y-116001800D01*
X185055904Y-115773857D01*
X185055465Y-115773200D01*
X186470841Y-115773200D01*
X187100600Y-115647933D01*
X187814752Y-115170752D01*
X188291933Y-114456600D01*
X188459497Y-113614200D01*
X188291933Y-112771800D01*
X187814752Y-112057648D01*
X187100600Y-111580467D01*
X186470841Y-111455200D01*
X184521559Y-111455200D01*
X183891800Y-111580467D01*
X183177648Y-112057648D01*
X182700467Y-112771800D01*
X182542357Y-113566673D01*
X175744200Y-106768518D01*
X175744200Y-98791000D01*
X175845257Y-98791000D01*
X176393929Y-98681862D01*
X177016125Y-98266125D01*
X177431862Y-97643929D01*
X177486582Y-97368833D01*
X178074887Y-97368833D01*
X178138916Y-97609696D01*
X178560524Y-98329870D01*
X179225638Y-98833882D01*
X180033000Y-99045000D01*
X180533000Y-99045000D01*
X180533000Y-97037000D01*
X180787000Y-97037000D01*
X180787000Y-99045000D01*
X181287000Y-99045000D01*
X182094362Y-98833882D01*
X182759476Y-98329870D01*
X183181084Y-97609696D01*
X183245113Y-97368833D01*
X183132165Y-97037000D01*
X180787000Y-97037000D01*
X180533000Y-97037000D01*
X178187835Y-97037000D01*
X178074887Y-97368833D01*
X177486582Y-97368833D01*
X177577850Y-96910000D01*
X177431862Y-96176071D01*
X177016125Y-95553875D01*
X176393929Y-95138138D01*
X175845257Y-95029000D01*
X174474743Y-95029000D01*
X173926071Y-95138138D01*
X173303875Y-95553875D01*
X172901723Y-96155740D01*
X172431581Y-95685599D01*
X172398985Y-95636815D01*
X172205743Y-95507696D01*
X172035337Y-95473800D01*
X172035336Y-95473800D01*
X171977800Y-95462355D01*
X171920264Y-95473800D01*
X155196625Y-95473800D01*
X155233178Y-95419094D01*
X155298800Y-95089191D01*
X155298800Y-93866409D01*
X155233178Y-93536506D01*
X154983205Y-93162395D01*
X154609093Y-92912422D01*
X154167800Y-92824643D01*
X153785000Y-92900787D01*
X153785000Y-92837000D01*
X152527000Y-92837000D01*
X152273000Y-92837000D01*
X152253000Y-92837000D01*
X152253000Y-92710000D01*
X172742150Y-92710000D01*
X172888138Y-93443929D01*
X173303875Y-94066125D01*
X173926071Y-94481862D01*
X174474743Y-94591000D01*
X175845257Y-94591000D01*
X176393929Y-94481862D01*
X177016125Y-94066125D01*
X177431862Y-93443929D01*
X177486582Y-93168833D01*
X178074887Y-93168833D01*
X178138916Y-93409696D01*
X178560524Y-94129870D01*
X179225638Y-94633882D01*
X179899152Y-94810000D01*
X179225638Y-94986118D01*
X178560524Y-95490130D01*
X178138916Y-96210304D01*
X178074887Y-96451167D01*
X178187835Y-96783000D01*
X180533000Y-96783000D01*
X180533000Y-92837000D01*
X180787000Y-92837000D01*
X180787000Y-96783000D01*
X183132165Y-96783000D01*
X183245113Y-96451167D01*
X183241185Y-96436390D01*
X185579000Y-96436390D01*
X185579000Y-97383610D01*
X185941485Y-98258728D01*
X186611272Y-98928515D01*
X187486390Y-99291000D01*
X188433610Y-99291000D01*
X189308728Y-98928515D01*
X189978515Y-98258728D01*
X190341000Y-97383610D01*
X190341000Y-96436390D01*
X189978515Y-95561272D01*
X189308728Y-94891485D01*
X188433610Y-94529000D01*
X187486390Y-94529000D01*
X186611272Y-94891485D01*
X185941485Y-95561272D01*
X185579000Y-96436390D01*
X183241185Y-96436390D01*
X183181084Y-96210304D01*
X182759476Y-95490130D01*
X182094362Y-94986118D01*
X181420848Y-94810000D01*
X182094362Y-94633882D01*
X182759476Y-94129870D01*
X183181084Y-93409696D01*
X183245113Y-93168833D01*
X183132165Y-92837000D01*
X180787000Y-92837000D01*
X180533000Y-92837000D01*
X178187835Y-92837000D01*
X178074887Y-93168833D01*
X177486582Y-93168833D01*
X177577850Y-92710000D01*
X177431862Y-91976071D01*
X177016125Y-91353875D01*
X176393929Y-90938138D01*
X175845257Y-90829000D01*
X174474743Y-90829000D01*
X173926071Y-90938138D01*
X173303875Y-91353875D01*
X172888138Y-91976071D01*
X172742150Y-92710000D01*
X152253000Y-92710000D01*
X152253000Y-92583000D01*
X152273000Y-92583000D01*
X152273000Y-90990344D01*
X152527000Y-90990344D01*
X152527000Y-92583000D01*
X153785000Y-92583000D01*
X153785000Y-92519213D01*
X154167800Y-92595357D01*
X154609094Y-92507578D01*
X154983205Y-92257605D01*
X155233178Y-91883494D01*
X155298800Y-91553591D01*
X155298800Y-90330809D01*
X155233178Y-90000906D01*
X154983205Y-89626795D01*
X154609093Y-89376822D01*
X154167800Y-89289043D01*
X153726506Y-89376822D01*
X153352395Y-89626795D01*
X153102422Y-90000907D01*
X153036800Y-90330810D01*
X153036800Y-91003567D01*
X152812684Y-90881827D01*
X152741185Y-90867682D01*
X152527000Y-90990344D01*
X152273000Y-90990344D01*
X152058815Y-90867682D01*
X152017200Y-90875915D01*
X152017200Y-90315200D01*
X151863172Y-89794851D01*
X151521740Y-89373055D01*
X151044884Y-89114027D01*
X150973385Y-89099882D01*
X150759200Y-89222544D01*
X150759200Y-90815200D01*
X150779200Y-90815200D01*
X150779200Y-91069200D01*
X150759200Y-91069200D01*
X150759200Y-91089200D01*
X150505200Y-91089200D01*
X150505200Y-91069200D01*
X149247200Y-91069200D01*
X149247200Y-91569200D01*
X149401228Y-92089549D01*
X149742660Y-92511345D01*
X150219516Y-92770373D01*
X150291015Y-92784518D01*
X150505198Y-92661857D01*
X150505198Y-92827200D01*
X150619345Y-92827200D01*
X150190906Y-92912422D01*
X149816795Y-93162395D01*
X149566822Y-93536507D01*
X149501200Y-93866410D01*
X149501200Y-95089191D01*
X149566822Y-95419094D01*
X149688435Y-95601100D01*
X148209736Y-95601100D01*
X148142199Y-95587666D01*
X148074662Y-95601100D01*
X148074657Y-95601100D01*
X147874614Y-95640891D01*
X147647766Y-95792466D01*
X147609506Y-95849726D01*
X136972134Y-106487100D01*
X136952298Y-106487100D01*
X136648892Y-106612774D01*
X136416674Y-106844992D01*
X136291000Y-107148398D01*
X136291000Y-107476802D01*
X136416674Y-107780208D01*
X136578566Y-107942100D01*
X134233369Y-107942100D01*
X134340400Y-107683702D01*
X134340400Y-107355298D01*
X134214726Y-107051892D01*
X133982508Y-106819674D01*
X133679102Y-106694000D01*
X133350698Y-106694000D01*
X133047292Y-106819674D01*
X133033266Y-106833700D01*
X106543042Y-106833700D01*
X106475499Y-106820265D01*
X106407957Y-106833700D01*
X106207914Y-106873491D01*
X105981066Y-107025066D01*
X105942804Y-107082329D01*
X98799945Y-114225189D01*
X98425000Y-114150608D01*
X98236829Y-114188038D01*
X107575068Y-104849800D01*
X132769966Y-104849800D01*
X132783992Y-104863826D01*
X133087398Y-104989500D01*
X133415802Y-104989500D01*
X133719208Y-104863826D01*
X133951426Y-104631608D01*
X134077100Y-104328202D01*
X134077100Y-103999798D01*
X133951426Y-103696392D01*
X133719208Y-103464174D01*
X133415802Y-103338500D01*
X133087398Y-103338500D01*
X132783992Y-103464174D01*
X132769966Y-103478200D01*
X132060666Y-103478200D01*
X133088168Y-102450700D01*
X133108002Y-102450700D01*
X133411408Y-102325026D01*
X133643626Y-102092808D01*
X133769300Y-101789402D01*
X133769300Y-101460998D01*
X133643626Y-101157592D01*
X133478134Y-100992100D01*
X140626334Y-100992100D01*
X140723900Y-101011507D01*
X140821969Y-100992000D01*
X140920943Y-100992000D01*
X141012383Y-100954124D01*
X141110413Y-100934625D01*
X141193520Y-100879095D01*
X141285030Y-100841190D01*
X141355069Y-100771151D01*
X141438083Y-100715683D01*
X141493551Y-100632669D01*
X141563690Y-100562530D01*
X141601649Y-100470889D01*
X141657025Y-100388013D01*
X141676470Y-100290255D01*
X141714500Y-100198443D01*
X141714500Y-100099065D01*
X141733907Y-100001500D01*
X141714500Y-99903934D01*
X141714500Y-99804357D01*
X141676432Y-99712453D01*
X141657025Y-99614887D01*
X141601758Y-99532174D01*
X141563690Y-99440270D01*
X141493350Y-99369930D01*
X141438083Y-99287217D01*
X141355370Y-99231950D01*
X141285030Y-99161610D01*
X141193124Y-99123541D01*
X141110412Y-99068275D01*
X141012848Y-99048868D01*
X140920943Y-99010800D01*
X140821466Y-99010800D01*
X140723900Y-98991393D01*
X140626334Y-99010800D01*
X140526857Y-99010800D01*
X140526616Y-99010900D01*
X125885866Y-99010900D01*
X125788300Y-98991493D01*
X125690734Y-99010900D01*
X125401787Y-99068375D01*
X125074117Y-99287317D01*
X125018850Y-99370030D01*
X124118081Y-100270800D01*
X116979587Y-100270800D01*
X120026007Y-97224381D01*
X120125681Y-97157781D01*
X120389534Y-96762897D01*
X120458800Y-96414674D01*
X120458800Y-96414670D01*
X120482186Y-96297101D01*
X120458800Y-96179532D01*
X120458800Y-94257000D01*
X120600000Y-94257000D01*
X120600000Y-94557000D01*
X120757834Y-95096483D01*
X121110104Y-95534500D01*
X121603181Y-95804367D01*
X121685961Y-95821904D01*
X121908000Y-95699915D01*
X121908000Y-94257000D01*
X122162000Y-94257000D01*
X122162000Y-95699915D01*
X122384039Y-95821904D01*
X122466819Y-95804367D01*
X122959896Y-95534500D01*
X123312166Y-95096483D01*
X123470000Y-94557000D01*
X123470000Y-94257000D01*
X122162000Y-94257000D01*
X121908000Y-94257000D01*
X120600000Y-94257000D01*
X120458800Y-94257000D01*
X120458800Y-94012426D01*
X120446000Y-93948076D01*
X120446000Y-93713682D01*
X120443876Y-93703000D01*
X120600000Y-93703000D01*
X120600000Y-94003000D01*
X121908000Y-94003000D01*
X121908000Y-92560085D01*
X122162000Y-92560085D01*
X122162000Y-94003000D01*
X123470000Y-94003000D01*
X123470000Y-93713683D01*
X123624000Y-93713683D01*
X123624000Y-94546318D01*
X123692522Y-94890803D01*
X123953548Y-95281453D01*
X124344198Y-95542478D01*
X124805000Y-95634137D01*
X125265803Y-95542478D01*
X125656453Y-95281453D01*
X125917478Y-94890803D01*
X125986000Y-94546317D01*
X125986000Y-93713682D01*
X125917478Y-93369197D01*
X125687492Y-93025000D01*
X125904250Y-93025000D01*
X126063000Y-92866250D01*
X126063000Y-91417000D01*
X126317000Y-91417000D01*
X126317000Y-92866250D01*
X126475750Y-93025000D01*
X127116309Y-93025000D01*
X127349698Y-92928327D01*
X127528327Y-92749699D01*
X127625000Y-92516310D01*
X127625000Y-91926247D01*
X130261000Y-91926247D01*
X130261000Y-93493754D01*
X130428157Y-94334110D01*
X131064916Y-95287085D01*
X132017891Y-95923843D01*
X133142000Y-96147442D01*
X134266110Y-95923843D01*
X135219085Y-95287085D01*
X135855843Y-94334110D01*
X136023000Y-93493753D01*
X136023000Y-91926246D01*
X135855843Y-91085890D01*
X135340884Y-90315200D01*
X149247200Y-90315200D01*
X149247200Y-90815200D01*
X150505200Y-90815200D01*
X150505200Y-89222544D01*
X150291015Y-89099882D01*
X150219516Y-89114027D01*
X149742660Y-89373055D01*
X149401228Y-89794851D01*
X149247200Y-90315200D01*
X135340884Y-90315200D01*
X135219084Y-90132915D01*
X134266109Y-89496157D01*
X133142000Y-89272558D01*
X132017890Y-89496157D01*
X131064915Y-90132916D01*
X130428157Y-91085891D01*
X130261000Y-91926247D01*
X127625000Y-91926247D01*
X127625000Y-91575750D01*
X127466250Y-91417000D01*
X126317000Y-91417000D01*
X126063000Y-91417000D01*
X124913750Y-91417000D01*
X124755000Y-91575750D01*
X124755000Y-92516310D01*
X124800730Y-92626712D01*
X124344197Y-92717522D01*
X123953547Y-92978547D01*
X123692522Y-93369198D01*
X123624000Y-93713683D01*
X123470000Y-93713683D01*
X123470000Y-93703000D01*
X123312166Y-93163517D01*
X122959896Y-92725500D01*
X122466819Y-92455633D01*
X122384039Y-92438096D01*
X122162000Y-92560085D01*
X121908000Y-92560085D01*
X121751949Y-92474350D01*
X121927166Y-92256483D01*
X122085000Y-91717000D01*
X122085000Y-91417000D01*
X120777000Y-91417000D01*
X120777000Y-92859915D01*
X120933051Y-92945650D01*
X120757834Y-93163517D01*
X120600000Y-93703000D01*
X120443876Y-93703000D01*
X120377478Y-93369197D01*
X120116453Y-92978547D01*
X119725802Y-92717522D01*
X119265000Y-92625863D01*
X118804197Y-92717522D01*
X118413547Y-92978547D01*
X118152522Y-93369198D01*
X118084000Y-93713683D01*
X118084000Y-93948077D01*
X118071200Y-94012427D01*
X118071201Y-95802611D01*
X116569737Y-97304075D01*
X116552800Y-97218926D01*
X116552800Y-97099038D01*
X116506921Y-96988276D01*
X116483534Y-96870703D01*
X116416934Y-96771030D01*
X116371055Y-96660267D01*
X116286281Y-96575493D01*
X116219681Y-96475819D01*
X116120007Y-96409219D01*
X116035233Y-96324445D01*
X115924470Y-96278566D01*
X115824797Y-96211966D01*
X115707224Y-96188579D01*
X115596462Y-96142700D01*
X108178840Y-96142700D01*
X109279110Y-95923843D01*
X110232085Y-95287085D01*
X110868843Y-94334110D01*
X110884181Y-94257000D01*
X115060000Y-94257000D01*
X115060000Y-94557000D01*
X115217834Y-95096483D01*
X115570104Y-95534500D01*
X116063181Y-95804367D01*
X116145961Y-95821904D01*
X116368000Y-95699915D01*
X116368000Y-94257000D01*
X116622000Y-94257000D01*
X116622000Y-95699915D01*
X116844039Y-95821904D01*
X116926819Y-95804367D01*
X117419896Y-95534500D01*
X117772166Y-95096483D01*
X117930000Y-94557000D01*
X117930000Y-94257000D01*
X116622000Y-94257000D01*
X116368000Y-94257000D01*
X115060000Y-94257000D01*
X110884181Y-94257000D01*
X110994378Y-93703000D01*
X115060000Y-93703000D01*
X115060000Y-94003000D01*
X116368000Y-94003000D01*
X116368000Y-92560085D01*
X116622000Y-92560085D01*
X116622000Y-94003000D01*
X117930000Y-94003000D01*
X117930000Y-93703000D01*
X117772166Y-93163517D01*
X117419896Y-92725500D01*
X116926819Y-92455633D01*
X116844039Y-92438096D01*
X116622000Y-92560085D01*
X116368000Y-92560085D01*
X116211949Y-92474350D01*
X116387166Y-92256483D01*
X116545000Y-91717000D01*
X116545000Y-91417000D01*
X115237000Y-91417000D01*
X115237000Y-92859915D01*
X115393051Y-92945650D01*
X115217834Y-93163517D01*
X115060000Y-93703000D01*
X110994378Y-93703000D01*
X111036000Y-93493753D01*
X111036000Y-91926246D01*
X110934705Y-91417000D01*
X113675000Y-91417000D01*
X113675000Y-91717000D01*
X113832834Y-92256483D01*
X114185104Y-92694500D01*
X114678181Y-92964367D01*
X114760961Y-92981904D01*
X114983000Y-92859915D01*
X114983000Y-91417000D01*
X113675000Y-91417000D01*
X110934705Y-91417000D01*
X110868843Y-91085890D01*
X110232084Y-90132915D01*
X109767066Y-89822200D01*
X114300760Y-89822200D01*
X114185104Y-89885500D01*
X113832834Y-90323517D01*
X113675000Y-90863000D01*
X113675000Y-91163000D01*
X114983000Y-91163000D01*
X114983000Y-91143000D01*
X115237000Y-91143000D01*
X115237000Y-91163000D01*
X116545000Y-91163000D01*
X116545000Y-90863000D01*
X116387166Y-90323517D01*
X116034896Y-89885500D01*
X115919240Y-89822200D01*
X116686201Y-89822200D01*
X116686200Y-91407573D01*
X116699000Y-91471923D01*
X116699000Y-91706318D01*
X116767522Y-92050803D01*
X117028548Y-92441453D01*
X117419198Y-92702478D01*
X117880000Y-92794137D01*
X118340803Y-92702478D01*
X118731453Y-92441453D01*
X118992478Y-92050803D01*
X119061000Y-91706317D01*
X119061000Y-91471924D01*
X119071925Y-91417000D01*
X119215000Y-91417000D01*
X119215000Y-91717000D01*
X119372834Y-92256483D01*
X119725104Y-92694500D01*
X120218181Y-92964367D01*
X120300961Y-92981904D01*
X120523000Y-92859915D01*
X120523000Y-91417000D01*
X119215000Y-91417000D01*
X119071925Y-91417000D01*
X119073800Y-91407574D01*
X119073800Y-90863000D01*
X119215000Y-90863000D01*
X119215000Y-91163000D01*
X120523000Y-91163000D01*
X120523000Y-89720085D01*
X120777000Y-89720085D01*
X120777000Y-91163000D01*
X122085000Y-91163000D01*
X122085000Y-90863000D01*
X121927166Y-90323517D01*
X121574896Y-89885500D01*
X121081819Y-89615633D01*
X120999039Y-89598096D01*
X120777000Y-89720085D01*
X120523000Y-89720085D01*
X120300961Y-89598096D01*
X120218181Y-89615633D01*
X119725104Y-89885500D01*
X119372834Y-90323517D01*
X119215000Y-90863000D01*
X119073800Y-90863000D01*
X119073800Y-89240474D01*
X119097187Y-89122900D01*
X119004534Y-88657102D01*
X118821384Y-88383000D01*
X118740681Y-88262219D01*
X118641004Y-88195617D01*
X118312783Y-87867396D01*
X118246181Y-87767719D01*
X117851297Y-87503866D01*
X117503074Y-87434600D01*
X117503069Y-87434600D01*
X117385500Y-87411214D01*
X117267931Y-87434600D01*
X106788569Y-87434600D01*
X106671000Y-87411214D01*
X106553431Y-87434600D01*
X106553426Y-87434600D01*
X106205203Y-87503866D01*
X105810319Y-87767719D01*
X105743719Y-87867393D01*
X101728313Y-91882800D01*
X90450067Y-91882800D01*
X91477067Y-90855800D01*
X92265498Y-90855800D01*
X92268318Y-90869976D01*
X92520944Y-91248057D01*
X92899025Y-91500682D01*
X93345000Y-91589392D01*
X93790976Y-91500682D01*
X94169057Y-91248057D01*
X94421682Y-90869975D01*
X94488000Y-90536571D01*
X94488000Y-89803428D01*
X94472962Y-89727829D01*
X94742000Y-89996867D01*
X94742000Y-90536572D01*
X94808318Y-90869976D01*
X95060944Y-91248057D01*
X95439025Y-91500682D01*
X95885000Y-91589392D01*
X96330976Y-91500682D01*
X96709057Y-91248057D01*
X96961682Y-90869975D01*
X97028000Y-90536571D01*
X97028000Y-89803429D01*
X97282000Y-89803429D01*
X97282000Y-90536572D01*
X97348318Y-90869976D01*
X97600944Y-91248057D01*
X97979025Y-91500682D01*
X98425000Y-91589392D01*
X98870976Y-91500682D01*
X99249057Y-91248057D01*
X99501682Y-90869975D01*
X99568000Y-90536571D01*
X99568000Y-89803429D01*
X99822000Y-89803429D01*
X99822000Y-90536572D01*
X99888318Y-90869976D01*
X100140944Y-91248057D01*
X100519025Y-91500682D01*
X100965000Y-91589392D01*
X101410976Y-91500682D01*
X101789057Y-91248057D01*
X102041682Y-90869975D01*
X102108000Y-90536571D01*
X102108000Y-89803428D01*
X102041682Y-89470024D01*
X101789057Y-89091943D01*
X101410975Y-88839318D01*
X100965000Y-88750608D01*
X100519024Y-88839318D01*
X100140943Y-89091943D01*
X99888318Y-89470025D01*
X99822000Y-89803429D01*
X99568000Y-89803429D01*
X99568000Y-89803428D01*
X99501682Y-89470024D01*
X99249057Y-89091943D01*
X98870975Y-88839318D01*
X98425000Y-88750608D01*
X97979024Y-88839318D01*
X97600943Y-89091943D01*
X97348318Y-89470025D01*
X97282000Y-89803429D01*
X97028000Y-89803429D01*
X97028000Y-89803428D01*
X96961682Y-89470024D01*
X96709057Y-89091943D01*
X96330975Y-88839318D01*
X95885000Y-88750608D01*
X95510055Y-88825189D01*
X94842498Y-88157632D01*
X94804234Y-88100366D01*
X94577386Y-87948791D01*
X94377343Y-87909000D01*
X94377342Y-87909000D01*
X94309800Y-87895565D01*
X94242258Y-87909000D01*
X84785642Y-87909000D01*
X84718100Y-87895565D01*
X84650557Y-87909000D01*
X84450514Y-87948791D01*
X84223666Y-88100366D01*
X84185404Y-88157629D01*
X78199629Y-94143405D01*
X78142366Y-94181667D01*
X78040507Y-94334110D01*
X77990791Y-94408515D01*
X77937565Y-94676100D01*
X77951000Y-94743643D01*
X77951001Y-95414900D01*
X72841742Y-95414900D01*
X72774199Y-95401465D01*
X72506614Y-95454691D01*
X72279766Y-95606266D01*
X72241504Y-95663529D01*
X71760434Y-96144600D01*
X71740598Y-96144600D01*
X71437192Y-96270274D01*
X71204974Y-96502492D01*
X71079300Y-96805898D01*
X69342000Y-96805898D01*
X69342000Y-85417500D01*
X90937414Y-85417500D01*
X90960800Y-85535069D01*
X90960800Y-85654962D01*
X91006681Y-85765729D01*
X91030067Y-85883297D01*
X91096664Y-85982967D01*
X91142545Y-86093733D01*
X91227320Y-86178508D01*
X91293919Y-86278181D01*
X91393592Y-86344780D01*
X91478367Y-86429555D01*
X91589133Y-86475436D01*
X91688803Y-86542033D01*
X91806371Y-86565419D01*
X91917138Y-86611300D01*
X92037031Y-86611300D01*
X92154600Y-86634686D01*
X92272169Y-86611300D01*
X92392062Y-86611300D01*
X92502829Y-86565419D01*
X92620397Y-86542033D01*
X92720067Y-86475436D01*
X92830833Y-86429555D01*
X93166655Y-86093733D01*
X93166656Y-86093731D01*
X93248787Y-86011600D01*
X118620413Y-86011600D01*
X122226201Y-89617389D01*
X122226200Y-91407573D01*
X122239000Y-91471923D01*
X122239000Y-91706318D01*
X122307522Y-92050803D01*
X122568548Y-92441453D01*
X122959198Y-92702478D01*
X123420000Y-92794137D01*
X123880803Y-92702478D01*
X124271453Y-92441453D01*
X124532478Y-92050803D01*
X124601000Y-91706317D01*
X124601000Y-91471924D01*
X124613800Y-91407574D01*
X124613800Y-90063690D01*
X124755000Y-90063690D01*
X124755000Y-91004250D01*
X124913750Y-91163000D01*
X126063000Y-91163000D01*
X126063000Y-89713750D01*
X126317000Y-89713750D01*
X126317000Y-91163000D01*
X127466250Y-91163000D01*
X127625000Y-91004250D01*
X127625000Y-90063690D01*
X127528327Y-89830301D01*
X127349698Y-89651673D01*
X127116309Y-89555000D01*
X126475750Y-89555000D01*
X126317000Y-89713750D01*
X126063000Y-89713750D01*
X125904250Y-89555000D01*
X125263691Y-89555000D01*
X125030302Y-89651673D01*
X124851673Y-89830301D01*
X124755000Y-90063690D01*
X124613800Y-90063690D01*
X124613800Y-89240469D01*
X124637186Y-89122900D01*
X124613800Y-89005331D01*
X124613800Y-89005326D01*
X124544534Y-88657103D01*
X124446243Y-88510000D01*
X172742150Y-88510000D01*
X172888138Y-89243929D01*
X173303875Y-89866125D01*
X173926071Y-90281862D01*
X174474743Y-90391000D01*
X175845257Y-90391000D01*
X176393929Y-90281862D01*
X177016125Y-89866125D01*
X177431862Y-89243929D01*
X177521010Y-88795750D01*
X178025000Y-88795750D01*
X178025000Y-90136309D01*
X178121673Y-90369698D01*
X178300301Y-90548327D01*
X178533690Y-90645000D01*
X179765304Y-90645000D01*
X179225638Y-90786118D01*
X178560524Y-91290130D01*
X178138916Y-92010304D01*
X178074887Y-92251167D01*
X178187835Y-92583000D01*
X180533000Y-92583000D01*
X180533000Y-90575000D01*
X180444250Y-90575000D01*
X180533000Y-90486250D01*
X180533000Y-88637000D01*
X180787000Y-88637000D01*
X180787000Y-90486250D01*
X180875750Y-90575000D01*
X180787000Y-90575000D01*
X180787000Y-92583000D01*
X183132165Y-92583000D01*
X183245113Y-92251167D01*
X183181084Y-92010304D01*
X182759476Y-91290130D01*
X182094362Y-90786118D01*
X181554696Y-90645000D01*
X182786310Y-90645000D01*
X183019699Y-90548327D01*
X183198327Y-90369698D01*
X183295000Y-90136309D01*
X183295000Y-88795750D01*
X183136250Y-88637000D01*
X180787000Y-88637000D01*
X180533000Y-88637000D01*
X178183750Y-88637000D01*
X178025000Y-88795750D01*
X177521010Y-88795750D01*
X177577850Y-88510000D01*
X177431862Y-87776071D01*
X177016125Y-87153875D01*
X176611766Y-86883691D01*
X178025000Y-86883691D01*
X178025000Y-88224250D01*
X178183750Y-88383000D01*
X180533000Y-88383000D01*
X180533000Y-86533750D01*
X180787000Y-86533750D01*
X180787000Y-88383000D01*
X183136250Y-88383000D01*
X183295000Y-88224250D01*
X183295000Y-88036390D01*
X185579000Y-88036390D01*
X185579000Y-88983610D01*
X185941485Y-89858728D01*
X186611272Y-90528515D01*
X187486390Y-90891000D01*
X188433610Y-90891000D01*
X189308728Y-90528515D01*
X189978515Y-89858728D01*
X190341000Y-88983610D01*
X190341000Y-88036390D01*
X189978515Y-87161272D01*
X189308728Y-86491485D01*
X188433610Y-86129000D01*
X187486390Y-86129000D01*
X186611272Y-86491485D01*
X185941485Y-87161272D01*
X185579000Y-88036390D01*
X183295000Y-88036390D01*
X183295000Y-86883691D01*
X183198327Y-86650302D01*
X183019699Y-86471673D01*
X182786310Y-86375000D01*
X180945750Y-86375000D01*
X180787000Y-86533750D01*
X180533000Y-86533750D01*
X180374250Y-86375000D01*
X178533690Y-86375000D01*
X178300301Y-86471673D01*
X178121673Y-86650302D01*
X178025000Y-86883691D01*
X176611766Y-86883691D01*
X176393929Y-86738138D01*
X175845257Y-86629000D01*
X174474743Y-86629000D01*
X173926071Y-86738138D01*
X173303875Y-87153875D01*
X172888138Y-87776071D01*
X172742150Y-88510000D01*
X124446243Y-88510000D01*
X124280681Y-88262219D01*
X124181007Y-88195619D01*
X121321234Y-85335846D01*
X150519000Y-85335846D01*
X150519000Y-86084154D01*
X150805365Y-86775501D01*
X151334499Y-87304635D01*
X152025846Y-87591000D01*
X152774154Y-87591000D01*
X153465501Y-87304635D01*
X153994635Y-86775501D01*
X154281000Y-86084154D01*
X154281000Y-85335846D01*
X153994635Y-84644499D01*
X153465501Y-84115365D01*
X152774154Y-83829000D01*
X152025846Y-83829000D01*
X151334499Y-84115365D01*
X150805365Y-84644499D01*
X150519000Y-85335846D01*
X121321234Y-85335846D01*
X120042183Y-84056796D01*
X119975581Y-83957119D01*
X119580697Y-83693266D01*
X119232474Y-83624000D01*
X119232469Y-83624000D01*
X119114900Y-83600614D01*
X118997331Y-83624000D01*
X92871869Y-83624000D01*
X92754300Y-83600614D01*
X92636731Y-83624000D01*
X92636726Y-83624000D01*
X92288503Y-83693266D01*
X91893619Y-83957119D01*
X91827017Y-84056796D01*
X91478369Y-84405444D01*
X91478367Y-84405445D01*
X91142545Y-84741267D01*
X91096664Y-84852033D01*
X91030067Y-84951703D01*
X91006681Y-85069271D01*
X90960800Y-85180038D01*
X90960800Y-85299931D01*
X90937414Y-85417500D01*
X69342000Y-85417500D01*
X69342000Y-79580548D01*
X71501000Y-79580548D01*
X71501000Y-80439452D01*
X71829688Y-81232975D01*
X72437025Y-81840312D01*
X73230548Y-82169000D01*
X74089452Y-82169000D01*
X74882975Y-81840312D01*
X75490312Y-81232975D01*
X75819000Y-80439452D01*
X75819000Y-79580548D01*
X75490312Y-78787025D01*
X74882975Y-78179688D01*
X74089452Y-77851000D01*
X73230548Y-77851000D01*
X72437025Y-78179688D01*
X71829688Y-78787025D01*
X71501000Y-79580548D01*
X69342000Y-79580548D01*
X69342000Y-73660000D01*
X71074436Y-73660000D01*
X71074436Y-76200000D01*
X71104006Y-76348659D01*
X71188214Y-76474686D01*
X71314241Y-76558894D01*
X71462900Y-76588464D01*
X73317100Y-76588464D01*
X73465759Y-76558894D01*
X73591786Y-76474686D01*
X73675994Y-76348659D01*
X73705564Y-76200000D01*
X73705564Y-75794919D01*
X73986914Y-76215987D01*
X74419606Y-76505103D01*
X74930000Y-76606627D01*
X75440395Y-76505103D01*
X75873087Y-76215987D01*
X76162203Y-75783295D01*
X76200000Y-75593276D01*
X76237797Y-75783295D01*
X76526914Y-76215987D01*
X76959606Y-76505103D01*
X77470000Y-76606627D01*
X77980395Y-76505103D01*
X78413087Y-76215987D01*
X78702203Y-75783295D01*
X78740000Y-75593276D01*
X78777797Y-75783295D01*
X79066914Y-76215987D01*
X79499606Y-76505103D01*
X80010000Y-76606627D01*
X80520395Y-76505103D01*
X80953087Y-76215987D01*
X81242203Y-75783295D01*
X81280000Y-75593276D01*
X81317797Y-75783295D01*
X81606914Y-76215987D01*
X82039606Y-76505103D01*
X82550000Y-76606627D01*
X83060395Y-76505103D01*
X83493087Y-76215987D01*
X83782203Y-75783295D01*
X83820000Y-75593276D01*
X83857797Y-75783295D01*
X84146914Y-76215987D01*
X84579606Y-76505103D01*
X85090000Y-76606627D01*
X85600395Y-76505103D01*
X86033087Y-76215987D01*
X86322203Y-75783295D01*
X86360000Y-75593276D01*
X86397797Y-75783295D01*
X86686914Y-76215987D01*
X87119606Y-76505103D01*
X87630000Y-76606627D01*
X88140395Y-76505103D01*
X88573087Y-76215987D01*
X88862203Y-75783295D01*
X88900000Y-75593276D01*
X88937797Y-75783295D01*
X89226914Y-76215987D01*
X89659606Y-76505103D01*
X90170000Y-76606627D01*
X90680395Y-76505103D01*
X91113087Y-76215987D01*
X91402203Y-75783295D01*
X91440000Y-75593276D01*
X91477797Y-75783295D01*
X91766914Y-76215987D01*
X92199606Y-76505103D01*
X92710000Y-76606627D01*
X93220395Y-76505103D01*
X93653087Y-76215987D01*
X93942203Y-75783295D01*
X93980000Y-75593276D01*
X94017797Y-75783295D01*
X94306914Y-76215987D01*
X94739606Y-76505103D01*
X95250000Y-76606627D01*
X95760395Y-76505103D01*
X96193087Y-76215987D01*
X96482203Y-75783295D01*
X96520000Y-75593276D01*
X96557797Y-75783295D01*
X96846914Y-76215987D01*
X97279606Y-76505103D01*
X97790000Y-76606627D01*
X98300395Y-76505103D01*
X98733087Y-76215987D01*
X99022203Y-75783295D01*
X99060000Y-75593276D01*
X99097797Y-75783295D01*
X99386914Y-76215987D01*
X99819606Y-76505103D01*
X100330000Y-76606627D01*
X100840395Y-76505103D01*
X101273087Y-76215987D01*
X101562203Y-75783295D01*
X101600000Y-75593276D01*
X101637797Y-75783295D01*
X101926914Y-76215987D01*
X102359606Y-76505103D01*
X102870000Y-76606627D01*
X103380395Y-76505103D01*
X103813087Y-76215987D01*
X104102203Y-75783295D01*
X104140000Y-75593276D01*
X104177797Y-75783295D01*
X104466914Y-76215987D01*
X104899606Y-76505103D01*
X105410000Y-76606627D01*
X105920395Y-76505103D01*
X106353087Y-76215987D01*
X106642203Y-75783295D01*
X106680000Y-75593276D01*
X106717797Y-75783295D01*
X107006914Y-76215987D01*
X107439606Y-76505103D01*
X107950000Y-76606627D01*
X108460395Y-76505103D01*
X108893087Y-76215987D01*
X109182203Y-75783295D01*
X109220000Y-75593276D01*
X109257797Y-75783295D01*
X109546914Y-76215987D01*
X109979606Y-76505103D01*
X110490000Y-76606627D01*
X111000395Y-76505103D01*
X111433087Y-76215987D01*
X111722203Y-75783295D01*
X111760000Y-75593276D01*
X111797797Y-75783295D01*
X112086914Y-76215987D01*
X112519606Y-76505103D01*
X113030000Y-76606627D01*
X113540395Y-76505103D01*
X113973087Y-76215987D01*
X114262203Y-75783295D01*
X114300000Y-75593276D01*
X114337797Y-75783295D01*
X114626914Y-76215987D01*
X115059606Y-76505103D01*
X115570000Y-76606627D01*
X116080395Y-76505103D01*
X116513087Y-76215987D01*
X116802203Y-75783295D01*
X116840000Y-75593276D01*
X116877797Y-75783295D01*
X117166914Y-76215987D01*
X117599606Y-76505103D01*
X118110000Y-76606627D01*
X118620395Y-76505103D01*
X119053087Y-76215987D01*
X119342203Y-75783295D01*
X119380000Y-75593276D01*
X119417797Y-75783295D01*
X119706914Y-76215987D01*
X120139606Y-76505103D01*
X120650000Y-76606627D01*
X121160395Y-76505103D01*
X121593087Y-76215987D01*
X121882203Y-75783295D01*
X121920000Y-75593276D01*
X121957797Y-75783295D01*
X122246914Y-76215987D01*
X122679606Y-76505103D01*
X123190000Y-76606627D01*
X123700395Y-76505103D01*
X124133087Y-76215987D01*
X124422203Y-75783295D01*
X124460000Y-75593276D01*
X124497797Y-75783295D01*
X124786914Y-76215987D01*
X125219606Y-76505103D01*
X125730000Y-76606627D01*
X126240395Y-76505103D01*
X126673087Y-76215987D01*
X126962203Y-75783295D01*
X127000000Y-75593276D01*
X127037797Y-75783295D01*
X127326914Y-76215987D01*
X127759606Y-76505103D01*
X128270000Y-76606627D01*
X128780395Y-76505103D01*
X129213087Y-76215987D01*
X129502203Y-75783295D01*
X129540000Y-75593276D01*
X129577797Y-75783295D01*
X129866914Y-76215987D01*
X130299606Y-76505103D01*
X130810000Y-76606627D01*
X131320395Y-76505103D01*
X131753087Y-76215987D01*
X132042203Y-75783295D01*
X132080000Y-75593276D01*
X132117797Y-75783295D01*
X132406914Y-76215987D01*
X132839606Y-76505103D01*
X133350000Y-76606627D01*
X133860395Y-76505103D01*
X134293087Y-76215987D01*
X134582203Y-75783295D01*
X134658100Y-75401734D01*
X134658100Y-74500548D01*
X162941000Y-74500548D01*
X162941000Y-75359452D01*
X163269688Y-76152975D01*
X163877025Y-76760312D01*
X164670548Y-77089000D01*
X165529452Y-77089000D01*
X166322975Y-76760312D01*
X166930312Y-76152975D01*
X167259000Y-75359452D01*
X167259000Y-74500548D01*
X166930312Y-73707025D01*
X166322975Y-73099688D01*
X165529452Y-72771000D01*
X164670548Y-72771000D01*
X163877025Y-73099688D01*
X163269688Y-73707025D01*
X162941000Y-74500548D01*
X134658100Y-74500548D01*
X134658100Y-74458265D01*
X134582203Y-74076705D01*
X134293087Y-73644013D01*
X133860394Y-73354897D01*
X133350000Y-73253373D01*
X132839605Y-73354897D01*
X132406913Y-73644013D01*
X132117797Y-74076706D01*
X132080000Y-74266724D01*
X132042203Y-74076705D01*
X131753087Y-73644013D01*
X131320394Y-73354897D01*
X130810000Y-73253373D01*
X130299605Y-73354897D01*
X129866913Y-73644013D01*
X129577797Y-74076706D01*
X129540000Y-74266724D01*
X129502203Y-74076705D01*
X129213087Y-73644013D01*
X128780394Y-73354897D01*
X128270000Y-73253373D01*
X127759605Y-73354897D01*
X127326913Y-73644013D01*
X127037797Y-74076706D01*
X127000000Y-74266724D01*
X126962203Y-74076705D01*
X126673087Y-73644013D01*
X126240394Y-73354897D01*
X125730000Y-73253373D01*
X125219605Y-73354897D01*
X124786913Y-73644013D01*
X124497797Y-74076706D01*
X124460000Y-74266724D01*
X124422203Y-74076705D01*
X124133087Y-73644013D01*
X123700394Y-73354897D01*
X123190000Y-73253373D01*
X122679605Y-73354897D01*
X122246913Y-73644013D01*
X121957797Y-74076706D01*
X121920000Y-74266724D01*
X121882203Y-74076705D01*
X121593087Y-73644013D01*
X121160394Y-73354897D01*
X120650000Y-73253373D01*
X120139605Y-73354897D01*
X119706913Y-73644013D01*
X119417797Y-74076706D01*
X119380000Y-74266724D01*
X119342203Y-74076705D01*
X119053087Y-73644013D01*
X118620394Y-73354897D01*
X118110000Y-73253373D01*
X117599605Y-73354897D01*
X117166913Y-73644013D01*
X116877797Y-74076706D01*
X116840000Y-74266724D01*
X116802203Y-74076705D01*
X116513087Y-73644013D01*
X116080394Y-73354897D01*
X115570000Y-73253373D01*
X115059605Y-73354897D01*
X114626913Y-73644013D01*
X114337797Y-74076706D01*
X114300000Y-74266724D01*
X114262203Y-74076705D01*
X113973087Y-73644013D01*
X113540394Y-73354897D01*
X113030000Y-73253373D01*
X112519605Y-73354897D01*
X112086913Y-73644013D01*
X111797797Y-74076706D01*
X111760000Y-74266724D01*
X111722203Y-74076705D01*
X111433087Y-73644013D01*
X111000394Y-73354897D01*
X110490000Y-73253373D01*
X109979605Y-73354897D01*
X109546913Y-73644013D01*
X109257797Y-74076706D01*
X109220000Y-74266724D01*
X109182203Y-74076705D01*
X108893087Y-73644013D01*
X108460394Y-73354897D01*
X107950000Y-73253373D01*
X107439605Y-73354897D01*
X107006913Y-73644013D01*
X106717797Y-74076706D01*
X106680000Y-74266724D01*
X106642203Y-74076705D01*
X106353087Y-73644013D01*
X105920394Y-73354897D01*
X105410000Y-73253373D01*
X104899605Y-73354897D01*
X104466913Y-73644013D01*
X104177797Y-74076706D01*
X104140000Y-74266724D01*
X104102203Y-74076705D01*
X103813087Y-73644013D01*
X103380394Y-73354897D01*
X102870000Y-73253373D01*
X102359605Y-73354897D01*
X101926913Y-73644013D01*
X101637797Y-74076706D01*
X101600000Y-74266724D01*
X101562203Y-74076705D01*
X101273087Y-73644013D01*
X100840394Y-73354897D01*
X100330000Y-73253373D01*
X99819605Y-73354897D01*
X99386913Y-73644013D01*
X99097797Y-74076706D01*
X99060000Y-74266724D01*
X99022203Y-74076705D01*
X98733087Y-73644013D01*
X98300394Y-73354897D01*
X97790000Y-73253373D01*
X97279605Y-73354897D01*
X96846913Y-73644013D01*
X96557797Y-74076706D01*
X96520000Y-74266724D01*
X96482203Y-74076705D01*
X96193087Y-73644013D01*
X95760394Y-73354897D01*
X95250000Y-73253373D01*
X94739605Y-73354897D01*
X94306913Y-73644013D01*
X94017797Y-74076706D01*
X93980000Y-74266724D01*
X93942203Y-74076705D01*
X93653087Y-73644013D01*
X93220394Y-73354897D01*
X92710000Y-73253373D01*
X92199605Y-73354897D01*
X91766913Y-73644013D01*
X91477797Y-74076706D01*
X91440000Y-74266724D01*
X91402203Y-74076705D01*
X91113087Y-73644013D01*
X90680394Y-73354897D01*
X90170000Y-73253373D01*
X89659605Y-73354897D01*
X89226913Y-73644013D01*
X88937797Y-74076706D01*
X88900000Y-74266724D01*
X88862203Y-74076705D01*
X88573087Y-73644013D01*
X88140394Y-73354897D01*
X87630000Y-73253373D01*
X87119605Y-73354897D01*
X86686913Y-73644013D01*
X86397797Y-74076706D01*
X86360000Y-74266724D01*
X86322203Y-74076705D01*
X86033087Y-73644013D01*
X85600394Y-73354897D01*
X85090000Y-73253373D01*
X84579605Y-73354897D01*
X84146913Y-73644013D01*
X83857797Y-74076706D01*
X83820000Y-74266724D01*
X83782203Y-74076705D01*
X83493087Y-73644013D01*
X83060394Y-73354897D01*
X82550000Y-73253373D01*
X82039605Y-73354897D01*
X81606913Y-73644013D01*
X81317797Y-74076706D01*
X81280000Y-74266724D01*
X81242203Y-74076705D01*
X80953087Y-73644013D01*
X80520394Y-73354897D01*
X80010000Y-73253373D01*
X79499605Y-73354897D01*
X79066913Y-73644013D01*
X78777797Y-74076706D01*
X78740000Y-74266724D01*
X78702203Y-74076705D01*
X78413087Y-73644013D01*
X77980394Y-73354897D01*
X77470000Y-73253373D01*
X76959605Y-73354897D01*
X76526913Y-73644013D01*
X76237797Y-74076706D01*
X76200000Y-74266724D01*
X76162203Y-74076705D01*
X75873087Y-73644013D01*
X75440394Y-73354897D01*
X74930000Y-73253373D01*
X74419605Y-73354897D01*
X73986913Y-73644013D01*
X73705564Y-74065082D01*
X73705564Y-73660000D01*
X73675994Y-73511341D01*
X73591786Y-73385314D01*
X73465759Y-73301106D01*
X73317100Y-73271536D01*
X71462900Y-73271536D01*
X71314241Y-73301106D01*
X71188214Y-73385314D01*
X71104006Y-73511341D01*
X71074436Y-73660000D01*
X69342000Y-73660000D01*
X69342000Y-71247000D01*
X191643000Y-71247000D01*
X191643000Y-139573000D01*
G04 #@! TD*
M02*
