M48
;DRILL file {KiCad 6.0.0-rc1-unknown-d9d0051~66~ubuntu18.04.1} date Tue Aug 28 13:08:03 2018
;FORMAT={-:-/ absolute / metric / decimal}
FMAT,2
METRIC,TZ
T1C0.635
T2C0.711
T3C0.965
T4C1.000
T5C1.040
T6C1.092
T7C1.118
T8C1.600
T9C1.800
T10C2.200
T11C2.692
T12C3.000
T13C3.100
T14C3.150
T15C3.302
%
G90
G05
M71
T1
X72.963Y-85.891
X90.585Y-90.69
X97.273Y-106.176
X102.701Y-96.297
X103.084Y-94.573
X105.017Y-89.535
X105.379Y-104.704
X111.634Y-111.111
X112.507Y-110.583
X114.416Y-121.112
X116.708Y-122.895
X124.99Y-112.316
X133.35Y-107.519
X133.395Y-103.661
X133.395Y-111.531
X137.071Y-102.144
X140.618Y-102.909
X140.852Y-101.577
X144.419Y-104.335
X144.619Y-110.203
X144.801Y-108.819
X144.91Y-111.835
X145.737Y-103.575
T2
X76.043Y-107.135
X76.051Y-90.642
X76.825Y-127.509
X103.186Y-124.242
X130.089Y-121.742
T3
X98.425Y-84.455
X98.425Y-89.535
X166.37Y-102.87
X166.37Y-107.95
X93.345Y-121.285
X93.345Y-126.365
X95.885Y-121.285
X95.885Y-126.365
X93.345Y-84.455
X93.345Y-89.535
X141.605Y-121.285
X141.605Y-126.365
X141.605Y-84.455
X141.605Y-89.535
X100.965Y-121.285
X100.965Y-126.365
X95.885Y-84.455
X95.885Y-89.535
X98.425Y-121.285
X98.425Y-126.365
X100.965Y-84.455
X100.965Y-89.535
T4
X150.632Y-116.342
X150.632Y-119.878
X152.4Y-118.11
X154.168Y-116.342
X154.168Y-119.878
X150.632Y-90.942
X150.632Y-94.478
X152.4Y-92.71
X154.168Y-90.942
X154.168Y-94.478
T5
X115.11Y-91.29
X116.495Y-94.13
X117.88Y-91.29
X119.265Y-94.13
X120.65Y-91.29
X122.035Y-94.13
X123.42Y-91.29
X124.805Y-94.13
X126.19Y-91.29
X115.11Y-116.69
X116.495Y-119.53
X117.88Y-116.69
X119.265Y-119.53
X120.65Y-116.69
X122.035Y-119.53
X123.42Y-116.69
X124.805Y-119.53
X126.19Y-116.69
T6
X72.39Y-74.93
X72.39Y-135.89
X74.93Y-74.93
X74.93Y-135.89
X77.47Y-74.93
X77.47Y-135.89
X80.01Y-74.93
X80.01Y-135.89
X82.55Y-74.93
X82.55Y-135.89
X85.09Y-74.93
X85.09Y-135.89
X87.63Y-74.93
X87.63Y-135.89
X90.17Y-74.93
X90.17Y-135.89
X92.71Y-74.93
X92.71Y-135.89
X95.25Y-74.93
X95.25Y-135.89
X97.79Y-74.93
X97.79Y-135.89
X100.33Y-74.93
X100.33Y-135.89
X102.87Y-74.93
X102.87Y-135.89
X105.41Y-74.93
X105.41Y-135.89
X107.95Y-74.93
X107.95Y-135.89
X110.49Y-74.93
X110.49Y-135.89
X113.03Y-74.93
X113.03Y-135.89
X115.57Y-74.93
X115.57Y-135.89
X118.11Y-74.93
X118.11Y-135.89
X120.65Y-74.93
X120.65Y-135.89
X123.19Y-74.93
X123.19Y-135.89
X125.73Y-74.93
X125.73Y-135.89
X128.27Y-74.93
X128.27Y-135.89
X130.81Y-74.93
X130.81Y-135.89
X133.35Y-74.93
X133.35Y-135.89
T7
X86.945Y-128.427
X87.819Y-81.777
X91.749Y-98.523
X91.987Y-86.535
X95.357Y-105.934
T8
X187.503Y-118.11
T9
X175.16Y-88.51
X175.16Y-92.71
X175.16Y-96.91
X180.66Y-88.51
X180.66Y-92.71
X180.66Y-96.91
T10
X152.4Y-111.11
X152.4Y-85.71
T11
X184.506Y-118.11
X185.496Y-113.614
X185.496Y-122.606
T12
X187.96Y-88.51
X187.96Y-96.91
T13
X108.155Y-92.71
X133.142Y-92.71
X108.155Y-118.11
X133.142Y-118.11
T14
X178.511Y-118.11
T15
X73.66Y-80.01
X73.66Y-130.81
X165.1Y-74.93
X165.1Y-135.89
T0
M30
