M48
;DRILL file {KiCad 6.0.0-rc1-unknown-7c11d03~66~ubuntu18.04.1} date Mon Aug 27 10:44:24 2018
;FORMAT={-:-/ absolute / metric / decimal}
FMAT,2
METRIC,TZ
T1C0.635
T2C0.711
T3C0.965
T4C1.000
T5C1.040
T6C1.092
T7C1.118
T8C1.600
T9C1.800
T10C2.200
T11C2.692
T12C3.000
T13C3.100
T14C3.150
T15C3.302
%
G90
G05
M71
T1
X71.905Y-96.97
X72.35Y-107.519
X80.108Y-120.751
X81.33Y-93.402
X91.477Y-102.175
X97.22Y-102.175
X98.621Y-101.593
X100.98Y-98.853
X114.792Y-108.526
X122.465Y-112.658
X127.161Y-111.163
X132.944Y-101.625
X133.18Y-110.111
X133.252Y-104.164
X133.515Y-107.519
X137.117Y-107.313
X143.377Y-113.716
X145.42Y-111.298
X146.115Y-109.04
X146.149Y-110.116
X147.593Y-130.471
T2
X110.236Y-101.261
X140.724Y-100.001
T3
X95.885Y-115.57
X95.885Y-120.65
X100.965Y-90.17
X100.965Y-95.25
X98.425Y-115.57
X98.425Y-120.65
X100.965Y-115.57
X100.965Y-120.65
X93.345Y-90.17
X93.345Y-95.25
X95.885Y-90.17
X95.885Y-95.25
X98.425Y-90.17
X98.425Y-95.25
X93.345Y-115.57
X93.345Y-120.65
T4
X150.632Y-116.342
X150.632Y-119.878
X152.4Y-118.11
X154.168Y-116.342
X154.168Y-119.878
X150.632Y-90.942
X150.632Y-94.478
X152.4Y-92.71
X154.168Y-90.942
X154.168Y-94.478
T5
X115.11Y-116.69
X116.495Y-119.53
X117.88Y-116.69
X119.265Y-119.53
X120.65Y-116.69
X122.035Y-119.53
X123.42Y-116.69
X124.805Y-119.53
X126.19Y-116.69
X115.11Y-91.29
X116.495Y-94.13
X117.88Y-91.29
X119.265Y-94.13
X120.65Y-91.29
X122.035Y-94.13
X123.42Y-91.29
X124.805Y-94.13
X126.19Y-91.29
T6
X72.39Y-74.93
X72.39Y-135.89
X74.93Y-74.93
X74.93Y-135.89
X77.47Y-74.93
X77.47Y-135.89
X80.01Y-74.93
X80.01Y-135.89
X82.55Y-74.93
X82.55Y-135.89
X85.09Y-74.93
X85.09Y-135.89
X87.63Y-74.93
X87.63Y-135.89
X90.17Y-74.93
X90.17Y-135.89
X92.71Y-74.93
X92.71Y-135.89
X95.25Y-74.93
X95.25Y-135.89
X97.79Y-74.93
X97.79Y-135.89
X100.33Y-74.93
X100.33Y-135.89
X102.87Y-74.93
X102.87Y-135.89
X105.41Y-74.93
X105.41Y-135.89
X107.95Y-74.93
X107.95Y-135.89
X110.49Y-74.93
X110.49Y-135.89
X113.03Y-74.93
X113.03Y-135.89
X115.57Y-74.93
X115.57Y-135.89
X118.11Y-74.93
X118.11Y-135.89
X120.65Y-74.93
X120.65Y-135.89
X123.19Y-74.93
X123.19Y-135.89
X125.73Y-74.93
X125.73Y-135.89
X128.27Y-74.93
X128.27Y-135.89
X130.81Y-74.93
X130.81Y-135.89
X133.35Y-74.93
X133.35Y-135.89
T7
X89.868Y-116.169
X90.231Y-93.077
X92.155Y-85.417
X94.276Y-86.698
X96.29Y-104.903
X115.359Y-97.337
T8
X187.503Y-118.11
T9
X175.16Y-88.51
X175.16Y-92.71
X175.16Y-96.91
X180.66Y-88.51
X180.66Y-92.71
X180.66Y-96.91
T10
X152.4Y-111.11
X152.4Y-85.71
T11
X184.506Y-118.11
X185.496Y-113.614
X185.496Y-122.606
T12
X187.96Y-88.51
X187.96Y-96.91
T13
X108.155Y-118.11
X133.142Y-118.11
X108.155Y-92.71
X133.142Y-92.71
T14
X178.511Y-118.11
T15
X73.66Y-80.01
X73.66Y-130.81
X165.1Y-74.93
X165.1Y-135.89
T0
M30
